<svg width="112" height="94" viewBox="0 0 112 94" fill="none" xmlns="http://www.w3.org/2000/svg">
<rect width="112" height="94" rx="12" fill="#EEF0E5"/>
<path d="M-9 74C14 40 43 34 62 44C82 55 93 41 122 12V94H-9V74Z" fill="#E8E3C9"/>
<path d="M15 71L91 12" stroke="#B7BEC7" stroke-width="10" stroke-linecap="round"/>
<path d="M28 91L106 30" stroke="#D6D8D5" stroke-width="15" stroke-linecap="round"/>
<path d="M7 42L81 -10" stroke="#F3E7BF" stroke-width="11" stroke-linecap="round"/>
<rect x="28" y="27" width="21" height="16" rx="3" fill="#FDF9EE" stroke="#D9D3BD"/>
<rect x="55" y="18" width="23" height="17" rx="3" fill="#FDF9EE" stroke="#D9D3BD"/>
<rect x="65" y="48" width="24" height="17" rx="3" fill="#FDF9EE" stroke="#D9D3BD"/>
<path d="M32 35H44M59 26H73M70 56H85" stroke="#E0B25E" stroke-width="1.2" stroke-linecap="round"/>
<text x="15" y="63" fill="#D6A84E" font-family="-apple-system, BlinkMacSystemFont, sans-serif" font-size="9" font-weight="700">AI</text>
</svg>
