<svg width="158" height="178" viewBox="0 0 158 178" fill="none" xmlns="http://www.w3.org/2000/svg">
<path d="M41.1443 27.2604C25.4825 40.5449 27.3936 58.0828 30.3069 65.1912C2.33967 139.305 34.8514 156.61 46.2133 158.008C47.9394 158.221 51.3648 158.536 55.8274 158.874C68.3706 159.823 89.108 160.947 103.339 160.455C106.931 160.331 110.11 160.104 112.636 159.745C112.999 159.693 113.349 159.639 113.685 159.581C160.88 151.541 136.933 85.6424 126.27 43.6912C123.648 32.1547 113.632 15.9082 108.563 11.8879C118.352 9.96511 115.38 3.49764 111.063 1.21569C106.517 -1.18673 101.222 1.57488 100.75 7.68314C85.8396 3.67244 67.6608 5.71175 62.7665 7.16839C66.4372 3.14805 60.2024 -1.60083 55.9495 0.525877C51.0552 2.97332 51.9291 11.8879 58.047 9.26599C51.7543 12.6221 43.5914 23.2401 41.1443 27.2604Z" fill="#FDF7E4"/>
<path d="M60.2824 8.94463C59.1792 8.94463 56.8404 8.41508 56.3108 6.29691C55.6489 3.64918 60.2824 7.62077 60.2824 8.94463Z" fill="#F5E8C8"/>
<path d="M105.295 10.9296C104.069 10.157 108.293 4.79783 109.867 6.31108C111.916 8.28135 106.595 11.1775 105.295 10.9296Z" fill="#F5E8C8"/>
<path d="M74.998 47.6973L78.4132 49.3933L81.8057 47.3382M78.4961 50.9643L78.8828 58.2956M78.8828 58.2956L76.6688 59.4626M78.8828 58.2956L81.2072 59.2233" stroke="#1C140A" stroke-linecap="round"/>
<path d="M60.477 43.8399C60.6558 43.786 60.9386 43.8221 61.2478 44.0424C61.5486 44.2568 61.8333 44.6221 61.9842 45.1214C62.2576 46.0271 61.6653 46.9884 60.7884 47.2533C60.4964 47.3415 60.2434 47.2412 60.0069 46.9246C59.7587 46.5922 59.5971 46.0877 59.5785 45.6181C59.5547 45.0127 59.6725 44.6035 59.8361 44.3364C59.9962 44.075 60.2193 43.9177 60.477 43.8399ZM95.3567 43.8606C95.6145 43.8244 95.8398 43.9458 96.057 44.2905C96.2771 44.6399 96.4132 45.1199 96.4674 45.5046C96.5211 45.8864 96.5102 46.3076 96.3827 46.6397C96.2664 46.9427 96.0554 47.1775 95.6363 47.2666C95.201 47.359 94.8116 47.1754 94.512 46.8036C94.2027 46.4197 94.0503 45.9009 94.0965 45.4992C94.1535 45.0033 94.2895 44.617 94.491 44.3487C94.6821 44.0942 94.9522 43.9175 95.3567 43.8606Z" fill="#3C1814" stroke="#100000"/>
<circle cx="60.4035" cy="42.2186" r="10.063" transform="rotate(-2.61419 60.4035 42.2186)" stroke="black" stroke-width="0.5"/>
<path d="M70.4762 40.537C72.8374 39.1088 79.7401 36.9452 86.3661 39.8117" stroke="black" stroke-width="0.5"/>
<path d="M50.2676 42.5101L48.5215 42.5898" stroke="black" stroke-width="0.5" stroke-linecap="round"/>
<path d="M106.494 39.9414L108.415 39.8537" stroke="black" stroke-width="0.5" stroke-linecap="round"/>
<circle cx="96.3539" cy="42.8505" r="10.3857" transform="rotate(-2.61419 96.3539 42.8505)" stroke="black" stroke-width="0.5"/>
<path d="M128.934 93.5686C110.24 90.0596 85.661 97.684 75.7083 101.935C38.4464 82.4892 12.9017 88.9875 12.8201 93.5457C12.7527 97.3039 11.734 143.29 20.3057 146.535C29.0847 149.859 70.2193 150.497 81.8404 156.449C87.4256 153.229 141.929 152.858 143.228 149.33C146.71 139.88 133.337 94.7508 128.934 93.5686Z" fill="#9B9A5B" stroke="#B5B479" stroke-width="0.5"/>
<path d="M129.88 90.0452C111.185 86.5362 86.6063 94.1606 76.6536 98.4114C39.3918 78.9657 13.847 85.4641 13.7654 90.0222C13.698 93.7804 12.6793 139.766 21.251 143.012C30.03 146.336 71.1646 146.973 82.7858 152.926C88.3709 149.705 142.874 149.335 144.174 145.807C147.655 136.357 134.283 91.2274 129.88 90.0452Z" fill="#F3E3BE" stroke="#B5B479" stroke-width="0.5"/>
<path d="M20.5733 134.847C18.8382 132.87 18.3388 102.149 18.306 87.0346C33.1196 79.6821 64.0119 91.4401 77.6064 98.2382C89.6939 91.8965 111.38 89.4862 122.472 89.3659C125.312 89.3351 128.228 89.0239 131.514 90.8503C134.8 92.6766 147.834 142.583 143.194 142.281C128.348 141.316 97.1432 145.021 83.3964 146.995C58.8052 136.616 28.2621 137.855 26.2645 138.263C24.2669 138.671 22.7422 137.317 20.5733 134.847Z" fill="#FDF9E8"/>
<path d="M83.2877 147.397L77.498 98.6387" stroke="#B5B479" stroke-width="0.5"/>
<path d="M88.2444 108.209C93.9654 105.654 108.848 101.09 122.611 103.275" stroke="#B5B479" stroke-width="0.5"/>
<path d="M34.3207 127.674C40.5575 127.075 56.1187 127.491 68.4687 133.946" stroke="#B5B479" stroke-width="0.5"/>
<path d="M104.243 116.925C109.355 115.466 118.463 113.191 123.102 113.492" stroke="#B5B479" stroke-width="0.5"/>
<path d="M34.9311 113.128C42.641 114.089 56.238 116.217 62.5437 119.17" stroke="#B5B479" stroke-width="0.5"/>
<path d="M107.245 125.412L116.178 123.587" stroke="#B5B479" stroke-width="0.5"/>
<path d="M118.895 123.366L125.831 121.94" stroke="#B5B479" stroke-width="0.5"/>
<path d="M100.243 133L128.179 128.939" stroke="#B5B479" stroke-width="0.5"/>
<g filter="url(#filter0_d_553_1288)">
<path d="M55.2334 91.863L52.094 78.8769L40.1645 81.7529C42.7373 86.0393 48.5779 94.6773 51.358 94.938C52.1839 95.0155 52.3508 94.6927 52.7404 94.1493C52.9715 93.8269 53.403 93.7556 53.79 93.6683C54.6411 93.4764 55.2877 92.4227 55.2334 91.863Z" fill="#FDF7E4"/>
<path d="M52.094 78.8769L55.2334 91.863C55.2877 92.4227 54.6411 93.4764 53.79 93.6683C53.403 93.7556 52.9715 93.8269 52.7404 94.1493C52.3508 94.6927 52.1839 95.0155 51.358 94.938C48.5779 94.6773 42.7373 86.0393 40.1645 81.7529" stroke="#1C140A" stroke-width="0.5"/>
</g>
<g filter="url(#filter1_d_553_1288)">
<path d="M103.777 91.9547C104.011 91.3449 108.788 84.3996 111.147 81.0032L122.28 85.9141C120.012 88.5804 114.246 94.2516 109.326 95.6057C107.613 96.0771 106.625 95.7978 106.127 95.1895C105.777 94.7624 105.255 94.2924 104.835 93.9334C104.169 93.3635 103.653 92.2768 103.777 91.9547Z" fill="#FDF7E4"/>
<path d="M111.147 81.0032C108.788 84.3996 104.011 91.3449 103.777 91.9547C103.653 92.2768 104.169 93.3635 104.835 93.9334C105.255 94.2924 105.777 94.7624 106.127 95.1895C106.625 95.7978 107.613 96.0771 109.326 95.6057C114.246 94.2516 120.012 88.5804 122.28 85.9141" stroke="#1C140A" stroke-width="0.5"/>
</g>
<path d="M54.3603 165.632C44.433 169.887 33.1785 155.041 43.1075 149.084C53.2616 142.991 59.6574 163.361 54.3603 165.632Z" fill="#F5EBC8"/>
<path d="M104.652 165.201C96.5574 158.05 105.158 141.524 114.792 147.948C124.644 154.517 108.971 169.016 104.652 165.201Z" fill="#F5EBC8"/>
<defs>
<filter id="filter0_d_553_1288" x="38.2492" y="78.8184" width="18.9371" height="22.0809" filterUnits="userSpaceOnUse" color-interpolation-filters="sRGB">
<feFlood flood-opacity="0" result="BackgroundImageFix"/>
<feColorMatrix in="SourceAlpha" type="matrix" values="0 0 0 0 0 0 0 0 0 0 0 0 0 0 0 0 0 0 127 0" result="hardAlpha"/>
<feOffset dy="4"/>
<feGaussianBlur stdDeviation="0.85"/>
<feComposite in2="hardAlpha" operator="out"/>
<feColorMatrix type="matrix" values="0 0 0 0 0.607843 0 0 0 0 0.603922 0 0 0 0 0.356863 0 0 0 0.2 0"/>
<feBlend mode="normal" in2="BackgroundImageFix" result="effect1_dropShadow_553_1288"/>
<feBlend mode="normal" in="SourceGraphic" in2="effect1_dropShadow_553_1288" result="shape"/>
</filter>
<filter id="filter1_d_553_1288" x="101.808" y="80.8613" width="22.3629" height="20.9305" filterUnits="userSpaceOnUse" color-interpolation-filters="sRGB">
<feFlood flood-opacity="0" result="BackgroundImageFix"/>
<feColorMatrix in="SourceAlpha" type="matrix" values="0 0 0 0 0 0 0 0 0 0 0 0 0 0 0 0 0 0 127 0" result="hardAlpha"/>
<feOffset dy="4"/>
<feGaussianBlur stdDeviation="0.85"/>
<feComposite in2="hardAlpha" operator="out"/>
<feColorMatrix type="matrix" values="0 0 0 0 0.607843 0 0 0 0 0.603922 0 0 0 0 0.356863 0 0 0 0.2 0"/>
<feBlend mode="normal" in2="BackgroundImageFix" result="effect1_dropShadow_553_1288"/>
<feBlend mode="normal" in="SourceGraphic" in2="effect1_dropShadow_553_1288" result="shape"/>
</filter>
</defs>
</svg>
