<svg width="402" height="285" viewBox="0 0 402 285" fill="none" xmlns="http://www.w3.org/2000/svg">
<ellipse cx="348" cy="126.5" rx="41" ry="9.5" fill="#DDE1AC"/>
<path d="M310.358 49.2432C308.157 43.8738 306.714 30.6262 318.544 20.5916C320.393 17.5547 326.559 9.53429 331.312 6.99921C326.691 8.97974 326.03 2.24594 329.727 0.397229C332.94 -1.20921 337.65 2.37793 334.877 5.41476C338.574 4.31446 352.305 2.77403 363.568 5.80358C363.925 1.18961 367.925 -0.896418 371.358 0.918287C374.619 2.642 376.864 7.5273 369.47 8.97969C373.299 12.0165 380.865 24.2885 382.845 33.0029C390.899 64.6913 408.988 114.469 373.339 120.542C373.085 120.585 372.821 120.627 372.547 120.666C372.591 122.649 373.471 126.748 368.982 127.012C364.493 127.276 365.444 123.271 365.524 121.202C354.774 121.574 339.11 120.725 329.635 120.008C329.723 122.034 329.311 125.443 327.259 125.956C326.202 126.22 325.278 126.22 323.958 125.956C322.637 125.692 321.95 123.157 322.373 119.354C313.791 118.298 289.232 105.226 310.358 49.2432Z" fill="#FFFBE3"/>
<path d="M335.141 24.5967L337.649 26.0119L340.29 24.5967M337.649 27.2003V32.7457M337.649 32.7457L335.933 33.5379M337.649 32.7457L339.366 33.5379" stroke="#1C140A" stroke-linecap="round"/>
<path d="M326.125 24.0836C326.209 24.1224 326.333 24.2459 326.392 24.4997C326.448 24.7441 326.43 25.0664 326.276 25.401C326.009 25.9814 325.269 26.2118 324.695 25.9473C324.546 25.8791 324.466 25.7558 324.488 25.4922C324.512 25.2088 324.66 24.8651 324.872 24.6058C325.151 24.265 325.403 24.109 325.601 24.0486C325.792 23.9902 325.966 24.0104 326.125 24.0836ZM354.841 25.6659C355.091 25.8104 355.339 26.0683 355.504 26.298C355.668 26.5252 355.796 26.7909 355.825 27.0292C355.849 27.2367 355.803 27.4252 355.59 27.6026C355.376 27.7806 355.103 27.8003 354.802 27.6701C354.487 27.534 354.229 27.2642 354.132 27.0133C354 26.6741 353.961 26.391 353.996 26.1695C354.029 25.9649 354.13 25.7801 354.354 25.6183C354.459 25.543 354.595 25.5241 354.841 25.6659Z" fill="#3C1814" stroke="#100000"/>
<circle cx="324.775" cy="24.3576" r="7.54008" transform="rotate(0.40478 324.775 24.3576)" stroke="black" stroke-width="0.5"/>
<path d="M332.439 23.4882C334.277 22.5048 339.57 21.1474 344.454 23.5732" stroke="black" stroke-width="0.5"/>
<path d="M317.117 24.1724L315.797 24.1631" stroke="black" stroke-width="0.5" stroke-linecap="round"/>
<path d="M359.632 24.4717L361.084 24.4819" stroke="black" stroke-width="0.5" stroke-linecap="round"/>
<circle cx="351.832" cy="25.8693" r="7.54008" transform="rotate(0.40478 351.832 25.8693)" stroke="black" stroke-width="0.5"/>
<g filter="url(#filter0_d_0_1)">
<path d="M419 288V64.7183H335.007L329.874 42.9755C329.492 41.3565 327.415 40.8846 326.371 42.1794L308.19 64.7183H-4V288H419Z" fill="#FFFCF4"/>
<path d="M326.76 42.4932C327.543 41.5221 329.101 41.8766 329.388 43.0908L334.521 64.833L334.611 65.2188H418.5V287.5H-3.5V65.2188H308.43L308.579 65.0322L326.76 42.4932Z" stroke="#A5AE66"/>
</g>
<path d="M47.26 104.006H52.034V105.854H39.784V104.006H41.716V97.79L43.508 97.86V104.006H45.454V96.432H40.666V94.584H51.306V96.432H47.26V98.994H50.984V100.842H47.26V104.006ZM63.6733 96.992H65.3253V104.664C65.3253 105.896 65.1293 106.274 64.0233 106.386L63.3793 106.456L62.8893 104.874L63.4493 104.804C63.7153 104.776 63.8413 104.65 63.8413 104.412V103.572H62.6513V105.91H61.1673V103.572H59.9353C59.7673 104.636 59.4033 105.49 58.7173 106.568L57.2753 105.7L57.6253 105.182H54.4193V101.654L53.9993 102.27L52.9073 100.926C53.6913 99.778 54.6433 97.874 55.1193 96.208H53.8173V94.514H58.2973V96.208H56.7153C56.5053 96.978 56.3233 97.678 56.0573 98.392H57.8773V104.748C58.4513 103.684 58.5633 102.732 58.5633 100.716V98.448L58.3113 98.686L57.3173 97.552C58.4793 96.46 59.6693 94.934 60.2713 93.618L61.8953 93.982C61.7973 94.22 61.6853 94.444 61.5873 94.654H64.5693V96.11C64.4433 96.208 64.0653 96.586 63.6733 96.992ZM62.5113 96.222H60.6073L59.9913 96.992H61.6573C61.9513 96.712 62.2873 96.39 62.5113 96.222ZM61.1673 98.644H60.0753V99.512H61.1673V98.644ZM63.8413 99.512V98.644H62.6513V99.512H63.8413ZM56.4493 103.516V100.086H55.8753V103.516H56.4493ZM60.0613 101.976H61.1673V101.136H60.0753V101.178C60.0753 101.458 60.0753 101.71 60.0613 101.976ZM62.6513 101.976H63.8413V101.136H62.6513V101.976ZM76.2505 104.454H79.5685V106.05H71.3785V104.636C70.2445 104.86 67.9905 105.378 67.4165 105.532L67.1645 103.88C67.4865 103.838 68.1445 103.698 68.8865 103.544V100.478H67.6545V98.854H68.8865V96.39H67.5565V94.766H71.6585V96.39H70.4825V98.854H71.5745V100.478H70.4825V103.18C71.0285 103.054 71.4765 102.956 71.7005 102.886L71.7845 103.782L71.8265 104.454H74.6685V103.586H72.0225V102.018H74.6685V101.15H71.9665V94.346H78.9385V101.15H76.2505V102.018H78.9385V103.586H76.2505V104.454ZM74.6685 95.942H73.5765V96.992H74.6685V95.942ZM77.3705 96.992V95.942H76.2505V96.992H77.3705ZM73.5765 99.582H74.6685V98.532H73.5765V99.582ZM76.2505 99.582H77.3705V98.532H76.2505V99.582ZM93.3778 102.424V103.964H91.2078V106.302H89.6958V103.964H87.5258V102.424H89.6958V101.388H88.8278C88.7298 101.71 88.6038 102.06 88.4498 102.41L87.1758 101.962V105.056C87.1758 106.064 86.9518 106.232 86.0698 106.344L85.4678 106.414L85.0758 105.14V105.686H83.7878V103.264H83.0738C82.9198 104.608 82.5558 105.49 82.0378 106.484L80.6378 105.812C81.4638 104.16 81.7438 103.418 81.7438 100.66V98.434L80.6098 97.58C81.6738 96.404 82.6258 95.116 83.2838 93.716L84.8238 93.996L84.4738 94.78H86.8398V96.124L86.0838 97.062H87.1758V97.93C88.1138 97.174 88.2398 96.726 88.4638 95.858H87.4698V94.36H92.9998C92.9578 95.032 92.8458 96.908 92.8038 97.202C92.7338 98.378 92.3698 98.602 91.1518 98.714L90.4238 98.77L89.9618 97.3L90.5498 97.244C91.1378 97.174 91.2218 97.104 91.2638 96.684C91.3058 96.39 91.3478 96.026 91.3618 95.858H90.0598C90.0458 96.012 90.0318 96.152 89.9898 96.306C89.7798 97.37 89.2478 98.14 88.2958 98.98L89.3178 99.246L89.2058 99.834H89.6958V98.994L91.2078 99.064V99.834H92.9158V101.388H91.2078V102.424H93.3778ZM84.9498 96.222H83.7178C83.5358 96.516 83.3818 96.796 83.1718 97.062H84.3058L84.9498 96.222ZM83.1718 98.518V99.428H83.7878V98.518H83.1718ZM85.0758 98.518V99.428H85.7478V98.518H85.0758ZM87.1758 98.546V101.682C87.5118 100.912 87.7638 100.044 87.9738 99.246C87.9598 99.274 87.9178 99.302 87.8618 99.344L87.1758 98.546ZM83.1718 101.794H83.7878V100.926H83.1718V101.304V101.794ZM85.7478 100.926H85.0758V101.794H85.7478V100.926ZM85.0758 105L85.3978 104.944C85.7198 104.888 85.7478 104.818 85.7478 104.552V103.264H85.0758V105ZM97.751 99.12C97.093 99.12 96.855 99.008 96.855 98.238C96.855 97.468 97.093 97.356 97.751 97.356C98.381 97.356 98.647 97.468 98.647 98.238C98.647 99.008 98.381 99.12 97.751 99.12ZM97.751 105.084C97.093 105.084 96.855 104.972 96.855 104.188C96.855 103.446 97.093 103.32 97.751 103.32C98.381 103.32 98.647 103.446 98.647 104.188C98.647 104.972 98.381 105.084 97.751 105.084ZM46.854 125L45.804 122.102H41.506L40.442 125H39.154L42.836 115.284H44.516L48.184 125H46.854ZM41.926 120.982H45.398L43.76 116.46H43.592L41.926 120.982ZM54.7639 117.44H55.9679V124.468C55.9679 126.554 54.8339 127.8 52.2719 127.8C51.6139 127.8 50.9279 127.716 50.4379 127.618V126.596C51.0119 126.708 51.6279 126.764 52.2859 126.764C53.9659 126.764 54.7639 126.078 54.7639 124.342V123.586C54.4419 124.482 53.7699 125 52.3139 125C49.7939 125 49.1779 123.446 49.1779 121.15C49.1779 119.064 49.7939 117.3 52.3139 117.3C53.8399 117.3 54.4699 117.958 54.7639 118.854V117.44ZM52.4819 123.992C54.3159 123.992 54.8059 122.956 54.8059 121.15C54.8059 119.414 54.3159 118.308 52.4819 118.308C50.6479 118.308 50.4659 119.68 50.4659 121.15C50.4659 122.718 50.6899 123.992 52.4819 123.992ZM64.5183 120.464C64.5183 120.674 64.4903 120.996 64.4483 121.346L59.3243 121.668C59.3243 123.306 59.9263 124.076 61.7463 124.076C62.5863 124.076 63.5383 123.866 64.1123 123.586V124.692C63.6503 124.916 62.6563 125.14 61.5643 125.14C59.3243 125.14 58.0643 124.23 58.0643 121.22C58.0643 118.21 59.3243 117.3 61.4943 117.3C64.0703 117.3 64.5183 118.994 64.5183 120.464ZM59.3243 120.772L63.3283 120.478C63.3283 119.302 63.1323 118.294 61.4943 118.294C59.7583 118.294 59.3663 119.232 59.3243 120.772ZM70.232 117.3C72.206 117.3 72.766 118.322 72.766 119.764V125H71.548V120.212C71.548 119.05 71.296 118.378 70.106 118.378C69.154 118.378 68.216 118.56 67.81 119.89V125H66.606V117.44H67.81V118.518C68.258 117.538 69.308 117.3 70.232 117.3ZM77.6123 124.076C77.9483 124.076 78.1723 124.048 78.4383 123.992V125.014C78.1443 125.056 77.9063 125.084 77.5843 125.084C75.9183 125.084 75.3163 124.678 75.3163 122.69V118.448H74.1963V117.44H75.3163V115.648H76.5203V117.44H78.3963V118.448H76.5203V122.62C76.5203 123.796 76.6883 124.076 77.6123 124.076ZM90.8668 115.942H94.7588C94.7448 117.09 94.7168 118.196 94.6888 119.26C94.6468 121.08 94.5908 123.194 94.5208 124.412C94.4508 125.602 94.1148 125.938 92.8828 126.05L91.6788 126.148L91.3428 125.084L92.7008 125C93.1628 124.958 93.4008 124.818 93.4568 124.09C93.5688 122.116 93.6248 118.616 93.6668 116.936L90.4748 116.95C90.2088 117.566 89.9428 118.154 89.6208 118.756L88.6688 118.252C89.4948 116.866 90.1808 115.088 90.5868 113.45L91.6088 113.66C91.3848 114.444 91.1468 115.2 90.8668 115.942ZM85.8128 113.576L86.9468 113.814C86.7928 114.43 86.5968 115.186 86.3168 115.97H88.4868V125.826H83.7128V115.97H85.1548C85.4348 115.228 85.6308 114.416 85.8128 113.576ZM87.5068 120.296V116.978H84.6928V120.296H87.5068ZM92.5468 121.906L91.6508 122.508C90.9928 121.164 90.2508 119.974 89.7048 119.19L90.5308 118.63C91.1608 119.47 91.9308 120.674 92.5468 121.906ZM84.6928 124.846H87.5068V121.318H84.6928V124.846ZM108.596 121.024H103.486C104.228 123.082 106.132 124.496 109.086 125.322L108.526 126.4C106.146 125.686 103.864 124.3 102.856 122.172C102.002 123.852 100.196 125.21 97.3541 126.4L96.7241 125.378C100.322 123.992 101.722 122.536 102.17 121.024H97.1721V119.974H102.31V119.918V117.44H97.9141V116.432H100.728C100.35 115.718 99.6921 114.682 99.2861 114.206L100.126 113.674C100.574 114.192 101.4 115.368 101.736 115.998L101.148 116.432H103.752C104.424 115.606 105.124 114.514 105.558 113.66L106.538 114.066C106.132 114.85 105.614 115.69 105.054 116.432H107.812V117.44H103.458L103.43 119.862V119.974H108.596V121.024ZM118.975 118.812V117.678H117.029V116.894H118.975V115.746H117.407V114.976H118.975V113.716L119.829 113.758V114.976H121.999V116.894H122.797V117.678H121.999V119.61H119.829V120.702H122.237V121.5H119.829V122.578H122.587V123.376H119.829V124.608H118.975V123.376H116.861V122.578H118.975V121.5H117.323V120.702H118.975V119.61H117.393V118.812H118.975ZM114.285 116.306H111.891C111.611 116.964 111.275 117.622 110.883 118.35L110.113 117.874C110.827 116.684 111.513 115.158 111.863 113.744L112.773 113.884C112.619 114.43 112.437 114.948 112.255 115.424H114.285V116.306ZM119.045 124.93C120.347 125 121.635 124.986 122.937 124.916L122.783 125.77C121.495 125.84 120.235 125.854 118.947 125.784C117.589 125.714 116.469 125.35 115.615 124.244C115.265 124.916 114.817 125.574 114.271 126.302L113.557 125.7C114.215 124.958 114.705 124.216 115.083 123.418C114.733 122.746 114.439 121.906 114.201 120.8L114.943 120.52C115.097 121.206 115.279 121.836 115.517 122.382C115.811 121.486 115.965 120.562 116.063 119.456H114.383V118.602C114.999 117.692 115.517 116.698 116.007 115.634H114.509V114.766H116.903V115.648C116.413 116.712 115.909 117.692 115.293 118.602H116.861V119.498C116.707 121.066 116.455 122.228 116.021 123.334C116.679 124.286 117.603 124.832 119.045 124.93ZM119.829 115.746V116.894H121.201V115.746H119.829ZM121.201 118.812V117.678H119.829V118.812H121.201ZM114.047 123.404L114.257 124.384C113.977 124.594 112.885 125.35 112.507 125.616C112.353 125.742 112.171 125.882 112.003 126.05L111.471 125.21C111.737 125 111.863 124.832 111.863 124.51V121.5H110.407V120.646H111.863V118.826H111.177V117.93H114.033V118.826H112.717V120.646H114.117V121.5H112.717V124.44C113.095 124.174 113.753 123.628 114.047 123.404ZM136.089 115.746H131.959C131.469 116.642 130.937 117.496 130.363 118.294L131.077 118.336V126.4H129.999V118.784C128.697 120.478 127.101 122.018 125.085 123.474L124.301 122.592C127.269 120.576 129.285 118.308 130.685 115.746H125.029V114.682H136.089V115.746ZM131.623 119.302L132.323 118.518C133.625 119.526 135.613 121.262 136.649 122.452L135.865 123.404C134.773 122.088 132.841 120.268 131.623 119.302ZM148.344 114.388V119.19H139.944V114.388H148.344ZM147.294 115.242H140.994V116.348H147.294V115.242ZM140.994 118.336H147.294V117.216H140.994V118.336ZM145.11 125.154C146.86 125.224 148.694 125.21 150.486 125.112L150.234 126.05C148.54 126.12 146.832 126.134 145.138 126.064C143.066 125.994 141.792 125.518 140.784 124.174C140.35 125.084 139.762 125.84 138.88 126.582L138.026 125.91C139.482 124.678 140.182 123.474 140.56 121.64L141.596 121.78C141.484 122.284 141.358 122.746 141.204 123.18C141.862 124.23 142.674 124.762 143.808 125V121.136H138.376V120.254H150.08V121.136H144.844V122.592H149.086V123.446H144.844V125.14C144.942 125.14 145.012 125.154 145.11 125.154ZM152.717 114.472H163.329V126.26H162.237V125.364H153.795V126.26H152.717V114.472ZM153.795 124.314H162.237V115.55H153.795V124.314ZM155.517 117.44H160.473V122.424H155.517V117.44ZM159.521 121.472V118.392H156.483V121.472H159.521ZM168.514 115.956H168.024C167.534 116.684 166.988 117.398 166.498 117.944L165.602 117.398C166.694 116.306 167.758 114.64 168.248 113.506L169.34 113.674C169.13 114.108 168.906 114.542 168.612 115.032H171.944V115.956H169.592L170.348 117.3L169.494 117.79C169.312 117.356 168.808 116.404 168.514 115.956ZM172.56 117.16L171.58 116.684C172.42 115.662 172.91 114.668 173.288 113.618L174.366 113.8C174.198 114.234 174.016 114.626 173.806 115.032H177.866V115.956H175.262L176.284 117.412L175.472 117.986C175.206 117.496 174.45 116.404 174.086 115.956H173.316C173.078 116.39 172.826 116.782 172.56 117.16ZM171.272 117.118H172.322C173.708 118.448 175.542 119.568 178.174 120.366L177.74 121.304C176.62 120.898 175.724 120.52 174.954 120.128V120.926H168.598V120.058C167.73 120.492 166.806 120.898 165.84 121.248L165.392 120.366C167.982 119.568 169.914 118.364 171.272 117.118ZM168.738 119.988H174.674C173.428 119.33 172.588 118.672 171.818 117.902C171.048 118.616 169.984 119.33 168.738 119.988ZM167.646 126.344V122.074H175.948V126.358H174.912V125.742H168.682V126.344H167.646ZM174.912 123.026H168.682V124.832H174.912V123.026ZM180.392 114.556L181.05 113.8C181.652 114.248 182.814 115.312 183.304 115.914L182.548 116.824C182.072 116.124 180.98 115.004 180.392 114.556ZM190.99 114.724V124.3C190.99 125.756 190.542 126.078 188.764 126.232L188.036 126.288L187.644 125.21L188.624 125.154C189.73 125.084 189.926 124.832 189.926 123.978V115.788H183.808V114.724H190.99ZM180.322 116.586L181.386 116.628V126.274H180.322V116.586ZM183.192 117.874H188.106V123.264H183.192V117.874ZM184.2 118.84V122.284H187.098V118.84H184.2ZM198.611 114.416V118.994H194.145V114.416H198.611ZM199.899 117.02H201.551C201.677 116.572 201.831 115.942 201.929 115.48H199.409V114.612H205.401V115.48H202.853C202.755 115.928 202.629 116.558 202.475 117.02H204.673V122.074H203.777V117.874H200.795V122.088H199.899V117.02ZM197.687 115.2H195.069V116.32H197.687V115.2ZM195.069 118.21H197.687V117.09H195.069V118.21ZM201.845 118.616L202.699 118.63V120.45C202.699 122.634 201.873 123.67 199.381 124.748L198.919 123.936C201.467 122.844 201.845 121.99 201.845 120.254V118.616ZM198.135 124.972C200.697 125.098 203.189 125.07 205.751 124.944L205.499 125.938C202.993 126.05 200.627 126.064 198.121 125.952C196.427 125.882 195.461 125.546 194.677 124.048C194.411 124.832 194.047 125.49 193.599 126.26L192.815 125.826C193.655 124.454 194.159 123.418 194.313 121.43L195.195 121.486C195.153 122.032 195.097 122.48 194.999 122.914C195.405 123.88 195.797 124.37 196.357 124.636V120.856H193.375V120.002H199.409V120.856H197.309V122.312H199.213V123.166H197.309V124.902C197.575 124.944 197.813 124.958 198.135 124.972ZM205.331 123.88L204.785 124.72C204.421 124.314 203.273 123.32 202.517 122.76L202.993 122.06C203.889 122.62 204.925 123.474 205.331 123.88ZM209.228 126.904H208.234C208.99 125.728 209.55 124.272 209.55 123.222H210.712C210.712 124.44 209.9 126.008 209.228 126.904ZM232.851 115.55H227.643C227.489 116.208 227.237 117.062 227.013 117.692H232.025V124.538C232.025 125.798 231.661 126.134 230.401 126.204L229.771 126.26L229.435 125.196L230.177 125.14C230.877 125.098 231.017 124.93 231.017 124.23V118.672H228.959V125.546H227.993V118.672H225.921V125.546H224.955V118.672H222.911V126.19H221.917V117.692H225.809C226.047 117.076 226.299 116.208 226.453 115.55H221.077V114.542H232.851V115.55ZM244.813 114.388V119.19H236.413V114.388H244.813ZM243.763 115.242H237.463V116.348H243.763V115.242ZM237.463 118.336H243.763V117.216H237.463V118.336ZM241.579 125.154C243.329 125.224 245.163 125.21 246.955 125.112L246.703 126.05C245.009 126.12 243.301 126.134 241.607 126.064C239.535 125.994 238.261 125.518 237.253 124.174C236.819 125.084 236.231 125.84 235.349 126.582L234.495 125.91C235.951 124.678 236.651 123.474 237.029 121.64L238.065 121.78C237.953 122.284 237.827 122.746 237.673 123.18C238.331 124.23 239.143 124.762 240.277 125V121.136H234.845V120.254H246.549V121.136H241.313V122.592H245.555V123.446H241.313V125.14C241.411 125.14 241.481 125.154 241.579 125.154ZM260.4 116.418H253.162C252.672 117.51 252.098 118.518 251.412 119.442V126.358H250.376V120.744C249.858 121.346 249.298 121.892 248.682 122.452L247.954 121.626C249.704 120.184 251.048 118.42 252.014 116.418H248.5V115.41H252.476C252.742 114.794 252.952 114.178 253.134 113.548L254.142 113.8C253.988 114.346 253.806 114.878 253.596 115.41H260.4V116.418ZM256.62 124.412H260.526V125.406H251.86V124.412H255.57V120.786H252.448V119.778H255.57V117.426L256.62 117.468V119.778H259.882V120.786H256.62V124.412ZM268.483 114.542H273.607V124.524C273.607 125.798 273.173 126.05 271.717 126.204L271.003 126.274L270.653 125.238L271.563 125.168C272.459 125.098 272.613 124.986 272.613 124.272V122.116H269.337C269.029 124.006 268.343 125.084 266.803 126.554L266.005 125.924C268.203 123.866 268.483 122.984 268.483 119.12V114.542ZM267.013 114.822V124.146H262.925V114.822H267.013ZM272.613 115.55H269.491V117.86H272.613V115.55ZM266.103 115.844H263.863V118.938H266.103V115.844ZM269.449 121.122H272.613V118.826H269.491V119.638C269.491 120.184 269.477 120.674 269.449 121.122ZM263.863 123.138H266.103V119.946H263.863V123.138ZM285.554 117.258H287.668V124.664C287.668 125.77 287.374 126.078 286.254 126.19L285.708 126.246L285.372 125.294L285.988 125.238C286.604 125.182 286.744 125.07 286.744 124.454V123.292H284.896V126.022H283.986V123.292H282.082C281.928 124.482 281.564 125.322 280.808 126.498L279.926 125.98C281.046 124.328 281.27 123.418 281.27 120.8V118.098L280.836 118.546L280.164 117.874C281.27 116.796 282.432 115.032 283.104 113.576L284.084 113.898C283.93 114.234 283.762 114.542 283.594 114.864H286.758V115.704C286.38 116.25 285.988 116.768 285.554 117.258ZM280.108 125.154H277.098V120.324C276.86 120.758 276.594 121.15 276.3 121.584L275.46 121.024C276.622 119.4 277.462 117.664 277.924 115.76H276.244V114.78H280.738V115.76H278.876C278.61 116.838 278.316 117.804 277.91 118.714H280.108V125.154ZM285.512 115.802H283.048C282.726 116.32 282.39 116.796 282.012 117.258H284.28C284.714 116.81 285.12 116.32 285.512 115.802ZM283.986 119.82V118.238H282.194V119.82H283.986ZM286.744 119.82V118.238H284.896V119.82H286.744ZM277.994 119.708V124.146H279.212V119.708H277.994ZM282.166 122.34H283.986V120.8H282.194V121.08C282.194 121.542 282.18 121.962 282.166 122.34ZM284.896 122.34H286.744V120.8H284.896V122.34ZM294.156 123.88L293.246 123.138C295.304 121.416 295.878 120.24 296.06 117.09H293.792V116.026H296.116C296.158 115.354 296.2 114.276 296.2 113.786L297.25 113.842C297.25 114.346 297.194 115.354 297.152 116.026H301.016C300.96 116.614 300.736 121.136 300.68 121.724C300.568 123.222 300.036 123.628 298.174 123.74L297.586 123.782L297.222 122.634L298.104 122.578C299.35 122.508 299.518 122.382 299.588 121.36L299.868 117.09H297.096C296.872 120.618 296.214 121.976 294.156 123.88ZM293.05 116.474L292.224 117.3C291.804 116.544 290.782 115.326 290.264 114.766L291.076 114.136C291.636 114.668 292.602 115.844 293.05 116.474ZM297.306 124.93C298.972 124.972 300.624 124.93 302.192 124.832L301.926 125.924C300.442 125.994 298.706 125.994 297.544 125.994C294.618 125.952 293.4 125.826 291.86 124.258C291.342 124.888 290.978 125.28 290.194 126.064L289.48 125.336C290.264 124.608 290.936 123.908 291.426 123.278V119.218H289.914V118.28H292.476V123.558C293.82 124.818 294.856 124.888 297.306 124.93ZM316.113 122.494L315.609 123.446C314.601 123.11 313.495 122.62 312.431 122.06V126.4H311.353V121.906L312.221 121.934C311.199 121.374 310.289 120.744 309.687 120.086C309.113 120.688 308.245 121.318 307.139 121.892L308.161 121.934V122.648C308.161 124.216 307.545 125.462 305.249 126.624L304.619 125.742C306.691 124.762 307.111 123.978 307.111 122.648V121.906C306.103 122.452 304.955 122.942 303.723 123.376L303.163 122.452C305.501 121.794 307.461 120.814 308.749 119.708H304.927V114.318H314.433V119.708H310.569C311.955 120.94 314.111 122.004 316.113 122.494ZM309.197 115.228H305.949V116.614H309.197V115.228ZM313.411 116.614V115.228H310.163V116.614H313.411ZM305.949 117.454V118.812H309.197V117.454H305.949ZM310.163 118.812H313.411V117.454H310.163V118.812ZM323.986 115.928H328.55V124.468C328.55 125.84 328.186 125.98 326.464 126.204L325.778 126.288L325.4 125.224L326.296 125.14C327.374 125.028 327.486 124.944 327.486 124.118V116.95H323.986C323.972 117.608 323.916 118.168 323.79 118.728C324.84 119.624 326.52 121.318 327.262 122.326L326.534 123.25C325.89 122.27 324.476 120.744 323.44 119.778C322.894 121.024 321.928 122.144 320.29 123.39L319.604 122.494C322.208 120.562 322.866 119.162 322.908 116.95H319.436V126.26H318.386V115.928H322.908V113.8L323.986 113.842V115.928ZM342.947 122.914L343.731 123.39C343.689 123.684 343.577 124.272 343.423 124.762C343.185 125.56 342.849 126.134 342.219 126.134C341.561 126.134 341.127 125.686 340.903 124.384C340.791 123.824 340.637 122.186 340.637 120.478V117.174H338.257C338.243 117.398 338.243 117.58 338.243 117.734C338.229 118.784 338.201 119.652 338.103 120.436C338.901 120.926 339.699 121.416 340.259 121.794L339.769 122.788C339.265 122.396 338.607 121.92 337.935 121.472C337.571 123.404 336.801 124.692 335.359 126.358L334.477 125.714C336.003 124.048 336.689 122.83 336.983 120.856C336.437 120.52 335.947 120.254 335.569 120.044L335.989 119.274C336.311 119.428 336.689 119.624 337.095 119.862C337.151 119.232 337.165 118.546 337.207 117.748C337.207 117.594 337.221 117.398 337.221 117.174H335.989V116.208H337.221C337.221 115.606 337.235 114.976 337.235 114.486V113.674L338.299 113.716L338.271 116.208H341.645V120.422C341.645 122.102 341.813 123.614 341.883 124.146C341.953 124.552 342.121 125.014 342.289 125.014C342.499 125.014 342.625 124.608 342.723 124.174C342.821 123.768 342.891 123.348 342.947 122.914ZM335.261 119.428L335.345 119.904C334.967 120.086 334.519 120.268 334.001 120.478V124.776C334.001 125.798 333.665 125.952 332.545 126.064L331.831 126.134L331.481 125.098L332.223 125.042C332.895 125 332.979 124.874 332.979 124.356V120.884C332.321 121.122 331.649 121.36 331.089 121.528L330.851 120.548C331.425 120.38 332.195 120.114 332.979 119.792V117.202H331.271V116.222H332.979V113.744L334.001 113.786V116.222H335.471V117.202H334.001V119.386C334.449 119.204 334.855 119.036 335.191 118.882L335.261 119.428ZM348.315 113.786L349.099 114.486C348.203 115.676 346.719 117.104 345.543 118.042L344.955 117.174C346.019 116.376 347.461 114.906 348.315 113.786ZM356.561 114.57V115.578H350.163V114.57H356.561ZM348.315 117.328L349.127 117.958C348.805 118.518 348.343 119.12 347.839 119.722V126.274H346.789V120.87C346.215 121.472 345.627 122.004 345.081 122.438L344.465 121.556C345.921 120.464 347.531 118.672 348.315 117.328ZM357.261 118.602V119.61H354.909V124.44C354.909 125.714 354.419 126.064 353.033 126.176L351.997 126.274L351.675 125.196L352.781 125.112C353.607 125.07 353.789 124.902 353.789 124.132V119.61H349.337V118.602H357.261ZM361.438 113.898L362.53 114.136C362.208 115.13 361.858 116.04 361.48 116.852V126.302H360.444V118.77C360.01 119.484 359.548 120.142 359.044 120.814L358.176 120.142C359.506 118.392 360.724 116.348 361.438 113.898ZM371.084 120.45H367.15V124.524H370.678V125.56H362.614V124.524H366.058V120.45H362.25V119.386H366.058V115.998C364.84 116.152 363.706 116.236 362.88 116.278L362.67 115.242C364.616 115.172 368.298 114.668 370.132 114.29L370.356 115.34C369.53 115.508 368.382 115.69 367.15 115.858V119.386H371.084V120.45ZM46.896 138.378C48.24 138.98 49.92 139.414 52.258 139.792L51.88 140.786C49.206 140.184 47.344 139.764 45.832 138.98C44.278 139.764 42.416 140.436 39.882 141.01L39.42 140.058C41.674 139.596 43.396 139.05 44.796 138.392C44.082 137.916 43.382 137.314 42.696 136.586C42.08 137.188 41.394 137.762 40.652 138.308L40.008 137.664C41.534 136.544 43.074 134.836 43.858 133.576L44.81 133.968C44.6 134.304 44.39 134.64 44.124 134.962H50.158V135.816C49.136 136.782 48.128 137.608 46.896 138.378ZM43.41 135.83L43.382 135.858C44.124 136.642 44.894 137.3 45.846 137.846C46.952 137.244 47.82 136.558 48.604 135.83H43.41ZM44.404 140.002L45.51 140.1C45.468 140.31 45.44 140.758 45.342 141.304H50.27C50.228 141.752 49.948 144.034 49.878 144.482C49.696 145.77 49.318 145.952 48.282 146.064L46.77 146.204L46.448 145.266L47.918 145.14C48.492 145.084 48.73 144.86 48.856 144.132C48.94 143.74 49.066 142.48 49.108 142.214H45.174C44.656 144.398 43.396 145.574 40.372 146.512L39.854 145.63C42.458 144.846 43.62 143.936 44.068 142.214H40.918V141.304H44.25C44.348 140.758 44.39 140.212 44.404 140.002ZM56.3233 146.554C55.3153 146.554 54.4613 145.966 54.4613 144.79C54.4613 143.614 55.3153 143.026 56.3233 143.026C57.3313 143.026 58.1853 143.614 58.1853 144.79C58.1853 145.966 57.3173 146.554 56.3233 146.554ZM56.3233 145.812C56.9253 145.812 57.3733 145.462 57.3733 144.79C57.3733 144.118 56.9253 143.768 56.3233 143.768C55.7213 143.768 55.2733 144.118 55.2733 144.79C55.2733 145.462 55.7213 145.812 56.3233 145.812ZM68.6485 137.944H67.7525C68.1585 136.852 68.5225 135.438 68.5225 134.36H69.7125C69.7125 135.368 69.1665 136.908 68.6485 137.944ZM71.4205 137.944H70.5385C70.9445 136.852 71.3085 135.438 71.3085 134.36H72.4845C72.4845 135.368 71.9385 136.908 71.4205 137.944Z" fill="#4D4635"/>
<g filter="url(#filter1_d_0_1)">
<rect x="51" y="170" width="321" height="42" rx="15" fill="#A5AE66"/>
</g>
<path d="M191.07 188.269L192.894 188.173C193.214 187.549 193.502 186.957 193.758 186.397L194.686 186.813C193.902 188.573 192.414 191.149 191.678 192.221C192.27 192.173 193.662 191.901 194.142 191.821L194.174 192.941L190.99 193.437C190.718 193.485 190.478 193.501 190.158 193.613L189.918 192.445C190.35 192.269 190.446 192.205 190.622 191.949C191.198 191.133 191.79 190.189 192.318 189.229C191.678 189.277 190.734 189.293 190.478 189.341C190.286 189.357 190.126 189.389 189.822 189.453L189.614 188.333C189.918 188.189 189.95 188.141 190.094 187.901C190.638 187.133 191.614 185.245 192.206 183.613L193.246 183.981C192.686 185.389 191.694 187.309 191.07 188.269ZM199.15 195.661V191.677C198.462 192.829 197.614 193.853 196.654 194.733L196.142 193.661C197.342 192.653 198.366 191.373 199.006 190.045H196.382V188.957H199.15V183.645L200.254 183.677V188.957H203.278V190.045H200.254V191.485L200.702 191.037C201.47 191.629 202.878 192.973 203.47 193.725L202.702 194.637C202.19 193.869 201.022 192.701 200.254 192.013V195.661H199.15ZM195.982 196.189H203.726V197.325H194.846V184.189L195.982 184.221V196.189ZM198.686 187.677L197.838 188.237C197.55 187.373 196.734 185.805 196.238 185.181L197.07 184.717C197.534 185.389 198.398 186.909 198.686 187.677ZM202.302 184.781L203.278 185.133C202.942 185.981 202.094 187.421 201.566 188.125L200.702 187.693C201.214 187.069 202.014 185.581 202.302 184.781ZM194.382 194.893L194.43 195.437L194.494 196.077C193.326 196.285 190.75 196.733 189.454 196.941L189.358 195.773C190.606 195.597 193.182 195.101 194.382 194.893ZM214.068 187.437V185.933H210.852V184.957H214.068V183.405L215.14 183.453V184.957H218.644V185.933H215.14V187.437H218.884V188.413L217.94 190.685L217.012 190.397L217.844 188.461H210.436V187.437H214.068ZM206.196 189.357C206.004 189.373 205.844 189.405 205.54 189.469L205.3 188.397C205.556 188.285 205.668 188.173 205.844 187.933C206.372 187.197 207.428 185.085 208.036 183.549L208.964 183.933C208.42 185.293 207.364 187.405 206.852 188.253C207.14 188.205 208.132 188.141 208.692 188.141C209.06 187.453 209.348 186.861 209.604 186.301L210.468 186.717C209.7 188.381 208.308 190.909 207.444 192.109C208.004 192.029 209.284 191.837 210.052 191.709V192.797L206.772 193.309C206.468 193.357 206.276 193.389 205.892 193.501L205.604 192.429C205.94 192.301 206.212 192.141 206.42 191.837C206.996 191.021 207.556 190.125 208.084 189.229C207.428 189.277 206.436 189.357 206.196 189.357ZM214.292 190.221L213.876 191.085C213.22 190.557 211.876 189.805 211.252 189.597L211.636 188.797C212.436 189.133 213.636 189.789 214.292 190.221ZM219.476 194.221H215.428C215.38 194.365 215.316 194.493 215.252 194.621C216.436 195.213 218.324 196.285 219.188 196.893L218.708 197.981C217.812 197.341 215.876 196.093 214.724 195.501C213.844 196.605 212.388 197.357 209.956 198.045L209.508 196.989C212.308 196.269 213.668 195.485 214.292 194.221H210.132V193.197H214.644C214.756 192.669 214.82 192.061 214.836 191.405C214.836 190.893 214.884 189.341 214.884 188.861L215.924 188.909L215.86 191.293C215.844 191.997 215.796 192.637 215.684 193.197H219.476V194.221ZM210.564 191.357L210.964 190.573C211.844 190.909 213.092 191.629 213.684 192.093L213.268 192.877C212.628 192.365 211.252 191.613 210.564 191.357ZM210.388 195.309L210.42 195.789C208.996 196.141 206.964 196.541 205.332 196.797L205.188 195.645C206.724 195.437 208.772 195.021 210.356 194.637L210.388 195.309Z" fill="white"/>
<path d="M189.688 233.082H185.222C186.608 234.202 188.442 235.14 190.626 235.798C190.416 236.134 190.304 236.414 190.206 236.68C190.192 236.75 190.122 236.764 190.024 236.722C187.588 235.826 186.02 234.874 184.676 233.642V235.854H183.584V233.628C182.17 234.902 180.406 235.994 178.11 236.89L177.606 235.924C179.804 235.252 181.652 234.202 183.01 233.082H178.586V232.172H183.584V230.744L184.676 230.8V232.172H189.688V233.082ZM180.168 236.344H188.106V240.978H180.168V236.344ZM187.042 237.198H181.232V238.206H187.042V237.198ZM181.232 240.11H187.042V239.06H181.232V240.11ZM178.544 242.938V242.014H189.73V242.938H178.544ZM203.579 236.162H196.201C195.991 236.498 195.781 236.806 195.543 237.128H201.913V243.386H200.919V242.756H195.207V243.4H194.213V238.626C193.541 239.256 192.785 239.872 191.847 240.502L191.203 239.718C192.953 238.598 194.157 237.45 195.011 236.162H191.805V235.308H195.529C195.683 235 195.837 234.664 195.991 234.314H193.037V233.46H196.299L196.579 232.438C195.249 232.508 193.947 232.536 192.673 232.578L192.603 231.668C195.963 231.626 199.589 231.346 202.431 231.052L202.529 231.99C201.059 232.144 199.393 232.27 197.657 232.368C197.573 232.746 197.475 233.11 197.363 233.46H202.375V234.314H197.083C196.957 234.65 196.803 234.986 196.649 235.308H203.579V236.162ZM200.919 238.836V237.968H195.207V238.836H200.919ZM195.207 239.62V240.404H200.919V239.62H195.207ZM195.207 241.93H200.919V241.188H195.207V241.93ZM216.336 238.78H213.312V241.678C213.312 242.826 212.92 243.05 211.66 243.162L210.82 243.246L210.47 242.252L211.254 242.168C212.094 242.098 212.22 241.958 212.22 241.286V238.78H209V233.796H211.534C211.702 233.348 211.87 232.858 211.996 232.424H207.614V236.008C207.614 239.746 207.152 241.3 205.836 243.47L204.856 242.868C206.074 240.936 206.564 239.48 206.564 236.05V231.43H217.386V232.424H212.066L213.046 232.62C212.948 232.97 212.808 233.404 212.682 233.796H216.336V238.78ZM215.37 234.664H209.994V235.854H215.37V234.664ZM209.994 236.722V237.912H215.37V236.722H209.994ZM210.19 239.368L210.974 239.956C210.344 240.95 209.182 242.154 208.216 243.05L207.516 242.336C208.566 241.482 209.63 240.292 210.19 239.368ZM214.25 239.998L214.88 239.382C215.594 239.9 216.938 241.23 217.68 242.126L216.966 242.868C216.084 241.734 214.992 240.656 214.25 239.998ZM231.179 242.168L230.675 243.288C228.281 242.392 226.405 241.412 224.893 240.124C223.437 241.37 221.575 242.378 219.055 243.344L218.467 242.266C220.945 241.412 222.765 240.502 224.109 239.396C222.667 237.94 221.687 236.162 221.057 233.824H218.915V232.816H224.347C224.165 232.144 223.871 231.346 223.717 230.898L224.809 230.66C225.005 231.122 225.299 232.186 225.523 232.816H230.661V233.824H228.463C227.889 236.19 227.035 237.94 225.649 239.396C227.035 240.516 228.813 241.384 231.179 242.168ZM227.329 233.824H222.191C222.751 235.882 223.591 237.422 224.865 238.696C226.097 237.408 226.839 235.882 227.329 233.824Z" fill="#737946" fill-opacity="0.55"/>
<path d="M323.167 53.6578L319.074 46L313 50.351C315.201 52.5556 319.998 56.8602 321.582 56.4425C321.954 56.3446 322.053 56.1734 322.136 55.8945C322.254 55.4961 322.665 55.2387 322.911 54.9035C323.184 54.531 323.274 53.9405 323.167 53.6578Z" fill="#FFFBE3"/>
<path d="M337.691 53.6578C337.902 53.2401 341.652 48.7267 343.5 46.5221L350.102 51.3953C348.385 53.0777 344.134 56.5469 340.859 56.9646C339.9 57.0871 339.321 56.8808 339.01 56.5132C338.652 56.092 338.251 55.4347 337.992 54.9469C337.733 54.46 337.598 53.8411 337.691 53.6578Z" fill="#FFFBE3"/>
<path d="M319.074 46L323.167 53.6578C323.274 53.9405 323.184 54.531 322.911 54.9035C322.665 55.2387 322.254 55.4961 322.136 55.8945C322.053 56.1734 321.954 56.3446 321.582 56.4425C319.998 56.8602 315.201 52.5556 313 50.351M343.5 46.5221C341.652 48.7267 337.902 53.2401 337.691 53.6578C337.598 53.8411 337.733 54.46 337.992 54.9469C338.251 55.4347 338.652 56.092 339.01 56.5132C339.321 56.8808 339.9 57.0871 340.859 56.9646C344.134 56.5469 348.385 53.0777 350.102 51.3953" stroke="#1C140A" stroke-width="0.5"/>
<path d="M339 57L317 102.5" stroke="black" stroke-width="2" stroke-linecap="round"/>
<defs>
<filter id="filter0_d_0_1" x="-9" y="30.4336" width="433" height="257.566" filterUnits="userSpaceOnUse" color-interpolation-filters="sRGB">
<feFlood flood-opacity="0" result="BackgroundImageFix"/>
<feColorMatrix in="SourceAlpha" type="matrix" values="0 0 0 0 0 0 0 0 0 0 0 0 0 0 0 0 0 0 127 0" result="hardAlpha"/>
<feOffset dy="-6"/>
<feGaussianBlur stdDeviation="2.5"/>
<feComposite in2="hardAlpha" operator="out"/>
<feColorMatrix type="matrix" values="0 0 0 0 0.647059 0 0 0 0 0.682353 0 0 0 0 0.4 0 0 0 0.2 0"/>
<feBlend mode="normal" in2="BackgroundImageFix" result="effect1_dropShadow_0_1"/>
<feBlend mode="normal" in="SourceGraphic" in2="effect1_dropShadow_0_1" result="shape"/>
</filter>
<filter id="filter1_d_0_1" x="47" y="170" width="329" height="50" filterUnits="userSpaceOnUse" color-interpolation-filters="sRGB">
<feFlood flood-opacity="0" result="BackgroundImageFix"/>
<feColorMatrix in="SourceAlpha" type="matrix" values="0 0 0 0 0 0 0 0 0 0 0 0 0 0 0 0 0 0 127 0" result="hardAlpha"/>
<feOffset dy="4"/>
<feGaussianBlur stdDeviation="2"/>
<feComposite in2="hardAlpha" operator="out"/>
<feColorMatrix type="matrix" values="0 0 0 0 0.596078 0 0 0 0 0.639216 0 0 0 0 0.368627 0 0 0 0.2 0"/>
<feBlend mode="normal" in2="BackgroundImageFix" result="effect1_dropShadow_0_1"/>
<feBlend mode="normal" in="SourceGraphic" in2="effect1_dropShadow_0_1" result="shape"/>
</filter>
</defs>
</svg>
