<svg width="105" height="57" viewBox="0 0 105 57" fill="none" xmlns="http://www.w3.org/2000/svg">
<path d="M59.0771 25.5461C85.0771 5.54634 92.5771 17.0459 103.577 19.0461V55.5461H2.19661C1.42328 55.5959 0.716182 55.5952 0.0771484 55.5461H2.19661C10.799 54.9914 27.5971 48.1802 50.0771 32.2078C49.7123 30.4455 49.2378 27.5391 49.0794 24.8751C48.7127 23.7948 48.2232 22.9333 47.5771 22.5457C40.0771 23.0459 26.6568 15.9659 32.0771 10.5457C36.0771 6.5459 44.5771 14.5459 47.5771 22.5457C48.2232 22.9333 48.7127 23.7948 49.0794 24.8751C48.9483 22.6708 49.0338 20.6325 49.5771 19.5457C48.0771 13.7124 47.1908 0.11355 55.5771 1.04562C64.5771 2.0459 55.5771 17.5459 49.5771 19.5457C49.0338 20.6325 48.9483 22.6708 49.0794 24.8751C49.848 27.1396 50.0771 30.3659 50.0771 32.2078C52.984 30.1425 55.9858 27.924 59.0771 25.5461Z" fill="#DDE1AC"/>
<path d="M50.0771 32.2078C25.5762 49.6161 7.82465 56.142 0.0771484 55.5461H103.577V19.0461C92.5771 17.0459 85.0771 5.54634 59.0771 25.5461C55.9858 27.924 52.984 30.1425 50.0771 32.2078ZM50.0771 32.2078C50.0771 29.4871 49.5771 23.7457 47.5771 22.5457M50.0771 32.2078C49.4105 28.9871 48.3771 21.9457 49.5771 19.5457M47.5771 22.5457C40.0771 23.0459 26.6568 15.9659 32.0771 10.5457C36.0771 6.5459 44.5771 14.5459 47.5771 22.5457ZM49.5771 19.5457C48.0771 13.7124 47.1908 0.11355 55.5771 1.04562C64.5771 2.0459 55.5771 17.5459 49.5771 19.5457Z" stroke="#DDE2AD" stroke-width="2"/>
</svg>
