<svg width="357" height="94" viewBox="0 0 357 94" fill="none" xmlns="http://www.w3.org/2000/svg">
<g filter="url(#filter0_d_352_950)">
<rect x="4" width="349" height="86" rx="29" fill="#FCF8ED"/>
</g>
<path d="M111.154 29.2546C114.372 25.8649 118.557 27.3226 120.599 28.6849C120.858 28.8573 121 29.1532 121 29.4639V42.8593C121 43.2949 120.464 43.5388 120.094 43.3082C116.97 41.3593 112.926 42.8828 111.154 44C107.53 41.8393 103.799 42.6409 101.798 43.5698C101.441 43.7357 101 43.4854 101 43.0913V29.6397C101 29.3918 101.092 29.1494 101.266 28.9732C104.911 25.2846 109.352 27.5938 111.154 29.2546ZM111.154 44V29.2546" stroke="#44423D" stroke-width="1.5"/>
<g filter="url(#filter1_d_352_950)">
<circle cx="179" cy="36" r="26" fill="#E8E9C2"/>
<circle cx="179" cy="36" r="25" stroke="#FEFDFD" stroke-width="2"/>
</g>
<path d="M179 26.9307V44.4655" stroke="#98A84E" stroke-width="2" stroke-linecap="round" stroke-linejoin="round"/>
<path d="M169.931 36H187.466" stroke="#98A84E" stroke-width="2" stroke-linecap="round" stroke-linejoin="round"/>
<path d="M249.14 26.75C251.999 26.7502 254.276 28.9915 254.276 31.708C254.276 34.4246 251.999 36.6668 249.14 36.667C246.28 36.667 244.002 34.4247 244.002 31.708C244.002 28.9914 246.281 26.75 249.14 26.75Z" stroke="#44423D" stroke-width="1.5"/>
<path d="M239 36.4648C240.61 41.4543 244.704 44.9996 249.5 44.9996C254.296 44.9996 258.39 41.4543 260 36.4648" stroke="#44423D" stroke-width="1.5" stroke-linecap="round"/>
<path d="M313.43 43.1426L324.013 31.3654C324.11 31.2576 324.184 31.1306 324.221 30.9905C324.75 29.0073 324.474 25.8531 319.504 27.4243C319.343 27.4752 319.195 27.571 319.081 27.6954L308.831 38.878C307.605 41.4368 306.808 45.872 313.43 43.1426ZM308.831 38.878L313.43 43.1426" stroke="#44423D" stroke-width="1.5"/>
<path d="M316.803 43.9961H326" stroke="#44423D" stroke-width="1.5" stroke-linecap="round"/>
<path d="M35.8363 57.45V58.67H35.0863V56.74H36.6663C36.5063 56.37 36.1663 55.72 35.9263 55.43L36.6163 55.14C36.7962 55.4 37.2863 56.22 37.4163 56.54L36.9963 56.74H38.9263C38.7963 56.32 38.4463 55.56 38.2563 55.17L38.9563 54.94C39.1063 55.17 39.5663 56.26 39.6662 56.57L39.1963 56.74H40.5463C40.8963 56.23 41.2963 55.47 41.5063 55L42.2363 55.29C42.0263 55.69 41.6863 56.29 41.4063 56.74H43.0663V58.67H42.3163V57.45H35.8363ZM43.3963 60.71V61.44H39.6263V62.7C39.6263 63.61 39.3163 63.76 38.2563 63.84L37.4763 63.89L37.2563 63.17L38.0863 63.11C38.7263 63.06 38.8363 63.02 38.8363 62.47V61.44H34.7563V60.71H38.8363V60.23L40.5063 59.18H36.3763V58.46H41.7763V59.15L39.6263 60.53V60.71H43.3963ZM44.99 55.66H52.5C52.5 56.14 52.32 61.46 52.27 62.09C52.19 63.32 51.77 63.62 50.16 63.73L49.38 63.79L49.09 62.99L50.1 62.93C51.17 62.88 51.4 62.66 51.45 61.79C51.49 61.23 51.66 56.84 51.66 56.44H44.99V55.66ZM45.87 57.54L46.36 56.92C47.09 57.32 48.54 58.33 49.17 58.91L48.69 59.68C48.04 59.01 46.63 57.97 45.87 57.54ZM45.1 62.49L44.73 61.72C46.37 61.2 49.44 59.87 50.89 59.1L51 59.54L51.08 59.88C49.68 60.64 46.62 61.97 45.1 62.49Z" fill="#98A35E"/>
<path d="M109.166 56.4H105.626C105.356 56.83 105.036 57.21 104.686 57.6L104.136 57.17C104.816 56.45 105.276 55.69 105.636 54.85L106.336 55C106.226 55.27 106.116 55.51 106.006 55.74H109.946V56.39C109.786 56.63 109.246 57.39 109.136 57.55L108.496 57.29C108.606 57.15 109.056 56.59 109.166 56.4ZM104.106 56.2L103.726 56.8C103.296 56.4 102.496 55.82 102.076 55.58L102.436 55.03C102.896 55.27 103.766 55.88 104.106 56.2ZM107.256 57.07L107.236 57.18C107.726 57.91 108.756 58.38 110.566 58.74L110.256 59.41C108.546 59.01 107.516 58.54 106.946 57.85C106.476 58.53 105.516 59 103.906 59.39L103.616 58.77C105.596 58.29 106.356 57.81 106.516 57.08C106.556 56.93 106.576 56.76 106.606 56.68L107.326 56.71L107.256 57.07ZM103.966 57.37L104.116 57.59C103.846 57.92 102.376 59.08 101.946 59.32L101.556 58.75C101.946 58.51 103.426 57.42 103.746 57.07L103.966 57.37ZM109.156 62.22H108.406V60.25H103.776V62.22H103.036V59.56H109.156V62.22ZM105.726 60.52L106.516 60.55C106.506 60.7 106.496 60.98 106.466 61.17C106.226 62.53 105.296 63.21 102.296 64.01L101.956 63.28C104.896 62.61 105.596 62.03 105.676 61.15C105.706 61 105.716 60.67 105.726 60.52ZM106.186 62.47L106.486 61.9C107.596 62.22 109.276 62.89 110.206 63.32L109.936 64.06C109.006 63.53 107.216 62.81 106.186 62.47ZM120.46 61.12L118.9 61.31V64H118.2V61.4L115.62 61.72L115.57 61.01L118.2 60.67V55.01L118.9 55.03V60.58L120.41 60.39L120.46 61.12ZM113.86 60.32L114.15 60.02C114.51 60.35 115.17 61.1 115.46 61.5L114.96 62.06C114.75 61.66 114.21 61.05 113.86 60.68V64.05H113.18V60.4C112.77 61.2 112.26 61.89 111.66 62.61L111.18 62.04C111.87 61.24 112.67 60.18 113.04 59.24H111.52V58.54H113.18V55.08L113.86 55.1V58.54H115.34V59.24H113.86V60.32ZM114.64 58.12L114.07 57.88C114.34 57.39 114.73 56.34 114.89 55.78L115.5 55.98C115.31 56.54 114.91 57.6 114.64 58.12ZM117.96 57.26L117.51 57.86C117.14 57.35 116.3 56.64 115.87 56.32L116.31 55.79C116.74 56.12 117.59 56.86 117.96 57.26ZM112.9 57.87L112.29 58.15C112.18 57.56 111.82 56.52 111.57 56.03L112.15 55.81C112.39 56.29 112.77 57.35 112.9 57.87ZM117.71 59.63L117.25 60.23C116.88 59.75 115.99 59 115.53 58.68L115.97 58.13C116.45 58.45 117.33 59.2 117.71 59.63Z" fill="#44423D"/>
<path d="M247.156 55.94L246.806 56.65C246.406 56.27 245.546 55.77 245.086 55.55L245.466 54.94C245.896 55.16 246.756 55.65 247.156 55.94ZM248.516 63.35L248.166 64.08C246.796 63.65 245.646 63.15 244.696 62.47C243.816 63.06 242.726 63.51 241.236 64.03L240.896 63.33C242.266 62.9 243.296 62.49 244.096 62C243.466 61.44 242.986 60.8 242.596 60.01C241.996 61.29 241.156 62.41 239.966 63.61L239.376 63.09C241.006 61.46 242.046 59.79 242.606 57.62H240.376V56.99C240.506 56.52 240.756 55.6 240.836 55.15L241.586 55.31C241.506 55.71 241.296 56.54 241.196 56.93H242.776C242.906 56.33 243.006 55.69 243.076 55L243.846 55.07C243.766 55.75 243.676 56.36 243.566 56.93H248.256V57.62H243.416C243.306 58.05 243.196 58.46 243.066 58.85H247.166V59.55C246.656 60.59 246.106 61.33 245.376 61.97C246.216 62.53 247.226 62.96 248.516 63.35ZM246.326 59.56H243.216C243.616 60.33 244.116 60.97 244.786 61.52C245.466 60.96 245.936 60.35 246.326 59.56ZM253.84 56.2V60.98H253.11V55.49H257.52V60.97H256.8V56.2H253.84ZM252.83 61.69L252.89 62.09C252.07 62.38 250.26 62.85 249.44 63.01L249.29 62.29C249.66 62.22 250.21 62.09 250.8 61.94V59.39H249.63V58.67H250.8V56.48H249.59V55.75H252.68V56.48H251.51V58.67H252.68V59.39H251.51V61.75C252.02 61.6 252.47 61.47 252.78 61.36L252.83 61.69ZM257.73 61.51L258.36 61.72C258.33 62.17 258.3 62.65 258.21 63.08C258.13 63.51 257.87 63.71 257.11 63.74C256.82 63.75 256.52 63.75 256.23 63.74C255.48 63.71 255.25 63.46 255.25 62.7V60.95C254.8 62.21 253.92 63.15 252.34 64.09L251.87 63.44C254.25 61.99 254.84 61 254.87 58.77C254.9 58.45 254.89 57.14 254.89 56.81L255.61 56.83C255.61 57.15 255.59 58.52 255.59 58.87C255.56 59.42 255.53 59.89 255.42 60.34L255.94 60.36V62.43C255.94 62.92 256.02 62.99 256.5 63.02C256.66 63.03 256.82 63.03 256.99 63.02C257.42 62.99 257.59 62.94 257.64 62.59C257.71 62.24 257.73 61.86 257.73 61.51Z" fill="#44423D"/>
<path d="M309.786 56.54H309.536C309.166 57.14 308.726 57.71 308.296 58.16L307.696 57.75C308.526 56.94 309.226 55.75 309.596 54.87L310.276 55.13C310.166 55.38 310.056 55.64 309.906 55.91H312.106V56.54H310.536C310.706 56.87 310.906 57.3 311.056 57.58L310.426 57.89C310.266 57.49 309.966 56.88 309.786 56.54ZM312.426 57.96L311.706 57.66C312.386 56.78 312.916 55.81 313.206 54.92L313.906 55.17C313.796 55.44 313.706 55.67 313.596 55.91H316.266V56.54H314.566C314.766 56.83 314.976 57.17 315.086 57.37L314.566 57.73C314.376 57.41 313.986 56.84 313.796 56.54H313.286C313.036 57.03 312.756 57.49 312.426 57.96ZM315.166 62.66C315.216 62.47 315.266 62.19 315.276 61.98L315.996 62.26C315.976 62.45 315.936 62.69 315.876 62.96C315.716 63.61 315.556 63.74 314.666 63.79C313.906 63.83 313.286 63.82 312.496 63.79C311.616 63.76 311.236 63.54 311.236 62.62V61.88L307.876 62.06L307.856 61.41L311.236 61.23V60.29L308.496 60.43L308.466 59.8L311.236 59.65V58.83C310.316 58.9 309.376 58.95 308.496 58.99L308.406 58.36C310.766 58.25 313.346 58.06 315.236 57.77L315.346 58.39C314.386 58.54 313.236 58.66 312.006 58.77V59.61L315.266 59.44L315.296 60.08L312.006 60.25V61.19L316.286 60.97L316.296 61.61L312.006 61.84V62.46C312.006 62.99 312.146 63.09 312.736 63.12C313.376 63.15 313.876 63.15 314.486 63.12C314.976 63.09 315.056 63.03 315.166 62.66ZM318.19 55.6L318.79 55.14C319.18 55.53 319.9 56.48 320.2 56.97L319.6 57.55C319.31 56.97 318.59 56.02 318.19 55.6ZM322 59.44V62.11C322 62.8 322.12 62.89 322.84 62.94C323.42 62.99 324 62.99 324.58 62.94C325.16 62.89 325.34 62.81 325.42 62.44C325.5 62.08 325.5 61.72 325.53 61.33L326.3 61.59C326.27 62.1 326.23 62.49 326.12 62.93C326.01 63.38 325.87 63.61 324.87 63.69C324.1 63.75 323.33 63.75 322.56 63.69C321.52 63.61 321.25 63.41 321.25 62.32V58.69H324.8V56.36H320.97V55.61H325.57V59.44H322ZM319.59 58.13V62.31C319.86 62.12 320.64 61.46 320.76 61.36L320.97 62.14C320.77 62.27 319.68 63.11 319.45 63.29C319.3 63.4 319.21 63.5 319.04 63.7L318.56 63.12C318.81 62.87 318.85 62.79 318.85 62.54V58.88H317.49V58.13H319.59Z" fill="#44423D"/>
<path d="M44.3816 25.6883C45.0139 25.3096 45.8032 25.3093 46.4357 25.6876L55.1841 30.9191C56.4816 31.695 56.4823 33.5744 55.1854 34.3513L52.4038 36.0176L46.437 39.5919C45.8038 39.9712 45.0133 39.971 44.3804 39.5913L40.2847 37.1345L35.1608 34.061C34.0844 33.4153 34.0849 31.8551 35.1618 31.2102L44.3816 25.6883Z" fill="#98A84E"/>
<path d="M35.1608 34.061L40.2847 37.1345L44.3804 39.5913C45.0133 39.971 45.8038 39.9712 46.437 39.5919L52.4038 36.0176L55.1854 34.3513C56.4823 33.5744 56.4816 31.695 55.1841 30.9191L46.4357 25.6876C45.8032 25.3093 45.0139 25.3096 44.3816 25.6883L35.1618 31.2102C34.0849 31.8551 34.0844 33.4153 35.1608 34.061ZM52.4038 36.0176L52.4038 42.0106C50.2238 44.9834 44.437 49.1453 38.7293 42.0106L38.7293 37.8487M35.1608 34.061L35.1608 39.7651M35.1608 39.7651C34.3681 41.2032 33.2583 44.0793 35.1608 44.0793C37.0634 44.0793 35.9536 41.2032 35.1608 39.7651Z" stroke="#98A84E" stroke-width="1.5"/>
<defs>
<filter id="filter0_d_352_950" x="0" y="0" width="357" height="94" filterUnits="userSpaceOnUse" color-interpolation-filters="sRGB">
<feFlood flood-opacity="0" result="BackgroundImageFix"/>
<feColorMatrix in="SourceAlpha" type="matrix" values="0 0 0 0 0 0 0 0 0 0 0 0 0 0 0 0 0 0 127 0" result="hardAlpha"/>
<feOffset dy="4"/>
<feGaussianBlur stdDeviation="2"/>
<feComposite in2="hardAlpha" operator="out"/>
<feColorMatrix type="matrix" values="0 0 0 0 0.596078 0 0 0 0 0.639216 0 0 0 0 0.368627 0 0 0 0.2 0"/>
<feBlend mode="normal" in2="BackgroundImageFix" result="effect1_dropShadow_352_950"/>
<feBlend mode="normal" in="SourceGraphic" in2="effect1_dropShadow_352_950" result="shape"/>
</filter>
<filter id="filter1_d_352_950" x="149" y="10" width="60" height="60" filterUnits="userSpaceOnUse" color-interpolation-filters="sRGB">
<feFlood flood-opacity="0" result="BackgroundImageFix"/>
<feColorMatrix in="SourceAlpha" type="matrix" values="0 0 0 0 0 0 0 0 0 0 0 0 0 0 0 0 0 0 127 0" result="hardAlpha"/>
<feOffset dy="4"/>
<feGaussianBlur stdDeviation="2"/>
<feComposite in2="hardAlpha" operator="out"/>
<feColorMatrix type="matrix" values="0 0 0 0 0.596078 0 0 0 0 0.639216 0 0 0 0 0.368627 0 0 0 0.2 0"/>
<feBlend mode="normal" in2="BackgroundImageFix" result="effect1_dropShadow_352_950"/>
<feBlend mode="normal" in="SourceGraphic" in2="effect1_dropShadow_352_950" result="shape"/>
</filter>
</defs>
</svg>
