<svg width="98" height="93" viewBox="0 0 98 93" fill="none" xmlns="http://www.w3.org/2000/svg">
<path d="M35.5 78V61H64V78C62.8 79.6 60.8333 79 60 78.5L50 72.5L40 78C37.2 79.6 35.8333 78.6667 35.5 78Z" fill="#FED76A" stroke="#E4B449"/>
<path d="M44.9756 13.002C47.5947 11.4998 50.8144 11.4998 53.4336 13.002L54.374 13.541C55.6717 14.2852 57.1271 14.7126 58.6211 14.7881L59.7031 14.8428C62.7186 14.9951 65.4271 16.7354 66.8184 19.415L67.3174 20.377C68.0067 21.7047 68.9997 22.8514 70.2158 23.7227L71.0967 24.3535C73.5511 26.112 74.8887 29.0404 74.6104 32.0469L74.5107 33.126C74.3729 34.6155 74.5886 36.1165 75.1406 37.5068L75.54 38.5137C76.6542 41.3199 76.1964 44.507 74.3369 46.8857L73.6689 47.7393C72.7476 48.9178 72.1174 50.2975 71.8301 51.7656L71.6221 52.8291C71.0422 55.7921 68.9342 58.2249 66.084 59.2207L65.0605 59.5781C63.6482 60.0715 62.3724 60.8919 61.3369 61.9717L60.5869 62.7539C58.4971 64.933 55.4079 65.8401 52.4717 65.1367L51.418 64.8838C49.9631 64.5353 48.4461 64.5353 46.9912 64.8838L45.9375 65.1367C43.0013 65.84 39.912 64.933 37.8223 62.7539L37.0723 61.9717C36.0368 60.892 34.7609 60.0715 33.3486 59.5781L32.3262 59.2207C29.4757 58.225 27.367 55.7922 26.7871 52.8291L26.5791 51.7656C26.2917 50.2975 25.6616 48.9178 24.7402 47.7393L24.0732 46.8857C22.2136 44.507 21.755 41.3199 22.8691 38.5137L23.2695 37.5068C23.8215 36.1165 24.0373 34.6155 23.8994 33.126L23.7988 32.0469C23.5205 29.0405 24.8582 26.112 27.3125 24.3535L28.1934 23.7227C29.4095 22.8514 30.4034 21.7047 31.0928 20.377L31.5918 19.415C32.9831 16.7354 35.6916 14.9951 38.707 14.8428L39.7891 14.7881C41.2832 14.7126 42.7384 14.2853 44.0361 13.541L44.9756 13.002Z" fill="#FED86C" stroke="#E6B647"/>
<circle cx="49" cy="37.5" r="18.5" fill="#FEE280" stroke="#F5C74F" stroke-width="2"/>
<path d="M42.5483 35.8676L46.5544 39.4286L56.2975 30.1493C56.7969 29.6737 57.3862 29.2799 58.0591 29.1293C60.6031 28.5599 61.4611 29.9705 61.6157 31.4263C61.7195 32.4043 61.191 33.3064 60.5094 34.0154L49.0557 45.9287C48.1886 46.5067 46.9207 46.6843 45.9696 46.6126C45.3522 46.566 44.8224 46.2115 44.3697 45.789L38.844 40.6314C38.0101 39.853 37.348 38.7864 37.6129 37.6768C38.0786 35.726 39.8977 34.8413 41.4342 35.2043C41.8611 35.3051 42.2204 35.5762 42.5483 35.8676Z" fill="#FCF8F0"/>
<ellipse cx="50.5" cy="89.5" rx="18" ry="3.5" fill="#F5F1E0"/>
<path d="M21.1065 71C22.2731 68.1667 23.6065 62.2 19.6065 61C18.2731 63.1667 16.7065 68.2 21.1065 71Z" fill="#FDF0C8"/>
<path d="M19.1068 70.5C16.4401 68.3333 10.5068 64.7 8.10679 67.5C8.60679 69.1667 11.5068 72.1 19.1068 70.5Z" fill="#FDF0C8"/>
<path d="M12.1068 61.5C10.1068 59.1667 5.50679 54.8 3.10679 56C3.10689 58 4.90704 61.9 12.1068 61.5Z" fill="#FDF0C8"/>
<path d="M13.1068 61.5C14.6068 59.3333 16.9068 54.4 14.1068 52C12.7312 52.8333 10.6054 55.9 13.1068 61.5Z" fill="#FDF0C8"/>
<path d="M8.60679 51C8.10679 48.5 8.00679 43.3 11.6068 42.5C12.4401 44.3333 13.0068 48.6 8.60679 51Z" fill="#FDF0C8"/>
<path d="M7.10679 51C6.27345 48 3.80679 42.3 0.606787 43.5C0.167506 45.3333 0.852512 49.4 7.10679 51Z" fill="#FDF0C8"/>
<path d="M6.10679 41.5C7.60667 38.8333 9.80645 33 6.60645 31C4.95152 31.8333 2.5347 35.1 6.10679 41.5Z" fill="#FDF0C8"/>
<path d="M24.6068 74C18.9401 70 7.30679 58.5 6.10679 44.5M21.1065 71C22.2731 68.1667 23.6065 62.2 19.6065 61C18.2731 63.1667 16.7065 68.2 21.1065 71ZM19.1068 70.5C16.4401 68.3333 10.5068 64.7 8.10679 67.5C8.60679 69.1667 11.5068 72.1 19.1068 70.5ZM12.1068 61.5C10.1068 59.1667 5.50679 54.8 3.10679 56C3.10689 58 4.90704 61.9 12.1068 61.5ZM13.1068 61.5C14.6068 59.3333 16.9068 54.4 14.1068 52C12.7312 52.8333 10.6054 55.9 13.1068 61.5ZM8.60679 51C8.10679 48.5 8.00679 43.3 11.6068 42.5C12.4401 44.3333 13.0068 48.6 8.60679 51ZM7.10679 51C6.27345 48 3.80679 42.3 0.606787 43.5C0.167506 45.3333 0.852512 49.4 7.10679 51ZM6.10679 41.5C7.60667 38.8333 9.80645 33 6.60645 31C4.95152 31.8333 2.5347 35.1 6.10679 41.5Z" stroke="#EECC78" stroke-linecap="round"/>
<path d="M76 71C74.8333 68.1667 73.5 62.2 77.5 61C78.8333 63.1667 80.4 68.2 76 71Z" fill="#FDF0C7"/>
<path d="M77.9997 70.5C80.6663 68.3333 86.5997 64.7 88.9997 67.5C88.4997 69.1667 85.5997 72.1 77.9997 70.5Z" fill="#FDF0C7"/>
<path d="M84.9997 61.5C86.9997 59.1667 91.5997 54.8 93.9997 56C93.9996 58 92.1994 61.9 84.9997 61.5Z" fill="#FDF0C7"/>
<path d="M83.9997 61.5C82.4997 59.3333 80.1997 54.4 82.9997 52C84.3753 52.8333 86.5011 55.9 83.9997 61.5Z" fill="#FDF0C7"/>
<path d="M88.4997 51C88.9997 48.5 89.0997 43.3 85.4997 42.5C84.6663 44.3333 84.0997 48.6 88.4997 51Z" fill="#FDF0C7"/>
<path d="M89.9997 51C90.833 48 93.2997 42.3 96.4997 43.5C96.9389 45.3333 96.2539 49.4 89.9997 51Z" fill="#FDF0C7"/>
<path d="M90.9997 41.5C89.4998 38.8333 87.3 33 90.5 31C92.1549 31.8333 94.5717 35.1 90.9997 41.5Z" fill="#FDF0C7"/>
<path d="M72.4997 74C78.1663 70 89.7997 58.5 90.9997 44.5M76 71C74.8333 68.1667 73.5 62.2 77.5 61C78.8333 63.1667 80.4 68.2 76 71ZM77.9997 70.5C80.6663 68.3333 86.5997 64.7 88.9997 67.5C88.4997 69.1667 85.5997 72.1 77.9997 70.5ZM84.9997 61.5C86.9997 59.1667 91.5997 54.8 93.9997 56C93.9996 58 92.1994 61.9 84.9997 61.5ZM83.9997 61.5C82.4997 59.3333 80.1997 54.4 82.9997 52C84.3753 52.8333 86.5011 55.9 83.9997 61.5ZM88.4997 51C88.9997 48.5 89.0997 43.3 85.4997 42.5C84.6663 44.3333 84.0997 48.6 88.4997 51ZM89.9997 51C90.833 48 93.2997 42.3 96.4997 43.5C96.9389 45.3333 96.2539 49.4 89.9997 51ZM90.9997 41.5C89.4998 38.8333 87.3 33 90.5 31C92.1549 31.8333 94.5717 35.1 90.9997 41.5Z" stroke="#EDCA71" stroke-linecap="round"/>
<path d="M11.8389 16.5146C12.12 17.4123 12.7758 18.1446 13.6377 18.5215L15.875 19.5L13.6377 20.4785C12.7758 20.8554 12.12 21.5877 11.8389 22.4854L11 25.1621L10.1611 22.4854C9.88001 21.5877 9.22417 20.8554 8.3623 20.4785L6.12402 19.5L8.3623 18.5215C9.22417 18.1446 9.88001 17.4123 10.1611 16.5146L11 13.8369L11.8389 16.5146Z" fill="#FEDA77" stroke="#E3B449" stroke-width="0.5"/>
<path d="M87.8389 14.5146C88.12 15.4123 88.7758 16.1446 89.6377 16.5215L91.875 17.5L89.6377 18.4785C88.7758 18.8554 88.12 19.5877 87.8389 20.4854L87 23.1621L86.1611 20.4854C85.88 19.5877 85.2242 18.8554 84.3623 18.4785L82.124 17.5L84.3623 16.5215C85.2242 16.1446 85.88 15.4123 86.1611 14.5146L87 11.8369L87.8389 14.5146Z" fill="#FFDA77" stroke="#E4B548" stroke-width="0.5"/>
<path d="M20.5 12.3171C29.5 0.317169 64.5 -9.68262 81.5 23.8171" stroke="#EECC7A" stroke-width="2" stroke-linecap="round"/>
</svg>
