<svg width="38" height="58" viewBox="0 0 38 58" fill="none" xmlns="http://www.w3.org/2000/svg">
<path d="M10.3435 7.776L6.25038 0.118164L0.176758 4.46921C2.37735 6.67374 7.17463 10.9784 8.75905 10.5607C9.13036 10.4628 9.22971 10.2916 9.31242 10.0126C9.43052 9.6143 9.84209 9.35685 10.0875 9.02166C10.3603 8.6492 10.4507 8.05869 10.3435 7.776Z" fill="#FFFBE3"/>
<path d="M24.8674 7.776C25.0786 7.3583 28.8284 2.84482 30.6769 0.640289L37.2787 5.51346C35.5622 7.19586 31.3107 10.6651 28.0362 11.0828C27.0764 11.2052 26.4981 10.999 26.1863 10.6313C25.8291 10.2101 25.4275 9.55283 25.1684 9.0651C24.9097 8.57812 24.7747 7.95922 24.8674 7.776Z" fill="#FFFBE3"/>
<path d="M6.25038 0.118164L10.3435 7.776C10.4507 8.05869 10.3603 8.6492 10.0875 9.02166C9.84209 9.35685 9.43052 9.6143 9.31242 10.0126C9.22971 10.2916 9.13036 10.4628 8.75905 10.5607C7.17463 10.9784 2.37735 6.67374 0.176758 4.46921M30.6769 0.640289C28.8284 2.84482 25.0786 7.3583 24.8674 7.776C24.7747 7.95922 24.9097 8.57812 25.1684 9.06511C25.4275 9.55283 25.8291 10.2101 26.1863 10.6313C26.4981 10.999 27.0764 11.2052 28.0362 11.0828C31.3107 10.6651 35.5622 7.19586 37.2787 5.51346" stroke="#1C140A" stroke-width="0.5"/>
<path d="M26.1768 11.1182L4.17676 56.6182" stroke="black" stroke-width="2" stroke-linecap="round"/>
</svg>
