<svg width="516" height="208" viewBox="0 0 516 208" fill="none" xmlns="http://www.w3.org/2000/svg">
<path d="M11.778 178.127L20.2054 183.182L27.6047 187.621C28.2376 188 29.0282 188 29.6613 187.621L40.1384 181.345L46.5618 177.497C47.8586 176.72 47.8579 174.841 46.5605 174.065L29.6601 163.959C29.0276 163.58 28.2383 163.581 27.606 163.959L10.73 174.067C9.43399 174.843 9.43335 176.72 10.7288 177.498L11.778 178.127ZM40.1384 181.345L40.1385 191.202C36.5529 196.092 27.0349 202.937 17.6472 191.202L17.6472 184.357M11.778 178.127L11.778 187.509M11.778 187.509C10.4741 189.874 8.64873 194.604 11.778 194.604C14.9072 194.604 13.0818 189.874 11.778 187.509Z" stroke="#44423D" stroke-width="1.5"/>
<path d="M27.606 8.95926C28.2383 8.58059 29.0276 8.58032 29.6601 8.95857L46.5605 19.0649C47.8579 19.8408 47.8586 21.7203 46.5618 22.4971L40.1384 26.3449L29.6613 32.6211C29.0282 33.0004 28.2376 33.0002 27.6047 32.6205L20.2054 28.182L11.778 23.1269L10.7288 22.4975C9.43335 21.7204 9.43399 19.8428 10.73 19.0666L27.606 8.95926Z" fill="#98A84E"/>
<path d="M11.778 23.1269L20.2054 28.182L27.6047 32.6205C28.2376 33.0002 29.0282 33.0004 29.6613 32.6211L40.1384 26.3449L46.5618 22.4971C47.8586 21.7203 47.8579 19.8408 46.5605 19.0649L29.6601 8.95857C29.0276 8.58032 28.2383 8.58059 27.606 8.95926L10.73 19.0666C9.43399 19.8428 9.43335 21.7204 10.7288 22.4975L11.778 23.1269ZM40.1384 26.3449L40.1385 36.202C36.5529 41.0915 27.0349 47.9368 17.6472 36.202L17.6472 29.3567M11.778 23.1269L11.778 32.5087M11.778 32.5087C10.4741 34.874 8.64873 39.6044 11.778 39.6044C14.9072 39.6044 13.0818 34.874 11.778 32.5087Z" stroke="#98A84E" stroke-width="1.5"/>
<path d="M134.246 166.846C139.542 160.9 146.472 163.698 149.629 166.071C149.868 166.252 150 166.536 150 166.836V190.808C150 191.251 149.452 191.486 149.102 191.215C144.037 187.301 137.186 190.023 134.246 192C128.149 188.124 121.861 189.836 118.804 191.513C118.452 191.706 118 191.46 118 191.059V167.213C118 166.976 118.087 166.742 118.244 166.565C124.11 159.992 131.333 163.984 134.246 166.846ZM134.246 192V166.846" stroke="#44423D" stroke-width="1.5"/>
<path d="M124 40.0249V15.3375C124 15.1036 124.085 14.872 124.239 14.696C130.197 7.88631 137.54 12.0151 140.5 14.9754C145.885 8.82106 152.935 11.7289 156.136 14.1842C156.371 14.3649 156.5 14.647 156.5 14.9438V39.7683C156.5 40.2138 155.947 40.4479 155.598 40.1721C150.453 36.115 143.488 38.931 140.5 40.9754C134.302 36.9648 127.909 38.7424 124.807 40.4769C124.456 40.6734 124 40.4275 124 40.0249Z" fill="#98A84E"/>
<path d="M140.5 14.9754C145.885 8.82106 152.935 11.7289 156.136 14.1842C156.371 14.3649 156.5 14.647 156.5 14.9438V39.7683C156.5 40.2138 155.947 40.4479 155.598 40.1721C150.453 36.115 143.488 38.931 140.5 40.9754C134.302 36.9648 127.909 38.7424 124.807 40.4769C124.456 40.6734 124 40.4275 124 40.0249V15.3375C124 15.1036 124.085 14.872 124.239 14.696C130.197 7.88631 137.54 12.0151 140.5 14.9754ZM140.5 40.9754V14.9754" stroke="#FEFBF5" stroke-width="1.5"/>
<circle cx="383" cy="175" r="8.25" stroke="#44423D" stroke-width="1.5"/>
<path d="M367.5 182.5C369.961 190.367 376.22 195.956 383.552 195.956C390.884 195.956 397.142 190.367 399.603 182.5" stroke="#44423D" stroke-width="1.5" stroke-linecap="round"/>
<circle cx="383.5" cy="12" r="8.25" fill="#98A84E" stroke="#98A84E" stroke-width="1.5"/>
<path d="M368 19.5C370.461 27.3667 376.72 32.9564 384.052 32.9564C391.384 32.9564 397.642 27.3667 400.103 19.5" stroke="#98A84E" stroke-width="1.5" stroke-linecap="round"/>
<path d="M493.856 190.389L511.22 169.552C511.309 169.445 511.375 169.322 511.411 169.187C512.335 165.692 511.995 159.868 503.611 162.798C503.448 162.855 503.296 162.959 503.184 163.091L486.356 182.889C484.356 187.389 483.056 195.189 493.856 190.389ZM486.356 182.889L493.856 190.389" stroke="#44423D" stroke-width="1.5"/>
<path d="M499.355 191.89H514.355" stroke="#44423D" stroke-width="1.5" stroke-linecap="round"/>
<path d="M493.856 29.3894C483.056 34.1894 484.356 26.3894 486.356 21.8894L503.184 2.09111C503.296 1.95893 503.448 1.8554 503.611 1.79816C511.995 -1.13217 512.335 4.69245 511.411 8.1871C511.375 8.32178 511.309 8.4447 511.22 8.55172L493.856 29.3894Z" fill="#98A84E"/>
<path d="M493.856 29.3894L511.22 8.55172C511.309 8.4447 511.375 8.32178 511.411 8.1871C512.335 4.69245 511.995 -1.13217 503.611 1.79816C503.448 1.8554 503.296 1.95893 503.184 2.09111L486.356 21.8894C484.356 26.3894 483.056 34.1894 493.856 29.3894ZM486.356 21.8894L493.856 29.3894" stroke="#FEFBF5" stroke-width="1.5"/>
<path d="M499.355 30.8896H514.355" stroke="#98A84E" stroke-width="1.5" stroke-linecap="round"/>
</svg>
