<svg width="118" height="128" viewBox="0 0 118 128" fill="none" xmlns="http://www.w3.org/2000/svg">
<path d="M33.4399 49.2432C31.2393 43.8738 29.7958 30.6262 41.6261 20.5916C43.4746 17.5547 49.6406 9.53429 54.3939 6.99921C49.7726 8.97974 49.1125 2.24594 52.8095 0.397229C56.022 -1.20921 60.7316 2.37793 57.9588 5.41476C61.6558 4.31446 75.3875 2.77403 86.6501 5.80358C87.0066 1.18961 91.0068 -0.896418 94.4402 0.918287C97.7015 2.642 99.9461 7.5273 92.5521 8.97969C96.3811 12.0165 103.947 24.2885 105.927 33.0029C113.981 64.6913 132.07 114.469 96.4208 120.542C96.1673 120.585 95.9031 120.627 95.6287 120.666C95.6728 122.649 96.553 126.748 92.0638 127.012C87.5746 127.276 88.526 123.271 88.6056 121.202C77.8563 121.574 62.192 120.725 52.7173 120.008C52.8053 122.034 52.3927 125.443 50.3406 125.956C49.2843 126.22 48.3601 126.22 47.0397 125.956C45.7194 125.692 45.0324 123.157 45.4551 119.354C36.8727 118.298 12.3144 105.226 33.4399 49.2432Z" fill="#FFFBE3"/>
<path d="M64.4199 24.3633L66.9996 25.6444L69.5622 24.0921M67.0622 26.8311L67.3543 32.3689M67.3543 32.3689L65.6819 33.2504M67.3543 32.3689L69.1101 33.0696" stroke="#1C140A" stroke-linecap="round"/>
<path d="M54.6445 24.1562C54.7331 24.1294 54.9082 24.1396 55.1206 24.2909C55.3249 24.4365 55.5245 24.6899 55.631 25.0425C55.8157 25.6543 55.4152 26.3174 54.8094 26.5003C54.6531 26.5475 54.5112 26.5076 54.3528 26.2955C54.1826 26.0676 54.0671 25.7116 54.0539 25.3769C54.0367 24.9371 54.122 24.6538 54.2297 24.4778C54.334 24.3075 54.4771 24.2068 54.6445 24.1562ZM80.9738 24.1761C81.1013 24.1582 81.2311 24.2048 81.382 24.4446C81.5359 24.689 81.635 25.0329 81.6744 25.3133C81.7134 25.5906 81.7033 25.8854 81.6174 26.1094C81.5426 26.3044 81.4138 26.4494 81.1429 26.5071C80.8707 26.5649 80.6194 26.4557 80.4136 26.2002C80.1984 25.9329 80.0954 25.5735 80.1261 25.3061C80.1677 24.9444 80.266 24.6762 80.4007 24.4967C80.5251 24.331 80.6997 24.2146 80.9738 24.1761Z" fill="#3C1814" stroke="#100000"/>
<circle cx="54.0553" cy="24.6708" r="7.54008" transform="rotate(-2.61419 54.0553 24.6708)" stroke="black" stroke-width="0.5"/>
<path d="M61.6637 23.399C63.4473 22.3201 68.6613 20.6858 73.6665 22.8511" stroke="black" stroke-width="0.5"/>
<path d="M46.3991 24.889L45.0801 24.9492" stroke="black" stroke-width="0.5" stroke-linecap="round"/>
<path d="M88.8711 22.9492L90.322 22.883" stroke="black" stroke-width="0.5" stroke-linecap="round"/>
<circle cx="81.1549" cy="24.7567" r="7.54008" transform="rotate(-2.61419 81.1549 24.7567)" stroke="black" stroke-width="0.5"/>
<path d="M25.1432 49.9114L33.9024 54.9237L29.3037 62.9718C26.7361 60.2027 21.7 54.1467 22.0964 52.075C22.2011 51.5278 22.4256 51.4252 22.8088 51.291C23.1832 51.1598 23.3747 50.7587 23.6176 50.4451C23.9902 49.964 24.7805 49.7668 25.1432 49.9114Z" fill="#FFFBE3"/>
<path d="M33.9024 54.9237L25.1432 49.9114C24.7805 49.7668 23.9902 49.964 23.6176 50.4451C23.3747 50.7587 23.1832 51.1598 22.8088 51.291C22.4256 51.4252 22.2011 51.5278 22.0964 52.075C21.7 54.1467 26.7361 60.2027 29.3037 62.9718" stroke="#1C140A" stroke-width="0.5"/>
<path d="M85.1962 56.9343C85.5656 56.607 91.1846 53.6123 93.948 52.1559L99.7034 59.3217C97.2551 60.3203 91.4161 62.1166 87.6465 61.3128C86.5115 61.0708 85.9353 60.6409 85.721 60.1531C85.4988 59.6475 85.285 58.9299 85.1396 58.3971C84.9788 57.8078 85.0246 57.0864 85.1962 56.9343Z" fill="#FFFBE3"/>
<path d="M93.948 52.1559C91.1846 53.6123 85.5656 56.607 85.1962 56.9343C85.0246 57.0864 84.9788 57.8078 85.1396 58.3971C85.285 58.9299 85.4988 59.6475 85.721 60.1531C85.9353 60.6409 86.5115 61.0708 87.6465 61.3128C91.4161 62.1166 97.2551 60.3203 99.7034 59.3217" stroke="#1C140A" stroke-width="0.5"/>
<path d="M20.5669 53.1994C22.2153 51.0668 25.2605 52.8628 23.654 55.4467C26.279 57.5029 27.4314 62.5209 21.3999 70.8504C21.943 72.1562 22.2841 75.0011 19.3028 75.9349L12.9254 71.7272C12.1282 72.97 10.4795 75.3251 8.41332 74.0402C6.34713 72.7554 7.69142 70.108 8.85296 69.0402L3.99704 65.8363C2.61993 64.3669 2.3287 61.2531 6.55632 60.9424C9.04247 57.1 15.3252 50.1722 20.5669 53.1994Z" fill="#DDE1AC"/>
<path d="M8.85296 69.0402L3.99704 65.8363C2.61993 64.3669 2.3287 61.2531 6.55632 60.9424C9.04247 57.1 15.3252 50.1722 20.5669 53.1994C22.2153 51.0668 25.2605 52.8628 23.654 55.4467C26.279 57.5029 27.4314 62.5209 21.3999 70.8504C21.943 72.1562 22.2841 75.0011 19.3028 75.9349L12.9254 71.7272M8.85296 69.0402C7.69142 70.108 6.34713 72.7554 8.41332 74.0402C10.4795 75.3251 12.1282 72.97 12.9254 71.7272M8.85296 69.0402L12.9254 71.7272" stroke="black" stroke-width="0.5"/>
</svg>
