<svg width="34" height="142" viewBox="0 0 34 142" fill="none" xmlns="http://www.w3.org/2000/svg">
<circle cx="17.5" cy="16.5" r="16.5" fill="#F8F4E5"/>
<path d="M10.6655 21.0539L11.5717 19.9426C11.6445 19.8534 11.6842 19.7418 11.6842 19.6266V12.4743C11.6842 12.4054 11.6974 12.3386 11.7266 12.2763C13.0649 9.41897 18.8132 5.88037 23.3802 12.2382C23.4401 12.3216 23.4737 12.425 23.4737 12.5276V19.5676C23.4737 19.7176 23.5411 19.8597 23.6572 19.9547L24.9148 20.9828C25.2787 21.2802 25.0684 21.8699 24.5984 21.8699H20.5263C20.5263 23.2466 19.9368 26 17.5789 26C15.2211 26 14.9123 23.2466 15.0526 21.8699H11.0529C10.6315 21.8699 10.3991 21.3805 10.6655 21.0539Z" fill="#929A4F"/>
<path d="M15.0526 21.8699H11.0529C10.6315 21.8699 10.3991 21.3805 10.6655 21.0539L11.5717 19.9426C11.6445 19.8534 11.6842 19.7418 11.6842 19.6266V12.4743C11.6842 12.4054 11.6974 12.3386 11.7266 12.2763C13.0649 9.41897 18.8132 5.88037 23.3802 12.2382C23.4401 12.3216 23.4737 12.425 23.4737 12.5276V19.5676C23.4737 19.7176 23.5411 19.8597 23.6572 19.9547L24.9148 20.9828C25.2787 21.2802 25.0684 21.8699 24.5984 21.8699H20.5263M15.0526 21.8699C14.9123 23.2466 15.2211 26 17.5789 26C19.9368 26 20.5263 23.2466 20.5263 21.8699M15.0526 21.8699H20.5263M17.5789 7V8.23913" stroke="#929A4F" stroke-width="1.5" stroke-linecap="round"/>
<path d="M17 10.5C15.8333 10.5 13.5 11 13.5 13M13.5 23H22" stroke="#FDF9F2" stroke-linecap="round"/>
<circle cx="16.5" cy="69.5" r="16.5" fill="#F8F4E5"/>
<circle cx="17" cy="70" r="8" fill="#929A4F"/>
<rect x="17" y="74.5723" width="0.0114286" height="0.0114286" fill="#929A4F" stroke="#FFFBE3" stroke-width="1.5" stroke-linejoin="round"/>
<path d="M15.2861 67.044C15.7314 66.5987 16.3147 66.3755 16.8983 66.3745C17.4846 66.3735 18.0712 66.5966 18.5186 67.044C18.9649 67.4903 19.1881 68.0753 19.1881 68.6602C19.1881 69.2452 18.9649 69.8302 18.5186 70.2765C18.0712 70.7238 17.4846 70.947 16.8983 70.9459L16.9023 72.0888" stroke="#FFFBE3" stroke-width="1.5" stroke-linecap="round" stroke-linejoin="round"/>
<circle cx="17.5" cy="125.5" r="16.5" fill="#F8F4E5"/>
<circle cx="17.4114" cy="121.839" r="4.58915" fill="#929A4F" stroke="#F8F4E5" stroke-width="0.5"/>
<path d="M21.6909 134.339H13.4441C11.8529 134.339 10.0913 133.691 10.0054 132.102C9.88214 129.822 11.8118 127.08 17.4111 127.08C23.3408 127.08 25.3915 130.155 24.9398 132.501C24.6745 133.879 23.0946 134.339 21.6909 134.339Z" fill="#929A4F" stroke="#F8F4E5" stroke-width="0.5" stroke-linejoin="round"/>
</svg>
