<svg width="377" height="546" viewBox="0 0 377 546" fill="none" xmlns="http://www.w3.org/2000/svg">
<path d="M36.8637 216.374C27.545 193.636 10.2495 138.097 60.3466 95.604C68.1741 82.7442 98.3667 48.1914 118.495 37.4563C92.7755 45.8429 93.8938 10.6193 109.549 2.79066C129.677 -7.27479 152.601 11.7052 133.591 30.7467C149.247 26.0874 207.395 19.5643 255.088 32.3932C256.597 12.8548 273.537 4.0213 288.076 11.7059C301.886 19.0051 311.391 39.6926 280.08 45.8429C296.295 58.7026 312.509 74.9165 329.283 100.636C349.411 117.41 367.626 170.526 352.207 210.783C380.71 325.259 406.751 499.478 296.463 518.268C295.389 518.451 294.271 518.625 293.109 518.79C293.295 527.189 297.023 544.546 278.013 545.665C259.003 546.783 263.032 529.823 263.369 521.063C217.849 522.638 151.517 519.04 111.395 516.004C111.768 524.586 110.021 539.019 101.331 541.192C96.858 542.31 92.9442 542.31 87.353 541.192C81.7618 540.074 78.8526 529.338 80.6426 513.236C44.2997 508.763 -52.5947 453.44 36.8637 216.374Z" fill="#FFFBE3"/>
</svg>
