<svg width="155" height="180" viewBox="0 0 155 180" fill="none" xmlns="http://www.w3.org/2000/svg">
<ellipse cx="93" cy="171.5" rx="46" ry="8.5" fill="#BEC574"/>
<path d="M43.1227 65.3085C40.2042 58.1874 38.2896 40.6179 53.9796 27.3094C56.4311 23.2819 64.6087 12.6448 70.9127 9.28266C64.7839 11.9093 63.9083 2.97867 68.8114 0.526823C73.072 -1.60371 79.3181 3.15371 75.6407 7.18129C80.5439 5.72203 98.7554 3.67904 113.692 7.69697C114.165 1.57771 119.47 -1.18887 124.024 1.21787C128.349 3.50393 131.326 9.98304 121.52 11.9093C126.598 15.9368 136.632 32.2125 139.259 43.7699C149.94 85.7965 173.931 151.813 126.651 159.869C126.314 159.926 125.964 159.98 125.6 160.032C125.659 162.663 126.826 168.099 120.872 168.449C114.918 168.799 116.18 163.487 116.286 160.744C102.03 161.237 81.2549 160.11 68.6891 159.16C68.8059 161.847 68.2587 166.368 65.5372 167.048C64.1363 167.398 62.9105 167.398 61.1594 167.048C59.4083 166.698 58.4971 163.336 59.0577 158.293C47.6754 156.892 15.1052 139.556 43.1227 65.3085Z" fill="#FFFBE3"/>
<path d="M76.8008 44.7637L80.1279 46.6406L83.6301 44.7637M80.1279 48.2166V55.5713M80.1279 55.5713L77.8514 56.622M80.1279 55.5713L82.4043 56.622" stroke="#1C140A" stroke-linecap="round"/>
<path d="M61.3487 37.5678C61.5189 37.6461 61.7075 37.8616 61.7933 38.2324C61.8766 38.5933 61.8472 39.0567 61.6287 39.5316C61.2322 40.3929 60.1498 40.7204 59.3158 40.3368C59.0377 40.2089 58.9142 39.9653 58.947 39.5705C58.9815 39.1561 59.1956 38.67 59.4937 38.3053C59.8778 37.8354 60.2377 37.6069 60.5378 37.515C60.8317 37.4251 61.1036 37.455 61.3487 37.5678ZM99.4466 39.6734C99.8049 39.8805 100.149 40.2425 100.377 40.5582C100.603 40.8716 100.79 41.25 100.832 41.604C100.87 41.9272 100.793 42.2343 100.463 42.5091C100.12 42.7945 99.6885 42.8134 99.2491 42.6236C98.7957 42.4277 98.4187 42.0389 98.2719 41.6612C98.0909 41.1951 98.031 40.789 98.0843 40.4569C98.1348 40.1419 98.2914 39.8586 98.6234 39.6193C98.8355 39.4665 99.093 39.4691 99.4466 39.6734Z" fill="#3C1814" stroke="#100000"/>
<circle cx="62.2896" cy="40.4541" r="9.83156" transform="rotate(0.40478 62.2896 40.4541)" stroke="black"/>
<path d="M72.4535 39.2998C74.8909 37.9955 81.9106 36.1953 88.3882 39.4126" stroke="black"/>
<path d="M52.1339 40.2067L50.3828 40.1943" stroke="black" stroke-linecap="round"/>
<path d="M108.519 40.6055L110.445 40.6191" stroke="black" stroke-linecap="round"/>
<circle cx="98.1733" cy="42.458" r="9.83156" transform="rotate(0.40478 98.1733 42.458)" stroke="black"/>
<path d="M70.2121 6.13159C71.0876 6.35005 71.7075 7.08932 71.6129 7.35736C71.5423 7.55767 70.5623 7.53282 69.792 7.49041C69.1536 7.26524 67.8739 6.30706 67.9356 6.13192C67.9974 5.95647 69.5116 5.95682 70.2121 6.13159Z" fill="#E9E1AF"/>
<path d="M120.82 7.35708C120.113 7.91825 118.894 8.5829 118.242 8.1565C117.792 7.86269 118.542 6.763 119.244 6.30643C119.811 5.93738 121.871 5.0805 122.046 5.25561C122.396 5.60583 121.385 6.90814 120.82 7.35708Z" fill="#E9E1AF"/>
<path d="M104.287 83.5548C100.935 86.4666 94.1345 92.4294 93.7469 92.9862C93.5341 93.2918 93.9377 94.5321 94.6252 95.1968C95.0223 95.5806 95.4582 96.109 95.7541 96.5753C96.1932 97.2674 97.2565 97.7238 99.2998 97.5676C105.142 97.1211 112.808 92.5871 115.911 90.376" stroke="#1C140A" stroke-width="2"/>
<path d="M93.7469 92.9862C94.1345 92.4294 100.935 86.4666 104.287 83.5548L116.025 90.1217C112.922 92.3328 105.142 97.1211 99.2998 97.5676C97.2565 97.7238 96.1932 97.2674 95.7541 96.5753C95.4582 96.109 95.0223 95.5806 94.6252 95.1968C93.9377 94.5321 93.5341 93.2918 93.7469 92.9862Z" fill="#FFFBE3"/>
<path d="M32.333 77.1584L2 55.0713" stroke="#929A4F" stroke-width="4" stroke-linecap="round"/>
<path d="M43.1728 89.5936L32.3123 80.2036C31.9075 79.7305 31.9545 78.3416 32.8032 77.7137C33.1077 77.4884 33.4168 77.22 33.457 76.8434C33.536 76.1032 33.482 75.7163 34.3868 75.2887C37.338 73.8938 48.3368 77.9531 53.4673 80.1571" stroke="#1C140A" stroke-width="2"/>
<path d="M32.3122 80.2046L43.1728 89.5946L54.1138 80.5469C48.9833 78.3429 37.3379 73.8948 34.3867 75.2897C33.4819 75.7173 33.5359 76.1042 33.4569 76.8444C33.4167 77.221 33.1076 77.4894 32.8031 77.7147C31.9544 78.3426 31.9074 79.7315 32.3122 80.2046Z" fill="#FFFBE3"/>
</svg>
