<svg width="86" height="131" viewBox="0 0 86 131" fill="none" xmlns="http://www.w3.org/2000/svg">
<ellipse cx="43.5" cy="124.5" rx="36.5" ry="6.5" fill="#DDE1AC"/>
<path d="M8.37732 49.1713C6.25964 44.0041 2.32921 31.3828 13.7139 21.7261C15.4927 18.8037 22.354 10.9516 26.9282 8.51199C21.0834 10.4179 21.3375 2.41326 24.8952 0.634183C29.4694 -1.65321 34.6789 2.66002 30.3588 6.98724C33.9165 5.9284 47.1308 4.44601 57.9691 7.36141C58.3122 2.92128 62.1617 0.913846 65.4657 2.66018C68.6041 4.31895 70.7641 9.02019 63.6487 10.4179C67.3335 13.3403 71.0183 17.0249 74.8301 22.8697C79.4043 26.6815 83.5437 38.7523 80.0396 47.9007C86.517 73.9157 92.4348 113.507 67.3717 117.777C67.1277 117.819 66.8735 117.858 66.6095 117.896C66.6518 119.805 67.4989 123.749 63.1788 124.003C58.8588 124.257 59.7744 120.403 59.851 118.412C49.5066 118.77 34.4325 117.953 25.3147 117.263C25.3994 119.213 25.0024 122.493 23.0276 122.987C22.0111 123.241 21.1217 123.241 19.8511 122.987C18.5805 122.733 17.9194 120.293 18.3262 116.634C10.0672 115.617 -11.9522 103.045 8.37732 49.1713Z" fill="#FFFBE3"/>
<path d="M43.0649 29.3145V34.651M43.0649 34.651L41.4131 35.4134M43.0649 34.651L44.7167 35.4134" stroke="#1C140A" stroke-linecap="round"/>
<path d="M42.6865 27.1826H43.251L42.9502 27.291L42.6865 27.1826Z" fill="#3C1814" stroke="black"/>
<path d="M32.2162 26.8939C32.2842 26.8843 32.4091 26.9087 32.5414 27.0676C32.6719 27.2244 32.7906 27.4993 32.7906 27.895C32.7906 28.3366 32.7074 28.6225 32.5898 28.7972C32.4851 28.9524 32.3208 29.068 32.0231 29.11C31.8778 29.1304 31.7548 29.0792 31.6378 28.859C31.5116 28.6213 31.4544 28.2696 31.4906 27.9526C31.5384 27.5345 31.6606 27.2811 31.7859 27.133C31.907 26.99 32.0537 26.9168 32.2162 26.8939Z" fill="#3C1814" stroke="#100000"/>
<path d="M17.143 84.5876L16.5303 58.7318C16.5234 58.4412 16.7656 58.2057 17.0557 58.2245C26.7883 58.855 35.6314 63.1666 39.0125 65.3563C39.0945 65.4095 39.1865 65.4359 39.2842 65.4359H44.6868C44.7942 65.4359 44.8978 65.4017 44.9845 65.3384C51.4577 60.6117 62.0184 58.5969 67.0389 58.1155C67.3367 58.0869 67.5863 58.329 67.5752 58.6279L66.5976 85.0245C66.5875 85.2955 66.3637 85.5085 66.0926 85.5108C57.4828 85.5843 48.2931 90.1546 44.5926 92.5477C44.5109 92.6006 44.4191 92.6269 44.3217 92.6269H39.1756C39.0664 92.6269 38.9621 92.5922 38.8744 92.5271C33.4837 88.5261 22.7025 85.9415 17.5607 85.0707C17.3231 85.0305 17.1487 84.8285 17.143 84.5876Z" fill="#D6D88F"/>
<path d="M16.5176 58.0665C21.3035 58.49 32.5018 60.5315 39.0073 65.309H44.598C46.9698 63.5725 54.8391 59.6675 67.3419 57.9395M39.0073 66.1984V91.6105M44.598 66.1984V91.6105" stroke="#AEAE4D" stroke-linecap="round"/>
<path d="M17.6611 57.813L19.2915 55.1345C19.3835 54.9834 19.5437 54.8917 19.7206 54.8957C25.6684 55.0296 37.4829 56.8905 41.2867 63.2831C41.509 63.6567 42.1184 63.6697 42.3625 63.31C44.5034 60.1551 50.9366 55.2676 64.023 55.0221C64.1891 55.019 64.3493 55.0994 64.4441 55.2358L66.3254 57.9401" stroke="#BEB67F"/>
<path d="M69.7886 65.7752C67.9776 67.3484 64.3033 70.5699 64.0938 70.8707C64.0118 70.9886 64.0994 71.3639 64.2915 71.6997C64.5657 72.1791 65.0335 72.843 65.5111 73.1202C65.8323 73.3067 66.3395 73.4036 67.0939 73.346C70.2505 73.1047 74.3922 70.6551 76.0685 69.4605" stroke="#1C140A" stroke-width="2"/>
<path d="M64.0938 70.8707C64.3033 70.5699 67.9776 67.3484 69.7886 65.7752L76.1301 69.3231C74.4539 70.5178 70.2505 73.1047 67.0939 73.346C66.3395 73.4036 65.8323 73.3067 65.5111 73.1202C65.0335 72.843 64.5657 72.1791 64.2915 71.6997C64.0994 71.3639 64.0118 70.9886 64.0938 70.8707Z" fill="#FFFBE3"/>
<path d="M54.6868 26.9031C54.6971 26.9049 54.5692 26.903 54.3976 27.1635C54.244 27.397 54.1448 27.7271 54.1716 28.048C54.2032 28.4256 54.3077 28.7034 54.438 28.8739C54.5571 29.0297 54.7011 29.1049 54.8904 29.105C55.0053 29.105 55.1411 29.0402 55.2627 28.8161C55.3856 28.5892 55.4472 28.268 55.4121 27.9609C55.3643 27.5427 55.2422 27.2894 55.1168 27.1414C54.9958 26.9984 54.8492 26.9261 54.6868 26.9031Z" fill="#3C1814" stroke="#100000"/>
<path d="M14.9932 64.293L18.9321 69.8836C19.0356 70.0907 18.9477 70.5239 18.6833 70.7957C18.4191 71.0671 18.071 71.2688 17.9002 71.6069C17.8238 71.7582 17.7085 71.8564 17.4074 71.9166C15.8827 72.2216 11.2661 69.0789 9.14844 67.4695" stroke="#1C140A" stroke-width="2"/>
<path d="M18.9323 69.8836L14.9934 64.293L8.89453 67.2154C11.0122 68.8248 15.8829 72.2216 17.4076 71.9166C17.7087 71.8564 17.824 71.7582 17.9004 71.6069C18.0712 71.2688 18.4193 71.0671 18.6835 70.7957C18.9479 70.5239 19.0359 70.0907 18.9323 69.8836Z" fill="#FFFBE3"/>
<path d="M26.7523 5.25589C27.4561 5.68799 27.7908 6.50663 27.6332 6.71573C27.5154 6.872 26.6662 6.581 26.0051 6.33222C25.5104 5.95937 24.6606 4.76752 24.7635 4.63086C24.8666 4.49396 26.1893 4.91021 26.7523 5.25589Z" fill="#E9E1AF"/>
<path d="M63.4422 7.78618C62.841 8.04555 61.861 8.28036 61.4849 7.85828C61.2258 7.56745 61.9589 6.93895 62.5371 6.75199C63.0045 6.60087 64.6091 6.39029 64.6986 6.5461C64.8777 6.85771 63.9232 7.57868 63.4422 7.78618Z" fill="#E9E1AF"/>
<circle cx="32.2729" cy="26.5562" r="6.99658" stroke="black"/>
<path d="M39.6426 25.7928C40.7438 24.8187 43.6831 23.4549 46.6309 25.7928" stroke="black"/>
<path d="M24.9034 26.4287H23.6328" stroke="black" stroke-linecap="round"/>
<path d="M61.2432 26.4287H62.6408" stroke="black" stroke-linecap="round"/>
<circle cx="53.8735" cy="26.5562" r="6.99658" stroke="black"/>
</svg>
