<svg width="173" height="137" viewBox="0 0 173 137" fill="none" xmlns="http://www.w3.org/2000/svg">
<path d="M12.3058 26.5143L74.1881 27.737C79.3604 27.8395 83.4994 32.0616 83.4995 37.2349L83.4999 108.25C83.4999 113.44 79.3337 117.671 74.1438 117.749L14.218 118.658C9.01494 118.736 4.71634 114.615 4.57722 109.413L2.62122 36.2664C2.47631 30.8483 6.88681 26.4072 12.3058 26.5143Z" fill="#CECD98" stroke="#D5D3A4"/>
<path d="M15.3077 26.4958L74.3326 27.7634C79.4943 27.8742 83.6227 32.0872 83.6288 37.2502L83.7104 107.361C83.7163 112.559 79.5441 116.796 74.3469 116.871L17.2072 117.691C12.0088 117.766 7.71594 113.648 7.57437 108.451L5.60768 36.2526C5.45992 30.8265 9.88088 26.3795 15.3077 26.4958Z" fill="#FEF9F0" stroke="#D5D3A4"/>
<path d="M15.3959 34.8968L73.0433 35.4515C75.5116 35.4753 77.4997 37.4837 77.4997 39.9521L77.5003 50C77.5 52.4851 75.4847 54.4994 72.9995 54.4994L15.7958 54.4995C13.3836 54.4995 11.4002 52.5974 11.2994 50.1873L10.8562 39.5855C10.7486 37.0116 12.8199 34.8721 15.3959 34.8968Z" fill="#FBF6E7" stroke="#D5D3A4"/>
<path d="M73.1199 58.5001C75.5625 58.5003 77.5585 60.4486 77.6178 62.8905L77.8762 73.5441C77.9374 76.0712 75.9056 78.1527 73.3779 78.1529L16.7572 78.1528C14.345 78.1528 12.3616 76.2507 12.2608 73.8406L11.8149 63.188C11.708 60.6312 13.7526 58.5002 16.3116 58.5001L73.1199 58.5001Z" fill="#FBF6E8" stroke="#D5D3A4"/>
<path d="M73.4051 82.8166C75.8488 82.8164 77.8459 84.7668 77.9039 87.2099L78.1575 97.8626C78.2175 100.389 76.1861 102.47 73.6592 102.47L18.0502 102.474C15.6369 102.474 13.6531 100.57 13.5538 98.1589L13.1167 87.5054C13.0118 84.95 15.0549 82.8216 17.6124 82.8214L73.4051 82.8166Z" fill="#FBF5E8" stroke="#D5D3A4"/>
<path d="M29.5 45H69" stroke="#E5E1C3" stroke-width="3" stroke-linecap="round"/>
<path d="M31 69H70.5" stroke="#E5E1C3" stroke-width="3" stroke-linecap="round"/>
<path d="M31 93H70.5" stroke="#E5E1C3" stroke-width="3" stroke-linecap="round"/>
<circle cx="20" cy="45" r="4.5" fill="#FEFBF2" stroke="#AEB06D"/>
<circle cx="21" cy="69" r="4.5" fill="#FEFBF2" stroke="#AEB06D"/>
<circle cx="22" cy="93" r="4.5" fill="#FEFBF2" stroke="#AEB06D"/>
<ellipse cx="125" cy="131" rx="47" ry="6" fill="#D1D491"/>
<path d="M86.3579 53.2805C84.1573 47.9111 82.7137 34.6635 94.5441 24.6289C96.3926 21.592 104.614 13.5364 106.114 12.5364C107.614 11.5364 113.614 8.0364 117.114 7.5364C120.614 7.0364 128.305 6.81134 139.568 9.84089L145.47 13.017C149.299 16.0538 156.865 28.3258 158.845 37.0402C166.899 68.7286 184.988 118.506 149.339 124.58C149.085 124.623 148.821 124.664 148.547 124.703C148.591 126.686 149.471 130.785 144.982 131.049C140.493 131.313 141.444 127.308 141.524 125.24C130.774 125.612 115.11 124.762 105.635 124.045C105.723 126.072 105.311 129.48 103.259 129.993C102.202 130.257 101.278 130.257 99.9577 129.993C98.6374 129.729 97.9503 127.194 98.3731 123.391C89.7907 122.335 65.2324 109.263 86.3579 53.2805Z" fill="#FFFBE3"/>
<path d="M98.3731 123.391C89.7907 122.335 65.2324 109.263 86.3579 53.2805C84.1573 47.9111 82.7137 34.6635 94.5441 24.6289C96.3926 21.592 104.614 13.5364 106.114 12.5364C107.614 11.5364 113.614 8.0364 117.114 7.5364C120.614 7.0364 128.305 6.81134 139.568 9.84089L145.47 13.017C149.299 16.0538 156.865 28.3258 158.845 37.0402C166.899 68.7286 184.988 118.506 149.339 124.58C149.085 124.623 148.821 124.664 148.547 124.703M98.3731 123.391C99.6769 123.552 102.264 123.79 105.635 124.045M98.3731 123.391C97.9504 127.194 98.6374 129.729 99.9577 129.993C101.278 130.257 102.202 130.257 103.259 129.993C105.311 129.48 105.723 126.072 105.635 124.045M105.635 124.045C115.11 124.762 130.774 125.612 141.524 125.24M141.524 125.24C141.444 127.308 140.493 131.313 144.982 131.049C149.471 130.785 148.591 126.686 148.547 124.703M141.524 125.24C144.237 125.146 146.638 124.974 148.547 124.703" stroke="#CEAE71"/>
<path d="M108.445 35.1738L110.79 36.8464L113.566 35.7183M110.665 38.0281L110.078 43.5425M110.078 43.5425L108.288 44.1487M110.078 43.5425L111.701 44.5117" stroke="#1C140A" stroke-linecap="round"/>
<path d="M115.823 47.5104C116.261 47.7388 121.061 51.9214 123.407 53.9841L118.764 61.9157C116.958 59.9841 113.198 55.1689 112.606 51.3604C112.427 50.2137 112.623 49.5221 113.003 49.148C113.396 48.7602 113.99 48.3047 114.436 47.9789C114.93 47.6186 115.62 47.4043 115.823 47.5104Z" fill="#FFFBE3"/>
<path d="M123.407 53.9841C121.061 51.9214 116.261 47.7388 115.823 47.5104C115.62 47.4043 114.93 47.6186 114.436 47.9789C113.99 48.3047 113.396 48.7602 113.003 49.148C112.623 49.5221 112.427 50.2137 112.606 51.3604C113.198 55.1689 116.958 59.9841 118.764 61.9157" stroke="#CEAE71"/>
<path d="M115.115 2.53562C113.52 4.16285 114.202 7.54738 115.872 8.4769C116.41 8.62607 117.864 8.80639 119.384 8.33433C120.904 7.86226 121.175 4.02114 120.86 2.72309C120.383 0.754555 116.937 0.676348 115.115 2.53562Z" fill="#FFFBE3" stroke="#FFFBE3" stroke-linecap="round"/>
<path d="M115.871 8.47693C114.2 7.54742 113.518 4.16289 115.113 2.53565C116.936 0.676382 119.145 0.19366 120.752 2.20878C121.644 3.1976 122.27 6.73988 120.751 7.21195" stroke="#CEAE71" stroke-linecap="round"/>
<path d="M116.24 8.03613C116.073 8.03613 115.94 7.83613 116.74 7.03613C117.54 6.23625 120.114 6.03619 121.114 6.03613L120.739 7.53613C119.939 7.53613 117.406 7.86947 116.24 8.03613Z" fill="#F5E9C7"/>
<path d="M147.833 15.2058C147.208 16.882 144.732 17.5499 143.572 17.6743L146.732 14.3181L147.833 15.2058Z" fill="#F5E8C8"/>
<path d="M134.252 8.71191C133.499 9.19496 134.479 11.7357 134.751 12.7122L135.251 9.2122L134.252 8.71191Z" fill="#F5E8C8"/>
<path d="M144.357 5.9052C135.996 1.7648 134.734 9.95462 135.214 14.4289C136.706 17.085 140.795 18.0208 142.654 18.1567C146.749 15.7059 150.199 8.7983 144.357 5.9052Z" fill="#FFFBE3"/>
<path d="M135.224 14.6028C134.744 10.1284 136.006 1.93863 144.367 6.07902C150.209 8.97213 146.759 15.8798 142.664 18.3305" stroke="#CEAE71" stroke-linecap="round"/>
<path d="M142.944 11.4953C143.074 12.7118 141.601 13.5907 140.315 14.0747C139.752 14.2866 139.168 13.8804 139.14 13.2795C139.081 11.9966 139.188 10.2562 140.245 9.77337C141.155 9.35796 142.731 9.50674 142.944 11.4953Z" fill="#F5E8C8"/>
<path d="M123.451 34.6711C123.579 34.6835 123.694 34.7594 123.785 35.0277C123.877 35.3014 123.893 35.6589 123.865 35.9408C123.838 36.2195 123.76 36.5043 123.624 36.7019C123.506 36.874 123.346 36.9843 123.069 36.9769C122.791 36.9694 122.572 36.8044 122.432 36.5078C122.286 36.1977 122.27 35.8245 122.363 35.5718C122.488 35.23 122.645 34.9916 122.818 34.8486C122.978 34.7167 123.175 34.6444 123.451 34.6711Z" fill="#3C1814" stroke="#100000"/>
<path d="M99.5564 30.9225C99.6488 30.9173 99.816 30.9689 99.9872 31.1658C100.152 31.3551 100.287 31.6476 100.308 32.0151C100.344 32.6531 99.7995 33.2039 99.1679 33.2401C99.0049 33.2494 98.8756 33.1781 98.7713 32.9349C98.6592 32.6736 98.6304 32.3003 98.6958 31.9718C98.782 31.5401 98.9318 31.284 99.0778 31.1381C99.2191 30.997 99.3818 30.9325 99.5564 30.9225Z" fill="#3C1814" stroke="#100000"/>
<circle cx="98.2466" cy="30.3558" r="8.27141" transform="rotate(6.58021 98.2466 30.3558)" stroke="black" stroke-width="0.5"/>
<path d="M106.684 30.3116C108.799 29.4584 114.715 28.605 119.741 31.8179" stroke="black" stroke-width="0.5"/>
<path d="M89.9407 29.2524L88.5059 29.0869" stroke="black" stroke-width="0.5" stroke-linecap="round"/>
<path d="M136.143 34.5811L137.721 34.7631" stroke="black" stroke-width="0.5" stroke-linecap="round"/>
<circle cx="127.495" cy="35.184" r="8.27141" transform="rotate(6.58021 127.495 35.184)" stroke="black" stroke-width="0.5"/>
<g filter="url(#filter0_d_726_2976)">
<path d="M105.809 54.3274L105.773 54.4399L107.556 55.4753L107.742 55.0897C108.006 54.5415 107.724 53.8863 107.144 53.7021L107.065 53.677C106.538 53.5099 105.976 53.8011 105.809 54.3274Z" fill="#252419"/>
<path d="M102.753 61.1203C103.868 59.9729 105.11 61.0867 105.591 61.787L105.323 62.7809L99.8587 81.3164L97.4396 85.2404L96.672 81.0083L102.753 61.1203Z" fill="#BFC270"/>
<path d="M105.323 62.7809L105.591 61.787C105.11 61.0867 103.868 59.9729 102.753 61.1203L96.672 81.0083L97.4396 85.2404L99.8587 81.3164L105.323 62.7809ZM105.323 62.7809L106.372 63.8534L105.028 68.8228L103.973 69.1915" stroke="#94975F" stroke-width="0.7"/>
<path d="M101.157 77.8431L99.0257 77.1663L99.4246 80.343L101.157 77.8431Z" fill="#201E1A"/>
</g>
<path d="M99.6172 72.5716L90.3405 68.5983L93.9845 60.0753C96.8531 62.5312 102.551 67.9689 102.395 70.0724C102.354 70.628 102.143 70.7557 101.778 70.933C101.421 71.1063 101.277 71.5267 101.071 71.8662C100.757 72.3869 99.9941 72.6735 99.6172 72.5716Z" fill="#FFFBE3"/>
<path d="M90.3405 68.5983L99.6172 72.5716C99.9941 72.6735 100.757 72.3869 101.071 71.8662C101.277 71.5267 101.421 71.1063 101.778 70.933C102.143 70.7557 102.354 70.628 102.395 70.0724C102.551 67.9689 96.8531 62.5312 93.9845 60.0753" stroke="#D3B782"/>
<path d="M87 19.5L89.5 20M88.5 14L91.5 16.5M94 11L95 13.5" stroke="#FCD270" stroke-linecap="round"/>
<path d="M165 9.26179C165 6.26184 172 5.7618 171.5 10.7618C171.3 12.7618 170 12.7617 169 13.2617C168 13.7617 167 15.2617 167 16.2617" stroke="#FCD270" stroke-width="2" stroke-linecap="round"/>
<circle cx="167" cy="19.7617" r="1.5" fill="#FCD270"/>
<defs>
<filter id="filter0_d_726_2976" x="94.3125" y="53.6299" width="15.5293" height="38.5713" filterUnits="userSpaceOnUse" color-interpolation-filters="sRGB">
<feFlood flood-opacity="0" result="BackgroundImageFix"/>
<feColorMatrix in="SourceAlpha" type="matrix" values="0 0 0 0 0 0 0 0 0 0 0 0 0 0 0 0 0 0 127 0" result="hardAlpha"/>
<feOffset dy="4"/>
<feGaussianBlur stdDeviation="1"/>
<feComposite in2="hardAlpha" operator="out"/>
<feColorMatrix type="matrix" values="0 0 0 0 0.647059 0 0 0 0 0.682353 0 0 0 0 0.4 0 0 0 0.4 0"/>
<feBlend mode="normal" in2="BackgroundImageFix" result="effect1_dropShadow_726_2976"/>
<feBlend mode="normal" in="SourceGraphic" in2="effect1_dropShadow_726_2976" result="shape"/>
</filter>
</defs>
</svg>
