<svg width="156" height="181" viewBox="0 0 156 181" fill="none" xmlns="http://www.w3.org/2000/svg">
<ellipse cx="93" cy="172.001" rx="46" ry="8.5" fill="#BEC574"/>
<path d="M43.1227 65.8095C40.2042 58.6883 38.2896 41.1189 53.9796 27.8104C56.4311 23.7829 64.6087 13.1458 70.9128 9.78364C64.7839 12.4103 63.9083 3.47965 68.8114 1.0278C73.072 -1.10273 79.3181 3.65469 75.6408 7.68227C80.5439 6.223 98.7554 4.18002 113.692 8.19795C114.165 2.07869 119.47 -0.687893 124.024 1.71885C128.349 4.00491 131.326 10.484 121.52 12.4102C126.598 16.4378 136.632 32.7135 139.259 44.2708C149.94 86.2975 173.931 152.314 126.651 160.37C126.314 160.427 125.964 160.481 125.6 160.533C125.659 163.164 126.826 168.6 120.872 168.95C114.918 169.3 116.18 163.988 116.286 161.245C102.03 161.738 81.2549 160.611 68.6892 159.661C68.8059 162.348 68.2587 166.869 65.5372 167.549C64.1363 167.899 62.9105 167.899 61.1594 167.549C59.4083 167.199 58.4971 163.837 59.0577 158.794C47.6755 157.393 15.1052 140.057 43.1227 65.8095Z" fill="#FFFBE3"/>
<path d="M116.286 161.245C102.03 161.738 81.2549 160.611 68.6892 159.661C64.2185 159.322 60.787 159.006 59.0577 158.794C47.6755 157.393 15.1052 140.057 43.1227 65.8095C40.2042 58.6883 38.2896 41.1189 53.9796 27.8104C56.4311 23.7829 64.6088 13.1458 70.9128 9.78364C64.7839 12.4103 63.9083 3.47965 68.8114 1.0278C73.072 -1.10273 79.3181 3.65469 75.6408 7.68227C80.5439 6.223 98.7554 4.18002 113.692 8.19795C114.165 2.07869 119.47 -0.687893 124.024 1.71885C128.349 4.00491 131.326 10.484 121.52 12.4102C126.598 16.4378 136.632 32.7135 139.259 44.2708C149.94 86.2975 173.931 152.314 126.651 160.37C126.314 160.427 125.964 160.481 125.6 160.533C123.069 160.893 119.885 161.121 116.286 161.245ZM59.0577 158.794C58.4971 163.837 59.4083 167.199 61.1594 167.549C62.9105 167.899 64.1363 167.899 65.5372 167.549C68.2587 166.869 68.8059 162.348 68.6892 159.661M116.286 161.245C116.18 163.988 114.918 169.3 120.872 168.95C126.826 168.6 125.659 163.164 125.6 160.533" stroke="#CEAE71"/>
<path d="M76.8008 45.2646L80.1279 47.1416L83.6301 45.2647M80.1279 48.7176V56.0723M80.1279 56.0723L77.8514 57.123M80.1279 56.0723L82.4043 57.123" stroke="#1C140A" stroke-linecap="round"/>
<path d="M59.3956 36.5092C59.5658 36.5875 59.7544 36.803 59.8401 37.1738C59.9234 37.5347 59.8941 37.9981 59.6756 38.473C59.279 39.3343 58.1967 39.6618 57.3626 39.2782C57.0846 39.1503 56.9611 38.9068 56.9939 38.5119C57.0284 38.0975 57.2425 37.6114 57.5406 37.2467C57.9246 36.7768 58.2845 36.5483 58.5846 36.4564C58.8786 36.3665 59.1504 36.3965 59.3956 36.5092ZM97.4935 38.6148C97.8518 38.822 98.1961 39.1839 98.4237 39.4997C98.6495 39.813 98.8367 40.1914 98.8788 40.5454C98.9172 40.8686 98.8398 41.1757 98.5096 41.4505C98.1667 41.7359 97.7354 41.7548 97.296 41.565C96.8426 41.3691 96.4656 40.9803 96.3188 40.6026C96.1378 40.1366 96.0779 39.7304 96.1311 39.3983C96.1817 39.0833 96.3383 38.8 96.6703 38.5607C96.8824 38.4079 97.1399 38.4105 97.4935 38.6148Z" fill="#3C1814" stroke="#100000"/>
<circle cx="59.4842" cy="38.2118" r="11.1164" transform="rotate(0.40478 59.4842 38.2118)" stroke="black"/>
<path d="M70.9128 36.914C73.6535 35.4475 81.5461 33.4234 88.8292 37.0408" stroke="black"/>
<path d="M48.0665 37.9329L46.0977 37.9189" stroke="black" stroke-linecap="round"/>
<path d="M111.463 38.3818L113.629 38.3971" stroke="black" stroke-linecap="round"/>
<circle cx="99.8309" cy="40.4648" r="11.1164" transform="rotate(0.40478 99.8309 40.4648)" stroke="black"/>
<path d="M70.2121 6.63256C71.0876 6.85102 71.7075 7.5903 71.6129 7.85834C71.5423 8.05865 70.5623 8.03379 69.792 7.99139C69.1536 7.76622 67.8739 6.80804 67.9356 6.6329C67.9974 6.45745 69.5116 6.45779 70.2121 6.63256Z" fill="#E9E1AF"/>
<path d="M120.82 7.85806C120.113 8.41923 118.894 9.08388 118.242 8.65747C117.792 8.36366 118.542 7.26398 119.244 6.80741C119.811 6.43835 121.871 5.58148 122.046 5.75659C122.396 6.10681 121.385 7.40912 120.82 7.85806Z" fill="#E9E1AF"/>
<path d="M104.287 84.0558C100.935 86.9676 94.1345 92.9304 93.7469 93.4871C93.5341 93.7927 93.9377 95.0331 94.6252 95.6977C95.0223 96.0816 95.4582 96.61 95.7541 97.0763C96.1932 97.7684 97.2565 98.2248 99.2998 98.0686C105.142 97.6221 112.808 93.0881 115.911 90.8769" stroke="#CEAE71" stroke-width="2"/>
<path d="M93.7469 93.4871C94.1345 92.9304 100.935 86.9676 104.287 84.0558L116.025 90.6226C112.922 92.8338 105.142 97.6221 99.2998 98.0686C97.2565 98.2248 96.1932 97.7684 95.7541 97.0763C95.4582 96.61 95.0223 96.0816 94.6252 95.6977C93.9377 95.0331 93.5341 93.7927 93.7469 93.4871Z" fill="#FFFBE3"/>
<path d="M32.333 77.6594L2 55.5723" stroke="#929A4F" stroke-width="4" stroke-linecap="round"/>
<path d="M43.1728 90.0946L32.3123 80.7046C31.9075 80.2315 31.9545 78.8425 32.8032 78.2146C33.1077 77.9894 33.4168 77.721 33.457 77.3444C33.536 76.6041 33.482 76.2173 34.3868 75.7896C37.338 74.3948 48.3368 78.4541 53.4673 80.6581" stroke="#CEAE71" stroke-width="2"/>
<path d="M32.3122 80.7056L43.1728 90.0956L54.1138 81.0478C48.9833 78.8438 37.3379 74.3958 34.3867 75.7907C33.4819 76.2183 33.5359 76.6052 33.4569 77.3454C33.4167 77.722 33.1076 77.9904 32.8031 78.2156C31.9544 78.8436 31.9074 80.2325 32.3122 80.7056Z" fill="#FFFBE3"/>
</svg>
