<svg width="23" height="24" viewBox="0 0 23 24" fill="none" xmlns="http://www.w3.org/2000/svg">
<path d="M10.0007 20.9892H8.50013V18.489M10.0007 20.9892C10.0007 21.9883 10.0007 23.4883 11.9993 23.4883C13.2385 23.4883 13.5007 21.9883 13.5007 20.9892M10.0007 20.9892H13.5007M13.5007 20.9892H15.0007V18.489M8.50013 18.489V17.9892C2.99955 15.4882 2.999 3.98998 11.5001 3.98922C19.9996 3.98846 19.9993 14.4882 15.0007 17.9892V18.489M8.50013 18.489H15.0007M20.4993 10.9882H22.4993M18.186 4.49983L19.4993 2.99147M11.4993 2.5V0.5M5.21385 4.69102L3.78425 3.29235M2.5 11L0.5 11" stroke="#ED765C" stroke-linecap="round"/>
</svg>
