<svg width="378" height="403" viewBox="0 0 378 403" fill="none" xmlns="http://www.w3.org/2000/svg">
<path d="M61.5696 243.097C53.6494 223.772 48.4537 176.092 91.033 139.975C97.686 129.046 119.878 100.179 136.986 91.0545C120.354 98.1828 117.978 73.9468 131.284 67.293C142.846 61.5111 159.797 74.4218 149.817 85.3518C163.123 81.3917 212.545 75.8475 253.081 86.7513C254.364 70.1449 268.762 62.6369 281.119 69.1683C292.857 75.3722 300.936 92.9552 274.323 98.1826C288.105 109.113 315.335 153.281 322.463 184.646C351.451 298.697 416.556 477.854 288.247 499.714C287.335 499.869 286.384 500.017 285.397 500.157C285.555 507.296 288.723 522.049 272.566 522.999C256.409 523.95 259.833 509.535 260.12 502.09C221.431 503.428 165.053 500.37 130.952 497.79C131.269 505.084 129.784 517.351 122.398 519.197C118.596 520.148 115.27 520.148 110.517 519.197C105.765 518.247 103.293 509.123 104.814 495.437C73.9249 491.635 -14.4642 444.589 61.5696 243.097Z" fill="#FFFBE3"/>
<path d="M130.952 497.79C165.053 500.37 221.431 503.428 260.12 502.09C269.887 501.752 278.527 501.134 285.397 500.157C286.384 500.017 287.335 499.869 288.247 499.714C416.556 477.854 351.451 298.697 322.463 184.646C315.335 153.281 288.105 109.113 274.323 98.1826C300.936 92.9552 292.857 75.3722 281.119 69.1683C268.762 62.6369 254.364 70.1449 253.081 86.7513C212.545 75.8475 163.123 81.3917 149.817 85.3518C159.797 74.4218 142.846 61.5111 131.284 67.293C117.978 73.9468 120.354 98.1828 136.986 91.0545C119.878 100.179 97.686 129.046 91.033 139.975C48.4537 176.092 53.6494 223.772 61.5696 243.097C-14.4642 444.589 73.9249 491.635 104.814 495.437M104.814 495.437C109.507 496.014 118.819 496.872 130.952 497.79M104.814 495.437C103.293 509.123 105.765 518.247 110.517 519.197C115.27 520.148 118.596 520.148 122.398 519.197C129.784 517.351 131.269 505.084 130.952 497.79M260.12 502.09C259.833 509.535 256.409 523.95 272.566 522.999C288.723 522.049 285.555 507.296 285.397 500.157" stroke="#CEAE71"/>
<path d="M235.156 173.652C239.27 173.839 242.996 175.631 245.693 178.175C248.4 180.727 250.034 183.998 250.034 187.108C250.034 193.282 243.533 198.862 234.619 196.806C229.554 195.637 224.213 191.474 224.213 183.714C224.213 180.556 225.312 178.056 227.199 176.343C229.091 174.625 231.821 173.653 235.156 173.652Z" fill="#FED1C1" stroke="#F7C2AD"/>
<path d="M98.5391 171.903C94.5862 170.747 90.4814 171.235 87.1051 172.768C83.7176 174.306 81.1121 176.871 80.1044 179.814C78.1046 185.654 82.4474 193.039 91.5469 193.982C96.7177 194.517 103.119 192.309 105.633 184.967C106.656 181.979 106.425 179.258 105.195 177.026C103.963 174.788 101.694 172.984 98.5391 171.903Z" fill="#FED1C1" stroke="#F7C2AD"/>
<path d="M150.774 154.396L159.804 159.49L169.308 154.397M159.804 163.767V183.726M159.804 183.726L153.626 186.577M159.804 183.726L165.981 186.577" stroke="#1C140A" stroke-linecap="round"/>
<circle cx="111.83" cy="152.026" r="29.359" transform="rotate(0.40478 111.83 152.026)" stroke="black" stroke-width="2"/>
<path d="M141.703 148.641C148.865 144.809 169.492 139.519 188.527 148.973" stroke="black" stroke-width="2"/>
<path d="M81.9921 151.3L76.8467 151.264" stroke="black" stroke-width="2" stroke-linecap="round"/>
<path d="M247.678 152.471L253.338 152.511" stroke="black" stroke-width="2" stroke-linecap="round"/>
<circle cx="217.279" cy="157.914" r="29.359" transform="rotate(0.40478 217.279 157.914)" stroke="black" stroke-width="2"/>
<path d="M112.505 158.626C112.523 158.766 112.584 158.9 112.688 158.999C112.792 159.099 112.927 159.154 113.067 159.154C113.208 159.154 113.343 159.099 113.447 158.999C113.55 158.9 113.612 158.766 113.63 158.626C113.63 158.626 113.63 158.626 113.63 158.626C113.693 158.121 113.771 157.661 113.868 157.187C114.615 152.928 117.605 149.47 121.317 149.646C125.016 149.67 128.195 152.983 129.02 157.197C129.124 157.674 129.205 158.125 129.268 158.626C129.286 158.766 129.348 158.9 129.451 158.999C129.555 159.099 129.69 159.154 129.831 159.154C129.971 159.154 130.106 159.099 130.21 158.999C130.314 158.9 130.375 158.766 130.393 158.626C130.455 158.089 130.491 157.591 130.494 157.049C130.774 152.377 127.05 146.683 121.377 146.646C115.56 146.377 111.972 152.512 112.393 157.059C112.404 157.589 112.443 158.09 112.505 158.626Z" fill="black"/>
<path d="M196.328 158.626C196.346 158.766 196.408 158.9 196.511 158.999C196.615 159.099 196.75 159.154 196.891 159.154C197.031 159.154 197.166 159.099 197.27 158.999C197.374 158.9 197.435 158.766 197.453 158.626C197.453 158.626 197.453 158.626 197.453 158.626C197.516 158.121 197.594 157.661 197.692 157.187C198.438 152.928 201.428 149.47 205.141 149.646C208.839 149.67 212.018 152.983 212.843 157.197C212.947 157.674 213.028 158.125 213.091 158.626C213.109 158.766 213.171 158.9 213.274 158.999C213.378 159.099 213.514 159.154 213.654 159.154C213.794 159.154 213.93 159.099 214.033 158.999C214.137 158.9 214.199 158.766 214.216 158.626C214.278 158.089 214.314 157.591 214.317 157.049C214.597 152.377 210.873 146.683 205.2 146.646C199.383 146.377 195.795 152.512 196.216 157.059C196.227 157.589 196.266 158.09 196.328 158.626Z" fill="black"/>
<path d="M226.275 9.37402C226.556 10.2718 227.213 11.0039 228.075 11.3809L235.271 14.5273L228.075 17.6748C227.213 18.0517 226.556 18.7839 226.275 19.6816L223.603 28.2188L220.93 19.6816C220.649 18.7839 219.992 18.0517 219.13 17.6748L211.934 14.5273L219.13 11.3809C219.992 11.0039 220.649 10.2718 220.93 9.37402L223.603 0.836914L226.275 9.37402Z" fill="#F0C559" stroke="#E1E1B2" stroke-width="0.5"/>
<path d="M360.564 52.4111C360.857 53.3085 361.526 54.0342 362.396 54.3994L366.548 56.1406L362.396 57.8828C361.526 58.248 360.857 58.9737 360.564 59.8711L359.02 64.5996L357.475 59.8711C357.182 58.9737 356.513 58.248 355.643 57.8828L351.49 56.1406L355.643 54.3994C356.513 54.0342 357.182 53.3086 357.475 52.4111L359.02 47.6816L360.564 52.4111Z" fill="#F0C559" stroke="#E1E1B2" stroke-width="0.5"/>
<path d="M62.9824 78.8584C63.2592 79.7559 63.9111 80.4899 64.7695 80.8711L75.2441 85.5215L64.7695 90.1729C63.9111 90.554 63.2592 91.288 62.9824 92.1855L59.0957 104.79L55.21 92.1855C54.9332 91.288 54.2813 90.554 53.4229 90.1729L42.9473 85.5215L53.4229 80.8711C54.2813 80.4899 54.9332 79.7559 55.21 78.8584L59.0957 66.2529L62.9824 78.8584Z" fill="#F0C559" stroke="#E1E1B2" stroke-width="0.5"/>
<path d="M103.38 123.184C104.47 118.278 117.551 105.74 121.367 103.56C193.315 92.2228 270.35 109.192 293.606 119.912C297.687 117.191 314.882 116.357 318.096 128.633C329.373 125.726 356.942 123.619 377 138.444C373.73 142.441 366.753 151.962 365.009 158.066C356.277 151.526 334.837 138.444 318.934 138.444C318.867 138.891 318.781 139.312 318.679 139.708C327.582 150.188 350.401 172.347 370.46 177.144C366.281 182.049 357.596 192.732 356.288 196.221C343.57 190.556 317.044 172.424 312.683 145.209C309.168 145.556 305.534 143.513 305.597 141.714C211.411 113.371 122.639 117.37 103.38 123.184Z" fill="#DB5542"/>
<path d="M305.597 141.714C211.411 113.371 122.639 117.37 103.38 123.184C104.47 118.278 117.551 105.74 121.367 103.56C193.315 92.2228 270.35 109.192 293.606 119.912M318.679 139.708C317.707 143.457 315.227 144.959 312.683 145.209C309.168 145.556 305.534 143.513 305.597 141.714C304.507 136.809 297.095 124.709 293.606 119.912M293.606 119.912C297.687 117.191 314.882 116.357 318.096 128.633M318.679 139.708C318.781 139.312 318.867 138.891 318.934 138.444C319.216 136.571 319.173 134.238 318.679 131.358C318.511 130.381 318.316 129.474 318.096 128.633M318.096 128.633C329.373 125.726 356.942 123.619 377 138.444C373.73 142.441 366.753 151.962 365.009 158.066C356.277 151.526 334.837 138.444 318.934 138.444M318.679 139.708C327.582 150.188 350.401 172.347 370.46 177.144C366.281 182.049 357.596 192.732 356.288 196.221C343.57 190.556 317.044 172.424 312.683 145.209" stroke="#C9412E" stroke-linecap="round"/>
<path d="M142.654 86.0669C138.495 86.0229 133.778 81.4985 135.412 79.2478C138.915 74.4235 141.142 79.4052 142.654 86.0669Z" fill="#F7E7D4"/>
<path d="M261.415 91.7955C259.973 88.0654 267.447 75.5514 270.834 80.3151C274.053 84.8425 263.71 92.9518 261.415 91.7955Z" fill="#F7E7D4"/>
<path d="M72.5298 225.166L43.2188 203.238C41.661 202.367 37.3632 202.871 36.4037 205.353C36.2562 205.735 35.9771 206.079 35.5766 206.162C33.0031 206.697 31.7427 206.282 30.8182 208.632C28.1946 215.3 55.6331 251.329 63.4915 262.089" stroke="#CEAE71" stroke-width="3"/>
<path d="M43.2175 203.237L76.8725 228.304L66.0721 265.112C58.2136 254.352 28.1933 215.299 30.8169 208.631C31.7414 206.281 33.0018 206.696 35.5753 206.162C35.9758 206.078 36.2549 205.734 36.4024 205.353C37.3619 202.871 41.6597 202.367 43.2175 203.237Z" fill="#FFFBE3"/>
<path d="M13.1164 174.868L2 167.43M22.4541 170.284L13.561 154.733M33.5705 165.699V152.617" stroke="#EEC257" stroke-width="4" stroke-linecap="round"/>
<path d="M309.097 227.719C319.365 219.525 340.358 202.929 342.186 202.099C343.434 201.532 348.379 204.515 348.906 207.629C348.999 208.174 349.362 208.686 349.883 208.868C352.742 209.865 354.518 213.237 352.543 220.71C348.115 237.472 330.817 257.35 322.721 265.194" stroke="#CEAE71" stroke-width="3"/>
<path d="M342.186 202.099C340.358 202.929 319.365 219.525 309.097 227.719L321.92 265.39C330.015 257.546 348.115 237.472 352.543 220.71C354.518 213.237 352.742 209.865 349.883 208.868C349.362 208.686 348.998 208.174 348.906 207.629C348.379 204.515 343.434 201.532 342.186 202.099Z" fill="#FFFBE3"/>
</svg>
