<svg width="93" height="126" viewBox="0 0 93 126" fill="none" xmlns="http://www.w3.org/2000/svg">
<path d="M16.5441 20.5916C4.71371 30.6262 6.15731 43.8738 8.3579 49.2432C-12.7676 105.226 11.7907 118.298 20.373 119.354C21.6769 119.514 24.2643 119.753 27.6352 120.008C37.1099 120.725 52.7742 121.574 63.5236 121.202C66.2375 121.109 68.6381 120.937 70.5467 120.666C70.821 120.627 71.0852 120.585 71.3387 120.542C106.988 114.469 88.8994 64.6913 80.8452 33.0029C78.8647 24.2885 71.2991 12.0165 67.47 8.97969C74.864 7.5273 72.6194 2.642 69.3582 0.918287C65.9248 -0.896418 61.9245 1.18961 61.568 5.80358C50.3054 2.77403 36.5738 4.31446 32.8768 5.41476C35.6495 2.37793 30.9399 -1.20921 27.7274 0.397229C24.0304 2.24594 24.6906 8.97974 29.3118 6.99921C24.5586 9.53429 18.3925 17.5547 16.5441 20.5916Z" fill="#FDF7E4"/>
<path d="M42.1152 35.2734L44.695 36.5546L47.2575 35.0022M44.7575 37.7413L45.0496 43.2791M45.0496 43.2791L43.3773 44.1606M45.0496 43.2791L46.8054 43.9798" stroke="#1C140A" stroke-linecap="round"/>
<path d="M32.8359 31.8183C32.9245 31.7916 33.0996 31.8017 33.312 31.953C33.5163 32.0986 33.7159 32.352 33.8224 32.7046C34.0071 33.3164 33.6066 33.9795 33.0009 34.1624C32.8445 34.2096 32.7026 34.1697 32.5442 33.9576C32.374 33.7298 32.2585 33.3737 32.2453 33.039C32.2281 32.5992 32.3134 32.3159 32.4211 32.1399C32.5254 31.9696 32.6685 31.869 32.8359 31.8183ZM59.1652 31.8382C59.2927 31.8203 59.4225 31.867 59.5734 32.1067C59.7273 32.3511 59.8264 32.695 59.8658 32.9755C59.9048 33.2527 59.8947 33.5475 59.8088 33.7715C59.734 33.9665 59.6052 34.1115 59.3343 34.1692C59.0621 34.227 58.8108 34.1178 58.6051 33.8623C58.3898 33.595 58.2868 33.2356 58.3175 32.9682C58.3591 32.6066 58.4574 32.3383 58.5921 32.1588C58.7165 31.9931 58.8911 31.8767 59.1652 31.8382Z" fill="#3C1814" stroke="#100000"/>
<circle cx="31.0904" cy="31.1376" r="7.54008" transform="rotate(-2.61419 31.0904 31.1376)" stroke="black" stroke-width="0.5"/>
<path d="M38.6989 29.8677C40.4824 28.7889 45.6965 27.1546 50.7016 29.3198" stroke="black" stroke-width="0.5"/>
<path d="M23.4342 31.3577L22.1152 31.418" stroke="black" stroke-width="0.5" stroke-linecap="round"/>
<path d="M65.9062 29.418L67.3571 29.3517" stroke="black" stroke-width="0.5" stroke-linecap="round"/>
<circle cx="58.19" cy="31.2235" r="7.54008" transform="rotate(-2.61419 58.19 31.2235)" stroke="black" stroke-width="0.5"/>
<path d="M71.6361 68.002C61.2361 68.802 49.3027 76.3353 44.6361 80.002C22.1361 75.002 9.53111 82.0762 10.1361 84.502C10.6348 86.502 16.6348 111.002 21.6361 111.502C26.7583 112.014 48.6348 106.502 55.6361 108.002C58.1361 105.502 86.9494 97.555 87.1361 95.502C87.6361 90.002 74.1361 68.002 71.6361 68.002Z" fill="#9B9A5B" stroke="#B5B479" stroke-width="0.5"/>
<path d="M71.6361 66.002C61.2361 66.802 49.3027 74.3353 44.6361 78.002C22.1361 73.002 9.53111 80.0762 10.1361 82.502C10.6348 84.502 16.6348 109.002 21.6361 109.502C26.7583 110.014 48.6348 104.502 55.6361 106.002C58.1361 103.502 86.9494 95.555 87.1361 93.502C87.6361 88.002 74.1361 66.002 71.6361 66.002Z" fill="#F3E3BE" stroke="#B5B479" stroke-width="0.5"/>
<path d="M20.1152 105.273C18.9152 104.473 14.2819 88.2733 12.1152 80.2733C18.9152 74.2727 36.9486 76.1069 45.1152 77.7741C50.6152 72.6965 61.7579 68.336 67.6152 66.695C69.1152 66.2748 70.6152 65.6953 72.6152 66.1953C74.6152 66.6953 88.6152 91.2733 86.1152 91.7733C78.1152 93.3732 62.1152 99.7733 55.1152 102.773C40.6152 100.773 24.6152 105.773 23.6152 106.273C22.6152 106.773 21.6152 106.273 20.1152 105.273Z" fill="#FDF9E8"/>
<path d="M55.1152 103.002L45.1152 78.002" stroke="#B5B479" stroke-width="0.5"/>
<path d="M53.1152 78.502C55.7819 76.3353 63.0152 71.802 70.6152 71.002" stroke="#B5B479" stroke-width="0.5"/>
<path d="M26.3762 99.5194C29.5942 98.3152 37.8949 96.3225 45.3538 97.9854" stroke="#B5B479" stroke-width="0.5"/>
<path d="M56.1152 84.502C58.6152 83.002 63.1152 80.502 65.6152 80.002" stroke="#B5B479" stroke-width="0.5"/>
<path d="M24.6315 91.729C28.8514 91.1415 36.3553 90.335 40.1149 91.0024" stroke="#B5B479" stroke-width="0.5"/>
<path d="M57.2356 87.7436L61.7071 85.5064" stroke="#B5B479" stroke-width="0.5"/>
<path d="M63.1144 85.0027L66.5852 83.2611" stroke="#B5B479" stroke-width="0.5"/>
<path d="M36.6152 112.002L35.1152 106.001C35.1152 106.001 35.1152 105.501 37.6152 105.001C40.1152 104.502 40.6152 105.001 40.6152 105.001L42.1152 111.002L39.1152 110.002L36.6152 112.002Z" fill="#D7DD94"/>
<path d="M35.1152 106.001H34.8652V106.032L34.8727 106.062L35.1152 106.001ZM36.6152 112.002L36.3727 112.063C36.3933 112.145 36.4546 112.212 36.5353 112.239C36.6159 112.266 36.7049 112.25 36.7714 112.197L36.6152 112.002ZM39.1152 110.002L39.1943 109.765C39.1138 109.738 39.0253 109.754 38.9591 109.807L39.1152 110.002ZM42.1152 111.002L42.0362 111.239C42.1227 111.268 42.2181 111.247 42.2851 111.185C42.352 111.123 42.3799 111.03 42.3578 110.941L42.1152 111.002ZM40.6152 105.001L40.8578 104.941L40.841 104.873L40.7919 104.824L40.6152 105.001ZM37.6152 105.001L37.5662 104.756V104.756L37.6152 105.001ZM35.1152 106.001L34.8727 106.062L36.3727 112.063L36.6152 112.002L36.8578 111.941L35.3578 105.941L35.1152 106.001ZM36.6152 112.002L36.7714 112.197L39.2714 110.197L39.1152 110.002L38.9591 109.807L36.4591 111.807L36.6152 112.002ZM39.1152 110.002L39.0362 110.239L42.0362 111.239L42.1152 111.002L42.1943 110.765L39.1943 109.765L39.1152 110.002ZM42.1152 111.002L42.3578 110.941L40.8578 104.941L40.6152 105.001L40.3727 105.062L41.8727 111.063L42.1152 111.002ZM40.6152 105.001C40.7919 104.824 40.7916 104.824 40.7914 104.824C40.7913 104.824 40.791 104.823 40.7908 104.823C40.7905 104.823 40.7901 104.823 40.7897 104.822C40.789 104.821 40.7882 104.821 40.7873 104.82C40.7857 104.818 40.7839 104.817 40.7819 104.815C40.778 104.811 40.7735 104.807 40.7684 104.803C40.7581 104.795 40.7454 104.785 40.7299 104.774C40.6989 104.753 40.6569 104.728 40.6014 104.703C40.4905 104.653 40.3264 104.6 40.088 104.566C39.6131 104.499 38.8328 104.503 37.5662 104.756L37.6152 105.001L37.6642 105.247C38.8977 105 39.6174 105.004 40.0174 105.061C40.2166 105.09 40.3337 105.131 40.3947 105.159C40.4252 105.172 40.4418 105.183 40.4478 105.187C40.4509 105.189 40.4513 105.19 40.4496 105.188C40.4488 105.188 40.4474 105.186 40.4455 105.185C40.4446 105.184 40.4436 105.183 40.4424 105.182C40.4418 105.181 40.4412 105.181 40.4406 105.18C40.4402 105.18 40.4399 105.179 40.4396 105.179C40.4394 105.179 40.4392 105.179 40.4391 105.179C40.4388 105.178 40.4386 105.178 40.6152 105.001ZM37.6152 105.001L37.5662 104.756C36.3059 105.008 35.648 105.265 35.2991 105.474C35.1233 105.58 35.0156 105.679 34.9509 105.77C34.9181 105.816 34.8964 105.859 34.8829 105.9C34.8763 105.92 34.8718 105.938 34.869 105.956C34.8677 105.964 34.8667 105.972 34.8661 105.98C34.8658 105.984 34.8656 105.987 34.8654 105.991C34.8654 105.993 34.8653 105.994 34.8653 105.996C34.8653 105.997 34.8653 105.998 34.8652 105.999C34.8652 105.999 34.8652 106 34.8652 106C34.8652 106.001 34.8652 106.001 35.1152 106.001C35.3652 106.001 35.3652 106.002 35.3652 106.002C35.3652 106.003 35.3652 106.003 35.3652 106.004C35.3652 106.004 35.3652 106.005 35.3652 106.006C35.3652 106.008 35.3651 106.009 35.3651 106.011C35.3649 106.014 35.3648 106.017 35.3645 106.019C35.3641 106.025 35.3634 106.03 35.3627 106.035C35.3611 106.045 35.3591 106.052 35.3573 106.058C35.3536 106.069 35.3514 106.069 35.3577 106.061C35.3711 106.042 35.4197 105.985 35.5564 105.903C35.8325 105.737 36.4246 105.494 37.6642 105.247L37.6152 105.001Z" fill="#929A4F"/>
<path d="M38.0423 106.136C38.0566 106.04 38.1852 106.019 38.2299 106.105L38.7254 107.056C38.7454 107.094 38.7879 107.115 38.8306 107.108L39.8885 106.931C39.9841 106.915 40.0443 107.031 39.9764 107.1L39.2247 107.865C39.1944 107.896 39.1874 107.943 39.2074 107.981L39.7029 108.933C39.7476 109.019 39.6563 109.112 39.5696 109.068L38.6095 108.59C38.5708 108.571 38.524 108.578 38.4936 108.609L37.7419 109.375C37.674 109.444 37.5574 109.386 37.5717 109.29L37.73 108.229C37.7364 108.186 37.7145 108.144 37.6757 108.125L36.7156 107.646C36.6289 107.603 36.6482 107.474 36.7437 107.458L37.8016 107.281C37.8443 107.274 37.8776 107.24 37.884 107.197L38.0423 106.136Z" fill="#929A4F"/>
<g filter="url(#filter0_d_390_1399)">
<path d="M23.5624 58.8964L23.6152 59.002L25.6152 58.502L25.4798 58.0958C25.2874 57.5185 24.6283 57.2454 24.084 57.5176L24.0097 57.5547C23.5157 57.8017 23.3155 58.4024 23.5624 58.8964Z" fill="#252419"/>
<path d="M23.6152 60.0642C23.6152 58.4642 25.2819 58.3976 26.1152 58.5642L26.6152 59.4642L35.6152 76.5645L36.6152 81.0645L33.1152 78.5645L23.6152 60.0642Z" fill="#BFC270"/>
<path d="M26.6152 59.4642L26.1152 58.5642C25.2819 58.3976 23.6152 58.4642 23.6152 60.0642L33.1152 78.5645L36.6152 81.0645L35.6152 76.5645L26.6152 59.4642ZM26.6152 59.4642L28.1152 59.502L30.6152 64.002L30.1152 65.002" stroke="#94975F" stroke-width="0.7"/>
<path d="M36.6152 79.002L34.6152 80.002L37.1152 82.002L36.6152 79.002Z" fill="#201E1A"/>
</g>
<path d="M28.5734 66.1837L19.7471 61.2907L15.2478 69.3949C18.9467 70.1554 26.736 71.3234 28.3022 69.9107C28.7159 69.5376 28.6873 69.2924 28.6035 68.8951C28.5216 68.5069 28.7654 68.1353 28.9077 67.765C29.126 67.197 28.885 66.4189 28.5734 66.1837Z" fill="#FFFBE3"/>
<path d="M19.7471 61.2907L28.5734 66.1837C28.885 66.4189 29.126 67.197 28.9077 67.765C28.7654 68.1353 28.5216 68.5069 28.6035 68.8951C28.6873 69.2924 28.7159 69.5376 28.3022 69.9107C26.736 71.3234 18.9467 70.1554 15.2478 69.3949" stroke="#1C140A" stroke-width="0.5"/>
<path d="M63.2275 67.9363C63.5968 67.609 69.2159 64.6143 71.9793 63.1578L77.7347 70.3237C75.2864 71.3223 69.4474 73.1185 65.6778 72.3148C64.5427 72.0727 63.9666 71.6429 63.7522 71.1551C63.5301 70.6494 63.3163 69.9318 63.1709 69.399C63.01 68.8097 63.0558 68.0884 63.2275 67.9363Z" fill="#FFFBE3"/>
<path d="M71.9793 63.1578C69.2159 64.6143 63.5968 67.609 63.2275 67.9363C63.0558 68.0884 63.01 68.8097 63.1709 69.399C63.3163 69.9318 63.5301 70.6494 63.7522 71.1551C63.9666 71.6429 64.5427 72.0727 65.6778 72.3148C69.4474 73.1185 75.2864 71.3223 77.7347 70.3237" stroke="#1C140A" stroke-width="0.5"/>
<path d="M26.5261 124.357C19.0273 127.572 10.5261 116.357 18.0261 111.857C25.6961 107.255 30.5273 122.642 26.5261 124.357Z" fill="#F5EBC8"/>
<path d="M64.5147 124.031C58.4002 118.629 64.897 106.146 72.174 110.999C79.6159 115.961 67.7773 126.913 64.5147 124.031Z" fill="#F5EBC8"/>
<defs>
<filter id="filter0_d_390_1399" x="21.2656" y="57.4121" width="17.8887" height="30.5898" filterUnits="userSpaceOnUse" color-interpolation-filters="sRGB">
<feFlood flood-opacity="0" result="BackgroundImageFix"/>
<feColorMatrix in="SourceAlpha" type="matrix" values="0 0 0 0 0 0 0 0 0 0 0 0 0 0 0 0 0 0 127 0" result="hardAlpha"/>
<feOffset dy="4"/>
<feGaussianBlur stdDeviation="1"/>
<feComposite in2="hardAlpha" operator="out"/>
<feColorMatrix type="matrix" values="0 0 0 0 0.647059 0 0 0 0 0.682353 0 0 0 0 0.4 0 0 0 0.4 0"/>
<feBlend mode="normal" in2="BackgroundImageFix" result="effect1_dropShadow_390_1399"/>
<feBlend mode="normal" in="SourceGraphic" in2="effect1_dropShadow_390_1399" result="shape"/>
</filter>
</defs>
</svg>
