<svg width="91" height="126" viewBox="0 0 91 126" fill="none" xmlns="http://www.w3.org/2000/svg">
<path d="M16.7941 20.8416C4.96371 30.8762 6.40731 44.1238 8.6079 49.4932C-12.5176 105.476 12.0407 118.548 20.623 119.604C21.9269 119.764 24.5143 120.003 27.8852 120.258C37.3599 120.975 53.0242 121.824 63.7736 121.452C66.4875 121.359 68.8881 121.187 70.7967 120.916C71.071 120.877 71.3352 120.835 71.5887 120.792C95.6918 116.686 91.7375 76.6853 85.25 48.75C89.75 39.25 82.25 24.25 77.75 20.8416C74.75 15.25 71.5491 12.2665 67.72 9.22969C75.114 7.7773 72.8694 2.892 69.6082 1.16829C66.1748 -0.646418 62.1745 1.43961 61.818 6.05358C50.5554 3.02403 36.8238 4.56446 33.1268 5.66476C35.8995 2.62793 31.1899 -0.959212 27.9774 0.647229C24.2804 2.49594 24.9406 9.22974 29.5618 7.24921C24.8086 9.78429 18.6425 17.8047 16.7941 20.8416Z" fill="#FDF7E4" stroke="#CEAE71" stroke-width="0.5"/>
<circle cx="29.3243" cy="31.3848" r="8.49246" transform="rotate(-2.60585 29.3243 31.3848)" stroke="black" stroke-width="0.5"/>
<path d="M37.8642 29.9606C39.866 28.7501 45.7178 26.9169 51.3344 29.3477" stroke="black" stroke-width="0.5"/>
<path d="M20.7322 31.6279L19.252 31.6953" stroke="black" stroke-width="0.5" stroke-linecap="round"/>
<path d="M68.3965 29.4609L70.0247 29.3868" stroke="black" stroke-width="0.5" stroke-linecap="round"/>
<circle cx="59.7364" cy="31.4883" r="8.49246" transform="rotate(-2.60585 59.7364 31.4883)" stroke="black" stroke-width="0.5"/>
<path d="M30.5941 4.50615C30.7485 5.20439 30.7339 6.57975 30.3792 6.64729C30.0245 6.71483 29.2324 5.53376 29.078 4.83552C28.9236 4.13728 29.3451 3.51675 29.6998 3.44921C30.0545 3.38167 30.4397 3.80791 30.5941 4.50615Z" fill="#CEAE71" fill-opacity="0.56"/>
<path d="M66.6556 6.75181C66.0605 7.27944 64.6623 8.05838 64.3428 7.80751C64.0233 7.55664 64.6539 6.23063 65.249 5.703C65.8441 5.17536 66.7689 5.16275 67.0884 5.41362C67.4079 5.66448 67.2508 6.22417 66.6556 6.75181Z" fill="#CEAE71" fill-opacity="0.56"/>
<path d="M42.3652 35.5234L44.945 36.8046L47.5075 35.2522M45.0075 37.9913L45.2996 43.5291M45.2996 43.5291L43.6273 44.4106M45.2996 43.5291L47.0554 44.2298" stroke="#1C140A" stroke-linecap="round"/>
<path d="M31.0324 32.428C31.1318 32.398 31.3197 32.4118 31.5439 32.5715C31.7596 32.7254 31.969 32.9921 32.0807 33.362C32.2758 34.0089 31.8519 34.7069 31.2139 34.8995C31.0415 34.9515 30.8864 34.905 30.7187 34.6805C30.5392 34.4402 30.4175 34.0663 30.4037 33.7155C30.3856 33.2558 30.4759 32.9572 30.5904 32.7703C30.7014 32.5891 30.8541 32.4819 31.0324 32.428ZM58.3843 32.4479C58.5272 32.4278 58.6682 32.4835 58.827 32.7353C58.9888 32.9923 59.0931 33.3529 59.1343 33.6458C59.175 33.9355 59.1646 34.2456 59.0737 34.4825C58.9939 34.6905 58.855 34.8466 58.5661 34.908C58.2744 34.97 58.0067 34.8517 57.7897 34.5824C57.5632 34.3012 57.4545 33.9226 57.487 33.6391C57.5304 33.2614 57.6333 32.9783 57.776 32.7882C57.9084 32.612 58.0947 32.4886 58.3843 32.4479Z" fill="#3C1814" stroke="#100000"/>
<path d="M71.8861 68.252C61.4861 69.052 49.5527 76.5853 44.8861 80.252C22.3861 75.252 9.78111 82.3262 10.3861 84.752C10.8848 86.752 16.8848 111.252 21.8861 111.752C27.0083 112.264 48.8848 106.752 55.8861 108.252C58.3861 105.752 87.1994 97.805 87.3861 95.752C87.8861 90.252 74.3861 68.252 71.8861 68.252Z" fill="#9B9A5B" stroke="#B5B479" stroke-width="0.5"/>
<path d="M71.8861 66.252C61.4861 67.052 49.5527 74.5853 44.8861 78.252C22.3861 73.252 9.78111 80.3262 10.3861 82.752C10.8848 84.752 16.8848 109.252 21.8861 109.752C27.0083 110.264 48.8848 104.752 55.8861 106.252C58.3861 103.752 87.1994 95.805 87.3861 93.752C87.8861 88.252 74.3861 66.252 71.8861 66.252Z" fill="#F3E3BE" stroke="#B5B479" stroke-width="0.5"/>
<path d="M20.3652 105.523C19.1652 104.723 14.5319 88.5233 12.3652 80.5233C19.1652 74.5227 37.1986 76.3569 45.3652 78.0241C50.8652 72.9465 62.0079 68.586 67.8652 66.945C69.3652 66.5248 70.8652 65.9453 72.8652 66.4453C74.8652 66.9453 88.8652 91.5233 86.3652 92.0233C78.3652 93.6232 62.3652 100.023 55.3652 103.023C40.8652 101.023 24.8652 106.023 23.8652 106.523C22.8652 107.023 21.8652 106.523 20.3652 105.523Z" fill="#FDF9E8"/>
<path d="M55.3652 103.252L45.3652 78.252" stroke="#B5B479" stroke-width="0.5"/>
<path d="M53.3652 78.752C56.0319 76.5853 63.2652 72.052 70.8652 71.252" stroke="#B5B479" stroke-width="0.5"/>
<path d="M26.6262 99.7694C29.8442 98.5652 38.1449 96.5725 45.6038 98.2354" stroke="#B5B479" stroke-width="0.5"/>
<path d="M55.25 91.75C57.75 90.25 62.25 87.75 64.75 87.25" stroke="#B5B479" stroke-width="0.5"/>
<path d="M24.8815 91.979C29.1014 91.3915 36.6053 90.585 40.3649 91.2524" stroke="#B5B479" stroke-width="0.5"/>
<path d="M56.3704 94.9916L60.8419 92.7544" stroke="#B5B479" stroke-width="0.5"/>
<path d="M62.2492 92.2508L65.72 90.5091" stroke="#B5B479" stroke-width="0.5"/>
<path d="M76.659 76.985L82.4432 87.6055C82.4432 87.6055 82.6887 88.5521 78.2026 90.7247C73.7164 92.8973 72.525 92.1976 72.525 92.1976L66.7408 81.5771L72.9093 81.9972L76.659 76.985Z" fill="#D7DD94"/>
<path d="M82.4432 87.6055L82.6852 87.5427L82.6775 87.513L82.6628 87.4859L82.4432 87.6055ZM76.659 76.985L76.8786 76.8654C76.8378 76.7907 76.7619 76.7417 76.6769 76.7356C76.592 76.7295 76.5098 76.7671 76.4588 76.8352L76.659 76.985ZM72.9093 81.9972L72.8923 82.2466C72.9769 82.2524 73.0587 82.2148 73.1095 82.1469L72.9093 81.9972ZM66.7408 81.5771L66.7578 81.3277C66.6668 81.3215 66.5796 81.3654 66.5304 81.4422C66.4811 81.519 66.4776 81.6166 66.5213 81.6967L66.7408 81.5771ZM72.525 92.1976L72.3055 92.3172L72.3387 92.3781L72.3984 92.4132L72.525 92.1976ZM82.4432 87.6055L82.6628 87.4859L76.8786 76.8654L76.659 76.985L76.4395 77.1046L82.2237 87.7251L82.4432 87.6055ZM76.659 76.985L76.4588 76.8352L72.7091 81.8474L72.9093 81.9972L73.1095 82.1469L76.8592 77.1348L76.659 76.985ZM72.9093 81.9972L72.9263 81.7478L66.7578 81.3277L66.7408 81.5771L66.7239 81.8266L72.8923 82.2466L72.9093 81.9972ZM66.7408 81.5771L66.5213 81.6967L72.3055 92.3172L72.525 92.1976L72.7446 92.0781L66.9604 81.4576L66.7408 81.5771ZM72.525 92.1976C72.3984 92.4132 72.3988 92.4134 72.3991 92.4136C72.3992 92.4137 72.3995 92.4139 72.3998 92.414C72.4002 92.4143 72.4007 92.4145 72.4012 92.4148C72.4022 92.4154 72.4033 92.416 72.4044 92.4166C72.4067 92.4179 72.4093 92.4193 72.4122 92.4209C72.4181 92.4239 72.4252 92.4275 72.4336 92.4314C72.4504 92.4393 72.4725 92.4487 72.5003 92.4587C72.5559 92.4787 72.634 92.5011 72.7384 92.5193C72.9472 92.5557 73.2605 92.5749 73.7095 92.5243C74.6057 92.4235 76.0533 92.0434 78.3115 90.9497L78.2026 90.7247L78.0936 90.4997C75.8657 91.5786 74.4746 91.9351 73.6535 92.0275C73.2439 92.0736 72.979 92.0537 72.8242 92.0267C72.7468 92.0133 72.6968 91.998 72.6697 91.9883C72.6562 91.9834 72.6482 91.9798 72.6455 91.9785C72.6441 91.9779 72.6439 91.9778 72.645 91.9783C72.6455 91.9786 72.6463 91.979 72.6474 91.9797C72.648 91.98 72.6486 91.9803 72.6493 91.9807C72.6497 91.9809 72.6501 91.9811 72.6504 91.9814C72.6506 91.9815 72.6509 91.9817 72.651 91.9817C72.6513 91.9819 72.6517 91.9821 72.525 92.1976ZM78.2026 90.7247L78.3115 90.9497C80.5641 89.8588 81.6544 89.0641 82.1835 88.5256C82.4492 88.2552 82.582 88.0409 82.6449 87.8769C82.6766 87.7943 82.6906 87.7245 82.6944 87.6674C82.6964 87.639 82.6958 87.6142 82.6938 87.5932C82.6928 87.5828 82.6915 87.5733 82.69 87.5649C82.6893 87.5606 82.6885 87.5567 82.6877 87.553C82.6873 87.5512 82.6869 87.5494 82.6864 87.5477C82.6862 87.5468 82.686 87.546 82.6858 87.5452C82.6857 87.5447 82.6856 87.5441 82.6855 87.5439C82.6854 87.5433 82.6852 87.5427 82.4432 87.6055C82.2012 87.6683 82.2011 87.6677 82.2009 87.6671C82.2009 87.6669 82.2007 87.6663 82.2006 87.6659C82.2005 87.6652 82.2003 87.6644 82.2001 87.6637C82.1997 87.6622 82.1994 87.6608 82.1991 87.6594C82.1985 87.6566 82.198 87.6541 82.1976 87.6517C82.1968 87.647 82.1963 87.6431 82.196 87.6401C82.1954 87.634 82.1957 87.6318 82.1956 87.6335C82.1954 87.6366 82.1935 87.6577 82.1781 87.6978C82.1468 87.7792 82.0606 87.9373 81.8269 88.1751C81.3572 88.6531 80.3272 89.418 78.0936 90.4997L78.2026 90.7247Z" fill="#929A4F"/>
<path d="M76.8694 89.0826C76.8796 89.1789 76.7606 89.232 76.6957 89.1601L75.0476 87.333C75.0186 87.3008 74.9721 87.291 74.9326 87.3087L72.6856 88.3115C72.5972 88.351 72.5099 88.2542 72.5582 88.1703L73.7866 86.0382C73.8082 86.0007 73.8032 85.9535 73.7742 85.9213L72.1261 84.0943C72.0612 84.0223 72.1262 83.9094 72.221 83.9294L74.6283 84.4388C74.6707 84.4478 74.714 84.4285 74.7357 84.3909L75.964 82.2589C76.0124 82.1749 76.1399 82.2019 76.1501 82.2983L76.4095 84.7451C76.4141 84.7882 76.4459 84.8235 76.4883 84.8324L78.8956 85.3418C78.9903 85.3619 79.0041 85.4915 78.9156 85.531L76.6687 86.5338C76.6291 86.5515 76.6054 86.5926 76.61 86.6357L76.8694 89.0826Z" fill="#929A4F"/>
<g filter="url(#filter0_d_390_1399)">
<path d="M23.8124 59.1464L23.8652 59.252L25.8652 58.752L25.7298 58.3458C25.5374 57.7685 24.8783 57.4954 24.334 57.7676L24.2597 57.8047C23.7657 58.0517 23.5655 58.6524 23.8124 59.1464Z" fill="#252419"/>
<path d="M23.8652 60.3142C23.8652 58.7142 25.5319 58.6476 26.3652 58.8142L26.8652 59.7142L35.8652 76.8145L36.8652 81.3145L33.3652 78.8145L23.8652 60.3142Z" fill="#BFC270"/>
<path d="M26.8652 59.7142L26.3652 58.8142C25.5319 58.6476 23.8652 58.7142 23.8652 60.3142L33.3652 78.8145L36.8652 81.3145L35.8652 76.8145L26.8652 59.7142ZM26.8652 59.7142L28.3652 59.752L30.8652 64.252L30.3652 65.252" stroke="#94975F" stroke-width="0.7"/>
<path d="M36.8652 79.252L34.8652 80.252L37.3652 82.252L36.8652 79.252Z" fill="#201E1A"/>
</g>
<path d="M28.8234 66.4337L19.9971 61.5407L15.4978 69.6449C19.1967 70.4054 26.986 71.5734 28.5522 70.1607C28.9659 69.7876 28.9373 69.5424 28.8535 69.1451C28.7716 68.7569 29.0154 68.3853 29.1577 68.015C29.376 67.447 29.135 66.6689 28.8234 66.4337Z" fill="#FFFBE3"/>
<path d="M19.9971 61.5407L28.8234 66.4337C29.135 66.6689 29.376 67.447 29.1577 68.015C29.0154 68.3853 28.7716 68.7569 28.8535 69.1451C28.9373 69.5424 28.9659 69.7876 28.5522 70.1607C26.986 71.5734 19.1967 70.4054 15.4978 69.6449" stroke="#CEAE71" stroke-width="0.5"/>
<path d="M63.4775 68.1863C63.8468 67.859 69.4659 64.8643 72.2293 63.4078L77.9847 70.5737C75.5364 71.5723 69.6974 73.3685 65.9278 72.5648C64.7927 72.3227 64.2166 71.8929 64.0022 71.4051C63.7801 70.8994 63.5663 70.1818 63.4209 69.649C63.26 69.0597 63.3058 68.3384 63.4775 68.1863Z" fill="#FFFBE3"/>
<path d="M72.2293 63.4078C69.4659 64.8643 63.8468 67.859 63.4775 68.1863C63.3058 68.3384 63.26 69.0597 63.4209 69.649C63.5663 70.1818 63.7801 70.8994 64.0022 71.4051C64.2166 71.8929 64.7927 72.3227 65.9278 72.5648C69.6974 73.3685 75.5364 71.5723 77.9847 70.5737" stroke="#CEAE71" stroke-width="0.5"/>
<path d="M26.7761 124.607C19.2773 127.822 10.7761 116.607 18.2761 112.107C25.9461 107.505 30.7773 122.892 26.7761 124.607Z" fill="#F5EBC8"/>
<path d="M64.7647 124.281C58.6502 118.879 65.147 106.396 72.424 111.249C79.8659 116.211 68.0273 127.163 64.7647 124.281Z" fill="#F5EBC8"/>
<defs>
<filter id="filter0_d_390_1399" x="21.5156" y="57.6621" width="17.8887" height="30.5898" filterUnits="userSpaceOnUse" color-interpolation-filters="sRGB">
<feFlood flood-opacity="0" result="BackgroundImageFix"/>
<feColorMatrix in="SourceAlpha" type="matrix" values="0 0 0 0 0 0 0 0 0 0 0 0 0 0 0 0 0 0 127 0" result="hardAlpha"/>
<feOffset dy="4"/>
<feGaussianBlur stdDeviation="1"/>
<feComposite in2="hardAlpha" operator="out"/>
<feColorMatrix type="matrix" values="0 0 0 0 0.647059 0 0 0 0 0.682353 0 0 0 0 0.4 0 0 0 0.4 0"/>
<feBlend mode="normal" in2="BackgroundImageFix" result="effect1_dropShadow_390_1399"/>
<feBlend mode="normal" in="SourceGraphic" in2="effect1_dropShadow_390_1399" result="shape"/>
</filter>
</defs>
</svg>
