<svg width="94" height="127" viewBox="0 0 94 127" fill="none" xmlns="http://www.w3.org/2000/svg">
<path d="M17.0441 21.0916C5.21371 31.1262 6.65731 44.3738 8.8579 49.7432C-12.2676 105.726 12.2907 118.798 20.873 119.854C22.1769 120.014 24.7643 120.253 28.1352 120.508C37.6099 121.225 53.2742 122.074 64.0236 121.702C66.7375 121.609 69.1381 121.437 71.0467 121.166C71.321 121.127 71.5852 121.085 71.8387 121.042C107.488 114.969 89.3994 65.1913 81.3452 33.5029C79.3647 24.7885 71.7991 12.5165 67.97 9.47969C75.364 8.0273 73.1194 3.142 69.8582 1.41829C66.4248 -0.396418 62.4245 1.68961 62.068 6.30358C50.8054 3.27403 37.0738 4.81446 33.3768 5.91476C36.1495 2.87793 31.4399 -0.709212 28.2274 0.897229C24.5304 2.74594 25.1906 9.47974 29.8118 7.49921C25.0586 10.0343 18.8925 18.0547 17.0441 21.0916Z" fill="#FDF7E4" stroke="#CEAE71"/>
<path d="M30.8441 4.75615C30.9985 5.45439 30.9839 6.82975 30.6292 6.89729C30.2745 6.96483 29.4824 5.78376 29.328 5.08552C29.1736 4.38728 29.5951 3.76675 29.9498 3.69921C30.3045 3.63167 30.6897 4.05791 30.8441 4.75615Z" fill="#CEAE71" fill-opacity="0.56"/>
<path d="M66.9056 7.00181C66.3105 7.52944 64.9123 8.30838 64.5928 8.05751C64.2733 7.80664 64.9039 6.48063 65.499 5.953C66.0941 5.42536 67.0189 5.41275 67.3384 5.66362C67.6579 5.91448 67.5008 6.47417 66.9056 7.00181Z" fill="#CEAE71" fill-opacity="0.56"/>
<path d="M42.6152 35.7734L45.195 37.0546L47.7575 35.5022M45.2575 38.2413L45.5496 43.7791M45.5496 43.7791L43.8773 44.6606M45.5496 43.7791L47.3054 44.4798" stroke="#1C140A" stroke-linecap="round"/>
<path d="M33.3359 32.3183C33.4245 32.2916 33.5996 32.3017 33.812 32.453C34.0163 32.5986 34.2159 32.852 34.3224 33.2046C34.5071 33.8164 34.1066 34.4795 33.5009 34.6624C33.3445 34.7096 33.2026 34.6697 33.0442 34.4576C32.874 34.2298 32.7585 33.8737 32.7453 33.539C32.7281 33.0992 32.8134 32.8159 32.9211 32.6399C33.0254 32.4696 33.1685 32.369 33.3359 32.3183ZM59.6652 32.3382C59.7927 32.3203 59.9225 32.367 60.0734 32.6067C60.2273 32.8511 60.3264 33.195 60.3658 33.4755C60.4048 33.7527 60.3947 34.0475 60.3088 34.2715C60.234 34.4665 60.1052 34.6115 59.8343 34.6692C59.5621 34.727 59.3108 34.6178 59.1051 34.3623C58.8898 34.095 58.7868 33.7356 58.8175 33.4682C58.8591 33.1066 58.9574 32.8383 59.0921 32.6588C59.2165 32.4931 59.3911 32.3767 59.6652 32.3382Z" fill="#3C1814" stroke="#100000"/>
<circle cx="31.5904" cy="31.6376" r="7.54008" transform="rotate(-2.61419 31.5904 31.6376)" stroke="black" stroke-width="0.5"/>
<path d="M39.1989 30.3677C40.9824 29.2889 46.1965 27.6546 51.2016 29.8198" stroke="black" stroke-width="0.5"/>
<path d="M23.9342 31.8577L22.6152 31.918" stroke="black" stroke-width="0.5" stroke-linecap="round"/>
<path d="M66.4062 29.918L67.8571 29.8517" stroke="black" stroke-width="0.5" stroke-linecap="round"/>
<circle cx="58.69" cy="31.7235" r="7.54008" transform="rotate(-2.61419 58.69 31.7235)" stroke="black" stroke-width="0.5"/>
<path d="M72.1361 68.502C61.7361 69.302 49.8027 76.8353 45.1361 80.502C22.6361 75.502 10.0311 82.5762 10.6361 85.002C11.1348 87.002 17.1348 111.502 22.1361 112.002C27.2583 112.514 49.1348 107.002 56.1361 108.502C58.6361 106.002 87.4494 98.055 87.6361 96.002C88.1361 90.502 74.6361 68.502 72.1361 68.502Z" fill="#9B9A5B" stroke="#B5B479" stroke-width="0.5"/>
<path d="M72.1361 66.502C61.7361 67.302 49.8027 74.8353 45.1361 78.502C22.6361 73.502 10.0311 80.5762 10.6361 83.002C11.1348 85.002 17.1348 109.502 22.1361 110.002C27.2583 110.514 49.1348 105.002 56.1361 106.502C58.6361 104.002 87.4494 96.055 87.6361 94.002C88.1361 88.502 74.6361 66.502 72.1361 66.502Z" fill="#F3E3BE" stroke="#B5B479" stroke-width="0.5"/>
<path d="M20.6152 105.773C19.4152 104.973 14.7819 88.7733 12.6152 80.7733C19.4152 74.7727 37.4486 76.6069 45.6152 78.2741C51.1152 73.1965 62.2579 68.836 68.1152 67.195C69.6152 66.7748 71.1152 66.1953 73.1152 66.6953C75.1152 67.1953 89.1152 91.7733 86.6152 92.2733C78.6152 93.8732 62.6152 100.273 55.6152 103.273C41.1152 101.273 25.1152 106.273 24.1152 106.773C23.1152 107.273 22.1152 106.773 20.6152 105.773Z" fill="#FDF9E8"/>
<path d="M55.6152 103.502L45.6152 78.502" stroke="#B5B479" stroke-width="0.5"/>
<path d="M53.6152 79.002C56.2819 76.8353 63.5152 72.302 71.1152 71.502" stroke="#B5B479" stroke-width="0.5"/>
<path d="M26.8762 100.019C30.0942 98.8152 38.3949 96.8225 45.8538 98.4854" stroke="#B5B479" stroke-width="0.5"/>
<path d="M55.5 92C58 90.5 62.5 88 65 87.5" stroke="#B5B479" stroke-width="0.5"/>
<path d="M25.1315 92.229C29.3514 91.6415 36.8553 90.835 40.6149 91.5024" stroke="#B5B479" stroke-width="0.5"/>
<path d="M56.6204 95.2416L61.0919 93.0044" stroke="#B5B479" stroke-width="0.5"/>
<path d="M62.4992 92.5008L65.97 90.7591" stroke="#B5B479" stroke-width="0.5"/>
<path d="M76.909 77.235L82.6932 87.8555C82.6932 87.8555 82.9387 88.8021 78.4526 90.9747C73.9664 93.1473 72.775 92.4476 72.775 92.4476L66.9908 81.8271L73.1593 82.2472L76.909 77.235Z" fill="#D7DD94"/>
<path d="M82.6932 87.8555L82.9352 87.7927L82.9275 87.763L82.9128 87.7359L82.6932 87.8555ZM76.909 77.235L77.1286 77.1154C77.0878 77.0407 77.0119 76.9917 76.9269 76.9856C76.842 76.9795 76.7598 77.0171 76.7088 77.0852L76.909 77.235ZM73.1593 82.2472L73.1423 82.4966C73.2269 82.5024 73.3087 82.4648 73.3595 82.3969L73.1593 82.2472ZM66.9908 81.8271L67.0078 81.5777C66.9168 81.5715 66.8296 81.6154 66.7804 81.6922C66.7311 81.769 66.7276 81.8666 66.7713 81.9467L66.9908 81.8271ZM72.775 92.4476L72.5555 92.5672L72.5887 92.6281L72.6484 92.6632L72.775 92.4476ZM82.6932 87.8555L82.9128 87.7359L77.1286 77.1154L76.909 77.235L76.6895 77.3546L82.4737 87.9751L82.6932 87.8555ZM76.909 77.235L76.7088 77.0852L72.9591 82.0974L73.1593 82.2472L73.3595 82.3969L77.1092 77.3848L76.909 77.235ZM73.1593 82.2472L73.1763 81.9978L67.0078 81.5777L66.9908 81.8271L66.9739 82.0766L73.1423 82.4966L73.1593 82.2472ZM66.9908 81.8271L66.7713 81.9467L72.5555 92.5672L72.775 92.4476L72.9946 92.3281L67.2104 81.7076L66.9908 81.8271ZM72.775 92.4476C72.6484 92.6632 72.6488 92.6634 72.6491 92.6636C72.6492 92.6637 72.6495 92.6639 72.6498 92.664C72.6502 92.6643 72.6507 92.6645 72.6512 92.6648C72.6522 92.6654 72.6533 92.666 72.6544 92.6666C72.6567 92.6679 72.6593 92.6693 72.6622 92.6709C72.6681 92.6739 72.6752 92.6775 72.6836 92.6814C72.7004 92.6893 72.7225 92.6987 72.7503 92.7087C72.8059 92.7287 72.884 92.7511 72.9884 92.7693C73.1972 92.8057 73.5105 92.8249 73.9595 92.7743C74.8557 92.6735 76.3033 92.2934 78.5615 91.1997L78.4526 90.9747L78.3436 90.7497C76.1157 91.8286 74.7246 92.1851 73.9035 92.2775C73.4939 92.3236 73.229 92.3037 73.0742 92.2767C72.9968 92.2633 72.9468 92.248 72.9197 92.2383C72.9062 92.2334 72.8982 92.2298 72.8955 92.2285C72.8941 92.2279 72.8939 92.2278 72.895 92.2283C72.8955 92.2286 72.8963 92.229 72.8974 92.2297C72.898 92.23 72.8986 92.2303 72.8993 92.2307C72.8997 92.2309 72.9001 92.2311 72.9004 92.2314C72.9006 92.2315 72.9009 92.2317 72.901 92.2317C72.9013 92.2319 72.9017 92.2321 72.775 92.4476ZM78.4526 90.9747L78.5615 91.1997C80.8141 90.1088 81.9044 89.3141 82.4335 88.7756C82.6992 88.5052 82.832 88.2909 82.8949 88.1269C82.9266 88.0443 82.9406 87.9745 82.9444 87.9174C82.9464 87.889 82.9458 87.8642 82.9438 87.8432C82.9428 87.8328 82.9415 87.8233 82.94 87.8149C82.9393 87.8106 82.9385 87.8067 82.9377 87.803C82.9373 87.8012 82.9369 87.7994 82.9364 87.7977C82.9362 87.7968 82.936 87.796 82.9358 87.7952C82.9357 87.7947 82.9356 87.7941 82.9355 87.7939C82.9354 87.7933 82.9352 87.7927 82.6932 87.8555C82.4512 87.9183 82.4511 87.9177 82.4509 87.9171C82.4509 87.9169 82.4507 87.9163 82.4506 87.9159C82.4505 87.9152 82.4503 87.9144 82.4501 87.9137C82.4497 87.9122 82.4494 87.9108 82.4491 87.9094C82.4485 87.9066 82.448 87.9041 82.4476 87.9017C82.4468 87.897 82.4463 87.8931 82.446 87.8901C82.4454 87.884 82.4457 87.8818 82.4456 87.8835C82.4454 87.8866 82.4435 87.9077 82.4281 87.9478C82.3968 88.0292 82.3106 88.1873 82.0769 88.4251C81.6072 88.9031 80.5772 89.668 78.3436 90.7497L78.4526 90.9747Z" fill="#929A4F"/>
<path d="M77.1194 89.3326C77.1296 89.4289 77.0106 89.482 76.9457 89.4101L75.2976 87.583C75.2686 87.5508 75.2221 87.541 75.1826 87.5587L72.9356 88.5615C72.8472 88.601 72.7599 88.5042 72.8082 88.4203L74.0366 86.2882C74.0582 86.2507 74.0532 86.2035 74.0242 86.1713L72.3761 84.3443C72.3112 84.2723 72.3762 84.1594 72.471 84.1794L74.8783 84.6888C74.9207 84.6978 74.964 84.6785 74.9857 84.6409L76.214 82.5089C76.2624 82.4249 76.3899 82.4519 76.4001 82.5483L76.6595 84.9951C76.6641 85.0382 76.6959 85.0735 76.7383 85.0824L79.1456 85.5918C79.2403 85.6119 79.2541 85.7415 79.1656 85.781L76.9187 86.7838C76.8791 86.8015 76.8554 86.8426 76.86 86.8857L77.1194 89.3326Z" fill="#929A4F"/>
<g filter="url(#filter0_d_390_1399)">
<path d="M24.0624 59.3964L24.1152 59.502L26.1152 59.002L25.9798 58.5958C25.7874 58.0185 25.1283 57.7454 24.584 58.0176L24.5097 58.0547C24.0157 58.3017 23.8155 58.9024 24.0624 59.3964Z" fill="#252419"/>
<path d="M24.1152 60.5642C24.1152 58.9642 25.7819 58.8976 26.6152 59.0642L27.1152 59.9642L36.1152 77.0645L37.1152 81.5645L33.6152 79.0645L24.1152 60.5642Z" fill="#BFC270"/>
<path d="M27.1152 59.9642L26.6152 59.0642C25.7819 58.8976 24.1152 58.9642 24.1152 60.5642L33.6152 79.0645L37.1152 81.5645L36.1152 77.0645L27.1152 59.9642ZM27.1152 59.9642L28.6152 60.002L31.1152 64.502L30.6152 65.502" stroke="#94975F" stroke-width="0.7"/>
<path d="M37.1152 79.502L35.1152 80.502L37.6152 82.502L37.1152 79.502Z" fill="#201E1A"/>
</g>
<path d="M29.0734 66.6837L20.2471 61.7907L15.7478 69.8949C19.4467 70.6554 27.236 71.8234 28.8022 70.4107C29.2159 70.0376 29.1873 69.7924 29.1035 69.3951C29.0216 69.0069 29.2654 68.6353 29.4077 68.265C29.626 67.697 29.385 66.9189 29.0734 66.6837Z" fill="#FFFBE3"/>
<path d="M20.2471 61.7907L29.0734 66.6837C29.385 66.9189 29.626 67.697 29.4077 68.265C29.2654 68.6353 29.0216 69.0069 29.1035 69.3951C29.1873 69.7924 29.2159 70.0376 28.8022 70.4107C27.236 71.8234 19.4467 70.6554 15.7478 69.8949" stroke="#CEAE71" stroke-width="0.5"/>
<path d="M63.7275 68.4363C64.0968 68.109 69.7159 65.1143 72.4793 63.6578L78.2347 70.8237C75.7864 71.8223 69.9474 73.6185 66.1778 72.8148C65.0427 72.5727 64.4666 72.1429 64.2522 71.6551C64.0301 71.1494 63.8163 70.4318 63.6709 69.899C63.51 69.3097 63.5558 68.5884 63.7275 68.4363Z" fill="#FFFBE3"/>
<path d="M72.4793 63.6578C69.7159 65.1143 64.0968 68.109 63.7275 68.4363C63.5558 68.5884 63.51 69.3097 63.6709 69.899C63.8163 70.4318 64.0301 71.1494 64.2522 71.6551C64.4666 72.1429 65.0427 72.5727 66.1778 72.8148C69.9474 73.6185 75.7864 71.8223 78.2347 70.8237" stroke="#CEAE71" stroke-width="0.5"/>
<path d="M27.0261 124.857C19.5273 128.072 11.0261 116.857 18.5261 112.357C26.1961 107.755 31.0273 123.142 27.0261 124.857Z" fill="#F5EBC8"/>
<path d="M65.0147 124.531C58.9002 119.129 65.397 106.646 72.674 111.499C80.1159 116.461 68.2773 127.413 65.0147 124.531Z" fill="#F5EBC8"/>
<defs>
<filter id="filter0_d_390_1399" x="21.7656" y="57.9121" width="17.8887" height="30.5898" filterUnits="userSpaceOnUse" color-interpolation-filters="sRGB">
<feFlood flood-opacity="0" result="BackgroundImageFix"/>
<feColorMatrix in="SourceAlpha" type="matrix" values="0 0 0 0 0 0 0 0 0 0 0 0 0 0 0 0 0 0 127 0" result="hardAlpha"/>
<feOffset dy="4"/>
<feGaussianBlur stdDeviation="1"/>
<feComposite in2="hardAlpha" operator="out"/>
<feColorMatrix type="matrix" values="0 0 0 0 0.647059 0 0 0 0 0.682353 0 0 0 0 0.4 0 0 0 0.4 0"/>
<feBlend mode="normal" in2="BackgroundImageFix" result="effect1_dropShadow_390_1399"/>
<feBlend mode="normal" in="SourceGraphic" in2="effect1_dropShadow_390_1399" result="shape"/>
</filter>
</defs>
</svg>
