<svg width="347" height="510" viewBox="0 0 347 510" fill="none" xmlns="http://www.w3.org/2000/svg">
<ellipse cx="180.924" cy="478.065" rx="135.366" ry="31.3653" fill="#DDE1AC"/>
<path d="M56.6453 223.002C49.3798 205.274 44.6137 161.536 83.6729 128.405C89.7758 118.379 110.134 91.8984 125.827 83.5286C110.569 90.0675 108.39 67.8351 120.596 61.7314C131.202 56.4276 146.752 68.2709 137.597 78.2973C149.803 74.6646 195.14 69.5787 232.324 79.5811C233.501 64.3475 246.709 57.4603 258.044 63.4517C268.812 69.1428 276.223 85.2721 251.81 90.0674C264.452 100.094 289.431 140.611 295.97 169.382C322.562 274.005 382.284 438.351 264.583 458.403C263.746 458.546 262.874 458.682 261.968 458.81C262.114 465.359 265.02 478.892 250.198 479.764C235.377 480.636 238.518 467.413 238.781 460.583C203.291 461.81 151.573 459.005 120.291 456.638C120.582 463.33 119.22 474.583 112.445 476.276C108.957 477.148 105.906 477.148 101.547 476.276C97.1872 475.405 94.919 467.035 96.3146 454.48C67.9791 450.993 -13.1028 407.836 56.6453 223.002Z" fill="#FFFBE3"/>
<path d="M215.879 159.338C219.642 159.509 223.049 161.149 225.517 163.476C227.994 165.811 229.485 168.801 229.485 171.641C229.485 177.271 223.552 182.377 215.396 180.496C210.763 179.428 205.882 175.621 205.882 168.526C205.882 165.639 206.886 163.358 208.607 161.795C210.333 160.227 212.828 159.339 215.879 159.338Z" fill="#FED1C1" stroke="#F7C2AD"/>
<path d="M90.5447 157.731C86.9294 156.674 83.1749 157.121 80.0863 158.523C76.9863 159.931 74.6063 162.276 73.6866 164.962C71.8627 170.29 75.8215 177.042 84.148 177.905C88.8771 178.394 94.7277 176.375 97.0261 169.662C97.9614 166.931 97.75 164.447 96.6281 162.411C95.5031 160.369 93.4312 158.72 90.5447 157.731Z" fill="#FED1C1" stroke="#F7C2AD"/>
<path d="M138.474 141.633L146.756 146.305L155.475 141.633M146.756 150.229V168.538M146.756 168.538L141.089 171.153M146.756 168.538L152.423 171.153" stroke="#1C140A" stroke-linecap="round"/>
<circle cx="104.244" cy="140.84" r="25.4698" transform="rotate(0.40478 104.244 140.84)" stroke="black" stroke-width="0.5"/>
<path d="M129.551 137.972C135.619 134.725 153.094 130.244 169.22 138.253" stroke="black" stroke-width="0.5"/>
<path d="M78.9646 140.226L74.6055 140.195" stroke="black" stroke-width="0.5" stroke-linecap="round"/>
<path d="M219.331 141.217L224.126 141.251" stroke="black" stroke-width="0.5" stroke-linecap="round"/>
<circle cx="193.577" cy="145.831" r="25.4698" transform="rotate(0.40478 193.577 145.831)" stroke="black" stroke-width="0.5"/>
<path d="M103.323 145.511C103.342 145.651 103.404 145.784 103.508 145.883C103.611 145.981 103.746 146.037 103.886 146.037C104.025 146.037 104.16 145.981 104.264 145.883C104.367 145.784 104.429 145.651 104.448 145.511C104.448 145.511 104.448 145.511 104.448 145.511C104.511 145.049 104.588 144.63 104.682 144.197C105.415 140.302 108.133 137.24 111.451 137.398C114.762 137.42 117.656 140.36 118.459 144.207C118.558 144.642 118.638 145.053 118.701 145.511C118.72 145.651 118.782 145.784 118.885 145.883C118.989 145.981 119.124 146.037 119.263 146.037C119.403 146.037 119.537 145.981 119.641 145.883C119.744 145.784 119.806 145.651 119.826 145.511C119.826 145.511 119.826 145.511 119.826 145.511C119.888 145.017 119.926 144.558 119.933 144.059C120.235 139.754 116.797 134.432 111.511 134.398C106.088 134.147 102.771 139.886 103.206 144.069C103.22 144.558 103.261 145.018 103.323 145.511Z" fill="black"/>
<path d="M180.216 145.511C180.235 145.651 180.297 145.784 180.401 145.883C180.504 145.981 180.639 146.037 180.778 146.037C180.918 146.037 181.053 145.981 181.156 145.883C181.26 145.784 181.322 145.651 181.341 145.511C181.341 145.511 181.341 145.511 181.341 145.511C181.404 145.049 181.481 144.63 181.574 144.197C182.307 140.302 185.025 137.24 188.344 137.398C191.655 137.42 194.549 140.36 195.351 144.207C195.451 144.642 195.53 145.053 195.593 145.511C195.612 145.651 195.674 145.784 195.778 145.883C195.881 145.981 196.016 146.037 196.156 146.037C196.295 146.037 196.43 145.981 196.533 145.883C196.637 145.784 196.699 145.651 196.718 145.511C196.718 145.511 196.718 145.511 196.718 145.511C196.78 145.017 196.818 144.558 196.825 144.059C197.128 139.754 193.689 134.432 188.403 134.398C182.98 134.147 179.664 139.886 180.098 144.069C180.113 144.558 180.154 145.018 180.216 145.511Z" fill="black"/>
<path d="M207.68 8.49805C207.961 9.39552 208.617 10.127 209.479 10.5039L215.933 13.3262L209.479 16.1494C208.617 16.5263 207.961 17.2586 207.68 18.1562L205.28 25.8184L202.882 18.1562C202.601 17.2586 201.945 16.5264 201.083 16.1494L194.628 13.3262L201.083 10.5039C201.945 10.127 202.601 9.39548 202.882 8.49805L205.28 0.834961L207.68 8.49805Z" fill="#F0C559" stroke="#E1E1B2" stroke-width="0.5"/>
<path d="M330.865 47.9775C331.158 48.8748 331.827 49.6007 332.697 49.9658L336.356 51.5L332.697 53.0342C331.827 53.3993 331.158 54.1252 330.865 55.0225L329.503 59.1924L328.141 55.0225C327.848 54.1252 327.179 53.3993 326.309 53.0342L322.648 51.5L326.309 49.9658C327.179 49.6007 327.848 48.8748 328.141 47.9775L329.503 43.8066L330.865 47.9775Z" fill="#F0C559" stroke="#E1E1B2" stroke-width="0.5"/>
<path d="M57.8887 72.2383C58.1654 73.1358 58.8173 73.8698 59.6758 74.251L69.1377 78.4521L59.6758 82.6543C58.8174 83.0355 58.1655 83.7695 57.8887 84.667L54.376 96.0566L50.8643 84.667C50.5875 83.7695 49.9356 83.0355 49.0771 82.6543L39.6133 78.4521L49.0771 74.251C49.9356 73.8698 50.5875 73.1358 50.8643 72.2383L54.376 60.8477L57.8887 72.2383Z" fill="#F0C559" stroke="#E1E1B2" stroke-width="0.5"/>
<path d="M94.998 113C95.998 108.5 107.998 96.9976 111.498 94.9979C177.498 84.5979 248.165 100.165 269.498 109.998C273.242 107.502 289.015 106.737 291.963 117.998C302.308 115.332 327.598 113.398 345.998 126.998C342.998 130.665 336.598 139.398 334.998 144.998C326.988 138.998 307.32 126.998 292.732 126.998C292.671 127.408 292.592 127.794 292.498 128.158C300.665 137.771 321.598 158.098 339.998 162.498C336.165 166.998 328.198 176.798 326.998 179.998C315.331 174.802 290.998 158.169 286.998 133.204C283.774 133.522 280.439 131.648 280.498 129.997C194.098 103.997 112.665 107.666 94.998 113Z" fill="#DB5542"/>
<path d="M280.498 129.997C194.098 103.997 112.665 107.666 94.998 113C95.998 108.5 107.998 96.9976 111.498 94.9979C177.498 84.5979 248.165 100.165 269.498 109.998M292.498 128.158C291.607 131.597 289.331 132.974 286.998 133.204C283.774 133.522 280.439 131.648 280.498 129.997C279.498 125.498 272.698 114.398 269.498 109.998M269.498 109.998C273.242 107.502 289.015 106.737 291.963 117.998M292.498 128.158C292.592 127.794 292.671 127.408 292.732 126.998C292.991 125.28 292.951 123.14 292.498 120.498C292.344 119.601 292.165 118.769 291.963 117.998M291.963 117.998C302.308 115.332 327.598 113.398 345.998 126.998C342.998 130.665 336.598 139.398 334.998 144.998C326.988 138.998 307.32 126.998 292.732 126.998M292.498 128.158C300.665 137.771 321.598 158.098 339.998 162.498C336.165 166.998 328.198 176.798 326.998 179.998C315.331 174.802 290.998 158.169 286.998 133.204" stroke="#C9412E" stroke-linecap="round"/>
<path d="M55.6326 217.344L26.2381 188.299C24.6104 187.114 19.7945 187.826 18.7251 191.323C18.6143 191.685 18.3557 191.998 17.989 192.093C15.1237 192.835 13.7958 192.221 12.6031 195.361C9.26664 204.144 35.5164 251.778 42.9984 266.003" stroke="#1C140A" stroke-width="3"/>
<path d="M26.2381 188.299L59.9982 221.501L45.4984 270C38.0164 255.775 9.26664 204.144 12.6031 195.36C13.7958 192.221 15.1237 192.834 17.989 192.093C18.3557 191.998 18.6143 191.684 18.7251 191.322C19.7945 187.826 24.6104 187.114 26.2381 188.299Z" fill="#FFFBE3"/>
<path d="M12.1974 160.412L2 153.588M20.7632 156.206L12.6053 141.941M30.9605 152V140" stroke="#EEC257" stroke-width="4" stroke-linecap="round"/>
<path d="M288.227 212.862C297.646 205.345 316.904 190.121 318.58 189.36C319.714 188.845 324.176 191.525 324.73 194.352C324.837 194.894 325.201 195.407 325.719 195.598C328.296 196.546 329.875 199.645 328.081 206.433C324.019 221.809 308.151 240.044 300.724 247.239" stroke="#1C140A" stroke-width="3"/>
<path d="M318.58 189.36C316.904 190.121 297.646 205.345 288.227 212.862L299.99 247.419C307.416 240.224 324.019 221.809 328.081 206.433C329.875 199.645 328.296 196.546 325.719 195.598C325.201 195.407 324.837 194.894 324.73 194.352C324.176 191.525 319.714 188.845 318.58 189.36Z" fill="#FFFBE3"/>
</svg>
