<svg width="62" height="56" viewBox="0 0 62 56" fill="none" xmlns="http://www.w3.org/2000/svg">
<path d="M60.2832 54.6124H0.783203C7.59233 39.9189 18.9234 42.0556 25.2832 45.7759C25.1798 43.9503 25.0829 41.4239 25.046 38.64C24.5899 37.4159 23.8705 36.2001 22.7832 35.1128C13.2832 31.6113 7.11855 21.1585 11.7832 18.6129C17.2832 15.6113 22.2832 27.1113 22.7832 35.1128C23.8705 36.2001 24.5899 37.4159 25.046 38.64C24.964 32.4458 25.1793 24.9764 26.2832 21.1129C20.7832 13.1113 24.7832 -0.888672 30.7832 0.612625C37.8457 2.37977 33.7832 17.1113 26.2832 21.1129C25.1793 24.9764 24.964 32.4458 25.046 38.64C26.1002 41.4689 25.7485 44.342 25.2832 45.7759C25.9499 43.7215 27.9832 39.1128 30.7832 37.1128C29.7832 30.1113 41.2832 19.1113 45.7832 23.6122C49.5407 27.3705 43.2832 34.1113 30.7832 37.1128C27.9832 39.1128 25.9499 43.7215 25.2832 45.7759C26.0219 46.208 26.6935 46.6615 27.2832 47.1124C43.2832 37.1124 55.9499 47.9457 60.2832 54.6124Z" fill="#E0E5BA"/>
<path d="M25.2832 45.7759C26.0219 46.208 26.6935 46.6615 27.2832 47.1124C43.2832 37.1124 55.9499 47.9457 60.2832 54.6124H0.783203C7.59233 39.9189 18.9234 42.0556 25.2832 45.7759ZM25.2832 45.7759C24.9499 39.8882 24.6832 26.7129 26.2832 21.1129M25.2832 45.7759C25.9499 43.7215 27.9832 39.1128 30.7832 37.1128M25.2832 45.7759C25.9499 43.7215 26.3832 38.7128 22.7832 35.1128M26.2832 21.1129C20.7832 13.1113 24.7832 -0.888672 30.7832 0.612625C37.8457 2.37977 33.7832 17.1113 26.2832 21.1129ZM30.7832 37.1128C29.7832 30.1113 41.2832 19.1113 45.7832 23.6122C49.5407 27.3705 43.2832 34.1113 30.7832 37.1128ZM22.7832 35.1128C13.2832 31.6113 7.11855 21.1585 11.7832 18.6129C17.2832 15.6113 22.2832 27.1113 22.7832 35.1128Z" stroke="#DCE1B1"/>
</svg>
