<svg width="93" height="128" viewBox="0 0 93 128" fill="none" xmlns="http://www.w3.org/2000/svg">
<path d="M8.35789 49.2432C6.15731 43.8738 4.71373 30.6262 16.5441 20.5916C18.3926 17.5547 24.5586 9.53429 29.3118 6.99921C24.6906 8.97974 24.0304 2.24594 27.7274 0.397229C30.9399 -1.20921 35.6495 2.37793 32.8768 5.41476C36.5738 4.31446 50.3055 2.77403 61.5681 5.80358C61.9246 1.18961 65.9248 -0.896418 69.3582 0.918287C72.6194 2.642 74.864 7.5273 67.4701 8.97969C71.2991 12.0165 78.8647 24.2885 80.8453 33.0029C88.8994 64.6913 106.988 114.469 71.3387 120.542C71.0853 120.585 70.8211 120.627 70.5467 120.666C70.5907 122.649 71.471 126.748 66.9818 127.012C62.4926 127.276 63.444 123.271 63.5236 121.202C52.7742 121.574 37.1099 120.725 27.6352 120.008C27.7233 122.034 27.3106 125.443 25.2586 125.956C24.2023 126.22 23.2781 126.22 21.9577 125.956C20.6374 125.692 19.9503 123.157 20.3731 119.354C11.7907 118.298 -12.7676 105.226 8.35789 49.2432Z" fill="#FFFBE3"/>
<path d="M39.3369 24.3633L41.9166 25.6444L44.4791 24.0921M41.9792 26.8311L42.2713 32.3689M42.2713 32.3689L40.5989 33.2504M42.2713 32.3689L44.0271 33.0696" stroke="#1C140A" stroke-linecap="round"/>
<path d="M28.7063 26.0054C28.7944 25.9774 28.9697 25.9851 29.1842 26.1333C29.3906 26.276 29.5937 26.5265 29.7052 26.8776C29.8986 27.4867 29.5075 28.1554 28.9045 28.3469C28.7488 28.3963 28.6064 28.3585 28.4449 28.1487C28.2715 27.9232 28.151 27.5689 28.1331 27.2344C28.1095 26.7949 28.1908 26.5104 28.296 26.3329C28.3979 26.1611 28.5396 26.0584 28.7063 26.0054ZM55.0332 25.651C55.1603 25.6313 55.2908 25.6761 55.4451 25.9137C55.6025 26.1559 55.7064 26.4984 55.7499 26.7782C55.7928 27.0549 55.7869 27.3498 55.7042 27.575C55.6321 27.771 55.5054 27.9178 55.2354 27.9794C54.964 28.0411 54.7112 27.9355 54.5018 27.6829C54.2827 27.4187 54.1747 27.0608 54.2016 26.7929C54.238 26.4308 54.3325 26.1611 54.4646 25.9798C54.5867 25.8123 54.7596 25.6934 55.0332 25.651Z" fill="#3C1814" stroke="#100000"/>
<circle cx="28.9722" cy="24.6708" r="7.54008" transform="rotate(-2.61419 28.9722 24.6708)" stroke="black" stroke-width="0.5"/>
<path d="M36.5797 23.399C38.3633 22.3201 43.5773 20.6858 48.5825 22.8511" stroke="black" stroke-width="0.5"/>
<path d="M21.316 24.889L19.9971 24.9492" stroke="black" stroke-width="0.5" stroke-linecap="round"/>
<path d="M63.7871 22.9492L65.238 22.883" stroke="black" stroke-width="0.5" stroke-linecap="round"/>
<circle cx="56.0709" cy="24.7548" r="7.54008" transform="rotate(-2.61419 56.0709 24.7548)" stroke="black" stroke-width="0.5"/>
</svg>
