<svg width="94" height="128" viewBox="0 0 94 128" fill="none" xmlns="http://www.w3.org/2000/svg">
<path d="M8.60789 49.4932C6.40731 44.1238 4.96373 30.8762 16.7941 20.8416C18.6426 17.8047 24.8086 9.78429 29.5618 7.24921C24.9406 9.22974 24.2804 2.49594 27.9774 0.647229C31.1899 -0.959212 35.8995 2.62793 33.1268 5.66476C36.8238 4.56446 50.5555 3.02403 61.8181 6.05358C62.1746 1.43961 66.1748 -0.646418 69.6082 1.16829C72.8694 2.892 75.114 7.7773 67.7201 9.22969C71.5491 12.2665 79.1147 24.5385 81.0953 33.2529C89.1494 64.9413 107.238 114.719 71.5887 120.792C71.3353 120.835 71.0711 120.877 70.7967 120.916C70.8407 122.899 71.721 126.998 67.2318 127.262C62.7426 127.526 63.694 123.521 63.7736 121.452C53.0242 121.824 37.3599 120.975 27.8852 120.258C27.9733 122.284 27.5606 125.693 25.5086 126.206C24.4523 126.47 23.5281 126.47 22.2077 126.206C20.8874 125.942 20.2003 123.407 20.6231 119.604C12.0407 118.548 -12.5176 105.476 8.60789 49.4932Z" fill="#FFFBE3"/>
<path d="M20.6231 119.604C12.0407 118.548 -12.5176 105.476 8.60789 49.4932C6.40731 44.1238 4.96373 30.8762 16.7941 20.8416C18.6426 17.8047 24.8086 9.78429 29.5618 7.24921C24.9406 9.22974 24.2804 2.49594 27.9774 0.647229C31.1899 -0.959212 35.8995 2.62793 33.1268 5.66476C36.8238 4.56446 50.5555 3.02403 61.8181 6.05358C62.1746 1.43961 66.1748 -0.646418 69.6082 1.16829C72.8694 2.892 75.114 7.7773 67.7201 9.22969C71.5491 12.2665 79.1147 24.5385 81.0953 33.2529C89.1494 64.9413 107.238 114.719 71.5887 120.792C71.3352 120.835 71.0711 120.877 70.7967 120.916M20.6231 119.604C21.9269 119.764 24.5143 120.003 27.8852 120.258M20.6231 119.604C20.2004 123.407 20.8874 125.942 22.2077 126.206C23.5281 126.47 24.4523 126.47 25.5086 126.206C27.5606 125.693 27.9733 122.284 27.8852 120.258M27.8852 120.258C37.3599 120.975 53.0242 121.824 63.7736 121.452M63.7736 121.452C63.694 123.521 62.7426 127.526 67.2318 127.262C71.721 126.998 70.8407 122.899 70.7967 120.916M63.7736 121.452C66.4875 121.359 68.8881 121.187 70.7967 120.916" stroke="#CEAE71" stroke-width="0.5"/>
<path d="M30.5941 4.50615C30.7485 5.20439 30.7339 6.57975 30.3792 6.64729C30.0245 6.71483 29.2324 5.53376 29.078 4.83552C28.9236 4.13728 29.3451 3.51675 29.6998 3.44921C30.0545 3.38167 30.4397 3.80791 30.5941 4.50615Z" fill="#CEAE71" fill-opacity="0.56"/>
<path d="M66.6576 6.75181C66.0624 7.27944 64.6643 8.05838 64.3448 7.80751C64.0253 7.55664 64.6558 6.23063 65.251 5.703C65.8461 5.17536 66.7709 5.16275 67.0904 5.41362C67.4099 5.66448 67.2527 6.22417 66.6576 6.75181Z" fill="#CEAE71" fill-opacity="0.56"/>
<path d="M39.3584 25.4531L41.9054 26.7982L44.5058 25.3102M41.9384 27.9861L42.0923 33.5294M42.0923 33.5294L40.3985 34.369M42.0923 33.5294L43.8301 34.2737" stroke="#1C140A" stroke-linecap="round"/>
<path d="M29.0497 26.3063C29.1579 26.2744 29.3559 26.2915 29.5883 26.4594C29.8123 26.6214 30.0282 26.9004 30.1416 27.2855C30.3407 27.962 29.8942 28.6855 29.2288 28.8817C29.0428 28.9365 28.8768 28.8833 28.7031 28.6475C28.5178 28.3959 28.3952 28.0069 28.3832 27.6431C28.3677 27.1674 28.4619 26.8568 28.583 26.6619C28.7007 26.4727 28.8623 26.3616 29.0497 26.3063ZM57.2239 26.5146C57.3795 26.4939 57.5293 26.5584 57.6927 26.8217C57.8591 27.0899 57.9643 27.4638 58.0048 27.7671C58.045 28.0671 58.0325 28.3893 57.936 28.6359C57.8507 28.8538 57.7024 29.0175 57.3987 29.0799C57.091 29.143 56.8109 29.0148 56.5869 28.7327C56.3534 28.4387 56.243 28.0441 56.2791 27.748C56.3266 27.3581 56.4341 27.0651 56.5845 26.8676C56.7245 26.6836 56.9214 26.5551 57.2239 26.5146Z" fill="#3C1814" stroke="#100000"/>
<circle cx="27.1169" cy="25.2379" r="7.99361" transform="rotate(-2.61419 27.1169 25.2379)" stroke="black" stroke-width="0.5"/>
<path d="M35.1672 23.8918C37.0546 22.7501 42.5722 21.0207 47.8687 23.312" stroke="black" stroke-width="0.5"/>
<path d="M19.0149 25.4695L17.6191 25.5332" stroke="black" stroke-width="0.5" stroke-linecap="round"/>
<path d="M63.959 23.418L65.4943 23.3479" stroke="black" stroke-width="0.5" stroke-linecap="round"/>
<circle cx="55.7927" cy="25.3278" r="7.99361" transform="rotate(-2.61419 55.7927 25.3278)" stroke="black" stroke-width="0.5"/>
</svg>
