<svg width="94" height="129" viewBox="0 0 94 129" fill="none" xmlns="http://www.w3.org/2000/svg">
<path d="M8.85789 49.7432C6.65731 44.3738 5.21373 31.1262 17.0441 21.0916C18.8926 18.0547 25.0586 10.0343 29.8118 7.49921C25.1906 9.47974 24.5304 2.74594 28.2274 0.897229C31.4399 -0.709212 36.1495 2.87793 33.3768 5.91476C37.0738 4.81446 50.8055 3.27403 62.0681 6.30358C62.4246 1.68961 66.4248 -0.396418 69.8582 1.41829C73.1194 3.142 75.364 8.0273 67.9701 9.47969C71.7991 12.5165 79.3647 24.7885 81.3453 33.5029C89.3994 65.1913 107.488 114.969 71.8387 121.042C71.5853 121.085 71.3211 121.127 71.0467 121.166C71.0907 123.149 71.971 127.248 67.4818 127.512C62.9926 127.776 63.944 123.771 64.0236 121.702C53.2742 122.074 37.6099 121.225 28.1352 120.508C28.2233 122.534 27.8106 125.943 25.7586 126.456C24.7023 126.72 23.7781 126.72 22.4577 126.456C21.1374 126.192 20.4503 123.657 20.8731 119.854C12.2907 118.798 -12.2676 105.726 8.85789 49.7432Z" fill="#FFFBE3"/>
<path d="M20.8731 119.854C12.2907 118.798 -12.2676 105.726 8.85789 49.7432C6.65731 44.3738 5.21373 31.1262 17.0441 21.0916C18.8926 18.0547 25.0586 10.0343 29.8118 7.49921C25.1906 9.47974 24.5304 2.74594 28.2274 0.897229C31.4399 -0.709212 36.1495 2.87793 33.3768 5.91476C37.0738 4.81446 50.8055 3.27403 62.0681 6.30358C62.4246 1.68961 66.4248 -0.396418 69.8582 1.41829C73.1194 3.142 75.364 8.0273 67.9701 9.47969C71.7991 12.5165 79.3647 24.7885 81.3453 33.5029C89.3994 65.1913 107.488 114.969 71.8387 121.042C71.5852 121.085 71.3211 121.127 71.0467 121.166M20.8731 119.854C22.1769 120.014 24.7643 120.253 28.1352 120.508M20.8731 119.854C20.4504 123.657 21.1374 126.192 22.4577 126.456C23.7781 126.72 24.7023 126.72 25.7586 126.456C27.8106 125.943 28.2233 122.534 28.1352 120.508M28.1352 120.508C37.6099 121.225 53.2742 122.074 64.0236 121.702M64.0236 121.702C63.944 123.771 62.9926 127.776 67.4818 127.512C71.971 127.248 71.0907 123.149 71.0467 121.166M64.0236 121.702C66.7375 121.609 69.1381 121.437 71.0467 121.166" stroke="#CEAE71"/>
<path d="M30.8441 4.75615C30.9985 5.45439 30.9839 6.82975 30.6292 6.89729C30.2745 6.96483 29.4824 5.78376 29.328 5.08552C29.1736 4.38728 29.5951 3.76675 29.9498 3.69921C30.3045 3.63167 30.6897 4.05791 30.8441 4.75615Z" fill="#CEAE71" fill-opacity="0.56"/>
<path d="M66.9076 7.00181C66.3124 7.52944 64.9143 8.30838 64.5948 8.05751C64.2753 7.80664 64.9058 6.48063 65.501 5.953C66.0961 5.42536 67.0209 5.41275 67.3404 5.66362C67.6599 5.91448 67.5027 6.47417 66.9076 7.00181Z" fill="#CEAE71" fill-opacity="0.56"/>
<path d="M39.6084 25.7031L42.1554 27.0482L44.7558 25.5602M42.1884 28.2361L42.3423 33.7794M42.3423 33.7794L40.6485 34.619M42.3423 33.7794L44.0801 34.5237" stroke="#1C140A" stroke-linecap="round"/>
<path d="M26.5355 25.0426C26.6766 25.0011 26.9144 25.0282 27.1817 25.2214C27.4406 25.4087 27.687 25.7284 27.8162 26.1669C28.0472 26.9506 27.5297 27.7822 26.7653 28.0075C26.53 28.0768 26.324 28.0017 26.1221 27.7277C25.9087 27.4378 25.7701 26.9944 25.7566 26.5815C25.7391 26.0456 25.8455 25.6898 25.9871 25.462C26.1252 25.2399 26.3154 25.1076 26.5355 25.0426ZM57.817 25.2727C58.02 25.2456 58.2044 25.337 58.3915 25.6385C58.5818 25.9451 58.6995 26.3691 58.7452 26.7103C58.7904 27.0484 58.7782 27.4168 58.6663 27.7026C58.5657 27.9594 58.3875 28.1553 58.0304 28.2288C57.6631 28.3042 57.3322 28.149 57.0742 27.8242C56.8069 27.4876 56.6796 27.0354 56.7214 26.6906C56.7749 26.2517 56.8962 25.9155 57.0709 25.6857C57.2355 25.4697 57.467 25.3195 57.817 25.2727Z" fill="#3C1814" stroke="#100000"/>
<circle cx="25.6265" cy="24.762" r="9.04523" transform="rotate(-2.61419 25.6265 24.762)" stroke="black" stroke-width="0.5"/>
<path d="M34.7037 23.2436C36.8318 21.9563 43.0533 20.0063 49.0255 22.5899" stroke="black" stroke-width="0.5"/>
<path d="M16.4908 25.0238L14.917 25.0957" stroke="black" stroke-width="0.5" stroke-linecap="round"/>
<path d="M67.1689 22.709L68.9002 22.6299" stroke="black" stroke-width="0.5" stroke-linecap="round"/>
<circle cx="57.9605" cy="24.8636" r="9.04523" transform="rotate(-2.61419 57.9605 24.8636)" stroke="black" stroke-width="0.5"/>
</svg>
