<svg width="119" height="141" viewBox="0 0 119 141" fill="none" xmlns="http://www.w3.org/2000/svg">
<ellipse cx="70.501" cy="133.002" rx="35.5" ry="8" fill="#E8EBBD"/>
<path d="M33.4409 55.2452C31.2403 49.8757 29.7967 36.6282 41.6271 26.5935C43.4756 23.5567 49.6416 15.5362 54.3949 13.0012C49.7736 14.9817 49.1134 8.2479 52.8104 6.39918C56.0229 4.79274 60.7325 8.37988 57.9598 11.4167C61.6568 10.3164 75.3885 8.77598 86.6511 11.8055C87.0076 7.19156 91.0078 5.10554 94.4412 6.92024C97.7024 8.64395 99.947 13.5293 92.5531 14.9816C96.3821 18.0185 103.948 30.2905 105.928 39.0048C113.982 70.6933 132.071 120.471 96.4217 126.544C96.1683 126.587 95.9041 126.628 95.6297 126.667C95.6737 128.651 96.554 132.75 92.0648 133.014C87.5756 133.278 88.527 129.273 88.6066 127.204C77.8573 127.576 62.1929 126.727 52.7182 126.01C52.8063 128.036 52.3937 131.445 50.3416 131.958C49.2853 132.222 48.3611 132.222 47.0407 131.958C45.7204 131.694 45.0334 129.159 45.4561 125.356C36.8737 124.3 12.3154 111.228 33.4409 55.2452Z" fill="#FFFBE3"/>
<path d="M45.4561 125.356C36.8737 124.3 12.3154 111.228 33.4409 55.2452C31.2403 49.8757 29.7967 36.6282 41.6271 26.5935C43.4756 23.5567 49.6416 15.5362 54.3949 13.0012C49.7736 14.9817 49.1134 8.2479 52.8104 6.39918C56.0229 4.79274 60.7325 8.37988 57.9598 11.4167C61.6568 10.3164 75.3885 8.77598 86.6511 11.8055C87.0076 7.19156 91.0078 5.10554 94.4412 6.92024C97.7024 8.64395 99.947 13.5293 92.5531 14.9816C96.3821 18.0185 103.948 30.2905 105.928 39.0048C113.982 70.6933 132.071 120.471 96.4217 126.544C96.1683 126.587 95.9041 126.628 95.6297 126.667M45.4561 125.356C46.7599 125.516 49.3474 125.755 52.7182 126.01M45.4561 125.356C45.0334 129.159 45.7204 131.694 47.0407 131.958C48.3611 132.222 49.2853 132.222 50.3416 131.958C52.3937 131.445 52.8063 128.036 52.7182 126.01M52.7182 126.01C62.1929 126.727 77.8572 127.576 88.6066 127.204M88.6066 127.204C88.527 129.273 87.5756 133.278 92.0648 133.014C96.554 132.75 95.6737 128.651 95.6297 126.667M88.6066 127.204C91.3205 127.111 93.7211 126.939 95.6297 126.667" stroke="#CEAE71"/>
<path d="M55.5001 12.0017C54.0012 12.0032 52.1053 9.39585 53.0001 8.50174C53.9999 7.50263 56.001 11.0019 55.5001 12.0017Z" fill="#F5E8C8"/>
<path d="M91.0012 13.0033C90.001 12.5019 90.8022 9.10463 92.0012 9.50329C93.501 10.002 91.5 13.2538 91.0012 13.0033Z" fill="#F5E8C8"/>
<path d="M64.4199 30.3652L66.9996 31.6464L69.5622 30.094M67.0622 32.8331L67.3543 38.3709M67.3543 38.3709L65.6819 39.2524M67.3543 38.3709L69.1101 39.0716" stroke="#1C140A" stroke-linecap="round"/>
<path d="M52.7227 29.8163C52.8112 29.7896 52.9863 29.7998 53.1988 29.9511C53.403 30.0966 53.6026 30.35 53.7091 30.7026C53.8938 31.3145 53.4933 31.9775 52.8876 32.1604C52.7313 32.2076 52.5893 32.1677 52.4309 31.9557C52.2607 31.7278 52.1452 31.3718 52.1321 31.037C52.1148 30.5973 52.2001 30.314 52.3078 30.138C52.4121 29.9676 52.5552 29.867 52.7227 29.8163ZM79.052 29.8362C79.1794 29.8183 79.3092 29.865 79.4601 30.1047C79.614 30.3491 79.7131 30.6931 79.7525 30.9735C79.7915 31.2508 79.7814 31.5456 79.6955 31.7695C79.6207 31.9645 79.4919 32.1095 79.221 32.1672C78.9488 32.2251 78.6975 32.1159 78.4918 31.8604C78.2765 31.5931 78.1735 31.2337 78.2042 30.9662C78.2458 30.6046 78.3441 30.3363 78.4788 30.1569C78.6032 29.9912 78.7778 29.8747 79.052 29.8362Z" fill="#3C1814" stroke="#100000"/>
<circle cx="51.6802" cy="29.7752" r="8.15147" transform="rotate(-2.61419 51.6802 29.7752)" stroke="black" stroke-width="0.5"/>
<path d="M59.8862 28.4029C61.8097 27.2393 67.433 25.4768 72.831 27.812" stroke="black" stroke-width="0.5"/>
<path d="M43.4235 30.0093L42.001 30.0742" stroke="black" stroke-width="0.5" stroke-linecap="round"/>
<path d="M89.2285 27.918L90.7933 27.8465" stroke="black" stroke-width="0.5" stroke-linecap="round"/>
<circle cx="80.9068" cy="29.867" r="8.15147" transform="rotate(-2.61419 80.9068 29.867)" stroke="black" stroke-width="0.5"/>
<path d="M25.1432 55.9095L33.9024 60.9217L29.3037 68.9699C26.7361 66.2008 21.7 60.1447 22.0964 58.0731C22.2011 57.5259 22.4256 57.4233 22.8088 57.289C23.1832 57.1579 23.3747 56.7568 23.6176 56.4431C23.9902 55.9621 24.7805 55.7649 25.1432 55.9095Z" fill="#FFFBE3"/>
<path d="M33.9024 60.9217L25.1432 55.9095C24.7805 55.7649 23.9902 55.9621 23.6176 56.4431C23.3747 56.7568 23.1832 57.1579 22.8088 57.289C22.4256 57.4233 22.2011 57.5259 22.0964 58.0731C21.7 60.1447 26.7361 66.2008 29.3037 68.9699" stroke="#CEAE71"/>
<path d="M85.1962 62.9363C85.5656 62.609 91.1846 59.6143 93.948 58.1578L99.7034 65.3237C97.2551 66.3223 91.4161 68.1185 87.6465 67.3148C86.5115 67.0727 85.9353 66.6429 85.721 66.1551C85.4988 65.6494 85.285 64.9318 85.1396 64.399C84.9788 63.8097 85.0246 63.0884 85.1962 62.9363Z" fill="#FFFBE3"/>
<path d="M93.948 58.1578C91.1846 59.6143 85.5656 62.609 85.1962 62.9363C85.0246 63.0884 84.9788 63.8097 85.1396 64.399C85.285 64.9318 85.4988 65.6494 85.721 66.1551C85.9353 66.6429 86.5115 67.0727 87.6465 67.3148C91.4161 68.1185 97.2551 66.3223 99.7034 65.3237" stroke="#CEAE71"/>
<path d="M20.566 59.2014C22.2143 57.0688 25.2596 58.8648 23.653 61.4486C26.278 63.5048 27.4304 68.5229 21.3989 76.8524C21.9421 78.1581 22.2831 81.0031 19.3018 81.9369L12.9244 77.7291C12.1272 78.972 10.4785 81.3271 8.41234 80.0422C6.34615 78.7573 7.69045 76.1099 8.85198 75.0421L3.99607 71.8382C2.61896 70.3688 2.32773 67.255 6.55534 66.9443C9.0415 63.102 15.3242 56.1741 20.566 59.2014Z" fill="#DDE1AC"/>
<path d="M8.85198 75.0421L3.99607 71.8382C2.61896 70.3688 2.32773 67.255 6.55534 66.9443C9.0415 63.102 15.3242 56.1741 20.566 59.2014C22.2143 57.0688 25.2596 58.8648 23.653 61.4486C26.278 63.5048 27.4304 68.5229 21.3989 76.8524C21.9421 78.1581 22.2831 81.0031 19.3018 81.9369L12.9244 77.7291M8.85198 75.0421C7.69045 76.1099 6.34615 78.7573 8.41234 80.0422C10.4785 81.3271 12.1272 78.972 12.9244 77.7291M8.85198 75.0421L12.9244 77.7291" stroke="black" stroke-width="0.5"/>
<path d="M26.0986 10.9226C27.9096 12.1878 30.2938 15.657 29.6612 16.5625C29.0286 17.468 24.8054 16.4524 22.9944 15.1872C21.1835 13.922 20.795 11.614 21.4276 10.7085C22.0602 9.803 24.2877 9.65741 26.0986 10.9226Z" fill="#DDE1AC"/>
<path d="M35.2073 6.67613C35.8012 9.36164 35.7449 14.6515 34.3806 14.9112C33.0163 15.171 29.9701 10.6284 29.3762 7.94293C28.7822 5.25742 30.4033 2.87076 31.7676 2.611C33.1319 2.35124 34.6134 3.99062 35.2073 6.67613Z" fill="#DDE1AC"/>
<path d="M24.1593 20.6083C26.6569 20.0238 30.8185 20.4253 30.5984 21.5042C30.3783 22.5832 25.4905 25.2024 22.9928 25.7868C20.4951 26.3713 18.9732 25.1744 19.1933 24.0955C19.4133 23.0165 21.6616 21.1927 24.1593 20.6083Z" fill="#DDE1AC"/>
</svg>
