<svg width="118" height="141" viewBox="0 0 118 141" fill="none" xmlns="http://www.w3.org/2000/svg">
<ellipse cx="70.502" cy="133.002" rx="35.5" ry="8" fill="#E8EBBD"/>
<path d="M33.4419 55.2452C31.2413 49.8757 29.7977 36.6282 41.6281 26.5935C43.4766 23.5567 49.6426 15.5362 54.3958 13.0012C49.7746 14.9817 49.1144 8.2479 52.8114 6.39918C56.0239 4.79274 60.7335 8.37988 57.9608 11.4167C61.6578 10.3164 75.3894 8.77598 86.6521 11.8055C87.0086 7.19156 91.0088 5.10554 94.4422 6.92024C97.7034 8.64395 99.948 13.5293 92.554 14.9816C96.3831 18.0185 103.949 30.2905 105.929 39.0048C113.983 70.6933 132.072 120.471 96.4227 126.544C96.1692 126.587 95.905 126.628 95.6307 126.667C95.6747 128.651 96.5549 132.75 92.0657 133.014C87.5765 133.278 88.528 129.273 88.6076 127.204C77.8582 127.576 62.1939 126.727 52.7192 126.01C52.8072 128.036 52.3946 131.445 50.3426 131.958C49.2863 132.222 48.362 132.222 47.0417 131.958C45.7213 131.694 45.0343 129.159 45.457 125.356C36.8747 124.3 12.3164 111.228 33.4419 55.2452Z" fill="#FFFBE3"/>
<path d="M55.501 12.0017C54.0021 12.0032 52.1063 9.39585 53.001 8.50174C54.0009 7.50263 56.002 11.0019 55.501 12.0017Z" fill="#F5E8C8"/>
<path d="M91.0022 13.0033C90.002 12.5019 90.8032 9.10463 92.0022 9.50329C93.502 10.002 91.501 13.2538 91.0022 13.0033Z" fill="#F5E8C8"/>
<path d="M64.4209 30.3652L67.0006 31.6464L69.5631 30.094M67.0632 32.8331L67.3553 38.3709M67.3553 38.3709L65.6829 39.2524M67.3553 38.3709L69.1111 39.0716" stroke="#1C140A" stroke-linecap="round"/>
<path d="M54.6455 30.1581C54.7341 30.1314 54.9092 30.1416 55.1216 30.2928C55.3259 30.4384 55.5255 30.6918 55.6319 31.0444C55.8167 31.6563 55.4161 32.3193 54.8104 32.5022C54.6541 32.5494 54.5122 32.5095 54.3538 32.2975C54.1836 32.0696 54.0681 31.7136 54.0549 31.3788C54.0376 30.9391 54.1229 30.6558 54.2307 30.4798C54.335 30.3094 54.4781 30.2088 54.6455 30.1581ZM80.9748 30.178C81.1022 30.1601 81.232 30.2068 81.383 30.4465C81.5369 30.6909 81.636 31.0349 81.6754 31.3153C81.7144 31.5926 81.7043 31.8874 81.6184 32.1113C81.5435 32.3063 81.4148 32.4513 81.1439 32.509C80.8717 32.5669 80.6204 32.4577 80.4146 32.2022C80.1993 31.9349 80.0964 31.5755 80.1271 31.308C80.1686 30.9464 80.2669 30.6781 80.4017 30.4987C80.5261 30.333 80.7007 30.2165 80.9748 30.178Z" fill="#3C1814" stroke="#100000"/>
<circle cx="54.0562" cy="30.6728" r="7.54008" transform="rotate(-2.61419 54.0562 30.6728)" stroke="black" stroke-width="0.5"/>
<path d="M61.6647 29.4009C63.4482 28.3221 68.6623 26.6878 73.6674 28.8531" stroke="black" stroke-width="0.5"/>
<path d="M46.4 30.891L45.0811 30.9512" stroke="black" stroke-width="0.5" stroke-linecap="round"/>
<path d="M88.8721 28.9512L90.3229 28.8849" stroke="black" stroke-width="0.5" stroke-linecap="round"/>
<circle cx="81.1558" cy="30.7587" r="7.54008" transform="rotate(-2.61419 81.1558 30.7587)" stroke="black" stroke-width="0.5"/>
<path d="M25.1442 55.9114L33.9033 60.9237L29.3047 68.9718C26.7371 66.2027 21.701 60.1467 22.0974 58.075C22.2021 57.5278 22.4266 57.4252 22.8098 57.291C23.1842 57.1598 23.3756 56.7587 23.6186 56.4451C23.9912 55.964 24.7815 55.7668 25.1442 55.9114Z" fill="#FFFBE3"/>
<path d="M33.9033 60.9237L25.1442 55.9114C24.7815 55.7668 23.9912 55.964 23.6186 56.4451C23.3756 56.7587 23.1842 57.1598 22.8098 57.291C22.4266 57.4252 22.2021 57.5278 22.0974 58.075C21.701 60.1467 26.7371 66.2027 29.3047 68.9718" stroke="#1C140A" stroke-width="0.5"/>
<path d="M85.1972 62.9363C85.5665 62.609 91.1856 59.6143 93.949 58.1578L99.7044 65.3237C97.2561 66.3223 91.4171 68.1185 87.6475 67.3148C86.5125 67.0727 85.9363 66.6429 85.722 66.1551C85.4998 65.6494 85.286 64.9318 85.1406 64.399C84.9798 63.8097 85.0256 63.0884 85.1972 62.9363Z" fill="#FFFBE3"/>
<path d="M93.949 58.1578C91.1856 59.6143 85.5665 62.609 85.1972 62.9363C85.0256 63.0884 84.9798 63.8097 85.1406 64.399C85.286 64.9318 85.4998 65.6494 85.722 66.1551C85.9363 66.6429 86.5125 67.0727 87.6475 67.3148C91.4171 68.1185 97.2561 66.3223 99.7044 65.3237" stroke="#1C140A" stroke-width="0.5"/>
<path d="M20.5669 59.2014C22.2153 57.0688 25.2605 58.8648 23.654 61.4486C26.279 63.5048 27.4314 68.5229 21.3999 76.8524C21.943 78.1581 22.2841 81.0031 19.3028 81.9369L12.9254 77.7291C12.1282 78.972 10.4795 81.3271 8.41332 80.0422C6.34713 78.7573 7.69142 76.1099 8.85296 75.0421L3.99704 71.8382C2.61993 70.3688 2.3287 67.255 6.55632 66.9443C9.04247 63.102 15.3252 56.1741 20.5669 59.2014Z" fill="#DDE1AC"/>
<path d="M8.85296 75.0421L3.99704 71.8382C2.61993 70.3688 2.3287 67.255 6.55632 66.9443C9.04247 63.102 15.3252 56.1741 20.5669 59.2014C22.2153 57.0688 25.2605 58.8648 23.654 61.4486C26.279 63.5048 27.4314 68.5229 21.3999 76.8524C21.943 78.1581 22.2841 81.0031 19.3028 81.9369L12.9254 77.7291M8.85296 75.0421C7.69142 76.1099 6.34713 78.7573 8.41332 80.0422C10.4795 81.3271 12.1282 78.972 12.9254 77.7291M8.85296 75.0421L12.9254 77.7291" stroke="black" stroke-width="0.5"/>
<path d="M26.0996 10.9226C27.9106 12.1878 30.2947 15.657 29.6621 16.5625C29.0295 17.468 24.8064 16.4524 22.9954 15.1872C21.1845 13.922 20.796 11.614 21.4286 10.7085C22.0612 9.803 24.2887 9.65741 26.0996 10.9226Z" fill="#DDE1AC"/>
<path d="M35.2083 6.67613C35.8022 9.36164 35.7459 14.6515 34.3816 14.9112C33.0173 15.171 29.9711 10.6284 29.3771 7.94293C28.7832 5.25742 30.4043 2.87076 31.7686 2.611C33.1329 2.35124 34.6143 3.99062 35.2083 6.67613Z" fill="#DDE1AC"/>
<path d="M24.1602 20.6083C26.6579 20.0238 30.8195 20.4253 30.5994 21.5042C30.3793 22.5832 25.4915 25.2024 22.9938 25.7868C20.4961 26.3713 18.9741 25.1744 19.1942 24.0955C19.4143 23.0165 21.6625 21.1927 24.1602 20.6083Z" fill="#DDE1AC"/>
</svg>
