<svg width="32" height="32" viewBox="0 0 32 32" fill="none" xmlns="http://www.w3.org/2000/svg">
<path d="M7.16082 14.061L12.2847 17.1345L16.3804 19.5913C17.0133 19.971 17.8038 19.9712 18.437 19.5919L24.4038 16.0176L27.1854 14.3513C28.4823 13.5744 28.4816 11.695 27.1841 10.9191L18.4357 5.68756C17.8032 5.30932 17.0139 5.30958 16.3816 5.68826L7.1618 11.2102C6.08494 11.8551 6.08441 13.4153 7.16082 14.061ZM24.4038 16.0176L24.4038 22.0106C22.2238 24.9834 16.437 29.1453 10.7293 22.0106L10.7293 17.8487M7.16082 14.061L7.16082 19.7651M7.16082 19.7651C6.36809 21.2032 5.25826 24.0793 7.16082 24.0793C9.06338 24.0793 7.95356 21.2032 7.16082 19.7651Z" stroke="#44423D" stroke-width="1.5"/>
</svg>
