<svg width="38" height="58" viewBox="0 0 38 58" fill="none" xmlns="http://www.w3.org/2000/svg">
<path d="M10.5202 7.89319L6.42714 0.235352L0.353516 4.58639C2.5541 6.79092 7.35139 11.0956 8.93581 10.6779C9.30711 10.58 9.40647 10.4088 9.48918 10.1298C9.60727 9.73149 10.0188 9.47404 10.2643 9.13884C10.5371 8.76639 10.6275 8.17588 10.5202 7.89319Z" fill="#FFFBE3"/>
<path d="M25.0441 7.89319C25.2554 7.47549 29.0052 2.96201 30.8537 0.757477L37.4554 5.63064C35.739 7.31305 31.4874 10.7823 28.213 11.2C27.2531 11.3224 26.6748 11.1161 26.3631 10.7485C26.0059 10.3273 25.6043 9.67002 25.3452 9.18229C25.0864 8.69531 24.9515 8.07641 25.0441 7.89319Z" fill="#FFFBE3"/>
<path d="M6.42714 0.235352L10.5202 7.89319C10.6275 8.17588 10.5371 8.76639 10.2643 9.13885C10.0188 9.47404 9.60727 9.73149 9.48918 10.1298C9.40647 10.4088 9.30711 10.58 8.93581 10.6779C7.35139 11.0956 2.5541 6.79092 0.353516 4.58639M30.8537 0.757477C29.0052 2.96201 25.2554 7.47549 25.0441 7.89319C24.9515 8.07641 25.0864 8.69531 25.3452 9.18229C25.6043 9.67002 26.0059 10.3273 26.3631 10.7485C26.6748 11.1161 27.2531 11.3224 28.213 11.2C31.4874 10.7823 35.739 7.31305 37.4554 5.63064" stroke="#CEAE71"/>
<path d="M26.3535 11.2354L4.35352 56.7354" stroke="black" stroke-width="2" stroke-linecap="round"/>
</svg>
