<svg width="69" height="38" viewBox="0 0 69 38" fill="none" xmlns="http://www.w3.org/2000/svg">
<g filter="url(#filter0_d_379_990)">
<path d="M32.792 13.9212C32.2734 12.7313 33.0081 11.3702 34.2875 11.1508L56.4167 7.35663C57.324 7.20107 58.2203 7.68488 58.5881 8.52873L64.3489 21.7453C64.8675 22.9352 64.1328 24.2963 62.8534 24.5157L40.7242 28.3099C39.8169 28.4654 38.9206 27.9816 38.5528 27.1378L32.792 13.9212Z" fill="#9DA362"/>
<path d="M32.5703 12.9678L54.6995 9.17365C55.3799 9.05702 56.0516 9.41999 56.3275 10.0528L62.0891 23.2692C62.4781 24.1616 61.9266 25.1826 60.9671 25.3471L38.8379 29.1413C38.1575 29.2579 37.4857 28.8949 37.2099 28.2622L31.4482 15.0457C31.0593 14.1533 31.6107 13.1324 32.5703 12.9678Z" fill="#FEFAE8" stroke="#FAECC2"/>
<path d="M37.1101 10.9408C36.9814 10.1903 36.4403 9.26335 35.3305 9.45284C32.9979 9.85107 33.8456 14.786 36.1381 14.1527" stroke="#8B9243" stroke-width="0.7" stroke-linecap="round"/>
<path d="M41.0124 10.2787C40.8838 9.52822 40.3426 8.60125 39.2328 8.79073C36.9003 9.18896 37.748 14.1239 40.0405 13.4906" stroke="#8B9243" stroke-width="0.7" stroke-linecap="round"/>
<path d="M44.9548 9.60287C44.8262 8.85244 44.285 7.92546 43.1752 8.11494C40.8427 8.51318 41.6903 13.4481 43.9828 12.8148" stroke="#8B9243" stroke-width="0.7" stroke-linecap="round"/>
<path d="M48.8972 8.92709C48.7685 8.17666 48.2274 7.24968 47.1176 7.43916C44.7851 7.8374 45.6327 12.7723 47.9252 12.139" stroke="#8B9243" stroke-width="0.7" stroke-linecap="round"/>
<path d="M52.8396 8.25131C52.7109 7.50087 52.1698 6.5739 51.06 6.76338C48.7274 7.16162 49.5751 12.0965 51.8676 11.4632" stroke="#8B9243" stroke-width="0.7" stroke-linecap="round"/>
<path d="M36.2363 16.9043L40.6716 16.1438M42.15 15.8904L44.1213 15.5524M46.0925 15.2144L50.035 14.5384" stroke="#E5E6B9" stroke-linecap="round"/>
</g>
<g filter="url(#filter1_d_379_990)">
<path d="M10.4472 1.89443L10.5 2L12.5 1.5L12.3646 1.09384C12.1722 0.51652 11.513 0.24349 10.9687 0.515641L10.8944 0.552786C10.4004 0.799776 10.2002 1.40045 10.4472 1.89443Z" fill="#252419"/>
<path d="M10.5 3.06228C10.5 1.46228 12.1667 1.39561 13 1.56228L13.5 2.46229L22.5 19.5625L23.5 24.0625L20 21.5625L10.5 3.06228Z" fill="#BFC270"/>
<path d="M13.5 2.46229L13 1.56228C12.1667 1.39561 10.5 1.46228 10.5 3.06228L20 21.5625L23.5 24.0625L22.5 19.5625L13.5 2.46229ZM13.5 2.46229L15 2.5L17.5 7L17 8" stroke="#94975F" stroke-width="0.7"/>
<path d="M23.5 22L21.5 23L24 25L23.5 22Z" fill="#201E1A"/>
</g>
<g filter="url(#filter2_d_379_990)">
<path d="M16.942 8.10119L7.64006 4.18736L4.0398 12.7289C7.7991 13.0867 15.6689 13.4089 17.0739 11.8357C17.445 11.4202 17.3901 11.1795 17.264 10.7936C17.1408 10.4165 17.3432 10.0208 17.4448 9.63734C17.6006 9.04913 17.2772 8.30149 16.942 8.10119Z" fill="#FFFBE3"/>
<path d="M7.64007 4.18736L16.942 8.1012C17.2772 8.30149 17.6006 9.04913 17.4448 9.63734C17.3432 10.0208 17.1408 10.4165 17.264 10.7936C17.3901 11.1795 17.445 11.4202 17.0739 11.8357C15.6689 13.4089 7.7991 13.0867 4.0398 12.7289" stroke="#CEAE71"/>
</g>
<path d="M52.1113 9.93431C52.4806 9.60703 58.0997 6.61232 60.8631 5.15588L66.6184 12.3217C64.1701 13.3203 58.3311 15.1166 54.5616 14.3128C53.4265 14.0708 52.8503 13.6409 52.636 13.1531C52.4139 12.6475 52.2001 11.9299 52.0547 11.3971C51.8938 10.8078 51.9396 10.0864 52.1113 9.93431Z" fill="#FFFBE3"/>
<path d="M60.8631 5.15588C58.0997 6.61232 52.4806 9.60703 52.1113 9.93431C51.9396 10.0864 51.8938 10.8078 52.0547 11.3971C52.2001 11.9299 52.4139 12.6475 52.636 13.1531C52.8503 13.6409 53.4265 14.0708 54.5616 14.3128C58.3311 15.1166 64.1701 13.3203 66.6184 12.3217" stroke="#CEAE71"/>
<defs>
<filter id="filter0_d_379_990" x="26.8223" y="6.38867" width="41.6943" height="31.2734" filterUnits="userSpaceOnUse" color-interpolation-filters="sRGB">
<feFlood flood-opacity="0" result="BackgroundImageFix"/>
<feColorMatrix in="SourceAlpha" type="matrix" values="0 0 0 0 0 0 0 0 0 0 0 0 0 0 0 0 0 0 127 0" result="hardAlpha"/>
<feOffset dy="4"/>
<feGaussianBlur stdDeviation="2"/>
<feComposite in2="hardAlpha" operator="out"/>
<feColorMatrix type="matrix" values="0 0 0 0 0.580392 0 0 0 0 0.592157 0 0 0 0 0.372549 0 0 0 0.25 0"/>
<feBlend mode="normal" in2="BackgroundImageFix" result="effect1_dropShadow_379_990"/>
<feBlend mode="normal" in="SourceGraphic" in2="effect1_dropShadow_379_990" result="shape"/>
</filter>
<filter id="filter1_d_379_990" x="8.15039" y="0.410156" width="17.8896" height="30.5898" filterUnits="userSpaceOnUse" color-interpolation-filters="sRGB">
<feFlood flood-opacity="0" result="BackgroundImageFix"/>
<feColorMatrix in="SourceAlpha" type="matrix" values="0 0 0 0 0 0 0 0 0 0 0 0 0 0 0 0 0 0 127 0" result="hardAlpha"/>
<feOffset dy="4"/>
<feGaussianBlur stdDeviation="1"/>
<feComposite in2="hardAlpha" operator="out"/>
<feColorMatrix type="matrix" values="0 0 0 0 0.647059 0 0 0 0 0.682353 0 0 0 0 0.4 0 0 0 0.4 0"/>
<feBlend mode="normal" in2="BackgroundImageFix" result="effect1_dropShadow_379_990"/>
<feBlend mode="normal" in="SourceGraphic" in2="effect1_dropShadow_379_990" result="shape"/>
</filter>
<filter id="filter2_d_379_990" x="1.99219" y="3.72656" width="17.9932" height="15.7969" filterUnits="userSpaceOnUse" color-interpolation-filters="sRGB">
<feFlood flood-opacity="0" result="BackgroundImageFix"/>
<feColorMatrix in="SourceAlpha" type="matrix" values="0 0 0 0 0 0 0 0 0 0 0 0 0 0 0 0 0 0 127 0" result="hardAlpha"/>
<feOffset dy="4"/>
<feGaussianBlur stdDeviation="1"/>
<feComposite in2="hardAlpha" operator="out"/>
<feColorMatrix type="matrix" values="0 0 0 0 0.615686 0 0 0 0 0.639216 0 0 0 0 0.384314 0 0 0 0.2 0"/>
<feBlend mode="normal" in2="BackgroundImageFix" result="effect1_dropShadow_379_990"/>
<feBlend mode="normal" in="SourceGraphic" in2="effect1_dropShadow_379_990" result="shape"/>
</filter>
</defs>
</svg>
