<svg width="94" height="137" viewBox="0 0 94 137" fill="none" xmlns="http://www.w3.org/2000/svg">
<ellipse cx="46.5" cy="127.001" rx="41" ry="9.5" fill="#DDE1AC"/>
<path d="M8.85789 49.7442C6.65731 44.3748 5.21373 31.1272 17.0441 21.0925C18.8926 18.0557 25.0586 10.0353 29.8118 7.50019C25.1906 9.48071 24.5304 2.74692 28.2274 0.898206C31.4399 -0.708236 36.1495 2.8789 33.3768 5.91573C37.0738 4.81543 50.8055 3.27501 62.0681 6.30456C62.4246 1.69058 66.4248 -0.395442 69.8582 1.41926C73.1194 3.14297 75.364 8.02828 67.9701 9.48067C71.7991 12.5175 79.3647 24.7895 81.3453 33.5038C89.3994 65.1923 107.488 114.97 71.8387 121.043C71.5852 121.086 71.3211 121.128 71.0467 121.167C71.0907 123.15 71.971 127.249 67.4818 127.513C62.9926 127.777 63.944 123.772 64.0236 121.703C53.2742 122.075 37.6099 121.226 28.1352 120.509C28.2233 122.535 27.8106 125.944 25.7586 126.457C24.7023 126.721 23.7781 126.721 22.4577 126.457C21.1374 126.193 20.4503 123.658 20.8731 119.855C12.2907 118.799 -12.2676 105.727 8.85789 49.7442Z" fill="#FFFBE3"/>
<path d="M28.1352 120.509C37.6099 121.226 53.2742 122.075 64.0236 121.703C66.7375 121.61 69.1381 121.438 71.0467 121.167C71.3211 121.127 71.5852 121.086 71.8387 121.043C107.488 114.97 89.3994 65.1923 81.3453 33.5038C79.3647 24.7895 71.7991 12.5175 67.9701 9.48067C75.364 8.02828 73.1194 3.14297 69.8582 1.41926C66.4248 -0.395442 62.4246 1.69058 62.0681 6.30456C50.8055 3.27501 37.0738 4.81543 33.3768 5.91573C36.1495 2.8789 31.4399 -0.708236 28.2274 0.898206C24.5304 2.74692 25.1906 9.48071 29.8118 7.50018C25.0586 10.0353 18.8926 18.0557 17.0441 21.0925C5.21373 31.1272 6.65731 44.3748 8.8579 49.7442C-12.2676 105.727 12.2907 118.799 20.873 119.855M20.873 119.855C22.1769 120.015 24.7643 120.254 28.1352 120.509M20.873 119.855C20.4503 123.658 21.1374 126.193 22.4577 126.457C23.7781 126.721 24.7023 126.721 25.7586 126.457C27.8106 125.944 28.2233 122.535 28.1352 120.509M64.0236 121.703C63.944 123.772 62.9926 127.777 67.4818 127.513C71.971 127.249 71.0907 123.15 71.0467 121.167" stroke="#CEAE71"/>
<path d="M33.6406 25.0977L36.1493 26.5129L38.79 25.0977M36.1493 27.7012V33.2467M36.1493 33.2467L34.4328 34.0389M36.1493 33.2467L37.8658 34.0389" stroke="#1C140A" stroke-linecap="round"/>
<path d="M24.0089 26.1754C24.093 26.2142 24.2167 26.3377 24.2754 26.5915C24.3319 26.8359 24.3135 27.1582 24.1596 27.4928C23.8923 28.0732 23.1532 28.3036 22.5785 28.0391C22.4302 27.9709 22.35 27.8476 22.3719 27.584C22.3954 27.3006 22.5442 26.9569 22.7561 26.6976C23.0346 26.3568 23.287 26.2008 23.4843 26.1404C23.6755 26.0819 23.8499 26.1022 24.0089 26.1754ZM52.7245 27.7577C52.9745 27.9022 53.2226 28.1601 53.3882 28.3898C53.5519 28.617 53.6802 28.8827 53.7086 29.121C53.7333 29.3285 53.6869 29.517 53.4738 29.6944C53.2599 29.8724 52.9871 29.8921 52.6859 29.7619C52.3709 29.6258 52.1128 29.356 52.0153 29.1051C51.8836 28.7659 51.8445 28.4828 51.88 28.2613C51.9129 28.0567 52.0133 27.8719 52.2379 27.7101C52.3423 27.6348 52.4792 27.6159 52.7245 27.7577Z" fill="#3C1814" stroke="#100000"/>
<circle cx="22.2182" cy="23.9409" r="8.12126" transform="rotate(0.40478 22.2182 23.9409)" stroke="black" stroke-width="0.5"/>
<path d="M30.4538 23.0066C32.4288 21.9498 38.1166 20.4912 43.3651 23.098" stroke="black" stroke-width="0.5"/>
<path d="M13.9897 23.7415L12.5703 23.7314" stroke="black" stroke-width="0.5" stroke-linecap="round"/>
<path d="M59.6748 24.0635L61.2361 24.0745" stroke="black" stroke-width="0.5" stroke-linecap="round"/>
<circle cx="51.2934" cy="25.565" r="8.12126" transform="rotate(0.40478 51.2934 25.565)" stroke="black" stroke-width="0.5"/>
</svg>
