<svg width="32" height="32" viewBox="0 46 32 32" fill="none" xmlns="http://www.w3.org/2000/svg">
<path d="M16.3816 51.6883C17.0139 51.3096 17.8032 51.3093 18.4357 51.6876L27.1841 56.9191C28.4816 57.695 28.4823 59.5744 27.1854 60.3513L24.4038 62.0176L18.437 65.5919C17.8038 65.9712 17.0133 65.971 16.3804 65.5913L12.2847 63.1345L7.16082 60.061C6.08441 59.4153 6.08494 57.8551 7.1618 57.2102L16.3816 51.6883Z" fill="#98A84E"/>
<path d="M7.16082 60.061L12.2847 63.1345L16.3804 65.5913C17.0133 65.971 17.8038 65.9712 18.437 65.5919L24.4038 62.0176L27.1854 60.3513C28.4823 59.5744 28.4816 57.695 27.1841 56.9191L18.4357 51.6876C17.8032 51.3093 17.0139 51.3096 16.3816 51.6883L7.1618 57.2102C6.08494 57.8551 6.08441 59.4153 7.16082 60.061ZM24.4038 62.0176L24.4038 68.0106C22.2238 70.9834 16.437 75.1453 10.7293 68.0106L10.7293 63.8487M7.16082 60.061L7.16082 65.7651M7.16082 65.7651C6.36809 67.2032 5.25826 70.0793 7.16082 70.0793C9.06338 70.0793 7.95356 67.2032 7.16082 65.7651Z" stroke="#98A84E" stroke-width="1.5"/>
</svg>
