<svg width="402" height="252" viewBox="0 0 402 252" fill="none" xmlns="http://www.w3.org/2000/svg">
<g filter="url(#filter0_d_317_706)">
<path d="M403 252.269V33.0902H332L327.407 13.3231C326.839 10.8773 323.696 10.1702 322.135 12.1367L305.5 33.0902H-3V252.269H403Z" fill="#FFFCF4"/>
<path d="M322.526 12.4473C323.827 10.8085 326.446 11.3984 326.92 13.4365L331.513 33.2031L331.603 33.5898H402.5V251.769H-2.5V33.5898H305.741L305.892 33.4014L322.526 12.4473Z" stroke="#F36454"/>
</g>
<path d="M190.688 197.351H186.222C187.608 198.471 189.442 199.409 191.626 200.067C191.416 200.403 191.304 200.683 191.206 200.949C191.192 201.019 191.122 201.033 191.024 200.991C188.588 200.095 187.02 199.143 185.676 197.911V200.123H184.584V197.897C183.17 199.171 181.406 200.263 179.11 201.159L178.606 200.193C180.804 199.521 182.652 198.471 184.01 197.351H179.586V196.441H184.584V195.013L185.676 195.069V196.441H190.688V197.351ZM181.168 200.613H189.106V205.247H181.168V200.613ZM188.042 201.467H182.232V202.475H188.042V201.467ZM182.232 204.379H188.042V203.329H182.232V204.379ZM179.544 207.207V206.283H190.73V207.207H179.544ZM204.579 200.431H197.201C196.991 200.767 196.781 201.075 196.543 201.397H202.913V207.655H201.919V207.025H196.207V207.669H195.213V202.895C194.541 203.525 193.785 204.141 192.847 204.771L192.203 203.987C193.953 202.867 195.157 201.719 196.011 200.431H192.805V199.577H196.529C196.683 199.269 196.837 198.933 196.991 198.583H194.037V197.729H197.299L197.579 196.707C196.249 196.777 194.947 196.805 193.673 196.847L193.603 195.937C196.963 195.895 200.589 195.615 203.431 195.321L203.529 196.259C202.059 196.413 200.393 196.539 198.657 196.637C198.573 197.015 198.475 197.379 198.363 197.729H203.375V198.583H198.083C197.957 198.919 197.803 199.255 197.649 199.577H204.579V200.431ZM201.919 203.105V202.237H196.207V203.105H201.919ZM196.207 203.889V204.673H201.919V203.889H196.207ZM196.207 206.199H201.919V205.457H196.207V206.199ZM217.336 203.049H214.312V205.947C214.312 207.095 213.92 207.319 212.66 207.431L211.82 207.515L211.47 206.521L212.254 206.437C213.094 206.367 213.22 206.227 213.22 205.555V203.049H210V198.065H212.534C212.702 197.617 212.87 197.127 212.996 196.693H208.614V200.277C208.614 204.015 208.152 205.569 206.836 207.739L205.856 207.137C207.074 205.205 207.564 203.749 207.564 200.319V195.699H218.386V196.693H213.066L214.046 196.889C213.948 197.239 213.808 197.673 213.682 198.065H217.336V203.049ZM216.37 198.933H210.994V200.123H216.37V198.933ZM210.994 200.991V202.181H216.37V200.991H210.994ZM211.19 203.637L211.974 204.225C211.344 205.219 210.182 206.423 209.216 207.319L208.516 206.605C209.566 205.751 210.63 204.561 211.19 203.637ZM215.25 204.267L215.88 203.651C216.594 204.169 217.938 205.499 218.68 206.395L217.966 207.137C217.084 206.003 215.992 204.925 215.25 204.267ZM232.179 206.437L231.675 207.557C229.281 206.661 227.405 205.681 225.893 204.393C224.437 205.639 222.575 206.647 220.055 207.613L219.467 206.535C221.945 205.681 223.765 204.771 225.109 203.665C223.667 202.209 222.687 200.431 222.057 198.093H219.915V197.085H225.347C225.165 196.413 224.871 195.615 224.717 195.167L225.809 194.929C226.005 195.391 226.299 196.455 226.523 197.085H231.661V198.093H229.463C228.889 200.459 228.035 202.209 226.649 203.665C228.035 204.785 229.813 205.653 232.179 206.437ZM228.329 198.093H223.191C223.751 200.151 224.591 201.691 225.865 202.965C227.097 201.677 227.839 200.151 228.329 198.093Z" fill="#F36454" fill-opacity="0.47"/>
<path d="M43.26 74.3322H48.034V76.1802H35.784V74.3322H37.716V68.1162L39.508 68.1862V74.3322H41.454V66.7582H36.666V64.9102H47.306V66.7582H43.26V69.3202H46.984V71.1682H43.26V74.3322ZM59.6733 67.3182H61.3253V74.9902C61.3253 76.2222 61.1293 76.6002 60.0233 76.7122L59.3793 76.7822L58.8893 75.2002L59.4493 75.1302C59.7153 75.1022 59.8413 74.9762 59.8413 74.7382V73.8982H58.6513V76.2362H57.1673V73.8982H55.9353C55.7673 74.9622 55.4033 75.8162 54.7173 76.8942L53.2753 76.0262L53.6253 75.5082H50.4193V71.9802L49.9993 72.5962L48.9073 71.2522C49.6913 70.1042 50.6433 68.2002 51.1193 66.5342H49.8173V64.8402H54.2973V66.5342H52.7153C52.5053 67.3042 52.3233 68.0042 52.0573 68.7182H53.8773V75.0742C54.4513 74.0102 54.5633 73.0582 54.5633 71.0422V68.7742L54.3113 69.0122L53.3173 67.8782C54.4793 66.7862 55.6693 65.2602 56.2713 63.9442L57.8953 64.3082C57.7973 64.5462 57.6853 64.7702 57.5873 64.9802H60.5693V66.4362C60.4433 66.5342 60.0653 66.9122 59.6733 67.3182ZM58.5113 66.5482H56.6073L55.9913 67.3182H57.6573C57.9513 67.0382 58.2873 66.7162 58.5113 66.5482ZM57.1673 68.9702H56.0753V69.8382H57.1673V68.9702ZM59.8413 69.8382V68.9702H58.6513V69.8382H59.8413ZM52.4493 73.8422V70.4122H51.8753V73.8422H52.4493ZM56.0613 72.3022H57.1673V71.4622H56.0753V71.5042C56.0753 71.7842 56.0753 72.0362 56.0613 72.3022ZM58.6513 72.3022H59.8413V71.4622H58.6513V72.3022ZM72.2505 74.7802H75.5685V76.3762H67.3785V74.9622C66.2445 75.1862 63.9905 75.7042 63.4165 75.8582L63.1645 74.2062C63.4865 74.1642 64.1445 74.0242 64.8865 73.8702V70.8042H63.6545V69.1802H64.8865V66.7162H63.5565V65.0922H67.6585V66.7162H66.4825V69.1802H67.5745V70.8042H66.4825V73.5062C67.0285 73.3802 67.4765 73.2822 67.7005 73.2122L67.7845 74.1082L67.8265 74.7802H70.6685V73.9122H68.0225V72.3442H70.6685V71.4762H67.9665V64.6722H74.9385V71.4762H72.2505V72.3442H74.9385V73.9122H72.2505V74.7802ZM70.6685 66.2682H69.5765V67.3182H70.6685V66.2682ZM73.3705 67.3182V66.2682H72.2505V67.3182H73.3705ZM69.5765 69.9082H70.6685V68.8582H69.5765V69.9082ZM72.2505 69.9082H73.3705V68.8582H72.2505V69.9082ZM89.3778 72.7502V74.2902H87.2078V76.6282H85.6958V74.2902H83.5258V72.7502H85.6958V71.7142H84.8278C84.7298 72.0362 84.6038 72.3862 84.4498 72.7362L83.1758 72.2882V75.3822C83.1758 76.3902 82.9518 76.5582 82.0698 76.6702L81.4678 76.7402L81.0758 75.4662V76.0122H79.7878V73.5902H79.0738C78.9198 74.9342 78.5558 75.8162 78.0378 76.8102L76.6378 76.1382C77.4638 74.4862 77.7438 73.7442 77.7438 70.9862V68.7602L76.6098 67.9062C77.6738 66.7302 78.6258 65.4422 79.2838 64.0422L80.8238 64.3222L80.4738 65.1062H82.8398V66.4502L82.0838 67.3882H83.1758V68.2562C84.1138 67.5002 84.2398 67.0522 84.4638 66.1842H83.4698V64.6862H88.9998C88.9578 65.3582 88.8458 67.2342 88.8038 67.5282C88.7338 68.7042 88.3698 68.9282 87.1518 69.0402L86.4238 69.0962L85.9618 67.6262L86.5498 67.5702C87.1378 67.5002 87.2218 67.4302 87.2638 67.0102C87.3058 66.7162 87.3478 66.3522 87.3618 66.1842H86.0598C86.0458 66.3382 86.0318 66.4782 85.9898 66.6322C85.7798 67.6962 85.2478 68.4662 84.2958 69.3062L85.3178 69.5722L85.2058 70.1602H85.6958V69.3202L87.2078 69.3902V70.1602H88.9158V71.7142H87.2078V72.7502H89.3778ZM80.9498 66.5482H79.7178C79.5358 66.8422 79.3818 67.1222 79.1718 67.3882H80.3058L80.9498 66.5482ZM79.1718 68.8442V69.7542H79.7878V68.8442H79.1718ZM81.0758 68.8442V69.7542H81.7478V68.8442H81.0758ZM83.1758 68.8722V72.0082C83.5118 71.2382 83.7638 70.3702 83.9738 69.5722C83.9598 69.6002 83.9178 69.6282 83.8618 69.6702L83.1758 68.8722ZM79.1718 72.1202H79.7878V71.2522H79.1718V71.6302V72.1202ZM81.7478 71.2522H81.0758V72.1202H81.7478V71.2522ZM81.0758 75.3262L81.3978 75.2702C81.7198 75.2142 81.7478 75.1442 81.7478 74.8782V73.5902H81.0758V75.3262ZM93.751 69.4462C93.093 69.4462 92.855 69.3342 92.855 68.5642C92.855 67.7942 93.093 67.6822 93.751 67.6822C94.381 67.6822 94.647 67.7942 94.647 68.5642C94.647 69.3342 94.381 69.4462 93.751 69.4462ZM93.751 75.4102C93.093 75.4102 92.855 75.2982 92.855 74.5142C92.855 73.7722 93.093 73.6462 93.751 73.6462C94.381 73.6462 94.647 73.7722 94.647 74.5142C94.647 75.2982 94.381 75.4102 93.751 75.4102ZM42.854 95.3262L41.804 92.4282H37.506L36.442 95.3262H35.154L38.836 85.6102H40.516L44.184 95.3262H42.854ZM37.926 91.3082H41.398L39.76 86.7862H39.592L37.926 91.3082ZM50.7639 87.7662H51.9679V94.7942C51.9679 96.8802 50.8339 98.1262 48.2719 98.1262C47.6139 98.1262 46.9279 98.0422 46.4379 97.9442V96.9222C47.0119 97.0342 47.6279 97.0902 48.2859 97.0902C49.9659 97.0902 50.7639 96.4042 50.7639 94.6682V93.9122C50.4419 94.8082 49.7699 95.3262 48.3139 95.3262C45.7939 95.3262 45.1779 93.7722 45.1779 91.4762C45.1779 89.3902 45.7939 87.6262 48.3139 87.6262C49.8399 87.6262 50.4699 88.2842 50.7639 89.1802V87.7662ZM48.4819 94.3182C50.3159 94.3182 50.8059 93.2822 50.8059 91.4762C50.8059 89.7402 50.3159 88.6342 48.4819 88.6342C46.6479 88.6342 46.4659 90.0062 46.4659 91.4762C46.4659 93.0442 46.6899 94.3182 48.4819 94.3182ZM60.5183 90.7902C60.5183 91.0002 60.4903 91.3222 60.4483 91.6722L55.3243 91.9942C55.3243 93.6322 55.9263 94.4022 57.7463 94.4022C58.5863 94.4022 59.5383 94.1922 60.1123 93.9122V95.0182C59.6503 95.2422 58.6563 95.4662 57.5643 95.4662C55.3243 95.4662 54.0643 94.5562 54.0643 91.5462C54.0643 88.5362 55.3243 87.6262 57.4943 87.6262C60.0703 87.6262 60.5183 89.3202 60.5183 90.7902ZM55.3243 91.0982L59.3283 90.8042C59.3283 89.6282 59.1323 88.6202 57.4943 88.6202C55.7583 88.6202 55.3663 89.5582 55.3243 91.0982ZM66.232 87.6262C68.206 87.6262 68.766 88.6482 68.766 90.0902V95.3262H67.548V90.5382C67.548 89.3762 67.296 88.7042 66.106 88.7042C65.154 88.7042 64.216 88.8862 63.81 90.2162V95.3262H62.606V87.7662H63.81V88.8442C64.258 87.8642 65.308 87.6262 66.232 87.6262ZM73.6123 94.4022C73.9483 94.4022 74.1723 94.3742 74.4383 94.3182V95.3402C74.1443 95.3822 73.9063 95.4102 73.5843 95.4102C71.9183 95.4102 71.3163 95.0042 71.3163 93.0162V88.7742H70.1963V87.7662H71.3163V85.9742H72.5203V87.7662H74.3963V88.7742H72.5203V92.9462C72.5203 94.1222 72.6883 94.4022 73.6123 94.4022ZM86.8668 86.2682H90.7588C90.7448 87.4162 90.7168 88.5222 90.6888 89.5862C90.6468 91.4062 90.5908 93.5202 90.5208 94.7382C90.4508 95.9282 90.1148 96.2642 88.8828 96.3762L87.6788 96.4742L87.3428 95.4102L88.7008 95.3262C89.1628 95.2842 89.4008 95.1442 89.4568 94.4162C89.5688 92.4422 89.6248 88.9422 89.6668 87.2622L86.4748 87.2762C86.2088 87.8922 85.9428 88.4802 85.6208 89.0822L84.6688 88.5782C85.4948 87.1922 86.1808 85.4142 86.5868 83.7762L87.6088 83.9862C87.3848 84.7702 87.1468 85.5262 86.8668 86.2682ZM81.8128 83.9022L82.9468 84.1402C82.7928 84.7562 82.5968 85.5122 82.3168 86.2962H84.4868V96.1522H79.7128V86.2962H81.1548C81.4348 85.5542 81.6308 84.7422 81.8128 83.9022ZM83.5068 90.6222V87.3042H80.6928V90.6222H83.5068ZM88.5468 92.2322L87.6508 92.8342C86.9928 91.4902 86.2508 90.3002 85.7048 89.5162L86.5308 88.9562C87.1608 89.7962 87.9308 91.0002 88.5468 92.2322ZM80.6928 95.1722H83.5068V91.6442H80.6928V95.1722ZM104.596 91.3502H99.4861C100.228 93.4082 102.132 94.8222 105.086 95.6482L104.526 96.7262C102.146 96.0122 99.8641 94.6262 98.8561 92.4982C98.0021 94.1782 96.1961 95.5362 93.3541 96.7262L92.7241 95.7042C96.3221 94.3182 97.7221 92.8622 98.1701 91.3502H93.1721V90.3002H98.3101V90.2442V87.7662H93.9141V86.7582H96.7281C96.3501 86.0442 95.6921 85.0082 95.2861 84.5322L96.1261 84.0002C96.5741 84.5182 97.4001 85.6942 97.7361 86.3242L97.1481 86.7582H99.7521C100.424 85.9322 101.124 84.8402 101.558 83.9862L102.538 84.3922C102.132 85.1762 101.614 86.0162 101.054 86.7582H103.812V87.7662H99.4581L99.4301 90.1882V90.3002H104.596V91.3502ZM114.975 89.1382V88.0042H113.029V87.2202H114.975V86.0722H113.407V85.3022H114.975V84.0422L115.829 84.0842V85.3022H117.999V87.2202H118.797V88.0042H117.999V89.9362H115.829V91.0282H118.237V91.8262H115.829V92.9042H118.587V93.7022H115.829V94.9342H114.975V93.7022H112.861V92.9042H114.975V91.8262H113.323V91.0282H114.975V89.9362H113.393V89.1382H114.975ZM110.285 86.6322H107.891C107.611 87.2902 107.275 87.9482 106.883 88.6762L106.113 88.2002C106.827 87.0102 107.513 85.4842 107.863 84.0702L108.773 84.2102C108.619 84.7562 108.437 85.2742 108.255 85.7502H110.285V86.6322ZM115.045 95.2562C116.347 95.3262 117.635 95.3122 118.937 95.2422L118.783 96.0962C117.495 96.1662 116.235 96.1802 114.947 96.1102C113.589 96.0402 112.469 95.6762 111.615 94.5702C111.265 95.2422 110.817 95.9002 110.271 96.6282L109.557 96.0262C110.215 95.2842 110.705 94.5422 111.083 93.7442C110.733 93.0722 110.439 92.2322 110.201 91.1262L110.943 90.8462C111.097 91.5322 111.279 92.1622 111.517 92.7082C111.811 91.8122 111.965 90.8882 112.063 89.7822H110.383V88.9282C110.999 88.0182 111.517 87.0242 112.007 85.9602H110.509V85.0922H112.903V85.9742C112.413 87.0382 111.909 88.0182 111.293 88.9282H112.861V89.8242C112.707 91.3922 112.455 92.5542 112.021 93.6602C112.679 94.6122 113.603 95.1582 115.045 95.2562ZM115.829 86.0722V87.2202H117.201V86.0722H115.829ZM117.201 89.1382V88.0042H115.829V89.1382H117.201ZM110.047 93.7302L110.257 94.7102C109.977 94.9202 108.885 95.6762 108.507 95.9422C108.353 96.0682 108.171 96.2082 108.003 96.3762L107.471 95.5362C107.737 95.3262 107.863 95.1582 107.863 94.8362V91.8262H106.407V90.9722H107.863V89.1522H107.177V88.2562H110.033V89.1522H108.717V90.9722H110.117V91.8262H108.717V94.7662C109.095 94.5002 109.753 93.9542 110.047 93.7302ZM132.089 86.0722H127.959C127.469 86.9682 126.937 87.8222 126.363 88.6202L127.077 88.6622V96.7262H125.999V89.1102C124.697 90.8042 123.101 92.3442 121.085 93.8002L120.301 92.9182C123.269 90.9022 125.285 88.6342 126.685 86.0722H121.029V85.0082H132.089V86.0722ZM127.623 89.6282L128.323 88.8442C129.625 89.8522 131.613 91.5882 132.649 92.7782L131.865 93.7302C130.773 92.4142 128.841 90.5942 127.623 89.6282ZM144.344 84.7142V89.5162H135.944V84.7142H144.344ZM143.294 85.5682H136.994V86.6742H143.294V85.5682ZM136.994 88.6622H143.294V87.5422H136.994V88.6622ZM141.11 95.4802C142.86 95.5502 144.694 95.5362 146.486 95.4382L146.234 96.3762C144.54 96.4462 142.832 96.4602 141.138 96.3902C139.066 96.3202 137.792 95.8442 136.784 94.5002C136.35 95.4102 135.762 96.1662 134.88 96.9082L134.026 96.2362C135.482 95.0042 136.182 93.8002 136.56 91.9662L137.596 92.1062C137.484 92.6102 137.358 93.0722 137.204 93.5062C137.862 94.5562 138.674 95.0882 139.808 95.3262V91.4622H134.376V90.5802H146.08V91.4622H140.844V92.9182H145.086V93.7722H140.844V95.4662C140.942 95.4662 141.012 95.4802 141.11 95.4802ZM148.717 84.7982H159.329V96.5862H158.237V95.6902H149.795V96.5862H148.717V84.7982ZM149.795 94.6402H158.237V85.8762H149.795V94.6402ZM151.517 87.7662H156.473V92.7502H151.517V87.7662ZM155.521 91.7982V88.7182H152.483V91.7982H155.521ZM164.514 86.2822H164.024C163.534 87.0102 162.988 87.7242 162.498 88.2702L161.602 87.7242C162.694 86.6322 163.758 84.9662 164.248 83.8322L165.34 84.0002C165.13 84.4342 164.906 84.8682 164.612 85.3582H167.944V86.2822H165.592L166.348 87.6262L165.494 88.1162C165.312 87.6822 164.808 86.7302 164.514 86.2822ZM168.56 87.4862L167.58 87.0102C168.42 85.9882 168.91 84.9942 169.288 83.9442L170.366 84.1262C170.198 84.5602 170.016 84.9522 169.806 85.3582H173.866V86.2822H171.262L172.284 87.7382L171.472 88.3122C171.206 87.8222 170.45 86.7302 170.086 86.2822H169.316C169.078 86.7162 168.826 87.1082 168.56 87.4862ZM167.272 87.4442H168.322C169.708 88.7742 171.542 89.8942 174.174 90.6922L173.74 91.6302C172.62 91.2242 171.724 90.8462 170.954 90.4542V91.2522H164.598V90.3842C163.73 90.8182 162.806 91.2242 161.84 91.5742L161.392 90.6922C163.982 89.8942 165.914 88.6902 167.272 87.4442ZM164.738 90.3142H170.674C169.428 89.6562 168.588 88.9982 167.818 88.2282C167.048 88.9422 165.984 89.6562 164.738 90.3142ZM163.646 96.6702V92.4002H171.948V96.6842H170.912V96.0682H164.682V96.6702H163.646ZM170.912 93.3522H164.682V95.1582H170.912V93.3522ZM176.392 84.8822L177.05 84.1262C177.652 84.5742 178.814 85.6382 179.304 86.2402L178.548 87.1502C178.072 86.4502 176.98 85.3302 176.392 84.8822ZM186.99 85.0502V94.6262C186.99 96.0822 186.542 96.4042 184.764 96.5582L184.036 96.6142L183.644 95.5362L184.624 95.4802C185.73 95.4102 185.926 95.1582 185.926 94.3042V86.1142H179.808V85.0502H186.99ZM176.322 86.9122L177.386 86.9542V96.6002H176.322V86.9122ZM179.192 88.2002H184.106V93.5902H179.192V88.2002ZM180.2 89.1662V92.6102H183.098V89.1662H180.2ZM194.611 84.7422V89.3202H190.145V84.7422H194.611ZM195.899 87.3462H197.551C197.677 86.8982 197.831 86.2682 197.929 85.8062H195.409V84.9382H201.401V85.8062H198.853C198.755 86.2542 198.629 86.8842 198.475 87.3462H200.673V92.4002H199.777V88.2002H196.795V92.4142H195.899V87.3462ZM193.687 85.5262H191.069V86.6462H193.687V85.5262ZM191.069 88.5362H193.687V87.4162H191.069V88.5362ZM197.845 88.9422L198.699 88.9562V90.7762C198.699 92.9602 197.873 93.9962 195.381 95.0742L194.919 94.2622C197.467 93.1702 197.845 92.3162 197.845 90.5802V88.9422ZM194.135 95.2982C196.697 95.4242 199.189 95.3962 201.751 95.2702L201.499 96.2642C198.993 96.3762 196.627 96.3902 194.121 96.2782C192.427 96.2082 191.461 95.8722 190.677 94.3742C190.411 95.1582 190.047 95.8162 189.599 96.5862L188.815 96.1522C189.655 94.7802 190.159 93.7442 190.313 91.7562L191.195 91.8122C191.153 92.3582 191.097 92.8062 190.999 93.2402C191.405 94.2062 191.797 94.6962 192.357 94.9622V91.1822H189.375V90.3282H195.409V91.1822H193.309V92.6382H195.213V93.4922H193.309V95.2282C193.575 95.2702 193.813 95.2842 194.135 95.2982ZM201.331 94.2062L200.785 95.0462C200.421 94.6402 199.273 93.6462 198.517 93.0862L198.993 92.3862C199.889 92.9462 200.925 93.8002 201.331 94.2062ZM205.228 97.2302H204.234C204.99 96.0542 205.55 94.5982 205.55 93.5482H206.712C206.712 94.7662 205.9 96.3342 205.228 97.2302ZM228.851 85.8762H223.643C223.489 86.5342 223.237 87.3882 223.013 88.0182H228.025V94.8642C228.025 96.1242 227.661 96.4602 226.401 96.5302L225.771 96.5862L225.435 95.5222L226.177 95.4662C226.877 95.4242 227.017 95.2562 227.017 94.5562V88.9982H224.959V95.8722H223.993V88.9982H221.921V95.8722H220.955V88.9982H218.911V96.5162H217.917V88.0182H221.809C222.047 87.4022 222.299 86.5342 222.453 85.8762H217.077V84.8682H228.851V85.8762ZM240.813 84.7142V89.5162H232.413V84.7142H240.813ZM239.763 85.5682H233.463V86.6742H239.763V85.5682ZM233.463 88.6622H239.763V87.5422H233.463V88.6622ZM237.579 95.4802C239.329 95.5502 241.163 95.5362 242.955 95.4382L242.703 96.3762C241.009 96.4462 239.301 96.4602 237.607 96.3902C235.535 96.3202 234.261 95.8442 233.253 94.5002C232.819 95.4102 232.231 96.1662 231.349 96.9082L230.495 96.2362C231.951 95.0042 232.651 93.8002 233.029 91.9662L234.065 92.1062C233.953 92.6102 233.827 93.0722 233.673 93.5062C234.331 94.5562 235.143 95.0882 236.277 95.3262V91.4622H230.845V90.5802H242.549V91.4622H237.313V92.9182H241.555V93.7722H237.313V95.4662C237.411 95.4662 237.481 95.4802 237.579 95.4802ZM256.4 86.7442H249.162C248.672 87.8362 248.098 88.8442 247.412 89.7682V96.6842H246.376V91.0702C245.858 91.6722 245.298 92.2182 244.682 92.7782L243.954 91.9522C245.704 90.5102 247.048 88.7462 248.014 86.7442H244.5V85.7362H248.476C248.742 85.1202 248.952 84.5042 249.134 83.8742L250.142 84.1262C249.988 84.6722 249.806 85.2042 249.596 85.7362H256.4V86.7442ZM252.62 94.7382H256.526V95.7322H247.86V94.7382H251.57V91.1122H248.448V90.1042H251.57V87.7522L252.62 87.7942V90.1042H255.882V91.1122H252.62V94.7382ZM264.483 84.8682H269.607V94.8502C269.607 96.1242 269.173 96.3762 267.717 96.5302L267.003 96.6002L266.653 95.5642L267.563 95.4942C268.459 95.4242 268.613 95.3122 268.613 94.5982V92.4422H265.337C265.029 94.3322 264.343 95.4102 262.803 96.8802L262.005 96.2502C264.203 94.1922 264.483 93.3102 264.483 89.4462V84.8682ZM263.013 85.1482V94.4722H258.925V85.1482H263.013ZM268.613 85.8762H265.491V88.1862H268.613V85.8762ZM262.103 86.1702H259.863V89.2642H262.103V86.1702ZM265.449 91.4482H268.613V89.1522H265.491V89.9642C265.491 90.5102 265.477 91.0002 265.449 91.4482ZM259.863 93.4642H262.103V90.2722H259.863V93.4642ZM281.554 87.5842H283.668V94.9902C283.668 96.0962 283.374 96.4042 282.254 96.5162L281.708 96.5722L281.372 95.6202L281.988 95.5642C282.604 95.5082 282.744 95.3962 282.744 94.7802V93.6182H280.896V96.3482H279.986V93.6182H278.082C277.928 94.8082 277.564 95.6482 276.808 96.8242L275.926 96.3062C277.046 94.6542 277.27 93.7442 277.27 91.1262V88.4242L276.836 88.8722L276.164 88.2002C277.27 87.1222 278.432 85.3582 279.104 83.9022L280.084 84.2242C279.93 84.5602 279.762 84.8682 279.594 85.1902H282.758V86.0302C282.38 86.5762 281.988 87.0942 281.554 87.5842ZM276.108 95.4802H273.098V90.6502C272.86 91.0842 272.594 91.4762 272.3 91.9102L271.46 91.3502C272.622 89.7262 273.462 87.9902 273.924 86.0862H272.244V85.1062H276.738V86.0862H274.876C274.61 87.1642 274.316 88.1302 273.91 89.0402H276.108V95.4802ZM281.512 86.1282H279.048C278.726 86.6462 278.39 87.1222 278.012 87.5842H280.28C280.714 87.1362 281.12 86.6462 281.512 86.1282ZM279.986 90.1462V88.5642H278.194V90.1462H279.986ZM282.744 90.1462V88.5642H280.896V90.1462H282.744ZM273.994 90.0342V94.4722H275.212V90.0342H273.994ZM278.166 92.6662H279.986V91.1262H278.194V91.4062C278.194 91.8682 278.18 92.2882 278.166 92.6662ZM280.896 92.6662H282.744V91.1262H280.896V92.6662ZM290.156 94.2062L289.246 93.4642C291.304 91.7422 291.878 90.5662 292.06 87.4162H289.792V86.3522H292.116C292.158 85.6802 292.2 84.6022 292.2 84.1122L293.25 84.1682C293.25 84.6722 293.194 85.6802 293.152 86.3522H297.016C296.96 86.9402 296.736 91.4622 296.68 92.0502C296.568 93.5482 296.036 93.9542 294.174 94.0662L293.586 94.1082L293.222 92.9602L294.104 92.9042C295.35 92.8342 295.518 92.7082 295.588 91.6862L295.868 87.4162H293.096C292.872 90.9442 292.214 92.3022 290.156 94.2062ZM289.05 86.8002L288.224 87.6262C287.804 86.8702 286.782 85.6522 286.264 85.0922L287.076 84.4622C287.636 84.9942 288.602 86.1702 289.05 86.8002ZM293.306 95.2562C294.972 95.2982 296.624 95.2562 298.192 95.1582L297.926 96.2502C296.442 96.3202 294.706 96.3202 293.544 96.3202C290.618 96.2782 289.4 96.1522 287.86 94.5842C287.342 95.2142 286.978 95.6062 286.194 96.3902L285.48 95.6622C286.264 94.9342 286.936 94.2342 287.426 93.6042V89.5442H285.914V88.6062H288.476V93.8842C289.82 95.1442 290.856 95.2142 293.306 95.2562ZM312.113 92.8202L311.609 93.7722C310.601 93.4362 309.495 92.9462 308.431 92.3862V96.7262H307.353V92.2322L308.221 92.2602C307.199 91.7002 306.289 91.0702 305.687 90.4122C305.113 91.0142 304.245 91.6442 303.139 92.2182L304.161 92.2602V92.9742C304.161 94.5422 303.545 95.7882 301.249 96.9502L300.619 96.0682C302.691 95.0882 303.111 94.3042 303.111 92.9742V92.2322C302.103 92.7782 300.955 93.2682 299.723 93.7022L299.163 92.7782C301.501 92.1202 303.461 91.1402 304.749 90.0342H300.927V84.6442H310.433V90.0342H306.569C307.955 91.2662 310.111 92.3302 312.113 92.8202ZM305.197 85.5542H301.949V86.9402H305.197V85.5542ZM309.411 86.9402V85.5542H306.163V86.9402H309.411ZM301.949 87.7802V89.1382H305.197V87.7802H301.949ZM306.163 89.1382H309.411V87.7802H306.163V89.1382ZM319.986 86.2542H324.55V94.7942C324.55 96.1662 324.186 96.3062 322.464 96.5302L321.778 96.6142L321.4 95.5502L322.296 95.4662C323.374 95.3542 323.486 95.2702 323.486 94.4442V87.2762H319.986C319.972 87.9342 319.916 88.4942 319.79 89.0542C320.84 89.9502 322.52 91.6442 323.262 92.6522L322.534 93.5762C321.89 92.5962 320.476 91.0702 319.44 90.1042C318.894 91.3502 317.928 92.4702 316.29 93.7162L315.604 92.8202C318.208 90.8882 318.866 89.4882 318.908 87.2762H315.436V96.5862H314.386V86.2542H318.908V84.1262L319.986 84.1682V86.2542ZM338.947 93.2402L339.731 93.7162C339.689 94.0102 339.577 94.5982 339.423 95.0882C339.185 95.8862 338.849 96.4602 338.219 96.4602C337.561 96.4602 337.127 96.0122 336.903 94.7102C336.791 94.1502 336.637 92.5122 336.637 90.8042V87.5002H334.257C334.243 87.7242 334.243 87.9062 334.243 88.0602C334.229 89.1102 334.201 89.9782 334.103 90.7622C334.901 91.2522 335.699 91.7422 336.259 92.1202L335.769 93.1142C335.265 92.7222 334.607 92.2462 333.935 91.7982C333.571 93.7302 332.801 95.0182 331.359 96.6842L330.477 96.0402C332.003 94.3742 332.689 93.1562 332.983 91.1822C332.437 90.8462 331.947 90.5802 331.569 90.3702L331.989 89.6002C332.311 89.7542 332.689 89.9502 333.095 90.1882C333.151 89.5582 333.165 88.8722 333.207 88.0742C333.207 87.9202 333.221 87.7242 333.221 87.5002H331.989V86.5342H333.221C333.221 85.9322 333.235 85.3022 333.235 84.8122V84.0002L334.299 84.0422L334.271 86.5342H337.645V90.7482C337.645 92.4282 337.813 93.9402 337.883 94.4722C337.953 94.8782 338.121 95.3402 338.289 95.3402C338.499 95.3402 338.625 94.9342 338.723 94.5002C338.821 94.0942 338.891 93.6742 338.947 93.2402ZM331.261 89.7542L331.345 90.2302C330.967 90.4122 330.519 90.5942 330.001 90.8042V95.1022C330.001 96.1242 329.665 96.2782 328.545 96.3902L327.831 96.4602L327.481 95.4242L328.223 95.3682C328.895 95.3262 328.979 95.2002 328.979 94.6822V91.2102C328.321 91.4482 327.649 91.6862 327.089 91.8542L326.851 90.8742C327.425 90.7062 328.195 90.4402 328.979 90.1182V87.5282H327.271V86.5482H328.979V84.0702L330.001 84.1122V86.5482H331.471V87.5282H330.001V89.7122C330.449 89.5302 330.855 89.3622 331.191 89.2082L331.261 89.7542ZM344.315 84.1122L345.099 84.8122C344.203 86.0022 342.719 87.4302 341.543 88.3682L340.955 87.5002C342.019 86.7022 343.461 85.2322 344.315 84.1122ZM352.561 84.8962V85.9042H346.163V84.8962H352.561ZM344.315 87.6542L345.127 88.2842C344.805 88.8442 344.343 89.4462 343.839 90.0482V96.6002H342.789V91.1962C342.215 91.7982 341.627 92.3302 341.081 92.7642L340.465 91.8822C341.921 90.7902 343.531 88.9982 344.315 87.6542ZM353.261 88.9282V89.9362H350.909V94.7662C350.909 96.0402 350.419 96.3902 349.033 96.5022L347.997 96.6002L347.675 95.5222L348.781 95.4382C349.607 95.3962 349.789 95.2282 349.789 94.4582V89.9362H345.337V88.9282H353.261ZM357.438 84.2242L358.53 84.4622C358.208 85.4562 357.858 86.3662 357.48 87.1782V96.6282H356.444V89.0962C356.01 89.8102 355.548 90.4682 355.044 91.1402L354.176 90.4682C355.506 88.7182 356.724 86.6742 357.438 84.2242ZM367.084 90.7762H363.15V94.8502H366.678V95.8862H358.614V94.8502H362.058V90.7762H358.25V89.7122H362.058V86.3242C360.84 86.4782 359.706 86.5622 358.88 86.6042L358.67 85.5682C360.616 85.4982 364.298 84.9942 366.132 84.6162L366.356 85.6662C365.53 85.8342 364.382 86.0162 363.15 86.1842V89.7122H367.084V90.7762ZM42.896 108.704C44.24 109.306 45.92 109.74 48.258 110.118L47.88 111.112C45.206 110.51 43.344 110.09 41.832 109.306C40.278 110.09 38.416 110.762 35.882 111.336L35.42 110.384C37.674 109.922 39.396 109.376 40.796 108.718C40.082 108.242 39.382 107.64 38.696 106.912C38.08 107.514 37.394 108.088 36.652 108.634L36.008 107.99C37.534 106.87 39.074 105.162 39.858 103.902L40.81 104.294C40.6 104.63 40.39 104.966 40.124 105.288H46.158V106.142C45.136 107.108 44.128 107.934 42.896 108.704ZM39.41 106.156L39.382 106.184C40.124 106.968 40.894 107.626 41.846 108.172C42.952 107.57 43.82 106.884 44.604 106.156H39.41ZM40.404 110.328L41.51 110.426C41.468 110.636 41.44 111.084 41.342 111.63H46.27C46.228 112.078 45.948 114.36 45.878 114.808C45.696 116.096 45.318 116.278 44.282 116.39L42.77 116.53L42.448 115.592L43.918 115.466C44.492 115.41 44.73 115.186 44.856 114.458C44.94 114.066 45.066 112.806 45.108 112.54H41.174C40.656 114.724 39.396 115.9 36.372 116.838L35.854 115.956C38.458 115.172 39.62 114.262 40.068 112.54H36.918V111.63H40.25C40.348 111.084 40.39 110.538 40.404 110.328ZM52.3233 116.88C51.3153 116.88 50.4613 116.292 50.4613 115.116C50.4613 113.94 51.3153 113.352 52.3233 113.352C53.3313 113.352 54.1853 113.94 54.1853 115.116C54.1853 116.292 53.3173 116.88 52.3233 116.88ZM52.3233 116.138C52.9253 116.138 53.3733 115.788 53.3733 115.116C53.3733 114.444 52.9253 114.094 52.3233 114.094C51.7213 114.094 51.2733 114.444 51.2733 115.116C51.2733 115.788 51.7213 116.138 52.3233 116.138ZM64.6485 108.27H63.7525C64.1585 107.178 64.5225 105.764 64.5225 104.686H65.7125C65.7125 105.694 65.1665 107.234 64.6485 108.27ZM67.4205 108.27H66.5385C66.9445 107.178 67.3085 105.764 67.3085 104.686H68.4845C68.4845 105.694 67.9385 107.234 67.4205 108.27Z" fill="#4D4635"/>
<g filter="url(#filter1_d_317_706)">
<rect x="48" y="132.269" width="321" height="43.3884" rx="15" fill="#F36454"/>
</g>
<path d="M189.894 151.75C190.054 151.441 190.203 151.137 190.342 150.838C190.491 150.539 190.63 150.251 190.758 149.974L191.686 150.39C191.494 150.827 191.265 151.307 190.998 151.83C190.731 152.353 190.454 152.865 190.166 153.366C189.889 153.857 189.617 154.321 189.35 154.758C189.083 155.185 188.859 155.531 188.678 155.798C188.827 155.787 189.014 155.766 189.238 155.734C189.473 155.691 189.707 155.654 189.942 155.622C190.187 155.579 190.417 155.537 190.63 155.494C190.854 155.451 191.025 155.419 191.142 155.398L191.174 156.518C191.089 156.529 190.897 156.555 190.598 156.598C190.31 156.641 189.99 156.689 189.638 156.742C189.297 156.795 188.966 156.849 188.646 156.902C188.337 156.955 188.118 156.993 187.99 157.014C187.851 157.035 187.718 157.057 187.59 157.078C187.462 157.099 187.318 157.137 187.158 157.19L186.918 156.022C187.131 155.937 187.281 155.867 187.366 155.814C187.451 155.75 187.537 155.654 187.622 155.526C187.91 155.121 188.198 154.689 188.486 154.23C188.774 153.761 189.051 153.286 189.318 152.806C189.158 152.817 188.982 152.827 188.79 152.838C188.609 152.849 188.427 152.859 188.246 152.87C188.075 152.87 187.921 152.875 187.782 152.886C187.643 152.897 187.542 152.907 187.478 152.918C187.382 152.929 187.286 152.945 187.19 152.966C187.094 152.977 186.971 152.998 186.822 153.03L186.614 151.91C186.763 151.835 186.859 151.777 186.902 151.734C186.955 151.681 187.019 151.595 187.094 151.478C187.233 151.286 187.393 151.035 187.574 150.726C187.755 150.406 187.942 150.054 188.134 149.67C188.326 149.275 188.513 148.865 188.694 148.438C188.886 148.011 189.057 147.595 189.206 147.19L190.246 147.558C190.107 147.91 189.942 148.289 189.75 148.694C189.569 149.089 189.377 149.483 189.174 149.878C188.982 150.262 188.79 150.625 188.598 150.966C188.406 151.307 188.23 151.601 188.07 151.846L189.894 151.75ZM196.15 155.254C195.809 155.83 195.425 156.374 194.998 156.886C194.582 157.398 194.134 157.873 193.654 158.31L193.142 157.238C193.739 156.737 194.283 156.177 194.774 155.558C195.275 154.929 195.686 154.283 196.006 153.622H193.382V152.534H196.15V147.222L197.254 147.254V152.534H200.278V153.622H197.254V155.062L197.702 154.614C197.894 154.763 198.118 154.95 198.374 155.174C198.63 155.398 198.886 155.638 199.142 155.894C199.409 156.15 199.659 156.401 199.894 156.646C200.129 156.891 200.321 157.11 200.47 157.302L199.702 158.214C199.574 158.022 199.409 157.809 199.206 157.574C199.003 157.339 198.79 157.105 198.566 156.87C198.342 156.635 198.113 156.406 197.878 156.182C197.654 155.958 197.446 155.761 197.254 155.59V159.238H196.15V155.254ZM200.726 159.766V160.902H191.846V147.766L192.982 147.798V159.766H200.726ZM194.838 151.814C194.763 151.59 194.662 151.339 194.534 151.062C194.406 150.774 194.262 150.486 194.102 150.198C193.953 149.91 193.803 149.638 193.654 149.382C193.505 149.126 193.366 148.918 193.238 148.758L194.07 148.294C194.187 148.465 194.321 148.678 194.47 148.934C194.63 149.19 194.785 149.462 194.934 149.75C195.094 150.027 195.238 150.299 195.366 150.566C195.505 150.833 195.611 151.062 195.686 151.254L194.838 151.814ZM200.278 148.71C200.193 148.923 200.081 149.169 199.942 149.446C199.803 149.713 199.654 149.985 199.494 150.262C199.334 150.539 199.169 150.806 198.998 151.062C198.838 151.318 198.694 151.531 198.566 151.702L197.702 151.27C197.83 151.11 197.969 150.907 198.118 150.662C198.267 150.406 198.417 150.145 198.566 149.878C198.726 149.601 198.87 149.329 198.998 149.062C199.126 148.795 199.227 148.561 199.302 148.358L200.278 148.71ZM191.43 159.014L191.494 159.654C191.206 159.707 190.838 159.777 190.39 159.862C189.953 159.937 189.494 160.011 189.014 160.086C188.545 160.171 188.081 160.251 187.622 160.326C187.163 160.401 186.774 160.465 186.454 160.518L186.358 159.35C186.667 159.307 187.046 159.249 187.494 159.174C187.953 159.099 188.417 159.019 188.886 158.934C189.366 158.849 189.825 158.763 190.262 158.678C190.71 158.593 191.083 158.523 191.382 158.47L191.43 159.014ZM211.068 149.51H207.852V148.534H211.068V146.982L212.14 147.03V148.534H215.644V149.51H212.14V151.014H215.884V151.99L214.94 154.262L214.012 153.974L214.844 152.038H207.436V151.014H211.068V149.51ZM203.196 152.934C203.1 152.945 203.004 152.961 202.908 152.982C202.812 152.993 202.689 153.014 202.54 153.046L202.3 151.974C202.428 151.921 202.529 151.862 202.604 151.798C202.679 151.723 202.759 151.627 202.844 151.51C202.972 151.329 203.132 151.073 203.324 150.742C203.516 150.401 203.713 150.027 203.916 149.622C204.119 149.217 204.316 148.795 204.508 148.358C204.711 147.921 204.887 147.51 205.036 147.126L205.964 147.51C205.825 147.851 205.66 148.23 205.468 148.646C205.287 149.051 205.095 149.457 204.892 149.862C204.7 150.267 204.508 150.646 204.316 150.998C204.135 151.339 203.98 151.617 203.852 151.83C203.927 151.819 204.039 151.809 204.188 151.798C204.337 151.787 204.497 151.777 204.668 151.766C204.849 151.755 205.031 151.745 205.212 151.734C205.393 151.723 205.553 151.718 205.692 151.718C205.873 151.377 206.039 151.057 206.188 150.758C206.337 150.449 206.476 150.155 206.604 149.878L207.468 150.294C207.276 150.71 207.052 151.169 206.796 151.67C206.54 152.171 206.273 152.673 205.996 153.174C205.719 153.665 205.441 154.134 205.164 154.582C204.897 155.019 204.657 155.387 204.444 155.686C204.583 155.665 204.759 155.638 204.972 155.606C205.196 155.563 205.425 155.526 205.66 155.494C205.905 155.451 206.151 155.414 206.396 155.382C206.641 155.35 206.86 155.318 207.052 155.286V156.374L203.772 156.886C203.623 156.907 203.484 156.934 203.356 156.966C203.239 156.987 203.084 157.025 202.892 157.078L202.604 156.006C202.775 155.942 202.924 155.867 203.052 155.782C203.191 155.686 203.313 155.563 203.42 155.414C203.708 155.009 203.991 154.587 204.268 154.15C204.545 153.702 204.817 153.254 205.084 152.806C204.924 152.817 204.743 152.827 204.54 152.838C204.348 152.849 204.161 152.865 203.98 152.886C203.799 152.897 203.639 152.907 203.5 152.918C203.361 152.929 203.26 152.934 203.196 152.934ZM210.876 154.662C210.716 154.534 210.519 154.395 210.284 154.246C210.049 154.086 209.804 153.937 209.548 153.798C209.303 153.659 209.063 153.537 208.828 153.43C208.604 153.313 208.412 153.227 208.252 153.174L208.636 152.374C208.839 152.459 209.057 152.561 209.292 152.678C209.537 152.795 209.777 152.918 210.012 153.046C210.257 153.174 210.492 153.307 210.716 153.446C210.94 153.574 211.132 153.691 211.292 153.798L210.876 154.662ZM212.428 157.798C212.407 157.873 212.38 157.942 212.348 158.006C212.316 158.07 212.284 158.134 212.252 158.198C212.551 158.347 212.881 158.523 213.244 158.726C213.607 158.918 213.969 159.121 214.332 159.334C214.705 159.537 215.052 159.739 215.372 159.942C215.703 160.145 215.975 160.321 216.188 160.47L215.708 161.558C215.484 161.398 215.207 161.201 214.876 160.966C214.545 160.742 214.193 160.513 213.82 160.278C213.447 160.054 213.073 159.835 212.7 159.622C212.337 159.409 212.012 159.227 211.724 159.078C211.287 159.633 210.684 160.107 209.916 160.502C209.159 160.907 208.172 161.281 206.956 161.622L206.508 160.566C207.212 160.385 207.825 160.198 208.348 160.006C208.871 159.814 209.324 159.606 209.708 159.382C210.092 159.158 210.412 158.918 210.668 158.662C210.924 158.406 211.132 158.118 211.292 157.798H207.132V156.774H211.644C211.761 156.241 211.825 155.643 211.836 154.982C211.836 154.854 211.836 154.673 211.836 154.438C211.847 154.203 211.852 153.958 211.852 153.702C211.863 153.446 211.868 153.201 211.868 152.966C211.879 152.731 211.884 152.555 211.884 152.438L212.924 152.486L212.86 154.87C212.849 155.222 212.828 155.558 212.796 155.878C212.775 156.198 212.737 156.497 212.684 156.774H216.476V157.798H212.428ZM207.964 154.15C208.188 154.235 208.423 154.342 208.668 154.47C208.924 154.598 209.175 154.731 209.42 154.87C209.676 155.009 209.911 155.147 210.124 155.286C210.348 155.425 210.535 155.553 210.684 155.67L210.268 156.454C210.108 156.326 209.911 156.187 209.676 156.038C209.441 155.889 209.196 155.745 208.94 155.606C208.684 155.457 208.433 155.323 208.188 155.206C207.943 155.089 207.735 154.998 207.564 154.934L207.964 154.15ZM207.42 159.366C207.068 159.451 206.679 159.542 206.252 159.638C205.825 159.734 205.388 159.825 204.94 159.91C204.503 159.995 204.06 160.075 203.612 160.15C203.164 160.235 202.737 160.31 202.332 160.374L202.188 159.222C202.572 159.169 202.983 159.105 203.42 159.03C203.857 158.955 204.3 158.875 204.748 158.79C205.207 158.705 205.655 158.614 206.092 158.518C206.54 158.411 206.961 158.31 207.356 158.214L207.388 158.886L207.42 159.366Z" fill="white"/>
<defs>
<filter id="filter0_d_317_706" x="-8" y="0" width="416" height="252.269" filterUnits="userSpaceOnUse" color-interpolation-filters="sRGB">
<feFlood flood-opacity="0" result="BackgroundImageFix"/>
<feColorMatrix in="SourceAlpha" type="matrix" values="0 0 0 0 0 0 0 0 0 0 0 0 0 0 0 0 0 0 127 0" result="hardAlpha"/>
<feOffset dy="-6"/>
<feGaussianBlur stdDeviation="2.5"/>
<feComposite in2="hardAlpha" operator="out"/>
<feColorMatrix type="matrix" values="0 0 0 0 0.952941 0 0 0 0 0.392157 0 0 0 0 0.329412 0 0 0 0.2 0"/>
<feBlend mode="normal" in2="BackgroundImageFix" result="effect1_dropShadow_317_706"/>
<feBlend mode="normal" in="SourceGraphic" in2="effect1_dropShadow_317_706" result="shape"/>
</filter>
<filter id="filter1_d_317_706" x="44" y="132.269" width="329" height="51.3887" filterUnits="userSpaceOnUse" color-interpolation-filters="sRGB">
<feFlood flood-opacity="0" result="BackgroundImageFix"/>
<feColorMatrix in="SourceAlpha" type="matrix" values="0 0 0 0 0 0 0 0 0 0 0 0 0 0 0 0 0 0 127 0" result="hardAlpha"/>
<feOffset dy="4"/>
<feGaussianBlur stdDeviation="2"/>
<feComposite in2="hardAlpha" operator="out"/>
<feColorMatrix type="matrix" values="0 0 0 0 0.596078 0 0 0 0 0.639216 0 0 0 0 0.368627 0 0 0 0.2 0"/>
<feBlend mode="normal" in2="BackgroundImageFix" result="effect1_dropShadow_317_706"/>
<feBlend mode="normal" in="SourceGraphic" in2="effect1_dropShadow_317_706" result="shape"/>
</filter>
</defs>
</svg>
