<svg width="402" height="874" viewBox="0 0 402 874" fill="none" xmlns="http://www.w3.org/2000/svg">
<g clip-path="url(#clip0_314_1084)">
<rect width="402" height="874" fill="#E8EBBD"/>
<path d="M399 642.546C425 622.546 432.5 634.046 443.5 636.046V672.546H342.119C341.346 672.596 340.639 672.595 340 672.546H342.119C350.722 671.991 367.52 665.18 390 649.208C389.635 647.445 389.161 644.539 389.002 641.875C388.636 640.795 388.146 639.933 387.5 639.546C380 640.046 366.58 632.966 372 627.546C376 623.546 384.5 631.546 387.5 639.546C388.146 639.933 388.636 640.795 389.002 641.875C388.871 639.671 388.957 637.632 389.5 636.546C388 630.712 387.114 617.114 395.5 618.046C404.5 619.046 395.5 634.546 389.5 636.546C388.957 637.632 388.871 639.671 389.002 641.875C389.771 644.14 390 647.366 390 649.208C392.907 647.143 395.909 644.924 399 642.546Z" fill="#DDE1AC"/>
<path d="M390 649.208C365.499 666.616 347.747 673.142 340 672.546H443.5V636.046C432.5 634.046 425 622.546 399 642.546C395.909 644.924 392.907 647.143 390 649.208ZM390 649.208C390 646.487 389.5 640.746 387.5 639.546M390 649.208C389.333 645.987 388.3 638.946 389.5 636.546M387.5 639.546C380 640.046 366.58 632.966 372 627.546C376 623.546 384.5 631.546 387.5 639.546ZM389.5 636.546C388 630.712 387.114 617.114 395.5 618.046C404.5 619.046 395.5 634.546 389.5 636.546Z" stroke="#DDE2AD" stroke-width="2"/>
<g filter="url(#filter0_d_314_1084)">
<rect x="49" y="194" width="303" height="408" rx="15" fill="#FDFAF2"/>
</g>
<path d="M81.6 318.2C83.856 318.2 84.496 319.368 84.496 321.016V327H83.12V321.528C83.12 320.2 82.832 319.432 81.456 319.432C80.368 319.432 79.296 319.64 78.832 321.16V327H77.456V314.84H78.832V319.592C79.344 318.472 80.544 318.2 81.6 318.2ZM90.8346 327.16C88.2746 327.16 86.8346 326.12 86.8346 322.68C86.8346 319.24 88.2746 318.2 90.8346 318.2C93.3946 318.2 94.8186 319.24 94.8186 322.68C94.8186 326.12 93.3946 327.16 90.8346 327.16ZM90.8346 325.992C92.8026 325.992 93.3626 325.208 93.3626 322.68C93.3626 320.168 92.7226 319.352 90.8346 319.352C88.8986 319.352 88.3066 320.168 88.3066 322.68C88.3066 325.208 88.9626 325.992 90.8346 325.992ZM100.725 327.16C98.1653 327.16 96.7253 326.12 96.7253 322.68C96.7253 319.24 98.1653 318.2 100.725 318.2C103.285 318.2 104.709 319.24 104.709 322.68C104.709 326.12 103.285 327.16 100.725 327.16ZM100.725 325.992C102.693 325.992 103.253 325.208 103.253 322.68C103.253 320.168 102.613 319.352 100.725 319.352C98.7893 319.352 98.1973 320.168 98.1973 322.68C98.1973 325.208 98.8533 325.992 100.725 325.992ZM110.072 322.376L113.896 327H112.12L108.968 322.968H108.504V327H107.128V314.84H108.504V321.896H109L111.992 318.36H113.704L110.072 322.376ZM117.409 327.096C116.561 327.096 115.377 326.952 114.897 326.824V325.64C115.505 325.816 116.609 325.976 117.393 325.976C118.721 325.976 119.393 325.672 119.393 324.648C119.393 323.624 119.105 323.416 117.457 323.032C115.553 322.616 115.041 321.992 115.041 320.536C115.041 319.128 116.081 318.2 118.145 318.2C118.977 318.2 119.889 318.312 120.321 318.488L120.225 319.656C119.729 319.464 118.977 319.32 118.161 319.32C116.945 319.32 116.337 319.592 116.337 320.568C116.337 321.448 116.641 321.656 117.985 321.944C119.969 322.424 120.689 322.92 120.689 324.6C120.689 326.328 119.537 327.096 117.409 327.096ZM133.063 314.168H134.199C135.591 316.152 137.911 317.976 140.903 319.4L140.279 320.504C138.071 319.32 135.031 317.224 133.623 315.32C132.215 317.24 129.783 319.096 126.951 320.568L126.295 319.528C129.351 318.072 131.655 316.168 133.063 314.168ZM129.575 319.144H137.655V320.232H129.575V319.144ZM127.063 323.432V322.312H140.135V323.432H133.255C132.375 324.632 131.319 325.832 130.423 326.664C131.399 326.664 134.855 326.52 136.727 326.44C136.135 325.72 135.527 325.08 135.079 324.648L135.959 323.944C136.871 324.808 138.535 326.728 139.271 327.8L138.391 328.744C138.183 328.376 137.895 327.96 137.559 327.512C135.783 327.576 130.935 327.768 129.911 327.832C129.287 327.88 128.791 327.928 128.343 328.008L128.103 326.904C128.599 326.728 128.743 326.6 129.111 326.344C129.927 325.656 130.983 324.456 131.751 323.432H127.063ZM156.013 317.192H147.741C147.181 318.44 146.525 319.592 145.741 320.648V328.552H144.557V322.136C143.965 322.824 143.325 323.448 142.621 324.088L141.789 323.144C143.789 321.496 145.325 319.48 146.429 317.192H142.413V316.04H146.957C147.261 315.336 147.501 314.632 147.709 313.912L148.861 314.2C148.685 314.824 148.477 315.432 148.237 316.04H156.013V317.192ZM151.693 326.328H156.157V327.464H146.253V326.328H150.493V322.184H146.925V321.032H150.493V318.344L151.693 318.392V321.032H155.421V322.184H151.693V326.328ZM167.536 327.16C164.48 327.16 162.48 326.104 162.48 321.448C162.48 317.16 164.496 315.736 167.696 315.736C168.72 315.736 169.44 315.848 170.096 316.056V317.384C169.456 317.144 168.704 317 167.728 317C165.216 317 163.984 318.104 163.984 321.416C163.984 324.936 165.104 325.864 167.584 325.864C168.624 325.864 169.376 325.736 170.224 325.432V326.68C169.6 326.952 168.672 327.16 167.536 327.16ZM174.282 327.096C173.002 327.096 172.362 326.552 172.362 325.256V314.84H173.738V324.904C173.738 325.784 173.978 325.944 174.538 325.944C174.73 325.944 174.954 325.928 175.194 325.864V327C174.938 327.064 174.666 327.096 174.282 327.096ZM180.364 318.2C183.1 318.2 183.804 319.32 183.804 320.872V327H182.636L182.428 325.688C181.916 326.616 180.652 327.16 179.34 327.16C177.276 327.16 176.364 326.232 176.364 324.584C176.364 322.536 177.74 321.832 179.788 321.832H182.428V321.112C182.428 320.072 182.044 319.352 180.3 319.352C179.724 319.352 179.02 319.416 178.396 319.544V318.328C179.036 318.248 179.74 318.2 180.364 318.2ZM179.468 326.008C180.924 326.008 181.98 325.384 182.428 324.36V322.936H179.884C178.46 322.936 177.788 323.224 177.788 324.568C177.788 325.528 178.252 326.008 179.468 326.008ZM192.257 318.36H193.633V327H192.465L192.289 325.752C191.777 326.888 190.625 327.16 189.569 327.16C187.313 327.16 186.673 326.008 186.673 324.344V318.36H188.049V323.832C188.049 325.16 188.337 325.944 189.713 325.944C190.817 325.944 191.745 325.72 192.257 324.232V318.36ZM202.438 314.84H203.814V327H202.646L202.438 325.576C202.102 326.488 201.206 327.16 199.622 327.16C196.742 327.16 196.054 325.32 196.054 322.68C196.054 320.312 196.742 318.2 199.622 318.2C201.302 318.2 202.102 318.856 202.438 319.864V314.84ZM199.83 325.992C201.926 325.992 202.486 324.744 202.486 322.68C202.486 320.696 201.926 319.352 199.83 319.352C197.734 319.352 197.526 321 197.526 322.68C197.526 324.488 197.782 325.992 199.83 325.992ZM213.57 321.816C213.57 322.056 213.538 322.424 213.49 322.824L207.634 323.192C207.634 325.064 208.322 325.944 210.402 325.944C211.362 325.944 212.45 325.704 213.106 325.384V326.648C212.578 326.904 211.442 327.16 210.194 327.16C207.634 327.16 206.194 326.12 206.194 322.68C206.194 319.24 207.634 318.2 210.114 318.2C213.058 318.2 213.57 320.136 213.57 321.816ZM207.634 322.168L212.21 321.832C212.21 320.488 211.986 319.336 210.114 319.336C208.13 319.336 207.682 320.408 207.634 322.168ZM224.817 327.16C221.761 327.16 219.761 326.104 219.761 321.448C219.761 317.16 221.777 315.736 224.977 315.736C226.001 315.736 226.721 315.848 227.377 316.056V317.384C226.737 317.144 225.985 317 225.009 317C222.497 317 221.265 318.104 221.265 321.416C221.265 324.936 222.385 325.864 224.865 325.864C225.905 325.864 226.657 325.736 227.505 325.432V326.68C226.881 326.952 225.953 327.16 224.817 327.16ZM233.132 327.16C230.572 327.16 229.132 326.12 229.132 322.68C229.132 319.24 230.572 318.2 233.132 318.2C235.692 318.2 237.116 319.24 237.116 322.68C237.116 326.12 235.692 327.16 233.132 327.16ZM233.132 325.992C235.1 325.992 235.66 325.208 235.66 322.68C235.66 320.168 235.02 319.352 233.132 319.352C231.196 319.352 230.604 320.168 230.604 322.68C230.604 325.208 231.26 325.992 233.132 325.992ZM245.422 314.84H246.798V327H245.63L245.422 325.576C245.086 326.488 244.19 327.16 242.606 327.16C239.726 327.16 239.038 325.32 239.038 322.68C239.038 320.312 239.726 318.2 242.606 318.2C244.286 318.2 245.086 318.856 245.422 319.864V314.84ZM242.814 325.992C244.91 325.992 245.47 324.744 245.47 322.68C245.47 320.696 244.91 319.352 242.814 319.352C240.718 319.352 240.51 321 240.51 322.68C240.51 324.488 240.766 325.992 242.814 325.992ZM256.554 321.816C256.554 322.056 256.522 322.424 256.474 322.824L250.618 323.192C250.618 325.064 251.306 325.944 253.386 325.944C254.346 325.944 255.434 325.704 256.09 325.384V326.648C255.562 326.904 254.426 327.16 253.178 327.16C250.618 327.16 249.178 326.12 249.178 322.68C249.178 319.24 250.618 318.2 253.098 318.2C256.042 318.2 256.554 320.136 256.554 321.816ZM250.618 322.168L255.194 321.832C255.194 320.488 254.97 319.336 253.098 319.336C251.114 319.336 250.666 320.408 250.618 322.168ZM270.426 326.616H276.458V327.816H262.89V326.616H269.162V322.856H264.25V321.688H269.162V318.456H265.306C264.794 319.544 264.218 320.504 263.53 321.544L262.474 320.776C263.802 318.904 264.858 317.096 265.45 314.744L266.586 315.048C266.346 315.864 266.106 316.568 265.834 317.256H269.162V314.152L270.426 314.2V317.256H275.77V318.456H270.426V321.688H275.242V322.856H270.426V326.616ZM278.352 319.752L277.712 318.648C280.656 317.352 283.12 315.752 284.592 314.088H285.792C287.28 315.752 289.776 317.448 292.72 318.728L292.128 319.8C289.056 318.312 286.752 316.776 285.216 315.16C283.696 316.76 281.088 318.376 278.352 319.752ZM281.136 318.28H289.232V319.4H281.136V318.28ZM290.896 320.936V324.968C290.896 326.44 290.592 326.744 289.008 326.92L288.528 326.968L288.144 325.784L288.816 325.72C289.728 325.64 289.744 325.512 289.744 324.68V322.04H286.704V328.584H285.568V320.936H290.896ZM279.568 321H284.128V326.856H279.568V321ZM280.672 322.088V325.752H283.024V322.088H280.672ZM295.526 314.872H306.934V326.392C306.934 327.912 306.438 328.184 304.838 328.312L303.942 328.376L303.558 327.32L304.534 327.256C305.574 327.208 305.766 327.064 305.766 326.2V315.96H296.678V320.68C296.678 324.856 296.214 326.2 294.886 328.568L293.766 328.024C295.126 325.752 295.526 324.552 295.526 320.232V314.872ZM297.222 320.344H300.598V318.712H297.75V317.752H300.598V316.376L301.734 316.424V317.752H304.566V318.712H301.734V320.344H305.094V321.32H297.222V320.344ZM304.038 322.52V326.504H298.246V322.52H304.038ZM302.95 325.464V323.576H299.35V325.464H302.95ZM317.404 323.56V324.568H309.484V323.56H311.244V316.888H310.108V315.88H311.244V314.28L312.316 314.328V315.88H315.1V314.28L316.172 314.328V315.88H317.388V316.888H316.172V323.56H317.404ZM318.092 315.048H322.924V326.68C322.924 327.912 322.604 328.04 321.42 328.216L320.604 328.328L320.188 327.272L321.052 327.176C321.756 327.096 321.836 327.032 321.836 326.312V323.736H319.084C318.908 325.864 318.412 326.984 317.036 328.696L316.012 328.056C318.012 325.72 318.092 324.744 318.092 320.408V315.048ZM321.836 316.136H319.164V318.856H321.836V316.136ZM315.1 316.888H312.316V318.408H315.1V316.888ZM312.316 319.4V320.936H315.1V319.4H312.316ZM319.148 322.648H321.836V319.928H319.164V320.968C319.164 321.592 319.164 322.152 319.148 322.648ZM312.316 321.912V323.56H315.1V321.912H312.316ZM314.076 325.544L314.828 324.808C315.532 325.4 316.108 325.944 316.7 326.568L315.996 327.432C315.564 326.92 314.636 326.024 314.076 325.544ZM310.668 328.456L309.756 327.672C310.572 326.984 311.644 325.96 312.284 324.856L313.164 325.528C312.396 326.616 311.484 327.624 310.668 328.456ZM89.856 344.128V350.896H84.48V355.6H83.2V350.896H77.872V344.128H83.2V341.024L84.48 341.088V344.128H89.856ZM79.12 349.712H83.2V345.312H79.12V349.712ZM88.624 349.712V345.312H84.48V349.712H88.624ZM101.542 343.648H105.99C105.974 344.96 105.942 346.224 105.91 347.44C105.862 349.52 105.798 351.936 105.718 353.328C105.638 354.688 105.254 355.072 103.846 355.2L102.47 355.312L102.086 354.096L103.638 354C104.166 353.952 104.438 353.792 104.502 352.96C104.63 350.704 104.694 346.704 104.742 344.784L101.094 344.8C100.79 345.504 100.486 346.176 100.118 346.864L99.03 346.288C99.974 344.704 100.758 342.672 101.222 340.8L102.39 341.04C102.134 341.936 101.862 342.8 101.542 343.648ZM95.766 340.944L97.062 341.216C96.886 341.92 96.662 342.784 96.342 343.68H98.822V354.944H93.366V343.68H95.014C95.334 342.832 95.558 341.904 95.766 340.944ZM97.702 348.624V344.832H94.486V348.624H97.702ZM103.462 350.464L102.438 351.152C101.686 349.616 100.838 348.256 100.214 347.36L101.158 346.72C101.878 347.68 102.758 349.056 103.462 350.464ZM94.486 353.824H97.702V349.792H94.486V353.824ZM118.252 346.24H122.396V347.296H113.26V346.24H117.1V344.288H114.092V343.2H117.1V341.184L118.252 341.216V343.2H121.596V344.288H118.252V346.24ZM113.564 348.864L113.66 349.328C113.26 349.52 112.716 349.76 112.124 350V355.52H111.004V350.448C109.932 350.848 108.908 351.232 108.22 351.472L107.868 350.272C108.62 350.032 109.836 349.632 111.004 349.184V345.68H109.724C109.548 346.768 109.34 347.776 109.148 348.416L108.076 348.016C108.46 346.8 108.972 343.968 108.972 342.48L110.06 342.592C110.06 343.12 110.012 343.808 109.9 344.56H111.004V341.264L112.124 341.296V344.56H113.868V345.68H112.124V348.736C112.62 348.528 113.036 348.336 113.372 348.16L113.564 348.864ZM120.156 347.808V349.072H122.076V350.144H120.156V353.44C120.156 354.848 119.868 355.2 118.076 355.376L117.196 355.456L116.828 354.336L117.9 354.24C118.956 354.16 119.004 353.904 119.004 353.024V350.144H114.076V349.072H119.004V347.776L120.156 347.808ZM114.268 351.232L115.052 350.496C115.612 351.008 116.78 352.192 117.212 352.8L116.396 353.728C115.932 353.008 114.828 351.744 114.268 351.232ZM126.13 343.856V345.584H124.946V342.768H130.802C130.626 342.192 130.45 341.6 130.306 341.232L131.442 340.96C131.618 341.408 131.842 342.144 132.018 342.768H137.378V345.568H136.21V343.856H126.13ZM132.002 353.856H132.194C134.274 353.904 136.002 353.856 138.274 353.776L137.938 354.96C135.89 355.072 134.098 355.088 132.098 355.04C129.906 354.992 128.274 354.288 127.122 352.64C126.626 353.728 125.938 354.656 124.978 355.68L123.922 354.896C125.906 352.912 126.594 351.488 126.85 348.56L128.114 348.64C128.002 349.712 127.842 350.608 127.586 351.424C128.37 352.72 129.394 353.408 130.802 353.712V347.216H125.362V346.144H136.978V347.216H132.002V349.808H136.706V350.912H132.002V353.856ZM151.912 345.776V350.848H141.896V345.776H145.8V341.216L147.048 341.264V342.8H153.288V343.968H147.048V345.776H151.912ZM150.712 349.68V346.912H143.096V349.68H150.712ZM140.792 355.728L139.672 355.088C140.408 354.224 141.384 352.368 141.816 351.392L142.888 351.792C142.456 352.864 141.432 354.784 140.792 355.728ZM150.664 352L151.656 351.408C152.296 352.208 153.448 353.92 153.928 354.864L152.952 355.68C152.472 354.56 151.336 352.848 150.664 352ZM147.496 351.984L148.568 351.648C148.952 352.464 149.576 354.144 149.784 355.04L148.648 355.456C148.424 354.464 147.88 352.8 147.496 351.984ZM144.2 352.016L145.336 351.792C145.592 352.64 145.992 354.368 146.072 355.264L144.888 355.6C144.808 354.624 144.456 352.864 144.2 352.016ZM161.39 342.464V343.44C161.118 344 160.83 344.512 160.462 345.008H161.95V354.032C161.95 354.976 161.71 355.136 160.622 355.312L160.078 355.392L159.726 354.4L160.302 354.336C160.878 354.272 160.99 354.192 160.99 353.696V351.52H159.678V354.112H158.75V351.52H157.39C157.262 353.344 156.926 354.272 156.366 355.568L155.342 355.2C156.27 353.392 156.478 352.368 156.478 349.04V345.664L155.95 346.256L155.23 345.488C156.51 344.192 157.518 342.624 158.11 340.976L159.166 341.232C158.99 341.664 158.814 342.064 158.622 342.464H161.39ZM170.03 355.072L169.07 355.568C168.958 355.136 168.814 354.608 168.638 354.048C167.038 354.224 164.014 354.464 162.478 354.592L162.334 353.504C163.15 353.456 164.238 353.392 165.342 353.312V349.936H162.974V343.808H165.342V341.056L166.398 341.104V343.808H168.846V349.936H166.398V353.232L168.302 353.072C167.998 352.224 167.662 351.392 167.406 350.864L168.318 350.48C168.83 351.6 169.694 353.872 170.03 355.072ZM160.238 343.456H158.078C157.774 343.984 157.422 344.496 157.022 345.008H159.294C159.63 344.528 159.934 344.016 160.238 343.456ZM163.982 348.816H165.342V344.88H163.982V348.816ZM167.822 344.88H166.398V348.816H167.822V344.88ZM158.75 345.952H157.438V347.776H158.75V345.952ZM160.99 347.776V345.952H159.678V347.776H160.99ZM157.422 350.576H158.75V348.752H157.438V349.536C157.438 349.904 157.438 350.256 157.422 350.576ZM159.678 350.576H160.99V348.752H159.678V350.576ZM183.3 342.704L182.74 343.84C182.1 343.232 180.724 342.432 179.988 342.08L180.596 341.104C181.284 341.456 182.66 342.24 183.3 342.704ZM185.476 354.56L184.916 355.728C182.724 355.04 180.884 354.24 179.364 353.152C177.956 354.096 176.212 354.816 173.828 355.648L173.284 354.528C175.476 353.84 177.124 353.184 178.404 352.4C177.396 351.504 176.628 350.48 176.004 349.216C175.044 351.264 173.7 353.056 171.796 354.976L170.852 354.144C173.46 351.536 175.124 348.864 176.02 345.392H172.452V344.384C172.66 343.632 173.06 342.16 173.188 341.44L174.388 341.696C174.26 342.336 173.924 343.664 173.764 344.288H176.292C176.5 343.328 176.66 342.304 176.772 341.2L178.004 341.312C177.876 342.4 177.732 343.376 177.556 344.288H185.06V345.392H177.316C177.14 346.08 176.964 346.736 176.756 347.36H183.316V348.48C182.5 350.144 181.62 351.328 180.452 352.352C181.796 353.248 183.412 353.936 185.476 354.56ZM181.972 348.496H176.996C177.636 349.728 178.436 350.752 179.508 351.632C180.596 350.736 181.348 349.76 181.972 348.496ZM190.394 347.28C189.642 347.28 189.37 347.152 189.37 346.272C189.37 345.392 189.642 345.264 190.394 345.264C191.114 345.264 191.418 345.392 191.418 346.272C191.418 347.152 191.114 347.28 190.394 347.28ZM189.546 356.176H188.426C189.274 354.848 189.93 353.168 189.93 351.968H191.242C191.242 353.36 190.314 355.152 189.546 356.176ZM216.8 349.984V350.928H215.424V352.96H210.48V353.728C210.48 354.96 210.016 355.296 208.544 355.376L207.52 355.456L207.088 354.336C207.232 354.336 207.376 354.336 207.536 354.32C207.808 354.304 208.16 354.32 208.528 354.272C209.296 354.224 209.344 354.208 209.344 353.456V352.96H203.968V352.032H209.344V350.928H202.848V349.984H209.344V348.976H203.968V348.048H209.344V347.088H204.688V344.256H209.344V343.264H202.88V342.272H209.344V341.136L210.48 341.2V342.272H216.768V343.264H210.48V344.256H215.088V347.088H210.48V348.048H215.424V349.984H216.8ZM205.84 346.208H209.344V345.136H205.84V346.208ZM213.936 345.136H210.48V346.208H213.936V345.136ZM210.48 348.976V349.984H214.304V348.976H210.48ZM214.304 352.032V350.928H210.48V352.032H214.304ZM232.838 349.424V350.576H228.598V355.6H227.382V350.576H222.662V349.424H227.382V345.648H225.03C224.726 346.608 224.39 347.52 223.99 348.368L222.79 347.936C223.606 346.208 224.31 343.904 224.694 341.888L225.894 342.144C225.75 342.944 225.574 343.728 225.366 344.496H227.382V341.088L228.598 341.152V344.496H232.166V345.648H228.598V349.424H232.838ZM221.67 341.376L222.918 341.632C222.566 342.768 222.182 343.792 221.782 344.672V355.568H220.614V346.912C220.118 347.744 219.574 348.544 218.982 349.328L218.054 348.544C219.574 346.544 220.854 344.176 221.67 341.376ZM246.3 342.704L245.74 343.84C245.1 343.232 243.724 342.432 242.988 342.08L243.596 341.104C244.284 341.456 245.66 342.24 246.3 342.704ZM248.476 354.56L247.916 355.728C245.724 355.04 243.884 354.24 242.364 353.152C240.956 354.096 239.212 354.816 236.828 355.648L236.284 354.528C238.476 353.84 240.124 353.184 241.404 352.4C240.396 351.504 239.628 350.48 239.004 349.216C238.044 351.264 236.7 353.056 234.796 354.976L233.852 354.144C236.46 351.536 238.124 348.864 239.02 345.392H235.452V344.384C235.66 343.632 236.06 342.16 236.188 341.44L237.388 341.696C237.26 342.336 236.924 343.664 236.764 344.288H239.292C239.5 343.328 239.66 342.304 239.772 341.2L241.004 341.312C240.876 342.4 240.732 343.376 240.556 344.288H248.06V345.392H240.316C240.14 346.08 239.964 346.736 239.756 347.36H246.316V348.48C245.5 350.144 244.62 351.328 243.452 352.352C244.796 353.248 246.412 353.936 248.476 354.56ZM244.972 348.496H239.996C240.636 349.728 241.436 350.752 242.508 351.632C243.596 350.736 244.348 349.76 244.972 348.496ZM258.082 353.616H264.114V354.816H250.546V353.616H256.818V349.856H251.906V348.688H256.818V345.456H252.962C252.45 346.544 251.874 347.504 251.186 348.544L250.13 347.776C251.458 345.904 252.514 344.096 253.106 341.744L254.242 342.048C254.002 342.864 253.762 343.568 253.49 344.256H256.818V341.152L258.082 341.2V344.256H263.426V345.456H258.082V348.688H262.898V349.856H258.082V353.616ZM268.904 345.744H279.72V346.848H268.904C268.904 350.608 268.248 352.512 266.408 355.232L265.416 354.72C267.224 352.096 267.752 350.384 267.752 346.4V342.432C271.144 342.384 274.696 342.16 278.216 341.568L278.52 342.752C275.352 343.216 271.704 343.488 268.904 343.568V345.744ZM269.944 355.536V349.088H278.28V355.536H277.096V354.48H271.128V355.536H269.944ZM277.096 350.176H271.128V353.392H277.096V350.176ZM284.062 356.176H282.926C283.79 354.832 284.43 353.168 284.43 351.968H285.758C285.758 353.36 284.83 355.152 284.062 356.176ZM309.316 350.272C308.036 350.32 306.644 350.336 305.188 350.384V353.632C305.188 354.992 304.852 355.2 303.076 355.376L302.164 355.456L301.764 354.272L302.884 354.176C303.876 354.096 303.988 353.968 303.988 353.296V350.432C302.58 350.48 301.252 350.528 300.052 350.608C299.684 350.624 299.012 350.688 298.58 350.736L298.34 349.52C298.708 349.472 299.22 349.392 299.524 349.28C300.996 348.768 302.516 347.936 303.988 346.96C302.532 347.008 300.548 347.04 299.972 347.088C299.7 347.088 299.316 347.12 298.82 347.168L298.596 346.112C299.316 346 299.572 345.936 299.828 345.792C300.772 345.264 301.924 344.416 302.948 343.472C301.204 343.584 299.572 343.664 298.356 343.712L298.148 342.544C301.348 342.48 307.236 342.112 310.276 341.728L310.468 342.896C308.788 343.072 306.26 343.248 303.796 343.424L304.132 343.824C303.156 344.768 302.34 345.424 301.38 346.016C301.956 346.016 304.34 345.92 305.476 345.872C306.372 345.184 307.204 344.464 307.956 343.744L308.724 344.64C306.772 346.464 304.228 348.256 302.1 349.36C303.764 349.312 306.308 349.2 308.292 349.12C307.764 348.56 307.236 348.048 306.852 347.712L307.716 346.976C308.612 347.744 310.292 349.536 310.98 350.48L310.148 351.376C309.94 351.04 309.652 350.672 309.316 350.272ZM301.572 351.088L302.276 352.032C301.044 353.056 299.188 354.272 297.716 355.104L297.124 354.096C298.5 353.36 300.436 352.144 301.572 351.088ZM306.372 352.096L306.964 351.136C308.116 351.728 310.34 352.992 311.588 353.936L311.028 355.072C310.004 354.176 307.524 352.704 306.372 352.096ZM326.218 351.872L327.21 352.224C327.162 352.912 327.13 353.568 326.986 354.192C326.842 354.832 326.458 355.152 325.322 355.216C325.018 355.232 324.73 355.232 324.442 355.216C323.354 355.168 322.89 354.88 322.89 353.568V348.528L321.13 348.624C321.13 348.992 321.13 349.392 321.114 349.648C321.034 352.672 320.298 354.16 317.562 355.824L316.842 354.848C319.402 353.36 319.93 352.448 320.01 349.536C320.026 349.36 320.026 349.008 320.026 348.672L319.354 348.72C319.13 348.72 318.506 348.8 318.234 348.848L317.93 347.808C318.234 347.728 318.506 347.6 318.634 347.424C319.226 346.784 320.25 345.328 321.018 344.176H318.17V343.072H321.93C321.754 342.384 321.45 341.584 321.258 341.152L322.41 340.944C322.618 341.44 322.986 342.448 323.146 343.072H326.81V344.176H322.282C321.546 345.328 320.506 346.912 319.866 347.6C320.426 347.6 323.178 347.472 324.618 347.392C324.122 346.672 323.594 345.984 323.226 345.552L324.09 344.96C324.842 345.808 326.202 347.68 326.714 348.656L325.866 349.52C325.722 349.2 325.514 348.832 325.274 348.432C324.97 348.432 324.522 348.464 323.962 348.48V353.36C323.962 354.032 324.106 354.096 324.666 354.144C324.842 354.16 325.018 354.16 325.194 354.144C325.754 354.096 325.946 353.984 326.058 353.488C326.186 352.864 326.202 352.496 326.218 351.872ZM313.978 346.928C313.77 346.944 313.498 346.992 313.29 347.056L313.05 345.92C313.306 345.84 313.418 345.76 313.594 345.52C314.138 344.768 315.242 342.688 315.834 341.104L316.874 341.568C316.282 342.96 315.258 344.928 314.65 345.792L316.554 345.696C316.874 345.104 317.194 344.512 317.434 343.984L318.426 344.496C317.61 346.256 316.218 348.624 315.418 349.728L318.058 349.36L318.074 350.496C317.706 350.56 315.082 350.976 314.538 351.04C314.33 351.056 313.93 351.136 313.626 351.216L313.354 350.112C313.658 350.032 313.978 349.84 314.154 349.568C314.618 348.912 315.258 347.904 315.898 346.816C315.162 346.864 314.234 346.928 313.978 346.928ZM318.314 352.864L318.378 353.328C317.05 353.632 314.25 354.176 312.954 354.4L312.746 353.264C314.074 353.056 316.922 352.496 318.234 352.16L318.314 352.864ZM81.664 374.968L81.728 375.384C81.28 375.56 80.656 375.816 79.968 376.056V380.632C79.968 381.896 79.6 382.2 78.176 382.328L77.488 382.392L77.152 381.224L77.952 381.16C78.704 381.112 78.832 381.032 78.832 380.344V376.472C78.016 376.776 77.264 377.016 76.736 377.16L76.352 376.056C77.008 375.88 77.92 375.608 78.832 375.304V372.12H76.96V371.016H78.832V368.28L79.968 368.328V371.016H81.696V372.12H79.968V374.92C80.592 374.68 81.152 374.488 81.584 374.312L81.664 374.968ZM89.696 378.312L90.832 378.792C90.768 379.544 90.72 380.296 90.544 380.984C90.384 381.688 89.872 382.072 88.32 382.152C86.976 382.216 85.84 382.216 84.416 382.152C82.944 382.104 82.272 381.656 82.272 379.832V369.112H89.792V375.816H83.392V379.528C83.392 380.6 83.744 380.92 84.816 380.968C85.952 381.032 86.944 381.032 88.08 380.968C89.056 380.92 89.392 380.664 89.504 380.104C89.616 379.544 89.648 378.888 89.696 378.312ZM85.408 370.216H83.392V374.728H85.408V370.216ZM88.672 374.728V370.216H86.512V374.728H88.672ZM96.214 374.632L96.95 374.152C97.478 374.84 98.022 375.608 98.582 376.584L97.638 377.384C97.174 376.488 96.71 375.72 96.214 375.064V382.568H95.094V375.064C94.582 376.456 94.022 377.496 93.142 378.888L92.118 378.12C92.854 377.128 94.502 374.44 95.014 372.344H92.838V371.224H95.094V368.248L96.214 368.296V371.224H98.262V372.344H96.214V374.632ZM98.806 369.24H105.814V382.488H104.678V381.4H99.926V382.488H98.806V369.24ZM104.678 370.36H99.926V372.968H104.678V370.36ZM104.678 374.072H99.926V376.568H104.678V374.072ZM99.926 380.312H104.678V377.672H99.926V380.312ZM121.804 376.456H115.964C116.812 378.808 118.988 380.424 122.364 381.368L121.724 382.6C119.004 381.784 116.396 380.2 115.244 377.768C114.268 379.688 112.204 381.24 108.956 382.6L108.236 381.432C112.348 379.848 113.948 378.184 114.46 376.456H108.748V375.256H114.62V375.192V372.36H109.596V371.208H112.812C112.38 370.392 111.628 369.208 111.164 368.664L112.124 368.056C112.636 368.648 113.58 369.992 113.964 370.712L113.292 371.208H116.268C117.036 370.264 117.836 369.016 118.332 368.04L119.452 368.504C118.988 369.4 118.396 370.36 117.756 371.208H120.908V372.36H115.932L115.9 375.128V375.256H121.804V376.456ZM127.263 383.896C126.943 383.896 126.447 383.864 126.143 383.8V382.52C126.399 382.568 126.687 382.632 127.215 382.632C128.383 382.632 128.847 381.816 128.847 380.6V369.896H130.287V380.744C130.287 382.68 129.327 383.896 127.263 383.896ZM135.911 381.16C134.551 381.16 133.143 380.936 132.615 380.728V379.4C133.271 379.656 134.615 379.896 135.911 379.896C137.575 379.896 138.439 379.416 138.439 378.024C138.439 376.648 137.975 376.312 135.879 375.8C133.623 375.24 132.775 374.712 132.775 372.728C132.775 370.696 133.959 369.72 136.471 369.72C137.527 369.72 138.743 369.912 139.255 370.12V371.432C138.615 371.192 137.495 370.984 136.487 370.984C134.935 370.984 134.199 371.288 134.199 372.728C134.199 373.768 134.471 374.136 136.471 374.6C138.967 375.208 139.847 375.816 139.847 378.008C139.847 380.184 138.487 381.16 135.911 381.16ZM146.702 381.16C143.566 381.16 141.918 379.928 141.918 375.448C141.918 370.984 143.566 369.736 146.702 369.736C149.854 369.736 151.486 370.984 151.486 375.448C151.486 379.928 149.854 381.16 146.702 381.16ZM146.702 379.928C149.422 379.928 149.998 378.6 149.998 375.448C149.998 372.376 149.422 370.952 146.702 370.952C144.014 370.952 143.422 372.376 143.422 375.448C143.422 378.6 144.014 379.928 146.702 379.928ZM154.128 381V369.896H156.384L161.44 379.112H161.536V369.896H162.976V381H161.072L155.632 371.224H155.536V381H154.128ZM176.691 380.616H183.587V381.768H169.347V380.616H175.443V368.152L176.691 368.216V372.648H182.531V373.816H176.691V380.616ZM185.241 369.288H199.129V370.488H192.441V382.52H191.161V370.488H185.241V369.288ZM192.713 373.592L193.481 372.68C194.809 373.672 196.985 375.464 197.977 376.504L197.209 377.624C196.057 376.344 193.977 374.472 192.713 373.592ZM215.215 381.192L214.639 382.472C211.903 381.448 209.759 380.328 208.031 378.856C206.367 380.28 204.239 381.432 201.359 382.536L200.687 381.304C203.519 380.328 205.599 379.288 207.135 378.024C205.487 376.36 204.367 374.328 203.647 371.656H201.199V370.504H207.407C207.199 369.736 206.863 368.824 206.687 368.312L207.935 368.04C208.159 368.568 208.495 369.784 208.751 370.504H214.623V371.656H212.111C211.455 374.36 210.479 376.36 208.895 378.024C210.479 379.304 212.511 380.296 215.215 381.192ZM210.815 371.656H204.943C205.583 374.008 206.543 375.768 207.999 377.224C209.407 375.752 210.255 374.008 210.815 371.656ZM230.805 374.424H224.405C224.197 375.08 224.005 375.656 223.829 376.136H229.349V377.24C228.693 378.376 227.925 379.4 227.141 380.376C227.973 380.808 228.741 381.208 229.333 381.576L228.837 382.888C227.141 381.656 223.829 380.056 221.989 379.416L222.437 378.36C223.397 378.68 224.741 379.24 226.069 379.864C226.725 379.048 227.365 378.2 227.893 377.256H222.549L222.533 376.232C222.741 375.704 222.965 375.112 223.157 374.424H220.549V373.336H223.477C223.653 372.712 223.797 372.104 223.941 371.464H221.397V370.376H224.165C224.341 369.56 224.437 368.776 224.549 368.056L225.717 368.216C225.605 368.904 225.509 369.624 225.365 370.376H230.021V371.464H225.141C224.997 372.104 224.869 372.712 224.693 373.336H230.805V374.424ZM220.036 368.152L221.253 368.392C220.821 369.608 220.373 370.68 219.877 371.704V382.664H218.725V373.768C218.197 374.616 217.605 375.416 216.965 376.232L216.117 375.368C217.557 373.704 219.061 370.952 220.036 368.152ZM233.339 373.848C233.083 373.864 232.907 373.896 232.587 373.96L232.331 372.872C232.603 372.76 232.763 372.632 232.955 372.392C233.515 371.672 234.523 369.704 235.115 368.04L236.139 368.456C235.499 370.152 234.475 371.96 233.914 372.776L235.739 372.68C236.171 371.896 236.555 371.128 236.859 370.44L237.851 370.92C236.955 372.808 235.307 375.656 234.539 376.728C235.131 376.648 236.875 376.408 237.339 376.328L237.371 377.48C237.051 377.544 234.219 377.944 233.771 378.008C233.451 378.072 233.227 378.12 232.907 378.232L232.587 377.048C233.019 376.872 233.243 376.728 233.499 376.392C233.931 375.816 234.555 374.824 235.179 373.72C234.507 373.768 233.547 373.8 233.339 373.848ZM241.115 368.248H242.203C243.163 370.312 244.731 372.168 246.891 373.64L246.123 374.584C243.963 372.888 242.587 371.368 241.659 369.496C240.779 371.288 239.339 373.208 237.531 374.552L236.763 373.656C238.811 372.248 240.235 370.232 241.115 368.248ZM239.003 373.272H244.283V374.328H239.003V373.272ZM238.299 382.52V376.152H245.003V382.536H243.931V381.656H239.323V382.52H238.299ZM243.931 377.256H239.323V380.6H243.931V377.256ZM237.627 379.256L237.691 379.944L237.755 380.472C236.411 380.808 233.899 381.256 232.299 381.512L231.963 380.36C233.659 380.104 236.266 379.64 237.627 379.256ZM253.057 374.68L252.081 374.04C253.217 372.424 254.321 370.136 254.913 368.168L256.128 368.328C255.921 368.984 255.665 369.64 255.392 370.28H261.745V371.432C261.377 372.36 260.945 373.24 260.465 374.088L259.377 373.688C259.809 372.984 260.161 372.216 260.497 371.432H254.881C254.321 372.584 253.713 373.704 253.057 374.68ZM251.137 368.296L252.369 368.488C251.985 369.72 251.569 370.792 251.121 371.816V382.504H249.985V374.04C249.553 374.76 249.105 375.464 248.609 376.152L247.761 375.4C248.977 373.672 250.417 370.936 251.137 368.296ZM256.609 380.264V372.712L257.777 372.744V380.68C257.777 381.88 257.329 382.312 255.729 382.392L254.929 382.456L254.513 381.256L255.473 381.192C256.433 381.144 256.609 380.936 256.609 380.264ZM254.145 375.032L255.169 375.32C254.545 377.32 253.569 379.432 252.561 381.144L251.536 380.68C252.465 379.144 253.585 376.888 254.145 375.032ZM258.929 375.496L259.873 375.032C260.673 376.344 261.969 379.208 262.433 380.696L261.441 381.32C260.961 379.736 259.713 376.84 258.929 375.496ZM272.855 370.648H277.303C277.287 371.96 277.255 373.224 277.223 374.44C277.175 376.52 277.111 378.936 277.031 380.328C276.951 381.688 276.567 382.072 275.159 382.2L273.783 382.312L273.399 381.096L274.951 381C275.479 380.952 275.751 380.792 275.815 379.96C275.943 377.704 276.007 373.704 276.055 371.784L272.407 371.8C272.102 372.504 271.799 373.176 271.431 373.864L270.343 373.288C271.286 371.704 272.071 369.672 272.535 367.8L273.703 368.04C273.447 368.936 273.175 369.8 272.855 370.648ZM267.079 367.944L268.375 368.216C268.199 368.92 267.975 369.784 267.655 370.68H270.135V381.944H264.679V370.68H266.327C266.647 369.832 266.871 368.904 267.079 367.944ZM269.015 375.624V371.832H265.799V375.624H269.015ZM274.775 377.464L273.751 378.152C272.999 376.616 272.151 375.256 271.527 374.36L272.47 373.72C273.191 374.68 274.071 376.056 274.775 377.464ZM265.799 380.824H269.015V376.792H265.799V380.824ZM288.522 372.2C290.778 372.2 291.418 373.368 291.418 375.016V381H290.042V375.528C290.042 374.2 289.754 373.432 288.378 373.432C287.29 373.432 286.218 373.64 285.754 375.16V381H284.378V368.84H285.754V373.592C286.266 372.472 287.466 372.2 288.522 372.2ZM297.757 381.16C295.197 381.16 293.757 380.12 293.757 376.68C293.757 373.24 295.197 372.2 297.757 372.2C300.317 372.2 301.741 373.24 301.741 376.68C301.741 380.12 300.317 381.16 297.757 381.16ZM297.757 379.992C299.725 379.992 300.285 379.208 300.285 376.68C300.285 374.168 299.645 373.352 297.757 373.352C295.821 373.352 295.229 374.168 295.229 376.68C295.229 379.208 295.885 379.992 297.757 379.992ZM307.647 381.16C305.087 381.16 303.647 380.12 303.647 376.68C303.647 373.24 305.087 372.2 307.647 372.2C310.207 372.2 311.631 373.24 311.631 376.68C311.631 380.12 310.207 381.16 307.647 381.16ZM307.647 379.992C309.615 379.992 310.175 379.208 310.175 376.68C310.175 374.168 309.535 373.352 307.647 373.352C305.711 373.352 305.119 374.168 305.119 376.68C305.119 379.208 305.775 379.992 307.647 379.992ZM316.994 376.376L320.818 381H319.042L315.89 376.968H315.426V381H314.05V368.84H315.426V375.896H315.922L318.914 372.36H320.626L316.994 376.376ZM81.6 399.2C83.856 399.2 84.496 400.368 84.496 402.016V408H83.12V402.528C83.12 401.2 82.832 400.432 81.456 400.432C80.368 400.432 79.296 400.64 78.832 402.16V408H77.456V395.84H78.832V400.592C79.344 399.472 80.544 399.2 81.6 399.2ZM90.7706 399.2C93.5066 399.2 94.2106 400.32 94.2106 401.872V408H93.0426L92.8346 406.688C92.3226 407.616 91.0586 408.16 89.7466 408.16C87.6826 408.16 86.7706 407.232 86.7706 405.584C86.7706 403.536 88.1466 402.832 90.1946 402.832H92.8346V402.112C92.8346 401.072 92.4506 400.352 90.7066 400.352C90.1306 400.352 89.4266 400.416 88.8026 400.544V399.328C89.4426 399.248 90.1466 399.2 90.7706 399.2ZM89.8746 407.008C91.3306 407.008 92.3866 406.384 92.8346 405.36V403.936H90.2906C88.8666 403.936 88.1946 404.224 88.1946 405.568C88.1946 406.528 88.6586 407.008 89.8746 407.008ZM101.288 399.2C103.544 399.2 104.184 400.368 104.184 402.016V408H102.792V402.528C102.792 401.2 102.504 400.432 101.144 400.432C100.056 400.432 98.9835 400.64 98.5195 402.16V408H97.1435V399.36H98.5195V400.592C99.0315 399.472 100.232 399.2 101.288 399.2ZM112.922 395.84H114.298V408H113.13L112.922 406.576C112.586 407.488 111.69 408.16 110.106 408.16C107.226 408.16 106.538 406.32 106.538 403.68C106.538 401.312 107.226 399.2 110.106 399.2C111.786 399.2 112.586 399.856 112.922 400.864V395.84ZM110.314 406.992C112.41 406.992 112.97 405.744 112.97 403.68C112.97 401.696 112.41 400.352 110.314 400.352C108.218 400.352 108.01 402 108.01 403.68C108.01 405.488 108.266 406.992 110.314 406.992ZM119.11 408.096C117.83 408.096 117.19 407.552 117.19 406.256V395.84H118.566V405.904C118.566 406.784 118.806 406.944 119.366 406.944C119.558 406.944 119.782 406.928 120.022 406.864V408C119.766 408.064 119.494 408.096 119.11 408.096ZM128.633 402.816C128.633 403.056 128.601 403.424 128.553 403.824L122.697 404.192C122.697 406.064 123.385 406.944 125.465 406.944C126.425 406.944 127.513 406.704 128.169 406.384V407.648C127.641 407.904 126.505 408.16 125.257 408.16C122.697 408.16 121.257 407.12 121.257 403.68C121.257 400.24 122.697 399.2 125.177 399.2C128.121 399.2 128.633 401.136 128.633 402.816ZM122.697 403.168L127.273 402.832C127.273 401.488 127.049 400.336 125.177 400.336C123.193 400.336 122.745 401.408 122.697 403.168ZM135.147 399.2H135.307L135.259 400.448H135.067C133.979 400.448 132.859 400.816 132.395 402.352V408H131.019V399.36H132.395V400.928C132.955 399.488 134.091 399.2 135.147 399.2ZM138.937 410.176H137.801C138.665 408.832 139.305 407.168 139.305 405.968H140.633C140.633 407.36 139.705 409.152 138.937 410.176ZM156.975 399.2C159.231 399.2 159.871 400.368 159.871 402.016V408H158.495V402.528C158.495 401.2 158.207 400.432 156.831 400.432C155.743 400.432 154.671 400.64 154.207 402.16V408H152.831V395.84H154.207V400.592C154.719 399.472 155.919 399.2 156.975 399.2ZM166.146 399.2C168.882 399.2 169.586 400.32 169.586 401.872V408H168.418L168.21 406.688C167.698 407.616 166.434 408.16 165.122 408.16C163.058 408.16 162.146 407.232 162.146 405.584C162.146 403.536 163.522 402.832 165.57 402.832H168.21V402.112C168.21 401.072 167.826 400.352 166.082 400.352C165.506 400.352 164.802 400.416 164.178 400.544V399.328C164.818 399.248 165.522 399.2 166.146 399.2ZM165.25 407.008C166.706 407.008 167.762 406.384 168.21 405.36V403.936H165.666C164.242 403.936 163.57 404.224 163.57 405.568C163.57 406.528 164.034 407.008 165.25 407.008ZM176.663 399.2C178.919 399.2 179.559 400.368 179.559 402.016V408H178.167V402.528C178.167 401.2 177.879 400.432 176.519 400.432C175.431 400.432 174.359 400.64 173.895 402.16V408H172.519V399.36H173.895V400.592C174.407 399.472 175.607 399.2 176.663 399.2ZM188.297 395.84H189.673V408H188.505L188.297 406.576C187.961 407.488 187.065 408.16 185.481 408.16C182.601 408.16 181.913 406.32 181.913 403.68C181.913 401.312 182.601 399.2 185.481 399.2C187.161 399.2 187.961 399.856 188.297 400.864V395.84ZM185.689 406.992C187.785 406.992 188.345 405.744 188.345 403.68C188.345 401.696 187.785 400.352 185.689 400.352C183.593 400.352 183.385 402 183.385 403.68C183.385 405.488 183.641 406.992 185.689 406.992ZM194.485 408.096C193.205 408.096 192.565 407.552 192.565 406.256V395.84H193.941V405.904C193.941 406.784 194.181 406.944 194.741 406.944C194.933 406.944 195.157 406.928 195.397 406.864V408C195.141 408.064 194.869 408.096 194.485 408.096ZM204.008 402.816C204.008 403.056 203.976 403.424 203.928 403.824L198.072 404.192C198.072 406.064 198.76 406.944 200.84 406.944C201.8 406.944 202.888 406.704 203.544 406.384V407.648C203.016 407.904 201.88 408.16 200.632 408.16C198.072 408.16 196.632 407.12 196.632 403.68C196.632 400.24 198.072 399.2 200.552 399.2C203.496 399.2 204.008 401.136 204.008 402.816ZM198.072 403.168L202.648 402.832C202.648 401.488 202.424 400.336 200.552 400.336C198.568 400.336 198.12 401.408 198.072 403.168ZM210.522 399.2H210.682L210.634 400.448H210.442C209.354 400.448 208.234 400.816 207.77 402.352V408H206.394V399.36H207.77V400.928C208.33 399.488 209.466 399.2 210.522 399.2ZM230.005 396.144V397.264H227.925V407.472C227.925 408.896 227.605 409.104 226.261 409.232L224.741 409.376L224.325 408.192L225.861 408.064C226.677 408.016 226.725 407.872 226.725 407.056V397.264H216.341V396.144H230.005ZM217.989 406.096V399.568H223.893V406.096H217.989ZM219.141 400.704V404.96H222.741V400.704H219.141ZM239.691 399.6L238.683 400.4C237.915 398.72 236.891 396.976 236.171 396.032L237.131 395.456C237.867 396.368 238.939 398.128 239.691 399.6ZM242.699 404.544C243.755 405.52 245.019 406.832 245.915 408.112L245.035 409.12C244.219 407.792 243.003 406.4 242.123 405.568C241.163 407.024 239.643 408.24 237.227 409.568L236.443 408.496C241.067 406.064 242.171 403.856 242.475 399.424C242.523 398.928 242.507 397.968 242.523 397.12C242.523 396.624 242.523 396.096 242.539 395.552L243.771 395.6V397.088C243.771 397.92 243.771 398.896 243.723 399.52C243.595 401.616 243.323 403.2 242.699 404.544ZM238.139 402.688L238.875 403.712C238.187 404.272 235.067 406.864 234.235 407.568C233.979 407.808 233.467 408.256 233.147 408.624L232.331 407.632C232.763 407.2 232.907 406.96 232.907 406.592V395.92L234.139 395.968V406.032C234.587 405.648 237.835 402.992 238.139 402.688ZM252.513 402.96L251.713 403.744C251.473 403.312 251.025 402.704 250.641 402.208V409.568H249.569V401.84C249.105 403.072 248.529 404.272 247.873 405.36L246.945 404.672C247.857 403.328 248.897 401.072 249.489 399.264H247.681V398.112H249.569V395.088L250.641 395.136V398.112H252.417V399.264H250.641V401.312L250.913 401.04C251.345 401.472 252.161 402.432 252.513 402.96ZM255.953 395.2H257.041C258.065 397.264 259.745 399.008 261.985 400.544L261.265 401.456C259.137 399.808 257.521 398.288 256.497 396.416C255.537 398.208 254.129 399.696 252.257 401.12L251.553 400.256C253.617 398.768 255.009 397.12 255.953 395.2ZM259.569 400.288V401.36H253.537V400.288H259.569ZM257.377 406.032L256.337 406.416C256.209 405.264 255.697 403.12 255.313 402.144L256.321 401.888C256.705 402.864 257.201 405.008 257.377 406.032ZM259.249 402.016L260.385 402.336C260.049 403.744 259.169 406.144 258.481 407.712H261.217V408.832H251.713V407.712H257.297C257.969 406.192 258.945 403.472 259.249 402.016ZM254.945 406.512L253.937 406.976C253.761 405.744 253.105 403.44 252.641 402.384L253.617 402.048C254.081 403.104 254.769 405.376 254.945 406.512ZM276.519 397.808H271.415C272.999 399.088 275.095 400.16 277.591 400.912C277.351 401.296 277.223 401.616 277.111 401.92C277.095 402 277.015 402.016 276.903 401.968C274.119 400.944 272.327 399.856 270.791 398.448V400.976H269.543V398.432C267.927 399.888 265.911 401.136 263.287 402.16L262.711 401.056C265.223 400.288 267.335 399.088 268.887 397.808H263.831V396.768H269.543V395.136L270.791 395.2V396.768H276.519V397.808ZM265.639 401.536H274.711V406.832H265.639V401.536ZM273.495 402.512H266.855V403.664H273.495V402.512ZM266.855 405.84H273.495V404.64H266.855V405.84ZM263.783 409.072V408.016H276.567V409.072H263.783ZM284.013 405.296L284.045 405.824L282.589 406.112V409.6H281.613V406.288C280.589 406.464 279.565 406.64 278.877 406.72L278.733 405.6C279.453 405.52 280.541 405.344 281.613 405.168V403.104H279.373V401.984C279.677 401.072 280.077 399.648 280.445 398.24H279.069V397.168H280.701C280.893 396.384 281.053 395.648 281.165 395.024L282.205 395.264C282.077 395.84 281.949 396.48 281.773 397.168H284.301V398.24H281.501C281.133 399.648 280.765 401.024 280.429 402.048H281.613V399.824L282.589 399.856V402.048H283.949V403.104H282.589V405.008L283.965 404.736L284.013 405.296ZM287.677 395.248H288.829C289.789 396.832 291.421 398.224 293.341 399.2L292.733 400.224C290.765 399.008 289.245 397.776 288.285 396.24C287.645 397.248 286.893 398.032 285.981 398.816H290.573V399.792H285.965V398.832C285.405 399.328 284.765 399.792 284.061 400.304L283.341 399.328C285.277 398.16 286.669 396.896 287.677 395.248ZM291.133 407.488V400.544L292.141 400.576V407.808C292.141 408.992 291.821 409.36 290.349 409.408L289.645 409.44L289.309 408.416L290.173 408.352C291.069 408.304 291.133 408.128 291.133 407.488ZM284.445 409.424V400.88H288.173V408.064C288.173 409.04 287.869 409.344 286.893 409.408L286.413 409.44L286.093 408.48L286.621 408.416C287.181 408.352 287.277 408.256 287.277 407.76V406.432H285.325V409.424H284.445ZM290.189 401.104V406.816H289.245V401.072L290.189 401.104ZM287.277 401.792H285.325V403.2H287.277V401.792ZM285.325 405.504H287.277V404.096H285.325V405.504ZM308.947 408.352L308.003 409.424C305.043 407.2 303.315 404.32 301.827 400.56C300.739 403.872 298.579 406.96 295.491 409.312L294.579 408.352C296.307 407.056 297.715 405.584 298.787 403.92C299.875 402.24 300.627 400.512 301.027 398.736C300.499 397.776 299.923 397.232 298.803 396.464L299.555 395.584C301.139 396.56 301.827 397.344 302.931 400.272C304.067 403.28 306.211 406.432 308.947 408.352ZM315.625 408.864L314.505 409.536C313.897 408.48 312.745 407.216 311.929 406.56L312.809 405.968C313.785 406.608 314.889 407.792 315.625 408.864ZM90.384 432.616L91.28 433.16C91.232 433.496 91.104 434.168 90.928 434.728C90.656 435.64 90.272 436.296 89.552 436.296C88.8 436.296 88.304 435.784 88.048 434.296C87.92 433.656 87.744 431.784 87.744 429.832V426.056H85.024C85.008 426.312 85.008 426.52 85.008 426.696C84.992 427.896 84.96 428.888 84.848 429.784C85.76 430.344 86.672 430.904 87.312 431.336L86.752 432.472C86.176 432.024 85.424 431.48 84.656 430.968C84.24 433.176 83.36 434.648 81.712 436.552L80.704 435.816C82.448 433.912 83.232 432.52 83.568 430.264C82.944 429.88 82.384 429.576 81.952 429.336L82.432 428.456C82.8 428.632 83.232 428.856 83.696 429.128C83.76 428.408 83.776 427.624 83.824 426.712C83.824 426.536 83.84 426.312 83.84 426.056H82.432V424.952H83.84C83.84 424.264 83.856 423.544 83.856 422.984V422.056L85.072 422.104L85.04 424.952H88.896V429.768C88.896 431.688 89.088 433.416 89.168 434.024C89.248 434.488 89.44 435.016 89.632 435.016C89.872 435.016 90.016 434.552 90.128 434.056C90.24 433.592 90.32 433.112 90.384 432.616ZM81.6 428.632L81.696 429.176C81.264 429.384 80.752 429.592 80.16 429.832V434.744C80.16 435.912 79.776 436.088 78.496 436.216L77.68 436.296L77.28 435.112L78.128 435.048C78.896 435 78.992 434.856 78.992 434.264V430.296C78.24 430.568 77.472 430.84 76.832 431.032L76.56 429.912C77.216 429.72 78.096 429.416 78.992 429.048V426.088H77.04V424.968H78.992V422.136L80.16 422.184V424.968H81.84V426.088H80.16V428.584C80.672 428.376 81.136 428.184 81.52 428.008L81.6 428.632ZM96.518 422.184L97.414 422.984C96.39 424.344 94.694 425.976 93.35 427.048L92.678 426.056C93.894 425.144 95.542 423.464 96.518 422.184ZM105.942 423.08V424.232H98.63V423.08H105.942ZM96.518 426.232L97.446 426.952C97.078 427.592 96.55 428.28 95.974 428.968V436.456H94.774V430.28C94.118 430.968 93.446 431.576 92.822 432.072L92.118 431.064C93.782 429.816 95.622 427.768 96.518 426.232ZM106.742 427.688V428.84H104.054V434.36C104.054 435.816 103.494 436.216 101.91 436.344L100.726 436.456L100.358 435.224L101.622 435.128C102.566 435.08 102.774 434.888 102.774 434.008V428.84H97.686V427.688H106.742ZM118.06 425.192H121.708C121.644 426.312 121.468 432.728 121.404 434.072C121.356 435.608 120.86 435.944 119.02 436.152L118.092 436.264L117.724 435.016L118.764 434.92C119.964 434.792 120.236 434.632 120.284 433.496C120.348 432.456 120.492 427.416 120.556 426.36H118.028C117.836 432.024 117.596 433.704 115.02 436.856L113.996 436.136C116.508 433.304 116.668 431.832 116.86 426.36H114.828V425.192H116.876L116.924 423.208C116.94 422.856 116.94 422.504 116.94 422.152L118.108 422.216C118.092 422.52 118.092 422.856 118.092 423.192L118.06 425.192ZM114.876 423.4V424.536H109.212V423.4H114.876ZM115.276 434.36L114.236 435.032L113.996 434.168C112.764 434.344 110.476 434.696 109.964 434.744C109.596 434.792 109.292 434.888 108.956 435L108.508 433.784C108.94 433.608 109.036 433.384 109.212 433.08C109.644 432.168 110.46 430.088 110.924 428.52H108.396V427.368H115.372V428.52H112.156C111.692 430.056 110.844 432.472 110.3 433.496C110.828 433.416 112.572 433.176 113.612 433.048C113.228 432.008 112.796 430.936 112.428 430.248L113.5 429.832C114.044 430.936 114.972 433.176 115.276 434.36ZM137.97 425.72H132.978V428.232H137.09V429.384H132.978V431.976H137.378V433.144H132.978V436.632H131.746V425.72H131.026C130.434 426.808 129.698 427.96 128.626 429.304L127.746 428.456C129.57 426.248 130.546 424.296 131.266 422.168L132.386 422.632C132.178 423.224 131.938 423.816 131.634 424.504H137.97V425.72ZM127.442 422.424L128.626 422.888C128.258 423.784 127.842 424.824 127.266 425.976V436.568H126.05V428.12C125.57 428.856 125.026 429.576 124.434 430.296L123.57 429.4C125.634 427.048 126.722 424.504 127.442 422.424ZM142.312 437.176H141.176C142.04 435.832 142.68 434.168 142.68 432.968H144.008C144.008 434.36 143.08 436.152 142.312 437.176ZM169.79 429.816V431H166.046V436.648H164.814V431H160.638C160.382 433.816 159.566 435.112 157.262 436.856L156.318 435.944C158.606 434.328 159.278 433.256 159.454 431H155.454V429.816H159.518V428.92V426.12H156.334V424.984H159.982C159.63 424.168 159.086 423.112 158.702 422.472L159.822 421.992C160.206 422.632 160.878 423.896 161.23 424.664L160.686 424.984H163.966C164.606 424.088 165.262 422.808 165.598 422.04L166.814 422.488C166.526 423.128 165.934 424.184 165.438 424.984H168.958V426.12H166.046V429.816H169.79ZM160.702 429.816H164.814V426.12H160.718V428.792C160.718 429.16 160.718 429.496 160.702 429.816ZM185.044 425.192H176.772C176.212 426.44 175.556 427.592 174.772 428.648V436.552H173.588V430.136C172.996 430.824 172.356 431.448 171.652 432.088L170.82 431.144C172.82 429.496 174.356 427.48 175.46 425.192H171.444V424.04H175.988C176.292 423.336 176.532 422.632 176.74 421.912L177.892 422.2C177.716 422.824 177.508 423.432 177.268 424.04H185.044V425.192ZM180.724 434.328H185.188V435.464H175.284V434.328H179.524V430.184H175.956V429.032H179.524V426.344L180.724 426.392V429.032H184.452V430.184H180.724V434.328ZM195.85 425.304L195.002 426.296C194.282 425.272 192.634 423.608 191.786 422.888L192.57 422.104C193.466 422.824 195.13 424.456 195.85 425.304ZM197.226 434.136C197.354 433.544 197.434 432.728 197.45 432.024L198.666 432.488C198.602 433.304 198.506 434.168 198.314 434.984C198.138 435.752 197.514 436.072 195.562 436.2C194.746 436.248 194.234 436.248 193.418 436.2C191.738 436.12 191.146 435.672 191.146 433.992V433.8C190.122 434.52 188.97 435.208 187.626 435.96L186.938 434.904C188.57 434.056 189.978 433.192 191.146 432.312V424.952L192.378 425V431.288C194.81 429.112 196.298 426.664 197.85 423.352L198.922 423.912C197.034 427.896 195.418 430.456 192.378 432.888V433.672C192.378 434.712 192.682 434.936 193.77 435.016C194.426 435.064 194.778 435.064 195.434 435.016C196.73 434.936 197.098 434.744 197.226 434.136ZM188.522 426.216L189.77 426.456C189.514 428.072 188.858 430.696 188.266 432.344L187.002 432.056C187.642 430.472 188.266 427.912 188.522 426.216ZM197.738 427.464L198.762 426.904C199.482 428.008 200.714 430.248 201.402 431.848L200.298 432.52C199.658 430.856 198.506 428.584 197.738 427.464ZM207.568 425.592V424.008H203.392V422.968H216.176V424.008H212V425.592H215.456V429.16H204.112V425.592H207.568ZM210.896 425.592V424.008H208.656V425.592H210.896ZM205.248 426.568V428.168H207.568V426.568H205.248ZM208.656 426.568V428.168H210.896V426.568H208.656ZM214.32 426.568H212V428.168H214.32V426.568ZM216.864 431.672H213.712C213.152 432.68 212.544 433.432 211.696 434.056C213.168 434.504 214.608 434.952 215.904 435.384L215.584 436.552C214.048 435.96 212.304 435.352 210.496 434.792C208.976 435.544 206.816 436.024 203.6 436.488L203.168 435.352C205.808 435.048 207.584 434.712 208.88 434.28C207.6 433.896 206.352 433.528 205.2 433.224C205.584 432.776 205.984 432.232 206.368 431.672H202.704V430.712H206.976C207.28 430.184 207.552 429.656 207.792 429.192L209.008 429.528C208.8 429.96 208.592 430.344 208.384 430.712H216.864V431.672ZM207.072 432.744C208.032 433 209.136 433.288 210.336 433.656C211.248 433.144 211.792 432.488 212.304 431.672H207.824C207.568 432.072 207.312 432.44 207.072 432.744ZM232.838 425.32V426.488H230.758V434.216C230.758 435.784 230.278 436.248 228.23 436.376L227.35 436.44L226.934 435.144L228.054 435.08C229.382 435 229.462 434.792 229.462 433.816V426.488H224.646V425.32H229.462V422.168L230.758 422.216V425.32H232.838ZM219.414 435.192V423.48H224.134V435.192H219.414ZM223.03 424.696H220.518V428.696H223.03V424.696ZM228.358 431.576L227.35 432.248C226.918 431.064 225.862 429.048 225.222 428.12L226.198 427.576C226.838 428.52 227.926 430.536 228.358 431.576ZM220.518 433.96H223.03V429.848H220.518V433.96ZM238.348 425.224L237.452 426.088C236.988 425.208 235.9 423.88 235.308 423.24L236.156 422.52C236.748 423.112 237.868 424.536 238.348 425.224ZM238.972 433.896L238.012 433.224C239.388 431.384 239.82 429.752 239.82 426.584V423.368C242.46 423.288 245.308 422.984 247.532 422.6L247.74 423.736C245.756 424.12 243.34 424.36 240.972 424.472V426.28H247.34V427.384C246.908 428.648 246.22 429.832 245.26 430.936C246.332 431.896 247.308 432.84 247.9 433.56L247.196 434.616C246.572 433.8 245.58 432.76 244.492 431.736C243.484 432.744 242.22 433.656 240.716 434.472L239.916 433.56C241.436 432.792 242.652 431.912 243.66 430.968C242.7 430.088 241.804 429.336 241.116 428.84L241.74 428.056C242.444 428.552 243.388 429.336 244.396 430.184C245.196 429.288 245.772 428.36 246.14 427.384H240.972C240.892 430.296 240.252 431.944 238.972 433.896ZM242.732 434.888C244.652 434.936 246.7 434.92 248.748 434.808L248.492 435.976C246.492 436.056 244.764 436.072 243.036 436.024C239.628 435.944 238.636 435.912 236.876 434.024C236.332 434.648 235.868 435.256 234.924 436.152L234.108 435.176C234.956 434.456 235.564 433.768 236.332 432.888V428.584H234.428V427.448H237.484V433.096C239.004 434.664 239.884 434.84 242.732 434.888ZM250.978 422.968H263.106V436.44H261.858V435.416H252.21V436.44H250.978V422.968ZM252.21 434.216H261.858V424.2H252.21V434.216ZM254.178 426.36H259.842V432.056H254.178V426.36ZM258.754 430.968V427.448H255.282V430.968H258.754ZM279.944 428.12V429.48H265.8V428.12H279.944ZM282.078 429.672L281.214 428.6C284.158 426.888 286.638 424.456 288.078 422.2H289.182C290.798 424.632 293.054 426.728 295.998 428.52L295.102 429.64C292.878 428.056 290.158 425.768 288.638 423.528C287.038 425.848 284.686 427.944 282.078 429.672ZM287.982 427.176L289.278 427.24V436.616H287.982V427.176ZM83.344 449.84H84.72V462H83.552L83.344 460.576C83.008 461.488 82.112 462.16 80.528 462.16C77.648 462.16 76.96 460.32 76.96 457.68C76.96 455.312 77.648 453.2 80.528 453.2C82.208 453.2 83.008 453.856 83.344 454.864V449.84ZM80.736 460.992C82.832 460.992 83.392 459.744 83.392 457.68C83.392 455.696 82.832 454.352 80.736 454.352C78.64 454.352 78.432 456 78.432 457.68C78.432 459.488 78.688 460.992 80.736 460.992ZM94.4763 456.816C94.4763 457.056 94.4443 457.424 94.3963 457.824L88.5403 458.192C88.5403 460.064 89.2283 460.944 91.3083 460.944C92.2683 460.944 93.3563 460.704 94.0123 460.384V461.648C93.4843 461.904 92.3483 462.16 91.1003 462.16C88.5403 462.16 87.1003 461.12 87.1003 457.68C87.1003 454.24 88.5403 453.2 91.0203 453.2C93.9643 453.2 94.4763 455.136 94.4763 456.816ZM88.5403 457.168L93.1163 456.832C93.1163 455.488 92.8923 454.336 91.0203 454.336C89.0363 454.336 88.5883 455.408 88.5403 457.168ZM100.35 462.16C97.7903 462.16 96.3503 461.12 96.3503 457.68C96.3503 454.24 97.7903 453.2 100.35 453.2C101.31 453.2 102.11 453.344 102.606 453.52V454.784C101.966 454.544 101.262 454.4 100.366 454.4C98.4623 454.4 97.8223 455.152 97.8223 457.696C97.8223 460.208 98.4623 460.944 100.382 460.944C101.198 460.944 102.014 460.832 102.638 460.576V461.84C102.174 462.016 101.15 462.16 100.35 462.16ZM105.519 451.776C104.895 451.776 104.687 451.664 104.687 450.96C104.687 450.24 104.895 450.144 105.519 450.144C106.095 450.144 106.335 450.24 106.335 450.96C106.335 451.664 106.095 451.776 105.519 451.776ZM104.815 462V453.36H106.191V462H104.815ZM111.097 462.096C110.249 462.096 109.065 461.952 108.585 461.824V460.64C109.193 460.816 110.297 460.976 111.081 460.976C112.409 460.976 113.081 460.672 113.081 459.648C113.081 458.624 112.793 458.416 111.145 458.032C109.241 457.616 108.729 456.992 108.729 455.536C108.729 454.128 109.769 453.2 111.833 453.2C112.665 453.2 113.577 453.312 114.009 453.488L113.913 454.656C113.417 454.464 112.665 454.32 111.849 454.32C110.633 454.32 110.025 454.592 110.025 455.568C110.025 456.448 110.329 456.656 111.673 456.944C113.657 457.424 114.377 457.92 114.377 459.6C114.377 461.328 113.225 462.096 111.097 462.096ZM117.457 451.776C116.833 451.776 116.625 451.664 116.625 450.96C116.625 450.24 116.833 450.144 117.457 450.144C118.033 450.144 118.273 450.24 118.273 450.96C118.273 451.664 118.033 451.776 117.457 451.776ZM116.753 462V453.36H118.129V462H116.753ZM124.522 462.16C121.962 462.16 120.522 461.12 120.522 457.68C120.522 454.24 121.962 453.2 124.522 453.2C127.082 453.2 128.506 454.24 128.506 457.68C128.506 461.12 127.082 462.16 124.522 462.16ZM124.522 460.992C126.49 460.992 127.05 460.208 127.05 457.68C127.05 455.168 126.41 454.352 124.522 454.352C122.586 454.352 121.994 455.168 121.994 457.68C121.994 460.208 122.65 460.992 124.522 460.992ZM135.069 453.2C137.325 453.2 137.965 454.368 137.965 456.016V462H136.573V456.528C136.573 455.2 136.285 454.432 134.925 454.432C133.837 454.432 132.765 454.64 132.301 456.16V462H130.925V453.36H132.301V454.592C132.813 453.472 134.013 453.2 135.069 453.2ZM143.407 463.776C142.255 463.776 141.279 463.104 141.279 461.76C141.279 460.416 142.255 459.744 143.407 459.744C144.559 459.744 145.535 460.416 145.535 461.76C145.535 463.104 144.543 463.776 143.407 463.776ZM143.407 462.928C144.095 462.928 144.607 462.528 144.607 461.76C144.607 460.992 144.095 460.592 143.407 460.592C142.719 460.592 142.207 460.992 142.207 461.76C142.207 462.528 142.719 462.928 143.407 462.928Z" fill="#575757"/>
<ellipse cx="331" cy="669.5" rx="41" ry="9.5" fill="#DDE1AC"/>
<path d="M293.358 592.243C291.157 586.874 289.714 573.626 301.544 563.592C303.393 560.555 309.559 552.534 314.312 549.999C309.691 551.98 309.03 545.246 312.727 543.397C315.94 541.791 320.65 545.378 317.877 548.415C321.574 547.314 335.305 545.774 346.568 548.804C346.925 544.19 350.925 542.104 354.358 543.918C357.619 545.642 359.864 550.527 352.47 551.98C356.299 555.017 363.865 567.289 365.845 576.003C373.899 607.691 391.988 657.469 356.339 663.542C356.085 663.585 355.821 663.627 355.547 663.666C355.591 665.649 356.471 669.748 351.982 670.012C347.493 670.276 348.444 666.271 348.524 664.202C337.774 664.574 322.11 663.725 312.635 663.008C312.723 665.034 312.311 668.443 310.259 668.956C309.202 669.22 308.278 669.22 306.958 668.956C305.637 668.692 304.95 666.157 305.373 662.354C296.791 661.298 272.232 648.226 293.358 592.243Z" fill="#FFFBE3"/>
<path d="M318.141 567.597L320.649 569.012L323.29 567.597M320.649 570.2V575.746M320.649 575.746L318.933 576.538M320.649 575.746L322.366 576.538" stroke="#1C140A" stroke-linecap="round"/>
<path d="M302.996 612.841L307.09 618.65C307.199 618.87 307.102 619.334 306.814 619.615C306.543 619.88 306.189 620.076 306.028 620.419C305.948 620.589 305.832 620.698 305.505 620.763C303.921 621.08 299.123 617.814 296.923 616.142M327.423 613.237C325.575 614.909 321.825 618.333 321.613 618.65C321.528 618.779 321.636 619.188 321.857 619.541C322.149 620.009 322.625 620.656 323.099 620.938C323.435 621.138 323.973 621.237 324.782 621.159C328.057 620.842 332.308 618.21 334.025 616.934" stroke="#1C140A" stroke-width="0.5"/>
<path d="M309.125 567.084C309.209 567.122 309.333 567.246 309.392 567.5C309.448 567.744 309.43 568.066 309.276 568.401C309.009 568.981 308.269 569.212 307.695 568.947C307.546 568.879 307.466 568.756 307.488 568.492C307.512 568.209 307.66 567.865 307.872 567.606C308.151 567.265 308.403 567.109 308.601 567.049C308.792 566.99 308.966 567.01 309.125 567.084ZM337.841 568.666C338.091 568.81 338.339 569.068 338.504 569.298C338.668 569.525 338.796 569.791 338.825 570.029C338.849 570.237 338.803 570.425 338.59 570.603C338.376 570.781 338.103 570.8 337.802 570.67C337.487 570.534 337.229 570.264 337.132 570.013C337 569.674 336.961 569.391 336.996 569.17C337.029 568.965 337.13 568.78 337.354 568.618C337.459 568.543 337.595 568.524 337.841 568.666Z" fill="#3C1814" stroke="#100000"/>
<circle cx="307.775" cy="567.359" r="7.54008" transform="rotate(0.40478 307.775 567.359)" stroke="black" stroke-width="0.5"/>
<path d="M315.44 566.488C317.278 565.505 322.571 564.147 327.455 566.573" stroke="black" stroke-width="0.5"/>
<path d="M300.118 567.172L298.798 567.163" stroke="black" stroke-width="0.5" stroke-linecap="round"/>
<path d="M342.633 567.473L344.085 567.483" stroke="black" stroke-width="0.5" stroke-linecap="round"/>
<circle cx="334.833" cy="568.87" r="7.54008" transform="rotate(0.40478 334.833 568.87)" stroke="black" stroke-width="0.5"/>
<g filter="url(#filter1_d_314_1084)">
<circle cx="69.5" cy="91.5" r="20.5" fill="#FDF9EE"/>
</g>
<g clip-path="url(#clip1_314_1084)">
<path d="M63 91H77" stroke="#44423D" stroke-width="1.5" stroke-linecap="round" stroke-linejoin="round"/>
<path d="M70 84L63 91L70 98" stroke="#44423D" stroke-width="1.5" stroke-linecap="round" stroke-linejoin="round"/>
</g>
<path d="M175.345 87.86H180.845V89H163.005V87.86H168.645C168.485 87.24 168.265 86.46 168.085 85.92H164.365V84.76H171.205C170.985 84.12 170.785 83.48 170.565 83.06L172.065 82.8C172.245 83.3 172.545 84.1 172.765 84.76H179.505V85.92H175.905C175.745 86.54 175.565 87.24 175.345 87.86ZM169.585 85.92L170.125 87.86H173.905C174.125 87.24 174.305 86.56 174.445 85.92H169.585ZM172.705 96.2V97.52H180.505V98.76H172.705V101.22H171.145V98.76H163.365V97.52H171.145V96.2H165.545V90.3H178.325V96.2H172.705ZM176.805 91.42H167.065V92.68H176.805V91.42ZM167.065 93.8V95.08H176.805V93.8H167.065ZM195.413 85.36H200.493V86.84H195.413V89H193.913V86.84H189.353V89H187.853V86.84H182.753V85.36H187.853V82.92L189.353 82.98V85.36H193.913V82.92L195.413 82.98V85.36ZM183.533 91.42V89.96H198.313L198.233 92.36C198.173 93.62 198.093 95.04 198.093 95.58C197.993 97.88 197.253 98.46 194.273 98.62L192.773 98.68L192.173 97.12L194.133 97.04C196.093 96.94 196.393 96.64 196.493 95.08C196.493 94.76 196.633 91.94 196.633 91.42H189.853V101.08H188.273V91.42H183.533ZM219.16 96L220.24 96.44C220.24 97.04 220.18 97.74 220.06 98.54C219.84 99.88 219.62 100.3 218.44 100.3H217.62C216.52 100.3 216.08 99.86 216.08 98.4V95.02C215.36 97.02 214.24 98.84 212.56 100.68L211.52 99.72C212.14 99.08 212.68 98.44 213.16 97.82L212.34 98.16C212.24 97.84 212.16 97.52 212.02 97.18L209 99.16C208.78 99.3 208.56 99.48 208.34 99.7L207.62 98.5C208 98.16 208.12 97.96 208.12 97.56V92.52L207.28 93.22C206.9 92.58 206.42 91.86 205.94 91.24V100.7H204.68V91.88C204.18 93.18 203.58 94.4 202.92 95.56L201.76 94.6C202.76 93 203.92 90.4 204.56 88H202.58V86.56H204.68V82.82L205.94 82.88V86.56H207.66V88H205.94V90.46L206.46 90.02C206.94 90.56 207.64 91.5 208.12 92.24V83.86H212.54V92.94H209.26V97.5C209.64 97.22 210.86 96.42 211.54 95.96C211.28 95.32 211.04 94.72 210.74 94.16L211.74 93.72C212.28 94.84 212.88 96.28 213.34 97.58C214.54 95.88 215.26 94.12 215.68 92.12H213.56V90.82L213.98 86.4L215.12 86.52L214.72 90.76H215.92C216.06 90.02 216.1 89.26 216.16 88.4C216.16 88.08 216.28 86.24 216.28 85.24H213.5V83.9H219.66V85.24H217.48C217.48 86.2 217.4 87.98 217.34 88.3C217.28 89.16 217.2 89.98 217.1 90.76H219.78V92.12H216.86C216.78 92.54 216.7 92.94 216.6 93.32L217.26 93.36V98.22C217.26 98.86 217.42 99.02 217.96 99.02H218.24C218.8 99.02 218.92 98.9 219.02 98.2C219.08 97.68 219.16 96.52 219.16 96ZM211.4 85.12H209.26V87.82H211.4V85.12ZM209.26 91.66H211.4V89.02H209.26V91.66ZM228.148 87.24V85.26H222.928V83.96H238.908V85.26H233.688V87.24H238.008V91.7H223.827V87.24H228.148ZM232.308 87.24V85.26H229.508V87.24H232.308ZM225.248 88.46V90.46H228.148V88.46H225.248ZM229.508 88.46V90.46H232.308V88.46H229.508ZM236.588 88.46H233.688V90.46H236.588V88.46ZM239.768 94.84H235.828C235.128 96.1 234.368 97.04 233.308 97.82C235.148 98.38 236.948 98.94 238.568 99.48L238.168 100.94C236.248 100.2 234.068 99.44 231.808 98.74C229.908 99.68 227.208 100.28 223.188 100.86L222.648 99.44C225.948 99.06 228.168 98.64 229.788 98.1C228.188 97.62 226.628 97.16 225.188 96.78C225.668 96.22 226.168 95.54 226.648 94.84H222.068V93.64H227.408C227.788 92.98 228.128 92.32 228.428 91.74L229.948 92.16C229.688 92.7 229.428 93.18 229.168 93.64H239.768V94.84ZM227.528 96.18C228.728 96.5 230.108 96.86 231.608 97.32C232.748 96.68 233.428 95.86 234.068 94.84H228.468C228.148 95.34 227.828 95.8 227.528 96.18Z" fill="#575757"/>
<path d="M56.5 660.111H-3C3.80913 645.418 15.1402 647.555 21.5 651.275C21.3966 649.449 21.2997 646.923 21.2628 644.139C20.8067 642.915 20.0873 641.699 19 640.612C9.5 637.11 3.33535 626.658 8 624.112C13.5 621.11 18.5 632.61 19 640.612C20.0873 641.699 20.8067 642.915 21.2628 644.139C21.1808 637.945 21.3961 630.475 22.5 626.612C17 618.61 21 604.61 27 606.112C34.0625 607.879 30 622.61 22.5 626.612C21.3961 630.475 21.1808 637.945 21.2628 644.139C22.317 646.968 21.9653 649.841 21.5 651.275C22.1667 649.221 24.2 644.612 27 642.612C26 635.61 37.5 624.61 42 629.111C45.7575 632.869 39.5 639.61 27 642.612C24.2 644.612 22.1667 649.221 21.5 651.275C22.2387 651.707 22.9103 652.16 23.5 652.611C39.5 642.611 52.1667 653.445 56.5 660.111Z" fill="#E0E5BA"/>
<path d="M21.5 651.275C22.2387 651.707 22.9103 652.16 23.5 652.611C39.5 642.611 52.1667 653.445 56.5 660.111H-3C3.80913 645.418 15.1402 647.555 21.5 651.275ZM21.5 651.275C21.1667 645.387 20.9 632.212 22.5 626.612M21.5 651.275C22.1667 649.221 24.2 644.612 27 642.612M21.5 651.275C22.1667 649.221 22.6 644.212 19 640.612M22.5 626.612C17 618.61 21 604.61 27 606.112C34.0625 607.879 30 622.61 22.5 626.612ZM27 642.612C26 635.61 37.5 624.61 42 629.111C45.7575 632.869 39.5 639.61 27 642.612ZM19 640.612C9.5 637.11 3.33535 626.658 8 624.112C13.5 621.11 18.5 632.61 19 640.612Z" stroke="#DDE1AC"/>
<rect x="49" y="715" width="303" height="53" rx="15" fill="#A5AE66"/>
<path d="M180.462 739.713L182.286 739.617C182.606 738.993 182.894 738.401 183.15 737.841L184.078 738.257C183.294 740.017 181.806 742.593 181.07 743.665C181.662 743.617 183.054 743.345 183.534 743.265L183.566 744.385L180.382 744.881C180.11 744.929 179.87 744.945 179.55 745.057L179.31 743.889C179.742 743.713 179.838 743.649 180.014 743.393C180.59 742.577 181.182 741.633 181.71 740.673C181.07 740.721 180.126 740.737 179.87 740.785C179.678 740.801 179.518 740.833 179.214 740.897L179.006 739.777C179.31 739.633 179.342 739.585 179.486 739.345C180.03 738.577 181.006 736.689 181.598 735.057L182.638 735.425C182.078 736.833 181.086 738.753 180.462 739.713ZM188.542 747.105V743.121C187.854 744.273 187.006 745.297 186.046 746.177L185.534 745.105C186.734 744.097 187.758 742.817 188.398 741.489H185.774V740.401H188.542V735.089L189.646 735.121V740.401H192.67V741.489H189.646V742.929L190.094 742.481C190.862 743.073 192.27 744.417 192.862 745.169L192.094 746.081C191.582 745.313 190.414 744.145 189.646 743.457V747.105H188.542ZM185.374 747.633H193.118V748.769H184.238V735.633L185.374 735.665V747.633ZM188.078 739.121L187.23 739.681C186.942 738.817 186.126 737.249 185.63 736.625L186.462 736.161C186.926 736.833 187.79 738.353 188.078 739.121ZM191.694 736.225L192.67 736.577C192.334 737.425 191.486 738.865 190.958 739.569L190.094 739.137C190.606 738.513 191.406 737.025 191.694 736.225ZM183.774 746.337L183.822 746.881L183.886 747.521C182.718 747.729 180.142 748.177 178.846 748.385L178.75 747.217C179.998 747.041 182.574 746.545 183.774 746.337ZM203.46 738.881V737.377H200.244V736.401H203.46V734.849L204.532 734.897V736.401H208.036V737.377H204.532V738.881H208.276V739.857L207.332 742.129L206.404 741.841L207.236 739.905H199.828V738.881H203.46ZM195.588 740.801C195.396 740.817 195.236 740.849 194.932 740.913L194.692 739.841C194.948 739.729 195.06 739.617 195.236 739.377C195.764 738.641 196.82 736.529 197.428 734.993L198.356 735.377C197.812 736.737 196.756 738.849 196.244 739.697C196.532 739.649 197.524 739.585 198.084 739.585C198.452 738.897 198.74 738.305 198.996 737.745L199.86 738.161C199.092 739.825 197.7 742.353 196.836 743.553C197.396 743.473 198.676 743.281 199.444 743.153V744.241L196.164 744.753C195.86 744.801 195.668 744.833 195.284 744.945L194.996 743.873C195.332 743.745 195.604 743.585 195.812 743.281C196.388 742.465 196.948 741.569 197.476 740.673C196.82 740.721 195.828 740.801 195.588 740.801ZM203.684 741.665L203.268 742.529C202.612 742.001 201.268 741.249 200.644 741.041L201.028 740.241C201.828 740.577 203.028 741.233 203.684 741.665ZM208.868 745.665H204.82C204.772 745.809 204.708 745.937 204.644 746.065C205.828 746.657 207.716 747.729 208.58 748.337L208.1 749.425C207.204 748.785 205.268 747.537 204.116 746.945C203.236 748.049 201.78 748.801 199.348 749.489L198.9 748.433C201.7 747.713 203.06 746.929 203.684 745.665H199.524V744.641H204.036C204.148 744.113 204.212 743.505 204.228 742.849C204.228 742.337 204.276 740.785 204.276 740.305L205.316 740.353L205.252 742.737C205.236 743.441 205.188 744.081 205.076 744.641H208.868V745.665ZM199.956 742.801L200.356 742.017C201.236 742.353 202.484 743.073 203.076 743.537L202.66 744.321C202.02 743.809 200.644 743.057 199.956 742.801ZM199.78 746.753L199.812 747.233C198.388 747.585 196.356 747.985 194.724 748.241L194.58 747.089C196.116 746.881 198.164 746.465 199.748 746.081L199.78 746.753Z" fill="white"/>
</g>
<defs>
<filter id="filter0_d_314_1084" x="45" y="194" width="311" height="416" filterUnits="userSpaceOnUse" color-interpolation-filters="sRGB">
<feFlood flood-opacity="0" result="BackgroundImageFix"/>
<feColorMatrix in="SourceAlpha" type="matrix" values="0 0 0 0 0 0 0 0 0 0 0 0 0 0 0 0 0 0 127 0" result="hardAlpha"/>
<feOffset dy="4"/>
<feGaussianBlur stdDeviation="2"/>
<feComposite in2="hardAlpha" operator="out"/>
<feColorMatrix type="matrix" values="0 0 0 0 0.596078 0 0 0 0 0.639216 0 0 0 0 0.368627 0 0 0 0.2 0"/>
<feBlend mode="normal" in2="BackgroundImageFix" result="effect1_dropShadow_314_1084"/>
<feBlend mode="normal" in="SourceGraphic" in2="effect1_dropShadow_314_1084" result="shape"/>
</filter>
<filter id="filter1_d_314_1084" x="47.5" y="71" width="44" height="44.5" filterUnits="userSpaceOnUse" color-interpolation-filters="sRGB">
<feFlood flood-opacity="0" result="BackgroundImageFix"/>
<feColorMatrix in="SourceAlpha" type="matrix" values="0 0 0 0 0 0 0 0 0 0 0 0 0 0 0 0 0 0 127 0" result="hardAlpha"/>
<feOffset dy="2"/>
<feGaussianBlur stdDeviation="0.75"/>
<feComposite in2="hardAlpha" operator="out"/>
<feColorMatrix type="matrix" values="0 0 0 0 0.596078 0 0 0 0 0.639216 0 0 0 0 0.368627 0 0 0 0.15 0"/>
<feBlend mode="normal" in2="BackgroundImageFix" result="effect1_dropShadow_314_1084"/>
<feBlend mode="normal" in="SourceGraphic" in2="effect1_dropShadow_314_1084" result="shape"/>
</filter>
<clipPath id="clip0_314_1084">
<rect width="402" height="874" fill="white"/>
</clipPath>
<clipPath id="clip1_314_1084">
<rect width="24" height="24" fill="white" transform="translate(58 79)"/>
</clipPath>
</defs>
</svg>
