<svg width="44" height="45" viewBox="0 0 44 45" fill="none" xmlns="http://www.w3.org/2000/svg">
<g filter="url(#filter0_d_0_1)">
<circle cx="22" cy="20.5" r="20.5" fill="#FDF9EE"/>
</g>
<path d="M19.5526 25.8699H15.5529C15.1315 25.8699 14.8991 25.3805 15.1655 25.0539L16.0717 23.9426C16.1445 23.8534 16.1842 23.7418 16.1842 23.6266V16.4743C16.1842 16.4054 16.1974 16.3386 16.2266 16.2763C17.5649 13.419 23.3132 9.88037 27.8802 16.2382C27.9401 16.3216 27.9737 16.425 27.9737 16.5276V23.5676C27.9737 23.7176 28.0411 23.8597 28.1572 23.9547L29.4148 24.9828C29.7787 25.2802 29.5684 25.8699 29.0984 25.8699H25.0263M19.5526 25.8699C19.4123 27.2466 19.7211 30 22.0789 30C24.4368 30 25.0263 27.2466 25.0263 25.8699M19.5526 25.8699H25.0263M22.0789 11V12.2391" stroke="#44423D" stroke-width="1.5" stroke-linecap="round"/>
<defs>
<filter id="filter0_d_0_1" x="0" y="0" width="44" height="44.5" filterUnits="userSpaceOnUse" color-interpolation-filters="sRGB">
<feFlood flood-opacity="0" result="BackgroundImageFix"/>
<feColorMatrix in="SourceAlpha" type="matrix" values="0 0 0 0 0 0 0 0 0 0 0 0 0 0 0 0 0 0 127 0" result="hardAlpha"/>
<feOffset dy="2"/>
<feGaussianBlur stdDeviation="0.75"/>
<feComposite in2="hardAlpha" operator="out"/>
<feColorMatrix type="matrix" values="0 0 0 0 0.596078 0 0 0 0 0.639216 0 0 0 0 0.368627 0 0 0 0.15 0"/>
<feBlend mode="normal" in2="BackgroundImageFix" result="effect1_dropShadow_0_1"/>
<feBlend mode="normal" in="SourceGraphic" in2="effect1_dropShadow_0_1" result="shape"/>
</filter>
</defs>
</svg>
