<svg width="329" height="143" viewBox="0 0 329 143" fill="none" xmlns="http://www.w3.org/2000/svg">
<ellipse cx="263" cy="117.498" rx="41" ry="9.5" fill="#DDE1AC"/>
<g filter="url(#filter0_d_380_1042)">
<rect x="4" y="53" width="321" height="82" rx="15" fill="#FDFAF2"/>
</g>
<g filter="url(#filter1_d_380_1042)">
<rect x="4" y="53" width="321" height="82" rx="15" fill="#FDFAF2"/>
</g>
<path d="M303.601 110.548L305.921 113.631C305.764 111.914 305.557 110.049 305.296 108.236L305.921 106.438C312.568 105.667 316.189 95.4536 312.568 93.8501C309.667 92.5654 305.184 98.9877 305.921 106.438L305.296 108.236C304.732 104.318 303.916 100.645 302.81 99.2448C305.711 95.6481 303.205 82.8035 297.272 84.0879C293.844 84.8301 296.217 95.905 302.81 99.2448C303.916 100.645 304.732 104.318 305.296 108.236C305.557 110.049 305.764 111.914 305.921 113.631L303.601 110.548C303.601 106.695 294.371 98.9877 291.47 102.584C289.121 105.497 295.954 112.346 303.601 110.548Z" fill="#DDE2AD"/>
<path d="M305.296 108.236C305.557 110.049 305.764 111.914 305.921 113.631C306.072 115.284 306.177 116.799 306.239 117.998M302.81 99.2448C303.916 100.645 304.732 104.318 305.296 108.236M302.81 99.2448C305.711 95.6481 303.205 82.8035 297.272 84.0879C293.844 84.8301 296.217 95.905 302.81 99.2448ZM305.921 113.631L303.601 110.548M303.601 110.548C303.601 106.695 294.371 98.9877 291.47 102.584C289.121 105.497 295.954 112.346 303.601 110.548ZM305.296 108.236L305.921 106.438M305.921 106.438C312.568 105.667 316.189 95.4536 312.568 93.8501C309.667 92.5654 305.184 98.9877 305.921 106.438Z" stroke="#DDE1AC" stroke-width="2"/>
<path d="M226.243 57.2413C224.042 51.8718 222.598 38.6243 234.429 28.5896C236.277 25.5528 242.443 17.5323 247.197 14.9973C242.575 16.9778 241.915 10.244 245.612 8.39528C248.825 6.78883 253.534 10.376 250.762 13.4128C254.459 12.3125 268.19 10.7721 279.453 13.8016C279.809 9.18765 283.81 7.10163 287.243 8.91633C290.504 10.64 292.749 15.5254 285.355 16.9777C289.184 20.0146 296.749 32.2866 298.73 41.0009C306.784 72.6894 324.873 122.467 289.224 128.54C288.97 128.584 288.706 128.625 288.431 128.664C288.475 130.647 289.356 134.746 284.867 135.01C280.377 135.274 281.329 131.269 281.408 129.2C270.659 129.572 254.995 128.723 245.52 128.006C245.608 130.032 245.195 133.441 243.143 133.954C242.087 134.218 241.163 134.218 239.842 133.954C238.522 133.69 237.835 131.155 238.258 127.352C229.675 126.296 205.117 113.224 226.243 57.2413Z" fill="#FFFBE3"/>
<path d="M244.141 36.0215L246.72 37.3026L249.283 35.7503M246.783 38.4893L247.075 44.0271M247.075 44.0271L245.403 44.9086M247.075 44.0271L248.831 44.7278" stroke="#1C140A" stroke-linecap="round"/>
<path d="M234.365 35.8144C234.454 35.7876 234.629 35.7978 234.841 35.9491C235.046 36.0947 235.245 36.3481 235.352 36.7007C235.536 37.3125 235.136 37.9756 234.53 38.1585C234.374 38.2057 234.232 38.1658 234.073 37.9537C233.903 37.7258 233.788 37.3698 233.775 37.0351C233.757 36.5953 233.843 36.312 233.95 36.136C234.055 35.9657 234.198 35.865 234.365 35.8144ZM260.695 35.8343C260.822 35.8164 260.952 35.8631 261.103 36.1028C261.257 36.3472 261.356 36.6911 261.395 36.9715C261.434 37.2488 261.424 37.5436 261.338 37.7676C261.263 37.9626 261.135 38.1076 260.864 38.1653C260.591 38.2231 260.34 38.1139 260.134 37.8584C259.919 37.5911 259.816 37.2317 259.847 36.9643C259.888 36.6026 259.987 36.3344 260.121 36.1549C260.246 35.9892 260.42 35.8728 260.695 35.8343Z" fill="#3C1814" stroke="#100000"/>
<circle cx="233.776" cy="36.329" r="7.54008" transform="rotate(-2.61419 233.776 36.329)" stroke="black" stroke-width="0.5"/>
<path d="M241.384 35.0572C243.168 33.9783 248.382 32.344 253.387 34.5093" stroke="black" stroke-width="0.5"/>
<path d="M226.12 36.5472L224.801 36.6074" stroke="black" stroke-width="0.5" stroke-linecap="round"/>
<path d="M268.592 34.6074L270.043 34.5412" stroke="black" stroke-width="0.5" stroke-linecap="round"/>
<circle cx="260.876" cy="36.415" r="7.54008" transform="rotate(-2.61419 260.876 36.415)" stroke="black" stroke-width="0.5"/>
<path d="M221.812 76.5061L229.866 70.4244L224.284 63.0238C222.088 66.0959 217.86 72.7412 218.516 74.7459C218.689 75.2754 218.925 75.3488 219.322 75.4334C219.71 75.516 219.951 75.8897 220.231 76.17C220.662 76.6 221.471 76.6954 221.812 76.5061Z" fill="#FFFBE3"/>
<path d="M229.866 70.4244L221.812 76.5061C221.471 76.6954 220.662 76.6 220.231 76.17C219.951 75.8897 219.71 75.516 219.322 75.4334C218.925 75.3488 218.689 75.2754 218.516 74.7459C217.86 72.7412 222.088 66.0959 224.284 63.0238" stroke="#1C140A" stroke-width="0.5"/>
<g filter="url(#filter2_d_380_1042)">
<path d="M221.379 64.8606C220.561 61.8227 222.719 58.7933 225.857 58.573L272.63 55.2907C275.044 55.1213 277.233 56.7053 277.827 59.0514L285.321 88.6533C286.09 91.6897 283.909 94.6772 280.783 94.8708L234.376 97.7456C232.005 97.8925 229.857 96.3497 229.239 94.055L221.379 64.8606Z" fill="#FAF7ED"/>
</g>
<path d="M229.42 68.7287C229.098 67.5163 229.959 66.3108 231.211 66.2216L246.691 65.1176C247.661 65.0485 248.539 65.6861 248.774 66.6291L251.221 76.4484C251.523 77.6603 250.652 78.8494 249.406 78.9279L234.044 79.8949C233.091 79.9549 232.229 79.3336 231.985 78.4111L229.42 68.7287Z" fill="#F2E7CC"/>
<rect x="252.801" y="64.3438" width="20" height="3" rx="1.5" transform="rotate(-3.85691 252.801 64.3438)" fill="#F1E7CC"/>
<rect x="258.434" y="71.0312" width="15.3573" height="3" rx="1.5" transform="rotate(-3.85691 258.434 71.0312)" fill="#F1E7CC"/>
<rect x="233.801" y="84.0312" width="15.3573" height="3" rx="1.5" transform="rotate(-3.85691 233.801 84.0312)" fill="#F1E7CC"/>
<rect x="234.801" y="91.0312" width="37.0113" height="3" rx="1.5" transform="rotate(-3.85691 234.801 91.0312)" fill="#F1E7CC"/>
<path d="M273.911 65.9324C274.28 65.6051 279.899 62.6104 282.663 61.1539L288.418 68.3198C285.97 69.3184 280.131 71.1146 276.361 70.3109C275.226 70.0688 274.65 69.639 274.436 69.1512C274.214 68.6455 274 67.9279 273.854 67.3951C273.694 66.8058 273.739 66.0845 273.911 65.9324Z" fill="#FFFBE3"/>
<path d="M282.663 61.1539C279.899 62.6104 274.28 65.6051 273.911 65.9324C273.739 66.0845 273.694 66.8058 273.854 67.3951C274 67.9279 274.214 68.6455 274.436 69.1512C274.65 69.639 275.226 70.0688 276.361 70.3109C280.131 71.1146 285.97 69.3184 288.418 68.3198" stroke="#1C140A" stroke-width="0.5"/>
<path d="M211.099 10.9207C212.91 12.1859 215.294 15.6551 214.661 16.5606C214.029 17.466 209.805 16.4504 207.994 15.1852C206.184 13.92 205.795 11.612 206.428 10.7065C207.06 9.80105 209.288 9.65545 211.099 10.9207Z" fill="#DDE1AC"/>
<path d="M220.207 6.67418C220.801 9.35969 220.745 14.6495 219.381 14.9093C218.016 15.169 214.97 10.6265 214.376 7.94098C213.782 5.25547 215.403 2.86881 216.768 2.60905C218.132 2.34929 219.613 3.98866 220.207 6.67418Z" fill="#DDE1AC"/>
<path d="M209.159 20.6063C211.657 20.0219 215.818 20.4233 215.598 21.5023C215.378 22.5813 210.49 25.2004 207.993 25.7849C205.495 26.3693 203.973 25.1725 204.193 24.0935C204.413 23.0146 206.662 21.1908 209.159 20.6063Z" fill="#DDE1AC"/>
<mask id="mask0_380_1042" style="mask-type:alpha" maskUnits="userSpaceOnUse" x="4" y="52" width="321" height="83">
<rect x="4" y="52.998" width="321" height="82" rx="15" fill="#FDFAF2"/>
</mask>
<g mask="url(#mask0_380_1042)">
<path d="M91.5 134.253C27.9 107.053 -4 121.92 -12 132.753L-8.5 162.754L325 153.753C328.5 134.92 332.9 99.7532 322.5 109.753C309.5 122.253 205.5 133.755 188 128.754C152.734 118.676 135.5 127.754 121 134.253C110.655 138.89 100 137.888 91.5 134.253Z" fill="#F2F1DA"/>
</g>
<path d="M35.848 70.51L35.096 71.934C34.504 71.518 33.048 70.638 32.392 70.254L33.176 68.91C33.848 69.246 35.224 70.046 35.848 70.51ZM37.944 82.254L37.304 83.966C35.064 83.214 33.32 82.414 31.896 81.39C30.504 82.286 28.808 83.038 26.456 83.854L25.752 82.238C27.72 81.646 29.32 80.99 30.552 80.286C29.72 79.502 29.048 78.638 28.488 77.63C27.528 79.598 26.248 81.31 24.44 83.246L23.288 81.902C25.688 79.502 27.24 76.926 28.184 73.566H24.68V72.19C24.936 71.646 25.288 70.03 25.416 69.326L26.968 69.678C26.84 70.286 26.552 71.63 26.376 72.062H28.552C28.744 71.118 28.888 70.158 29 69.118L30.616 69.246C30.504 70.27 30.376 71.166 30.2 72.062H37.528V73.566H29.88C29.752 74.142 29.608 74.686 29.432 75.198H36.024V76.654C35.208 78.19 34.392 79.326 33.304 80.302C34.536 81.054 36.088 81.71 37.944 82.254ZM34.184 76.67H29.752C30.344 77.694 31.08 78.574 31.96 79.326C32.968 78.542 33.656 77.694 34.184 76.67ZM45.982 71.31V78.75H44.51V69.774H51.902V78.734H50.414V71.31H45.982ZM44.158 79.214L44.382 80.734C43.646 80.91 39.71 82.014 39.006 82.206L38.718 80.686L40.846 80.126V76.414H39.182V74.878H40.846V71.726H39.102V70.19H44.014V71.726H42.318V74.878H44.014V76.414H42.318V79.726C43.198 79.486 43.918 79.294 44.158 79.214ZM51.758 79.454L53.15 79.934C53.134 80.526 53.086 81.022 53.006 81.582C52.798 82.942 52.526 83.262 51.038 83.342C50.542 83.374 50.062 83.374 49.582 83.342C48.318 83.262 47.902 82.846 47.902 81.534V79.662C47.086 81.278 45.726 82.59 43.598 83.886L42.59 82.51C46.398 80.462 47.198 78.83 47.374 75.198C47.422 74.67 47.438 72.574 47.438 72.062L48.862 72.126C48.862 72.638 48.814 74.83 48.814 75.39C48.798 76.27 48.702 77.054 48.558 77.742L49.358 77.774V81.006C49.358 81.71 49.486 81.79 49.998 81.806C50.366 81.854 50.574 81.854 50.958 81.806C51.406 81.758 51.566 81.71 51.646 81.038C51.71 80.542 51.758 80.014 51.758 79.454ZM60.196 71.758V73.358C59.86 76.046 59.508 77.838 58.74 79.326C59.46 79.918 60.148 80.494 60.644 80.958L59.716 82.462C59.188 81.934 58.564 81.358 57.876 80.734C57.156 81.694 56.196 82.59 54.9 83.662L53.7 82.446C54.964 81.486 55.908 80.638 56.628 79.662C55.924 79.07 55.236 78.526 54.612 78.078C54.996 76.622 55.316 75.102 55.572 73.374H54.308V71.758H55.796C55.908 70.878 55.988 69.982 56.068 69.022L57.636 69.15C57.572 69.902 57.476 70.782 57.348 71.758H60.196ZM68.276 75.534V77.15H64.804V81.502C64.804 83.006 64.34 83.294 62.756 83.47L61.668 83.582L61.124 81.934L62.276 81.822C63.076 81.742 63.236 81.678 63.236 80.926V77.15H60.052V75.534H63.236V73.774L65.732 71.566H60.692V69.95H67.844V71.598L64.804 74.35V75.534H68.276ZM56.308 77.374L57.476 78.286C58.068 77.054 58.436 75.534 58.692 73.374H57.124C56.884 74.782 56.628 76.174 56.308 77.374ZM77.018 71.374H82.25V81.454C82.25 83.134 81.786 83.39 80.058 83.518L78.858 83.614L78.362 81.982L79.562 81.886C80.442 81.806 80.65 81.694 80.65 80.942V72.942H77.018C77.002 73.582 76.938 74.19 76.81 74.75C77.914 75.774 79.754 77.646 80.65 78.67L79.642 80.126C78.746 79.07 77.306 77.55 76.234 76.43C75.578 77.774 74.458 79.006 72.714 80.35L71.818 79.15V83.454H70.186V71.374H75.418V69.166L77.018 69.23V71.374ZM71.818 72.942V78.83C74.57 76.718 75.338 75.31 75.418 72.942H71.818ZM86.544 72.094V73.71H84.976V70.686H90.528C90.4 70.222 90.256 69.774 90.128 69.406L91.744 69.166L92.256 70.686H97.6V73.742H96.032V72.094H86.544ZM92.272 73.582L92.976 72.398L97.632 74.846L96.928 76.126C95.696 75.406 93.456 74.174 92.272 73.582ZM85.744 76.174L85.072 74.83C86.496 74.222 88.176 73.262 89.456 72.414L90.208 73.63C88.864 74.59 87.328 75.47 85.744 76.174ZM98.528 78.462L97.92 79.918C97.264 79.662 96.64 79.39 96.016 79.086V83.598H94.448V82.99H88.16V83.598H86.576V79.086C85.952 79.39 85.328 79.646 84.64 79.918L84.064 78.478C87.12 77.342 89.264 76.126 90.672 74.478H91.936C93.456 76.142 95.568 77.39 98.528 78.462ZM88.032 78.318H94.56C93.216 77.566 92.096 76.734 91.312 75.902C90.432 76.782 89.36 77.566 88.032 78.318ZM88.16 81.63H94.448V79.742H88.16V81.63Z" fill="#A5AE66"/>
<path d="M27.49 100.308C27.24 100.508 26.97 100.708 26.68 100.898L26.27 100.338C27.28 99.678 28.31 98.718 28.89 97.818L29.52 98.168C29.35 98.418 29.15 98.668 28.94 98.918H31.96V99.648C30.92 101.088 29.48 102.008 26.87 102.858L26.51 102.258C28.9 101.538 30.19 100.728 31.16 99.518H28.39L28.02 99.868C28.39 100.108 28.88 100.488 29.12 100.728L28.66 101.328C28.42 101.008 27.86 100.548 27.49 100.308ZM25.39 102.428V98.028L26.1 98.048V106.948H25.39V103.348C24.93 103.788 24.15 104.438 23.67 104.758L23.3 104.068C23.84 103.748 24.81 102.978 25.39 102.428ZM25.13 101.868L24.47 102.208C24.34 101.438 23.86 100.058 23.56 99.388L24.2 99.138C24.52 99.778 25 101.178 25.13 101.868ZM32.4 102.978V103.648H31.13V105.598C31.13 106.568 30.88 106.758 29.76 106.838L29.2 106.878L28.96 106.188L29.62 106.148C30.3 106.118 30.4 106.008 30.4 105.458V103.648H26.36V102.978H30.4V101.688L31.13 101.708V102.978H32.4ZM27.14 104.148L27.62 103.658C28.02 103.998 28.8 104.788 29.11 105.208L28.59 105.788C28.27 105.288 27.54 104.488 27.14 104.148ZM37.3938 102.688H35.8738C35.8438 103.008 35.8138 103.298 35.7438 103.608C36.1438 104.028 36.8538 104.808 37.4938 105.658L36.9238 106.248C36.4538 105.528 35.9138 104.828 35.5138 104.358C35.1838 105.228 34.6138 106.028 33.6538 107.028L33.0838 106.508C34.4538 105.108 35.0038 104.098 35.1338 102.688H33.1138V101.968H35.1638L35.1738 99.968H34.5038C34.2938 100.518 34.0638 101.028 33.8338 101.418L33.1938 101.088C33.6738 100.198 34.1838 98.958 34.4238 97.948L35.1038 98.108C35.0238 98.428 34.9238 98.818 34.7738 99.228H37.2138V99.968H35.9138C35.9138 100.578 35.9038 101.818 35.9038 101.928V101.968H37.3938V102.688ZM37.8138 98.868H41.2238V106.748H40.4938V105.808H38.5338V106.748L37.8138 106.738V98.868ZM38.5338 105.068H40.4938V99.608H38.5338V105.068ZM43.2075 98.608L43.7375 98.138C44.1275 98.498 44.8375 99.418 45.1275 99.888L44.5775 100.478C44.2875 99.918 43.5875 99.018 43.2075 98.608ZM46.1875 98.678H50.7575V103.118H46.1875V98.678ZM46.9275 99.388V102.408H50.0175V99.388H46.9275ZM44.5675 101.178V105.158C44.7875 104.968 45.4875 104.268 45.6075 104.168L45.8475 104.958L44.4775 106.138C44.3375 106.268 44.1775 106.428 44.0075 106.608L43.5475 106.008C43.7775 105.778 43.8475 105.658 43.8475 105.388V101.918H42.6375V101.178H44.5675ZM45.7675 107.058L45.1075 106.478C45.8775 105.728 46.7575 104.598 47.2575 103.648L47.9075 104.078C47.3675 105.048 46.4675 106.278 45.7675 107.058ZM49.0275 104.118L49.5975 103.658C50.1575 104.298 51.0775 105.528 51.6375 106.428L51.0075 107.008C50.4475 105.988 49.5875 104.758 49.0275 104.118ZM61.1513 101.698V102.548H52.3113V101.698H61.1513ZM67.925 101.578V100.768H66.535V100.208H67.925V99.388H66.805V98.838H67.925V97.938L68.535 97.968V98.838H70.085V100.208H70.655V100.768H70.085V102.148H68.535V102.928H70.255V103.498H68.535V104.268H70.505V104.838H68.535V105.718H67.925V104.838H66.415V104.268H67.925V103.498H66.745V102.928H67.925V102.148H66.795V101.578H67.925ZM64.575 99.788H62.865C62.665 100.258 62.425 100.728 62.145 101.248L61.595 100.908C62.105 100.058 62.595 98.968 62.845 97.958L63.495 98.058C63.385 98.448 63.255 98.818 63.125 99.158H64.575V99.788ZM67.975 105.948C68.905 105.998 69.825 105.988 70.755 105.938L70.645 106.548C69.725 106.598 68.825 106.608 67.905 106.558C66.935 106.508 66.135 106.248 65.525 105.458C65.275 105.938 64.955 106.408 64.565 106.928L64.055 106.498C64.525 105.968 64.875 105.438 65.145 104.868C64.895 104.388 64.685 103.788 64.515 102.998L65.045 102.798C65.155 103.288 65.285 103.738 65.455 104.128C65.665 103.488 65.775 102.828 65.845 102.038H64.645V101.428C65.085 100.778 65.455 100.068 65.805 99.308H64.735V98.688H66.445V99.318C66.095 100.078 65.735 100.778 65.295 101.428H66.415V102.068C66.305 103.188 66.125 104.018 65.815 104.808C66.285 105.488 66.945 105.878 67.975 105.948ZM68.535 99.388V100.208H69.515V99.388H68.535ZM69.515 101.578V100.768H68.535V101.578H69.515ZM64.405 104.858L64.555 105.558C64.355 105.708 63.575 106.248 63.305 106.438C63.195 106.528 63.065 106.628 62.945 106.748L62.565 106.148C62.755 105.998 62.845 105.878 62.845 105.648V103.498H61.805V102.888H62.845V101.588H62.355V100.948H64.395V101.588H63.455V102.888H64.455V103.498H63.455V105.598C63.725 105.408 64.195 105.018 64.405 104.858ZM74.6187 102.288V99.748H71.8287V99.078H75.6587C75.5487 98.708 75.3987 98.278 75.3087 98.038L76.0487 97.898C76.1587 98.168 76.3287 98.708 76.4587 99.078H80.0587V99.748H77.2687V102.288H76.5687V99.748H75.3187V102.288H74.6187ZM77.7087 100.668L78.1587 100.188C78.7187 100.588 79.7887 101.498 80.2687 102.008L79.8187 102.618C79.3687 102.028 78.2787 101.068 77.7087 100.668ZM73.7187 100.228L74.2087 100.648C73.7087 101.248 72.7987 102.128 71.9987 102.708L71.5187 102.168C72.3387 101.608 73.1887 100.838 73.7187 100.228ZM80.4387 106.358L80.0987 107.078C78.1887 106.648 76.9087 106.288 75.9087 105.818C74.8787 106.308 73.5687 106.708 71.7187 107.108L71.4187 106.408C72.9887 106.128 74.1787 105.788 75.1287 105.378C74.4887 104.948 73.9987 104.438 73.4887 103.728L74.0787 103.378H72.6187V102.698H78.7587V103.358C78.1687 104.198 77.5587 104.838 76.6787 105.398C77.5687 105.758 78.7487 106.048 80.4387 106.358ZM77.7687 103.378H74.1487C74.6787 104.088 75.1787 104.598 75.8887 105.008C76.6987 104.538 77.2887 104.018 77.7687 103.378ZM89.3225 104.508L89.9725 104.878C89.8625 105.398 89.7625 105.788 89.5925 106.218C89.3525 106.798 89.0625 106.898 88.6325 106.898C88.1625 106.898 87.7225 106.598 87.2325 105.758C87.1225 105.588 87.0325 105.408 86.9525 105.198C86.4825 105.688 85.9625 106.178 85.2825 106.688L84.7825 106.148C85.5525 105.588 86.1725 105.028 86.6625 104.458C86.3125 103.378 86.0625 101.958 85.8925 100.158H82.7925V101.598H85.2425C85.2425 101.958 85.1425 104.258 85.1025 104.658C85.0225 105.568 84.8225 105.838 83.8325 105.948L83.2725 106.008L83.0625 105.268L83.7225 105.208C84.2825 105.158 84.3425 105.058 84.3925 104.458C84.4225 104.138 84.4925 102.558 84.4925 102.308H82.7925C82.7625 104.478 82.4325 105.628 81.6325 107.068L80.8925 106.708C81.7925 105.328 82.1025 104.348 82.1025 102.058V99.468H85.8325C85.8025 99.118 85.7825 98.768 85.7525 98.458L85.7125 97.948H86.4525L86.5625 99.468H88.2325C87.9125 99.088 87.4225 98.568 87.1725 98.348L87.6225 97.878C87.9425 98.148 88.5825 98.728 88.8225 99.048L88.4225 99.468H89.6525V100.158H86.6225C86.7525 101.608 86.9325 102.808 87.2025 103.768C87.7925 102.918 88.1725 102.008 88.5325 100.888L89.2125 101.128C88.7225 102.518 88.2425 103.588 87.4725 104.588C87.6025 104.938 87.7525 105.228 87.9125 105.498C88.1925 105.948 88.4225 106.098 88.5925 106.098C88.8625 106.098 88.9625 105.958 89.0825 105.608C89.2025 105.258 89.2525 104.938 89.3225 104.508ZM99.6163 106.268L99.3863 106.938C97.8163 106.698 96.5263 106.428 95.4062 106.038C94.2362 106.438 92.8462 106.738 91.0862 107.028L90.8162 106.418C92.2662 106.218 93.4762 105.968 94.4762 105.678C93.8262 105.388 93.2462 105.048 92.7162 104.648C92.2662 105.038 91.7662 105.358 91.1362 105.708L90.7162 105.208C91.8862 104.578 92.7062 103.888 93.2762 103.138H92.0862V100.308C91.7962 100.628 91.4862 100.938 91.1562 101.258L90.5662 100.788C91.5062 99.988 92.4262 98.848 92.8862 97.928L93.6262 98.138C93.4962 98.378 93.3662 98.598 93.2362 98.808H99.1962V99.438H92.8062C92.6162 99.688 92.4362 99.918 92.2362 100.148H98.3162V103.138H93.5162L93.9662 103.378C93.8462 103.528 93.7262 103.668 93.6062 103.798H98.4962V104.388C97.8462 104.918 97.1363 105.338 96.3262 105.688C97.3163 105.958 98.4062 106.138 99.6163 106.268ZM97.5563 100.708H92.8362V101.378H97.5563V100.708ZM92.8362 101.868V102.558H97.5563V101.868H92.8362ZM97.4262 104.368H93.2862C93.8662 104.768 94.5562 105.108 95.3562 105.398C96.2463 105.078 96.9162 104.728 97.4262 104.368ZM100.82 98.658H108.33C108.33 99.138 108.15 104.458 108.1 105.088C108.02 106.318 107.6 106.618 105.99 106.728L105.21 106.788L104.92 105.988L105.93 105.928C107 105.878 107.23 105.658 107.28 104.788C107.32 104.228 107.49 99.838 107.49 99.438H100.82V98.658ZM101.7 100.538L102.19 99.918C102.92 100.318 104.37 101.328 105 101.908L104.52 102.678C103.87 102.008 102.46 100.968 101.7 100.538ZM100.93 105.488L100.56 104.718C102.2 104.198 105.27 102.868 106.72 102.098L106.83 102.538L106.91 102.878C105.51 103.638 102.45 104.968 100.93 105.488ZM116.544 101.458C117.144 101.848 117.884 102.148 118.804 102.418L118.504 103.058C117.594 102.728 116.784 102.358 116.064 101.848C115.434 102.318 114.634 102.728 113.664 103.098L113.294 102.448C114.174 102.138 114.894 101.808 115.494 101.408C115.084 101.048 114.724 100.638 114.424 100.168C114.214 100.418 113.984 100.668 113.744 100.908L113.334 100.368C114.044 99.648 114.724 98.708 115.094 97.788L115.794 97.928C115.664 98.218 115.524 98.498 115.374 98.778H118.014V99.438C117.624 100.228 117.184 100.868 116.544 101.458ZM113.554 105.138L113.564 105.528L113.574 105.838C112.614 105.998 110.694 106.288 109.774 106.418L109.684 105.718L110.294 105.638V102.138L110.914 102.158V105.558C111.204 105.518 111.484 105.468 111.794 105.428V101.398H110.434V98.428H113.204V101.398H112.434V102.898H113.504V103.548H112.434V105.328L113.554 105.138ZM111.064 99.108V100.728H112.574V99.108H111.064ZM114.974 99.428L114.854 99.608C115.174 100.178 115.534 100.648 115.984 101.038C116.514 100.598 116.934 100.068 117.294 99.428H114.974ZM114.024 106.868V103.278H117.784V106.868H117.114V106.308H114.684V106.868H114.024ZM117.114 103.928H114.684V105.668H117.114V103.928ZM121.827 97.988L122.407 98.388C121.877 99.188 120.957 100.238 120.027 101.038L119.527 100.478C120.327 99.838 121.377 98.698 121.827 97.988ZM125.317 101.218C124.477 101.848 123.507 102.388 122.437 102.818L122.037 102.148C123.947 101.428 125.397 100.428 126.307 99.348H122.877V98.628H127.307V99.308C126.917 99.798 126.477 100.288 125.927 100.738C126.767 101.118 127.967 101.788 128.527 102.188L128.187 102.898C127.547 102.388 126.147 101.598 125.317 101.218ZM121.877 100.318L122.477 100.648C122.167 101.208 121.867 101.718 121.517 102.208V106.988H120.787V103.148C120.497 103.478 120.167 103.818 119.807 104.148L119.287 103.558C120.327 102.648 121.347 101.328 121.877 100.318ZM125.577 103.808V105.828H128.387V106.498H122.057V105.828H124.807V103.808H122.737V103.118H127.727V103.808H125.577ZM130.711 107.358H130.001C130.541 106.518 130.941 105.478 130.941 104.728H131.771C131.771 105.598 131.191 106.718 130.711 107.358ZM29.29 124.758H32.42V125.478H26.18V124.758H28.54V116.968L29.29 116.988V119.788H31.92V120.508H29.29V124.758ZM26.24 119.008L25.69 119.578C25.37 118.988 24.61 118.008 24.2 117.578L24.74 117.108C25.17 117.538 25.92 118.498 26.24 119.008ZM26.71 123.208L27 123.908C26.82 124.068 25.78 124.948 25.48 125.218C25.33 125.338 25.13 125.548 24.96 125.718L24.52 125.158C24.75 124.968 24.8 124.818 24.8 124.548V120.958H23.46V120.228H25.53V124.318C25.72 124.158 26.61 123.288 26.71 123.208ZM39.0638 119.958H38.2138C38.2138 119.238 38.6038 118.138 38.9738 117.398H39.6138C39.3238 118.188 39.0638 119.168 39.0638 119.958ZM41.0438 119.958H40.2038C40.2038 119.238 40.5838 118.138 40.9538 117.398H41.5938C41.3038 118.188 41.0438 119.168 41.0438 119.958ZM49.3475 123.368C49.9475 124.088 50.7375 124.718 51.7675 125.358L51.2775 125.988C50.2775 125.348 49.4975 124.708 48.8875 123.988C48.2975 124.668 47.5175 125.318 46.4075 125.998L45.9175 125.378C47.0675 124.698 47.8575 124.078 48.4275 123.388C47.8275 122.518 47.4475 121.598 47.1975 120.528C47.0075 120.898 46.8075 121.238 46.5775 121.588L45.9275 121.188C46.6875 120.108 47.3775 118.278 47.5675 116.938L48.3575 117.108C48.2675 117.588 48.1575 118.068 48.0075 118.538H51.4775V119.298H50.5675C50.3575 121.018 50.0575 122.278 49.3475 123.368ZM44.9875 122.468V117.028L45.7075 117.068V125.958H44.9875V123.268C44.5075 123.478 43.9075 123.708 43.7375 123.788C43.5475 123.868 43.4275 123.918 43.2175 124.068L42.8975 123.358C43.1275 123.188 43.1775 123.118 43.1775 122.918V118.138L43.9075 118.178V122.878L44.9875 122.468ZM47.7375 119.298L47.6775 119.448C47.8675 120.738 48.2275 121.788 48.8675 122.748C49.4375 121.798 49.6775 120.728 49.8275 119.298H47.7375ZM60.7513 123.838L61.3213 124.148C61.2513 124.588 61.1913 124.878 61.0413 125.268C60.8513 125.788 60.5413 125.888 60.2913 125.888C60.0113 125.888 59.6713 125.688 59.4413 125.248C59.2813 124.928 59.1313 124.558 59.0013 124.108C58.8113 124.298 58.6313 124.498 58.4013 124.698L57.9913 124.228C58.3013 123.948 58.5813 123.668 58.8313 123.378C58.7213 122.838 58.6413 122.188 58.5913 121.418C58.5613 120.938 58.5513 120.448 58.5413 119.998H54.9413V121.978C54.9413 124.058 54.6413 124.948 53.8413 126.148L53.2513 125.838C54.0013 124.818 54.2513 124.168 54.3013 122.728H53.6513C53.6213 123.768 53.4113 124.488 52.7413 125.398L52.1813 125.098C52.8413 124.228 53.0113 123.658 53.0413 122.728H52.3613V122.118H54.3113V121.278H52.8913V118.998L53.5113 119.038V120.658H54.3113V119.368H58.5413C58.5313 119.138 58.5313 118.918 58.5313 118.728L59.1913 118.768V119.368H60.0413C59.8413 119.078 59.5813 118.788 59.3813 118.598L59.7913 118.268H58.4213V118.888H57.7313V118.268H55.7813V118.898H55.0913V118.268H52.5913V117.658H55.0913V116.918L55.7813 116.948V117.658H57.7313V116.898L58.4213 116.928V117.658H60.9513V118.268H59.8413C60.0713 118.478 60.4213 118.848 60.6113 119.158L60.3513 119.368H60.9013V119.998H59.1913C59.1913 120.368 59.2013 120.728 59.2213 121.088C59.2513 121.688 59.3113 122.198 59.3813 122.668C59.7713 122.068 60.0813 121.448 60.3513 120.698L60.9113 120.928C60.5213 121.958 60.1013 122.738 59.5313 123.488C59.6313 123.938 59.7413 124.288 59.8513 124.538C60.0413 124.968 60.1313 125.158 60.2913 125.158C60.4613 125.158 60.5013 125.038 60.6113 124.638C60.6613 124.428 60.7113 124.188 60.7513 123.838ZM57.5113 123.918V124.918H58.5413V125.468H55.4113V120.598H58.3413V121.158H57.5113V122.078H58.1913V123.918H57.5113ZM56.9613 121.158H56.0113V122.078H56.9613V121.158ZM57.6313 123.398V122.598H56.0113V123.398H57.6313ZM56.0113 123.918V124.918H56.9613V123.918H56.0113ZM67.875 119.958H67.025C67.025 119.238 67.415 118.138 67.785 117.398H68.425C68.135 118.188 67.875 119.168 67.875 119.958ZM69.855 119.958H69.015C69.015 119.238 69.395 118.138 69.765 117.398H70.405C70.115 118.188 69.855 119.168 69.855 119.958ZM74.6187 121.288V118.748H71.8287V118.078H75.6587C75.5487 117.708 75.3987 117.278 75.3087 117.038L76.0487 116.898C76.1587 117.168 76.3287 117.708 76.4587 118.078H80.0587V118.748H77.2687V121.288H76.5687V118.748H75.3187V121.288H74.6187ZM77.7087 119.668L78.1587 119.188C78.7187 119.588 79.7887 120.498 80.2687 121.008L79.8187 121.618C79.3687 121.028 78.2787 120.068 77.7087 119.668ZM73.7187 119.228L74.2087 119.648C73.7087 120.248 72.7987 121.128 71.9987 121.708L71.5187 121.168C72.3387 120.608 73.1887 119.838 73.7187 119.228ZM80.4387 125.358L80.0987 126.078C78.1887 125.648 76.9087 125.288 75.9087 124.818C74.8787 125.308 73.5687 125.708 71.7187 126.108L71.4187 125.408C72.9887 125.128 74.1787 124.788 75.1287 124.378C74.4887 123.948 73.9987 123.438 73.4887 122.728L74.0787 122.378H72.6187V121.698H78.7587V122.358C78.1687 123.198 77.5587 123.838 76.6787 124.398C77.5687 124.758 78.7487 125.048 80.4387 125.358ZM77.7687 122.378H74.1487C74.6787 123.088 75.1787 123.598 75.8887 124.008C76.6987 123.538 77.2887 123.018 77.7687 122.378ZM89.3225 123.508L89.9725 123.878C89.8625 124.398 89.7625 124.788 89.5925 125.218C89.3525 125.798 89.0625 125.898 88.6325 125.898C88.1625 125.898 87.7225 125.598 87.2325 124.758C87.1225 124.588 87.0325 124.408 86.9525 124.198C86.4825 124.688 85.9625 125.178 85.2825 125.688L84.7825 125.148C85.5525 124.588 86.1725 124.028 86.6625 123.458C86.3125 122.378 86.0625 120.958 85.8925 119.158H82.7925V120.598H85.2425C85.2425 120.958 85.1425 123.258 85.1025 123.658C85.0225 124.568 84.8225 124.838 83.8325 124.948L83.2725 125.008L83.0625 124.268L83.7225 124.208C84.2825 124.158 84.3425 124.058 84.3925 123.458C84.4225 123.138 84.4925 121.558 84.4925 121.308H82.7925C82.7625 123.478 82.4325 124.628 81.6325 126.068L80.8925 125.708C81.7925 124.328 82.1025 123.348 82.1025 121.058V118.468H85.8325C85.8025 118.118 85.7825 117.768 85.7525 117.458L85.7125 116.948H86.4525L86.5625 118.468H88.2325C87.9125 118.088 87.4225 117.568 87.1725 117.348L87.6225 116.878C87.9425 117.148 88.5825 117.728 88.8225 118.048L88.4225 118.468H89.6525V119.158H86.6225C86.7525 120.608 86.9325 121.808 87.2025 122.768C87.7925 121.918 88.1725 121.008 88.5325 119.888L89.2125 120.128C88.7225 121.518 88.2425 122.588 87.4725 123.588C87.6025 123.938 87.7525 124.228 87.9125 124.498C88.1925 124.948 88.4225 125.098 88.5925 125.098C88.8625 125.098 88.9625 124.958 89.0825 124.608C89.2025 124.258 89.2525 123.938 89.3225 123.508ZM91.4162 117.598L92.0162 117.138C92.4062 117.528 93.1262 118.478 93.4262 118.968L92.8262 119.548C92.5362 118.968 91.8162 118.018 91.4162 117.598ZM95.2262 121.438V124.108C95.2262 124.798 95.3462 124.888 96.0663 124.938C96.6462 124.988 97.2263 124.988 97.8062 124.938C98.3863 124.888 98.5663 124.808 98.6463 124.438C98.7262 124.078 98.7262 123.718 98.7563 123.328L99.5263 123.588C99.4963 124.098 99.4563 124.488 99.3463 124.928C99.2362 125.378 99.0962 125.608 98.0963 125.688C97.3263 125.748 96.5562 125.748 95.7863 125.688C94.7462 125.608 94.4762 125.408 94.4762 124.318V120.688H98.0263V118.358H94.1962V117.608H98.7963V121.438H95.2262ZM92.8162 120.128V124.308C93.0862 124.118 93.8662 123.458 93.9862 123.358L94.1962 124.138C93.9962 124.268 92.9062 125.108 92.6762 125.288C92.5262 125.398 92.4362 125.498 92.2662 125.698L91.7862 125.118C92.0362 124.868 92.0762 124.788 92.0762 124.538V120.878H90.7162V120.128H92.8162ZM106.26 124.788H109.17V125.518H102.8V124.788H105.49V122.298H103.26V121.568H105.49V119.378H103.02V118.648H105.59C105.46 118.138 105.23 117.328 105.12 117.058L105.86 116.918C105.97 117.208 106.26 118.218 106.39 118.648H108.85V119.378H106.26V121.568H108.53V122.298H106.26V124.788ZM102.32 117.088L103.04 117.278C102.8 118.038 102.54 118.698 102.26 119.338V125.948H101.54V120.738C101.27 121.208 100.97 121.658 100.64 122.088L100.08 121.488C100.9 120.378 101.81 118.748 102.32 117.088Z" fill="#575757"/>
<defs>
<filter id="filter0_d_380_1042" x="0" y="53" width="329" height="90" filterUnits="userSpaceOnUse" color-interpolation-filters="sRGB">
<feFlood flood-opacity="0" result="BackgroundImageFix"/>
<feColorMatrix in="SourceAlpha" type="matrix" values="0 0 0 0 0 0 0 0 0 0 0 0 0 0 0 0 0 0 127 0" result="hardAlpha"/>
<feOffset dy="4"/>
<feGaussianBlur stdDeviation="2"/>
<feComposite in2="hardAlpha" operator="out"/>
<feColorMatrix type="matrix" values="0 0 0 0 0.596078 0 0 0 0 0.639216 0 0 0 0 0.368627 0 0 0 0.2 0"/>
<feBlend mode="normal" in2="BackgroundImageFix" result="effect1_dropShadow_380_1042"/>
<feBlend mode="normal" in="SourceGraphic" in2="effect1_dropShadow_380_1042" result="shape"/>
</filter>
<filter id="filter1_d_380_1042" x="0" y="53" width="329" height="90" filterUnits="userSpaceOnUse" color-interpolation-filters="sRGB">
<feFlood flood-opacity="0" result="BackgroundImageFix"/>
<feColorMatrix in="SourceAlpha" type="matrix" values="0 0 0 0 0 0 0 0 0 0 0 0 0 0 0 0 0 0 127 0" result="hardAlpha"/>
<feOffset dy="4"/>
<feGaussianBlur stdDeviation="2"/>
<feComposite in2="hardAlpha" operator="out"/>
<feColorMatrix type="matrix" values="0 0 0 0 0.596078 0 0 0 0 0.639216 0 0 0 0 0.368627 0 0 0 0.2 0"/>
<feBlend mode="normal" in2="BackgroundImageFix" result="effect1_dropShadow_380_1042"/>
<feBlend mode="normal" in="SourceGraphic" in2="effect1_dropShadow_380_1042" result="shape"/>
</filter>
<filter id="filter2_d_380_1042" x="221.205" y="55.0793" width="67.4715" height="44.8766" filterUnits="userSpaceOnUse" color-interpolation-filters="sRGB">
<feFlood flood-opacity="0" result="BackgroundImageFix"/>
<feColorMatrix in="SourceAlpha" type="matrix" values="0 0 0 0 0 0 0 0 0 0 0 0 0 0 0 0 0 0 127 0" result="hardAlpha"/>
<feOffset dx="2" dy="1"/>
<feGaussianBlur stdDeviation="0.6"/>
<feComposite in2="hardAlpha" operator="out"/>
<feColorMatrix type="matrix" values="0 0 0 0 0.932692 0 0 0 0 0.878883 0 0 0 0 0.753328 0 0 0 1 0"/>
<feBlend mode="normal" in2="BackgroundImageFix" result="effect1_dropShadow_380_1042"/>
<feBlend mode="normal" in="SourceGraphic" in2="effect1_dropShadow_380_1042" result="shape"/>
</filter>
</defs>
</svg>
