<svg width="93" height="136" viewBox="0 0 93 136" fill="none" xmlns="http://www.w3.org/2000/svg">
<ellipse cx="46" cy="126.5" rx="41" ry="9.5" fill="#DDE1AC"/>
<path d="M8.35789 49.2432C6.15731 43.8738 4.71373 30.6262 16.5441 20.5916C18.3926 17.5547 24.5586 9.53429 29.3118 6.99921C24.6906 8.97974 24.0304 2.24594 27.7274 0.397229C30.9399 -1.20921 35.6495 2.37793 32.8768 5.41476C36.5738 4.31446 50.3055 2.77403 61.5681 5.80358C61.9246 1.18961 65.9248 -0.896418 69.3582 0.918287C72.6194 2.642 74.864 7.5273 67.4701 8.97969C71.2991 12.0165 78.8647 24.2885 80.8453 33.0029C88.8994 64.6913 106.988 114.469 71.3387 120.542C71.0852 120.585 70.8211 120.627 70.5467 120.666C70.5907 122.649 71.471 126.748 66.9818 127.012C62.4926 127.276 63.444 123.271 63.5236 121.202C52.7742 121.574 37.1099 120.725 27.6352 120.008C27.7233 122.034 27.3106 125.443 25.2586 125.956C24.2023 126.22 23.2781 126.22 21.9577 125.956C20.6374 125.692 19.9503 123.157 20.3731 119.354C11.7907 118.298 -12.7676 105.226 8.35789 49.2432Z" fill="#FFFBE3"/>
<path d="M33.1406 24.5967L35.6493 26.0119L38.29 24.5967M35.6493 27.2003V32.7457M35.6493 32.7457L33.9328 33.5379M35.6493 32.7457L37.3658 33.5379" stroke="#1C140A" stroke-linecap="round"/>
<path d="M24.1251 24.0836C24.2092 24.1224 24.3329 24.2459 24.3916 24.4997C24.4481 24.7441 24.4298 25.0664 24.2758 25.401C24.0085 25.9814 23.2694 26.2118 22.6947 25.9473C22.5464 25.8791 22.4662 25.7558 22.4881 25.4922C22.5116 25.2088 22.6604 24.8651 22.8723 24.6058C23.1508 24.265 23.4032 24.109 23.6005 24.0486C23.7917 23.9902 23.9661 24.0104 24.1251 24.0836ZM52.8407 25.6659C53.0907 25.8104 53.3389 26.0683 53.5044 26.298C53.6681 26.5252 53.7964 26.7909 53.8248 27.0292C53.8495 27.2367 53.8031 27.4252 53.59 27.6026C53.3761 27.7806 53.1033 27.8003 52.8021 27.6701C52.4871 27.534 52.229 27.2642 52.1315 27.0133C51.9998 26.6741 51.9607 26.391 51.9962 26.1695C52.0291 25.9649 52.1296 25.7801 52.3541 25.6183C52.4585 25.543 52.5954 25.5241 52.8407 25.6659Z" fill="#3C1814" stroke="#100000"/>
<circle cx="22.7749" cy="24.3576" r="7.54008" transform="rotate(0.40478 22.7749 24.3576)" stroke="black" stroke-width="0.5"/>
<path d="M30.4389 23.4882C32.2768 22.5048 37.5697 21.1474 42.4538 23.5732" stroke="black" stroke-width="0.5"/>
<path d="M15.1172 24.1724L13.7969 24.1631" stroke="black" stroke-width="0.5" stroke-linecap="round"/>
<path d="M57.6318 24.4717L59.0842 24.4819" stroke="black" stroke-width="0.5" stroke-linecap="round"/>
<circle cx="49.8315" cy="25.8693" r="7.54008" transform="rotate(0.40478 49.8315 25.8693)" stroke="black" stroke-width="0.5"/>
</svg>
