<svg width="166" height="137" viewBox="0 0 166 137" fill="none" xmlns="http://www.w3.org/2000/svg">
<rect y="24" width="79.8647" height="107.053" rx="5" fill="#FEF3E0"/>
<rect x="12.7441" y="33.3457" width="62.0226" height="42.4812" rx="2" fill="#DED0AA"/>
<rect x="12.7441" y="81.7754" width="62.0226" height="42.4812" rx="2" fill="#DED0AA"/>
<path d="M56.5532 41.0896C56.8242 39.273 58.6493 38.1243 60.4044 38.6655L71.0289 41.942C72.4913 42.393 73.3798 43.8724 73.0908 45.3753L67.4636 74.6367C67.3119 75.4256 66.8303 76.1138 66.0416 76.2666C65.3557 76.3994 64.3447 76.4815 62.9387 76.3383C62.6834 76.3124 62.433 76.2464 62.1948 76.1511L54.1372 72.9278C52.846 72.4113 52.079 71.0751 52.2843 69.6997L56.5532 41.0896Z" fill="#A7AA65"/>
<path d="M59.0702 38.3907C60.3096 38.3194 69.6905 41.5494 71.6035 42.2134C71.833 42.293 72.0479 42.3967 72.2361 42.5504C72.6141 42.8592 73.2079 43.4481 73.0671 44.0091C72.759 45.2366 70.9179 44.85 70.9179 44.85L57.5393 40.3908C57.1221 40.2517 56.7034 39.967 56.8249 39.5444C56.8438 39.4786 56.8702 39.4074 56.9059 39.3306C57.1327 38.843 58.5019 38.4233 59.0702 38.3907Z" fill="#8F9055"/>
<path d="M57.8322 39.7077C58.3206 39.222 59.0411 39.0531 59.6944 39.2711L72.3234 43.4855C72.9414 43.6918 73.0251 44.5318 72.4598 44.8559C71.9062 45.1732 71.2445 45.2422 70.6374 45.0458L58.1427 41.0048C57.5864 40.8249 57.4177 40.12 57.8322 39.7077Z" fill="#FEF7E5"/>
<path d="M56.7432 40.1855L65.7562 43.194C67.1607 43.6628 68.0131 45.0861 67.7634 46.5455L62.872 75.1417C62.7684 75.7472 62.1486 76.117 61.5666 75.9206L54.1897 73.4315C52.81 72.966 51.9639 71.577 52.183 70.1375L56.7432 40.1855Z" fill="#8A8D54"/>
<rect x="47.5781" y="47.7891" width="6.79699" height="28.0376" rx="2" fill="#C3C484"/>
<rect x="49.2773" y="47.7891" width="6.79699" height="28.0376" rx="2" fill="#E4E4B5"/>
<rect width="3.3985" height="3.3985" rx="1" transform="matrix(1 0 0 -1 50.9766 54.5859)" fill="#C3C383"/>
<rect width="3.3985" height="0.849624" rx="0.424812" transform="matrix(1 0 0 -1 50.9766 57.1348)" fill="#C3C383"/>
<rect width="3.3985" height="0.849624" rx="0.424812" transform="matrix(1 0 0 -1 50.9766 58.834)" fill="#C3C383"/>
<rect x="44.1797" y="91.9707" width="6.79699" height="32.2857" rx="2" fill="#C3C484"/>
<rect x="45.8789" y="91.9707" width="6.79699" height="32.2857" rx="2" fill="#E4E4B5"/>
<rect width="3.3985" height="0.978355" rx="0.489177" transform="matrix(1 0 0 -1 47.5781 120.137)" fill="#C3C383"/>
<rect x="39.082" y="45.2402" width="6.79699" height="30.5865" rx="2" fill="#D9B35F"/>
<rect x="40.7812" y="45.2402" width="6.79699" height="30.5865" rx="2" fill="#F2CD68"/>
<rect width="3.3985" height="3.3985" rx="1" transform="matrix(1 0 0 -1 42.4805 52.8867)" fill="#FADF95"/>
<rect width="3.3985" height="0.926863" rx="0.463431" transform="matrix(1 0 0 -1 42.4805 55.4355)" fill="#FADF95"/>
<rect x="31.4355" y="40.9922" width="6.79699" height="34.8346" rx="2" fill="#E7D8B3"/>
<rect x="33.1348" y="40.9922" width="6.79699" height="34.8346" rx="2" fill="#FEF4E2"/>
<rect width="3.3985" height="1.05559" rx="0.527797" transform="matrix(1 0 0 -1 34.834 52.6035)" fill="#EBDDBB"/>
<rect x="62.0225" y="87.7227" width="6.79699" height="36.5338" rx="2" fill="#E7D8B3"/>
<rect x="63.7217" y="87.7227" width="6.79699" height="36.5338" rx="2" fill="#FEF4E2"/>
<rect width="3.3985" height="1.10709" rx="0.553543" transform="matrix(1 0 0 -1 65.4209 96.4746)" fill="#EBDDBB"/>
<rect width="3.3985" height="1.10709" rx="0.553543" transform="matrix(1 0 0 -1 65.4209 119.416)" fill="#EBDDBB"/>
<rect width="3.3985" height="1.10709" rx="0.553543" transform="matrix(1 0 0 -1 65.4209 93.9258)" fill="#EBDDBB"/>
<rect x="52.6768" y="92.8203" width="6.79699" height="31.4361" rx="2" fill="#EFD9A9"/>
<rect x="54.376" y="92.8203" width="6.79699" height="31.4361" rx="2" fill="#F9E9BD"/>
<rect width="3.3985" height="0.952609" rx="0.476304" transform="matrix(1 0 0 -1 56.0752 104.816)" fill="#EFD594"/>
<rect width="3.3985" height="4.24812" rx="1" transform="matrix(1 0 0 -1 56.0752 101.316)" fill="#F1CE6E"/>
<rect x="20.3906" y="40.1426" width="8.83609" height="35.6842" rx="2" fill="#7F814D"/>
<rect x="22.5996" y="40.1426" width="8.83609" height="35.6842" rx="2" fill="#A7A864"/>
<rect width="4.24812" height="1.69925" rx="0.849624" transform="matrix(1 0 0 -1 25.4883 71.5781)" fill="#C5C689"/>
<rect x="31.4355" y="97.0684" width="10.1955" height="27.188" rx="2" fill="#7F814D"/>
<rect x="33.9844" y="97.0684" width="10.1955" height="27.188" rx="2" fill="#A7A864"/>
<rect width="4.9017" height="1.29467" rx="0.647333" transform="matrix(1 0 0 -1 37.3174 121.02)" fill="#C5C689"/>
<rect width="4.9017" height="1.29467" rx="0.647333" transform="matrix(1 0 0 -1 36.5332 102.609)" fill="#C5C689"/>
<rect x="12.7441" y="38.4434" width="9.51608" height="37.3835" rx="2" fill="#B2B26E"/>
<rect x="15.123" y="38.4434" width="9.51608" height="37.3835" rx="2" fill="#C5C788"/>
<rect width="6.79699" height="0.849624" rx="0.424812" transform="matrix(1 0 0 -1 16.9922 71.5781)" fill="#DCDCA7"/>
<path d="M9.3457 131.053H20.3908L19.4552 135.419C19.2576 136.341 18.4426 137 17.4995 137H11.9299C10.9346 137 10.0908 136.268 9.95002 135.283L9.3457 131.053Z" fill="#C6AB74"/>
<path d="M55.2256 131.053H66.2707L65.335 135.419C65.1374 136.341 64.3225 137 63.3794 137H57.8098C56.8145 137 55.9707 136.268 55.8299 135.283L55.2256 131.053Z" fill="#C6AB74"/>
<rect x="21.2402" y="93.6699" width="8.83609" height="30.5865" rx="2" fill="#E7D8B3"/>
<rect x="23.4492" y="93.6699" width="8.83609" height="30.5865" rx="2" fill="#FEF4E2"/>
<rect width="4.41805" height="0.926863" rx="0.463431" transform="matrix(1 0 0 -1 25.6582 100.998)" fill="#EBDDBB"/>
<rect width="4.41805" height="0.926863" rx="0.463431" transform="matrix(1 0 0 -1 25.6582 98.8633)" fill="#EBDDBB"/>
<rect x="15.293" y="88.5723" width="5.15427" height="35.6842" rx="2" fill="#7F814D"/>
<rect x="16.085" y="88.5723" width="5.15427" height="35.6842" rx="2" fill="#A7A864"/>
<rect width="1.69925" height="11.0451" transform="matrix(1 0 0 -1 17.8418 103.865)" fill="#C5C689"/>
<ellipse cx="119" cy="131" rx="31" ry="6" fill="#D1D491"/>
<path d="M81.1079 53.0637C78.9073 47.6943 77.4637 34.4467 89.2941 24.4121C91.1426 21.3752 99.3643 13.3196 100.864 12.3196C102.364 11.3196 108.364 7.8196 111.864 7.3196C115.364 6.8196 123.055 6.59454 134.318 9.62409L140.22 12.8002C144.049 15.837 151.615 28.109 153.595 36.8234C161.649 68.5118 179.738 118.289 144.089 124.363C143.835 124.406 143.571 124.447 143.297 124.486C143.341 126.469 144.221 130.568 139.732 130.832C135.243 131.097 136.194 127.092 136.274 125.023C125.524 125.395 109.86 124.545 100.385 123.828C100.473 125.855 100.061 129.263 98.0086 129.776C96.9523 130.04 96.0281 130.04 94.7077 129.776C93.3874 129.512 92.7003 126.977 93.1231 123.174C84.5407 122.118 59.9824 109.047 81.1079 53.0637Z" fill="#FFFBE3"/>
<path d="M98.1895 31.9961L100.534 33.6687L103.31 32.5406M100.409 34.8503L99.8224 40.3647M99.8224 40.3647L98.0318 40.971M99.8224 40.3647L101.445 41.334" stroke="#1C140A" stroke-linecap="round"/>
<path d="M74.0057 45.5816L83.7342 48.265L81.2752 57.2022C78.1011 55.1564 71.7204 50.5385 71.5906 48.4332C71.5564 47.8772 71.7484 47.7221 72.0863 47.497C72.4165 47.2771 72.5025 46.8411 72.66 46.477C72.9017 45.9185 73.6184 45.5315 74.0057 45.5816Z" fill="#FFFBE3"/>
<path d="M83.7342 48.265L74.0057 45.5816C73.6184 45.5315 72.9017 45.9185 72.66 46.477C72.5025 46.8411 72.4165 47.2771 72.0863 47.497C71.7484 47.7221 71.5564 47.8772 71.5906 48.4332C71.7204 50.5385 78.1011 55.1564 81.2752 57.2022" stroke="#1C140A" stroke-width="0.5"/>
<path d="M95.2727 65.6205C95.0471 63.9791 96.1949 62.4656 97.8363 62.24L119.759 59.2273C121.401 59.0017 122.914 60.1495 123.14 61.7909L127.103 90.634C127.329 92.2754 126.181 93.7889 124.54 94.0145L102.617 97.0272C100.976 97.2528 99.462 96.105 99.2364 94.4636L95.2727 65.6205Z" fill="#A5AE66"/>
<path d="M96.0977 65.1398C95.9688 64.2018 96.6246 63.3369 97.5626 63.208L120.253 60.0898C121.347 59.9394 122.356 60.7046 122.507 61.7989L122.701 63.2142L98.0294 66.6047C97.0914 66.7336 96.2266 66.0777 96.0977 65.1398Z" fill="#FDF5E0"/>
<path d="M95.0004 66.6391C94.9252 66.092 95.3078 65.5875 95.8549 65.5123L120.75 62.0911C121.844 61.9407 122.853 62.7059 123.004 63.8002L126.844 91.7443C126.994 92.8386 126.229 93.8476 125.135 93.998L101.23 97.283C100.136 97.4334 99.1271 96.6682 98.9768 95.5739L95.0004 66.6391Z" fill="#D9D7A1"/>
<path d="M98.3643 66.3184L102.364 95.3184" stroke="#C0C07E" stroke-linecap="round"/>
<path d="M118.976 74.7546C119.345 74.4273 124.964 71.4326 127.727 69.9762L133.483 77.142C131.034 78.1406 125.195 79.9369 121.426 79.1331C120.291 78.8911 119.715 78.4612 119.5 77.9734C119.278 77.4678 119.064 76.7502 118.919 76.2174C118.758 75.6281 118.804 74.9068 118.976 74.7546Z" fill="#FFFBE3"/>
<path d="M127.727 69.9762C124.964 71.4326 119.345 74.4273 118.976 74.7546C118.804 74.9068 118.758 75.6281 118.919 76.2174C119.064 76.7502 119.278 77.4678 119.5 77.9734C119.715 78.4612 120.291 78.8911 121.426 79.1331C125.195 79.9369 131.034 78.1406 133.483 77.142" stroke="#1C140A" stroke-width="0.5"/>
<path d="M109.864 2.3198C108.269 3.94703 108.951 7.33156 110.621 8.26108C111.159 8.41025 112.613 8.59057 114.133 8.11851C115.653 7.64644 115.924 3.80531 115.609 2.50727C115.132 0.538735 111.686 0.460527 109.864 2.3198Z" fill="#FFFBE3" stroke="#FFFBE3" stroke-linecap="round"/>
<path d="M110.989 7.82031C110.822 7.82031 110.689 7.62031 111.489 6.82031C112.289 6.02043 114.863 5.82037 115.863 5.82031L115.488 7.32031C114.688 7.32031 112.155 7.65365 110.989 7.82031Z" fill="#F5E9C7"/>
<path d="M142.467 14.7878C141.842 16.464 139.366 17.1319 138.206 17.2563L141.366 13.9002L142.467 14.7878Z" fill="#F5E8C8"/>
<path d="M129.861 8.5953C129.108 9.07834 129.465 11.1521 129.737 12.1287L130.358 8.54202L129.861 8.5953Z" fill="#F5E8C8"/>
<path d="M139.103 5.68645C130.743 1.54605 129.48 9.73587 129.96 14.2102C131.452 16.8663 135.542 17.8021 137.4 17.9379C141.495 15.4872 144.945 8.57955 139.103 5.68645Z" fill="#FFFBE3"/>
<path d="M137.691 11.2766C137.822 12.493 136.348 13.3719 135.062 13.8559C134.499 14.0678 133.916 13.6616 133.887 13.0608C133.828 11.7778 133.935 10.0375 134.992 9.55462C135.902 9.13921 137.478 9.28799 137.691 11.2766Z" fill="#F5E8C8"/>
<path d="M111.207 31.8117C111.336 31.8242 111.451 31.9 111.541 32.1683C111.634 32.442 111.65 32.7995 111.622 33.0814C111.595 33.3601 111.517 33.6449 111.381 33.8425C111.263 34.0146 111.103 34.1249 110.826 34.1175C110.548 34.11 110.329 33.945 110.189 33.6485C110.042 33.3383 110.027 32.9652 110.12 32.7124C110.245 32.3706 110.402 32.1322 110.575 31.9893C110.735 31.8573 110.932 31.7851 111.207 31.8117Z" fill="#3C1814" stroke="#100000"/>
<path d="M90.0574 28.7419C90.1497 28.7366 90.317 28.7882 90.4881 28.9851C90.6526 29.1744 90.7878 29.4669 90.8089 29.8345C90.8452 30.4725 90.3005 31.0232 89.6689 31.0594C89.5058 31.0687 89.3766 30.9974 89.2723 30.7542C89.1602 30.4929 89.1313 30.1196 89.1968 29.7911C89.283 29.3595 89.4328 29.1033 89.5788 28.9574C89.7201 28.8163 89.8827 28.7518 90.0574 28.7419Z" fill="#3C1814" stroke="#100000"/>
<circle cx="88.0385" cy="27.2877" r="7.54008" transform="rotate(6.58021 88.0385 27.2877)" stroke="black" stroke-width="0.5"/>
<path d="M95.753 27.2471C97.686 26.4671 103.094 25.687 107.689 28.6241" stroke="black" stroke-width="0.5"/>
<path d="M80.4464 26.2783L79.1348 26.127" stroke="black" stroke-width="0.5" stroke-linecap="round"/>
<path d="M122.682 31.1504L124.124 31.3168" stroke="black" stroke-width="0.5" stroke-linecap="round"/>
<circle cx="114.777" cy="31.7018" r="7.54008" transform="rotate(6.58021 114.777 31.7018)" stroke="black" stroke-width="0.5"/>
</svg>
