<svg width="305" height="78" viewBox="0 0 305 78" fill="none" xmlns="http://www.w3.org/2000/svg">
<path d="M285.43 23.1426L296.013 11.3654C296.11 11.2576 296.184 11.1306 296.221 10.9905C296.75 9.00726 296.474 5.85307 291.504 7.42432C291.343 7.4752 291.195 7.57099 291.081 7.69541L280.831 18.878C279.605 21.4368 278.808 25.872 285.43 23.1426ZM280.831 18.878L285.43 23.1426" stroke="#44423D" stroke-width="1.5"/>
<path d="M288.803 23.9961H298" stroke="#44423D" stroke-width="1.5" stroke-linecap="round"/>
<path d="M285.43 69.1426C278.808 71.872 279.605 67.4368 280.831 64.878L291.081 53.6954C291.195 53.571 291.343 53.4752 291.504 53.4243C296.474 51.8531 296.75 55.0073 296.221 56.9905C296.184 57.1306 296.11 57.2576 296.013 57.3654L285.43 69.1426Z" fill="#98A84E"/>
<path d="M285.43 69.1426L296.013 57.3654C296.11 57.2576 296.184 57.1306 296.221 56.9905C296.75 55.0073 296.474 51.8531 291.504 53.4243C291.343 53.4752 291.195 53.571 291.081 53.6954L280.831 64.878C279.605 67.4368 278.808 71.872 285.43 69.1426ZM280.831 64.878L285.43 69.1426" stroke="#FEFBF5" stroke-width="1.5"/>
<path d="M288.803 69.9961H298" stroke="#98A84E" stroke-width="1.5" stroke-linecap="round"/>
<path d="M221.14 7.75C223.999 7.75023 226.276 9.99154 226.276 12.708C226.276 15.4246 223.999 17.6668 221.14 17.667C218.28 17.667 216.002 15.4247 216.002 12.708C216.002 9.9914 218.281 7.75 221.14 7.75Z" stroke="#44423D" stroke-width="1.5"/>
<path d="M211 17.4648C212.61 22.4543 216.704 25.9996 221.5 25.9996C226.296 25.9996 230.39 22.4543 232 17.4648" stroke="#44423D" stroke-width="1.5" stroke-linecap="round"/>
<path d="M221.14 52.75C223.999 52.7502 226.276 54.9915 226.276 57.708C226.276 60.4246 223.999 62.6668 221.14 62.667C218.28 62.667 216.002 60.4247 216.002 57.708C216.002 54.9914 218.281 52.75 221.14 52.75Z" fill="#98A84E" stroke="#98A84E" stroke-width="1.5"/>
<path d="M211 62.4648C212.61 67.4543 216.704 70.9996 221.5 70.9996C226.296 70.9996 230.39 67.4543 232 62.4648" stroke="#98A84E" stroke-width="1.5" stroke-linecap="round"/>
<path d="M82.1538 9.25459C85.3722 5.86489 89.5566 7.32256 91.5995 8.68492C91.858 8.85733 92 9.15317 92 9.46392V22.8593C92 23.2949 91.464 23.5388 91.0944 23.3082C87.9695 21.3593 83.9256 22.8828 82.1538 24C78.5304 21.8393 74.7993 22.6409 72.7984 23.5698C72.4409 23.7357 72 23.4854 72 23.0913V9.63968C72 9.39183 72.0917 9.14945 72.2659 8.97316C75.9111 5.28462 80.3518 7.59383 82.1538 9.25459ZM82.1538 24V9.25459" stroke="#44423D" stroke-width="1.5"/>
<path d="M72 69.0913V55.6397C72 55.3918 72.0917 55.1494 72.2659 54.9732C75.9111 51.2846 80.3518 53.5938 82.1538 55.2546C85.3722 51.8649 89.5566 53.3226 91.5995 54.6849C91.858 54.8573 92 55.1532 92 55.4639V68.8593C92 69.2949 91.464 69.5388 91.0944 69.3082C87.9695 67.3593 83.9256 68.8828 82.1538 70C78.5304 67.8393 74.7993 68.6409 72.7984 69.5698C72.4409 69.7357 72 69.4854 72 69.0913Z" fill="#98A84E"/>
<path d="M82.1538 55.2546C85.3722 51.8649 89.5566 53.3226 91.5995 54.6849C91.858 54.8573 92 55.1532 92 55.4639V68.8593C92 69.2949 91.464 69.5388 91.0944 69.3082C87.9695 67.3593 83.9256 68.8828 82.1538 70C78.5304 67.8393 74.7993 68.6409 72.7984 69.5698C72.4409 69.7357 72 69.4854 72 69.0913V55.6397C72 55.3918 72.0917 55.1494 72.2659 54.9732C75.9111 51.2846 80.3518 53.5938 82.1538 55.2546ZM82.1538 70V55.2546" stroke="#FEFBF5" stroke-width="1.5"/>
<path d="M7.16082 14.061L12.2847 17.1345L16.3804 19.5913C17.0133 19.971 17.8038 19.9712 18.437 19.5919L24.4038 16.0176L27.1854 14.3513C28.4823 13.5744 28.4816 11.695 27.1841 10.9191L18.4357 5.68756C17.8032 5.30932 17.0139 5.30958 16.3816 5.68826L7.1618 11.2102C6.08494 11.8551 6.08441 13.4153 7.16082 14.061ZM24.4038 16.0176L24.4038 22.0106C22.2238 24.9834 16.437 29.1453 10.7293 22.0106L10.7293 17.8487M7.16082 14.061L7.16082 19.7651M7.16082 19.7651C6.36809 21.2032 5.25826 24.0793 7.16082 24.0793C9.06338 24.0793 7.95356 21.2032 7.16082 19.7651Z" stroke="#44423D" stroke-width="1.5"/>
<path d="M16.3816 51.6883C17.0139 51.3096 17.8032 51.3093 18.4357 51.6876L27.1841 56.9191C28.4816 57.695 28.4823 59.5744 27.1854 60.3513L24.4038 62.0176L18.437 65.5919C17.8038 65.9712 17.0133 65.971 16.3804 65.5913L12.2847 63.1345L7.16082 60.061C6.08441 59.4153 6.08494 57.8551 7.1618 57.2102L16.3816 51.6883Z" fill="#98A84E"/>
<path d="M7.16082 60.061L12.2847 63.1345L16.3804 65.5913C17.0133 65.971 17.8038 65.9712 18.437 65.5919L24.4038 62.0176L27.1854 60.3513C28.4823 59.5744 28.4816 57.695 27.1841 56.9191L18.4357 51.6876C17.8032 51.3093 17.0139 51.3096 16.3816 51.6883L7.1618 57.2102C6.08494 57.8551 6.08441 59.4153 7.16082 60.061ZM24.4038 62.0176L24.4038 68.0106C22.2238 70.9834 16.437 75.1453 10.7293 68.0106L10.7293 63.8487M7.16082 60.061L7.16082 65.7651M7.16082 65.7651C6.36809 67.2032 5.25826 70.0793 7.16082 70.0793C9.06338 70.0793 7.95356 67.2032 7.16082 65.7651Z" stroke="#98A84E" stroke-width="1.5"/>
</svg>
