<svg width="329" height="144" viewBox="0 0 329 144" fill="none" xmlns="http://www.w3.org/2000/svg">
<g filter="url(#filter0_d_390_1351)">
<rect x="4" width="321" height="136" rx="15" fill="#FDFAF2"/>
</g>
<path d="M36.768 29.632H30.368V32.608L31.056 31.568C32.464 32.56 34.864 34.256 35.856 35.152L34.976 36.688C33.84 35.632 31.808 34.048 30.368 33.024V41.52H28.672V29.632H23.008V28.048H36.768V29.632ZM52.358 29.168H46.246C46.07 29.664 45.862 30.256 45.67 30.752H51.558V41.44H50.054V40.72H41.078V41.424H39.542V30.752H43.942C44.134 30.256 44.342 29.664 44.518 29.168H38.742V27.696H52.358V29.168ZM41.078 32.192V39.312H42.742V32.192H41.078ZM46.87 33.616V32.192H44.23V33.616H46.87ZM50.054 39.312V32.192H48.374V39.312H50.054ZM46.87 36.48V35.04H44.23V36.48H46.87ZM44.23 37.872V39.312H46.87V37.872H44.23ZM58.508 29.232V27.68H63.468L63.404 38.96C63.404 40.464 62.86 40.832 61.612 40.96L60.844 41.04L60.38 39.664L61.1 39.584C61.868 39.504 62.14 39.36 62.14 38.496V36.512H60.764C60.46 38.672 59.804 40.016 58.428 41.696L57.34 40.896C58.668 39.312 59.292 38.32 59.548 36.512H58.588V35.008H59.676C59.708 34.416 59.724 33.76 59.724 33.008V32.976H58.652V31.456H59.74L59.756 29.232H58.508ZM68.332 29.264L67.26 33.296C68.284 34.96 68.54 35.968 68.54 37.216C68.54 39.056 67.98 39.552 66.508 39.728L66.076 39.776L65.628 38.32L66.124 38.288C66.956 38.208 67.228 37.952 67.228 36.96C67.228 36.112 66.924 35.04 66.012 33.616L67.116 29.264H65.196V41.504H63.996V27.824H68.332V29.264ZM58.188 28.304V39.136H54.78V28.304H58.188ZM60.988 31.456H62.156C62.172 30.304 62.172 29.44 62.188 29.232H61.004L60.988 31.456ZM57.02 37.696V29.712H56.028V37.696H57.02ZM60.908 35.008H62.156V32.976H60.972C60.972 33.728 60.956 34.384 60.908 35.008ZM83.506 29.808V37.152H80.354V41.568H78.93V37.152H75.794V35.952L75.01 37.04C74.706 36.608 74.13 35.984 73.634 35.424V41.568H72.194V35.984C71.682 37.072 71.09 38.096 70.594 38.88L69.602 37.76C70.546 36.432 71.49 34.688 72.13 33.024H70.258V31.44H72.194V29.712C71.538 29.824 70.914 29.92 70.386 29.984L70.242 28.496C71.682 28.288 73.874 27.872 75.362 27.488L75.618 28.976C75.058 29.136 74.386 29.296 73.634 29.44V31.44H75.41V33.024H73.634V34.224L74.018 33.824C74.53 34.336 75.346 35.12 75.794 35.696V29.808H78.93V27.104L80.354 27.168V29.808H83.506ZM77.234 35.568H78.93V31.376H77.234V35.568ZM82.082 35.568V31.376H80.354V35.568H82.082ZM99.704 30.752H91.464C91.416 31.28 91.416 31.92 91.368 32.64C91.368 32.72 91.352 32.8 91.352 32.88H97.96C97.896 33.44 97.656 38.144 97.592 38.72C97.416 40.72 96.712 41.136 94.744 41.264L93.048 41.36L92.552 39.712L94.152 39.616C95.576 39.536 95.832 39.344 95.96 38.144C96.024 37.792 96.136 34.816 96.2 34.464H91.208C90.792 37.52 89.656 39.552 86.824 41.904L85.608 40.512C88.648 38.112 89.448 36.368 89.704 32.448C89.752 31.888 89.784 31.28 89.8 30.752H86.104V29.168H92.232C92.056 28.544 91.864 27.984 91.688 27.36L93.368 27.04L94.04 29.168H99.704V30.752ZM114.254 37.344L115.582 38C115.47 38.512 115.358 38.976 115.182 39.536C114.686 41.072 114.158 41.52 113.342 41.52C112.542 41.52 111.694 41.104 110.942 39.664C110.19 38.192 109.438 35.424 109.23 31.28H101.758V29.712H109.182C109.134 28.832 109.134 27.456 109.086 27.136L110.75 27.2C110.75 27.76 110.766 28.64 110.814 29.712H113.166C112.606 29.184 111.934 28.528 111.502 28.16L112.462 27.12C112.942 27.504 114.094 28.496 114.558 29.008L114.014 29.712H115.294V31.28H110.894C111.102 35.312 111.63 37.76 112.51 39.168C112.766 39.6 113.07 39.696 113.31 39.696C113.55 39.696 113.694 39.408 113.95 38.64C114.078 38.256 114.142 37.856 114.254 37.344ZM109.47 37.984L109.486 38.848L109.502 39.568C108.862 39.632 102.446 40.496 101.726 40.624L101.518 39.04C101.806 39.04 103.214 38.848 104.766 38.64V34.896H102.254V33.344H108.878V34.896H106.414V38.416C107.87 38.24 109.214 38.032 109.47 37.984ZM129.46 27.552V32.24H119.3V27.552H129.46ZM128.02 28.72H120.74V29.408H128.02V28.72ZM120.74 31.136H128.02V30.432H120.74V31.136ZM124.996 38.624L125.06 39.904C124.884 39.92 124.58 39.952 124.132 40.016V41.6H122.74V40.176C120.708 40.432 118.052 40.8 117.492 40.88L117.38 39.616C117.588 39.6 118.068 39.552 118.756 39.44V34.144H117.268V32.992H131.476V34.144H124.132V38.736C124.532 38.688 124.82 38.672 124.996 38.624ZM122.74 34.144H120.164V35.04H122.74V34.144ZM131.636 40.16L130.996 41.616C129.604 41.088 128.548 40.512 127.668 39.888C126.916 40.512 126.068 41.072 125.044 41.6L124.388 40.288C125.268 39.888 126.02 39.44 126.612 38.976C125.924 38.288 125.412 37.52 124.98 36.576L125.876 36.144H124.692V34.896H130.452V36.208C130.004 37.168 129.444 38.048 128.692 38.864C129.476 39.36 130.436 39.76 131.636 40.16ZM128.9 36.144H126.228C126.564 36.896 127.028 37.536 127.62 38.064C128.18 37.44 128.596 36.8 128.9 36.144ZM120.164 36.176V37.072H122.74V36.176H120.164ZM120.164 38.144V39.264L122.74 38.928V38.144H120.164ZM136.458 30.032H135.978C135.482 30.88 134.906 31.712 134.314 32.416L132.986 31.52C134.186 30.272 135.37 28.112 135.882 26.96L137.322 27.344C137.146 27.728 136.986 28.128 136.778 28.56H140.41V29.984C140.97 28.96 141.434 27.92 141.77 26.96L143.146 27.36C143.002 27.792 142.874 28.176 142.698 28.56H146.954V30.032H144.666C144.922 30.464 145.194 30.88 145.338 31.184L144.122 31.984C143.866 31.456 143.45 30.656 143.114 30.032H142.058C141.658 30.848 141.242 31.568 140.778 32.256L139.45 31.52C139.786 31.024 140.074 30.544 140.378 30.032H138.01C138.282 30.48 138.57 30.976 138.746 31.296L137.546 32.096C137.242 31.536 136.794 30.624 136.458 30.032ZM136.298 31.632L137.658 32.224C137.418 32.752 137.162 33.248 136.89 33.744V41.6H135.37V35.968C134.858 36.608 134.314 37.184 133.69 37.744L132.762 36.496C134.122 35.216 135.482 33.424 136.298 31.632ZM147.178 33.584V35.152H144.938V39.568C144.938 41.056 144.442 41.408 142.698 41.536L141.434 41.632L140.922 40.064L142.33 39.968C143.226 39.92 143.386 39.808 143.386 39.104V35.152H139.578C140.266 35.888 141.354 37.12 141.77 37.744L140.634 38.928C140.122 38.16 138.938 36.72 138.298 36.08L139.306 35.152H137.562V33.584H143.386V32.112L144.938 32.176V33.584H147.178ZM155.216 26.96H156.528C157.936 29.216 160.4 31.088 163.232 32.384L162.448 34C161.472 33.504 160.544 32.96 159.696 32.368V33.328H151.984V32.416C151.136 33.008 150.192 33.568 149.216 34.064L148.528 32.416C151.264 31.088 153.968 29.024 155.216 26.96ZM152.784 31.824H158.944C157.712 30.864 156.656 29.856 155.872 28.656C155.152 29.744 154.08 30.8 152.784 31.824ZM150.752 41.456V34.928H160.912V41.472H159.312V40.8H152.432V41.456H150.752ZM159.312 36.4H152.432V39.36H159.312V36.4ZM173.798 32.176H171.958C171.958 30.976 172.662 28.976 173.286 27.84H174.694C174.23 29.056 173.798 30.896 173.798 32.176ZM177.334 32.176H175.494C175.494 30.976 176.214 28.992 176.806 27.84H178.23C177.766 29.056 177.334 30.896 177.334 32.176ZM184.956 33.088L185.132 34.688C184.748 34.864 184.22 35.04 183.644 35.28V39.712C183.644 41.024 183.324 41.264 181.9 41.44L181.228 41.536L180.78 40L181.532 39.904C182.028 39.84 182.14 39.728 182.14 39.328V35.824C181.436 36.064 180.78 36.288 180.348 36.416L180.012 34.848C180.54 34.704 181.324 34.464 182.14 34.16V31.328H180.54V29.84H182.14V27.216L183.644 27.28V29.84H185.116V31.328H183.644V33.616C184.14 33.424 184.588 33.264 184.956 33.088ZM192.844 37.088L194.348 37.632C194.332 38.096 194.3 38.72 194.188 39.28C193.932 40.784 193.436 41.2 191.74 41.28C190.412 41.344 189.068 41.344 187.74 41.28C186.236 41.2 185.516 40.8 185.516 38.848V27.936H193.5V35.072H187.036V38.448C187.036 39.392 187.276 39.68 188.22 39.728C189.308 39.792 190.38 39.792 191.436 39.728C192.428 39.68 192.604 39.44 192.732 38.64C192.78 38.24 192.844 37.536 192.844 37.088ZM188.78 29.408H187.036V33.584H188.78V29.408ZM192.012 33.584V29.408H190.22V33.584H192.012ZM204.226 40L203.202 37.056H198.562L197.506 40H195.346L199.506 28.896H202.322L206.45 40H204.226ZM199.186 35.296H202.578L200.994 30.768H200.802L199.186 35.296ZM207.843 40V28.896H209.939V40H207.843ZM219.938 32.144H225.058V41.504H223.41V40.72H212.658V39.216H223.41V37.136H213.426V35.6H223.41V33.68H213.026V32.144H218.322V27.216L219.938 27.28V32.144ZM217.202 30.704L216.034 31.904C215.346 31.056 213.938 29.424 213.186 28.624L214.322 27.552C215.138 28.416 216.578 29.952 217.202 30.704ZM223.826 27.584L225.026 28.592C224.37 29.456 223.026 31.024 222.162 31.92L221.01 30.848C221.858 29.968 223.106 28.512 223.826 27.584ZM241 27.856V39.312C241 40.976 240.504 41.312 238.776 41.44L237.496 41.536L237.08 40.08L238.36 39.984C239.288 39.936 239.4 39.792 239.4 39.056V29.36H230.12V41.44H228.552V27.856H241ZM238.632 32.272H230.936V30.88H238.632V32.272ZM231.704 33.68H237.816V38.992H231.704V33.68ZM233.128 35.056V37.632H236.392V35.056H233.128ZM257.662 35.792V36.928H256.254V39.184H251.358V39.536C251.358 41.024 250.846 41.392 249.294 41.52L248.158 41.616L247.694 40.192L248.942 40.096C249.71 40.048 249.854 39.936 249.854 39.248V39.184H244.478V37.984H249.854V36.928H243.438V35.792H249.854V34.96H244.606V33.808H249.854V33.04H245.15V30.048H249.854V29.28H243.87V28.08H249.854V27.024L251.358 27.088V28.08H257.23V29.28H251.358V30.048H255.966V33.04H251.358V33.808H256.254V35.792H257.662ZM246.622 31.968H249.854V31.136H246.622V31.968ZM254.446 31.136H251.358V31.968H254.446V31.136ZM251.358 34.96V35.792H254.83V34.96H251.358ZM254.83 37.984V36.928H251.358V37.984H254.83ZM261.188 32.176H259.764C260.196 30.944 260.66 29.136 260.66 27.84H262.5C262.5 29.024 261.796 31.024 261.188 32.176ZM264.708 32.176H263.3C263.732 30.944 264.196 29.136 264.196 27.84H266.036C266.036 29.008 265.348 31.024 264.708 32.176Z" fill="#383838"/>
<path d="M29.093 62.169V62.961C28.884 65.051 28.576 66.371 27.894 67.46C28.521 67.977 29.137 68.505 29.522 68.89L29.016 69.638C28.609 69.187 28.026 68.637 27.41 68.109C26.849 68.78 26.112 69.418 25.1 70.177L24.539 69.528C25.551 68.824 26.277 68.23 26.805 67.614C26.189 67.119 25.617 66.701 25.188 66.448C25.496 65.315 25.738 64.193 25.947 62.95H24.715V62.169H26.057C26.145 61.509 26.211 60.849 26.266 60.112L27.102 60.211C27.047 60.904 26.97 61.553 26.882 62.169H29.093ZM29.929 61.476H33.647V69.825H32.855V68.923H30.721V69.88H29.929V61.476ZM30.721 68.153H32.855V62.246H30.721V68.153ZM26.09 66.151C26.409 66.338 26.827 66.624 27.267 66.965C27.872 66.008 28.114 64.787 28.29 62.95H26.772C26.563 64.237 26.343 65.326 26.09 66.151ZM37.4461 60.222L38.2601 60.376C38.0071 61.256 37.7211 62.037 37.4021 62.774V70.133H36.6101V64.325C36.3131 64.82 35.9831 65.304 35.6421 65.755L34.9711 65.238C35.9391 64.149 36.9401 62.081 37.4461 60.222ZM45.1571 60.981V61.762H44.1561V68.461C44.1561 69.627 43.8371 69.968 42.3741 70.023L41.6481 70.067L41.3511 69.231L42.2641 69.187C43.1771 69.154 43.3311 68.967 43.3311 68.23V61.762H38.4141V60.981H45.1571ZM42.0441 63.236V67.504H38.7111V63.236H42.0441ZM41.2961 66.723V63.984H39.4591V66.723H41.2961ZM49.5503 64.853L49.5943 65.139C49.2863 65.26 48.8573 65.436 48.3843 65.601V68.747C48.3843 69.616 48.1313 69.825 47.1523 69.913L46.6793 69.957L46.4483 69.154L46.9983 69.11C47.5153 69.077 47.6033 69.022 47.6033 68.549V65.887C47.0423 66.096 46.5253 66.261 46.1623 66.36L45.8983 65.601C46.3493 65.48 46.9763 65.293 47.6033 65.084V62.895H46.3163V62.136H47.6033V60.255L48.3843 60.288V62.136H49.5723V62.895H48.3843V64.82C48.8133 64.655 49.1983 64.523 49.4953 64.402L49.5503 64.853ZM55.0723 67.152L55.8533 67.482C55.8093 67.999 55.7763 68.516 55.6553 68.989C55.5453 69.473 55.1933 69.737 54.1263 69.792C53.2023 69.836 52.4213 69.836 51.4423 69.792C50.4303 69.759 49.9683 69.451 49.9683 68.197V60.827H55.1383V65.436H50.7383V67.988C50.7383 68.725 50.9803 68.945 51.7172 68.978C52.4983 69.022 53.1803 69.022 53.9613 68.978C54.6323 68.945 54.8633 68.769 54.9403 68.384C55.0173 67.999 55.0393 67.548 55.0723 67.152ZM52.1242 61.586H50.7383V64.688H52.1242V61.586ZM54.3683 64.688V61.586H52.8833V64.688H54.3683ZM62.6554 69L61.8304 66.723H58.4534L57.6174 69H56.6054L59.4984 61.366H60.8184L63.7004 69H62.6554ZM58.7834 65.843H61.5114L60.2244 62.29H60.0924L58.7834 65.843ZM64.8333 69V61.366H65.8233V69H64.8333ZM75.836 69L75.011 66.723H71.634L70.798 69H69.786L72.679 61.366H73.999L76.881 69H75.836ZM71.964 65.843H74.692L73.405 62.29H73.273L71.964 65.843ZM82.051 63.06H82.997V68.582C82.997 70.221 82.106 71.2 80.093 71.2C79.576 71.2 79.037 71.134 78.652 71.057V70.254C79.103 70.342 79.587 70.386 80.104 70.386C81.424 70.386 82.051 69.847 82.051 68.483V67.889C81.798 68.593 81.27 69 80.126 69C78.146 69 77.662 67.779 77.662 65.975C77.662 64.336 78.146 62.95 80.126 62.95C81.325 62.95 81.82 63.467 82.051 64.171V63.06ZM80.258 68.208C81.699 68.208 82.084 67.394 82.084 65.975C82.084 64.611 81.699 63.742 80.258 63.742C78.817 63.742 78.674 64.82 78.674 65.975C78.674 67.207 78.85 68.208 80.258 68.208ZM89.7151 65.436C89.7151 65.601 89.6931 65.854 89.6601 66.129L85.6341 66.382C85.6341 67.669 86.1071 68.274 87.5371 68.274C88.1971 68.274 88.9451 68.109 89.3961 67.889V68.758C89.0331 68.934 88.2521 69.11 87.3941 69.11C85.6341 69.11 84.6441 68.395 84.6441 66.03C84.6441 63.665 85.6341 62.95 87.3391 62.95C89.3631 62.95 89.7151 64.281 89.7151 65.436ZM85.6341 65.678L88.7801 65.447C88.7801 64.523 88.6261 63.731 87.3391 63.731C85.9751 63.731 85.6671 64.468 85.6341 65.678ZM94.2045 62.95C95.7555 62.95 96.1955 63.753 96.1955 64.886V69H95.2385V65.238C95.2385 64.325 95.0405 63.797 94.1055 63.797C93.3575 63.797 92.6205 63.94 92.3015 64.985V69H91.3555V63.06H92.3015V63.907C92.6535 63.137 93.4785 62.95 94.2045 62.95ZM100.003 68.274C100.267 68.274 100.443 68.252 100.652 68.208V69.011C100.421 69.044 100.234 69.066 99.9813 69.066C98.6723 69.066 98.1993 68.747 98.1993 67.185V63.852H97.3193V63.06H98.1993V61.652H99.1453V63.06H100.619V63.852H99.1453V67.13C99.1453 68.054 99.2773 68.274 100.003 68.274ZM102.532 60.783H110.276V68.703C110.276 69.649 109.913 69.88 108.934 69.935L108.263 69.979L107.988 69.154L108.659 69.11C109.341 69.077 109.429 68.978 109.429 68.428V66.899H106.767V69.902H105.931V66.899H103.313C103.17 68.186 102.829 69.044 102.092 70.188L101.311 69.825C102.279 68.329 102.532 67.691 102.532 65.249V60.783ZM105.931 61.575H103.368V63.489H105.931V61.575ZM109.429 63.489V61.575H106.767V63.489H109.429ZM103.357 66.085H105.931V64.303H103.368V65.546C103.368 65.733 103.368 65.909 103.357 66.085ZM106.767 66.085H109.429V64.303H106.767V66.085ZM116.088 68.648L115.439 68.153C116.242 67.207 116.506 66.8 116.594 65.832H115.087V65.051H116.627V64.38V62.862H115.417V62.092H116.627V60.299L117.408 60.321V62.092H119.399V60.288L120.202 60.31V62.092H121.61V62.862H120.202V65.051H121.962V65.832H120.202V68.56H119.399V65.832H117.364C117.276 67.108 116.968 67.658 116.088 68.648ZM114.911 62.477L114.284 63.126C113.954 62.499 113.162 61.454 112.733 60.992L113.338 60.486C113.778 60.926 114.581 61.927 114.911 62.477ZM117.408 62.862V64.325C117.408 64.589 117.408 64.831 117.397 65.051H119.399V62.862H117.408ZM118.233 69.011C119.542 69.044 120.851 69.011 122.028 68.934L121.841 69.759C120.906 69.792 119.366 69.836 118.442 69.803C116.165 69.748 115.175 69.649 113.976 68.417C113.569 68.879 113.283 69.253 112.667 69.869L112.084 69.253C112.689 68.692 113.228 68.164 113.635 67.647V64.732H112.447V63.951H114.427V67.812C115.472 68.824 116.319 68.978 118.233 69.011ZM126.466 64.655L125.795 64.215C126.576 63.104 127.335 61.531 127.742 60.178L128.578 60.288C128.435 60.739 128.259 61.19 128.072 61.63H132.439V62.422C132.186 63.06 131.889 63.665 131.559 64.248L130.811 63.973C131.108 63.489 131.35 62.961 131.581 62.422H127.72C127.335 63.214 126.917 63.984 126.466 64.655ZM125.146 60.266L125.993 60.398C125.729 61.245 125.443 61.982 125.135 62.686V70.034H124.354V64.215C124.057 64.71 123.749 65.194 123.408 65.667L122.825 65.15C123.661 63.962 124.651 62.081 125.146 60.266ZM128.908 68.494V63.302L129.711 63.324V68.78C129.711 69.605 129.403 69.902 128.303 69.957L127.753 70.001L127.467 69.176L128.127 69.132C128.787 69.099 128.908 68.956 128.908 68.494ZM127.214 64.897L127.918 65.095C127.489 66.47 126.818 67.922 126.125 69.099L125.421 68.78C126.059 67.724 126.829 66.173 127.214 64.897ZM130.503 65.216L131.152 64.897C131.702 65.799 132.593 67.768 132.912 68.791L132.23 69.22C131.9 68.131 131.042 66.14 130.503 65.216ZM140.077 61.883H143.135C143.124 62.785 143.102 63.654 143.08 64.49C143.047 65.92 143.003 67.581 142.948 68.538C142.893 69.473 142.629 69.737 141.661 69.825L140.715 69.902L140.451 69.066L141.518 69C141.881 68.967 142.068 68.857 142.112 68.285C142.2 66.734 142.244 63.984 142.277 62.664L139.769 62.675C139.56 63.159 139.351 63.621 139.098 64.094L138.35 63.698C138.999 62.609 139.538 61.212 139.857 59.925L140.66 60.09C140.484 60.706 140.297 61.3 140.077 61.883ZM136.106 60.024L136.997 60.211C136.876 60.695 136.722 61.289 136.502 61.905H138.207V69.649H134.456V61.905H135.589C135.809 61.322 135.963 60.684 136.106 60.024ZM137.437 65.304V62.697H135.226V65.304H137.437ZM141.397 66.569L140.693 67.042C140.176 65.986 139.593 65.051 139.164 64.435L139.813 63.995C140.308 64.655 140.913 65.601 141.397 66.569ZM135.226 68.879H137.437V66.107H135.226V68.879ZM154.293 61.894H150.003V63.005H153.534V63.698H145.669V63.005H149.167V61.894H144.866V61.19H149.167V60.079L150.003 60.112V61.19H154.293V61.894ZM145.988 66.47V64.622H153.259V67.625H146.681C146.505 68.461 146.087 69.385 145.284 70.32L144.602 69.77C145.691 68.56 145.988 67.812 145.988 66.47ZM146.791 66.69V66.756C146.791 66.8 146.78 66.844 146.78 66.921H149.189V65.326H146.791V66.69ZM152.423 66.921V65.326H149.992V66.921H152.423ZM162.459 63.566H165.231V64.303H155.617V63.566H158.466L158.18 61.927H156.178V61.19H160.094C160.006 60.827 159.83 60.266 159.775 60.101L160.622 60.013C160.688 60.167 160.853 60.838 160.974 61.19H164.67V61.927H162.789C162.701 62.4 162.569 63.104 162.459 63.566ZM162.008 61.927H158.972C159.071 62.411 159.203 63.082 159.28 63.566H161.656L162.008 61.927ZM156.981 70.122V65.348H163.878V70.122H163.042V69.572H157.806V70.122H156.981ZM163.042 66.096H157.806V67.108H163.042V66.096ZM157.806 68.835H163.042V67.823H157.806V68.835Z" fill="#827C75"/>
<rect x="22" y="92" width="55" height="22" rx="11" fill="#F4F2DF"/>
<path d="M37.4213 102.74V102.524H35.5493V101.732H38.5853V99.956H37.0493C36.8693 100.472 36.6773 100.964 36.4733 101.42L35.6093 101.12C36.1253 100.172 36.5333 99.02 36.6893 97.856L37.5413 98.012C37.4813 98.384 37.3973 98.756 37.2893 99.152H38.5853V97.364L39.4373 97.412V99.152H42.0053V99.956H39.4373V101.732H42.5213V102.524H40.2053V104.744C40.2053 105.212 40.2773 105.332 40.7213 105.368C40.9013 105.38 41.0693 105.38 41.2493 105.368C41.7533 105.332 41.8013 105.272 41.8613 104.756C41.8973 104.468 41.9093 104.108 41.9093 103.868L42.7013 104.12C42.6893 104.372 42.6653 104.732 42.6293 105.056C42.5333 105.992 42.3053 106.052 41.3573 106.148C41.0693 106.184 40.6373 106.184 40.3613 106.148C39.5933 106.088 39.3773 105.86 39.3773 104.936V102.524H38.2733V102.752C38.2733 104.384 37.9613 105.164 36.1973 106.388L35.6213 105.704C37.1573 104.744 37.4213 104.264 37.4213 102.74ZM34.9492 99.704L34.2533 100.328C33.8693 99.62 33.2933 98.804 32.7773 98.24L33.4373 97.748C34.0013 98.336 34.5533 99.092 34.9492 99.704ZM38.8853 107C40.3133 107.036 41.8613 107 43.1453 106.916L42.9413 107.768C41.9213 107.804 40.1093 107.852 39.1133 107.816C36.6293 107.756 35.5493 107.648 34.2413 106.304C33.7973 106.808 33.4853 107.216 32.8133 107.888L32.1772 107.216C32.8373 106.604 33.4253 106.064 33.8693 105.5V102.164H32.5732V101.312H34.7333V105.68C35.8733 106.784 36.7973 106.964 38.8853 107ZM47.6738 102.44L47.7698 102.836C47.4938 102.968 47.1818 103.088 46.8338 103.232V106.712C46.8338 107.552 46.6178 107.78 45.7418 107.876L44.9498 107.972L44.6498 107.12L45.6098 107.012C45.9458 106.976 45.9938 106.796 45.9938 106.376V103.58L44.2538 104.252L44.0018 103.4C44.5178 103.208 45.2378 102.92 45.9938 102.62V100.352H44.5538V99.512H45.9938V97.436L46.8338 97.484V99.512H48.0218V100.352H46.8338V102.272C47.1098 102.164 47.3378 102.056 47.5658 101.96L47.6738 102.44ZM51.9698 101.012C52.7498 101.384 53.7218 101.708 55.0178 102.032L54.6698 102.788C53.0978 102.344 52.0298 101.948 51.2138 101.516C50.4458 101.972 49.4258 102.404 48.1538 102.812L47.8058 102.104C48.8498 101.804 49.7018 101.456 50.4338 101.036C49.7018 100.508 49.1978 99.92 48.6338 99.116L49.2698 98.72C49.7617 99.44 50.3138 100.04 51.1778 100.568C51.9818 100.004 52.5578 99.392 52.9898 98.72H48.3698V97.952H53.9018V98.756C53.3858 99.656 52.8338 100.376 51.9698 101.012ZM51.5738 104.216V105.512H54.6098V106.292H51.5738V108.176H50.7218V106.292H47.7818V105.512H50.7218V104.216H48.4298V103.448H50.7218V102.248L51.5738 102.296V103.448H53.9738V104.216H51.5738ZM60.6023 97.928V101.852H56.7743V97.928H60.6023ZM61.7063 100.16H63.1223C63.2303 99.776 63.3623 99.236 63.4463 98.84H61.2863V98.096H66.4223V98.84H64.2383C64.1543 99.224 64.0463 99.764 63.9143 100.16H65.7983V104.492H65.0303V100.892H62.4743V104.504H61.7063V100.16ZM59.8103 98.6H57.5663V99.56H59.8103V98.6ZM57.5663 101.18H59.8103V100.22H57.5663V101.18ZM63.3743 101.528L64.1063 101.54V103.1C64.1063 104.972 63.3983 105.86 61.2623 106.784L60.8663 106.088C63.0503 105.152 63.3743 104.42 63.3743 102.932V101.528ZM60.1943 106.976C62.3903 107.084 64.5263 107.06 66.7223 106.952L66.5063 107.804C64.3583 107.9 62.3303 107.912 60.1823 107.816C58.7303 107.756 57.9023 107.468 57.2303 106.184C57.0023 106.856 56.6903 107.42 56.3063 108.08L55.6343 107.708C56.3543 106.532 56.7863 105.644 56.9183 103.94L57.6743 103.988C57.6383 104.456 57.5903 104.84 57.5063 105.212C57.8543 106.04 58.1903 106.46 58.6703 106.688V103.448H56.1143V102.716H61.2863V103.448H59.4863V104.696H61.1183V105.428H59.4863V106.916C59.7143 106.952 59.9183 106.964 60.1943 106.976ZM66.3623 106.04L65.8943 106.76C65.5823 106.412 64.5983 105.56 63.9503 105.08L64.3583 104.48C65.1263 104.96 66.0143 105.692 66.3623 106.04Z" fill="#5A5D2C"/>
<path d="M300 25H292C290.895 25 290 25.8954 290 27V43L296 40L302 43V27C302 25.8954 301.105 25 300 25Z" fill="#98A84E"/>
<defs>
<filter id="filter0_d_390_1351" x="0" y="0" width="329" height="144" filterUnits="userSpaceOnUse" color-interpolation-filters="sRGB">
<feFlood flood-opacity="0" result="BackgroundImageFix"/>
<feColorMatrix in="SourceAlpha" type="matrix" values="0 0 0 0 0 0 0 0 0 0 0 0 0 0 0 0 0 0 127 0" result="hardAlpha"/>
<feOffset dy="4"/>
<feGaussianBlur stdDeviation="2"/>
<feComposite in2="hardAlpha" operator="out"/>
<feColorMatrix type="matrix" values="0 0 0 0 0.596078 0 0 0 0 0.639216 0 0 0 0 0.368627 0 0 0 0.2 0"/>
<feBlend mode="normal" in2="BackgroundImageFix" result="effect1_dropShadow_390_1351"/>
<feBlend mode="normal" in="SourceGraphic" in2="effect1_dropShadow_390_1351" result="shape"/>
</filter>
</defs>
</svg>
