<svg width="37" height="37" viewBox="0 -4.5 37 37" fill="none" xmlns="http://www.w3.org/2000/svg">
<path d="M10.0288 28H27C28.6569 28 30 26.6569 30 25V9.68973C30 8.92553 29.7084 8.19013 29.1846 7.63364L22.8884 0.943906C22.3215 0.341546 21.531 0 20.7038 0H10.2394C8.59372 0 7.25526 1.32571 7.23952 2.97129L7.02898 24.9713C7.01302 26.6393 8.36077 28 10.0288 28Z" fill="#929A4F"/>
<path d="M19.5 11H25.7929C26.2383 11 26.4614 10.4614 26.1464 10.1464L19.8536 3.85355C19.5386 3.53857 19 3.76165 19 4.20711V10.5C19 10.7761 19.2239 11 19.5 11Z" fill="#FDFAF2"/>
<rect x="12" y="16" width="13" height="3" rx="1" fill="#FDFAF2"/>
</svg>
