<svg width="280" height="1018" viewBox="0 0 280 1018" fill="none" xmlns="http://www.w3.org/2000/svg">
<path d="M148 638.621C213.022 612.089 258.5 551.193 258.5 480.311C258.5 409.43 213.022 348.533 148 322.001" stroke="#FCF8ED" stroke-width="10" stroke-dasharray="20 20"/>
<path d="M147.5 954.811C110.452 939.694 79.7497 913.42 60.1886 880.501C45.4179 855.643 37 826.996 37 796.501C37 759.224 49.578 724.709 70.962 696.501C90.2394 671.072 116.673 650.769 147.5 638.19" stroke="#FCF8ED" stroke-width="10" stroke-linecap="round" stroke-dasharray="20 20"/>
<path d="M149.5 321.621C84.4777 295.089 39 234.193 39 163.311C39 92.4298 84.4777 31.5335 149.5 5.00098" stroke="#FCF8ED" stroke-width="10" stroke-linecap="round" stroke-dasharray="20 20"/>
<g filter="url(#filter0_d_0_1)">
<circle cx="166" cy="965.001" r="45" fill="#98A35E"/>
<circle cx="166" cy="965.001" r="41" stroke="#FEF8E8" stroke-width="8"/>
</g>
<path d="M152.848 954.122V983.654C153.835 985.942 156.25 985.513 156.47 983.654V972.169C156.47 970.192 162.556 971.931 167.255 972.322C179.848 973.372 181.663 971.564 179.848 969.544L174.909 962.982C176.006 961.888 177.543 958.707 178.86 956.082C180.411 952.991 180.904 951.849 178.202 952.801C175.499 953.753 170.288 955.065 165.739 952.8C159.809 949.849 155.592 952.153 152.848 954.122Z" fill="#FDFDFF"/>
<g filter="url(#filter1_d_0_1)">
<ellipse cx="52.5" cy="871.501" rx="40.5" ry="48.5" fill="#FCF8ED"/>
</g>
<path d="M48.3003 897.297V898.161H43.5843V900.297H42.6963V898.161H37.9803V897.297H42.6963V896.001H39.2163V890.961H41.1603C40.9203 890.481 40.5963 889.941 40.3203 889.605L41.0403 889.197C41.3643 889.593 41.8203 890.277 42.0483 890.721L41.7003 890.961H44.0163C44.4603 890.421 44.9403 889.665 45.1683 889.185L45.9723 889.533C45.7803 889.905 45.4203 890.481 45.0843 890.961H47.0643V896.001H43.5843V897.297H48.3003ZM42.6963 891.741H40.1043V893.061H42.6963V891.741ZM46.1523 893.061V891.741H43.5843V893.061H46.1523ZM40.1043 895.161H42.6963V893.841H40.1043V895.161ZM43.5843 895.161H46.1523V893.841H43.5843V895.161ZM58.6248 890.061V890.973H51.0888V890.061H58.6248ZM59.2728 896.937L60.1728 897.225C60.1368 897.609 60.0888 897.993 60.0288 898.365C59.8368 899.409 59.6688 899.613 58.3728 899.745C58.0488 899.781 57.5448 899.781 57.1728 899.745C56.0688 899.685 55.7208 899.349 55.7208 898.173V894.141H53.7168C53.7168 894.585 53.7048 895.185 53.6688 895.401C53.4768 897.501 52.7928 898.665 50.2488 900.225L49.5768 899.445C52.0248 898.137 52.5408 897.141 52.6968 895.401C52.7328 895.185 52.7568 894.585 52.7568 894.141H50.1168V893.241H59.7288V894.141H56.6928V897.957C56.6928 898.653 56.7528 898.797 57.3888 898.833H58.2288C58.9368 898.797 59.0688 898.605 59.1648 897.969C59.2008 897.741 59.2368 897.333 59.2728 896.937ZM64.1373 899.001V891.657L62.0733 892.053V891.177L64.5093 890.673H65.2173V899.001H64.1373Z" fill="#1F1B12"/>
<circle cx="52.5" cy="857.501" r="19.5" fill="#F1F1D7"/>
<path d="M51.1667 846.588C51.7253 845.504 53.2747 845.504 53.8333 846.588L56.5261 851.812C56.7438 852.234 57.1488 852.528 57.6178 852.605L63.4183 853.551C64.6215 853.748 65.1003 855.221 64.2423 856.088L60.1061 860.263C59.7717 860.601 59.617 861.077 59.6891 861.546L60.5812 867.355C60.7662 868.56 59.5127 869.471 58.4239 868.923L53.1747 866.279C52.7503 866.066 52.2497 866.066 51.8253 866.279L46.5761 868.923C45.4873 869.471 44.2338 868.56 44.4188 867.355L45.3109 861.546C45.383 861.077 45.2283 860.601 44.8939 860.263L40.7577 856.088C39.8997 855.221 40.3785 853.748 41.5817 853.551L47.3822 852.605C47.8512 852.528 48.2562 852.234 48.4739 851.812L51.1667 846.588Z" fill="#9EA860"/>
<g filter="url(#filter2_d_0_1)">
<ellipse cx="63.5" cy="690.501" rx="40.5" ry="48.5" fill="#FCF8ED"/>
</g>
<path d="M59.3003 716.297V717.161H54.5843V719.297H53.6963V717.161H48.9803V716.297H53.6963V715.001H50.2163V709.961H52.1603C51.9203 709.481 51.5963 708.941 51.3203 708.605L52.0403 708.197C52.3643 708.593 52.8203 709.277 53.0483 709.721L52.7003 709.961H55.0163C55.4603 709.421 55.9403 708.665 56.1683 708.185L56.9723 708.533C56.7803 708.905 56.4203 709.481 56.0843 709.961H58.0643V715.001H54.5843V716.297H59.3003ZM53.6963 710.741H51.1043V712.061H53.6963V710.741ZM57.1523 712.061V710.741H54.5843V712.061H57.1523ZM51.1043 714.161H53.6963V712.841H51.1043V714.161ZM54.5843 714.161H57.1523V712.841H54.5843V714.161ZM69.6248 709.061V709.973H62.0888V709.061H69.6248ZM70.2728 715.937L71.1728 716.225C71.1368 716.609 71.0888 716.993 71.0288 717.365C70.8368 718.409 70.6688 718.613 69.3728 718.745C69.0488 718.781 68.5448 718.781 68.1728 718.745C67.0688 718.685 66.7208 718.349 66.7208 717.173V713.141H64.7168C64.7168 713.585 64.7048 714.185 64.6688 714.401C64.4768 716.501 63.7928 717.665 61.2488 719.225L60.5768 718.445C63.0248 717.137 63.5408 716.141 63.6968 714.401C63.7328 714.185 63.7568 713.585 63.7568 713.141H61.1168V712.241H70.7288V713.141H67.6928V716.957C67.6928 717.653 67.7528 717.797 68.3888 717.833H69.2288C69.9368 717.797 70.0688 717.605 70.1648 716.969C70.2008 716.741 70.2368 716.333 70.2728 715.937ZM72.5453 718.001V716.861C76.0853 714.089 76.6613 713.117 76.6613 711.929C76.6613 710.729 75.7133 710.453 74.8973 710.453C74.3693 710.453 73.7813 710.489 73.1213 710.669V709.745C73.6853 709.613 74.3093 709.553 75.0173 709.553C76.6493 709.553 77.6933 710.237 77.6933 711.941C77.6933 713.441 76.9013 714.461 74.2133 716.609L73.7333 716.981V717.089H78.0293V718.001H72.5453Z" fill="#1F1B12"/>
<circle cx="63.5" cy="676.501" r="19.5" fill="#F1F1D7"/>
<path d="M62.1667 665.588C62.7253 664.504 64.2747 664.504 64.8333 665.588L67.5261 670.812C67.7438 671.234 68.1488 671.528 68.6178 671.605L74.4183 672.551C75.6215 672.748 76.1003 674.221 75.2423 675.088L71.1061 679.263C70.7717 679.601 70.617 680.077 70.6891 680.546L71.5812 686.355C71.7662 687.56 70.5127 688.471 69.4239 687.923L64.1747 685.279C63.7503 685.066 63.2497 685.066 62.8253 685.279L57.5761 687.923C56.4873 688.471 55.2338 687.56 55.4188 686.355L56.3109 680.546C56.383 680.077 56.2283 679.601 55.8939 679.263L51.7577 675.088C50.8997 674.221 51.3785 672.748 52.5817 672.551L58.3822 671.605C58.8512 671.528 59.2562 671.234 59.4739 670.812L62.1667 665.588Z" fill="#9EA860"/>
<path opacity="0.4" d="M63.5 635.501C66.7743 635.501 69.9706 635.917 73.0527 636.707L73.668 636.87L77.0439 637.795L76.0732 641.336C79.6764 642.712 83.0734 644.667 86.1963 647.108L88.6631 644.43L91.2383 646.801C95.6946 650.903 99.4927 655.949 102.45 661.668L103.031 662.821L104.57 665.964L101.329 667.551C102.79 671.064 103.937 674.808 104.73 678.727L108.293 678.21L108.795 681.673C109.258 684.866 109.5 688.15 109.5 691.501C109.5 694.851 109.258 698.136 108.795 701.329L108.293 704.792L104.73 704.274C103.938 708.193 102.79 711.936 101.329 715.45L104.57 717.038L103.031 720.182C99.997 726.376 95.9917 731.826 91.2383 736.201L88.6631 738.572L86.1963 735.893C83.0733 738.334 79.6764 740.288 76.0732 741.665L77.0439 745.207L73.668 746.132C70.3967 747.028 66.9926 747.501 63.5 747.501C60.2257 747.501 57.0294 747.085 53.9473 746.295L53.332 746.132L49.9561 745.207L50.9258 741.665C47.3227 740.288 43.9256 738.334 40.8027 735.893L38.3369 738.572L35.7617 736.201C31.0082 731.826 27.003 726.375 23.9688 720.181L22.4297 717.038L25.6699 715.45C24.2093 711.936 23.0615 708.193 22.2686 704.274L18.707 704.792L18.2051 701.329C17.7417 698.136 17.5 694.851 17.5 691.501C17.5 688.15 17.7417 684.866 18.2051 681.673L18.707 678.21L22.2686 678.727C23.0615 674.808 24.2092 671.064 25.6699 667.551L22.4297 665.964L23.9688 662.821C27.003 656.627 31.0082 651.176 35.7617 646.801L38.3369 644.43L40.8027 647.108C43.9256 644.667 47.3227 642.713 50.9258 641.336L49.9561 637.795L53.332 636.87C56.6033 635.974 60.0074 635.501 63.5 635.501Z" stroke="#98A35E" stroke-opacity="0.51" stroke-width="7" stroke-linecap="square" stroke-linejoin="round" stroke-dasharray="23 23"/>
<g filter="url(#filter3_d_0_1)">
<path d="M38.8307 742.637L43.096 737.945C43.3062 737.714 43.2539 737.348 42.9912 737.179C32.1264 730.183 26.3923 718.3 24.6733 712.603C24.5803 712.295 24.2294 712.147 23.9461 712.299L18.3616 715.306C18.1515 715.419 18.0492 715.663 18.1233 715.89C21.419 725.98 32.5679 737.705 38.1364 742.679C38.3399 742.861 38.6472 742.839 38.8307 742.637Z" fill="#98A35E"/>
</g>
<g filter="url(#filter4_d_0_1)">
<path d="M16.8444 708.003L23.0754 706.828C23.3825 706.77 23.5611 706.447 23.4534 706.153C18.9976 694.023 21.5807 681.085 23.6409 675.502C23.7523 675.201 23.5617 674.871 23.2437 674.822L16.9749 673.857C16.739 673.821 16.5107 673.953 16.4332 674.179C12.984 684.218 14.8179 700.293 16.2652 707.618C16.3181 707.885 16.5763 708.053 16.8444 708.003Z" fill="#98A35E"/>
</g>
<g filter="url(#filter5_d_0_1)">
<ellipse cx="220.5" cy="574.501" rx="40.5" ry="48.5" fill="white"/>
</g>
<path d="M216.3 600.297V601.161H211.584V603.297H210.696V601.161H205.98V600.297H210.696V599.001H207.216V593.961H209.16C208.92 593.481 208.596 592.941 208.32 592.605L209.04 592.197C209.364 592.593 209.82 593.277 210.048 593.721L209.7 593.961H212.016C212.46 593.421 212.94 592.665 213.168 592.185L213.972 592.533C213.78 592.905 213.42 593.481 213.084 593.961H215.064V599.001H211.584V600.297H216.3ZM210.696 594.741H208.104V596.061H210.696V594.741ZM214.152 596.061V594.741H211.584V596.061H214.152ZM208.104 598.161H210.696V596.841H208.104V598.161ZM211.584 598.161H214.152V596.841H211.584V598.161ZM226.625 593.061V593.973H219.089V593.061H226.625ZM227.273 599.937L228.173 600.225C228.137 600.609 228.089 600.993 228.029 601.365C227.837 602.409 227.669 602.613 226.373 602.745C226.049 602.781 225.545 602.781 225.173 602.745C224.069 602.685 223.721 602.349 223.721 601.173V597.141H221.717C221.717 597.585 221.705 598.185 221.669 598.401C221.477 600.501 220.793 601.665 218.249 603.225L217.577 602.445C220.025 601.137 220.541 600.141 220.697 598.401C220.733 598.185 220.757 597.585 220.757 597.141H218.117V596.241H227.729V597.141H224.693V600.957C224.693 601.653 224.753 601.797 225.389 601.833H226.229C226.937 601.797 227.069 601.605 227.165 600.969C227.201 600.741 227.237 600.333 227.273 599.937ZM231.573 602.121C230.901 602.121 230.265 602.073 229.701 601.965V601.017C230.337 601.173 230.925 601.221 231.561 601.221C232.809 601.221 233.745 600.861 233.745 599.697C233.745 598.509 232.941 598.113 231.357 598.113H230.697V597.285H231.345C232.797 597.285 233.565 596.709 233.565 595.797C233.565 594.825 232.989 594.441 231.789 594.441C231.309 594.441 230.625 594.525 230.097 594.681V593.793C230.517 593.661 231.201 593.553 231.837 593.553C233.625 593.553 234.561 594.201 234.561 595.737C234.561 596.829 233.997 597.357 233.085 597.633V597.705C234.273 597.909 234.777 598.605 234.777 599.709C234.777 601.245 233.781 602.121 231.573 602.121Z" fill="#1F1B12" fill-opacity="0.49"/>
<circle cx="220.5" cy="560.501" r="19.5" fill="#EBEBEB"/>
<path d="M219.167 549.588C219.725 548.504 221.275 548.504 221.833 549.588L224.526 554.812C224.744 555.234 225.149 555.528 225.618 555.605L231.418 556.551C232.622 556.748 233.1 558.221 232.242 559.088L228.106 563.263C227.772 563.601 227.617 564.077 227.689 564.546L228.581 570.355C228.766 571.56 227.513 572.471 226.424 571.923L221.175 569.279C220.75 569.066 220.25 569.066 219.825 569.279L214.576 571.923C213.487 572.471 212.234 571.56 212.419 570.355L213.311 564.546C213.383 564.077 213.228 563.601 212.894 563.263L208.758 559.088C207.9 558.221 208.378 556.748 209.582 556.551L215.382 555.605C215.851 555.528 216.256 555.234 216.474 554.812L219.167 549.588Z" fill="#B1B1B1"/>
<g filter="url(#filter6_d_0_1)">
<ellipse cx="235.5" cy="385.501" rx="40.5" ry="48.5" fill="white"/>
</g>
<path d="M231.3 411.297V412.161H226.584V414.297H225.696V412.161H220.98V411.297H225.696V410.001H222.216V404.961H224.16C223.92 404.481 223.596 403.941 223.32 403.605L224.04 403.197C224.364 403.593 224.82 404.277 225.048 404.721L224.7 404.961H227.016C227.46 404.421 227.94 403.665 228.168 403.185L228.972 403.533C228.78 403.905 228.42 404.481 228.084 404.961H230.064V410.001H226.584V411.297H231.3ZM225.696 405.741H223.104V407.061H225.696V405.741ZM229.152 407.061V405.741H226.584V407.061H229.152ZM223.104 409.161H225.696V407.841H223.104V409.161ZM226.584 409.161H229.152V407.841H226.584V409.161ZM241.625 404.061V404.973H234.089V404.061H241.625ZM242.273 410.937L243.173 411.225C243.137 411.609 243.089 411.993 243.029 412.365C242.837 413.409 242.669 413.613 241.373 413.745C241.049 413.781 240.545 413.781 240.173 413.745C239.069 413.685 238.721 413.349 238.721 412.173V408.141H236.717C236.717 408.585 236.705 409.185 236.669 409.401C236.477 411.501 235.793 412.665 233.249 414.225L232.577 413.445C235.025 412.137 235.541 411.141 235.697 409.401C235.733 409.185 235.757 408.585 235.757 408.141H233.117V407.241H242.729V408.141H239.693V411.957C239.693 412.653 239.753 412.797 240.389 412.833H241.229C241.937 412.797 242.069 412.605 242.165 411.969C242.201 411.741 242.237 411.333 242.273 410.937ZM250.209 410.037V410.949H249.225V413.001H248.217V410.949H244.281V409.785L247.929 404.673H249.225V410.037H250.209ZM245.193 410.037H248.217V405.777H248.145L245.193 409.965V410.037Z" fill="#1F1B12" fill-opacity="0.49"/>
<circle cx="235.5" cy="371.501" r="19.5" fill="#EBEBEB"/>
<path d="M234.167 360.588C234.725 359.504 236.275 359.504 236.833 360.588L239.526 365.812C239.744 366.234 240.149 366.528 240.618 366.605L246.418 367.551C247.622 367.748 248.1 369.221 247.242 370.088L243.106 374.263C242.772 374.601 242.617 375.077 242.689 375.546L243.581 381.355C243.766 382.56 242.513 383.471 241.424 382.923L236.175 380.279C235.75 380.066 235.25 380.066 234.825 380.279L229.576 382.923C228.487 383.471 227.234 382.56 227.419 381.355L228.311 375.546C228.383 375.077 228.228 374.601 227.894 374.263L223.758 370.088C222.9 369.221 223.378 367.748 224.582 367.551L230.382 366.605C230.851 366.528 231.256 366.234 231.474 365.812L234.167 360.588Z" fill="#B1B1B1"/>
<g filter="url(#filter7_d_0_1)">
<ellipse cx="70.5" cy="253.501" rx="40.5" ry="48.5" fill="white"/>
</g>
<path d="M66.3003 279.297V280.161H61.5843V282.297H60.6963V280.161H55.9803V279.297H60.6963V278.001H57.2163V272.961H59.1603C58.9203 272.481 58.5963 271.941 58.3203 271.605L59.0403 271.197C59.3643 271.593 59.8203 272.277 60.0483 272.721L59.7003 272.961H62.0163C62.4603 272.421 62.9403 271.665 63.1683 271.185L63.9723 271.533C63.7803 271.905 63.4203 272.481 63.0843 272.961H65.0643V278.001H61.5843V279.297H66.3003ZM60.6963 273.741H58.1043V275.061H60.6963V273.741ZM64.1523 275.061V273.741H61.5843V275.061H64.1523ZM58.1043 277.161H60.6963V275.841H58.1043V277.161ZM61.5843 277.161H64.1523V275.841H61.5843V277.161ZM76.6248 272.061V272.973H69.0888V272.061H76.6248ZM77.2728 278.937L78.1728 279.225C78.1368 279.609 78.0888 279.993 78.0288 280.365C77.8368 281.409 77.6688 281.613 76.3728 281.745C76.0488 281.781 75.5448 281.781 75.1728 281.745C74.0688 281.685 73.7208 281.349 73.7208 280.173V276.141H71.7168C71.7168 276.585 71.7048 277.185 71.6688 277.401C71.4768 279.501 70.7928 280.665 68.2488 282.225L67.5768 281.445C70.0248 280.137 70.5408 279.141 70.6968 277.401C70.7328 277.185 70.7568 276.585 70.7568 276.141H68.1168V275.241H77.7288V276.141H74.6928V279.957C74.6928 280.653 74.7528 280.797 75.3888 280.833H76.2288C76.9368 280.797 77.0688 280.605 77.1648 279.969C77.2008 279.741 77.2368 279.333 77.2728 278.937ZM81.6093 281.121C80.9373 281.121 80.4333 281.073 79.8933 280.965V280.017C80.5173 280.173 80.9613 280.221 81.5973 280.221C82.9773 280.221 83.9013 279.789 83.9013 278.421C83.9013 277.173 83.2413 276.633 81.5133 276.633C81.0693 276.633 80.4453 276.717 79.9173 276.813L80.4813 272.673H84.3693V273.609H81.2973L80.9493 275.889C81.2493 275.841 81.5373 275.817 81.9213 275.817C83.8533 275.817 84.9333 276.573 84.9333 278.349C84.9333 280.317 83.6373 281.121 81.6093 281.121Z" fill="#1F1B12" fill-opacity="0.49"/>
<circle cx="70.5" cy="239.501" r="19.5" fill="#EBEBEB"/>
<path d="M69.1667 228.588C69.7253 227.504 71.2747 227.504 71.8333 228.588L74.5261 233.812C74.7438 234.234 75.1488 234.528 75.6178 234.605L81.4183 235.551C82.6215 235.748 83.1003 237.221 82.2423 238.088L78.1061 242.263C77.7717 242.601 77.617 243.077 77.6891 243.546L78.5812 249.355C78.7662 250.56 77.5127 251.471 76.4239 250.923L71.1747 248.279C70.7503 248.066 70.2497 248.066 69.8253 248.279L64.5761 250.923C63.4873 251.471 62.2338 250.56 62.4188 249.355L63.3109 243.546C63.383 243.077 63.2283 242.601 62.8939 242.263L58.7577 238.088C57.8997 237.221 58.3785 235.748 59.5817 235.551L65.3822 234.605C65.8512 234.528 66.2562 234.234 66.4739 233.812L69.1667 228.588Z" fill="#B1B1B1"/>
<g filter="url(#filter8_d_0_1)">
<ellipse cx="70.5" cy="53.501" rx="40.5" ry="48.5" fill="white"/>
</g>
<path d="M66.3003 79.297V80.161H61.5843V82.297H60.6963V80.161H55.9803V79.297H60.6963V78.001H57.2163V72.961H59.1603C58.9203 72.481 58.5963 71.941 58.3203 71.605L59.0403 71.197C59.3643 71.593 59.8203 72.277 60.0483 72.721L59.7003 72.961H62.0163C62.4603 72.421 62.9403 71.665 63.1683 71.185L63.9723 71.533C63.7803 71.905 63.4203 72.481 63.0843 72.961H65.0643V78.001H61.5843V79.297H66.3003ZM60.6963 73.741H58.1043V75.061H60.6963V73.741ZM64.1523 75.061V73.741H61.5843V75.061H64.1523ZM58.1043 77.161H60.6963V75.841H58.1043V77.161ZM61.5843 77.161H64.1523V75.841H61.5843V77.161ZM76.6248 72.061V72.973H69.0888V72.061H76.6248ZM77.2728 78.937L78.1728 79.225C78.1368 79.609 78.0888 79.993 78.0288 80.365C77.8368 81.409 77.6688 81.613 76.3728 81.745C76.0488 81.781 75.5448 81.781 75.1728 81.745C74.0688 81.685 73.7208 81.349 73.7208 80.173V76.141H71.7168C71.7168 76.585 71.7048 77.185 71.6688 77.401C71.4768 79.501 70.7928 80.665 68.2488 82.225L67.5768 81.445C70.0248 80.137 70.5408 79.141 70.6968 77.401C70.7328 77.185 70.7568 76.585 70.7568 76.141H68.1168V75.241H77.7288V76.141H74.6928V79.957C74.6928 80.653 74.7528 80.797 75.3888 80.833H76.2288C76.9368 80.797 77.0688 80.605 77.1648 79.969C77.2008 79.741 77.2368 79.333 77.2728 78.937ZM81.6093 81.121C80.9373 81.121 80.4333 81.073 79.8933 80.965V80.017C80.5173 80.173 80.9613 80.221 81.5973 80.221C82.9773 80.221 83.9013 79.789 83.9013 78.421C83.9013 77.173 83.2413 76.633 81.5133 76.633C81.0693 76.633 80.4453 76.717 79.9173 76.813L80.4813 72.673H84.3693V73.609H81.2973L80.9493 75.889C81.2493 75.841 81.5373 75.817 81.9213 75.817C83.8533 75.817 84.9333 76.573 84.9333 78.349C84.9333 80.317 83.6373 81.121 81.6093 81.121Z" fill="#1F1B12" fill-opacity="0.49"/>
<circle cx="70.5" cy="39.501" r="19.5" fill="#EBEBEB"/>
<path d="M69.1667 28.5876C69.7253 27.5039 71.2747 27.5039 71.8333 28.5876L74.5261 33.8116C74.7438 34.234 75.1488 34.5282 75.6178 34.6048L81.4183 35.5515C82.6215 35.7479 83.1003 37.2215 82.2423 38.0876L78.1061 42.2629C77.7717 42.6005 77.617 43.0766 77.6891 43.5463L78.5812 49.3554C78.7662 50.5605 77.5127 51.4712 76.4239 50.9228L71.1747 48.2793C70.7503 48.0655 70.2497 48.0655 69.8253 48.2793L64.5761 50.9228C63.4873 51.4712 62.2338 50.5605 62.4188 49.3554L63.3109 43.5463C63.383 43.0766 63.2283 42.6005 62.8939 42.2629L58.7577 38.0876C57.8997 37.2215 58.3785 35.7479 59.5817 35.5515L65.3822 34.6048C65.8512 34.5282 66.2562 34.234 66.4739 33.8116L69.1667 28.5876Z" fill="#B1B1B1"/>
<defs>
<filter id="filter0_d_0_1" x="117" y="920.001" width="98" height="98" filterUnits="userSpaceOnUse" color-interpolation-filters="sRGB">
<feFlood flood-opacity="0" result="BackgroundImageFix"/>
<feColorMatrix in="SourceAlpha" type="matrix" values="0 0 0 0 0 0 0 0 0 0 0 0 0 0 0 0 0 0 127 0" result="hardAlpha"/>
<feOffset dy="4"/>
<feGaussianBlur stdDeviation="2"/>
<feComposite in2="hardAlpha" operator="out"/>
<feColorMatrix type="matrix" values="0 0 0 0 0.627451 0 0 0 0 0.666667 0 0 0 0 0.384314 0 0 0 0.2 0"/>
<feBlend mode="normal" in2="BackgroundImageFix" result="effect1_dropShadow_0_1"/>
<feBlend mode="normal" in="SourceGraphic" in2="effect1_dropShadow_0_1" result="shape"/>
</filter>
<filter id="filter1_d_0_1" x="8" y="823.001" width="89" height="105" filterUnits="userSpaceOnUse" color-interpolation-filters="sRGB">
<feFlood flood-opacity="0" result="BackgroundImageFix"/>
<feColorMatrix in="SourceAlpha" type="matrix" values="0 0 0 0 0 0 0 0 0 0 0 0 0 0 0 0 0 0 127 0" result="hardAlpha"/>
<feOffset dy="4"/>
<feGaussianBlur stdDeviation="2"/>
<feComposite in2="hardAlpha" operator="out"/>
<feColorMatrix type="matrix" values="0 0 0 0 0.596078 0 0 0 0 0.639216 0 0 0 0 0.368627 0 0 0 0.2 0"/>
<feBlend mode="normal" in2="BackgroundImageFix" result="effect1_dropShadow_0_1"/>
<feBlend mode="normal" in="SourceGraphic" in2="effect1_dropShadow_0_1" result="shape"/>
</filter>
<filter id="filter2_d_0_1" x="19" y="642.001" width="89" height="105" filterUnits="userSpaceOnUse" color-interpolation-filters="sRGB">
<feFlood flood-opacity="0" result="BackgroundImageFix"/>
<feColorMatrix in="SourceAlpha" type="matrix" values="0 0 0 0 0 0 0 0 0 0 0 0 0 0 0 0 0 0 127 0" result="hardAlpha"/>
<feOffset dy="4"/>
<feGaussianBlur stdDeviation="2"/>
<feComposite in2="hardAlpha" operator="out"/>
<feColorMatrix type="matrix" values="0 0 0 0 0.596078 0 0 0 0 0.639216 0 0 0 0 0.368627 0 0 0 0.2 0"/>
<feBlend mode="normal" in2="BackgroundImageFix" result="effect1_dropShadow_0_1"/>
<feBlend mode="normal" in="SourceGraphic" in2="effect1_dropShadow_0_1" result="shape"/>
</filter>
<filter id="filter3_d_0_1" x="11.0996" y="711.238" width="33.126" height="38.5645" filterUnits="userSpaceOnUse" color-interpolation-filters="sRGB">
<feFlood flood-opacity="0" result="BackgroundImageFix"/>
<feColorMatrix in="SourceAlpha" type="matrix" values="0 0 0 0 0 0 0 0 0 0 0 0 0 0 0 0 0 0 127 0" result="hardAlpha"/>
<feOffset dx="-3" dy="3"/>
<feGaussianBlur stdDeviation="2"/>
<feComposite in2="hardAlpha" operator="out"/>
<feColorMatrix type="matrix" values="0 0 0 0 0.596078 0 0 0 0 0.639216 0 0 0 0 0.368627 0 0 0 0.25 0"/>
<feBlend mode="normal" in2="BackgroundImageFix" result="effect1_dropShadow_0_1"/>
<feBlend mode="normal" in="SourceGraphic" in2="effect1_dropShadow_0_1" result="shape"/>
</filter>
<filter id="filter4_d_0_1" x="7.46289" y="672.851" width="17.21" height="42.1611" filterUnits="userSpaceOnUse" color-interpolation-filters="sRGB">
<feFlood flood-opacity="0" result="BackgroundImageFix"/>
<feColorMatrix in="SourceAlpha" type="matrix" values="0 0 0 0 0 0 0 0 0 0 0 0 0 0 0 0 0 0 127 0" result="hardAlpha"/>
<feOffset dx="-3" dy="3"/>
<feGaussianBlur stdDeviation="2"/>
<feComposite in2="hardAlpha" operator="out"/>
<feColorMatrix type="matrix" values="0 0 0 0 0.596078 0 0 0 0 0.639216 0 0 0 0 0.368627 0 0 0 0.25 0"/>
<feBlend mode="normal" in2="BackgroundImageFix" result="effect1_dropShadow_0_1"/>
<feBlend mode="normal" in="SourceGraphic" in2="effect1_dropShadow_0_1" result="shape"/>
</filter>
<filter id="filter5_d_0_1" x="176" y="526.001" width="89" height="105" filterUnits="userSpaceOnUse" color-interpolation-filters="sRGB">
<feFlood flood-opacity="0" result="BackgroundImageFix"/>
<feColorMatrix in="SourceAlpha" type="matrix" values="0 0 0 0 0 0 0 0 0 0 0 0 0 0 0 0 0 0 127 0" result="hardAlpha"/>
<feOffset dy="4"/>
<feGaussianBlur stdDeviation="2"/>
<feComposite in2="hardAlpha" operator="out"/>
<feColorMatrix type="matrix" values="0 0 0 0 0.677885 0 0 0 0 0.677885 0 0 0 0 0.677885 0 0 0 0.2 0"/>
<feBlend mode="normal" in2="BackgroundImageFix" result="effect1_dropShadow_0_1"/>
<feBlend mode="normal" in="SourceGraphic" in2="effect1_dropShadow_0_1" result="shape"/>
</filter>
<filter id="filter6_d_0_1" x="191" y="337.001" width="89" height="105" filterUnits="userSpaceOnUse" color-interpolation-filters="sRGB">
<feFlood flood-opacity="0" result="BackgroundImageFix"/>
<feColorMatrix in="SourceAlpha" type="matrix" values="0 0 0 0 0 0 0 0 0 0 0 0 0 0 0 0 0 0 127 0" result="hardAlpha"/>
<feOffset dy="4"/>
<feGaussianBlur stdDeviation="2"/>
<feComposite in2="hardAlpha" operator="out"/>
<feColorMatrix type="matrix" values="0 0 0 0 0.677885 0 0 0 0 0.677885 0 0 0 0 0.677885 0 0 0 0.2 0"/>
<feBlend mode="normal" in2="BackgroundImageFix" result="effect1_dropShadow_0_1"/>
<feBlend mode="normal" in="SourceGraphic" in2="effect1_dropShadow_0_1" result="shape"/>
</filter>
<filter id="filter7_d_0_1" x="26" y="205.001" width="89" height="105" filterUnits="userSpaceOnUse" color-interpolation-filters="sRGB">
<feFlood flood-opacity="0" result="BackgroundImageFix"/>
<feColorMatrix in="SourceAlpha" type="matrix" values="0 0 0 0 0 0 0 0 0 0 0 0 0 0 0 0 0 0 127 0" result="hardAlpha"/>
<feOffset dy="4"/>
<feGaussianBlur stdDeviation="2"/>
<feComposite in2="hardAlpha" operator="out"/>
<feColorMatrix type="matrix" values="0 0 0 0 0.677885 0 0 0 0 0.677885 0 0 0 0 0.677885 0 0 0 0.2 0"/>
<feBlend mode="normal" in2="BackgroundImageFix" result="effect1_dropShadow_0_1"/>
<feBlend mode="normal" in="SourceGraphic" in2="effect1_dropShadow_0_1" result="shape"/>
</filter>
<filter id="filter8_d_0_1" x="26" y="5.00098" width="89" height="105" filterUnits="userSpaceOnUse" color-interpolation-filters="sRGB">
<feFlood flood-opacity="0" result="BackgroundImageFix"/>
<feColorMatrix in="SourceAlpha" type="matrix" values="0 0 0 0 0 0 0 0 0 0 0 0 0 0 0 0 0 0 127 0" result="hardAlpha"/>
<feOffset dy="4"/>
<feGaussianBlur stdDeviation="2"/>
<feComposite in2="hardAlpha" operator="out"/>
<feColorMatrix type="matrix" values="0 0 0 0 0.677885 0 0 0 0 0.677885 0 0 0 0 0.677885 0 0 0 0.2 0"/>
<feBlend mode="normal" in2="BackgroundImageFix" result="effect1_dropShadow_0_1"/>
<feBlend mode="normal" in="SourceGraphic" in2="effect1_dropShadow_0_1" result="shape"/>
</filter>
</defs>
</svg>
