<svg width="253" height="416" viewBox="0 0 253 416" fill="none" xmlns="http://www.w3.org/2000/svg">
<g filter="url(#filter0_d_0_1)">
<circle cx="189" cy="363" r="45" fill="#98A35E"/>
<circle cx="189" cy="363" r="41" stroke="#FEF8E8" stroke-width="8"/>
</g>
<path d="M175.848 352.121V381.653C176.835 383.941 179.25 383.512 179.47 381.653V370.168C179.47 368.191 185.556 369.93 190.255 370.321C202.848 371.371 204.663 369.563 202.848 367.543L197.909 360.981C199.006 359.887 200.543 356.706 201.86 354.081C203.411 350.99 203.904 349.848 201.202 350.8C198.499 351.752 193.288 353.064 188.739 350.799C182.809 347.848 178.592 350.152 175.848 352.121Z" fill="#FDFDFF"/>
<g filter="url(#filter1_d_0_1)">
<ellipse cx="44.5" cy="318.5" rx="40.5" ry="48.5" fill="#FCF8ED"/>
</g>
<path d="M40.3003 344.296V345.16H35.5843V347.296H34.6963V345.16H29.9803V344.296H34.6963V343H31.2163V337.96H33.1603C32.9203 337.48 32.5963 336.94 32.3203 336.604L33.0403 336.196C33.3643 336.592 33.8203 337.276 34.0483 337.72L33.7003 337.96H36.0163C36.4603 337.42 36.9403 336.664 37.1683 336.184L37.9723 336.532C37.7803 336.904 37.4203 337.48 37.0843 337.96H39.0643V343H35.5843V344.296H40.3003ZM34.6963 338.74H32.1043V340.06H34.6963V338.74ZM38.1523 340.06V338.74H35.5843V340.06H38.1523ZM32.1043 342.16H34.6963V340.84H32.1043V342.16ZM35.5843 342.16H38.1523V340.84H35.5843V342.16ZM50.6248 337.06V337.972H43.0888V337.06H50.6248ZM51.2728 343.936L52.1728 344.224C52.1368 344.608 52.0888 344.992 52.0288 345.364C51.8368 346.408 51.6688 346.612 50.3728 346.744C50.0488 346.78 49.5448 346.78 49.1728 346.744C48.0688 346.684 47.7208 346.348 47.7208 345.172V341.14H45.7168C45.7168 341.584 45.7048 342.184 45.6688 342.4C45.4768 344.5 44.7928 345.664 42.2488 347.224L41.5768 346.444C44.0248 345.136 44.5408 344.14 44.6968 342.4C44.7328 342.184 44.7568 341.584 44.7568 341.14H42.1168V340.24H51.7288V341.14H48.6928V344.956C48.6928 345.652 48.7528 345.796 49.3888 345.832H50.2288C50.9368 345.796 51.0688 345.604 51.1648 344.968C51.2008 344.74 51.2368 344.332 51.2728 343.936ZM56.1373 346V338.656L54.0733 339.052V338.176L56.5093 337.672H57.2173V346H56.1373Z" fill="#1F1B12"/>
<circle cx="44.5" cy="304.5" r="19.5" fill="#F1F1D7"/>
<path d="M43.1667 293.587C43.7253 292.503 45.2747 292.503 45.8333 293.587L48.5261 298.811C48.7438 299.233 49.1488 299.527 49.6178 299.604L55.4183 300.551C56.6215 300.747 57.1003 302.22 56.2423 303.087L52.1061 307.262C51.7717 307.6 51.617 308.076 51.6891 308.545L52.5812 314.354C52.7662 315.559 51.5127 316.47 50.4239 315.922L45.1747 313.278C44.7503 313.065 44.2497 313.065 43.8253 313.278L38.5761 315.922C37.4873 316.47 36.2338 315.559 36.4188 314.354L37.3109 308.545C37.383 308.076 37.2283 307.6 36.8939 307.262L32.7577 303.087C31.8997 302.22 32.3785 300.747 33.5817 300.551L39.3822 299.604C39.8512 299.527 40.2562 299.233 40.4739 298.811L43.1667 293.587Z" fill="#9EA860"/>
<g filter="url(#filter2_d_0_1)">
<ellipse cx="78.5" cy="161.5" rx="40.5" ry="48.5" fill="#FCF8ED"/>
</g>
<path d="M74.3003 187.296V188.16H69.5843V190.296H68.6963V188.16H63.9803V187.296H68.6963V186H65.2163V180.96H67.1603C66.9203 180.48 66.5963 179.94 66.3203 179.604L67.0403 179.196C67.3643 179.592 67.8203 180.276 68.0483 180.72L67.7003 180.96H70.0163C70.4603 180.42 70.9403 179.664 71.1683 179.184L71.9723 179.532C71.7803 179.904 71.4203 180.48 71.0843 180.96H73.0643V186H69.5843V187.296H74.3003ZM68.6963 181.74H66.1043V183.06H68.6963V181.74ZM72.1523 183.06V181.74H69.5843V183.06H72.1523ZM66.1043 185.16H68.6963V183.84H66.1043V185.16ZM69.5843 185.16H72.1523V183.84H69.5843V185.16ZM84.6248 180.06V180.972H77.0888V180.06H84.6248ZM85.2728 186.936L86.1728 187.224C86.1368 187.608 86.0888 187.992 86.0288 188.364C85.8368 189.408 85.6688 189.612 84.3728 189.744C84.0488 189.78 83.5448 189.78 83.1728 189.744C82.0688 189.684 81.7208 189.348 81.7208 188.172V184.14H79.7168C79.7168 184.584 79.7048 185.184 79.6688 185.4C79.4768 187.5 78.7928 188.664 76.2488 190.224L75.5768 189.444C78.0248 188.136 78.5408 187.14 78.6968 185.4C78.7328 185.184 78.7568 184.584 78.7568 184.14H76.1168V183.24H85.7288V184.14H82.6928V187.956C82.6928 188.652 82.7528 188.796 83.3888 188.832H84.2288C84.9368 188.796 85.0688 188.604 85.1648 187.968C85.2008 187.74 85.2368 187.332 85.2728 186.936ZM87.5453 189V187.86C91.0853 185.088 91.6613 184.116 91.6613 182.928C91.6613 181.728 90.7133 181.452 89.8973 181.452C89.3693 181.452 88.7813 181.488 88.1213 181.668V180.744C88.6853 180.612 89.3093 180.552 90.0173 180.552C91.6493 180.552 92.6933 181.236 92.6933 182.94C92.6933 184.44 91.9013 185.46 89.2133 187.608L88.7333 187.98V188.088H93.0293V189H87.5453Z" fill="#1F1B12"/>
<circle cx="78.5" cy="147.5" r="19.5" fill="#F1F1D7"/>
<path d="M77.1667 136.587C77.7253 135.503 79.2747 135.503 79.8333 136.587L82.5261 141.811C82.7438 142.233 83.1488 142.527 83.6178 142.604L89.4183 143.551C90.6215 143.747 91.1003 145.22 90.2423 146.087L86.1061 150.262C85.7717 150.6 85.617 151.076 85.6891 151.545L86.5812 157.354C86.7662 158.559 85.5127 159.47 84.4239 158.922L79.1747 156.278C78.7503 156.065 78.2497 156.065 77.8253 156.278L72.5761 158.922C71.4873 159.47 70.2338 158.559 70.4188 157.354L71.3109 151.545C71.383 151.076 71.2283 150.6 70.8939 150.262L66.7577 146.087C65.8997 145.22 66.3785 143.747 67.5817 143.551L73.3822 142.604C73.8512 142.527 74.2562 142.233 74.4739 141.811L77.1667 136.587Z" fill="#9EA860"/>
<path opacity="0.4" d="M78.5 106.5C81.7743 106.5 84.9706 106.916 88.0527 107.706L88.668 107.869L92.0439 108.794L91.0732 112.335C94.6764 113.711 98.0734 115.666 101.196 118.107L103.663 115.429L106.238 117.8C110.695 121.902 114.493 126.948 117.45 132.667L118.031 133.82L119.57 136.963L116.329 138.55C117.79 142.064 118.937 145.807 119.73 149.726L123.293 149.209L123.795 152.672C124.258 155.865 124.5 159.15 124.5 162.5C124.5 165.85 124.258 169.135 123.795 172.328L123.293 175.791L119.73 175.273C118.938 179.192 117.79 182.935 116.329 186.449L119.57 188.037L118.031 191.181C114.997 197.375 110.992 202.825 106.238 207.2L103.663 209.571L101.196 206.892C98.0733 209.333 94.6764 211.288 91.0732 212.664L92.0439 216.206L88.668 217.131C85.3967 218.027 81.9926 218.5 78.5 218.5C75.2257 218.5 72.0294 218.084 68.9473 217.294L68.332 217.131L64.9561 216.206L65.9258 212.664C62.3227 211.287 58.9256 209.333 55.8027 206.892L53.3369 209.571L50.7617 207.2C46.0082 202.825 42.003 197.374 38.9688 191.18L37.4297 188.037L40.6699 186.449C39.2093 182.936 38.0615 179.192 37.2686 175.273L33.707 175.791L33.2051 172.328C32.7417 169.135 32.5 165.85 32.5 162.5C32.5 159.15 32.7417 155.865 33.2051 152.672L33.707 149.209L37.2686 149.726C38.0615 145.807 39.2092 142.063 40.6699 138.55L37.4297 136.963L38.9688 133.82C42.003 127.626 46.0082 122.175 50.7617 117.8L53.3369 115.429L55.8027 118.107C58.9256 115.666 62.3227 113.712 65.9258 112.335L64.9561 108.794L68.332 107.869C71.6033 106.973 75.0074 106.5 78.5 106.5Z" stroke="#98A35E" stroke-opacity="0.51" stroke-width="7" stroke-linecap="square" stroke-linejoin="round" stroke-dasharray="23 23"/>
<g filter="url(#filter3_d_0_1)">
<path d="M53.8307 213.636L58.096 208.944C58.3062 208.713 58.2539 208.347 57.9912 208.178C47.1264 201.182 41.3923 189.299 39.6733 183.602C39.5803 183.294 39.2294 183.146 38.9461 183.298L33.3616 186.305C33.1515 186.418 33.0492 186.662 33.1233 186.889C36.419 196.979 47.5679 208.704 53.1364 213.678C53.3399 213.86 53.6472 213.838 53.8307 213.636Z" fill="#98A35E"/>
</g>
<g filter="url(#filter4_d_0_1)">
<path d="M31.8444 179.002L38.0754 177.827C38.3825 177.769 38.5611 177.446 38.4534 177.153C33.9976 165.022 36.5807 152.084 38.6409 146.501C38.7523 146.2 38.5617 145.87 38.2437 145.821L31.9749 144.856C31.739 144.82 31.5107 144.952 31.4332 145.178C27.984 155.217 29.8179 171.292 31.2652 178.617C31.3181 178.884 31.5763 179.052 31.8444 179.002Z" fill="#98A35E"/>
</g>
<g filter="url(#filter5_d_0_1)">
<ellipse cx="208.5" cy="48.5" rx="40.5" ry="48.5" fill="white"/>
</g>
<path d="M204.3 74.296V75.16H199.584V77.296H198.696V75.16H193.98V74.296H198.696V73H195.216V67.96H197.16C196.92 67.48 196.596 66.94 196.32 66.604L197.04 66.196C197.364 66.592 197.82 67.276 198.048 67.72L197.7 67.96H200.016C200.46 67.42 200.94 66.664 201.168 66.184L201.972 66.532C201.78 66.904 201.42 67.48 201.084 67.96H203.064V73H199.584V74.296H204.3ZM198.696 68.74H196.104V70.06H198.696V68.74ZM202.152 70.06V68.74H199.584V70.06H202.152ZM196.104 72.16H198.696V70.84H196.104V72.16ZM199.584 72.16H202.152V70.84H199.584V72.16ZM214.625 67.06V67.972H207.089V67.06H214.625ZM215.273 73.936L216.173 74.224C216.137 74.608 216.089 74.992 216.029 75.364C215.837 76.408 215.669 76.612 214.373 76.744C214.049 76.78 213.545 76.78 213.173 76.744C212.069 76.684 211.721 76.348 211.721 75.172V71.14H209.717C209.717 71.584 209.705 72.184 209.669 72.4C209.477 74.5 208.793 75.664 206.249 77.224L205.577 76.444C208.025 75.136 208.541 74.14 208.697 72.4C208.733 72.184 208.757 71.584 208.757 71.14H206.117V70.24H215.729V71.14H212.693V74.956C212.693 75.652 212.753 75.796 213.389 75.832H214.229C214.937 75.796 215.069 75.604 215.165 74.968C215.201 74.74 215.237 74.332 215.273 73.936ZM219.573 76.12C218.901 76.12 218.265 76.072 217.701 75.964V75.016C218.337 75.172 218.925 75.22 219.561 75.22C220.809 75.22 221.745 74.86 221.745 73.696C221.745 72.508 220.941 72.112 219.357 72.112H218.697V71.284H219.345C220.797 71.284 221.565 70.708 221.565 69.796C221.565 68.824 220.989 68.44 219.789 68.44C219.309 68.44 218.625 68.524 218.097 68.68V67.792C218.517 67.66 219.201 67.552 219.837 67.552C221.625 67.552 222.561 68.2 222.561 69.736C222.561 70.828 221.997 71.356 221.085 71.632V71.704C222.273 71.908 222.777 72.604 222.777 73.708C222.777 75.244 221.781 76.12 219.573 76.12Z" fill="#1F1B12" fill-opacity="0.49"/>
<circle cx="208.5" cy="34.5" r="19.5" fill="#EBEBEB"/>
<path d="M207.167 23.5866C207.725 22.5029 209.275 22.5029 209.833 23.5866L212.526 28.8107C212.744 29.233 213.149 29.5273 213.618 29.6038L219.418 30.5505C220.622 30.7469 221.1 32.2205 220.242 33.0866L216.106 37.262C215.772 37.5995 215.617 38.0756 215.689 38.5453L216.581 44.3545C216.766 45.5595 215.513 46.4702 214.424 45.9218L209.175 43.2783C208.75 43.0645 208.25 43.0645 207.825 43.2783L202.576 45.9218C201.487 46.4702 200.234 45.5595 200.419 44.3545L201.311 38.5453C201.383 38.0756 201.228 37.5995 200.894 37.262L196.758 33.0866C195.9 32.2205 196.378 30.7469 197.582 30.5505L203.382 29.6038C203.851 29.5273 204.256 29.233 204.474 28.8107L207.167 23.5866Z" fill="#B1B1B1"/>
<defs>
<filter id="filter0_d_0_1" x="140" y="318" width="98" height="98" filterUnits="userSpaceOnUse" color-interpolation-filters="sRGB">
<feFlood flood-opacity="0" result="BackgroundImageFix"/>
<feColorMatrix in="SourceAlpha" type="matrix" values="0 0 0 0 0 0 0 0 0 0 0 0 0 0 0 0 0 0 127 0" result="hardAlpha"/>
<feOffset dy="4"/>
<feGaussianBlur stdDeviation="2"/>
<feComposite in2="hardAlpha" operator="out"/>
<feColorMatrix type="matrix" values="0 0 0 0 0.627451 0 0 0 0 0.666667 0 0 0 0 0.384314 0 0 0 0.2 0"/>
<feBlend mode="normal" in2="BackgroundImageFix" result="effect1_dropShadow_0_1"/>
<feBlend mode="normal" in="SourceGraphic" in2="effect1_dropShadow_0_1" result="shape"/>
</filter>
<filter id="filter1_d_0_1" x="0" y="270" width="89" height="105" filterUnits="userSpaceOnUse" color-interpolation-filters="sRGB">
<feFlood flood-opacity="0" result="BackgroundImageFix"/>
<feColorMatrix in="SourceAlpha" type="matrix" values="0 0 0 0 0 0 0 0 0 0 0 0 0 0 0 0 0 0 127 0" result="hardAlpha"/>
<feOffset dy="4"/>
<feGaussianBlur stdDeviation="2"/>
<feComposite in2="hardAlpha" operator="out"/>
<feColorMatrix type="matrix" values="0 0 0 0 0.596078 0 0 0 0 0.639216 0 0 0 0 0.368627 0 0 0 0.2 0"/>
<feBlend mode="normal" in2="BackgroundImageFix" result="effect1_dropShadow_0_1"/>
<feBlend mode="normal" in="SourceGraphic" in2="effect1_dropShadow_0_1" result="shape"/>
</filter>
<filter id="filter2_d_0_1" x="34" y="113" width="89" height="105" filterUnits="userSpaceOnUse" color-interpolation-filters="sRGB">
<feFlood flood-opacity="0" result="BackgroundImageFix"/>
<feColorMatrix in="SourceAlpha" type="matrix" values="0 0 0 0 0 0 0 0 0 0 0 0 0 0 0 0 0 0 127 0" result="hardAlpha"/>
<feOffset dy="4"/>
<feGaussianBlur stdDeviation="2"/>
<feComposite in2="hardAlpha" operator="out"/>
<feColorMatrix type="matrix" values="0 0 0 0 0.596078 0 0 0 0 0.639216 0 0 0 0 0.368627 0 0 0 0.2 0"/>
<feBlend mode="normal" in2="BackgroundImageFix" result="effect1_dropShadow_0_1"/>
<feBlend mode="normal" in="SourceGraphic" in2="effect1_dropShadow_0_1" result="shape"/>
</filter>
<filter id="filter3_d_0_1" x="26.0996" y="182.237" width="33.126" height="38.5645" filterUnits="userSpaceOnUse" color-interpolation-filters="sRGB">
<feFlood flood-opacity="0" result="BackgroundImageFix"/>
<feColorMatrix in="SourceAlpha" type="matrix" values="0 0 0 0 0 0 0 0 0 0 0 0 0 0 0 0 0 0 127 0" result="hardAlpha"/>
<feOffset dx="-3" dy="3"/>
<feGaussianBlur stdDeviation="2"/>
<feComposite in2="hardAlpha" operator="out"/>
<feColorMatrix type="matrix" values="0 0 0 0 0.596078 0 0 0 0 0.639216 0 0 0 0 0.368627 0 0 0 0.25 0"/>
<feBlend mode="normal" in2="BackgroundImageFix" result="effect1_dropShadow_0_1"/>
<feBlend mode="normal" in="SourceGraphic" in2="effect1_dropShadow_0_1" result="shape"/>
</filter>
<filter id="filter4_d_0_1" x="22.4629" y="143.85" width="17.21" height="42.1611" filterUnits="userSpaceOnUse" color-interpolation-filters="sRGB">
<feFlood flood-opacity="0" result="BackgroundImageFix"/>
<feColorMatrix in="SourceAlpha" type="matrix" values="0 0 0 0 0 0 0 0 0 0 0 0 0 0 0 0 0 0 127 0" result="hardAlpha"/>
<feOffset dx="-3" dy="3"/>
<feGaussianBlur stdDeviation="2"/>
<feComposite in2="hardAlpha" operator="out"/>
<feColorMatrix type="matrix" values="0 0 0 0 0.596078 0 0 0 0 0.639216 0 0 0 0 0.368627 0 0 0 0.25 0"/>
<feBlend mode="normal" in2="BackgroundImageFix" result="effect1_dropShadow_0_1"/>
<feBlend mode="normal" in="SourceGraphic" in2="effect1_dropShadow_0_1" result="shape"/>
</filter>
<filter id="filter5_d_0_1" x="164" y="0" width="89" height="105" filterUnits="userSpaceOnUse" color-interpolation-filters="sRGB">
<feFlood flood-opacity="0" result="BackgroundImageFix"/>
<feColorMatrix in="SourceAlpha" type="matrix" values="0 0 0 0 0 0 0 0 0 0 0 0 0 0 0 0 0 0 127 0" result="hardAlpha"/>
<feOffset dy="4"/>
<feGaussianBlur stdDeviation="2"/>
<feComposite in2="hardAlpha" operator="out"/>
<feColorMatrix type="matrix" values="0 0 0 0 0.677885 0 0 0 0 0.677885 0 0 0 0 0.677885 0 0 0 0.2 0"/>
<feBlend mode="normal" in2="BackgroundImageFix" result="effect1_dropShadow_0_1"/>
<feBlend mode="normal" in="SourceGraphic" in2="effect1_dropShadow_0_1" result="shape"/>
</filter>
</defs>
</svg>
