<svg width="104" height="80" viewBox="0 0 104 80" fill="none" xmlns="http://www.w3.org/2000/svg">
<g filter="url(#filter0_d_384_1425)">
<rect x="4" width="96" height="72" rx="15" fill="#FDFAF2"/>
</g>
<circle cx="25.5" cy="20.5" r="11.5" fill="#F2EFDC"/>
<path d="M23.0096 26.0002H29.2144C29.7667 26.0002 30.2144 25.5525 30.2144 25.0002V19.4323C30.2144 19.1776 30.1172 18.9325 29.9426 18.747L27.6534 16.3146C27.4644 16.1138 27.2009 16 26.9252 16H23.0862C22.5376 16 22.0915 16.4419 22.0862 16.9904L22.0097 24.9906C22.0043 25.5466 22.4536 26.0002 23.0096 26.0002Z" fill="#929A4F"/>
<path d="M26.7871 19.9295H27.9372C28.3826 19.9295 28.6057 19.3909 28.2907 19.0759L27.1407 17.9258C26.8257 17.6108 26.2871 17.8339 26.2871 18.2794V19.4295C26.2871 19.7056 26.511 19.9295 26.7871 19.9295Z" fill="#FDFAF2"/>
<rect x="23.7852" y="21.7129" width="4.64294" height="1.07145" rx="0.535723" fill="#FDFAF2"/>
<path d="M59.3 23.07L60.09 23.35C60.08 23.64 60.03 23.94 59.98 24.3C59.82 25.42 59.55 25.65 58.32 25.7C56.91 25.77 55.43 25.77 54.02 25.7C52.83 25.65 52.44 25.34 52.44 24.09V19.36L53.23 19.39V20.72H58.37V18.32H52.15V17.55H59.17V21.49H53.23V23.89C53.23 24.74 53.43 24.87 54.28 24.92C55.53 24.99 56.84 25 58.09 24.92C58.92 24.87 59.09 24.79 59.22 24.02C59.25 23.79 59.3 23.3 59.3 23.07ZM69.9938 25.27L69.7638 25.94C68.1938 25.7 66.9038 25.43 65.7838 25.04C64.6138 25.44 63.2238 25.74 61.4638 26.03L61.1938 25.42C62.6438 25.22 63.8538 24.97 64.8538 24.68C64.2038 24.39 63.6238 24.05 63.0938 23.65C62.6438 24.04 62.1438 24.36 61.5138 24.71L61.0938 24.21C62.2638 23.58 63.0838 22.89 63.6538 22.14H62.4638V19.31C62.1738 19.63 61.8638 19.94 61.5338 20.26L60.9438 19.79C61.8838 18.99 62.8038 17.85 63.2638 16.93L64.0038 17.14C63.8738 17.38 63.7438 17.6 63.6138 17.81H69.5738V18.44H63.1838C62.9938 18.69 62.8138 18.92 62.6138 19.15H68.6938V22.14H63.8938L64.3438 22.38C64.2238 22.53 64.1038 22.67 63.9838 22.8H68.8738V23.39C68.2238 23.92 67.5138 24.34 66.7038 24.69C67.6938 24.96 68.7838 25.14 69.9938 25.27ZM67.9338 19.71H63.2138V20.38H67.9338V19.71ZM63.2138 20.87V21.56H67.9338V20.87H63.2138ZM67.8038 23.37H63.6638C64.2438 23.77 64.9338 24.11 65.7338 24.4C66.6238 24.08 67.2938 23.73 67.8038 23.37ZM71.1975 17.66H78.7075C78.7075 18.14 78.5275 23.46 78.4775 24.09C78.3975 25.32 77.9775 25.62 76.3675 25.73L75.5875 25.79L75.2975 24.99L76.3075 24.93C77.3775 24.88 77.6075 24.66 77.6575 23.79C77.6975 23.23 77.8675 18.84 77.8675 18.44H71.1975V17.66ZM72.0775 19.54L72.5675 18.92C73.2975 19.32 74.7475 20.33 75.3775 20.91L74.8975 21.68C74.2475 21.01 72.8375 19.97 72.0775 19.54ZM71.3075 24.49L70.9375 23.72C72.5775 23.2 75.6475 21.87 77.0975 21.1L77.2075 21.54L77.2875 21.88C75.8875 22.64 72.8275 23.97 71.3075 24.49Z" fill="#767676"/>
<path d="M46.664 55.336L46.232 54.8C47.704 53.944 48.944 52.728 49.664 51.6H50.216C51.024 52.816 52.152 53.864 53.624 54.76L53.176 55.32C52.064 54.528 50.704 53.384 49.944 52.264C49.144 53.424 47.968 54.472 46.664 55.336ZM49.616 54.088L50.264 54.12V58.808H49.616V54.088ZM57.467 55.352H56.251C56.227 55.608 56.203 55.84 56.147 56.088C56.467 56.424 57.035 57.048 57.547 57.728L57.091 58.2C56.715 57.624 56.283 57.064 55.963 56.688C55.699 57.384 55.243 58.024 54.475 58.824L54.019 58.408C55.115 57.288 55.555 56.48 55.659 55.352H54.043V54.776H55.683L55.691 53.176H55.155C54.987 53.616 54.803 54.024 54.619 54.336L54.107 54.072C54.491 53.36 54.899 52.368 55.091 51.56L55.635 51.688C55.571 51.944 55.491 52.256 55.371 52.584H57.323V53.176H56.283C56.283 53.664 56.275 54.656 56.275 54.744V54.776H57.467V55.352ZM57.803 52.296H60.531V58.6H59.947V57.848H58.379V58.6L57.803 58.592V52.296ZM58.379 57.256H59.947V52.888H58.379V57.256ZM62.07 52.088L62.494 51.712C62.806 52 63.374 52.736 63.606 53.112L63.166 53.584C62.934 53.136 62.374 52.416 62.07 52.088ZM64.454 52.144H68.11V55.696H64.454V52.144ZM65.046 52.712V55.128H67.518V52.712H65.046ZM63.158 54.144V57.328C63.334 57.176 63.894 56.616 63.99 56.536L64.182 57.168L63.086 58.112C62.974 58.216 62.846 58.344 62.71 58.488L62.342 58.008C62.526 57.824 62.582 57.728 62.582 57.512V54.736H61.614V54.144H63.158ZM64.118 58.848L63.59 58.384C64.206 57.784 64.91 56.88 65.31 56.12L65.83 56.464C65.398 57.24 64.678 58.224 64.118 58.848ZM66.726 56.496L67.182 56.128C67.63 56.64 68.366 57.624 68.814 58.344L68.31 58.808C67.862 57.992 67.174 57.008 66.726 56.496ZM75.361 53.888V56.424H70.353V53.888H72.305V51.608L72.929 51.632V52.4H76.049V52.984H72.929V53.888H75.361ZM74.761 55.84V54.456H70.953V55.84H74.761ZM69.801 58.864L69.241 58.544C69.609 58.112 70.097 57.184 70.313 56.696L70.849 56.896C70.633 57.432 70.121 58.392 69.801 58.864ZM74.737 57L75.233 56.704C75.553 57.104 76.129 57.96 76.369 58.432L75.881 58.84C75.641 58.28 75.073 57.424 74.737 57ZM73.153 56.992L73.689 56.824C73.881 57.232 74.193 58.072 74.297 58.52L73.729 58.728C73.617 58.232 73.345 57.4 73.153 56.992ZM71.505 57.008L72.073 56.896C72.201 57.32 72.401 58.184 72.441 58.632L71.849 58.8C71.809 58.312 71.633 57.432 71.505 57.008Z" fill="#767676"/>
<path d="M18.8231 59.2C17.6031 59.2 16.5431 59.12 15.6831 58.94V56.46C16.7231 56.68 17.6031 56.8 18.6631 56.8C20.3231 56.8 21.6631 56.44 21.6631 54.86C21.6631 53.36 20.4031 52.96 18.2631 52.96H17.2031V50.74H18.2431C20.1831 50.74 21.4231 50.32 21.4231 48.9C21.4231 47.64 20.4431 47.28 18.9031 47.28C18.0431 47.28 16.9831 47.44 16.2031 47.68V45.34C16.8431 45.12 18.1231 44.92 19.2631 44.92C22.3831 44.92 24.3231 45.88 24.3231 48.72C24.3231 50.18 23.6431 51.2 22.1031 51.7V51.82C23.8031 52.16 24.6831 53.4 24.6831 55.1C24.6831 57.92 22.7231 59.2 18.8231 59.2ZM30.54 59.2C29.34 59.2 28.48 59.12 27.52 58.94V56.46C28.52 56.68 29.16 56.8 30.3 56.8C32.12 56.8 33.46 56.32 33.46 54.62C33.46 53.02 32.52 52.48 30.36 52.48C29.5 52.48 28.36 52.62 27.46 52.78L28.44 45.12H35.6V47.58H30.76L30.32 50.44C30.8 50.34 31.22 50.3 31.8 50.3C34.92 50.3 36.48 51.68 36.48 54.58C36.48 57.78 34.26 59.2 30.54 59.2Z" fill="#44423D"/>
<defs>
<filter id="filter0_d_384_1425" x="0" y="0" width="104" height="80" filterUnits="userSpaceOnUse" color-interpolation-filters="sRGB">
<feFlood flood-opacity="0" result="BackgroundImageFix"/>
<feColorMatrix in="SourceAlpha" type="matrix" values="0 0 0 0 0 0 0 0 0 0 0 0 0 0 0 0 0 0 127 0" result="hardAlpha"/>
<feOffset dy="4"/>
<feGaussianBlur stdDeviation="2"/>
<feComposite in2="hardAlpha" operator="out"/>
<feColorMatrix type="matrix" values="0 0 0 0 0.596078 0 0 0 0 0.639216 0 0 0 0 0.368627 0 0 0 0.2 0"/>
<feBlend mode="normal" in2="BackgroundImageFix" result="effect1_dropShadow_384_1425"/>
<feBlend mode="normal" in="SourceGraphic" in2="effect1_dropShadow_384_1425" result="shape"/>
</filter>
</defs>
</svg>
