<svg width="377" height="546" viewBox="0 0 377 546" fill="none" xmlns="http://www.w3.org/2000/svg">
<path d="M36.8637 216.374C27.545 193.636 10.2495 138.097 60.3466 95.604C68.1741 82.7442 98.3667 48.1914 118.495 37.4563C92.7755 45.8429 93.8938 10.6193 109.549 2.79066C129.677 -7.27479 152.601 11.7052 133.591 30.7467C149.247 26.0874 207.395 19.5643 255.088 32.3932C256.597 12.8548 273.537 4.0213 288.076 11.7059C301.886 19.0051 311.391 39.6926 280.08 45.8429C296.295 58.7026 312.509 74.9165 329.283 100.636C349.411 117.41 367.626 170.526 352.207 210.783C380.71 325.259 406.751 499.478 296.463 518.268C295.389 518.451 294.271 518.625 293.109 518.79C293.295 527.189 297.023 544.546 278.013 545.665C259.003 546.783 263.032 529.823 263.369 521.063C217.849 522.638 151.517 519.04 111.395 516.004C111.768 524.586 110.021 539.019 101.331 541.192C96.858 542.31 92.9442 542.31 87.353 541.192C81.7618 540.074 78.8526 529.338 80.6426 513.236C44.2997 508.763 -52.5947 453.44 36.8637 216.374Z" fill="#FFFBE3"/>
<path d="M189.503 128.995V152.478M189.503 152.478L182.234 155.833M189.503 152.478L196.771 155.833" stroke="#1C140A" stroke-linecap="round"/>
<path d="M179.217 117.917H200.088L188.957 121.913L179.217 117.917Z" fill="#3C1814" stroke="black"/>
<path d="M137.437 107.351C138.401 107.72 139.232 108.696 139.65 110.081C140.065 111.456 140.055 113.187 139.376 114.963C138.053 118.424 133.995 119.887 130.76 118.65C129.285 118.087 128.693 116.813 128.719 115.245C128.745 113.657 129.42 111.852 130.397 110.481C131.613 108.775 132.871 107.803 134.061 107.352C135.244 106.902 136.395 106.953 137.437 107.351Z" fill="#3C1814" stroke="#100000"/>
<path d="M241.943 107.351C240.979 107.72 240.148 108.696 239.73 110.081C239.315 111.456 239.325 113.187 240.004 114.963C241.326 118.424 245.385 119.887 248.62 118.65C250.095 118.087 250.687 116.813 250.661 115.245C250.635 113.657 249.96 111.852 248.982 110.481C247.767 108.775 246.509 107.803 245.319 107.352C244.136 106.902 242.985 106.953 241.943 107.351Z" fill="#3C1814" stroke="#100000"/>
<circle cx="140.898" cy="116.857" r="32.488" stroke="black"/>
<path d="M173.327 113.504C178.173 109.217 191.107 103.216 204.079 113.504" stroke="black"/>
<path d="M108.471 116.299H102.88" stroke="black" stroke-linecap="round"/>
<path d="M268.377 116.299H274.527" stroke="black" stroke-linecap="round"/>
<circle cx="235.948" cy="116.857" r="32.488" stroke="black"/>
<path d="M117.722 23.1272C120.818 25.0286 122.291 28.6309 121.598 29.5511C121.079 30.2387 117.343 28.9582 114.434 27.8634C112.257 26.2227 108.517 20.9781 108.97 20.3768C109.423 19.7743 115.244 21.606 117.722 23.1272Z" fill="#E9E1AF"/>
<path d="M279.174 34.2648C276.528 35.4061 272.216 36.4394 270.561 34.582C269.42 33.3022 272.646 30.5366 275.191 29.7139C277.248 29.0489 284.308 28.1223 284.702 28.8079C285.491 30.1791 281.29 33.3517 279.174 34.2648Z" fill="#E9E1AF"/>
<g filter="url(#filter0_d_397_1341)">
<rect x="38" y="236" width="303" height="212" rx="15" fill="#FDFAF2"/>
</g>
<path d="M67.6 274.2C69.856 274.2 70.496 275.368 70.496 277.016V283H69.12V277.528C69.12 276.2 68.832 275.432 67.456 275.432C66.368 275.432 65.296 275.64 64.832 277.16V283H63.456V270.84H64.832V275.592C65.344 274.472 66.544 274.2 67.6 274.2ZM76.8346 283.16C74.2746 283.16 72.8346 282.12 72.8346 278.68C72.8346 275.24 74.2746 274.2 76.8346 274.2C79.3946 274.2 80.8186 275.24 80.8186 278.68C80.8186 282.12 79.3946 283.16 76.8346 283.16ZM76.8346 281.992C78.8026 281.992 79.3626 281.208 79.3626 278.68C79.3626 276.168 78.7226 275.352 76.8346 275.352C74.8986 275.352 74.3066 276.168 74.3066 278.68C74.3066 281.208 74.9626 281.992 76.8346 281.992ZM86.7253 283.16C84.1653 283.16 82.7253 282.12 82.7253 278.68C82.7253 275.24 84.1653 274.2 86.7253 274.2C89.2853 274.2 90.7093 275.24 90.7093 278.68C90.7093 282.12 89.2853 283.16 86.7253 283.16ZM86.7253 281.992C88.6933 281.992 89.2533 281.208 89.2533 278.68C89.2533 276.168 88.6133 275.352 86.7253 275.352C84.7893 275.352 84.1973 276.168 84.1973 278.68C84.1973 281.208 84.8533 281.992 86.7253 281.992ZM96.0719 278.376L99.8959 283H98.1199L94.9679 278.968H94.5039V283H93.1279V270.84H94.5039V277.896H94.9999L97.9919 274.36H99.7039L96.0719 278.376ZM103.409 283.096C102.561 283.096 101.377 282.952 100.897 282.824V281.64C101.505 281.816 102.609 281.976 103.393 281.976C104.721 281.976 105.393 281.672 105.393 280.648C105.393 279.624 105.105 279.416 103.457 279.032C101.553 278.616 101.041 277.992 101.041 276.536C101.041 275.128 102.081 274.2 104.145 274.2C104.977 274.2 105.889 274.312 106.321 274.488L106.225 275.656C105.729 275.464 104.977 275.32 104.161 275.32C102.945 275.32 102.337 275.592 102.337 276.568C102.337 277.448 102.641 277.656 103.985 277.944C105.969 278.424 106.689 278.92 106.689 280.6C106.689 282.328 105.537 283.096 103.409 283.096ZM119.063 270.168H120.199C121.591 272.152 123.911 273.976 126.903 275.4L126.279 276.504C124.071 275.32 121.031 273.224 119.623 271.32C118.215 273.24 115.783 275.096 112.951 276.568L112.295 275.528C115.351 274.072 117.655 272.168 119.063 270.168ZM115.575 275.144H123.655V276.232H115.575V275.144ZM113.063 279.432V278.312H126.135V279.432H119.255C118.375 280.632 117.319 281.832 116.423 282.664C117.399 282.664 120.855 282.52 122.727 282.44C122.135 281.72 121.527 281.08 121.079 280.648L121.959 279.944C122.871 280.808 124.535 282.728 125.271 283.8L124.391 284.744C124.183 284.376 123.895 283.96 123.559 283.512C121.783 283.576 116.935 283.768 115.911 283.832C115.287 283.88 114.791 283.928 114.343 284.008L114.103 282.904C114.599 282.728 114.743 282.6 115.111 282.344C115.927 281.656 116.983 280.456 117.751 279.432H113.063ZM142.013 273.192H133.741C133.181 274.44 132.525 275.592 131.741 276.648V284.552H130.557V278.136C129.965 278.824 129.325 279.448 128.621 280.088L127.789 279.144C129.789 277.496 131.325 275.48 132.429 273.192H128.413V272.04H132.957C133.261 271.336 133.501 270.632 133.709 269.912L134.861 270.2C134.685 270.824 134.477 271.432 134.237 272.04H142.013V273.192ZM137.693 282.328H142.157V283.464H132.253V282.328H136.493V278.184H132.925V277.032H136.493V274.344L137.693 274.392V277.032H141.421V278.184H137.693V282.328ZM153.536 283.16C150.48 283.16 148.48 282.104 148.48 277.448C148.48 273.16 150.496 271.736 153.696 271.736C154.72 271.736 155.44 271.848 156.096 272.056V273.384C155.456 273.144 154.704 273 153.728 273C151.216 273 149.984 274.104 149.984 277.416C149.984 280.936 151.104 281.864 153.584 281.864C154.624 281.864 155.376 281.736 156.224 281.432V282.68C155.6 282.952 154.672 283.16 153.536 283.16ZM160.282 283.096C159.002 283.096 158.362 282.552 158.362 281.256V270.84H159.738V280.904C159.738 281.784 159.978 281.944 160.538 281.944C160.73 281.944 160.954 281.928 161.194 281.864V283C160.938 283.064 160.666 283.096 160.282 283.096ZM166.364 274.2C169.1 274.2 169.804 275.32 169.804 276.872V283H168.636L168.428 281.688C167.916 282.616 166.652 283.16 165.34 283.16C163.276 283.16 162.364 282.232 162.364 280.584C162.364 278.536 163.74 277.832 165.788 277.832H168.428V277.112C168.428 276.072 168.044 275.352 166.3 275.352C165.724 275.352 165.02 275.416 164.396 275.544V274.328C165.036 274.248 165.74 274.2 166.364 274.2ZM165.468 282.008C166.924 282.008 167.98 281.384 168.428 280.36V278.936H165.884C164.46 278.936 163.788 279.224 163.788 280.568C163.788 281.528 164.252 282.008 165.468 282.008ZM178.257 274.36H179.633V283H178.465L178.289 281.752C177.777 282.888 176.625 283.16 175.569 283.16C173.313 283.16 172.673 282.008 172.673 280.344V274.36H174.049V279.832C174.049 281.16 174.337 281.944 175.713 281.944C176.817 281.944 177.745 281.72 178.257 280.232V274.36ZM188.438 270.84H189.814V283H188.646L188.438 281.576C188.102 282.488 187.206 283.16 185.622 283.16C182.742 283.16 182.054 281.32 182.054 278.68C182.054 276.312 182.742 274.2 185.622 274.2C187.302 274.2 188.102 274.856 188.438 275.864V270.84ZM185.83 281.992C187.926 281.992 188.486 280.744 188.486 278.68C188.486 276.696 187.926 275.352 185.83 275.352C183.734 275.352 183.526 277 183.526 278.68C183.526 280.488 183.782 281.992 185.83 281.992ZM199.57 277.816C199.57 278.056 199.538 278.424 199.49 278.824L193.634 279.192C193.634 281.064 194.322 281.944 196.402 281.944C197.362 281.944 198.45 281.704 199.106 281.384V282.648C198.578 282.904 197.442 283.16 196.194 283.16C193.634 283.16 192.194 282.12 192.194 278.68C192.194 275.24 193.634 274.2 196.114 274.2C199.058 274.2 199.57 276.136 199.57 277.816ZM193.634 278.168L198.21 277.832C198.21 276.488 197.986 275.336 196.114 275.336C194.13 275.336 193.682 276.408 193.634 278.168ZM210.817 283.16C207.761 283.16 205.761 282.104 205.761 277.448C205.761 273.16 207.777 271.736 210.977 271.736C212.001 271.736 212.721 271.848 213.377 272.056V273.384C212.737 273.144 211.985 273 211.009 273C208.497 273 207.265 274.104 207.265 277.416C207.265 280.936 208.385 281.864 210.865 281.864C211.905 281.864 212.657 281.736 213.505 281.432V282.68C212.881 282.952 211.953 283.16 210.817 283.16ZM219.132 283.16C216.572 283.16 215.132 282.12 215.132 278.68C215.132 275.24 216.572 274.2 219.132 274.2C221.692 274.2 223.116 275.24 223.116 278.68C223.116 282.12 221.692 283.16 219.132 283.16ZM219.132 281.992C221.1 281.992 221.66 281.208 221.66 278.68C221.66 276.168 221.02 275.352 219.132 275.352C217.196 275.352 216.604 276.168 216.604 278.68C216.604 281.208 217.26 281.992 219.132 281.992ZM231.422 270.84H232.798V283H231.63L231.422 281.576C231.086 282.488 230.19 283.16 228.606 283.16C225.726 283.16 225.038 281.32 225.038 278.68C225.038 276.312 225.726 274.2 228.606 274.2C230.286 274.2 231.086 274.856 231.422 275.864V270.84ZM228.814 281.992C230.91 281.992 231.47 280.744 231.47 278.68C231.47 276.696 230.91 275.352 228.814 275.352C226.718 275.352 226.51 277 226.51 278.68C226.51 280.488 226.766 281.992 228.814 281.992ZM242.554 277.816C242.554 278.056 242.522 278.424 242.474 278.824L236.618 279.192C236.618 281.064 237.306 281.944 239.386 281.944C240.346 281.944 241.434 281.704 242.09 281.384V282.648C241.562 282.904 240.426 283.16 239.178 283.16C236.618 283.16 235.178 282.12 235.178 278.68C235.178 275.24 236.618 274.2 239.098 274.2C242.042 274.2 242.554 276.136 242.554 277.816ZM236.618 278.168L241.194 277.832C241.194 276.488 240.97 275.336 239.098 275.336C237.114 275.336 236.666 276.408 236.618 278.168ZM256.426 282.616H262.458V283.816H248.89V282.616H255.162V278.856H250.25V277.688H255.162V274.456H251.306C250.794 275.544 250.218 276.504 249.53 277.544L248.474 276.776C249.802 274.904 250.858 273.096 251.45 270.744L252.586 271.048C252.346 271.864 252.106 272.568 251.834 273.256H255.162V270.152L256.426 270.2V273.256H261.77V274.456H256.426V277.688H261.242V278.856H256.426V282.616ZM264.352 275.752L263.712 274.648C266.656 273.352 269.12 271.752 270.592 270.088H271.792C273.28 271.752 275.776 273.448 278.72 274.728L278.128 275.8C275.056 274.312 272.752 272.776 271.216 271.16C269.696 272.76 267.088 274.376 264.352 275.752ZM267.136 274.28H275.232V275.4H267.136V274.28ZM276.896 276.936V280.968C276.896 282.44 276.592 282.744 275.008 282.92L274.528 282.968L274.144 281.784L274.816 281.72C275.728 281.64 275.744 281.512 275.744 280.68V278.04H272.704V284.584H271.568V276.936H276.896ZM265.568 277H270.128V282.856H265.568V277ZM266.672 278.088V281.752H269.024V278.088H266.672ZM281.526 270.872H292.934V282.392C292.934 283.912 292.438 284.184 290.838 284.312L289.942 284.376L289.558 283.32L290.534 283.256C291.574 283.208 291.766 283.064 291.766 282.2V271.96H282.678V276.68C282.678 280.856 282.214 282.2 280.886 284.568L279.766 284.024C281.126 281.752 281.526 280.552 281.526 276.232V270.872ZM283.222 276.344H286.598V274.712H283.75V273.752H286.598V272.376L287.734 272.424V273.752H290.566V274.712H287.734V276.344H291.094V277.32H283.222V276.344ZM290.038 278.52V282.504H284.246V278.52H290.038ZM288.95 281.464V279.576H285.35V281.464H288.95ZM303.404 279.56V280.568H295.484V279.56H297.244V272.888H296.108V271.88H297.244V270.28L298.316 270.328V271.88H301.1V270.28L302.172 270.328V271.88H303.388V272.888H302.172V279.56H303.404ZM304.092 271.048H308.924V282.68C308.924 283.912 308.604 284.04 307.42 284.216L306.604 284.328L306.188 283.272L307.052 283.176C307.756 283.096 307.836 283.032 307.836 282.312V279.736H305.084C304.908 281.864 304.412 282.984 303.036 284.696L302.012 284.056C304.012 281.72 304.092 280.744 304.092 276.408V271.048ZM307.836 272.136H305.164V274.856H307.836V272.136ZM301.1 272.888H298.316V274.408H301.1V272.888ZM298.316 275.4V276.936H301.1V275.4H298.316ZM305.148 278.648H307.836V275.928H305.164V276.968C305.164 277.592 305.164 278.152 305.148 278.648ZM298.316 277.912V279.56H301.1V277.912H298.316ZM300.076 281.544L300.828 280.808C301.532 281.4 302.108 281.944 302.7 282.568L301.996 283.432C301.564 282.92 300.636 282.024 300.076 281.544ZM296.668 284.456L295.756 283.672C296.572 282.984 297.644 281.96 298.284 280.856L299.164 281.528C298.396 282.616 297.484 283.624 296.668 284.456ZM75.856 300.128V306.896H70.48V311.6H69.2V306.896H63.872V300.128H69.2V297.024L70.48 297.088V300.128H75.856ZM65.12 305.712H69.2V301.312H65.12V305.712ZM74.624 305.712V301.312H70.48V305.712H74.624ZM87.542 299.648H91.99C91.974 300.96 91.942 302.224 91.91 303.44C91.862 305.52 91.798 307.936 91.718 309.328C91.638 310.688 91.254 311.072 89.846 311.2L88.47 311.312L88.086 310.096L89.638 310C90.166 309.952 90.438 309.792 90.502 308.96C90.63 306.704 90.694 302.704 90.742 300.784L87.094 300.8C86.79 301.504 86.486 302.176 86.118 302.864L85.03 302.288C85.974 300.704 86.758 298.672 87.222 296.8L88.39 297.04C88.134 297.936 87.862 298.8 87.542 299.648ZM81.766 296.944L83.062 297.216C82.886 297.92 82.662 298.784 82.342 299.68H84.822V310.944H79.366V299.68H81.014C81.334 298.832 81.558 297.904 81.766 296.944ZM83.702 304.624V300.832H80.486V304.624H83.702ZM89.462 306.464L88.438 307.152C87.686 305.616 86.838 304.256 86.214 303.36L87.158 302.72C87.878 303.68 88.758 305.056 89.462 306.464ZM80.486 309.824H83.702V305.792H80.486V309.824ZM104.252 302.24H108.396V303.296H99.26V302.24H103.1V300.288H100.092V299.2H103.1V297.184L104.252 297.216V299.2H107.596V300.288H104.252V302.24ZM99.564 304.864L99.66 305.328C99.26 305.52 98.716 305.76 98.124 306V311.52H97.004V306.448C95.932 306.848 94.908 307.232 94.22 307.472L93.868 306.272C94.62 306.032 95.836 305.632 97.004 305.184V301.68H95.724C95.548 302.768 95.34 303.776 95.148 304.416L94.076 304.016C94.46 302.8 94.972 299.968 94.972 298.48L96.06 298.592C96.06 299.12 96.012 299.808 95.9 300.56H97.004V297.264L98.124 297.296V300.56H99.868V301.68H98.124V304.736C98.62 304.528 99.036 304.336 99.372 304.16L99.564 304.864ZM106.156 303.808V305.072H108.076V306.144H106.156V309.44C106.156 310.848 105.868 311.2 104.076 311.376L103.196 311.456L102.828 310.336L103.9 310.24C104.956 310.16 105.004 309.904 105.004 309.024V306.144H100.076V305.072H105.004V303.776L106.156 303.808ZM100.268 307.232L101.052 306.496C101.612 307.008 102.78 308.192 103.212 308.8L102.396 309.728C101.932 309.008 100.828 307.744 100.268 307.232ZM112.13 299.856V301.584H110.946V298.768H116.802C116.626 298.192 116.45 297.6 116.306 297.232L117.442 296.96C117.618 297.408 117.842 298.144 118.018 298.768H123.378V301.568H122.21V299.856H112.13ZM118.002 309.856H118.194C120.274 309.904 122.002 309.856 124.274 309.776L123.938 310.96C121.89 311.072 120.098 311.088 118.098 311.04C115.906 310.992 114.274 310.288 113.122 308.64C112.626 309.728 111.938 310.656 110.978 311.68L109.922 310.896C111.906 308.912 112.594 307.488 112.85 304.56L114.114 304.64C114.002 305.712 113.842 306.608 113.586 307.424C114.37 308.72 115.394 309.408 116.802 309.712V303.216H111.362V302.144H122.978V303.216H118.002V305.808H122.706V306.912H118.002V309.856ZM137.912 301.776V306.848H127.896V301.776H131.8V297.216L133.048 297.264V298.8H139.288V299.968H133.048V301.776H137.912ZM136.712 305.68V302.912H129.096V305.68H136.712ZM126.792 311.728L125.672 311.088C126.408 310.224 127.384 308.368 127.816 307.392L128.888 307.792C128.456 308.864 127.432 310.784 126.792 311.728ZM136.664 308L137.656 307.408C138.296 308.208 139.448 309.92 139.928 310.864L138.952 311.68C138.472 310.56 137.336 308.848 136.664 308ZM133.496 307.984L134.568 307.648C134.952 308.464 135.576 310.144 135.784 311.04L134.648 311.456C134.424 310.464 133.88 308.8 133.496 307.984ZM130.2 308.016L131.336 307.792C131.592 308.64 131.992 310.368 132.072 311.264L130.888 311.6C130.808 310.624 130.456 308.864 130.2 308.016ZM147.39 298.464V299.44C147.118 300 146.83 300.512 146.462 301.008H147.95V310.032C147.95 310.976 147.71 311.136 146.622 311.312L146.078 311.392L145.726 310.4L146.302 310.336C146.878 310.272 146.99 310.192 146.99 309.696V307.52H145.678V310.112H144.75V307.52H143.39C143.262 309.344 142.926 310.272 142.366 311.568L141.342 311.2C142.27 309.392 142.478 308.368 142.478 305.04V301.664L141.95 302.256L141.23 301.488C142.51 300.192 143.518 298.624 144.11 296.976L145.166 297.232C144.99 297.664 144.814 298.064 144.622 298.464H147.39ZM156.03 311.072L155.07 311.568C154.958 311.136 154.814 310.608 154.638 310.048C153.038 310.224 150.014 310.464 148.478 310.592L148.334 309.504C149.15 309.456 150.238 309.392 151.342 309.312V305.936H148.974V299.808H151.342V297.056L152.398 297.104V299.808H154.846V305.936H152.398V309.232L154.302 309.072C153.998 308.224 153.662 307.392 153.406 306.864L154.318 306.48C154.83 307.6 155.694 309.872 156.03 311.072ZM146.238 299.456H144.078C143.774 299.984 143.422 300.496 143.022 301.008H145.294C145.63 300.528 145.934 300.016 146.238 299.456ZM149.982 304.816H151.342V300.88H149.982V304.816ZM153.822 300.88H152.398V304.816H153.822V300.88ZM144.75 301.952H143.438V303.776H144.75V301.952ZM146.99 303.776V301.952H145.678V303.776H146.99ZM143.422 306.576H144.75V304.752H143.438V305.536C143.438 305.904 143.438 306.256 143.422 306.576ZM145.678 306.576H146.99V304.752H145.678V306.576ZM169.3 298.704L168.74 299.84C168.1 299.232 166.724 298.432 165.988 298.08L166.596 297.104C167.284 297.456 168.66 298.24 169.3 298.704ZM171.476 310.56L170.916 311.728C168.724 311.04 166.884 310.24 165.364 309.152C163.956 310.096 162.212 310.816 159.828 311.648L159.284 310.528C161.476 309.84 163.124 309.184 164.404 308.4C163.396 307.504 162.628 306.48 162.004 305.216C161.044 307.264 159.7 309.056 157.796 310.976L156.852 310.144C159.46 307.536 161.124 304.864 162.02 301.392H158.452V300.384C158.66 299.632 159.06 298.16 159.188 297.44L160.388 297.696C160.26 298.336 159.924 299.664 159.764 300.288H162.292C162.5 299.328 162.66 298.304 162.772 297.2L164.004 297.312C163.876 298.4 163.732 299.376 163.556 300.288H171.06V301.392H163.316C163.14 302.08 162.964 302.736 162.756 303.36H169.316V304.48C168.5 306.144 167.62 307.328 166.452 308.352C167.796 309.248 169.412 309.936 171.476 310.56ZM167.972 304.496H162.996C163.636 305.728 164.436 306.752 165.508 307.632C166.596 306.736 167.348 305.76 167.972 304.496ZM176.394 303.28C175.642 303.28 175.37 303.152 175.37 302.272C175.37 301.392 175.642 301.264 176.394 301.264C177.114 301.264 177.418 301.392 177.418 302.272C177.418 303.152 177.114 303.28 176.394 303.28ZM175.546 312.176H174.426C175.274 310.848 175.93 309.168 175.93 307.968H177.242C177.242 309.36 176.314 311.152 175.546 312.176ZM202.8 305.984V306.928H201.424V308.96H196.48V309.728C196.48 310.96 196.016 311.296 194.544 311.376L193.52 311.456L193.088 310.336C193.232 310.336 193.376 310.336 193.536 310.32C193.808 310.304 194.16 310.32 194.528 310.272C195.296 310.224 195.344 310.208 195.344 309.456V308.96H189.968V308.032H195.344V306.928H188.848V305.984H195.344V304.976H189.968V304.048H195.344V303.088H190.688V300.256H195.344V299.264H188.88V298.272H195.344V297.136L196.48 297.2V298.272H202.768V299.264H196.48V300.256H201.088V303.088H196.48V304.048H201.424V305.984H202.8ZM191.84 302.208H195.344V301.136H191.84V302.208ZM199.936 301.136H196.48V302.208H199.936V301.136ZM196.48 304.976V305.984H200.304V304.976H196.48ZM200.304 308.032V306.928H196.48V308.032H200.304ZM218.838 305.424V306.576H214.598V311.6H213.382V306.576H208.662V305.424H213.382V301.648H211.03C210.726 302.608 210.39 303.52 209.99 304.368L208.79 303.936C209.606 302.208 210.31 299.904 210.694 297.888L211.894 298.144C211.75 298.944 211.574 299.728 211.366 300.496H213.382V297.088L214.598 297.152V300.496H218.166V301.648H214.598V305.424H218.838ZM207.67 297.376L208.918 297.632C208.566 298.768 208.182 299.792 207.782 300.672V311.568H206.614V302.912C206.118 303.744 205.574 304.544 204.982 305.328L204.054 304.544C205.574 302.544 206.854 300.176 207.67 297.376ZM232.3 298.704L231.74 299.84C231.1 299.232 229.724 298.432 228.988 298.08L229.596 297.104C230.284 297.456 231.66 298.24 232.3 298.704ZM234.476 310.56L233.916 311.728C231.724 311.04 229.884 310.24 228.364 309.152C226.956 310.096 225.212 310.816 222.828 311.648L222.284 310.528C224.476 309.84 226.124 309.184 227.404 308.4C226.396 307.504 225.628 306.48 225.004 305.216C224.044 307.264 222.7 309.056 220.796 310.976L219.852 310.144C222.46 307.536 224.124 304.864 225.02 301.392H221.452V300.384C221.66 299.632 222.06 298.16 222.188 297.44L223.388 297.696C223.26 298.336 222.924 299.664 222.764 300.288H225.292C225.5 299.328 225.66 298.304 225.772 297.2L227.004 297.312C226.876 298.4 226.732 299.376 226.556 300.288H234.06V301.392H226.316C226.14 302.08 225.964 302.736 225.756 303.36H232.316V304.48C231.5 306.144 230.62 307.328 229.452 308.352C230.796 309.248 232.412 309.936 234.476 310.56ZM230.972 304.496H225.996C226.636 305.728 227.436 306.752 228.508 307.632C229.596 306.736 230.348 305.76 230.972 304.496ZM244.082 309.616H250.114V310.816H236.546V309.616H242.818V305.856H237.906V304.688H242.818V301.456H238.962C238.45 302.544 237.874 303.504 237.186 304.544L236.13 303.776C237.458 301.904 238.514 300.096 239.106 297.744L240.242 298.048C240.002 298.864 239.762 299.568 239.49 300.256H242.818V297.152L244.082 297.2V300.256H249.426V301.456H244.082V304.688H248.898V305.856H244.082V309.616ZM254.904 301.744H265.72V302.848H254.904C254.904 306.608 254.248 308.512 252.408 311.232L251.416 310.72C253.224 308.096 253.752 306.384 253.752 302.4V298.432C257.144 298.384 260.696 298.16 264.216 297.568L264.52 298.752C261.352 299.216 257.704 299.488 254.904 299.568V301.744ZM255.944 311.536V305.088H264.28V311.536H263.096V310.48H257.128V311.536H255.944ZM263.096 306.176H257.128V309.392H263.096V306.176ZM270.062 312.176H268.926C269.79 310.832 270.43 309.168 270.43 307.968H271.758C271.758 309.36 270.83 311.152 270.062 312.176ZM295.316 306.272C294.036 306.32 292.644 306.336 291.188 306.384V309.632C291.188 310.992 290.852 311.2 289.076 311.376L288.164 311.456L287.764 310.272L288.884 310.176C289.876 310.096 289.988 309.968 289.988 309.296V306.432C288.58 306.48 287.252 306.528 286.052 306.608C285.684 306.624 285.012 306.688 284.58 306.736L284.34 305.52C284.708 305.472 285.22 305.392 285.524 305.28C286.996 304.768 288.516 303.936 289.988 302.96C288.532 303.008 286.548 303.04 285.972 303.088C285.7 303.088 285.316 303.12 284.82 303.168L284.596 302.112C285.316 302 285.572 301.936 285.828 301.792C286.772 301.264 287.924 300.416 288.948 299.472C287.204 299.584 285.572 299.664 284.356 299.712L284.148 298.544C287.348 298.48 293.236 298.112 296.276 297.728L296.468 298.896C294.788 299.072 292.26 299.248 289.796 299.424L290.132 299.824C289.156 300.768 288.34 301.424 287.38 302.016C287.956 302.016 290.34 301.92 291.476 301.872C292.372 301.184 293.204 300.464 293.956 299.744L294.724 300.64C292.772 302.464 290.228 304.256 288.1 305.36C289.764 305.312 292.308 305.2 294.292 305.12C293.764 304.56 293.236 304.048 292.852 303.712L293.716 302.976C294.612 303.744 296.292 305.536 296.98 306.48L296.148 307.376C295.94 307.04 295.652 306.672 295.316 306.272ZM287.572 307.088L288.276 308.032C287.044 309.056 285.188 310.272 283.716 311.104L283.124 310.096C284.5 309.36 286.436 308.144 287.572 307.088ZM292.372 308.096L292.964 307.136C294.116 307.728 296.34 308.992 297.588 309.936L297.028 311.072C296.004 310.176 293.524 308.704 292.372 308.096ZM312.218 307.872L313.21 308.224C313.162 308.912 313.13 309.568 312.986 310.192C312.842 310.832 312.458 311.152 311.322 311.216C311.018 311.232 310.73 311.232 310.442 311.216C309.354 311.168 308.89 310.88 308.89 309.568V304.528L307.13 304.624C307.13 304.992 307.13 305.392 307.114 305.648C307.034 308.672 306.298 310.16 303.562 311.824L302.842 310.848C305.402 309.36 305.93 308.448 306.01 305.536C306.026 305.36 306.026 305.008 306.026 304.672L305.354 304.72C305.13 304.72 304.506 304.8 304.234 304.848L303.93 303.808C304.234 303.728 304.506 303.6 304.634 303.424C305.226 302.784 306.25 301.328 307.018 300.176H304.17V299.072H307.93C307.754 298.384 307.45 297.584 307.258 297.152L308.41 296.944C308.618 297.44 308.986 298.448 309.146 299.072H312.81V300.176H308.282C307.546 301.328 306.506 302.912 305.866 303.6C306.426 303.6 309.178 303.472 310.618 303.392C310.122 302.672 309.594 301.984 309.226 301.552L310.09 300.96C310.842 301.808 312.202 303.68 312.714 304.656L311.866 305.52C311.722 305.2 311.514 304.832 311.274 304.432C310.97 304.432 310.522 304.464 309.962 304.48V309.36C309.962 310.032 310.106 310.096 310.666 310.144C310.842 310.16 311.018 310.16 311.194 310.144C311.754 310.096 311.946 309.984 312.058 309.488C312.186 308.864 312.202 308.496 312.218 307.872ZM299.978 302.928C299.77 302.944 299.498 302.992 299.29 303.056L299.05 301.92C299.306 301.84 299.418 301.76 299.594 301.52C300.138 300.768 301.242 298.688 301.834 297.104L302.874 297.568C302.282 298.96 301.258 300.928 300.65 301.792L302.554 301.696C302.874 301.104 303.194 300.512 303.434 299.984L304.426 300.496C303.61 302.256 302.218 304.624 301.418 305.728L304.058 305.36L304.074 306.496C303.706 306.56 301.082 306.976 300.538 307.04C300.33 307.056 299.93 307.136 299.626 307.216L299.354 306.112C299.658 306.032 299.978 305.84 300.154 305.568C300.618 304.912 301.258 303.904 301.898 302.816C301.162 302.864 300.234 302.928 299.978 302.928ZM304.314 308.864L304.378 309.328C303.05 309.632 300.25 310.176 298.954 310.4L298.746 309.264C300.074 309.056 302.922 308.496 304.234 308.16L304.314 308.864ZM67.664 330.968L67.728 331.384C67.28 331.56 66.656 331.816 65.968 332.056V336.632C65.968 337.896 65.6 338.2 64.176 338.328L63.488 338.392L63.152 337.224L63.952 337.16C64.704 337.112 64.832 337.032 64.832 336.344V332.472C64.016 332.776 63.264 333.016 62.736 333.16L62.352 332.056C63.008 331.88 63.92 331.608 64.832 331.304V328.12H62.96V327.016H64.832V324.28L65.968 324.328V327.016H67.696V328.12H65.968V330.92C66.592 330.68 67.152 330.488 67.584 330.312L67.664 330.968ZM75.696 334.312L76.832 334.792C76.768 335.544 76.72 336.296 76.544 336.984C76.384 337.688 75.872 338.072 74.32 338.152C72.976 338.216 71.84 338.216 70.416 338.152C68.944 338.104 68.272 337.656 68.272 335.832V325.112H75.792V331.816H69.392V335.528C69.392 336.6 69.744 336.92 70.816 336.968C71.952 337.032 72.944 337.032 74.08 336.968C75.056 336.92 75.392 336.664 75.504 336.104C75.616 335.544 75.648 334.888 75.696 334.312ZM71.408 326.216H69.392V330.728H71.408V326.216ZM74.672 330.728V326.216H72.512V330.728H74.672ZM82.214 330.632L82.95 330.152C83.478 330.84 84.022 331.608 84.582 332.584L83.638 333.384C83.174 332.488 82.71 331.72 82.214 331.064V338.568H81.094V331.064C80.582 332.456 80.022 333.496 79.142 334.888L78.118 334.12C78.854 333.128 80.502 330.44 81.014 328.344H78.838V327.224H81.094V324.248L82.214 324.296V327.224H84.262V328.344H82.214V330.632ZM84.806 325.24H91.814V338.488H90.678V337.4H85.926V338.488H84.806V325.24ZM90.678 326.36H85.926V328.968H90.678V326.36ZM90.678 330.072H85.926V332.568H90.678V330.072ZM85.926 336.312H90.678V333.672H85.926V336.312ZM107.804 332.456H101.964C102.812 334.808 104.988 336.424 108.364 337.368L107.724 338.6C105.004 337.784 102.396 336.2 101.244 333.768C100.268 335.688 98.204 337.24 94.956 338.6L94.236 337.432C98.348 335.848 99.948 334.184 100.46 332.456H94.748V331.256H100.62V331.192V328.36H95.596V327.208H98.812C98.38 326.392 97.628 325.208 97.164 324.664L98.124 324.056C98.636 324.648 99.58 325.992 99.964 326.712L99.292 327.208H102.268C103.036 326.264 103.836 325.016 104.332 324.04L105.452 324.504C104.988 325.4 104.396 326.36 103.756 327.208H106.908V328.36H101.932L101.9 331.128V331.256H107.804V332.456ZM113.263 339.896C112.943 339.896 112.447 339.864 112.143 339.8V338.52C112.399 338.568 112.687 338.632 113.215 338.632C114.383 338.632 114.847 337.816 114.847 336.6V325.896H116.287V336.744C116.287 338.68 115.327 339.896 113.263 339.896ZM121.911 337.16C120.551 337.16 119.143 336.936 118.615 336.728V335.4C119.271 335.656 120.615 335.896 121.911 335.896C123.575 335.896 124.439 335.416 124.439 334.024C124.439 332.648 123.975 332.312 121.879 331.8C119.623 331.24 118.775 330.712 118.775 328.728C118.775 326.696 119.959 325.72 122.471 325.72C123.527 325.72 124.743 325.912 125.255 326.12V327.432C124.615 327.192 123.495 326.984 122.487 326.984C120.935 326.984 120.199 327.288 120.199 328.728C120.199 329.768 120.471 330.136 122.471 330.6C124.967 331.208 125.847 331.816 125.847 334.008C125.847 336.184 124.487 337.16 121.911 337.16ZM132.702 337.16C129.566 337.16 127.918 335.928 127.918 331.448C127.918 326.984 129.566 325.736 132.702 325.736C135.854 325.736 137.486 326.984 137.486 331.448C137.486 335.928 135.854 337.16 132.702 337.16ZM132.702 335.928C135.422 335.928 135.998 334.6 135.998 331.448C135.998 328.376 135.422 326.952 132.702 326.952C130.014 326.952 129.422 328.376 129.422 331.448C129.422 334.6 130.014 335.928 132.702 335.928ZM140.128 337V325.896H142.384L147.44 335.112H147.536V325.896H148.976V337H147.072L141.632 327.224H141.536V337H140.128ZM162.691 336.616H169.587V337.768H155.347V336.616H161.443V324.152L162.691 324.216V328.648H168.531V329.816H162.691V336.616ZM171.241 325.288H185.129V326.488H178.441V338.52H177.161V326.488H171.241V325.288ZM178.713 329.592L179.481 328.68C180.809 329.672 182.985 331.464 183.977 332.504L183.209 333.624C182.057 332.344 179.977 330.472 178.713 329.592ZM201.215 337.192L200.639 338.472C197.903 337.448 195.759 336.328 194.031 334.856C192.367 336.28 190.239 337.432 187.359 338.536L186.687 337.304C189.519 336.328 191.599 335.288 193.135 334.024C191.487 332.36 190.367 330.328 189.647 327.656H187.199V326.504H193.407C193.199 325.736 192.863 324.824 192.687 324.312L193.935 324.04C194.159 324.568 194.495 325.784 194.751 326.504H200.623V327.656H198.111C197.455 330.36 196.479 332.36 194.895 334.024C196.479 335.304 198.511 336.296 201.215 337.192ZM196.815 327.656H190.943C191.583 330.008 192.543 331.768 193.999 333.224C195.407 331.752 196.255 330.008 196.815 327.656ZM216.805 330.424H210.405C210.197 331.08 210.005 331.656 209.829 332.136H215.349V333.24C214.693 334.376 213.925 335.4 213.141 336.376C213.973 336.808 214.741 337.208 215.333 337.576L214.837 338.888C213.141 337.656 209.829 336.056 207.989 335.416L208.437 334.36C209.397 334.68 210.741 335.24 212.069 335.864C212.725 335.048 213.365 334.2 213.893 333.256H208.549L208.533 332.232C208.741 331.704 208.965 331.112 209.157 330.424H206.549V329.336H209.477C209.653 328.712 209.797 328.104 209.941 327.464H207.397V326.376H210.165C210.341 325.56 210.437 324.776 210.549 324.056L211.717 324.216C211.605 324.904 211.509 325.624 211.365 326.376H216.021V327.464H211.141C210.997 328.104 210.869 328.712 210.693 329.336H216.805V330.424ZM206.036 324.152L207.253 324.392C206.821 325.608 206.373 326.68 205.877 327.704V338.664H204.725V329.768C204.197 330.616 203.605 331.416 202.965 332.232L202.117 331.368C203.557 329.704 205.061 326.952 206.036 324.152ZM219.339 329.848C219.083 329.864 218.907 329.896 218.587 329.96L218.331 328.872C218.603 328.76 218.763 328.632 218.955 328.392C219.515 327.672 220.523 325.704 221.115 324.04L222.139 324.456C221.499 326.152 220.475 327.96 219.914 328.776L221.739 328.68C222.171 327.896 222.555 327.128 222.859 326.44L223.851 326.92C222.955 328.808 221.307 331.656 220.539 332.728C221.131 332.648 222.875 332.408 223.339 332.328L223.371 333.48C223.051 333.544 220.219 333.944 219.771 334.008C219.451 334.072 219.227 334.12 218.907 334.232L218.587 333.048C219.019 332.872 219.243 332.728 219.499 332.392C219.931 331.816 220.555 330.824 221.179 329.72C220.507 329.768 219.547 329.8 219.339 329.848ZM227.115 324.248H228.203C229.163 326.312 230.731 328.168 232.891 329.64L232.123 330.584C229.963 328.888 228.587 327.368 227.659 325.496C226.779 327.288 225.339 329.208 223.531 330.552L222.763 329.656C224.811 328.248 226.235 326.232 227.115 324.248ZM225.003 329.272H230.283V330.328H225.003V329.272ZM224.299 338.52V332.152H231.003V338.536H229.931V337.656H225.323V338.52H224.299ZM229.931 333.256H225.323V336.6H229.931V333.256ZM223.627 335.256L223.691 335.944L223.755 336.472C222.411 336.808 219.899 337.256 218.299 337.512L217.963 336.36C219.659 336.104 222.266 335.64 223.627 335.256ZM239.057 330.68L238.081 330.04C239.217 328.424 240.321 326.136 240.913 324.168L242.128 324.328C241.921 324.984 241.665 325.64 241.392 326.28H247.745V327.432C247.377 328.36 246.945 329.24 246.465 330.088L245.377 329.688C245.809 328.984 246.161 328.216 246.497 327.432H240.881C240.321 328.584 239.713 329.704 239.057 330.68ZM237.137 324.296L238.369 324.488C237.985 325.72 237.569 326.792 237.121 327.816V338.504H235.985V330.04C235.553 330.76 235.105 331.464 234.609 332.152L233.761 331.4C234.977 329.672 236.417 326.936 237.137 324.296ZM242.609 336.264V328.712L243.777 328.744V336.68C243.777 337.88 243.329 338.312 241.729 338.392L240.929 338.456L240.513 337.256L241.473 337.192C242.433 337.144 242.609 336.936 242.609 336.264ZM240.145 331.032L241.169 331.32C240.545 333.32 239.569 335.432 238.561 337.144L237.536 336.68C238.465 335.144 239.585 332.888 240.145 331.032ZM244.929 331.496L245.873 331.032C246.673 332.344 247.969 335.208 248.433 336.696L247.441 337.32C246.961 335.736 245.713 332.84 244.929 331.496ZM258.855 326.648H263.303C263.287 327.96 263.255 329.224 263.223 330.44C263.175 332.52 263.111 334.936 263.031 336.328C262.951 337.688 262.567 338.072 261.159 338.2L259.783 338.312L259.399 337.096L260.951 337C261.479 336.952 261.751 336.792 261.815 335.96C261.943 333.704 262.007 329.704 262.055 327.784L258.407 327.8C258.102 328.504 257.799 329.176 257.431 329.864L256.343 329.288C257.286 327.704 258.071 325.672 258.535 323.8L259.703 324.04C259.447 324.936 259.175 325.8 258.855 326.648ZM253.079 323.944L254.375 324.216C254.199 324.92 253.975 325.784 253.655 326.68H256.135V337.944H250.679V326.68H252.327C252.647 325.832 252.871 324.904 253.079 323.944ZM255.015 331.624V327.832H251.799V331.624H255.015ZM260.775 333.464L259.751 334.152C258.999 332.616 258.151 331.256 257.527 330.36L258.47 329.72C259.191 330.68 260.071 332.056 260.775 333.464ZM251.799 336.824H255.015V332.792H251.799V336.824ZM274.522 328.2C276.778 328.2 277.418 329.368 277.418 331.016V337H276.042V331.528C276.042 330.2 275.754 329.432 274.378 329.432C273.29 329.432 272.218 329.64 271.754 331.16V337H270.378V324.84H271.754V329.592C272.266 328.472 273.466 328.2 274.522 328.2ZM283.757 337.16C281.197 337.16 279.757 336.12 279.757 332.68C279.757 329.24 281.197 328.2 283.757 328.2C286.317 328.2 287.741 329.24 287.741 332.68C287.741 336.12 286.317 337.16 283.757 337.16ZM283.757 335.992C285.725 335.992 286.285 335.208 286.285 332.68C286.285 330.168 285.645 329.352 283.757 329.352C281.821 329.352 281.229 330.168 281.229 332.68C281.229 335.208 281.885 335.992 283.757 335.992ZM293.647 337.16C291.087 337.16 289.647 336.12 289.647 332.68C289.647 329.24 291.087 328.2 293.647 328.2C296.207 328.2 297.631 329.24 297.631 332.68C297.631 336.12 296.207 337.16 293.647 337.16ZM293.647 335.992C295.615 335.992 296.175 335.208 296.175 332.68C296.175 330.168 295.535 329.352 293.647 329.352C291.711 329.352 291.119 330.168 291.119 332.68C291.119 335.208 291.775 335.992 293.647 335.992ZM302.994 332.376L306.818 337H305.042L301.89 332.968H301.426V337H300.05V324.84H301.426V331.896H301.922L304.914 328.36H306.626L302.994 332.376ZM67.6 355.2C69.856 355.2 70.496 356.368 70.496 358.016V364H69.12V358.528C69.12 357.2 68.832 356.432 67.456 356.432C66.368 356.432 65.296 356.64 64.832 358.16V364H63.456V351.84H64.832V356.592C65.344 355.472 66.544 355.2 67.6 355.2ZM76.7706 355.2C79.5066 355.2 80.2106 356.32 80.2106 357.872V364H79.0426L78.8346 362.688C78.3226 363.616 77.0586 364.16 75.7466 364.16C73.6826 364.16 72.7706 363.232 72.7706 361.584C72.7706 359.536 74.1466 358.832 76.1946 358.832H78.8346V358.112C78.8346 357.072 78.4506 356.352 76.7066 356.352C76.1306 356.352 75.4266 356.416 74.8026 356.544V355.328C75.4426 355.248 76.1466 355.2 76.7706 355.2ZM75.8746 363.008C77.3306 363.008 78.3866 362.384 78.8346 361.36V359.936H76.2906C74.8666 359.936 74.1946 360.224 74.1946 361.568C74.1946 362.528 74.6586 363.008 75.8746 363.008ZM87.2875 355.2C89.5435 355.2 90.1835 356.368 90.1835 358.016V364H88.7915V358.528C88.7915 357.2 88.5035 356.432 87.1435 356.432C86.0555 356.432 84.9835 356.64 84.5195 358.16V364H83.1435V355.36H84.5195V356.592C85.0315 355.472 86.2315 355.2 87.2875 355.2ZM98.9221 351.84H100.298V364H99.1301L98.9221 362.576C98.5861 363.488 97.6901 364.16 96.1061 364.16C93.2261 364.16 92.5381 362.32 92.5381 359.68C92.5381 357.312 93.2261 355.2 96.1061 355.2C97.7861 355.2 98.5861 355.856 98.9221 356.864V351.84ZM96.3141 362.992C98.4101 362.992 98.9701 361.744 98.9701 359.68C98.9701 357.696 98.4101 356.352 96.3141 356.352C94.2181 356.352 94.0101 358 94.0101 359.68C94.0101 361.488 94.2661 362.992 96.3141 362.992ZM105.11 364.096C103.83 364.096 103.19 363.552 103.19 362.256V351.84H104.566V361.904C104.566 362.784 104.806 362.944 105.366 362.944C105.558 362.944 105.782 362.928 106.022 362.864V364C105.766 364.064 105.494 364.096 105.11 364.096ZM114.633 358.816C114.633 359.056 114.601 359.424 114.553 359.824L108.697 360.192C108.697 362.064 109.385 362.944 111.465 362.944C112.425 362.944 113.513 362.704 114.169 362.384V363.648C113.641 363.904 112.505 364.16 111.257 364.16C108.697 364.16 107.257 363.12 107.257 359.68C107.257 356.24 108.697 355.2 111.177 355.2C114.121 355.2 114.633 357.136 114.633 358.816ZM108.697 359.168L113.273 358.832C113.273 357.488 113.049 356.336 111.177 356.336C109.193 356.336 108.745 357.408 108.697 359.168ZM121.147 355.2H121.307L121.259 356.448H121.067C119.979 356.448 118.859 356.816 118.395 358.352V364H117.019V355.36H118.395V356.928C118.955 355.488 120.091 355.2 121.147 355.2ZM124.937 366.176H123.801C124.665 364.832 125.305 363.168 125.305 361.968H126.633C126.633 363.36 125.705 365.152 124.937 366.176ZM142.975 355.2C145.231 355.2 145.871 356.368 145.871 358.016V364H144.495V358.528C144.495 357.2 144.207 356.432 142.831 356.432C141.743 356.432 140.671 356.64 140.207 358.16V364H138.831V351.84H140.207V356.592C140.719 355.472 141.919 355.2 142.975 355.2ZM152.146 355.2C154.882 355.2 155.586 356.32 155.586 357.872V364H154.418L154.21 362.688C153.698 363.616 152.434 364.16 151.122 364.16C149.058 364.16 148.146 363.232 148.146 361.584C148.146 359.536 149.522 358.832 151.57 358.832H154.21V358.112C154.21 357.072 153.826 356.352 152.082 356.352C151.506 356.352 150.802 356.416 150.178 356.544V355.328C150.818 355.248 151.522 355.2 152.146 355.2ZM151.25 363.008C152.706 363.008 153.762 362.384 154.21 361.36V359.936H151.666C150.242 359.936 149.57 360.224 149.57 361.568C149.57 362.528 150.034 363.008 151.25 363.008ZM162.663 355.2C164.919 355.2 165.559 356.368 165.559 358.016V364H164.167V358.528C164.167 357.2 163.879 356.432 162.519 356.432C161.431 356.432 160.359 356.64 159.895 358.16V364H158.519V355.36H159.895V356.592C160.407 355.472 161.607 355.2 162.663 355.2ZM174.297 351.84H175.673V364H174.505L174.297 362.576C173.961 363.488 173.065 364.16 171.481 364.16C168.601 364.16 167.913 362.32 167.913 359.68C167.913 357.312 168.601 355.2 171.481 355.2C173.161 355.2 173.961 355.856 174.297 356.864V351.84ZM171.689 362.992C173.785 362.992 174.345 361.744 174.345 359.68C174.345 357.696 173.785 356.352 171.689 356.352C169.593 356.352 169.385 358 169.385 359.68C169.385 361.488 169.641 362.992 171.689 362.992ZM180.485 364.096C179.205 364.096 178.565 363.552 178.565 362.256V351.84H179.941V361.904C179.941 362.784 180.181 362.944 180.741 362.944C180.933 362.944 181.157 362.928 181.397 362.864V364C181.141 364.064 180.869 364.096 180.485 364.096ZM190.008 358.816C190.008 359.056 189.976 359.424 189.928 359.824L184.072 360.192C184.072 362.064 184.76 362.944 186.84 362.944C187.8 362.944 188.888 362.704 189.544 362.384V363.648C189.016 363.904 187.88 364.16 186.632 364.16C184.072 364.16 182.632 363.12 182.632 359.68C182.632 356.24 184.072 355.2 186.552 355.2C189.496 355.2 190.008 357.136 190.008 358.816ZM184.072 359.168L188.648 358.832C188.648 357.488 188.424 356.336 186.552 356.336C184.568 356.336 184.12 357.408 184.072 359.168ZM196.522 355.2H196.682L196.634 356.448H196.442C195.354 356.448 194.234 356.816 193.77 358.352V364H192.394V355.36H193.77V356.928C194.33 355.488 195.466 355.2 196.522 355.2ZM216.005 352.144V353.264H213.925V363.472C213.925 364.896 213.605 365.104 212.261 365.232L210.741 365.376L210.325 364.192L211.861 364.064C212.677 364.016 212.725 363.872 212.725 363.056V353.264H202.341V352.144H216.005ZM203.989 362.096V355.568H209.893V362.096H203.989ZM205.141 356.704V360.96H208.741V356.704H205.141ZM225.691 355.6L224.683 356.4C223.915 354.72 222.891 352.976 222.171 352.032L223.131 351.456C223.867 352.368 224.939 354.128 225.691 355.6ZM228.699 360.544C229.755 361.52 231.019 362.832 231.915 364.112L231.035 365.12C230.219 363.792 229.003 362.4 228.123 361.568C227.163 363.024 225.643 364.24 223.227 365.568L222.443 364.496C227.067 362.064 228.171 359.856 228.475 355.424C228.523 354.928 228.507 353.968 228.523 353.12C228.523 352.624 228.523 352.096 228.539 351.552L229.771 351.6V353.088C229.771 353.92 229.771 354.896 229.723 355.52C229.595 357.616 229.323 359.2 228.699 360.544ZM224.139 358.688L224.875 359.712C224.187 360.272 221.067 362.864 220.235 363.568C219.979 363.808 219.467 364.256 219.147 364.624L218.331 363.632C218.763 363.2 218.907 362.96 218.907 362.592V351.92L220.139 351.968V362.032C220.587 361.648 223.835 358.992 224.139 358.688ZM238.513 358.96L237.713 359.744C237.473 359.312 237.025 358.704 236.641 358.208V365.568H235.569V357.84C235.105 359.072 234.529 360.272 233.873 361.36L232.945 360.672C233.857 359.328 234.897 357.072 235.489 355.264H233.681V354.112H235.569V351.088L236.641 351.136V354.112H238.417V355.264H236.641V357.312L236.913 357.04C237.345 357.472 238.161 358.432 238.513 358.96ZM241.953 351.2H243.041C244.065 353.264 245.745 355.008 247.985 356.544L247.265 357.456C245.137 355.808 243.521 354.288 242.497 352.416C241.537 354.208 240.129 355.696 238.257 357.12L237.553 356.256C239.617 354.768 241.009 353.12 241.953 351.2ZM245.569 356.288V357.36H239.537V356.288H245.569ZM243.377 362.032L242.337 362.416C242.209 361.264 241.697 359.12 241.313 358.144L242.321 357.888C242.705 358.864 243.201 361.008 243.377 362.032ZM245.249 358.016L246.385 358.336C246.049 359.744 245.169 362.144 244.481 363.712H247.217V364.832H237.713V363.712H243.297C243.969 362.192 244.945 359.472 245.249 358.016ZM240.945 362.512L239.937 362.976C239.761 361.744 239.105 359.44 238.641 358.384L239.617 358.048C240.081 359.104 240.769 361.376 240.945 362.512ZM262.519 353.808H257.415C258.999 355.088 261.095 356.16 263.591 356.912C263.351 357.296 263.223 357.616 263.111 357.92C263.095 358 263.015 358.016 262.903 357.968C260.119 356.944 258.327 355.856 256.791 354.448V356.976H255.543V354.432C253.927 355.888 251.911 357.136 249.287 358.16L248.711 357.056C251.223 356.288 253.335 355.088 254.887 353.808H249.831V352.768H255.543V351.136L256.791 351.2V352.768H262.519V353.808ZM251.639 357.536H260.711V362.832H251.639V357.536ZM259.495 358.512H252.855V359.664H259.495V358.512ZM252.855 361.84H259.495V360.64H252.855V361.84ZM249.783 365.072V364.016H262.567V365.072H249.783ZM270.013 361.296L270.045 361.824L268.589 362.112V365.6H267.613V362.288C266.589 362.464 265.565 362.64 264.877 362.72L264.733 361.6C265.453 361.52 266.541 361.344 267.613 361.168V359.104H265.373V357.984C265.677 357.072 266.077 355.648 266.445 354.24H265.069V353.168H266.701C266.893 352.384 267.053 351.648 267.165 351.024L268.205 351.264C268.077 351.84 267.949 352.48 267.773 353.168H270.301V354.24H267.501C267.133 355.648 266.765 357.024 266.429 358.048H267.613V355.824L268.589 355.856V358.048H269.949V359.104H268.589V361.008L269.965 360.736L270.013 361.296ZM273.677 351.248H274.829C275.789 352.832 277.421 354.224 279.341 355.2L278.733 356.224C276.765 355.008 275.245 353.776 274.285 352.24C273.645 353.248 272.893 354.032 271.981 354.816H276.573V355.792H271.965V354.832C271.405 355.328 270.765 355.792 270.061 356.304L269.341 355.328C271.277 354.16 272.669 352.896 273.677 351.248ZM277.133 363.488V356.544L278.141 356.576V363.808C278.141 364.992 277.821 365.36 276.349 365.408L275.645 365.44L275.309 364.416L276.173 364.352C277.069 364.304 277.133 364.128 277.133 363.488ZM270.445 365.424V356.88H274.173V364.064C274.173 365.04 273.869 365.344 272.893 365.408L272.413 365.44L272.093 364.48L272.621 364.416C273.181 364.352 273.277 364.256 273.277 363.76V362.432H271.325V365.424H270.445ZM276.189 357.104V362.816H275.245V357.072L276.189 357.104ZM273.277 357.792H271.325V359.2H273.277V357.792ZM271.325 361.504H273.277V360.096H271.325V361.504ZM294.947 364.352L294.003 365.424C291.043 363.2 289.315 360.32 287.827 356.56C286.739 359.872 284.579 362.96 281.491 365.312L280.579 364.352C282.307 363.056 283.715 361.584 284.787 359.92C285.875 358.24 286.627 356.512 287.027 354.736C286.499 353.776 285.923 353.232 284.803 352.464L285.555 351.584C287.139 352.56 287.827 353.344 288.931 356.272C290.067 359.28 292.211 362.432 294.947 364.352ZM301.625 364.864L300.505 365.536C299.897 364.48 298.745 363.216 297.929 362.56L298.809 361.968C299.785 362.608 300.889 363.792 301.625 364.864ZM76.384 388.616L77.28 389.16C77.232 389.496 77.104 390.168 76.928 390.728C76.656 391.64 76.272 392.296 75.552 392.296C74.8 392.296 74.304 391.784 74.048 390.296C73.92 389.656 73.744 387.784 73.744 385.832V382.056H71.024C71.008 382.312 71.008 382.52 71.008 382.696C70.992 383.896 70.96 384.888 70.848 385.784C71.76 386.344 72.672 386.904 73.312 387.336L72.752 388.472C72.176 388.024 71.424 387.48 70.656 386.968C70.24 389.176 69.36 390.648 67.712 392.552L66.704 391.816C68.448 389.912 69.232 388.52 69.568 386.264C68.944 385.88 68.384 385.576 67.952 385.336L68.432 384.456C68.8 384.632 69.232 384.856 69.696 385.128C69.76 384.408 69.776 383.624 69.824 382.712C69.824 382.536 69.84 382.312 69.84 382.056H68.432V380.952H69.84C69.84 380.264 69.856 379.544 69.856 378.984V378.056L71.072 378.104L71.04 380.952H74.896V385.768C74.896 387.688 75.088 389.416 75.168 390.024C75.248 390.488 75.44 391.016 75.632 391.016C75.872 391.016 76.016 390.552 76.128 390.056C76.24 389.592 76.32 389.112 76.384 388.616ZM67.6 384.632L67.696 385.176C67.264 385.384 66.752 385.592 66.16 385.832V390.744C66.16 391.912 65.776 392.088 64.496 392.216L63.68 392.296L63.28 391.112L64.128 391.048C64.896 391 64.992 390.856 64.992 390.264V386.296C64.24 386.568 63.472 386.84 62.832 387.032L62.56 385.912C63.216 385.72 64.096 385.416 64.992 385.048V382.088H63.04V380.968H64.992V378.136L66.16 378.184V380.968H67.84V382.088H66.16V384.584C66.672 384.376 67.136 384.184 67.52 384.008L67.6 384.632ZM82.518 378.184L83.414 378.984C82.39 380.344 80.694 381.976 79.35 383.048L78.678 382.056C79.894 381.144 81.542 379.464 82.518 378.184ZM91.942 379.08V380.232H84.63V379.08H91.942ZM82.518 382.232L83.446 382.952C83.078 383.592 82.55 384.28 81.974 384.968V392.456H80.774V386.28C80.118 386.968 79.446 387.576 78.822 388.072L78.118 387.064C79.782 385.816 81.622 383.768 82.518 382.232ZM92.742 383.688V384.84H90.054V390.36C90.054 391.816 89.494 392.216 87.91 392.344L86.726 392.456L86.358 391.224L87.622 391.128C88.566 391.08 88.774 390.888 88.774 390.008V384.84H83.686V383.688H92.742ZM104.06 381.192H107.708C107.644 382.312 107.468 388.728 107.404 390.072C107.356 391.608 106.86 391.944 105.02 392.152L104.092 392.264L103.724 391.016L104.764 390.92C105.964 390.792 106.236 390.632 106.284 389.496C106.348 388.456 106.492 383.416 106.556 382.36H104.028C103.836 388.024 103.596 389.704 101.02 392.856L99.996 392.136C102.508 389.304 102.668 387.832 102.86 382.36H100.828V381.192H102.876L102.924 379.208C102.94 378.856 102.94 378.504 102.94 378.152L104.108 378.216C104.092 378.52 104.092 378.856 104.092 379.192L104.06 381.192ZM100.876 379.4V380.536H95.212V379.4H100.876ZM101.276 390.36L100.236 391.032L99.996 390.168C98.764 390.344 96.476 390.696 95.964 390.744C95.596 390.792 95.292 390.888 94.956 391L94.508 389.784C94.94 389.608 95.036 389.384 95.212 389.08C95.644 388.168 96.46 386.088 96.924 384.52H94.396V383.368H101.372V384.52H98.156C97.692 386.056 96.844 388.472 96.3 389.496C96.828 389.416 98.572 389.176 99.612 389.048C99.228 388.008 98.796 386.936 98.428 386.248L99.5 385.832C100.044 386.936 100.972 389.176 101.276 390.36ZM123.97 381.72H118.978V384.232H123.09V385.384H118.978V387.976H123.378V389.144H118.978V392.632H117.746V381.72H117.026C116.434 382.808 115.698 383.96 114.626 385.304L113.746 384.456C115.57 382.248 116.546 380.296 117.266 378.168L118.386 378.632C118.178 379.224 117.938 379.816 117.634 380.504H123.97V381.72ZM113.442 378.424L114.626 378.888C114.258 379.784 113.842 380.824 113.266 381.976V392.568H112.05V384.12C111.57 384.856 111.026 385.576 110.434 386.296L109.57 385.4C111.634 383.048 112.722 380.504 113.442 378.424ZM128.312 393.176H127.176C128.04 391.832 128.68 390.168 128.68 388.968H130.008C130.008 390.36 129.08 392.152 128.312 393.176ZM155.79 385.816V387H152.046V392.648H150.814V387H146.638C146.382 389.816 145.566 391.112 143.262 392.856L142.318 391.944C144.606 390.328 145.278 389.256 145.454 387H141.454V385.816H145.518V384.92V382.12H142.334V380.984H145.982C145.63 380.168 145.086 379.112 144.702 378.472L145.822 377.992C146.206 378.632 146.878 379.896 147.23 380.664L146.686 380.984H149.966C150.606 380.088 151.262 378.808 151.598 378.04L152.814 378.488C152.526 379.128 151.934 380.184 151.438 380.984H154.958V382.12H152.046V385.816H155.79ZM146.702 385.816H150.814V382.12H146.718V384.792C146.718 385.16 146.718 385.496 146.702 385.816ZM171.044 381.192H162.772C162.212 382.44 161.556 383.592 160.772 384.648V392.552H159.588V386.136C158.996 386.824 158.356 387.448 157.652 388.088L156.82 387.144C158.82 385.496 160.356 383.48 161.46 381.192H157.444V380.04H161.988C162.292 379.336 162.532 378.632 162.74 377.912L163.892 378.2C163.716 378.824 163.508 379.432 163.268 380.04H171.044V381.192ZM166.724 390.328H171.188V391.464H161.284V390.328H165.524V386.184H161.956V385.032H165.524V382.344L166.724 382.392V385.032H170.452V386.184H166.724V390.328ZM181.85 381.304L181.002 382.296C180.282 381.272 178.634 379.608 177.786 378.888L178.57 378.104C179.466 378.824 181.13 380.456 181.85 381.304ZM183.226 390.136C183.354 389.544 183.434 388.728 183.45 388.024L184.666 388.488C184.602 389.304 184.506 390.168 184.314 390.984C184.138 391.752 183.514 392.072 181.562 392.2C180.746 392.248 180.234 392.248 179.418 392.2C177.738 392.12 177.146 391.672 177.146 389.992V389.8C176.122 390.52 174.97 391.208 173.626 391.96L172.938 390.904C174.57 390.056 175.978 389.192 177.146 388.312V380.952L178.378 381V387.288C180.81 385.112 182.298 382.664 183.85 379.352L184.922 379.912C183.034 383.896 181.418 386.456 178.378 388.888V389.672C178.378 390.712 178.682 390.936 179.77 391.016C180.426 391.064 180.778 391.064 181.434 391.016C182.73 390.936 183.098 390.744 183.226 390.136ZM174.522 382.216L175.77 382.456C175.514 384.072 174.858 386.696 174.266 388.344L173.002 388.056C173.642 386.472 174.266 383.912 174.522 382.216ZM183.738 383.464L184.762 382.904C185.482 384.008 186.714 386.248 187.402 387.848L186.298 388.52C185.658 386.856 184.506 384.584 183.738 383.464ZM193.568 381.592V380.008H189.392V378.968H202.176V380.008H198V381.592H201.456V385.16H190.112V381.592H193.568ZM196.896 381.592V380.008H194.656V381.592H196.896ZM191.248 382.568V384.168H193.568V382.568H191.248ZM194.656 382.568V384.168H196.896V382.568H194.656ZM200.32 382.568H198V384.168H200.32V382.568ZM202.864 387.672H199.712C199.152 388.68 198.544 389.432 197.696 390.056C199.168 390.504 200.608 390.952 201.904 391.384L201.584 392.552C200.048 391.96 198.304 391.352 196.496 390.792C194.976 391.544 192.816 392.024 189.6 392.488L189.168 391.352C191.808 391.048 193.584 390.712 194.88 390.28C193.6 389.896 192.352 389.528 191.2 389.224C191.584 388.776 191.984 388.232 192.368 387.672H188.704V386.712H192.976C193.28 386.184 193.552 385.656 193.792 385.192L195.008 385.528C194.8 385.96 194.592 386.344 194.384 386.712H202.864V387.672ZM193.072 388.744C194.032 389 195.136 389.288 196.336 389.656C197.248 389.144 197.792 388.488 198.304 387.672H193.824C193.568 388.072 193.312 388.44 193.072 388.744ZM218.838 381.32V382.488H216.758V390.216C216.758 391.784 216.278 392.248 214.23 392.376L213.35 392.44L212.934 391.144L214.054 391.08C215.382 391 215.462 390.792 215.462 389.816V382.488H210.646V381.32H215.462V378.168L216.758 378.216V381.32H218.838ZM205.414 391.192V379.48H210.134V391.192H205.414ZM209.03 380.696H206.518V384.696H209.03V380.696ZM214.358 387.576L213.35 388.248C212.918 387.064 211.862 385.048 211.222 384.12L212.198 383.576C212.838 384.52 213.926 386.536 214.358 387.576ZM206.518 389.96H209.03V385.848H206.518V389.96ZM224.348 381.224L223.452 382.088C222.988 381.208 221.9 379.88 221.308 379.24L222.156 378.52C222.748 379.112 223.868 380.536 224.348 381.224ZM224.972 389.896L224.012 389.224C225.388 387.384 225.82 385.752 225.82 382.584V379.368C228.46 379.288 231.308 378.984 233.532 378.6L233.74 379.736C231.756 380.12 229.34 380.36 226.972 380.472V382.28H233.34V383.384C232.908 384.648 232.22 385.832 231.26 386.936C232.332 387.896 233.308 388.84 233.9 389.56L233.196 390.616C232.572 389.8 231.58 388.76 230.492 387.736C229.484 388.744 228.22 389.656 226.716 390.472L225.916 389.56C227.436 388.792 228.652 387.912 229.66 386.968C228.7 386.088 227.804 385.336 227.116 384.84L227.74 384.056C228.444 384.552 229.388 385.336 230.396 386.184C231.196 385.288 231.772 384.36 232.14 383.384H226.972C226.892 386.296 226.252 387.944 224.972 389.896ZM228.732 390.888C230.652 390.936 232.7 390.92 234.748 390.808L234.492 391.976C232.492 392.056 230.764 392.072 229.036 392.024C225.628 391.944 224.636 391.912 222.876 390.024C222.332 390.648 221.868 391.256 220.924 392.152L220.108 391.176C220.956 390.456 221.564 389.768 222.332 388.888V384.584H220.428V383.448H223.484V389.096C225.004 390.664 225.884 390.84 228.732 390.888ZM236.978 378.968H249.106V392.44H247.858V391.416H238.21V392.44H236.978V378.968ZM238.21 390.216H247.858V380.2H238.21V390.216ZM240.178 382.36H245.842V388.056H240.178V382.36ZM244.754 386.968V383.448H241.282V386.968H244.754ZM265.944 384.12V385.48H251.8V384.12H265.944ZM268.078 385.672L267.214 384.6C270.158 382.888 272.638 380.456 274.078 378.2H275.182C276.798 380.632 279.054 382.728 281.998 384.52L281.102 385.64C278.878 384.056 276.158 381.768 274.638 379.528C273.038 381.848 270.686 383.944 268.078 385.672ZM273.982 383.176L275.278 383.24V392.616H273.982V383.176ZM69.344 405.84H70.72V418H69.552L69.344 416.576C69.008 417.488 68.112 418.16 66.528 418.16C63.648 418.16 62.96 416.32 62.96 413.68C62.96 411.312 63.648 409.2 66.528 409.2C68.208 409.2 69.008 409.856 69.344 410.864V405.84ZM66.736 416.992C68.832 416.992 69.392 415.744 69.392 413.68C69.392 411.696 68.832 410.352 66.736 410.352C64.64 410.352 64.432 412 64.432 413.68C64.432 415.488 64.688 416.992 66.736 416.992ZM80.4763 412.816C80.4763 413.056 80.4443 413.424 80.3963 413.824L74.5403 414.192C74.5403 416.064 75.2283 416.944 77.3083 416.944C78.2683 416.944 79.3563 416.704 80.0123 416.384V417.648C79.4843 417.904 78.3483 418.16 77.1003 418.16C74.5403 418.16 73.1003 417.12 73.1003 413.68C73.1003 410.24 74.5403 409.2 77.0203 409.2C79.9643 409.2 80.4763 411.136 80.4763 412.816ZM74.5403 413.168L79.1163 412.832C79.1163 411.488 78.8923 410.336 77.0203 410.336C75.0363 410.336 74.5883 411.408 74.5403 413.168ZM86.3503 418.16C83.7903 418.16 82.3503 417.12 82.3503 413.68C82.3503 410.24 83.7903 409.2 86.3503 409.2C87.3103 409.2 88.1103 409.344 88.6063 409.52V410.784C87.9663 410.544 87.2623 410.4 86.3663 410.4C84.4623 410.4 83.8223 411.152 83.8223 413.696C83.8223 416.208 84.4623 416.944 86.3823 416.944C87.1983 416.944 88.0143 416.832 88.6383 416.576V417.84C88.1743 418.016 87.1503 418.16 86.3503 418.16ZM91.5194 407.776C90.8954 407.776 90.6874 407.664 90.6874 406.96C90.6874 406.24 90.8954 406.144 91.5194 406.144C92.0954 406.144 92.3354 406.24 92.3354 406.96C92.3354 407.664 92.0954 407.776 91.5194 407.776ZM90.8154 418V409.36H92.1914V418H90.8154ZM97.0966 418.096C96.2486 418.096 95.0646 417.952 94.5846 417.824V416.64C95.1926 416.816 96.2966 416.976 97.0806 416.976C98.4086 416.976 99.0806 416.672 99.0806 415.648C99.0806 414.624 98.7926 414.416 97.1446 414.032C95.2406 413.616 94.7286 412.992 94.7286 411.536C94.7286 410.128 95.7686 409.2 97.8326 409.2C98.6646 409.2 99.5766 409.312 100.009 409.488L99.9126 410.656C99.4166 410.464 98.6646 410.32 97.8486 410.32C96.6326 410.32 96.0246 410.592 96.0246 411.568C96.0246 412.448 96.3286 412.656 97.6726 412.944C99.6566 413.424 100.377 413.92 100.377 415.6C100.377 417.328 99.2246 418.096 97.0966 418.096ZM103.457 407.776C102.833 407.776 102.625 407.664 102.625 406.96C102.625 406.24 102.833 406.144 103.457 406.144C104.033 406.144 104.273 406.24 104.273 406.96C104.273 407.664 104.033 407.776 103.457 407.776ZM102.753 418V409.36H104.129V418H102.753ZM110.522 418.16C107.962 418.16 106.522 417.12 106.522 413.68C106.522 410.24 107.962 409.2 110.522 409.2C113.082 409.2 114.506 410.24 114.506 413.68C114.506 417.12 113.082 418.16 110.522 418.16ZM110.522 416.992C112.49 416.992 113.05 416.208 113.05 413.68C113.05 411.168 112.41 410.352 110.522 410.352C108.586 410.352 107.994 411.168 107.994 413.68C107.994 416.208 108.65 416.992 110.522 416.992ZM121.069 409.2C123.325 409.2 123.965 410.368 123.965 412.016V418H122.573V412.528C122.573 411.2 122.285 410.432 120.925 410.432C119.837 410.432 118.765 410.64 118.301 412.16V418H116.925V409.36H118.301V410.592C118.813 409.472 120.013 409.2 121.069 409.2ZM129.407 419.776C128.255 419.776 127.279 419.104 127.279 417.76C127.279 416.416 128.255 415.744 129.407 415.744C130.559 415.744 131.535 416.416 131.535 417.76C131.535 419.104 130.543 419.776 129.407 419.776ZM129.407 418.928C130.095 418.928 130.607 418.528 130.607 417.76C130.607 416.992 130.095 416.592 129.407 416.592C128.719 416.592 128.207 416.992 128.207 417.76C128.207 418.528 128.719 418.928 129.407 418.928Z" fill="#575757"/>
<g filter="url(#filter1_d_397_1341)">
<path d="M295.57 223.171C286.472 231.074 268.014 247.257 266.962 248.768C266.251 249.79 268.079 254.663 270.758 255.72C271.272 255.923 271.711 256.374 271.804 256.918C272.271 259.624 275.033 261.738 282.033 261.203C297.891 259.991 318.697 247.685 327.117 241.684" stroke="#1C140A" stroke-width="3"/>
<path d="M266.962 248.768C268.014 247.257 286.472 231.074 295.57 223.171L327.427 240.994C319.006 246.995 297.891 259.991 282.033 261.203C275.033 261.738 272.271 259.624 271.804 256.918C271.711 256.374 271.272 255.923 270.758 255.72C268.079 254.663 266.251 249.79 266.962 248.768Z" fill="#FFFBE3"/>
</g>
<g filter="url(#filter2_d_397_1341)">
<path d="M86.2767 215L107.768 245.504C108.577 247.121 107.247 251.263 104.016 251.737C103.641 251.792 103.289 251.995 103.137 252.342C102.079 254.747 102.4 256.007 99.4491 256.597C91.1297 258.261 65.9404 241.114 54.3857 232.332" stroke="#1C140A" stroke-width="3"/>
<path d="M107.769 245.504L86.2775 215L53 230.945C64.5547 239.727 91.1305 258.261 99.4499 256.597C102.401 256.007 102.08 254.747 103.137 252.342C103.29 251.995 103.642 251.792 104.017 251.737C107.247 251.263 108.577 247.121 107.769 245.504Z" fill="#FFFBE3"/>
</g>
<defs>
<filter id="filter0_d_397_1341" x="34" y="236" width="311" height="220" filterUnits="userSpaceOnUse" color-interpolation-filters="sRGB">
<feFlood flood-opacity="0" result="BackgroundImageFix"/>
<feColorMatrix in="SourceAlpha" type="matrix" values="0 0 0 0 0 0 0 0 0 0 0 0 0 0 0 0 0 0 127 0" result="hardAlpha"/>
<feOffset dy="4"/>
<feGaussianBlur stdDeviation="2"/>
<feComposite in2="hardAlpha" operator="out"/>
<feColorMatrix type="matrix" values="0 0 0 0 0.596078 0 0 0 0 0.639216 0 0 0 0 0.368627 0 0 0 0.2 0"/>
<feBlend mode="normal" in2="BackgroundImageFix" result="effect1_dropShadow_397_1341"/>
<feBlend mode="normal" in="SourceGraphic" in2="effect1_dropShadow_397_1341" result="shape"/>
</filter>
<filter id="filter1_d_397_1341" x="261.308" y="222.038" width="70.6807" height="48.748" filterUnits="userSpaceOnUse" color-interpolation-filters="sRGB">
<feFlood flood-opacity="0" result="BackgroundImageFix"/>
<feColorMatrix in="SourceAlpha" type="matrix" values="0 0 0 0 0 0 0 0 0 0 0 0 0 0 0 0 0 0 127 0" result="hardAlpha"/>
<feOffset dy="4"/>
<feGaussianBlur stdDeviation="2"/>
<feComposite in2="hardAlpha" operator="out"/>
<feColorMatrix type="matrix" values="0 0 0 0 0.596078 0 0 0 0 0.639216 0 0 0 0 0.368627 0 0 0 0.2 0"/>
<feBlend mode="normal" in2="BackgroundImageFix" result="effect1_dropShadow_397_1341"/>
<feBlend mode="normal" in="SourceGraphic" in2="effect1_dropShadow_397_1341" result="shape"/>
</filter>
<filter id="filter2_d_397_1341" x="49" y="214.136" width="64.499" height="52.0742" filterUnits="userSpaceOnUse" color-interpolation-filters="sRGB">
<feFlood flood-opacity="0" result="BackgroundImageFix"/>
<feColorMatrix in="SourceAlpha" type="matrix" values="0 0 0 0 0 0 0 0 0 0 0 0 0 0 0 0 0 0 127 0" result="hardAlpha"/>
<feOffset dy="4"/>
<feGaussianBlur stdDeviation="2"/>
<feComposite in2="hardAlpha" operator="out"/>
<feColorMatrix type="matrix" values="0 0 0 0 0.596078 0 0 0 0 0.639216 0 0 0 0 0.368627 0 0 0 0.2 0"/>
<feBlend mode="normal" in2="BackgroundImageFix" result="effect1_dropShadow_397_1341"/>
<feBlend mode="normal" in="SourceGraphic" in2="effect1_dropShadow_397_1341" result="shape"/>
</filter>
</defs>
</svg>
