<svg width="114" height="85" viewBox="0 0 114 85" fill="none" xmlns="http://www.w3.org/2000/svg">
<path d="M93 78.6759C100.2 78.6759 107 81.6759 109.5 83.1759L1 83.1758V61.1762C20.6 49.1762 47.8333 64.8427 59 74.1759C74.2 67.7759 88 74.5092 93 78.6759Z" fill="#DDE2AD" stroke="#DDE2AD" stroke-width="2"/>
<path d="M55.0003 52.6762L50.6019 58.6762C50.8995 55.3344 51.2922 51.7042 51.787 48.1762L50.6019 44.6762C38 43.1758 31.1357 23.2973 38.0003 20.1763C43.5004 17.6758 52.0002 30.1758 50.6019 44.6762L51.787 48.1762C52.8567 40.5501 54.4038 33.4017 56.5003 30.6762C51.0007 23.6758 55.7516 -1.32393 67.0007 1.17595C73.5007 2.62043 69.0007 24.1758 56.5003 30.6762C54.4038 33.4017 52.8567 40.5501 51.787 48.1762C51.2922 51.7042 50.8995 55.3344 50.6019 58.6762L55.0003 52.6762C55.0003 45.1758 72.5 30.1758 78.0007 37.1763C82.4555 42.8458 69.5 56.1758 55.0003 52.6762Z" fill="#CFD69B"/>
<path d="M51.787 48.1762C51.2922 51.7042 50.8995 55.3344 50.6019 58.6762C50.3154 61.8928 50.117 64.8423 50.0003 67.1762M56.5003 30.6762C54.4038 33.4017 52.8567 40.5501 51.787 48.1762M56.5003 30.6762C51.0007 23.6758 55.7516 -1.32393 67.0007 1.17595C73.5007 2.62043 69.0007 24.1758 56.5003 30.6762ZM50.6019 58.6762L55.0003 52.6762M55.0003 52.6762C55.0003 45.1758 72.5 30.1758 78.0007 37.1763C82.4555 42.8458 69.5 56.1758 55.0003 52.6762ZM51.787 48.1762L50.6019 44.6762M50.6019 44.6762C38 43.1758 31.1357 23.2973 38.0003 20.1763C43.5004 17.6758 52.0002 30.1758 50.6019 44.6762Z" stroke="#D0D79D" stroke-width="2"/>
</svg>
