<svg width="32" height="32" viewBox="66 46 32 32" fill="none" xmlns="http://www.w3.org/2000/svg">
<path d="M72 69.0913V55.6397C72 55.3918 72.0917 55.1494 72.2659 54.9732C75.9111 51.2846 80.3518 53.5938 82.1538 55.2546C85.3722 51.8649 89.5566 53.3226 91.5995 54.6849C91.858 54.8573 92 55.1532 92 55.4639V68.8593C92 69.2949 91.464 69.5388 91.0944 69.3082C87.9695 67.3593 83.9256 68.8828 82.1538 70C78.5304 67.8393 74.7993 68.6409 72.7984 69.5698C72.4409 69.7357 72 69.4854 72 69.0913Z" fill="#98A84E"/>
<path d="M82.1538 55.2546C85.3722 51.8649 89.5566 53.3226 91.5995 54.6849C91.858 54.8573 92 55.1532 92 55.4639V68.8593C92 69.2949 91.464 69.5388 91.0944 69.3082C87.9695 67.3593 83.9256 68.8828 82.1538 70C78.5304 67.8393 74.7993 68.6409 72.7984 69.5698C72.4409 69.7357 72 69.4854 72 69.0913V55.6397C72 55.3918 72.0917 55.1494 72.2659 54.9732C75.9111 51.2846 80.3518 53.5938 82.1538 55.2546ZM82.1538 70V55.2546" stroke="#FEFBF5" stroke-width="1.5"/>
</svg>
