<svg width="114" height="128" viewBox="0 0 114 128" fill="none" xmlns="http://www.w3.org/2000/svg">
<path d="M29.792 19.0893C18.4519 28.7081 19.8357 41.4066 21.9451 46.5535C1.69516 100.216 25.2356 112.746 33.4623 113.759C34.7121 113.912 37.1923 114.141 40.4235 114.385C49.5055 115.072 64.5206 115.887 74.8245 115.53C77.4259 115.44 79.727 115.276 81.5565 115.016C81.8195 114.978 82.0728 114.939 82.3157 114.898C116.488 109.076 99.2203 76.9287 91.5 46.5535C96.5 39.8512 90.05 23.4784 85.55 18.7166C82.1338 13.0035 78.998 10.8516 74.8245 8.85192C81.912 7.45972 79.7605 2.77688 76.6344 1.12461C73.3432 -0.614886 69.5088 1.38469 69.1671 5.80744C58.3713 2.90344 46.6587 4.75274 43.1149 5.80744C45.7727 2.89647 41.2583 -0.542006 38.179 0.997858C34.6352 2.76995 35.268 9.22467 39.6977 7.32622C35.1414 9.75624 31.5639 16.1783 29.792 19.0893Z" fill="#FDF7E4" stroke="#CEAE71"/>
<path d="M41.9225 5.91356C41.1237 5.91356 39.4303 5.53014 39.0469 3.99645C38.5676 2.07934 41.9225 4.95501 41.9225 5.91356Z" fill="#F5E8C8"/>
<path d="M72.2328 7.34087C71.3456 6.7814 74.4037 2.90106 75.5433 3.99675C77.0271 5.42334 73.1745 7.52029 72.2328 7.34087Z" fill="#F5E8C8"/>
<path d="M53 32.6113L55.4728 33.8394L57.9291 32.3514M55.5328 34.9769L55.8128 40.2852M55.8128 40.2852L54.2097 41.1301M55.8128 40.2852L57.4958 40.9568" stroke="#1C140A" stroke-linecap="round"/>
<path d="M39.3853 31.1855C39.5602 31.1327 39.8392 31.1679 40.1444 31.3855C40.4413 31.5971 40.7224 31.9579 40.8713 32.4513C41.141 33.3447 40.5567 34.2931 39.6911 34.5546C39.4048 34.6411 39.1565 34.5436 38.9232 34.2313C38.6781 33.9033 38.5184 33.4047 38.5001 32.9406C38.4766 32.3424 38.5932 31.9387 38.7543 31.6755C38.912 31.4178 39.1314 31.2622 39.3853 31.1855ZM71.62 31.1842C71.8725 31.1487 72.0939 31.2667 72.3083 31.6072C72.5255 31.9523 72.6605 32.4265 72.7139 32.8068C72.767 33.1841 72.7555 33.5999 72.6298 33.9274C72.5152 34.226 72.3075 34.4573 71.8944 34.545C71.4659 34.6359 71.0825 34.4548 70.7868 34.0877C70.4815 33.7086 70.3313 33.1972 70.3768 32.8011C70.4331 32.3108 70.5681 31.9292 70.7668 31.6646C70.9551 31.4139 71.2211 31.2402 71.62 31.1842Z" fill="#3C1814" stroke="#100000"/>
<circle cx="40.2132" cy="30.6098" r="8.61308" transform="rotate(-2.61419 40.2132 30.6098)" stroke="black" stroke-width="0.5"/>
<path d="M48.8712 29.1626C50.9004 27.9352 56.8327 26.0758 62.5272 28.5393" stroke="black" stroke-width="0.5"/>
<path d="M31.5026 30.8612L30.002 30.9297" stroke="black" stroke-width="0.5" stroke-linecap="round"/>
<path d="M79.8242 28.6523L81.4749 28.577" stroke="black" stroke-width="0.5" stroke-linecap="round"/>
<circle cx="71.1083" cy="31.1515" r="8.8904" transform="rotate(-2.61419 71.1083 31.1515)" stroke="black" stroke-width="0.5"/>
<path d="M93.359 67.1015C79.8231 64.5608 62.0264 70.0813 54.8201 73.1592C27.8403 59.0793 9.34436 63.7845 9.28523 67.0849C9.23648 69.8061 8.49887 103.103 14.7053 105.453C21.0618 107.859 50.8458 108.321 59.2602 112.631C63.3041 110.299 102.768 110.031 103.709 107.476C106.229 100.634 96.547 67.9575 93.359 67.1015Z" fill="#9B9A5B" stroke="#B5B479" stroke-width="0.5"/>
<path d="M94.0426 64.5488C80.5067 62.008 62.71 67.5286 55.5037 70.6064C28.5239 56.5266 10.028 61.2318 9.96883 64.5322C9.92008 67.2533 9.18246 100.55 15.3889 102.9C21.7454 105.307 51.5294 105.768 59.9437 110.078C63.9877 107.746 103.451 107.478 104.392 104.924C106.913 98.0813 97.2306 65.4048 94.0426 64.5488Z" fill="#F3E3BE" stroke="#B5B479" stroke-width="0.5"/>
<path d="M14.8978 96.9895C13.6415 95.5585 13.2799 73.3139 13.2561 62.3706C23.982 57.0469 46.3499 65.5604 56.1932 70.4826C64.9453 65.8908 80.6473 64.1456 88.6784 64.0586C90.7351 64.0363 92.8462 63.811 95.2254 65.1333C97.6046 66.4557 107.042 102.591 103.683 102.372C92.9334 101.673 70.339 104.357 60.3855 105.785C42.58 98.2702 20.465 99.1679 19.0186 99.4631C17.5722 99.7583 16.4682 98.7783 14.8978 96.9895Z" fill="#FDF9E8"/>
<circle cx="96.3002" cy="91.308" r="0.72406" fill="#9B9A5B"/>
<circle cx="55.0282" cy="96.3766" r="0.72406" transform="rotate(19.4089 55.0282 96.3766)" fill="#9B9A5B"/>
<circle cx="51.6083" cy="85.7145" r="0.72406" transform="rotate(19.4089 51.6083 85.7145)" fill="#9B9A5B"/>
<circle cx="94.853" cy="85.5151" r="0.72406" fill="#9B9A5B"/>
<path d="M60.3073 106.075L56.1152 70.7715" stroke="#B5B479" stroke-width="0.5"/>
<path d="M63.8969 77.7007C68.0392 75.8508 78.8153 72.5466 88.7807 74.1286" stroke="#B5B479" stroke-width="0.5"/>
<path d="M24.8529 91.7943C29.3687 91.3606 40.636 91.6617 49.5781 96.3361" stroke="#B5B479" stroke-width="0.5"/>
<path d="M75.4807 84.0118C79.1823 82.955 85.7766 81.3078 89.1358 81.5262" stroke="#B5B479" stroke-width="0.5"/>
<path d="M25.2939 81.2631C30.8763 81.9588 40.7214 83.4997 45.2871 85.638" stroke="#B5B479" stroke-width="0.5"/>
<path d="M77.6526 90.1586L84.1206 88.8367" stroke="#B5B479" stroke-width="0.5"/>
<path d="M86.0893 88.6752L91.1116 87.6426" stroke="#B5B479" stroke-width="0.5"/>
<path d="M72.5836 95.6518L92.8112 92.7117" stroke="#B5B479" stroke-width="0.5"/>
<g filter="url(#filter0_d_553_1288)">
<path d="M39.9921 65.8676L37.719 56.4648L29.0813 58.5472C30.9442 61.6508 35.1732 67.9053 37.1861 68.094C37.7054 68.1427 37.8648 67.9729 38.0825 67.6698C38.3139 67.3476 38.753 67.2742 39.1181 67.1191C39.6476 66.8941 40.0277 66.2343 39.9921 65.8676Z" fill="#FDF7E4"/>
<path d="M37.719 56.4648L39.9921 65.8676C40.0277 66.2343 39.6476 66.8941 39.1181 67.1191C38.753 67.2742 38.3139 67.3476 38.0825 67.6698C37.8648 67.9729 37.7054 68.1427 37.1861 68.094C35.1732 67.9053 30.9442 61.6508 29.0813 58.5472" stroke="#CEAE71"/>
</g>
<g filter="url(#filter1_d_553_1288)">
<path d="M75.1414 65.9316C75.3112 65.4901 78.7698 60.4613 80.4779 58.0021L88.5385 61.5579C86.8963 63.4885 82.7214 67.5947 79.1593 68.5752C78.1157 68.8624 77.4438 68.7647 77.0419 68.4641C76.5996 68.1333 76.0784 67.583 75.7112 67.1705C75.3291 66.7412 75.0644 66.132 75.1414 65.9316Z" fill="#FDF7E4"/>
<path d="M80.4779 58.0021C78.7698 60.4613 75.3112 65.4901 75.1414 65.9316C75.0644 66.132 75.3291 66.7412 75.7112 67.1705C76.0784 67.583 76.5996 68.1333 77.0419 68.4641C77.4438 68.7647 78.1157 68.8624 79.1593 68.5752C82.7214 67.5947 86.8963 63.4885 88.5385 61.5579" stroke="#CEAE71"/>
</g>
<path d="M39.3618 119.278C32.1738 122.359 24.0249 111.61 31.2141 107.296C38.5662 102.885 43.1972 117.634 39.3618 119.278Z" fill="#F5EBC8"/>
<path d="M75.7754 118.966C69.9144 113.789 76.1419 101.823 83.1173 106.474C90.2508 111.231 78.9028 121.729 75.7754 118.966Z" fill="#F5EBC8"/>
<defs>
<filter id="filter0_d_553_1288" x="26.9523" y="56.3477" width="15.2418" height="17.9539" filterUnits="userSpaceOnUse" color-interpolation-filters="sRGB">
<feFlood flood-opacity="0" result="BackgroundImageFix"/>
<feColorMatrix in="SourceAlpha" type="matrix" values="0 0 0 0 0 0 0 0 0 0 0 0 0 0 0 0 0 0 127 0" result="hardAlpha"/>
<feOffset dy="4"/>
<feGaussianBlur stdDeviation="0.85"/>
<feComposite in2="hardAlpha" operator="out"/>
<feColorMatrix type="matrix" values="0 0 0 0 0.607843 0 0 0 0 0.603922 0 0 0 0 0.356863 0 0 0 0.2 0"/>
<feBlend mode="normal" in2="BackgroundImageFix" result="effect1_dropShadow_553_1288"/>
<feBlend mode="normal" in="SourceGraphic" in2="effect1_dropShadow_553_1288" result="shape"/>
</filter>
<filter id="filter1_d_553_1288" x="72.9289" y="57.7168" width="17.691" height="17.2293" filterUnits="userSpaceOnUse" color-interpolation-filters="sRGB">
<feFlood flood-opacity="0" result="BackgroundImageFix"/>
<feColorMatrix in="SourceAlpha" type="matrix" values="0 0 0 0 0 0 0 0 0 0 0 0 0 0 0 0 0 0 127 0" result="hardAlpha"/>
<feOffset dy="4"/>
<feGaussianBlur stdDeviation="0.85"/>
<feComposite in2="hardAlpha" operator="out"/>
<feColorMatrix type="matrix" values="0 0 0 0 0.607843 0 0 0 0 0.603922 0 0 0 0 0.356863 0 0 0 0.2 0"/>
<feBlend mode="normal" in2="BackgroundImageFix" result="effect1_dropShadow_553_1288"/>
<feBlend mode="normal" in="SourceGraphic" in2="effect1_dropShadow_553_1288" result="shape"/>
</filter>
</defs>
</svg>
