<svg width="119" height="135" viewBox="0 0 119 135" fill="none" xmlns="http://www.w3.org/2000/svg">
<path d="M31.1459 20.8046C19.2902 30.8608 20.7369 44.1368 22.9422 49.5177C1.77149 105.621 26.3824 118.72 34.9831 119.779C36.2897 119.939 38.8827 120.178 42.2608 120.434C51.7558 121.152 67.4536 122.004 78.226 121.631C80.9457 121.537 83.3514 121.365 85.2641 121.093C85.5391 121.054 85.8039 121.013 86.0579 120.969C121.784 114.883 103.731 81.274 95.6598 49.5177C101.931 39.8962 94.1439 25.3934 89.4392 20.415C85.8676 14.4421 82.5894 12.1924 78.226 10.1018C85.6358 8.64629 83.3864 3.75052 80.1182 2.02312C76.6774 0.204529 72.6686 2.29502 72.3114 6.91888C61.0247 3.88284 48.7795 5.81622 45.0746 6.91888C48.6136 2.02339 42.4238 -0.917135 39.2044 0.692746C35.4995 2.54542 34.9831 10.1018 41.502 8.50672C36.7386 11.0472 32.9983 17.7613 31.1459 20.8046Z" fill="#FDF7E4" stroke="#CEAE71" stroke-width="0.5"/>
<path d="M43.8308 7.03006C42.9957 7.03006 41.2252 6.6292 40.8244 5.02577C40.3233 3.02149 43.8308 6.02791 43.8308 7.03006Z" fill="#F5E8C8"/>
<path d="M75.5169 8.52119C74.5893 7.93628 77.7865 3.87951 78.9779 5.02501C80.5292 6.51647 76.5013 8.70877 75.5169 8.52119Z" fill="#F5E8C8"/>
<path d="M55.4102 34.9414L57.9954 36.2253L60.5634 34.6696M58.0581 37.4145L58.3508 42.9642M58.3508 42.9642L56.6749 43.8476M58.3508 42.9642L60.1104 43.6664" stroke="#1C140A" stroke-linecap="round"/>
<path d="M43.1454 33.0407C43.295 32.9934 43.5397 33.0193 43.814 33.2173C44.0808 33.4099 44.3364 33.7436 44.47 34.2076C44.7123 35.0489 44.1598 35.9494 43.3616 36.2018C43.2145 36.2483 43.1053 36.2348 43.014 36.196C42.9136 36.1533 42.8027 36.0657 42.6948 35.9177C42.5012 35.6521 42.3661 35.2602 42.3268 34.8717L42.3161 34.7056C42.2994 34.138 42.4112 33.754 42.5629 33.5037C42.7114 33.259 42.9148 33.1136 43.1454 33.0407ZM72.9928 33.2785C73.2038 33.2465 73.3939 33.3394 73.5878 33.656C73.7847 33.9777 73.9067 34.4243 73.9533 34.7851C73.9993 35.1421 73.9855 35.5365 73.866 35.8475C73.7566 36.1321 73.5633 36.3473 73.1891 36.4317C72.8076 36.5177 72.4673 36.3601 72.2012 36.022C71.9252 35.6711 71.7902 35.1907 71.8358 34.8162C71.8925 34.3504 72.0211 33.9883 72.2074 33.7365C72.384 33.4981 72.6294 33.3339 72.9928 33.2785Z" fill="#3C1814" stroke="#100000"/>
<circle cx="42.9953" cy="32.8649" r="8.03049" transform="rotate(-2.61419 42.9953 32.8649)" stroke="black" stroke-width="0.5"/>
<path d="M51.0835 31.5113C52.9794 30.3645 58.5217 28.6274 63.8419 30.9289" stroke="black" stroke-width="0.5"/>
<path d="M34.8571 33.0981L33.4551 33.1621" stroke="black" stroke-width="0.5" stroke-linecap="round"/>
<path d="M80.0039 31.0352L81.5461 30.9647" stroke="black" stroke-width="0.5" stroke-linecap="round"/>
<circle cx="71.8596" cy="33.3678" r="8.28959" transform="rotate(-2.61419 71.8596 33.3678)" stroke="black" stroke-width="0.5"/>
<path d="M97.6039 71.0007C83.4525 68.3444 64.8466 74.116 57.3126 77.3338C29.106 62.6138 9.76911 67.5329 9.70729 70.9833C9.65632 73.8282 8.88517 108.639 15.3738 111.096C22.0194 113.612 53.1576 114.094 61.9546 118.6C66.1824 116.162 107.44 115.882 108.424 113.211C111.059 106.058 100.937 71.8956 97.6039 71.0007Z" fill="#9B9A5B" stroke="#B5B479" stroke-width="0.5"/>
<path d="M98.3187 68.3308C84.1674 65.6745 65.5615 71.4461 58.0275 74.6639C29.8209 59.9438 10.484 64.863 10.4221 68.3134C10.3712 71.1583 9.60001 105.969 16.0886 108.426C22.7342 110.942 53.8724 111.424 62.6694 115.93C66.8973 113.492 108.155 113.212 109.139 110.542C111.774 103.388 101.652 69.2257 98.3187 68.3308Z" fill="#F3E3BE" stroke="#B5B479" stroke-width="0.5"/>
<path d="M15.5745 102.247C14.261 100.75 13.883 77.4945 13.8582 66.0535C25.0718 60.4878 48.4568 69.3884 58.7476 74.5344C67.8976 69.7339 84.3137 67.9093 92.7099 67.8183C94.8601 67.795 97.0673 67.5594 99.5546 68.9419C102.042 70.3244 111.908 108.103 108.396 107.874C97.1584 107.144 73.5366 109.949 63.1305 111.442C44.5154 103.586 21.3948 104.524 19.8826 104.833C18.3705 105.141 17.2163 104.117 15.5745 102.247Z" fill="#FDF9E8"/>
<circle cx="100.679" cy="96.3078" r="0.756983" fill="#9B9A5B"/>
<circle cx="57.5308" cy="101.606" r="0.756983" transform="rotate(19.4089 57.5308 101.606)" fill="#9B9A5B"/>
<circle cx="53.9546" cy="90.4597" r="0.756983" transform="rotate(19.4089 53.9546 90.4597)" fill="#9B9A5B"/>
<circle cx="99.1652" cy="90.2511" r="0.756983" fill="#9B9A5B"/>
<path d="M63.0487 111.745L58.666 74.8359" stroke="#B5B479" stroke-width="0.5"/>
<path d="M66.8016 82.0808C71.1323 80.1469 82.3984 76.6924 92.8169 78.3464" stroke="#B5B479" stroke-width="0.5"/>
<path d="M25.9826 96.8158C30.7038 96.3624 42.4833 96.6771 51.832 101.564" stroke="#B5B479" stroke-width="0.5"/>
<path d="M78.9126 88.679C82.7825 87.5741 89.6767 85.852 93.1886 86.0803" stroke="#B5B479" stroke-width="0.5"/>
<path d="M26.4433 85.8044C32.2795 86.5317 42.5722 88.1426 47.3455 90.3782" stroke="#B5B479" stroke-width="0.5"/>
<path d="M81.1832 95.1056L87.9454 93.7237" stroke="#B5B479" stroke-width="0.5"/>
<path d="M90.0035 93.5535L95.2542 92.474" stroke="#B5B479" stroke-width="0.5"/>
<path d="M75.8849 100.849L97.0323 97.7752" stroke="#B5B479" stroke-width="0.5"/>
<g filter="url(#filter0_d_553_1288)">
<path d="M41.8126 69.7109L39.4361 59.8806L30.4057 62.0577C32.3532 65.3024 36.7745 71.8413 38.879 72.0386C39.4355 72.0908 39.5967 71.9029 39.8334 71.5709C40.0637 71.2479 40.5023 71.176 40.8714 71.0306C41.4391 70.807 41.8504 70.1006 41.8126 69.7109Z" fill="#FDF7E4"/>
<path d="M39.4361 59.8806L41.8126 69.7109C41.8504 70.1006 41.4391 70.807 40.8714 71.0306C40.5023 71.176 40.0637 71.2479 39.8334 71.5709C39.5967 71.9029 39.4355 72.0908 38.879 72.0386C36.7745 71.8413 32.3532 65.3024 30.4057 62.0577" stroke="#CEAE71"/>
</g>
<g filter="url(#filter1_d_553_1288)">
<path d="M78.56 69.7767C78.7374 69.3151 82.3534 64.0577 84.1391 61.4866L92.5662 65.2041C90.8494 67.2225 86.4847 71.5154 82.7606 72.5405C81.6377 72.8495 80.9264 72.7323 80.5108 72.3963C80.0814 72.0491 79.5611 71.5112 79.1863 71.1056C78.7704 70.6556 78.4774 69.9915 78.56 69.7767Z" fill="#FDF7E4"/>
<path d="M84.1391 61.4866C82.3534 64.0577 78.7374 69.3151 78.56 69.7767C78.4774 69.9916 78.7704 70.6556 79.1863 71.1056C79.5611 71.5112 80.0814 72.0491 80.5108 72.3963C80.9264 72.7323 81.6377 72.8495 82.7606 72.5405C86.4847 71.5154 90.8494 67.2225 92.5662 65.2041" stroke="#CEAE71"/>
</g>
<path d="M41.1501 125.55C33.6353 128.771 25.1159 117.533 32.6319 113.023C40.3184 108.411 45.16 123.831 41.1501 125.55Z" fill="#F5EBC8"/>
<path d="M79.2219 125.223C73.0944 119.81 79.6051 107.301 86.8976 112.163C94.3555 117.136 82.4915 128.112 79.2219 125.223Z" fill="#F5EBC8"/>
<defs>
<filter id="filter0_d_553_1288" x="28.2766" y="59.7637" width="15.7379" height="18.4832" filterUnits="userSpaceOnUse" color-interpolation-filters="sRGB">
<feFlood flood-opacity="0" result="BackgroundImageFix"/>
<feColorMatrix in="SourceAlpha" type="matrix" values="0 0 0 0 0 0 0 0 0 0 0 0 0 0 0 0 0 0 127 0" result="hardAlpha"/>
<feOffset dy="4"/>
<feGaussianBlur stdDeviation="0.85"/>
<feComposite in2="hardAlpha" operator="out"/>
<feColorMatrix type="matrix" values="0 0 0 0 0.607843 0 0 0 0 0.603922 0 0 0 0 0.356863 0 0 0 0.2 0"/>
<feBlend mode="normal" in2="BackgroundImageFix" result="effect1_dropShadow_553_1288"/>
<feBlend mode="normal" in="SourceGraphic" in2="effect1_dropShadow_553_1288" result="shape"/>
</filter>
<filter id="filter1_d_553_1288" x="76.3469" y="61.2012" width="18.3004" height="17.7195" filterUnits="userSpaceOnUse" color-interpolation-filters="sRGB">
<feFlood flood-opacity="0" result="BackgroundImageFix"/>
<feColorMatrix in="SourceAlpha" type="matrix" values="0 0 0 0 0 0 0 0 0 0 0 0 0 0 0 0 0 0 127 0" result="hardAlpha"/>
<feOffset dy="4"/>
<feGaussianBlur stdDeviation="0.85"/>
<feComposite in2="hardAlpha" operator="out"/>
<feColorMatrix type="matrix" values="0 0 0 0 0.607843 0 0 0 0 0.603922 0 0 0 0 0.356863 0 0 0 0.2 0"/>
<feBlend mode="normal" in2="BackgroundImageFix" result="effect1_dropShadow_553_1288"/>
<feBlend mode="normal" in="SourceGraphic" in2="effect1_dropShadow_553_1288" result="shape"/>
</filter>
</defs>
</svg>
