<svg width="188" height="206" viewBox="0 0 188 206" fill="none" xmlns="http://www.w3.org/2000/svg">
<ellipse cx="102.695" cy="189.106" rx="83.6152" ry="12.3874" fill="#CACE89"/>
<path d="M36.2022 62.9098C30.7827 77.6199 33 106.5 47.004 111.685C41.5855 134.138 13.75 191.43 63.0754 194.076C65.1066 194.185 69.1008 194.693 74.3203 195.088C88.9913 196.198 113.246 197.514 129.891 196.938C134.093 196.793 137.81 196.527 140.766 196.107C141.191 196.046 141.597 195.966 141.992 195.916C202.938 188.105 189.461 149.622 173.976 100.072C177.847 86.9105 153.846 26.5217 129.89 15.6827C141.339 13.4338 141.949 4.38641 134.439 0.973035C125.923 -2.89768 122.052 5.61713 122.826 11.8113C113.535 5.61713 81.889 1.74686 61.7594 14.9116C69.4009 8.1059 55.6366 2.6734 50.9203 5.62104C44.7266 9.49212 44.1783 27.3003 55.5656 19.5569C41.7245 28.9688 36.2022 56.7161 36.2022 62.9098Z" fill="#FFFBE3"/>
<path d="M112.612 81.2168C114.45 81.2957 116.114 82.0598 117.317 83.1426C118.528 84.2319 119.229 85.6022 119.229 86.8691C119.229 89.3493 116.45 91.7552 112.435 90.8711C110.171 90.3727 107.842 88.6169 107.842 85.373C107.842 84.0572 108.319 83.0363 109.124 82.3379C109.935 81.6351 111.124 81.2199 112.612 81.2168Z" fill="#FED1C1" stroke="#F7C2AD"/>
<path d="M44.4984 79.9499C42.8072 80.6733 41.5204 81.9764 40.7779 83.4145C40.0308 84.8613 39.8588 86.3912 40.3065 87.5764C41.1832 89.8965 44.6333 91.1647 48.0773 88.9181C50.0188 87.6517 51.5768 85.186 50.4301 82.1515C49.965 80.9206 49.1582 80.1342 48.1578 79.7656C47.1512 79.3947 45.8915 79.4268 44.4984 79.9499Z" fill="#FED1C1" stroke="#F7C2AD"/>
<path d="M73.293 71.4678L77.8386 73.8824L82.5832 71.3935M77.8551 75.9402L77.9319 85.5435M77.9319 85.5435L74.8461 86.9401M77.9319 85.5435L81.0396 86.8906" stroke="#1C140A" stroke-linecap="round"/>
<circle cx="56.1587" cy="71.6467" r="12.9999" transform="rotate(-0.0535117 56.1587 71.6467)" stroke="black" stroke-width="0.5"/>
<path d="M69.1779 70.0629C72.2904 68.3653 81.2741 65.9847 89.6141 70.0441" stroke="black" stroke-width="0.5"/>
<path d="M43.1266 71.4344L40.8809 71.4365" stroke="black" stroke-width="0.5" stroke-linecap="round"/>
<path d="M115.439 71.3682L117.91 71.3659" stroke="black" stroke-width="0.5" stroke-linecap="round"/>
<circle cx="102.194" cy="73.8478" r="12.9999" transform="rotate(-0.0535117 102.194 73.8478)" stroke="black" stroke-width="0.5"/>
<path d="M57.7909 16.4492C55.0772 16.6312 50.7145 12.7327 51.6456 11.4359C53.6412 8.65628 56.4077 12.925 57.7909 16.4492Z" fill="#F7E7D4"/>
<path d="M126.413 11.7833C125.319 10.2242 129.453 4.40174 131.829 6.31847C134.088 8.14008 127.923 12.1777 126.413 11.7833Z" fill="#F7E7D4"/>
<path d="M61.23 76.7948C61.245 78.6735 59.7342 80.2086 57.8556 80.2236C55.9769 80.2386 54.4418 78.7279 54.4268 76.8492C54.4117 74.9705 54.4063 74.2979 57.8012 73.4204C61.918 72.3563 61.2028 73.3932 61.23 76.7948Z" fill="#403320"/>
<path d="M97.0005 76.8909C97.0155 78.7696 98.5506 80.2804 100.429 80.2653C102.308 80.2503 103.819 78.7152 103.804 76.8365C103.789 74.9578 103.783 74.2852 100.375 73.4621C96.2415 72.464 96.9733 73.4893 97.0005 76.8909Z" fill="#403320"/>
<path d="M54.4062 74.2985C56.3905 74.2826 58.6582 74.2645 60.3454 72.55" stroke="#3E331D" stroke-linecap="round"/>
<path d="M52.5556 55.603C54.5398 55.5871 58.6744 55.0438 59.3384 52.9973" stroke="#3E331D" stroke-linecap="round"/>
<path d="M103.734 74.7535C101.75 74.7694 99.4755 73.9372 97.7679 73.1004" stroke="#3E331D" stroke-linecap="round"/>
<path d="M105.282 55.1811C103.298 55.197 99.1551 54.7198 98.4585 52.6843" stroke="#3E331D" stroke-linecap="round"/>
<path d="M38.0268 165.103C31.0601 154.266 13.2541 162.783 27.962 189.104" stroke="#695946" stroke-linecap="round"/>
<path d="M44.6293 189.106C43.3906 190.964 39.5758 192.35 38.0273 192.608V164.331C43.6017 169.286 47.7262 182.138 47.7262 190.654L44.6293 189.106Z" fill="#F7EED2"/>
<ellipse cx="32.8678" cy="176.93" rx="9.82709" ry="16.8473" transform="rotate(-14.7299 32.8678 176.93)" fill="#FCF6E0"/>
<path d="M121.131 174.218C112.762 156.589 93.4076 177.492 108.892 199.17" stroke="#695946" stroke-linecap="round"/>
<path d="M122.825 196.848C121.194 198.374 116.399 201.097 114.833 200.993L121.307 173.468C125.599 179.567 124.373 191.429 124.373 196.848L122.825 196.848Z" fill="#F7EED2"/>
<ellipse cx="113.402" cy="184.55" rx="9.82709" ry="16.8473" transform="rotate(-1.49503 113.402 184.55)" fill="#FCF6E0"/>
<path d="M101.061 126.152C103.502 126.616 105.106 128.971 104.642 131.413L103.488 137.485L100.55 135.733L100.112 134.309L99.8912 133.59L99.3136 134.071L96.3082 136.58L97.4983 132.953L97.6302 132.552L97.2571 132.355L94.7019 131.007L95.8325 129.928L96.4177 129.369L95.6565 129.096L94.0718 128.527L93.9352 128.477L93.7928 128.509L92.5374 128.792L93.3717 126.456L93.399 126.381L93.4005 126.3L93.4374 124.703L101.061 126.152Z" fill="#FEF5E3" stroke="#BFB175"/>
<path d="M63.0493 134.826L85.507 128.484L86.2225 130.008L86.6197 133.29L86.7285 134.193L87.4326 133.618L89.019 132.322L89.7436 132.236L89.2522 133.6L89.0167 134.254L89.712 134.269L92.8723 134.339L93.6203 139.424L93.8735 141.151L94.5728 139.552L96.5379 135.055L97.1822 135.731L97.3149 135.87L97.5065 135.884L101.473 136.18L111.544 171.845C112.219 174.237 110.827 176.723 108.436 177.399L77.5348 186.124C75.1431 186.8 72.6567 185.408 71.9812 183.017L59.9415 140.379C59.2661 137.987 60.6575 135.501 63.0493 134.826Z" fill="#FDF4E2" stroke="#BFB175"/>
<path d="M79.6721 140.802C80.0149 139.301 81.8539 138.734 82.9824 139.782L91.3684 147.564C92.4969 148.612 92.0684 150.488 90.5971 150.942L79.6639 154.313C78.1927 154.766 76.7821 153.457 77.1248 151.956L79.6721 140.802Z" fill="#ED765C"/>
<rect x="80.9727" y="142.06" width="1.71982" height="5.73272" rx="0.859908" transform="rotate(-17.1358 80.9727 142.06)" fill="#FDFAF2"/>
<rect x="82.998" y="148.633" width="1.71982" height="1.71982" rx="0.859908" transform="rotate(-17.1358 82.998 148.633)" fill="#FDFAF2"/>
<path d="M76.8281 165.138L95.0489 160.095" stroke="#F8DFC3" stroke-width="2" stroke-linecap="round"/>
<path d="M78.8965 170.783L90.5774 167.475" stroke="#F8DFC3" stroke-width="2" stroke-linecap="round"/>
<path d="M66.9171 147.089C68.6362 139.556 62.4895 119.871 62.4895 119.871L45.8256 103.613C34.2111 132.259 52.8016 153.058 58.698 153.611C60.7289 153.801 60.8809 152.85 62.0686 151.352C62.3151 151.042 62.7382 150.925 63.0897 151.109C64.9756 152.096 65.3515 153.95 66.9171 147.089Z" fill="#FFFBE3"/>
<path d="M63.7179 126.09C68.3632 136.153 66.9146 147.09 66.9146 147.09C67.0449 148.432 65.2751 151.113 63.1266 150.979C62.7306 150.954 62.3125 151.043 62.0661 151.354C60.8783 152.852 60.7264 153.802 58.6954 153.612C52.7991 153.059 46.1818 147.09 44.6322 131.041" stroke="#1C140A" stroke-width="0.5"/>
<path d="M123.318 143.447L134.147 119.781L153.375 109.147C156.79 138.119 134.674 152.406 129.169 151.436C127.286 151.104 127.371 150.211 126.68 148.573C126.526 148.207 126.146 148.011 125.758 147.924C123.794 147.483 122.867 144.628 123.318 143.447Z" fill="#FFFBE3"/>
<path d="M129.172 130.267C124.372 135.686 123.318 143.447 123.318 143.447C122.867 144.629 123.794 147.484 125.759 147.925C126.146 148.011 126.526 148.207 126.681 148.573C127.372 150.211 127.287 151.104 129.17 151.436C134.674 152.406 142.96 147.299 149.676 132.864" stroke="#1C140A" stroke-width="0.5"/>
<path d="M26.2656 46.6854C25.6462 52.2598 20.8465 51.0727 18.5241 49.7823C17.7499 50.5565 20.0725 57.5246 22.3951 56.7503C16.8208 60.4666 12.8472 55.2024 11.5568 52.1055C9.49157 54.9443 3.55906 54.1778 1.49 50.5571C-1.60702 45.1376 3.29696 39.9762 6.13598 39.7181C6.13598 38.9439 5.05208 33.369 13.1039 32.7496C21.1557 32.1302 21.1054 39.7181 20.0731 43.5892C22.3958 42.2988 26.6732 43.0168 26.2656 46.6854Z" fill="#DBE09C"/>
<path d="M25.492 58.2988C25.234 57.5246 24.2529 56.1314 22.3951 56.7503M22.3951 56.7503C20.0725 57.5246 17.7499 50.5565 18.5241 49.7823C20.8465 51.0727 25.6462 52.2598 26.2656 46.6854C26.6732 43.0168 22.3958 42.2988 20.0731 43.5892C21.1054 39.7181 21.1557 32.1302 13.1039 32.7496C5.05208 33.369 6.13598 38.9439 6.13598 39.7181C3.29696 39.9762 -1.60702 45.1376 1.49 50.5571C3.55906 54.1778 9.49157 54.9443 11.5568 52.1055C12.8472 55.2024 16.8208 60.4666 22.3951 56.7503Z" stroke="#C9CC88"/>
</svg>
