<svg width="159" height="252" viewBox="0 0 159 252" fill="none" xmlns="http://www.w3.org/2000/svg">
<ellipse cx="75.0738" cy="236.583" rx="66.0221" ry="15.2978" fill="#DDE1AC"/>
<path d="M14.4587 112.177C10.9151 103.531 8.59049 82.1981 27.6409 66.0393C30.6174 61.1492 40.5465 48.2339 48.2007 44.1516C40.7591 47.3409 39.6961 36.4975 45.6493 33.5205C50.8224 30.9337 58.4062 36.71 53.9413 41.6002C59.8946 39.8284 82.0066 37.3479 100.143 42.2263C100.717 34.7965 107.158 31.4374 112.687 34.3596C117.939 37.1353 121.553 45.002 109.647 47.3408C115.812 52.231 127.995 71.9925 131.185 86.0252C144.154 137.053 173.283 217.209 115.876 226.989C115.468 227.059 115.043 227.125 114.601 227.188C114.672 230.382 116.089 236.982 108.86 237.408C101.631 237.833 103.163 231.383 103.292 228.052C85.982 228.651 60.7579 227.283 45.5008 226.129C45.6426 229.392 44.9782 234.881 41.6738 235.707C39.9728 236.132 38.4845 236.132 36.3584 235.707C34.2322 235.281 33.1259 231.199 33.8066 225.076C19.9865 223.375 -19.5596 202.326 14.4587 112.177Z" fill="#FFFBE3"/>
<path d="M45.5008 226.129C60.7579 227.283 85.982 228.651 103.292 228.052C107.662 227.901 111.528 227.625 114.601 227.188C115.043 227.125 115.468 227.059 115.876 226.989C173.283 217.209 144.154 137.053 131.185 86.0252C127.995 71.9925 115.812 52.231 109.647 47.3408C121.553 45.002 117.939 37.1353 112.687 34.3596C107.158 31.4374 100.717 34.7965 100.143 42.2263C82.0066 37.3479 59.8946 39.8284 53.9413 41.6002C58.4062 36.71 50.8224 30.9337 45.6493 33.5205C39.6961 36.4975 40.7591 47.3409 48.2007 44.1516C40.5465 48.2339 30.6174 61.1492 27.6409 66.0393C8.59049 82.1981 10.9151 103.531 14.4587 112.177C-19.5596 202.326 19.9865 223.375 33.8066 225.076M33.8066 225.076C35.9062 225.334 40.0727 225.718 45.5008 226.129M33.8066 225.076C33.1259 231.199 34.2322 235.281 36.3584 235.707C38.4845 236.132 39.9728 236.132 41.6738 235.707C44.9782 234.881 45.6426 229.392 45.5008 226.129M103.292 228.052C103.163 231.383 101.631 237.833 108.86 237.408C116.089 236.982 114.672 230.382 114.601 227.188" stroke="#CEAE71"/>
<path d="M92.1143 81.3809C93.88 81.463 95.4825 82.2334 96.6445 83.3291C97.815 84.4328 98.5 85.8276 98.5 87.125C98.5 89.6722 95.7947 92.0831 91.9414 91.1943C89.768 90.693 87.5001 88.9189 87.5 85.6064C87.5 84.2613 87.9658 83.2206 88.7451 82.5127C89.5287 81.801 90.6773 81.3823 92.1143 81.3809Z" fill="#FED1C1" stroke="#F7C2AD"/>
<path d="M30.9156 80.5839C29.2184 80.0896 27.4527 80.2993 25.9985 80.9595C24.5336 81.6245 23.4337 82.7222 23.0134 83.9497C22.1883 86.3595 23.9667 89.5167 27.9001 89.9242C30.1187 90.1539 32.839 89.2102 33.9122 86.0764C34.3479 84.8037 34.2444 83.6683 33.7364 82.7461C33.2256 81.8189 32.2745 81.0508 30.9156 80.5839Z" fill="#FED1C1" stroke="#F7C2AD"/>
<path d="M54.3662 72.4883L58.4059 74.7672L62.6582 72.4883M58.4059 76.6808V85.6107M58.4059 85.6107L55.6419 86.8864M58.4059 85.6107L61.1699 86.8864" stroke="#1C140A" stroke-linecap="round"/>
<path d="M37.7573 122.218L40.5016 111.108C40.545 110.639 39.9426 109.819 39.1611 109.723C38.7852 109.677 38.3746 109.641 38.1277 109.354C37.7934 108.965 37.6175 108.737 36.8891 108.865C34.3266 109.316 29.0383 117.021 26.7145 120.817" stroke="#CEAE71"/>
<path d="M82.8858 123.05C80.9529 119.531 77.0483 112.347 76.8936 111.753C76.8118 111.44 77.4863 110.569 78.243 110.194C78.7378 109.948 79.3359 109.585 79.7967 109.281C80.398 108.884 81.4242 108.865 83.0365 109.603C87.853 111.809 92.938 118.052 94.8785 120.898" stroke="#CEAE71"/>
<circle cx="34.9231" cy="70.7117" r="13.2186" transform="rotate(0.40478 34.9231 70.7117)" stroke="black"/>
<path d="M48.4221 69.1804C51.6586 67.4486 60.9796 65.0582 69.5807 69.3302" stroke="black"/>
<path d="M21.4404 70.3836L19.1152 70.3672" stroke="black" stroke-linecap="round"/>
<path d="M96.3096 70.9121L98.8672 70.9302" stroke="black" stroke-linecap="round"/>
<circle cx="82.5725" cy="73.3718" r="13.2186" transform="rotate(0.40478 82.5725 73.3718)" stroke="black"/>
<path d="M36.9375 74.3808C36.9742 74.5106 37.0401 74.635 37.1415 74.7268C37.2428 74.8186 37.3695 74.8701 37.5 74.8701C37.6305 74.8701 37.7572 74.8186 37.8585 74.7268C37.9599 74.635 38.0258 74.5106 38.0625 74.3808C38.0625 74.3808 38.0625 74.3808 38.0625 74.3808C38.1251 74.1635 38.1928 73.9692 38.2661 73.7723C38.9228 71.9468 40.095 71.1391 41.1747 71.1918C42.2836 71.1994 43.5555 72.0239 44.2302 73.7824C44.3061 73.978 44.3748 74.1668 44.4375 74.3808C44.4742 74.5106 44.5401 74.635 44.6415 74.7268C44.7428 74.8186 44.8695 74.8701 45 74.8701C45.1305 74.8701 45.2572 74.8186 45.3585 74.7268C45.4599 74.635 45.5258 74.5106 45.5625 74.3808C45.6248 74.1304 45.6733 73.8947 45.7041 73.6347C46.1348 71.4176 44.3182 68.2122 41.2342 68.1924C38.0502 68.0461 36.2794 71.5305 36.7904 73.6448C36.8252 73.8973 36.8752 74.1323 36.9375 74.3808Z" fill="black"/>
<path d="M74.4375 74.3808C74.4742 74.5106 74.5401 74.635 74.6415 74.7268C74.7428 74.8186 74.8695 74.8701 75 74.8701C75.1305 74.8701 75.2572 74.8186 75.3585 74.7268C75.4599 74.635 75.5258 74.5106 75.5625 74.3808C75.5625 74.3808 75.5625 74.3808 75.5625 74.3808C75.6251 74.1635 75.6928 73.9692 75.7661 73.7723C76.4228 71.9468 77.595 71.1391 78.6747 71.1918C79.7836 71.1994 81.0555 72.0239 81.7302 73.7824C81.8061 73.978 81.8748 74.1668 81.9375 74.3808C81.9742 74.5106 82.0401 74.635 82.1415 74.7268C82.2428 74.8186 82.3695 74.8701 82.5 74.8701C82.6305 74.8701 82.7572 74.8186 82.8585 74.7268C82.9599 74.635 83.0258 74.5106 83.0625 74.3808C83.1248 74.1304 83.1733 73.8947 83.2041 73.6347C83.6348 71.4176 81.8182 68.2122 78.7342 68.1924C75.5502 68.0461 73.7794 71.5305 74.2904 73.6448C74.3252 73.8973 74.3752 74.1323 74.4375 74.3808Z" fill="black"/>
<path d="M6.33887 47.3955C6.61999 48.2932 7.27583 49.0254 8.1377 49.4023L10.375 50.3809L8.1377 51.3594C7.27583 51.7363 6.61999 52.4685 6.33887 53.3662L5.5 56.043L4.66113 53.3662C4.38001 52.4685 3.72417 51.7363 2.8623 51.3594L0.624023 50.3809L2.8623 49.4023C3.72417 49.0254 4.38001 48.2932 4.66113 47.3955L5.5 44.7178L6.33887 47.3955Z" fill="#FDFAF2" stroke="#E1E1B2" stroke-width="0.5"/>
<path d="M152.885 20.2197C153.162 21.1172 153.813 21.8513 154.672 22.2324L158.384 23.8809L154.672 25.5293C153.813 25.9105 153.162 26.6445 152.885 27.542L151.5 32.0322L150.115 27.542C149.838 26.6445 149.187 25.9105 148.328 25.5293L144.615 23.8809L148.328 22.2324C149.187 21.8513 149.838 21.1172 150.115 20.2197L151.5 15.7285L152.885 20.2197Z" fill="#FDFAF2" stroke="#E1E1B2" stroke-width="0.5"/>
<path d="M36 9.38086C37.2915 11.1732 38.3962 15.2351 37.5 15.8809C36.6038 16.5266 32.9531 14.1733 31.6616 12.3809C30.3701 10.5886 30.7656 8.28181 31.6618 7.63607C32.5579 6.99033 34.7085 7.58855 36 9.38086Z" fill="#DDE1AC"/>
<path d="M46 8.38086C45.6737 11.1118 43.8735 16.0862 42.5 15.8809C41.1265 15.6755 39.7514 10.3818 40.0777 7.6508C40.404 4.91982 42.7223 3.20244 44.0959 3.40783C45.4694 3.61322 46.3263 5.64988 46 8.38086Z" fill="#DDE1AC"/>
</svg>
