<svg width="166" height="138" viewBox="0 0 166 138" fill="none" xmlns="http://www.w3.org/2000/svg">
<rect y="24.2158" width="79.8647" height="107.053" rx="5" fill="#FEF3E0"/>
<rect x="12.7441" y="33.5615" width="62.0226" height="42.4812" rx="2" fill="#DED0AA"/>
<rect x="12.7441" y="81.9902" width="62.0226" height="42.4812" rx="2" fill="#DED0AA"/>
<path d="M56.5532 41.3054C56.8242 39.4888 58.6493 38.3401 60.4044 38.8813L71.0289 42.1578C72.4913 42.6088 73.3798 44.0883 73.0908 45.5911L67.4636 74.8525C67.3119 75.6414 66.8303 76.3296 66.0416 76.4824C65.3557 76.6152 64.3447 76.6973 62.9387 76.5542C62.6834 76.5282 62.433 76.4622 62.1948 76.3669L54.1372 73.1436C52.846 72.6271 52.079 71.2909 52.2843 69.9155L56.5532 41.3054Z" fill="#A7AA65"/>
<path d="M59.0702 38.6065C60.3096 38.5352 69.6905 41.7653 71.6035 42.4292C71.833 42.5089 72.0479 42.6125 72.2361 42.7662C72.6141 43.075 73.2079 43.6639 73.0671 44.2249C72.759 45.4525 70.9179 45.0659 70.9179 45.0659L57.5393 40.6066C57.1221 40.4675 56.7034 40.1828 56.8249 39.7602C56.8438 39.6944 56.8702 39.6232 56.9059 39.5465C57.1327 39.0589 58.5019 38.6392 59.0702 38.6065Z" fill="#8F9055"/>
<path d="M57.8332 39.9235C58.3216 39.4378 59.042 39.2689 59.6954 39.487L72.3243 43.7014C72.9424 43.9076 73.026 44.7476 72.4607 45.0717C71.9072 45.389 71.2455 45.458 70.6384 45.2616L58.1436 41.2206C57.5873 41.0407 57.4186 40.3358 57.8332 39.9235Z" fill="#FEF7E5"/>
<path d="M56.7422 40.4014L65.7553 43.4099C67.1597 43.8786 68.0121 45.3019 67.7624 46.7613L62.871 75.3575C62.7674 75.963 62.1476 76.3328 61.5656 76.1365L54.1888 73.6474C52.8091 73.1818 51.9629 71.7928 52.1821 70.3533L56.7422 40.4014Z" fill="#8A8D54"/>
<rect x="47.5781" y="48.0049" width="6.79699" height="28.0376" rx="2" fill="#C3C484"/>
<rect x="49.2773" y="48.0049" width="6.79699" height="28.0376" rx="2" fill="#E4E4B5"/>
<rect width="3.3985" height="3.3985" rx="1" transform="matrix(1 0 0 -1 50.9766 54.8027)" fill="#C3C383"/>
<rect width="3.3985" height="0.849624" rx="0.424812" transform="matrix(1 0 0 -1 50.9766 57.3516)" fill="#C3C383"/>
<rect width="3.3985" height="0.849624" rx="0.424812" transform="matrix(1 0 0 -1 50.9766 59.0508)" fill="#C3C383"/>
<rect x="44.1797" y="92.1846" width="6.79699" height="32.2857" rx="2" fill="#C3C484"/>
<rect x="45.8789" y="92.1846" width="6.79699" height="32.2857" rx="2" fill="#E4E4B5"/>
<rect width="3.3985" height="0.978355" rx="0.489177" transform="matrix(1 0 0 -1 47.5781 120.352)" fill="#C3C383"/>
<rect x="39.082" y="45.4561" width="6.79699" height="30.5865" rx="2" fill="#D9B35F"/>
<rect x="40.7812" y="45.4561" width="6.79699" height="30.5865" rx="2" fill="#F2CD68"/>
<rect width="3.3985" height="3.3985" rx="1" transform="matrix(1 0 0 -1 42.4805 53.1035)" fill="#FADF95"/>
<rect width="3.3985" height="0.926863" rx="0.463431" transform="matrix(1 0 0 -1 42.4805 55.6523)" fill="#FADF95"/>
<rect x="31.4355" y="41.208" width="6.79699" height="34.8346" rx="2" fill="#E7D8B3"/>
<rect x="33.1348" y="41.208" width="6.79699" height="34.8346" rx="2" fill="#FEF4E2"/>
<rect width="3.3985" height="1.05559" rx="0.527797" transform="matrix(1 0 0 -1 34.834 52.8193)" fill="#EBDDBB"/>
<rect x="62.0215" y="87.9365" width="6.79699" height="36.5338" rx="2" fill="#E7D8B3"/>
<rect x="63.7207" y="87.9365" width="6.79699" height="36.5338" rx="2" fill="#FEF4E2"/>
<rect width="3.3985" height="1.10709" rx="0.553543" transform="matrix(1 0 0 -1 65.4199 96.6904)" fill="#EBDDBB"/>
<rect width="3.3985" height="1.10709" rx="0.553543" transform="matrix(1 0 0 -1 65.4199 119.63)" fill="#EBDDBB"/>
<rect width="3.3985" height="1.10709" rx="0.553543" transform="matrix(1 0 0 -1 65.4199 94.1416)" fill="#EBDDBB"/>
<rect x="52.6758" y="93.0342" width="6.79699" height="31.4361" rx="2" fill="#EFD9A9"/>
<rect x="54.375" y="93.0342" width="6.79699" height="31.4361" rx="2" fill="#F9E9BD"/>
<rect width="3.3985" height="0.952609" rx="0.476304" transform="matrix(1 0 0 -1 56.0742 105.032)" fill="#EFD594"/>
<rect width="3.3985" height="4.24812" rx="1" transform="matrix(1 0 0 -1 56.0742 101.53)" fill="#F1CE6E"/>
<rect x="20.3906" y="40.3584" width="8.83609" height="35.6842" rx="2" fill="#7F814D"/>
<rect x="22.5996" y="40.3584" width="8.83609" height="35.6842" rx="2" fill="#A7A864"/>
<rect width="4.24812" height="1.69925" rx="0.849624" transform="matrix(1 0 0 -1 25.4883 71.7949)" fill="#C5C689"/>
<rect x="31.4355" y="97.2822" width="10.1955" height="27.188" rx="2" fill="#7F814D"/>
<rect x="33.9844" y="97.2822" width="10.1955" height="27.188" rx="2" fill="#A7A864"/>
<rect width="4.9017" height="1.29467" rx="0.647333" transform="matrix(1 0 0 -1 37.3184 121.234)" fill="#C5C689"/>
<rect width="4.9017" height="1.29467" rx="0.647333" transform="matrix(1 0 0 -1 36.5332 102.825)" fill="#C5C689"/>
<rect x="12.7441" y="38.6592" width="9.51608" height="37.3835" rx="2" fill="#B2B26E"/>
<rect x="15.123" y="38.6592" width="9.51608" height="37.3835" rx="2" fill="#C5C788"/>
<rect width="6.79699" height="0.849624" rx="0.424812" transform="matrix(1 0 0 -1 16.9922 71.7949)" fill="#DCDCA7"/>
<path d="M9.3457 131.269H20.3908L19.4552 135.635C19.2576 136.557 18.4426 137.216 17.4995 137.216H11.9299C10.9346 137.216 10.0908 136.484 9.95002 135.499L9.3457 131.269Z" fill="#C6AB74"/>
<path d="M55.2246 131.269H66.2697L65.3341 135.635C65.1365 136.557 64.3215 137.216 63.3785 137.216H57.8088C56.8135 137.216 55.9697 136.484 55.8289 135.499L55.2246 131.269Z" fill="#C6AB74"/>
<rect x="21.2402" y="93.8838" width="8.83609" height="30.5865" rx="2" fill="#E7D8B3"/>
<rect x="23.4492" y="93.8838" width="8.83609" height="30.5865" rx="2" fill="#FEF4E2"/>
<rect width="4.41805" height="0.926863" rx="0.463431" transform="matrix(1 0 0 -1 25.6582 101.212)" fill="#EBDDBB"/>
<rect width="4.41805" height="0.926863" rx="0.463431" transform="matrix(1 0 0 -1 25.6582 99.0781)" fill="#EBDDBB"/>
<rect x="15.293" y="88.7861" width="5.15427" height="35.6842" rx="2" fill="#7F814D"/>
<rect x="16.0859" y="88.7861" width="5.15427" height="35.6842" rx="2" fill="#A7A864"/>
<rect width="1.69925" height="11.0451" transform="matrix(1 0 0 -1 17.8418 104.079)" fill="#C5C689"/>
<ellipse cx="119" cy="131.216" rx="31" ry="6" fill="#D1D491"/>
<path d="M81.1079 53.2805C78.9073 47.9111 77.4637 34.6635 89.2941 24.6289C91.1426 21.592 99.3643 13.5364 100.864 12.5364C102.364 11.5364 108.364 8.0364 111.864 7.5364C115.364 7.0364 123.055 6.81134 134.318 9.84089L140.22 13.017C144.049 16.0538 151.615 28.3258 153.595 37.0402C161.649 68.7286 179.738 118.506 144.089 124.58C143.835 124.623 143.571 124.664 143.297 124.703C143.341 126.686 144.221 130.785 139.732 131.049C135.243 131.313 136.194 127.308 136.274 125.24C125.524 125.612 109.86 124.762 100.385 124.045C100.473 126.072 100.061 129.48 98.0086 129.993C96.9523 130.257 96.0281 130.257 94.7077 129.993C93.3874 129.729 92.7003 127.194 93.1231 123.391C84.5407 122.335 59.9824 109.263 81.1079 53.2805Z" fill="#FFFBE3"/>
<path d="M93.1231 123.391C84.5407 122.335 59.9824 109.263 81.1079 53.2805C78.9073 47.9111 77.4637 34.6635 89.2941 24.6289C91.1426 21.592 99.3643 13.5364 100.864 12.5364C102.364 11.5364 108.364 8.0364 111.864 7.5364C115.364 7.0364 123.055 6.81134 134.318 9.84089L140.22 13.017C144.049 16.0538 151.615 28.3258 153.595 37.0402C161.649 68.7286 179.738 118.506 144.089 124.58C143.835 124.623 143.571 124.664 143.297 124.703M93.1231 123.391C94.4269 123.552 97.0143 123.79 100.385 124.045M93.1231 123.391C92.7004 127.194 93.3874 129.729 94.7077 129.993C96.0281 130.257 96.9523 130.257 98.0086 129.993C100.061 129.48 100.473 126.072 100.385 124.045M100.385 124.045C109.86 124.762 125.524 125.612 136.274 125.24M136.274 125.24C136.194 127.308 135.243 131.313 139.732 131.049C144.221 130.785 143.341 126.686 143.297 124.703M136.274 125.24C138.987 125.146 141.388 124.974 143.297 124.703" stroke="#CEAE71"/>
<path d="M98.9453 33.209L101.29 34.8816L104.066 33.7535M101.165 36.0632L100.578 41.5776M100.578 41.5776L98.7876 42.1839M100.578 41.5776L102.201 42.5469" stroke="#1C140A" stroke-linecap="round"/>
<path d="M74.0057 45.7984L83.7342 48.4818L81.2752 57.419C78.1011 55.3732 71.7204 50.7553 71.5906 48.65C71.5564 48.094 71.7484 47.9389 72.0863 47.7138C72.4165 47.4939 72.5025 47.0579 72.66 46.6938C72.9017 46.1353 73.6184 45.7483 74.0057 45.7984Z" fill="#FFFBE3"/>
<path d="M83.7342 48.4818L74.0057 45.7984C73.6184 45.7483 72.9017 46.1353 72.66 46.6938C72.5025 47.0579 72.4165 47.4939 72.0863 47.7138C71.7484 47.9389 71.5564 48.094 71.5906 48.65C71.7204 50.7553 78.1011 55.3732 81.2752 57.419" stroke="#D3B782"/>
<path d="M95.2717 65.8383C95.0461 64.1969 96.1939 62.6833 97.8353 62.4578L119.758 59.445C121.4 59.2195 122.913 60.3672 123.139 62.0087L127.102 90.8518C127.328 92.4932 126.18 94.0067 124.539 94.2323L102.616 97.245C100.975 97.4706 99.461 96.3228 99.2355 94.6814L95.2717 65.8383Z" fill="#A5AE66"/>
<path d="M96.0967 65.3575C95.9678 64.4196 96.6237 63.5547 97.5616 63.4258L120.252 60.3075C121.347 60.1572 122.356 60.9223 122.506 62.0166L122.7 63.432L98.0284 66.8225C97.0905 66.9514 96.2256 66.2955 96.0967 65.3575Z" fill="#FDF5E0"/>
<path d="M94.9994 66.8569C94.9242 66.3098 95.3068 65.8053 95.854 65.7301L120.749 62.3089C121.843 62.1585 122.852 62.9237 123.003 64.018L126.843 91.9621C126.993 93.0564 126.228 94.0654 125.134 94.2158L101.229 97.5008C100.135 97.6512 99.1262 96.886 98.9758 95.7917L94.9994 66.8569Z" fill="#D9D7A1"/>
<path d="M98.3633 66.5361L102.363 95.5361" stroke="#C0C07E" stroke-linecap="round"/>
<path d="M118.974 74.9704C119.343 74.6432 124.962 71.6485 127.725 70.192L133.481 77.3579C131.032 78.3565 125.193 80.1527 121.424 79.3489C120.289 79.1069 119.713 78.677 119.498 78.1893C119.276 77.6836 119.062 76.966 118.917 76.4332C118.756 75.8439 118.802 75.1226 118.974 74.9704Z" fill="#FFFBE3"/>
<path d="M127.725 70.192C124.962 71.6485 119.343 74.6432 118.974 74.9704C118.802 75.1226 118.756 75.8439 118.917 76.4332C119.062 76.966 119.276 77.6836 119.498 78.1893C119.713 78.677 120.289 79.1069 121.424 79.3489C125.193 80.1527 131.032 78.3565 133.481 77.3579" stroke="#CEAE71"/>
<path d="M109.863 2.53562C108.268 4.16285 108.95 7.54738 110.621 8.4769C111.158 8.62607 112.612 8.80639 114.132 8.33433C115.652 7.86226 115.923 4.02114 115.608 2.72309C115.131 0.754555 111.685 0.676348 109.863 2.53562Z" fill="#FFFBE3" stroke="#FFFBE3" stroke-linecap="round"/>
<path d="M110.619 8.47693C108.949 7.54742 108.266 4.16289 109.861 2.53565C111.684 0.676382 113.893 0.19366 115.5 2.20878C116.392 3.1976 117.018 6.73988 115.499 7.21195" stroke="#CEAE71" stroke-linecap="round"/>
<path d="M110.988 8.03613C110.821 8.03613 110.688 7.83613 111.488 7.03613C112.288 6.23625 114.862 6.03619 115.862 6.03613L115.487 7.53613C114.687 7.53613 112.154 7.86947 110.988 8.03613Z" fill="#F5E9C7"/>
<path d="M142.581 15.2067C141.956 16.8829 139.48 17.5508 138.32 17.6753L141.48 14.3191L142.581 15.2067Z" fill="#F5E8C8"/>
<path d="M129 8.71191C128.247 9.19496 129.227 11.7357 129.499 12.7122L129.999 9.2122L129 8.71191Z" fill="#F5E8C8"/>
<path d="M139.103 5.9052C130.743 1.7648 129.48 9.95462 129.96 14.4289C131.452 17.085 135.542 18.0208 137.4 18.1567C141.495 15.7059 144.945 8.7983 139.103 5.9052Z" fill="#FFFBE3"/>
<path d="M129.972 14.6028C129.492 10.1284 130.754 1.93863 139.115 6.07902C144.957 8.97213 141.507 15.8798 137.412 18.3305" stroke="#CEAE71" stroke-linecap="round"/>
<path d="M137.692 11.4963C137.822 12.7127 136.349 13.5916 135.063 14.0756C134.5 14.2876 133.916 13.8813 133.888 13.2805C133.829 11.9975 133.936 10.2572 134.993 9.77435C135.903 9.35894 137.479 9.50771 137.692 11.4963Z" fill="#F5E8C8"/>
<path d="M113.951 32.7063C114.079 32.7187 114.194 32.7946 114.285 33.0629C114.377 33.3365 114.393 33.6941 114.365 33.976C114.338 34.2547 114.26 34.5394 114.124 34.7371C114.006 34.9092 113.846 35.0195 113.569 35.0121C113.291 35.0046 113.072 34.8396 112.932 34.543C112.786 34.2328 112.77 33.8597 112.863 33.6069C112.988 33.2651 113.145 33.0267 113.318 32.8838C113.478 32.7519 113.675 32.6796 113.951 32.7063Z" fill="#3C1814" stroke="#100000"/>
<path d="M90.0564 28.9577C90.1488 28.9524 90.316 29.004 90.4872 29.2009C90.6516 29.3902 90.7869 29.6827 90.8079 30.0503C90.8442 30.6883 90.2995 31.239 89.6679 31.2752C89.5049 31.2845 89.3756 31.2132 89.2713 30.97C89.1592 30.7087 89.1304 30.3354 89.1958 30.007C89.282 29.5753 89.4318 29.3191 89.5778 29.1732C89.7191 29.0322 89.8818 28.9677 90.0564 28.9577Z" fill="#3C1814" stroke="#100000"/>
<circle cx="88.7466" cy="28.391" r="8.27141" transform="rotate(6.58021 88.7466 28.391)" stroke="black" stroke-width="0.5"/>
<path d="M97.1841 28.3468C99.2986 27.4936 105.215 26.6402 110.241 29.8531" stroke="black" stroke-width="0.5"/>
<path d="M80.4407 27.2876L79.0059 27.1221" stroke="black" stroke-width="0.5" stroke-linecap="round"/>
<path d="M126.643 32.6162L128.221 32.7983" stroke="black" stroke-width="0.5" stroke-linecap="round"/>
<circle cx="117.995" cy="33.2191" r="8.27141" transform="rotate(6.58021 117.995 33.2191)" stroke="black" stroke-width="0.5"/>
</svg>
