<svg width="119" height="129" viewBox="0 0 119 129" fill="none" xmlns="http://www.w3.org/2000/svg">
<path d="M33.4419 49.7432C31.2413 44.3738 29.7977 31.1262 41.6281 21.0916C43.4766 18.0547 49.6426 10.0343 54.3958 7.49921C49.7746 9.47974 49.1144 2.74594 52.8114 0.897229C56.0239 -0.709212 60.7335 2.87793 57.9608 5.91476C61.6578 4.81446 75.3894 3.27403 86.6521 6.30358C87.0086 1.68961 91.0088 -0.396418 94.4422 1.41829C97.7034 3.142 99.948 8.0273 92.554 9.47969C96.3831 12.5165 103.949 24.7885 105.929 33.5029C113.983 65.1913 132.072 114.969 96.4227 121.042C96.1692 121.085 95.905 121.127 95.6307 121.166C95.6747 123.149 96.5549 127.248 92.0657 127.512C87.5765 127.776 88.528 123.771 88.6076 121.702C77.8582 122.074 62.1939 121.225 52.7192 120.508C52.8072 122.534 52.3946 125.943 50.3426 126.456C49.2863 126.72 48.362 126.72 47.0417 126.456C45.7213 126.192 45.0343 123.657 45.457 119.854C36.8747 118.798 12.3164 105.726 33.4419 49.7432Z" fill="#FFFBE3"/>
<path d="M45.457 119.854C36.8747 118.798 12.3164 105.726 33.4419 49.7432C31.2413 44.3738 29.7977 31.1262 41.6281 21.0916C43.4766 18.0547 49.6426 10.0343 54.3958 7.49921C49.7746 9.47974 49.1144 2.74594 52.8114 0.897229C56.0239 -0.709212 60.7335 2.87793 57.9608 5.91476C61.6578 4.81446 75.3894 3.27403 86.6521 6.30358C87.0086 1.68961 91.0088 -0.396418 94.4422 1.41829C97.7034 3.142 99.948 8.0273 92.554 9.47969C96.3831 12.5165 103.949 24.7885 105.929 33.5029C113.983 65.1913 132.072 114.969 96.4227 121.042C96.1692 121.085 95.905 121.127 95.6307 121.166M45.457 119.854C46.7609 120.014 49.3483 120.253 52.7192 120.508M45.457 119.854C45.0343 123.657 45.7213 126.192 47.0417 126.456C48.362 126.72 49.2863 126.72 50.3426 126.456C52.3946 125.943 52.8072 122.534 52.7192 120.508M52.7192 120.508C62.1939 121.225 77.8582 122.074 88.6076 121.702M88.6076 121.702C88.528 123.771 87.5765 127.776 92.0657 127.512C96.5549 127.248 95.6747 123.149 95.6307 121.166M88.6076 121.702C91.3215 121.609 93.7221 121.437 95.6307 121.166" stroke="#CEAE71"/>
<path d="M55.3441 4.7542C55.4985 5.45244 55.4839 6.8278 55.1292 6.89533C54.7745 6.96287 53.9824 5.78181 53.828 5.08357C53.6736 4.38533 54.0951 3.76479 54.4498 3.69726C54.8045 3.62972 55.1897 4.05596 55.3441 4.7542Z" fill="#CEAE71" fill-opacity="0.56"/>
<path d="M91.4076 6.99985C90.8124 7.52749 89.4143 8.30642 89.0948 8.05556C88.7753 7.80469 89.4058 6.47868 90.001 5.95104C90.5961 5.42341 91.5209 5.4108 91.8404 5.66166C92.1599 5.91253 92.0027 6.47222 91.4076 6.99985Z" fill="#CEAE71" fill-opacity="0.56"/>
<path d="M58.002 24.7715L60.5817 26.0526L63.1442 24.5003M60.6443 27.2393L60.9363 32.7771M60.9363 32.7771L59.264 33.6586M60.9363 32.7771L62.6921 33.4778" stroke="#1C140A" stroke-linecap="round"/>
<path d="M45.7219 24.3157C45.8105 24.2889 45.9852 24.2999 46.1977 24.4513C46.402 24.5968 46.6019 24.8494 46.7084 25.2019C46.8931 25.8138 46.4926 26.4768 45.8869 26.6597C45.7306 26.7069 45.5882 26.6677 45.4298 26.4559C45.2596 26.228 45.1445 25.8711 45.1313 25.5363C45.1141 25.0966 45.1993 24.8132 45.3071 24.6373C45.4114 24.4669 45.5545 24.3663 45.7219 24.3157ZM73.2288 24.3183C73.3562 24.3004 73.4861 24.3473 73.637 24.5868C73.791 24.8313 73.8909 25.1755 73.9303 25.456C73.9693 25.7332 73.9592 26.0281 73.8733 26.252C73.7985 26.4471 73.6691 26.5917 73.3979 26.6494C73.1257 26.7072 72.8744 26.598 72.6687 26.3425C72.4536 26.0753 72.3514 25.716 72.382 25.4487C72.4236 25.0872 72.521 24.8185 72.6557 24.639C72.7801 24.4734 72.955 24.3569 73.2288 24.3183Z" fill="#3C1814" stroke="#100000"/>
<circle cx="44.9189" cy="24.4929" r="8.35937" transform="rotate(-2.61419 44.9189 24.4929)" stroke="black" stroke-width="0.5"/>
<path d="M53.3283 23.0884C55.2994 21.8961 61.0618 20.09 66.5933 22.483" stroke="black" stroke-width="0.5"/>
<path d="M36.4577 24.7342L35 24.8008" stroke="black" stroke-width="0.5" stroke-linecap="round"/>
<path d="M83.3965 22.5918L85 22.5186" stroke="black" stroke-width="0.5" stroke-linecap="round"/>
<circle cx="74.8681" cy="24.5886" r="8.35937" transform="rotate(-2.61419 74.8681 24.5886)" stroke="black" stroke-width="0.5"/>
<path d="M25.1432 50.4114L33.9024 55.4237L29.3037 63.4718C26.7361 60.7027 21.7 54.6467 22.0964 52.575C22.2011 52.0278 22.4256 51.9252 22.8088 51.791C23.1832 51.6598 23.3747 51.2587 23.6176 50.9451C23.9902 50.464 24.7805 50.2668 25.1432 50.4114Z" fill="#FFFBE3"/>
<path d="M33.9024 55.4237L25.1432 50.4114C24.7805 50.2668 23.9902 50.464 23.6176 50.9451C23.3747 51.2587 23.1832 51.6598 22.8088 51.791C22.4256 51.9252 22.2011 52.0278 22.0964 52.575C21.7 54.6467 26.7361 60.7027 29.3037 63.4718" stroke="#CEAE71"/>
<path d="M85.1962 57.4343C85.5656 57.107 91.1846 54.1123 93.948 52.6559L99.7034 59.8217C97.2551 60.8203 91.4161 62.6166 87.6465 61.8128C86.5115 61.5708 85.9353 61.1409 85.721 60.6531C85.4988 60.1475 85.285 59.4299 85.1396 58.8971C84.9788 58.3078 85.0246 57.5864 85.1962 57.4343Z" fill="#FFFBE3"/>
<path d="M93.948 52.6559C91.1846 54.1123 85.5656 57.107 85.1962 57.4343C85.0246 57.5864 84.9788 58.3078 85.1396 58.8971C85.285 59.4299 85.4988 60.1475 85.721 60.6531C85.9353 61.1409 86.5115 61.5708 87.6465 61.8128C91.4161 62.6166 97.2551 60.8203 99.7034 59.8217" stroke="#CEAE71"/>
<path d="M20.5669 53.6994C22.2153 51.5668 25.2605 53.3628 23.654 55.9467C26.279 58.0029 27.4314 63.0209 21.3999 71.3504C21.943 72.6562 22.2841 75.5011 19.3028 76.4349L12.9254 72.2272C12.1282 73.47 10.4795 75.8251 8.41332 74.5402C6.34713 73.2554 7.69142 70.608 8.85296 69.5402L3.99704 66.3363C2.61993 64.8669 2.3287 61.7531 6.55632 61.4424C9.04247 57.6 15.3252 50.6722 20.5669 53.6994Z" fill="#DDE1AC"/>
<path d="M8.85296 69.5402L3.99704 66.3363C2.61993 64.8669 2.3287 61.7531 6.55632 61.4424C9.04247 57.6 15.3252 50.6722 20.5669 53.6994C22.2153 51.5668 25.2605 53.3628 23.654 55.9467C26.279 58.0029 27.4314 63.0209 21.3999 71.3504C21.943 72.6562 22.2841 75.5011 19.3028 76.4349L12.9254 72.2272M8.85296 69.5402C7.69142 70.608 6.34713 73.2554 8.41332 74.5402C10.4795 75.8251 12.1282 73.47 12.9254 72.2272M8.85296 69.5402L12.9254 72.2272" stroke="black" stroke-width="0.5"/>
</svg>
