<svg width="377" height="546" viewBox="0 0 377 546" fill="none" xmlns="http://www.w3.org/2000/svg">
<path d="M36.8637 216.374C27.545 193.636 10.2495 138.097 60.3466 95.604C68.1741 82.7442 98.3667 48.1914 118.495 37.4563C92.7755 45.8429 93.8938 10.6193 109.549 2.79066C129.677 -7.27479 152.601 11.7052 133.591 30.7467C149.247 26.0874 207.395 19.5643 255.088 32.3932C256.597 12.8548 273.537 4.0213 288.076 11.7059C301.886 19.0051 311.391 39.6926 280.08 45.8429C296.295 58.7026 312.509 74.9165 329.283 100.636C349.411 117.41 367.626 170.526 352.207 210.783C380.71 325.259 406.751 499.478 296.463 518.268C295.389 518.451 294.271 518.625 293.109 518.79C293.295 527.189 297.023 544.546 278.013 545.665C259.003 546.783 263.032 529.823 263.369 521.063C217.849 522.638 151.517 519.04 111.395 516.004C111.768 524.586 110.021 539.019 101.331 541.192C96.858 542.31 92.9442 542.31 87.353 541.192C81.7618 540.074 78.8526 529.338 80.6426 513.236C44.2997 508.763 -52.5947 453.44 36.8637 216.374Z" fill="#FFFBE3"/>
<path d="M189.503 128.995V152.478M189.503 152.478L182.234 155.833M189.503 152.478L196.771 155.833" stroke="#1C140A" stroke-linecap="round"/>
<path d="M179.217 117.917H200.088L188.957 121.913L179.217 117.917Z" fill="#3C1814" stroke="black"/>
<path d="M137.437 107.351C138.401 107.72 139.232 108.696 139.65 110.081C140.065 111.456 140.055 113.187 139.376 114.963C138.053 118.424 133.995 119.887 130.76 118.65C129.285 118.087 128.693 116.813 128.719 115.245C128.745 113.657 129.42 111.852 130.397 110.481C131.613 108.775 132.871 107.803 134.061 107.352C135.244 106.902 136.395 106.953 137.437 107.351Z" fill="#3C1814" stroke="#100000"/>
<path d="M241.943 107.351C240.979 107.72 240.148 108.696 239.73 110.081C239.315 111.456 239.325 113.187 240.004 114.963C241.326 118.424 245.385 119.887 248.62 118.65C250.095 118.087 250.687 116.813 250.661 115.245C250.635 113.657 249.96 111.852 248.982 110.481C247.767 108.775 246.509 107.803 245.319 107.352C244.136 106.902 242.985 106.953 241.943 107.351Z" fill="#3C1814" stroke="#100000"/>
<circle cx="140.898" cy="116.857" r="32.488" stroke="black"/>
<path d="M173.327 113.504C178.173 109.217 191.107 103.216 204.079 113.504" stroke="black"/>
<path d="M108.471 116.299H102.88" stroke="black" stroke-linecap="round"/>
<path d="M268.377 116.299H274.527" stroke="black" stroke-linecap="round"/>
<circle cx="235.948" cy="116.857" r="32.488" stroke="black"/>
<path d="M117.722 23.1272C120.818 25.0286 122.291 28.6309 121.598 29.5511C121.079 30.2387 117.343 28.9582 114.434 27.8634C112.257 26.2227 108.517 20.9781 108.97 20.3768C109.423 19.7743 115.244 21.606 117.722 23.1272Z" fill="#E9E1AF"/>
<path d="M279.174 34.2648C276.528 35.4061 272.216 36.4394 270.561 34.582C269.42 33.3022 272.646 30.5366 275.191 29.7139C277.248 29.0489 284.308 28.1223 284.702 28.8079C285.491 30.1791 281.29 33.3517 279.174 34.2648Z" fill="#E9E1AF"/>
</svg>
