<svg width="295" height="226" viewBox="0 0 295 226" fill="none" xmlns="http://www.w3.org/2000/svg">
<ellipse cx="147.225" cy="196.436" rx="147.225" ry="29.3622" fill="#E8EBBD"/>
<path d="M144.226 78.7278C140.961 70.7615 138.82 51.107 156.372 36.2192C159.114 31.7137 171.312 19.7621 173.537 18.2784C175.763 16.7948 184.665 11.6021 189.857 10.8603C195.05 10.1185 206.461 9.78454 223.171 14.2793L231.927 18.9915C237.608 23.497 248.833 41.7042 251.771 54.6331C263.72 101.647 290.558 175.499 237.667 184.51C237.291 184.574 236.899 184.635 236.492 184.692C236.557 187.635 237.863 193.716 231.203 194.108C224.542 194.5 225.954 188.558 226.072 185.489C210.124 186.041 186.884 184.78 172.827 183.717C172.957 186.723 172.345 191.78 169.301 192.541C167.734 192.933 166.362 192.933 164.403 192.541C162.444 192.149 161.425 188.388 162.052 182.747C149.319 181.179 112.884 161.786 144.226 78.7278Z" fill="#FFFBE3"/>
<path d="M162.052 182.747C149.319 181.179 112.884 161.786 144.226 78.7278C140.961 70.7615 138.82 51.107 156.372 36.2192C159.114 31.7137 171.312 19.7621 173.537 18.2784C175.763 16.7948 184.665 11.6021 189.857 10.8603C195.05 10.1185 206.461 9.78454 223.171 14.2793L231.927 18.9915C237.608 23.497 248.833 41.7042 251.771 54.6331C263.72 101.647 290.558 175.499 237.667 184.51C237.291 184.574 236.899 184.635 236.492 184.692M162.052 182.747C163.987 182.985 167.826 183.338 172.827 183.717M162.052 182.747C161.425 188.388 162.444 192.149 164.403 192.541C166.362 192.933 167.734 192.933 169.301 192.541C172.345 191.78 172.957 186.723 172.827 183.717M172.827 183.717C186.884 184.78 210.124 186.041 226.072 185.489M226.072 185.489C225.954 188.558 224.542 194.5 231.203 194.108C237.863 193.716 236.557 187.635 236.492 184.692M226.072 185.489C230.098 185.35 233.66 185.095 236.492 184.692" stroke="#CEAE71"/>
<path d="M169.568 47.4727L172.5 49.5L176.5 48.5M172.37 52.3187L171.5 60.5M171.5 60.5L168.843 61.3995M171.5 60.5L173.908 61.938" stroke="#1C140A" stroke-width="2" stroke-linecap="round"/>
<path d="M129.239 99.1122L143.896 80.1446L161.326 93.5955C153.972 98.7305 138.077 108.598 133.333 106.988C131.733 106.445 131.902 105.68 131.535 104.177C131.44 103.792 131.092 103.542 130.728 103.386C129.099 102.686 128.685 100.085 129.239 99.1122Z" fill="#FFFBE3"/>
<path d="M143.896 80.1446L129.239 99.1122C128.685 100.085 129.099 102.686 130.728 103.386C131.092 103.542 131.44 103.792 131.535 104.178C131.902 105.68 131.733 106.445 133.333 106.988C138.077 108.598 153.972 98.7305 161.326 93.5955" stroke="#CEAE71"/>
<path d="M186.889 3.44173C184.523 5.85595 185.535 10.8774 188.014 12.2564C188.811 12.4777 190.968 12.7453 193.223 12.0449C195.478 11.3445 195.881 5.6457 195.414 3.71987C194.706 0.799286 189.593 0.683254 186.889 3.44173Z" fill="#FFFBE3" stroke="#FFFBE3" stroke-linecap="round"/>
<path d="M189.227 1.65311L189.372 2.13144L189.227 1.65311ZM194.537 10.1937C194.458 10.4582 194.608 10.7369 194.872 10.8163C195.137 10.8956 195.416 10.7455 195.495 10.481L195.016 10.3373L194.537 10.1937ZM186.745 11.9916L187.089 11.6286C185.859 10.464 184.865 8.53029 184.955 6.6918C184.999 5.78592 185.305 4.9002 185.982 4.11948C186.662 3.33492 187.74 2.62824 189.372 2.13144L189.227 1.65311L189.081 1.17477C187.316 1.71206 186.058 2.50456 185.226 3.46464C184.391 4.42857 184.01 5.53295 183.956 6.64301C183.849 8.83637 185.011 11.0378 186.401 12.3545L186.745 11.9916ZM189.227 1.65311L189.372 2.13144C191.222 1.56857 192.487 1.59187 193.337 1.9182C194.164 2.2356 194.676 2.8706 194.966 3.73477C195.261 4.61419 195.314 5.70968 195.207 6.86406C195.101 8.01232 194.84 9.1834 194.537 10.1937L195.016 10.3373L195.495 10.481C195.812 9.42352 196.089 8.18571 196.203 6.95609C196.316 5.73261 196.271 4.48126 195.914 3.41707C195.553 2.33762 194.861 1.43222 193.695 0.98463C192.552 0.545963 191.036 0.579662 189.081 1.17477L189.227 1.65311Z" fill="#CEAE71"/>
<path d="M188.172 11.2368C187.925 11.2368 187.727 10.9401 188.914 9.75317C190.1 8.56644 193.92 8.26962 195.404 8.26953L194.848 10.495C193.661 10.495 189.903 10.9895 188.172 11.2368Z" fill="#F5E9C7"/>
<path d="M235.261 21.935C234.334 24.4219 230.661 25.4128 228.94 25.5974L233.628 20.6181L235.261 21.935Z" fill="#F5E8C8"/>
<path d="M216.557 12.7505C215.44 13.4671 215.969 16.5439 216.373 17.9927L217.294 12.6714L216.557 12.7505Z" fill="#F5E8C8"/>
<path d="M230.269 8.4343C217.865 2.29147 215.992 14.4422 216.704 21.0804C218.918 25.0211 224.985 26.4094 227.743 26.611C233.819 22.975 238.936 12.7266 230.269 8.4343Z" fill="#FFFBE3"/>
<path d="M216.525 21.0902C216.111 14.0605 218.323 1.41012 229.758 8.2717C240.095 14.4739 233.203 22.8834 227.689 26.0539" stroke="#CEAE71"/>
<path d="M228.175 16.7294C228.387 18.6999 225.761 20.0734 223.758 20.7391C223.188 20.9289 222.609 20.5229 222.565 19.923C222.426 18.0064 222.446 14.9624 224.171 14.1746C225.52 13.5583 227.859 13.779 228.175 16.7294Z" fill="#F5E8C8"/>
<path d="M188.906 46.9549C189.23 46.9864 189.457 47.2032 189.607 47.647C189.759 48.0964 189.781 48.6644 189.739 49.1029C189.696 49.5382 189.573 50.0061 189.339 50.3461C189.122 50.6603 188.812 50.8725 188.31 50.8589C187.782 50.8447 187.388 50.5227 187.153 50.0239C186.91 49.5116 186.879 48.8906 187.041 48.4484C187.235 47.9172 187.489 47.5211 187.79 47.2725C188.078 47.0349 188.435 46.9092 188.906 46.9549Z" fill="#3C1814" stroke="#100000"/>
<path d="M157.491 42.4016C157.724 42.3885 158.039 42.5149 158.327 42.8456C158.607 43.1688 158.826 43.6541 158.86 44.2505C158.922 45.3463 157.995 46.2628 156.941 46.3228C156.567 46.344 156.299 46.1456 156.117 45.7233C155.952 45.3377 155.898 44.8261 155.958 44.3516L155.99 44.1511C156.125 43.477 156.364 43.0499 156.623 42.7914C156.877 42.5376 157.176 42.4195 157.491 42.4016Z" fill="#3C1814" stroke="#100000"/>
<circle cx="154.507" cy="40.4837" r="11.0576" transform="rotate(6.58021 154.507 40.4837)" stroke="black"/>
<path d="M165.949 40.4244C168.817 39.2671 176.841 38.1097 183.658 42.4674" stroke="black"/>
<path d="M143.241 38.9862L141.295 38.7617" stroke="black" stroke-linecap="round"/>
<path d="M205.904 46.2148L208.045 46.4618" stroke="black" stroke-linecap="round"/>
<circle cx="194.175" cy="47.0325" r="11.0576" transform="rotate(6.58021 194.175 47.0325)" stroke="black"/>
<path d="M59.357 64.4804C48.4416 64.8986 47.4098 71.6633 48.2583 74.9935C48.2587 105.004 47.2709 161.797 48.963 167.703C50.6552 173.609 56.5977 175.92 59.3575 176.338C92.386 182.591 160.622 196.511 167.903 196.813C175.184 197.114 176.413 191.102 176.118 188.059C178.242 174.481 181.964 130.231 183.707 108.495C185.049 91.7704 170.795 87.1627 165.008 87.6349L111.653 86.6722C109.173 86.9782 102.89 81.6039 101.192 74.6536C99.4927 67.7034 93.5466 64.841 90.7859 64.2787L59.357 64.4804Z" fill="#DBD7AF" stroke="#969855" stroke-linecap="round"/>
<path d="M59.5961 69.7004C49.2772 70.097 48.3019 76.5179 49.1041 79.6787C51.4935 106.781 56.8104 174.326 58.4103 179.932C60.0101 185.538 65.628 187.732 68.237 188.128C99.1452 189.782 161.068 195.336 167.951 195.622C174.834 195.908 175.626 191.017 175.347 188.128C174.223 175.471 181.176 132.589 179.483 112.448C177.789 92.3065 169.144 94.2515 163.354 93.838L108.327 91.697C105.983 91.9873 100.751 85.9544 99.1452 79.3575C97.539 72.7605 91.9177 70.0435 89.3079 69.5097L59.5961 69.7004Z" fill="#CBC993"/>
<path d="M46.1226 83.6289C35.2049 83.9597 34.1296 90.3836 34.9567 93.5542C37.3001 120.711 42.4003 176.43 44.0545 182.054C45.7087 187.679 51.6363 189.912 54.3933 190.325C88.9939 192.669 160.015 197.438 167.293 197.769C174.572 198.1 175.84 192.393 175.564 189.498C174.461 176.816 171.842 146.406 170.188 126.225C168.534 106.043 156.541 101.825 150.751 102.239L97.4028 100.998C94.9214 101.274 89.5453 100.171 87.8911 93.5542C86.2368 86.9373 80.3093 84.1803 77.5522 83.6289H46.1226Z" fill="#EFEBD1" stroke="#969855" stroke-linecap="round"/>
<path d="M46.3287 88.5918C36.0075 88.9058 34.991 95.0031 35.7729 98.0125C37.9882 123.788 42.8098 176.675 44.3736 182.013C45.9375 187.352 51.5412 189.471 54.1475 189.864C86.8576 192.088 156.473 196.628 163.354 196.942C170.235 197.257 171.059 192.612 170.798 189.864C169.755 177.826 167.279 148.963 165.716 129.807C164.152 110.652 152.814 106.648 147.341 107.041L94.807 105.078C92.4613 105.34 87.3789 104.293 85.815 98.0125C84.2512 91.732 78.6475 89.1152 76.0411 88.5918H46.3287Z" fill="#E1DDB2"/>
<g filter="url(#filter0_d_720_2017)">
<path d="M148.765 87.4581C152.083 82.2435 155.244 78.9113 157.45 78.3599C171.924 75.0515 170.863 84.8907 180.195 96.5564C188.466 106.895 200.873 122.197 189.707 128.4C184.595 131.24 183.504 128.4 175.646 136.257C162.31 149.594 159.104 128.813 159.104 125.918C159.104 123.024 158.277 108.963 153.314 106.895C144.61 103.267 140.494 99.0376 142.976 95.3156C145.457 91.5936 145.871 92.0076 148.765 87.4581Z" fill="#ECE8C6" stroke="#A6AE5E"/>
<path d="M158.496 93.4781C158.409 93.4885 158.322 93.5118 158.248 93.5593C158.175 93.6067 158.122 93.6738 158.099 93.7521C158.076 93.8304 158.084 93.9156 158.12 93.9952C158.156 94.0748 158.217 94.1418 158.285 94.1977C158.285 94.1977 158.285 94.1977 158.285 94.1977C158.439 94.3299 158.601 94.4611 158.756 94.5852C159.384 95.0846 160.017 95.5017 160.688 95.8333C163.021 97.0152 165.299 98.4041 166.834 100.539C166.942 100.693 167.045 100.85 167.143 101.013C167.19 101.093 167.263 101.159 167.352 101.193C167.441 101.227 167.538 101.227 167.623 101.191C167.709 101.155 167.778 101.087 167.816 101C167.854 100.913 167.858 100.815 167.835 100.724C167.835 100.724 167.835 100.724 167.835 100.724C167.781 100.522 167.717 100.322 167.645 100.124C166.591 97.321 164.133 95.3214 161.576 94.0412C160.835 93.6748 160.01 93.4669 159.148 93.4508C158.934 93.4476 158.711 93.4543 158.496 93.4781Z" fill="#D5D39E"/>
<path d="M179.118 125.231C179.094 125.316 179.055 125.399 178.993 125.463C178.932 125.527 178.854 125.566 178.77 125.573C178.687 125.58 178.603 125.554 178.532 125.501C178.46 125.448 178.408 125.373 178.37 125.293C178.37 125.293 178.37 125.293 178.37 125.293C178.271 125.104 178.16 124.903 178.051 124.719C177.607 123.957 177.182 123.2 176.847 122.388C175.639 119.561 174.254 116.731 172.586 114.082C172.466 113.895 172.339 113.706 172.215 113.524C172.161 113.447 172.132 113.352 172.14 113.257C172.148 113.162 172.19 113.074 172.26 113.011C172.33 112.949 172.422 112.917 172.518 112.92C172.614 112.924 172.704 112.963 172.775 113.026C172.775 113.026 172.775 113.026 172.775 113.026C172.948 113.178 173.122 113.341 173.289 113.503C175.62 115.819 177.401 118.594 178.694 121.62C179.054 122.493 179.268 123.442 179.224 124.463C179.209 124.709 179.181 124.98 179.118 125.231Z" fill="#D5D39E"/>
<path d="M173.927 96.7134C173.912 96.8006 173.882 96.8872 173.827 96.9572C173.773 97.0272 173.699 97.0747 173.617 97.0903C173.535 97.1059 173.448 97.0887 173.372 97.0435C173.296 96.9983 173.236 96.9287 173.19 96.853C173.19 96.853 173.19 96.853 173.19 96.853C173.072 96.6754 172.94 96.4868 172.813 96.3149C172.292 95.603 171.791 94.8949 171.374 94.1216C169.879 91.4356 168.208 88.7645 166.274 86.3027C166.135 86.1295 165.99 85.9542 165.847 85.7865C165.786 85.7149 165.747 85.624 165.745 85.5284C165.742 85.4327 165.776 85.3408 165.839 85.2716C165.902 85.2025 165.99 85.1607 166.086 85.1542C166.181 85.1476 166.275 85.1777 166.352 85.2322C166.352 85.2322 166.352 85.2322 166.352 85.2322C166.54 85.366 166.731 85.5099 166.913 85.6536C169.472 87.716 171.531 90.2906 173.131 93.1659C173.58 93.9976 173.89 94.9191 173.953 95.9387C173.964 96.1856 173.964 96.4576 173.927 96.7134Z" fill="#D5D39E"/>
</g>
<path d="M149.202 77.4421L146.029 73.1016" stroke="#D2B775" stroke-linecap="round"/>
<path d="M153.59 73.4641C153.693 73.7149 153.986 73.8302 154.246 73.7217C154.505 73.6133 154.633 73.322 154.53 73.0712L154.06 73.2676L153.59 73.4641ZM152.618 68.3934C152.516 68.1426 152.222 68.0272 151.963 68.1357C151.703 68.2442 151.576 68.5355 151.679 68.7863L152.148 68.5898L152.618 68.3934ZM154.06 73.2676L154.53 73.0712L152.618 68.3934L152.148 68.5898L151.679 68.7863L153.59 73.4641L154.06 73.2676Z" fill="#D2B775"/>
<path d="M102.964 107.475C102.749 104.838 104.254 102.944 105.034 102.327L133.129 100.864C131.864 101.631 132.002 103.999 132.229 105.087L136.133 152.914C136.263 154.5 134.578 155.595 133.181 154.832L122.372 148.928C121.68 148.55 120.831 148.614 120.203 149.091L110.077 156.789C108.819 157.745 107.002 156.934 106.873 155.359L102.964 107.475Z" fill="#969855" fill-opacity="0.2"/>
<path d="M101.734 105.832C101.734 103.185 103.389 101.421 104.216 100.869L132.337 101.696C131.014 102.358 130.959 104.729 131.097 105.832V153.818C131.097 155.41 129.328 156.364 127.998 155.49L117.705 148.726C117.046 148.293 116.195 148.287 115.53 148.712L104.811 155.56C103.48 156.411 101.734 155.454 101.734 153.875V105.832Z" fill="#FFFBE3" stroke="#E8EBBD" stroke-linecap="round"/>
<path d="M115.752 120.499C115.928 120.103 116.49 120.103 116.666 120.499L118.14 123.815C118.358 124.306 118.821 124.643 119.354 124.698L122.964 125.074C123.395 125.119 123.569 125.654 123.247 125.943L120.548 128.37C120.149 128.729 119.971 129.274 120.083 129.799L120.841 133.348C120.931 133.771 120.477 134.102 120.102 133.885L116.96 132.067C116.495 131.799 115.923 131.799 115.458 132.067L112.316 133.885C111.941 134.102 111.487 133.771 111.577 133.348L112.335 129.799C112.447 129.274 112.269 128.729 111.87 128.37L109.171 125.943C108.849 125.654 109.023 125.119 109.454 125.074L113.063 124.698C113.597 124.643 114.06 124.306 114.278 123.815L115.752 120.499Z" fill="#FEE280" stroke="#F5C74F"/>
<path d="M175.665 101.615C176.596 102.441 190.766 109.992 197.734 113.665L212.248 95.595C206.074 93.0768 191.35 88.5472 181.844 90.574C177.866 91.4223 176.61 93.1858 176.743 94.9844C176.784 95.5352 176.495 96.1171 176.157 96.5534C175.075 97.9471 175.079 101.096 175.665 101.615Z" fill="#FFFBE3"/>
<path d="M197.734 113.665C190.766 109.992 176.596 102.441 175.665 101.615C175.079 101.096 175.075 97.9471 176.157 96.5534C176.495 96.1171 176.784 95.5352 176.743 94.9845C176.61 93.1858 177.866 91.4223 181.844 90.574C191.35 88.5472 206.074 93.0768 212.248 95.595" stroke="#CEAE71"/>
<path d="M127.054 27.8008C127.223 27.0095 128.352 27.0095 128.521 27.8008L129.144 30.7266C129.491 32.3567 130.476 33.7805 131.878 34.6816L134.2 36.1748C134.66 36.47 134.66 37.1413 134.2 37.4365L131.878 38.9297C130.476 39.8309 129.491 41.2545 129.144 42.8848L128.521 45.8096C128.352 46.6012 127.222 46.6012 127.054 45.8096L126.431 42.8848C126.083 41.2545 125.099 39.8309 123.696 38.9297L121.374 37.4365C120.915 37.1413 120.915 36.47 121.374 36.1748L123.696 34.6816C125.098 33.7805 126.083 32.3567 126.431 30.7266L127.054 27.8008Z" fill="#F0C559" stroke="#E1E1B2" stroke-width="0.5"/>
<path d="M113.508 48.8643C113.653 48.1803 114.629 48.1802 114.773 48.8643C115.083 50.3302 115.965 51.6123 117.223 52.4268L117.671 52.7168C118.127 53.0124 118.127 53.681 117.671 53.9766L117.223 54.2666C115.965 55.081 115.083 56.3632 114.773 57.8291C114.629 58.5132 113.653 58.5132 113.508 57.8291C113.198 56.3632 112.316 55.081 111.059 54.2666L110.609 53.9766C110.153 53.681 110.153 53.0124 110.609 52.7168L111.059 52.4268C112.316 51.6123 113.198 50.3301 113.508 48.8643Z" fill="#F0C559" stroke="#E1E1B2" stroke-width="0.5"/>
<path d="M91.1923 28.2865C91.1923 20.8421 79.6122 22.0835 80.4399 28.2865C72.1688 28.2865 75.0631 39.8667 80.4399 39.0383C81.6805 46.07 90.3651 44.0022 91.1923 37.7977C100.29 36.9718 95.7408 26.633 91.1923 28.2865Z" fill="#E6DDCC" stroke="#CFC4AC" stroke-linecap="round"/>
<path d="M42.3391 46.9178C42.3391 38.8942 29.3077 40.1345 31.5867 46.9178C22.2763 50.8876 25.1721 59.5722 31.5867 57.6696C31.5868 63.7077 43.3684 63.7077 42.3391 56.4289C49.1582 55.8502 49.1582 45.5114 42.3391 46.9178Z" fill="#E6DDCC" stroke="#CBBFA8" stroke-linecap="round"/>
<circle cx="26.8813" cy="68.2348" r="1.24066" fill="#DFD5C3"/>
<circle cx="86.4321" cy="51.6938" r="1.24066" fill="#DFD5C3"/>
<circle cx="64.1" cy="38.4594" r="1.24066" fill="#DFD5C3"/>
<defs>
<filter id="filter0_d_720_2017" x="141.762" y="77.2109" width="52.8906" height="69.9727" filterUnits="userSpaceOnUse" color-interpolation-filters="sRGB">
<feFlood flood-opacity="0" result="BackgroundImageFix"/>
<feColorMatrix in="SourceAlpha" type="matrix" values="0 0 0 0 0 0 0 0 0 0 0 0 0 0 0 0 0 0 127 0" result="hardAlpha"/>
<feOffset dy="6"/>
<feComposite in2="hardAlpha" operator="out"/>
<feColorMatrix type="matrix" values="0 0 0 0 0.611765 0 0 0 0 0.615686 0 0 0 0 0.360784 0 0 0 0.2 0"/>
<feBlend mode="normal" in2="BackgroundImageFix" result="effect1_dropShadow_720_2017"/>
<feBlend mode="normal" in="SourceGraphic" in2="effect1_dropShadow_720_2017" result="shape"/>
</filter>
</defs>
</svg>
