<svg width="112" height="136" viewBox="0 0 112 136" fill="none" xmlns="http://www.w3.org/2000/svg">
<path d="M27.2427 57.2432C25.0421 51.8738 23.5985 38.6262 35.4289 28.5916C37.2773 25.5547 43.4433 17.5343 48.1966 14.9992C43.5754 16.9797 42.9152 10.2459 46.6122 8.39723C49.8247 6.79079 54.5343 10.3779 51.7616 13.4148C55.4586 12.3145 69.1902 10.774 80.4528 13.8036C80.8093 9.18961 84.8095 7.10358 88.243 8.91829C91.5042 10.642 93.7488 15.5273 86.3548 16.9797C90.1838 20.0165 97.7495 32.2885 99.73 41.0029C107.784 72.6913 125.873 122.469 90.2235 128.542C89.97 128.585 89.7058 128.627 89.4315 128.666C89.4755 130.649 90.3557 134.748 85.8665 135.012C81.3773 135.276 82.3288 131.271 82.4084 129.202C71.659 129.574 55.9947 128.725 46.52 128.008C46.608 130.034 46.1954 133.443 44.1434 133.956C43.0871 134.22 42.1628 134.22 40.8425 133.956C39.5221 133.692 38.8351 131.157 39.2578 127.354C30.6755 126.298 6.11718 113.226 27.2427 57.2432Z" fill="#FFFBE3"/>
<path d="M45.1406 36.0234L47.7204 37.3046L50.2829 35.7522M47.7829 38.4913L48.075 44.0291M48.075 44.0291L46.4026 44.9106M48.075 44.0291L49.8308 44.7298" stroke="#1C140A" stroke-linecap="round"/>
<path d="M35.3652 35.8163C35.4538 35.7896 35.6289 35.7998 35.8413 35.9511C36.0456 36.0966 36.2452 36.35 36.3517 36.7026C36.5364 37.3145 36.1359 37.9775 35.5301 38.1604C35.3738 38.2076 35.2319 38.1677 35.0735 37.9557C34.9033 37.7278 34.7878 37.3718 34.7746 37.037C34.7574 36.5973 34.8427 36.314 34.9504 36.138C35.0547 35.9676 35.1978 35.867 35.3652 35.8163ZM61.6945 35.8362C61.822 35.8183 61.9518 35.865 62.1027 36.1047C62.2566 36.3491 62.3557 36.6931 62.3951 36.9735C62.4341 37.2508 62.424 37.5456 62.3381 37.7695C62.2633 37.9645 62.1345 38.1095 61.8636 38.1672C61.5914 38.2251 61.3401 38.1159 61.1344 37.8604C60.9191 37.5931 60.8161 37.2337 60.8468 36.9662C60.8884 36.6046 60.9867 36.3363 61.1214 36.1569C61.2458 35.9912 61.4204 35.8747 61.6945 35.8362Z" fill="#3C1814" stroke="#100000"/>
<circle cx="34.776" cy="36.331" r="7.54008" transform="rotate(-2.61419 34.776 36.331)" stroke="black" stroke-width="0.5"/>
<path d="M42.3844 35.0591C44.168 33.9803 49.382 32.346 54.3872 34.5113" stroke="black" stroke-width="0.5"/>
<path d="M27.1198 36.5492L25.8008 36.6094" stroke="black" stroke-width="0.5" stroke-linecap="round"/>
<path d="M69.5918 34.6094L71.0427 34.5431" stroke="black" stroke-width="0.5" stroke-linecap="round"/>
<circle cx="61.8756" cy="36.4169" r="7.54008" transform="rotate(-2.61419 61.8756 36.4169)" stroke="black" stroke-width="0.5"/>
<path d="M22.8122 76.5061L30.8657 70.4244L25.2844 63.0238C23.0884 66.0959 18.8602 72.7412 19.5159 74.7459C19.689 75.2754 19.9247 75.3488 20.3219 75.4334C20.7099 75.516 20.9505 75.8897 21.2312 76.17C21.6618 76.6 22.4708 76.6954 22.8122 76.5061Z" fill="#FFFBE3"/>
<path d="M30.8657 70.4244L22.8122 76.5061C22.4708 76.6954 21.6618 76.6 21.2312 76.17C20.9505 75.8897 20.7099 75.516 20.3219 75.4334C19.9247 75.3488 19.689 75.2754 19.5159 74.7459C18.8602 72.7412 23.0884 66.0959 25.2844 63.0238" stroke="#1C140A" stroke-width="0.5"/>
<g filter="url(#filter0_d_380_1050)">
<path d="M22.3792 64.8626C21.5613 61.8246 23.7188 58.7952 26.8572 58.575L73.6298 55.2927C76.044 55.1233 78.233 56.7072 78.8269 59.0533L86.3211 88.6552C87.0898 91.6916 84.9094 94.6791 81.7832 94.8728L35.3764 97.7475C33.0046 97.8945 30.857 96.3516 30.2392 94.057L22.3792 64.8626Z" fill="#FAF7ED"/>
</g>
<path d="M30.4195 68.7307C30.0983 67.5182 30.9594 66.3127 32.2105 66.2235L47.6913 65.1196C48.6607 65.0504 49.5394 65.6881 49.7743 66.631L52.2206 76.4503C52.5225 77.6622 51.6521 78.8514 50.4056 78.9298L35.0437 79.8969C34.0913 79.9568 33.2292 79.3355 32.9848 78.413L30.4195 68.7307Z" fill="#F2E7CC"/>
<rect x="53.8008" y="64.3457" width="20" height="3" rx="1.5" transform="rotate(-3.85691 53.8008 64.3457)" fill="#F1E7CC"/>
<rect x="59.4336" y="71.0332" width="15.3573" height="3" rx="1.5" transform="rotate(-3.85691 59.4336 71.0332)" fill="#F1E7CC"/>
<rect x="34.8008" y="84.0332" width="15.3573" height="3" rx="1.5" transform="rotate(-3.85691 34.8008 84.0332)" fill="#F1E7CC"/>
<rect x="35.8008" y="91.0332" width="37.0113" height="3" rx="1.5" transform="rotate(-3.85691 35.8008 91.0332)" fill="#F1E7CC"/>
<path d="M74.9111 65.9343C75.2804 65.607 80.8995 62.6123 83.6629 61.1559L89.4183 68.3217C86.9699 69.3203 81.1309 71.1166 77.3614 70.3128C76.2263 70.0708 75.6501 69.6409 75.4358 69.1531C75.2137 68.6475 74.9999 67.9299 74.8545 67.3971C74.6936 66.8078 74.7394 66.0864 74.9111 65.9343Z" fill="#FFFBE3"/>
<path d="M83.6629 61.1559C80.8995 62.6123 75.2804 65.607 74.9111 65.9343C74.7394 66.0864 74.6936 66.8078 74.8545 67.3971C74.9999 67.9299 75.2137 68.6475 75.4358 69.1531C75.6501 69.6409 76.2263 70.0708 77.3614 70.3128C81.1309 71.1166 86.9699 69.3203 89.4183 68.3217" stroke="#1C140A" stroke-width="0.5"/>
<path d="M12.0986 10.9226C13.9096 12.1878 16.2938 15.657 15.6612 16.5625C15.0286 17.468 10.8054 16.4524 8.99445 15.1872C7.1835 13.922 6.79498 11.614 7.42759 10.7085C8.0602 9.803 10.2877 9.65741 12.0986 10.9226Z" fill="#DDE1AC"/>
<path d="M21.2073 6.67613C21.8012 9.36164 21.7449 14.6515 20.3806 14.9112C19.0163 15.171 15.9701 10.6284 15.3762 7.94293C14.7822 5.25742 16.4033 2.87076 17.7676 2.611C19.1319 2.35124 20.6134 3.99062 21.2073 6.67613Z" fill="#DDE1AC"/>
<path d="M10.1593 20.6083C12.6569 20.0238 16.8185 20.4253 16.5984 21.5042C16.3783 22.5832 11.4905 25.2024 8.99278 25.7868C6.49509 26.3713 4.97315 25.1744 5.19325 24.0955C5.41335 23.0165 7.66156 21.1927 10.1593 20.6083Z" fill="#DDE1AC"/>
<defs>
<filter id="filter0_d_380_1050" x="22.2051" y="55.0812" width="67.4715" height="44.8766" filterUnits="userSpaceOnUse" color-interpolation-filters="sRGB">
<feFlood flood-opacity="0" result="BackgroundImageFix"/>
<feColorMatrix in="SourceAlpha" type="matrix" values="0 0 0 0 0 0 0 0 0 0 0 0 0 0 0 0 0 0 127 0" result="hardAlpha"/>
<feOffset dx="2" dy="1"/>
<feGaussianBlur stdDeviation="0.6"/>
<feComposite in2="hardAlpha" operator="out"/>
<feColorMatrix type="matrix" values="0 0 0 0 0.932692 0 0 0 0 0.878883 0 0 0 0 0.753328 0 0 0 1 0"/>
<feBlend mode="normal" in2="BackgroundImageFix" result="effect1_dropShadow_380_1050"/>
<feBlend mode="normal" in="SourceGraphic" in2="effect1_dropShadow_380_1050" result="shape"/>
</filter>
</defs>
</svg>
