<svg width="113" height="136" viewBox="0 0 113 136" fill="none" xmlns="http://www.w3.org/2000/svg">
<path d="M27.2427 57.2422C25.0421 51.8728 23.5985 38.6253 35.4289 28.5906C37.2773 25.5538 43.4433 17.5333 48.1966 14.9982C43.5754 16.9788 42.9152 10.245 46.6122 8.39625C49.8247 6.78981 54.5343 10.3769 51.7616 13.4138C55.4586 12.3135 69.1902 10.7731 80.4528 13.8026C80.8093 9.18863 84.8095 7.10261 88.243 8.91731C91.5042 10.641 93.7488 15.5263 86.3548 16.9787C90.1838 20.0155 97.7495 32.2876 99.73 41.0019C107.784 72.6904 125.873 122.468 90.2235 128.541C89.97 128.584 89.7058 128.626 89.4315 128.665C89.4755 130.648 90.3557 134.747 85.8665 135.011C81.3773 135.275 82.3288 131.27 82.4084 129.201C71.659 129.573 55.9947 128.724 46.52 128.007C46.608 130.033 46.1954 133.442 44.1434 133.955C43.0871 134.219 42.1628 134.219 40.8425 133.955C39.5221 133.691 38.8351 131.156 39.2578 127.353C30.6755 126.297 6.11718 113.225 27.2427 57.2422Z" fill="#FFFBE3"/>
<path d="M39.2578 127.353C30.6755 126.297 6.11718 113.225 27.2427 57.2422C25.0421 51.8728 23.5985 38.6253 35.4289 28.5906C37.2773 25.5538 43.4433 17.5333 48.1966 14.9982C43.5754 16.9788 42.9152 10.245 46.6122 8.39625C49.8247 6.78981 54.5343 10.3769 51.7616 13.4138C55.4586 12.3135 69.1902 10.7731 80.4528 13.8026C80.8093 9.18863 84.8095 7.10261 88.243 8.91731C91.5042 10.641 93.7488 15.5263 86.3548 16.9787C90.1838 20.0155 97.7495 32.2876 99.73 41.0019C107.784 72.6904 125.873 122.468 90.2235 128.541C89.97 128.584 89.7058 128.626 89.4315 128.665M39.2578 127.353C40.5617 127.513 43.1491 127.752 46.52 128.007M39.2578 127.353C38.8351 131.156 39.5221 133.691 40.8425 133.955C42.1628 134.219 43.0871 134.219 44.1434 133.955C46.1954 133.442 46.608 130.033 46.52 128.007M46.52 128.007C55.9947 128.724 71.659 129.573 82.4084 129.201M82.4084 129.201C82.3288 131.27 81.3773 135.275 85.8665 135.011C90.3557 134.747 89.4755 130.648 89.4315 128.665M82.4084 129.201C85.1223 129.108 87.5229 128.936 89.4315 128.665" stroke="#D1B379"/>
<path d="M45 40.2705L47.5797 41.5517L50.1422 39.9993M47.6423 42.7383L47.9344 48.2761M47.9344 48.2761L46.262 49.1576M47.9344 48.2761L49.6902 48.9768" stroke="#1C140A" stroke-linecap="round"/>
<path d="M33.9284 38.0369C34.0535 37.9992 34.2721 38.0208 34.5236 38.2C34.7668 38.3734 35.001 38.6718 35.1254 39.0836C35.3458 39.8141 34.8669 40.597 34.1517 40.813C33.9408 40.8765 33.754 40.8133 33.5642 40.5594C33.3624 40.2893 33.2287 39.8726 33.2133 39.4834C33.1934 38.9767 33.2921 38.6422 33.4223 38.4294C33.5492 38.2224 33.7245 38.0984 33.9284 38.0369ZM63.7109 38.0576C63.891 38.0323 64.0592 38.1098 64.2369 38.3919C64.4174 38.6787 64.5317 39.077 64.5771 39.3995C64.622 39.719 64.6113 40.0652 64.5085 40.3328C64.4169 40.5714 64.2545 40.7529 63.9236 40.8232C63.5858 40.8947 63.2791 40.7554 63.0355 40.4532C62.7823 40.1387 62.6595 39.7142 62.6965 39.3925C62.7444 38.9769 62.8578 38.661 63.0194 38.4458C63.1708 38.2442 63.3841 38.1035 63.7109 38.0576Z" fill="#3C1814" stroke="#100000"/>
<circle cx="32.1348" cy="39.3087" r="8.53164" transform="rotate(-5.49396 32.1348 39.3087)" stroke="black" stroke-width="0.5"/>
<path d="M40.6288 37.4463C42.5757 36.1307 48.3535 33.9954 54.1112 36.1497" stroke="black" stroke-width="0.5"/>
<path d="M23.5265 39.9874L22.0449 40.1299" stroke="black" stroke-width="0.5" stroke-linecap="round"/>
<path d="M71.2344 35.3984L72.8641 35.2417" stroke="black" stroke-width="0.5" stroke-linecap="round"/>
<circle cx="62.6504" cy="37.8703" r="8.53164" transform="rotate(-5.49396 62.6504 37.8703)" stroke="black" stroke-width="0.5"/>
<path d="M22.8103 76.5051L30.8638 70.4235L25.2825 63.0228C23.0864 66.0949 18.8582 72.7402 19.5139 74.7449C19.6871 75.2744 19.9228 75.3478 20.3199 75.4324C20.7079 75.5151 20.9486 75.8887 21.2293 76.169C21.6599 76.599 22.4688 76.6945 22.8103 76.5051Z" fill="#FFFBE3"/>
<path d="M30.8638 70.4235L22.8103 76.5051C22.4688 76.6945 21.6599 76.599 21.2293 76.169C20.9486 75.8887 20.7079 75.5151 20.3199 75.4324C19.9228 75.3478 19.6871 75.2744 19.5139 74.7449C18.8582 72.7402 23.0864 66.0949 25.2825 63.0228" stroke="#D1B379"/>
<g filter="url(#filter0_d_720_2245)">
<path d="M22.3792 64.8626C21.5613 61.8246 23.7188 58.7952 26.8572 58.575L73.6298 55.2927C76.044 55.1233 78.233 56.7072 78.8269 59.0533L86.3211 88.6552C87.0898 91.6916 84.9094 94.6791 81.7832 94.8728L35.3764 97.7475C33.0046 97.8945 30.857 96.3516 30.2392 94.057L22.3792 64.8626Z" fill="#FAF7ED"/>
</g>
<path d="M30.4195 68.7307C30.0983 67.5182 30.9594 66.3127 32.2105 66.2235L47.6913 65.1196C48.6607 65.0504 49.5394 65.6881 49.7743 66.631L52.2206 76.4503C52.5225 77.6622 51.6521 78.8514 50.4056 78.9298L35.0437 79.8969C34.0913 79.9568 33.2292 79.3355 32.9848 78.413L30.4195 68.7307Z" fill="#F2E7CC"/>
<rect x="53.8008" y="64.3457" width="20" height="3" rx="1.5" transform="rotate(-3.85691 53.8008 64.3457)" fill="#F1E7CC"/>
<rect x="59.4336" y="71.0332" width="15.3573" height="3" rx="1.5" transform="rotate(-3.85691 59.4336 71.0332)" fill="#F1E7CC"/>
<rect x="34.8008" y="84.0332" width="15.3573" height="3" rx="1.5" transform="rotate(-3.85691 34.8008 84.0332)" fill="#F1E7CC"/>
<rect x="35.8008" y="91.0332" width="37.0113" height="3" rx="1.5" transform="rotate(-3.85691 35.8008 91.0332)" fill="#F1E7CC"/>
<path d="M74.9111 65.9343C75.2804 65.607 80.8995 62.6123 83.6629 61.1559L89.4183 68.3217C86.9699 69.3203 81.1309 71.1166 77.3614 70.3128C76.2263 70.0708 75.6501 69.6409 75.4358 69.1531C75.2137 68.6475 74.9999 67.9299 74.8545 67.3971C74.6936 66.8078 74.7394 66.0864 74.9111 65.9343Z" fill="#FFFBE3"/>
<path d="M83.6629 61.1559C80.8995 62.6123 75.2804 65.607 74.9111 65.9343C74.7394 66.0864 74.6936 66.8078 74.8545 67.3971C74.9999 67.9299 75.2137 68.6475 75.4358 69.1531C75.6501 69.6409 76.2263 70.0708 77.3614 70.3128C81.1309 71.1166 86.9699 69.3203 89.4183 68.3217" stroke="#D1B379"/>
<path d="M12.0986 10.9216C13.9096 12.1869 16.2938 15.6561 15.6612 16.5615C15.0286 17.467 10.8054 16.4514 8.99445 15.1862C7.1835 13.921 6.79498 11.613 7.42759 10.7075C8.0602 9.80203 10.2877 9.65643 12.0986 10.9216Z" fill="#DDE1AC"/>
<path d="M21.2073 6.67515C21.8012 9.36067 21.7449 14.6505 20.3806 14.9102C19.0163 15.17 15.9701 10.6275 15.3762 7.94196C14.7822 5.25644 16.4033 2.86978 17.7676 2.61002C19.1319 2.35026 20.6134 3.98964 21.2073 6.67515Z" fill="#DDE1AC"/>
<path d="M10.1593 20.6073C12.6569 20.0229 16.8185 20.4243 16.5984 21.5033C16.3783 22.5822 11.4905 25.2014 8.99278 25.7858C6.49509 26.3703 4.97315 25.1735 5.19325 24.0945C5.41335 23.0155 7.66156 21.1918 10.1593 20.6073Z" fill="#DDE1AC"/>
<defs>
<filter id="filter0_d_720_2245" x="22.2051" y="55.0803" width="67.4715" height="44.8766" filterUnits="userSpaceOnUse" color-interpolation-filters="sRGB">
<feFlood flood-opacity="0" result="BackgroundImageFix"/>
<feColorMatrix in="SourceAlpha" type="matrix" values="0 0 0 0 0 0 0 0 0 0 0 0 0 0 0 0 0 0 127 0" result="hardAlpha"/>
<feOffset dx="2" dy="1"/>
<feGaussianBlur stdDeviation="0.6"/>
<feComposite in2="hardAlpha" operator="out"/>
<feColorMatrix type="matrix" values="0 0 0 0 0.932692 0 0 0 0 0.878883 0 0 0 0 0.753328 0 0 0 1 0"/>
<feBlend mode="normal" in2="BackgroundImageFix" result="effect1_dropShadow_720_2245"/>
<feBlend mode="normal" in="SourceGraphic" in2="effect1_dropShadow_720_2245" result="shape"/>
</filter>
</defs>
</svg>
