<svg width="23" height="23" viewBox="0 0 23 23" fill="none" xmlns="http://www.w3.org/2000/svg">
<circle cx="11.5" cy="11.5" r="11.5" fill="#F2EFDC"/>
<path d="M9.00962 17.0002H15.2144C15.7667 17.0002 16.2144 16.5525 16.2144 16.0002V10.4323C16.2144 10.1776 16.1172 9.93248 15.9426 9.74698L13.6534 7.31464C13.4644 7.11385 13.2009 7 12.9252 7H9.08617C8.53762 7 8.09147 7.4419 8.08622 7.99043L8.00966 15.9906C8.00434 16.5466 8.45359 17.0002 9.00962 17.0002Z" fill="#98A84E"/>
<path d="M12.7871 10.9295H13.9372C14.3826 10.9295 14.6057 10.3909 14.2907 10.0759L13.1407 8.92582C12.8257 8.61084 12.2871 8.83392 12.2871 9.27937V10.4295C12.2871 10.7056 12.511 10.9295 12.7871 10.9295Z" fill="#FDFAF2"/>
<rect x="9.78516" y="12.7129" width="4.64294" height="1.07145" rx="0.535723" fill="#FDFAF2"/>
</svg>
