<svg width="253" height="387" viewBox="0 0 253 387" fill="none" xmlns="http://www.w3.org/2000/svg">
<g filter="url(#filter0_d_0_1)">
<path d="M18.0007 14V114.666C18.0007 122.398 24.2687 128.666 32.0007 128.666H71.4833C74.5536 128.666 77.2656 130.667 78.1716 133.601L80.8966 142.424C81.3342 143.841 83.1071 144.305 84.1833 143.286L97.5846 130.585C98.8849 129.353 100.608 128.666 102.4 128.666H234C241.732 128.666 248 122.398 248 114.666V14C248 6.26802 241.732 0 234 0H32.0007C24.2687 0 18.0007 6.26801 18.0007 14Z" fill="#FFFCF4"/>
<path d="M83.8391 142.923C83.0319 143.687 81.7024 143.339 81.3742 142.276L78.6496 133.453C77.6789 130.31 74.7731 128.166 71.4836 128.166H32.0002C24.5446 128.166 18.5002 122.122 18.5002 114.666V14C18.5002 6.5443 24.5446 0.500239 32.0002 0.5H234C241.456 0.500002 247.5 6.54416 247.5 14V114.666C247.5 122.122 241.456 128.166 234 128.166H102.4C100.48 128.166 98.6336 128.902 97.2404 130.223L83.8391 142.923Z" stroke="#A5AE66"/>
</g>
<path d="M54.8662 62.144H50.5962C50.6895 63.4413 50.8295 64.5427 51.0162 65.448C51.9495 64.636 52.7522 63.7027 53.4242 62.648L54.2362 63.18C53.3869 64.4587 52.4022 65.5647 51.2822 66.498C51.4595 67.03 51.6835 67.506 51.9542 67.926C52.2622 68.3833 52.5749 68.612 52.8922 68.612C53.0509 68.612 53.1769 68.5747 53.2702 68.5C53.3635 68.4253 53.4569 68.276 53.5502 68.052C53.6995 67.6787 53.8302 67.1513 53.9422 66.47L54.8662 67.03C54.7822 67.3847 54.6935 67.6973 54.6002 67.968C54.5162 68.2293 54.4042 68.5187 54.2642 68.836C54.1429 69.1253 53.9562 69.3493 53.7042 69.508C53.4615 69.6667 53.1909 69.746 52.8922 69.746C52.1922 69.746 51.5809 69.3073 51.0582 68.43C50.8435 68.066 50.6475 67.6367 50.4702 67.142C49.5929 67.7953 48.6082 68.388 47.5162 68.92L46.9002 67.982C48.1602 67.4127 49.2522 66.7873 50.1762 66.106C49.9055 65.0513 49.7002 63.7307 49.5602 62.144H46.6062V64.328C47.3902 64.1693 48.1135 64.0013 48.7762 63.824L48.8462 64.342L48.8882 64.776C48.2069 64.9533 47.4462 65.1353 46.6062 65.322V68.024C46.6062 68.4067 46.5502 68.7007 46.4382 68.906C46.3355 69.1113 46.1535 69.2653 45.8922 69.368C45.6309 69.48 45.2435 69.564 44.7302 69.62L44.0022 69.704L43.6942 68.682L44.6042 68.598C44.9029 68.57 45.1175 68.528 45.2482 68.472C45.3789 68.416 45.4629 68.3367 45.5002 68.234C45.5375 68.122 45.5562 67.9493 45.5562 67.716V65.546C44.2962 65.798 43.4562 65.952 43.0362 66.008L42.7702 65.028C43.4702 64.9253 44.3989 64.762 45.5562 64.538V62.144H42.7562V61.192H45.5562V59.316C44.7629 59.4467 44.0115 59.54 43.3022 59.596L43.2322 58.686C44.1002 58.602 45.0149 58.476 45.9762 58.308C46.9375 58.14 47.7169 57.9627 48.3142 57.776L48.4822 58.7C47.9502 58.8587 47.3249 59.0033 46.6062 59.134V61.192H49.4902L49.4342 60.086L49.3222 57.272L50.3442 57.3C50.3442 57.776 50.3815 58.686 50.4562 60.03L50.5262 61.192H54.8662V62.144ZM53.2702 60.702C53.0462 60.3567 52.7055 59.9413 52.2482 59.456C51.7909 58.9707 51.3989 58.602 51.0722 58.35L51.7162 57.692C52.0149 57.9253 52.3975 58.2753 52.8642 58.742C53.3402 59.1993 53.7089 59.5867 53.9702 59.904L53.2702 60.702ZM61.2415 59.918C60.7561 61.01 60.1728 62.018 59.4915 62.942V69.844H58.4555V64.244C57.9608 64.804 57.3961 65.3733 56.7615 65.952L56.0335 65.126C57.7321 63.726 59.0855 61.99 60.0935 59.918H56.5795V58.91H60.5555C60.8168 58.294 61.0361 57.6733 61.2135 57.048L62.2215 57.3C62.0628 57.8413 61.8808 58.378 61.6755 58.91H68.4795V59.918H61.2415ZM64.6995 64.286V67.912H68.6055V68.892H59.9395V67.912H63.6495V64.286H60.5275V63.278H63.6495V60.926L64.6995 60.968V63.278H67.9615V64.286H64.6995ZM73.8187 66.736C75.368 65.9613 76.5907 65.126 77.4867 64.23C76.236 63.11 75.2747 62.3073 74.6027 61.822L75.2327 61.066C75.8954 61.5513 76.8707 62.3493 78.1587 63.46C78.868 62.5547 79.386 61.4673 79.7127 60.198H74.1127V59.218H77.5567C77.258 58.2287 77.0667 57.622 76.9827 57.398L77.9907 57.16C78.112 57.496 78.3267 58.182 78.6347 59.218H82.2887V60.198H80.7627C80.3334 61.7847 79.722 63.1007 78.9287 64.146C80.2167 65.3033 81.1687 66.204 81.7847 66.848L81.0987 67.758C80.3054 66.8993 79.3534 65.9567 78.2427 64.93C77.3187 65.91 76.04 66.8247 74.4067 67.674L73.8187 66.736ZM72.6007 60.898C72.4327 60.5247 72.162 60.0767 71.7887 59.554C71.4247 59.022 71.0887 58.5787 70.7807 58.224L71.5647 57.622C71.798 57.8833 72.0967 58.2707 72.4607 58.784C72.834 59.2973 73.1607 59.7687 73.4407 60.198L72.6007 60.898ZM78.9007 68.514C80.1794 68.514 81.444 68.4767 82.6947 68.402L82.4567 69.438C81.1314 69.4753 79.918 69.494 78.8167 69.494H78.1307C77.0387 69.4753 76.1894 69.424 75.5827 69.34C74.9854 69.2653 74.4394 69.1067 73.9447 68.864C73.45 68.6307 72.9507 68.2573 72.4467 67.744C72.204 68.0333 71.952 68.3227 71.6907 68.612C71.4294 68.9013 71.126 69.2233 70.7807 69.578L70.0387 68.794L72.0127 66.764V62.914H70.5007V61.92H73.0207V66.974C73.4687 67.4033 73.9027 67.7207 74.3227 67.926C74.7427 68.1313 75.214 68.276 75.7367 68.36C76.2687 68.4347 76.978 68.4813 77.8647 68.5L78.9007 68.514ZM90.722 66.666V68.416H96.434V69.354H84.002V68.416H89.672V66.666H85.206V65.7H89.672V64.146H85.388V57.93H94.922V64.146H90.722V65.7H95.216V66.666H90.722ZM89.672 60.59V58.868H86.382V60.59H89.672ZM90.722 60.59H93.872V58.868H90.722V60.59ZM86.382 61.486V63.208H89.672V61.486H86.382ZM90.722 61.486V63.208H93.872V61.486H90.722ZM104.517 64.132V65.266H108.591V67.73C108.591 68.1127 108.54 68.402 108.437 68.598C108.344 68.794 108.171 68.9387 107.919 69.032C107.667 69.1253 107.289 69.1953 106.785 69.242L106.085 69.312L105.777 68.36L106.575 68.304C106.865 68.2853 107.075 68.2573 107.205 68.22C107.345 68.1733 107.439 68.108 107.485 68.024C107.532 67.94 107.555 67.814 107.555 67.646V66.218H104.517V70.054H103.467V66.218H100.625V69.214H99.5752V65.546C99.1552 65.8073 98.7212 66.0547 98.2732 66.288L97.6572 65.518C98.4692 65.1353 99.0899 64.7807 99.5192 64.454C99.9485 64.118 100.266 63.7447 100.471 63.334H97.8812V62.466H100.737C100.784 62.1487 100.817 61.752 100.835 61.276H98.5392V60.436H100.835V59.358H98.2032V58.518H100.835V57.398L101.885 57.44V58.518H104.237V59.358H101.885V60.436H103.873V61.276H101.885C101.867 61.7427 101.834 62.1393 101.787 62.466H104.265V63.334H101.563C101.423 63.7167 101.223 64.062 100.961 64.37C100.709 64.678 100.383 64.9767 99.9812 65.266H103.467V64.09L104.517 64.132ZM109.655 62.508C109.655 62.816 109.595 63.0633 109.473 63.25C109.361 63.4273 109.156 63.5673 108.857 63.67C108.568 63.7727 108.153 63.8473 107.611 63.894L107.107 63.936L106.715 63.026L107.471 62.998C107.798 62.9793 108.041 62.9467 108.199 62.9C108.358 62.844 108.465 62.7693 108.521 62.676C108.577 62.5733 108.605 62.4333 108.605 62.256C108.605 62.0693 108.47 61.8547 108.199 61.612C107.938 61.36 107.532 61.0987 106.981 60.828C107.439 60.324 107.868 59.7267 108.269 59.036H105.819V64.496H104.825V58.126H109.305V59.036C108.895 59.7267 108.512 60.2773 108.157 60.688C109.156 61.2573 109.655 61.864 109.655 62.508ZM115.05 62.41C115.554 61.6913 116.03 60.87 116.478 59.946C116.926 59.0127 117.276 58.1213 117.528 57.272L118.592 57.412C118.434 57.916 118.219 58.4853 117.948 59.12H123.506V60.128L122.386 62.452L121.434 62.102L122.414 60.128H117.5C116.95 61.2573 116.418 62.2047 115.904 62.97L115.05 62.41ZM115.302 57.552C114.985 58.5693 114.621 59.54 114.21 60.464V69.802H113.216V62.41C112.871 63.0073 112.47 63.6233 112.012 64.258L111.27 63.6C111.849 62.7693 112.414 61.794 112.964 60.674C113.515 59.554 113.935 58.4573 114.224 57.384L115.302 57.552ZM119.012 61.248L120.034 61.276V68.22C120.034 68.5747 119.983 68.85 119.88 69.046C119.778 69.2513 119.596 69.4053 119.334 69.508C119.082 69.6107 118.718 69.676 118.242 69.704L117.542 69.76L117.178 68.71L118.018 68.654C118.308 68.6353 118.518 68.6027 118.648 68.556C118.788 68.5093 118.882 68.4347 118.928 68.332C118.984 68.22 119.012 68.0613 119.012 67.856V61.248ZM117.752 63.53C117.491 64.3793 117.155 65.252 116.744 66.148C116.343 67.0347 115.918 67.856 115.47 68.612L114.574 68.22C115.004 67.52 115.433 66.7173 115.862 65.812C116.292 64.8973 116.623 64.0527 116.856 63.278L117.752 63.53ZM121.868 63.278C122.223 63.8567 122.634 64.664 123.1 65.7C123.567 66.736 123.903 67.5807 124.108 68.234L123.24 68.766C123.035 68.0847 122.704 67.2167 122.246 66.162C121.789 65.098 121.388 64.272 121.042 63.684L121.868 63.278ZM136.644 66.288L137.554 66.75C137.488 67.0953 137.381 67.548 137.232 68.108C137.082 68.6867 136.891 69.102 136.658 69.354C136.424 69.6153 136.116 69.746 135.734 69.746C135.37 69.746 135.029 69.6293 134.712 69.396C134.404 69.172 134.086 68.794 133.76 68.262C133.47 67.758 133.232 67.2447 133.046 66.722C132.066 67.422 130.946 68.0567 129.686 68.626L129.182 67.702C130.544 67.114 131.73 66.4467 132.738 65.7C132.476 64.664 132.266 63.404 132.108 61.92L129.854 62.2L129.728 61.234L132.024 60.954L131.94 59.974L131.758 57.286H132.752C132.761 57.482 132.78 57.832 132.808 58.336C132.836 58.8307 132.878 59.414 132.934 60.086L132.99 60.828L137.624 60.268L137.736 61.206L133.088 61.794C133.228 63.0913 133.4 64.1647 133.606 65.014C134.586 64.202 135.44 63.2453 136.168 62.144L136.952 62.718C136.084 63.9873 135.066 65.1027 133.9 66.064C134.114 66.7173 134.376 67.2913 134.684 67.786C135.038 68.3367 135.388 68.612 135.734 68.612C135.902 68.612 136.032 68.542 136.126 68.402C136.228 68.262 136.331 67.982 136.434 67.562C136.555 66.9647 136.625 66.54 136.644 66.288ZM130.274 63.88C129.723 64.104 129.135 64.314 128.51 64.51V68.15C128.51 68.5607 128.468 68.8593 128.384 69.046C128.309 69.242 128.164 69.3773 127.95 69.452C127.744 69.536 127.413 69.5967 126.956 69.634L126.13 69.704L125.766 68.654L126.634 68.598C126.923 68.57 127.119 68.5373 127.222 68.5C127.334 68.472 127.408 68.4113 127.446 68.318C127.483 68.2153 127.502 68.0427 127.502 67.8V64.846C126.82 65.07 126.13 65.2753 125.43 65.462L125.122 64.482C125.747 64.3327 126.54 64.104 127.502 63.796V60.786H125.542V59.862H127.502V57.314L128.51 57.356V59.862H130.204V60.786H128.51V63.474C129.135 63.2687 129.7 63.068 130.204 62.872L130.246 63.474L130.274 63.88ZM135.86 60.366C135.664 60.086 135.328 59.7313 134.852 59.302C134.385 58.8727 133.993 58.5367 133.676 58.294L134.264 57.622C134.581 57.8647 134.978 58.1913 135.454 58.602C135.93 59.0127 136.266 59.33 136.462 59.554L135.86 60.366ZM139.855 58.21H150.537V59.26L145.987 62.606V67.856C145.987 68.2947 145.931 68.6213 145.819 68.836C145.707 69.06 145.516 69.2187 145.245 69.312C144.974 69.4053 144.564 69.4753 144.013 69.522L142.893 69.62L142.529 68.514L143.649 68.444C144.013 68.416 144.27 68.3787 144.419 68.332C144.578 68.2853 144.685 68.1967 144.741 68.066C144.806 67.9353 144.839 67.7253 144.839 67.436V62.046L148.675 59.26H139.855V58.21ZM152.922 63.628V62.494H165.298V63.628H152.922ZM166.871 63.726C167.17 63.6793 167.329 63.656 167.347 63.656L167.935 63.572V58.434L168.957 58.476V63.39C169.153 63.362 169.335 63.334 169.503 63.306C169.671 63.2687 169.825 63.2407 169.965 63.222L170.469 63.138V57.286L171.491 57.328V59.694H173.409V60.632H171.491V62.956L171.841 62.886C172.383 62.802 172.891 62.7087 173.367 62.606L173.395 63.138L173.451 63.67C172.574 63.8287 170.437 64.188 167.039 64.748L166.871 63.726ZM173.759 62.956V57.3L174.809 57.328V60.198C175.36 59.9647 175.953 59.6753 176.587 59.33C177.222 58.9753 177.726 58.6627 178.099 58.392L178.547 59.4C178.155 59.652 177.6 59.96 176.881 60.324C176.163 60.6787 175.472 61.0053 174.809 61.304V62.606C174.809 62.97 174.87 63.2127 174.991 63.334C175.122 63.4553 175.346 63.5253 175.663 63.544C175.803 63.5533 175.995 63.558 176.237 63.558C176.48 63.558 176.671 63.5533 176.811 63.544C177.129 63.5253 177.357 63.474 177.497 63.39C177.637 63.306 177.735 63.18 177.791 63.012C177.875 62.7507 177.941 62.396 177.987 61.948L178.939 62.284C178.874 62.8627 178.781 63.348 178.659 63.74C178.585 63.964 178.435 64.1367 178.211 64.258C177.987 64.37 177.628 64.4447 177.133 64.482C176.788 64.51 176.457 64.524 176.139 64.524C175.822 64.524 175.486 64.51 175.131 64.482C174.646 64.4447 174.296 64.3187 174.081 64.104C173.867 63.88 173.759 63.4973 173.759 62.956ZM177.259 66.652H168.537V65.63H177.259V66.652ZM178.897 69.186H166.927V68.192H178.897V69.186ZM186.267 67.884L185.539 68.878C185.184 68.4487 184.615 67.8747 183.831 67.156C183.513 67.5947 183.14 68.0333 182.711 68.472C182.281 68.9013 181.754 69.3633 181.129 69.858L180.331 69.088C180.984 68.584 181.521 68.1313 181.941 67.73C182.37 67.3193 182.739 66.8947 183.047 66.456C182.225 65.7653 181.605 65.2707 181.185 64.972C181.539 63.5347 181.819 62.144 182.025 60.8H180.597V59.75H182.179C182.281 59.0313 182.37 58.1867 182.445 57.216L183.453 57.3C183.359 58.2613 183.271 59.078 183.187 59.75H185.693V60.744C185.543 62.0413 185.371 63.11 185.175 63.95C184.988 64.79 184.731 65.532 184.405 66.176C185.17 66.82 185.791 67.3893 186.267 67.884ZM192.931 63.026V64.062H189.795V68.052C189.795 68.472 189.739 68.794 189.627 69.018C189.515 69.2513 189.319 69.4193 189.039 69.522C188.768 69.634 188.376 69.704 187.863 69.732L187.121 69.788L186.785 68.696L187.681 68.64C187.989 68.6213 188.213 68.584 188.353 68.528C188.502 68.472 188.6 68.3787 188.647 68.248C188.703 68.1173 188.731 67.9213 188.731 67.66V64.062H185.735V63.026H188.731V61.36L190.999 59.246H186.309V58.196H192.343V59.232L189.795 61.738V63.026H192.931ZM183.607 65.504C183.877 64.9347 184.101 64.2813 184.279 63.544C184.456 62.7973 184.615 61.8827 184.755 60.8H183.033C182.855 61.948 182.603 63.1847 182.277 64.51C182.687 64.79 183.131 65.1213 183.607 65.504ZM206.32 69.774C205.097 69.3167 204.01 68.836 203.058 68.332C202.106 67.8187 201.266 67.2493 200.538 66.624C199.829 67.2307 198.998 67.7953 198.046 68.318C197.094 68.8313 195.979 69.3353 194.7 69.83L194.112 68.752C195.372 68.3227 196.459 67.8747 197.374 67.408C198.298 66.9413 199.091 66.4373 199.754 65.896C199.035 65.168 198.424 64.3467 197.92 63.432C197.425 62.5173 197.019 61.4813 196.702 60.324H194.56V59.316H199.992C199.74 58.476 199.53 57.8367 199.362 57.398L200.454 57.16C200.51 57.3 200.594 57.5427 200.706 57.888C200.818 58.2333 200.911 58.5133 200.986 58.728C201.023 58.868 201.084 59.064 201.168 59.316H206.306V60.324H204.108C203.819 61.5187 203.445 62.5687 202.988 63.474C202.54 64.3793 201.975 65.1867 201.294 65.896C201.966 66.4373 202.755 66.932 203.66 67.38C204.565 67.828 205.62 68.2527 206.824 68.654L206.32 69.774ZM197.836 60.324C198.116 61.3507 198.475 62.2653 198.914 63.068C199.353 63.8613 199.885 64.5707 200.51 65.196C201.117 64.5707 201.616 63.866 202.008 63.082C202.4 62.2887 202.722 61.3693 202.974 60.324H197.836ZM220.451 60.702V61.5H207.963V60.702H211.911C211.762 60.114 211.631 59.6613 211.519 59.344H208.915V58.532H213.703C213.554 58.0467 213.405 57.65 213.255 57.342L214.305 57.16L214.417 57.482C214.548 57.8087 214.674 58.1587 214.795 58.532H219.513V59.344H216.993C216.872 59.82 216.741 60.2727 216.601 60.702H220.451ZM212.569 59.344L212.947 60.702H215.593C215.761 60.1793 215.887 59.7267 215.971 59.344H212.569ZM218.687 66.54H214.753V67.464H220.213V68.332H214.753V70.04H213.661V68.332H208.215V67.464H213.661V66.54H209.741V62.41H218.687V66.54ZM217.623 64.076V63.194H210.805V64.076H217.623ZM217.623 64.86H210.805V65.756H217.623V64.86Z" fill="black"/>
<ellipse cx="58.4248" cy="13.5375" rx="58.4248" ry="13.5375" transform="matrix(-1 0 0 1 124.875 331.225)" fill="#DDE1AC"/>
<path d="M120.09 234.671C123.226 227.02 125.283 208.142 108.425 193.843C105.791 189.515 97.0044 178.086 90.231 174.474C96.8162 177.296 97.757 167.7 92.4888 165.066C87.911 162.777 81.1998 167.889 85.1509 172.216C79.8827 170.648 60.3152 168.453 44.266 172.77C43.758 166.195 38.0577 163.223 33.1651 165.809C28.5179 168.265 25.3193 175.226 35.8557 177.296C30.3994 181.623 19.6184 199.111 16.7961 211.529C5.319 256.685 -20.4576 327.617 30.3429 336.272C30.7041 336.334 31.0806 336.392 31.4715 336.448C31.4088 339.274 30.1544 345.115 36.5515 345.491C42.9486 345.868 41.5928 340.161 41.4794 337.213C56.7972 337.743 79.1187 336.532 92.6201 335.51C92.4947 338.398 93.0827 343.255 96.0068 343.986C97.512 344.363 98.8291 344.363 100.711 343.986C102.592 343.61 103.571 339.998 102.969 334.579C115.199 333.074 150.194 314.447 120.09 234.671Z" fill="#FFFBE3"/>
<path d="M38.8102 172.384C39.8044 172.994 40.2772 174.151 40.0545 174.446C39.8882 174.667 38.6885 174.256 37.7546 173.904C37.0557 173.377 35.8552 171.694 36.0005 171.501C36.1461 171.307 38.0148 171.895 38.8102 172.384Z" fill="#E9E1AF"/>
<path d="M90.7653 172.398C89.9159 172.764 88.5315 173.096 88.0002 172.499C87.6341 172.089 88.6698 171.201 89.4866 170.937C90.1469 170.723 92.4137 170.426 92.5402 170.646C92.7932 171.086 91.4447 172.105 90.7653 172.398Z" fill="#E9E1AF"/>
<path d="M84.7746 199.55L81.1998 201.567L77.4368 199.55M81.1998 203.26V211.162M81.1998 211.162L83.6457 212.291M81.1998 211.162L78.7538 212.291" stroke="#1C140A" stroke-linecap="round"/>
<path d="M102.112 258.82L109.851 267.869C110.225 268.194 111.3 268.18 111.852 267.563C112.105 267.281 112.374 266.968 112.752 266.935C113.299 266.888 113.603 266.888 113.942 266.186C115.115 263.754 111.803 254.627 110 250.367M60.3829 250.915C63.8853 253.183 70.9986 257.838 71.433 258.306C71.6661 258.556 71.4717 259.718 70.9495 260.435C70.6242 260.881 70.2696 261.477 70.0237 261.972C69.6861 262.651 68.7586 263.193 66.8885 263.316C61.4028 263.677 53.6773 260.469 50.5002 258.821" stroke="#1C140A"/>
<path d="M101.804 200.518C101.608 200.608 101.401 200.851 101.307 201.256C101.215 201.653 101.247 202.159 101.485 202.677C101.921 203.623 103.108 203.98 104.02 203.561C104.337 203.415 104.474 203.135 104.438 202.701C104.401 202.247 104.166 201.717 103.842 201.321C103.426 200.811 103.034 200.56 102.703 200.458C102.377 200.359 102.076 200.393 101.804 200.518ZM60.8681 202.781C60.4769 203.007 60.1024 203.401 59.8559 203.743C59.6114 204.082 59.4059 204.495 59.3597 204.884C59.3171 205.242 59.4042 205.585 59.7697 205.889C60.152 206.207 60.6317 206.225 61.1132 206.017C61.6086 205.803 62.0218 205.379 62.1834 204.962C62.3793 204.458 62.445 204.015 62.3864 203.649C62.3303 203.301 62.1562 202.988 61.7915 202.725C61.5469 202.549 61.2543 202.558 60.8681 202.781Z" fill="#3C1814" stroke="#100000"/>
<circle cx="11.1008" cy="11.1008" r="10.8508" transform="matrix(-0.999975 0.00706469 0.00706469 0.999975 110.569 188.032)" stroke="black" stroke-width="0.5"/>
<path d="M88.6239 197.972C86.0049 196.571 78.4625 194.636 71.5027 198.093" stroke="black" stroke-width="0.5"/>
<path d="M110.457 198.946L112.338 198.933" stroke="black" stroke-width="0.5" stroke-linecap="round"/>
<path d="M49.8733 199.374L47.8037 199.389" stroke="black" stroke-width="0.5" stroke-linecap="round"/>
<circle cx="11.1008" cy="11.1008" r="10.8508" transform="matrix(-0.999975 0.00706469 0.00706469 0.999975 72.011 190.187)" stroke="black" stroke-width="0.5"/>
<g filter="url(#filter1_d_0_1)">
<path d="M112 268.5L178.5 373.5" stroke="#44423D" stroke-width="3" stroke-linecap="round"/>
</g>
<defs>
<filter id="filter0_d_0_1" x="13.0002" y="0" width="240" height="154.835" filterUnits="userSpaceOnUse" color-interpolation-filters="sRGB">
<feFlood flood-opacity="0" result="BackgroundImageFix"/>
<feColorMatrix in="SourceAlpha" type="matrix" values="0 0 0 0 0 0 0 0 0 0 0 0 0 0 0 0 0 0 127 0" result="hardAlpha"/>
<feOffset dy="6"/>
<feGaussianBlur stdDeviation="2.5"/>
<feComposite in2="hardAlpha" operator="out"/>
<feColorMatrix type="matrix" values="0 0 0 0 0.647059 0 0 0 0 0.682353 0 0 0 0 0.4 0 0 0 0.2 0"/>
<feBlend mode="normal" in2="BackgroundImageFix" result="effect1_dropShadow_0_1"/>
<feBlend mode="normal" in="SourceGraphic" in2="effect1_dropShadow_0_1" result="shape"/>
</filter>
<filter id="filter1_d_0_1" x="106.5" y="267" width="77.5" height="120" filterUnits="userSpaceOnUse" color-interpolation-filters="sRGB">
<feFlood flood-opacity="0" result="BackgroundImageFix"/>
<feColorMatrix in="SourceAlpha" type="matrix" values="0 0 0 0 0 0 0 0 0 0 0 0 0 0 0 0 0 0 127 0" result="hardAlpha"/>
<feOffset dy="8"/>
<feGaussianBlur stdDeviation="2"/>
<feComposite in2="hardAlpha" operator="out"/>
<feColorMatrix type="matrix" values="0 0 0 0 0.596078 0 0 0 0 0.639216 0 0 0 0 0.368627 0 0 0 0.43 0"/>
<feBlend mode="normal" in2="BackgroundImageFix" result="effect1_dropShadow_0_1"/>
<feBlend mode="normal" in="SourceGraphic" in2="effect1_dropShadow_0_1" result="shape"/>
</filter>
</defs>
</svg>
