<svg width="40" height="40" viewBox="0 0 40 40" fill="none" xmlns="http://www.w3.org/2000/svg">
  <path transform="translate(15.625625 15.6025535714) scale(0.078125)" d="M258.626-146.231c-48.304-48.118-117.759-53.496-202.634-53.496
    c-84.982,0-154.542,5.44-202.826,53.688c-48.277,48.228-53.174,117.676-53.174,202.561c0,84.899,4.897,154.368,53.194,202.613
    c48.281,48.255,117.833,53.139,202.806,53.139c84.974,0,154.514-4.884,202.795-53.139
    c48.294-48.254,53.205-117.714,53.205-202.613C311.992-28.472,307.028-97.995,258.626-146.231L258.626-146.231z" fill="#FCD34D"/>
  <path d="M20 11.8V28.2M11.8 20H28.2" stroke="white" stroke-width="3.4" stroke-linecap="round"/>
</svg>
