<svg width="69" height="36" viewBox="0 0 69 36" fill="none" xmlns="http://www.w3.org/2000/svg">
<g filter="url(#filter0_d_379_990)">
<path d="M33.6086 11.4876C33.2985 10.2271 34.2527 9.00977 35.5507 9.00977H58.0029C58.9234 9.00977 59.725 9.63808 59.945 10.532L63.3894 24.532C63.6995 25.7924 62.7454 27.0098 61.4473 27.0098H38.9952C38.0747 27.0098 37.273 26.3814 37.0531 25.4876L33.6086 11.4876Z" fill="#9DA362"/>
<path d="M33.5508 10.5098H56.0029C56.6932 10.5098 57.294 10.9811 57.459 11.6514L60.9043 25.6514C61.1368 26.5967 60.4208 27.5098 59.4473 27.5098H36.9951C36.3048 27.5097 35.704 27.0385 35.5391 26.3682L32.0938 12.3682C31.8612 11.4228 32.5773 10.5098 33.5508 10.5098Z" fill="#FEFAE8" stroke="#FAECC2"/>
<path d="M38.3679 9.2787C38.3679 8.51731 37.9912 7.51222 36.8653 7.51143C34.499 7.50977 34.5005 12.517 36.8671 12.2802" stroke="#8B9243" stroke-width="0.7" stroke-linecap="round"/>
<path d="M42.3259 9.28651C42.3259 8.52512 41.9492 7.52003 40.8233 7.51924C38.457 7.51758 38.4586 12.5248 40.8251 12.288" stroke="#8B9243" stroke-width="0.7" stroke-linecap="round"/>
<path d="M46.3259 9.28651C46.3259 8.52512 45.9492 7.52003 44.8233 7.51924C42.457 7.51758 42.4586 12.5248 44.8251 12.288" stroke="#8B9243" stroke-width="0.7" stroke-linecap="round"/>
<path d="M50.3259 9.28651C50.3259 8.52512 49.9492 7.52003 48.8233 7.51924C46.457 7.51758 46.4586 12.5248 48.8251 12.288" stroke="#8B9243" stroke-width="0.7" stroke-linecap="round"/>
<path d="M54.3259 9.28651C54.3259 8.52512 53.9492 7.52003 52.8233 7.51924C50.457 7.51758 50.4586 12.5248 52.8251 12.288" stroke="#8B9243" stroke-width="0.7" stroke-linecap="round"/>
<path d="M36.499 15.0098H40.999M42.499 15.0098H44.499M46.499 15.0098H50.499" stroke="#E5E6B9" stroke-linecap="round"/>
</g>
<g filter="url(#filter1_d_379_990)">
<path d="M10.4462 1.89443L10.499 2L12.499 1.5L12.3636 1.09384C12.1712 0.51652 11.512 0.24349 10.9677 0.515641L10.8935 0.552786C10.3995 0.799776 10.1992 1.40045 10.4462 1.89443Z" fill="#252419"/>
<path d="M10.499 3.06228C10.499 1.46228 12.1657 1.39561 12.999 1.56228L13.499 2.46229L22.499 19.5625L23.499 24.0625L19.999 21.5625L10.499 3.06228Z" fill="#BFC270"/>
<path d="M13.499 2.46229L12.999 1.56228C12.1657 1.39561 10.499 1.46228 10.499 3.06228L19.999 21.5625L23.499 24.0625L22.499 19.5625L13.499 2.46229ZM13.499 2.46229L14.999 2.5L17.499 7L16.999 8" stroke="#94975F" stroke-width="0.7"/>
<path d="M23.499 22L21.499 23L23.999 25L23.499 22Z" fill="#201E1A"/>
</g>
<g filter="url(#filter2_d_379_990)">
<path d="M17.2039 8.31023L7.14147 7.54119L6.42927 16.7831C10.1086 15.9329 17.6759 13.7481 18.5108 11.8111C18.7313 11.2995 18.6032 11.0886 18.3614 10.7624C18.1252 10.4437 18.1919 10.0043 18.1669 9.60834C18.1286 9.00105 17.5853 8.39417 17.2039 8.31023Z" fill="#FFFBE3"/>
<path d="M7.14147 7.54119L17.2039 8.31023C17.5853 8.39417 18.1286 9.00105 18.1669 9.60835C18.1919 10.0043 18.1252 10.4437 18.3614 10.7624C18.6032 11.0886 18.7313 11.2995 18.5108 11.8111C17.6759 13.7481 10.1086 15.9329 6.42927 16.7831" stroke="#1C140A" stroke-width="0.5"/>
</g>
<path d="M52.1103 9.93431C52.4796 9.60703 58.0987 6.61232 60.8621 5.15588L66.6175 12.3217C64.1692 13.3203 58.3302 15.1166 54.5606 14.3128C53.4256 14.0708 52.8494 13.6409 52.6351 13.1531C52.4129 12.6475 52.1991 11.9299 52.0537 11.3971C51.8929 10.8078 51.9386 10.0864 52.1103 9.93431Z" fill="#FFFBE3"/>
<path d="M60.8621 5.15588C58.0987 6.61232 52.4796 9.60703 52.1103 9.93431C51.9386 10.0864 51.8929 10.8078 52.0537 11.3971C52.1991 11.9299 52.4129 12.6475 52.6351 13.1531C52.8494 13.6409 53.4256 14.0708 54.5606 14.3128C58.3302 15.1166 64.1692 13.3203 66.6175 12.3217" stroke="#1C140A" stroke-width="0.5"/>
<defs>
<filter id="filter0_d_379_990" x="27.5498" y="7.16211" width="39.8984" height="28.8477" filterUnits="userSpaceOnUse" color-interpolation-filters="sRGB">
<feFlood flood-opacity="0" result="BackgroundImageFix"/>
<feColorMatrix in="SourceAlpha" type="matrix" values="0 0 0 0 0 0 0 0 0 0 0 0 0 0 0 0 0 0 127 0" result="hardAlpha"/>
<feOffset dy="4"/>
<feGaussianBlur stdDeviation="2"/>
<feComposite in2="hardAlpha" operator="out"/>
<feColorMatrix type="matrix" values="0 0 0 0 0.580392 0 0 0 0 0.592157 0 0 0 0 0.372549 0 0 0 0.25 0"/>
<feBlend mode="normal" in2="BackgroundImageFix" result="effect1_dropShadow_379_990"/>
<feBlend mode="normal" in="SourceGraphic" in2="effect1_dropShadow_379_990" result="shape"/>
</filter>
<filter id="filter1_d_379_990" x="8.14941" y="0.410156" width="17.8896" height="30.5898" filterUnits="userSpaceOnUse" color-interpolation-filters="sRGB">
<feFlood flood-opacity="0" result="BackgroundImageFix"/>
<feColorMatrix in="SourceAlpha" type="matrix" values="0 0 0 0 0 0 0 0 0 0 0 0 0 0 0 0 0 0 127 0" result="hardAlpha"/>
<feOffset dy="4"/>
<feGaussianBlur stdDeviation="1"/>
<feComposite in2="hardAlpha" operator="out"/>
<feColorMatrix type="matrix" values="0 0 0 0 0.647059 0 0 0 0 0.682353 0 0 0 0 0.4 0 0 0 0.4 0"/>
<feBlend mode="normal" in2="BackgroundImageFix" result="effect1_dropShadow_379_990"/>
<feBlend mode="normal" in="SourceGraphic" in2="effect1_dropShadow_379_990" result="shape"/>
</filter>
<filter id="filter2_d_379_990" x="4.37305" y="7.29102" width="16.501" height="15.7363" filterUnits="userSpaceOnUse" color-interpolation-filters="sRGB">
<feFlood flood-opacity="0" result="BackgroundImageFix"/>
<feColorMatrix in="SourceAlpha" type="matrix" values="0 0 0 0 0 0 0 0 0 0 0 0 0 0 0 0 0 0 127 0" result="hardAlpha"/>
<feOffset dy="4"/>
<feGaussianBlur stdDeviation="1"/>
<feComposite in2="hardAlpha" operator="out"/>
<feColorMatrix type="matrix" values="0 0 0 0 0.615686 0 0 0 0 0.639216 0 0 0 0 0.384314 0 0 0 0.2 0"/>
<feBlend mode="normal" in2="BackgroundImageFix" result="effect1_dropShadow_379_990"/>
<feBlend mode="normal" in="SourceGraphic" in2="effect1_dropShadow_379_990" result="shape"/>
</filter>
</defs>
</svg>
