<svg width="275" height="255" viewBox="0 0 275 255" fill="none" xmlns="http://www.w3.org/2000/svg">
<ellipse cx="150.195" cy="238.106" rx="83.6152" ry="12.3874" fill="#CACE89"/>
<path d="M83.7011 111.91C78.2816 126.62 74.996 148.315 89 153.5C83.5814 175.952 61.2489 240.43 110.574 243.076C112.606 243.185 116.6 243.693 121.819 244.088C136.49 245.198 160.745 246.514 177.39 245.938C181.592 245.793 185.309 245.527 188.265 245.107C188.689 245.046 189.096 244.966 189.491 244.916C250.437 237.105 236.96 198.622 221.475 149.072C225.346 135.911 207.671 75.0491 183.716 64.2101C195.165 61.9611 195.775 52.9138 188.265 49.5004C179.748 45.6297 175.877 54.1445 176.651 60.3387C167.361 54.1445 135.714 50.2742 115.585 63.439C123.226 56.6332 109.462 51.2007 104.746 54.1484C98.5521 58.0195 98.0037 75.8276 109.391 68.0842C95.55 77.4962 83.7011 105.716 83.7011 111.91Z" fill="#FFFBE3" stroke="#CEAE71"/>
<path d="M123 108C124.412 109.509 127.988 111.622 131 108" stroke="black" stroke-linecap="round"/>
<path d="M160.112 130.217C161.95 130.296 163.614 131.06 164.817 132.143C166.028 133.232 166.729 134.602 166.729 135.869C166.729 138.349 163.95 140.755 159.935 139.871C157.671 139.373 155.342 137.617 155.342 134.373C155.342 133.057 155.819 132.036 156.624 131.338C157.435 130.635 158.624 130.22 160.112 130.217Z" fill="#FED1C1" stroke="#F7C2AD"/>
<path d="M91.9984 128.95C90.3072 129.673 89.0204 130.976 88.2779 132.415C87.5308 133.861 87.3588 135.391 87.8065 136.576C88.6832 138.896 92.1333 140.165 95.5773 137.918C97.5188 136.652 99.0768 134.186 97.9301 131.152C97.465 129.921 96.6582 129.134 95.6578 128.766C94.6512 128.395 93.3915 128.427 91.9984 128.95Z" fill="#FED1C1" stroke="#F7C2AD"/>
<path d="M122 120.999L125.338 122.881L129.5 121M125.354 124.939L125.431 134.542M125.431 134.542L121.999 137.5M125.431 134.542L129.499 137.5" stroke="#1C140A" stroke-linecap="round"/>
<circle cx="103.659" cy="120.646" r="12.9999" transform="rotate(-0.0535117 103.659 120.646)" stroke="black" stroke-width="0.5"/>
<path d="M116.678 119.062C119.79 117.364 128.774 114.984 137.114 119.043" stroke="black" stroke-width="0.5"/>
<path d="M90.6266 120.433L88.3809 120.436" stroke="black" stroke-width="0.5" stroke-linecap="round"/>
<path d="M162.939 120.367L165.41 120.365" stroke="black" stroke-width="0.5" stroke-linecap="round"/>
<circle cx="149.696" cy="122.848" r="12.9999" transform="rotate(-0.0535117 149.696 122.848)" stroke="black" stroke-width="0.5"/>
<path d="M111.273 66.5137C108.56 66.6957 104.197 62.7972 105.128 61.5004C107.124 58.7207 109.89 62.9895 111.273 66.5137Z" fill="#F7E7D4"/>
<path d="M179.895 61.8478C178.802 60.2887 182.935 54.4662 185.312 56.3829C187.57 58.2045 181.406 62.2421 179.895 61.8478Z" fill="#F7E7D4"/>
<path d="M108.731 125.794C108.746 127.672 107.235 129.208 105.356 129.223C103.478 129.238 101.943 127.727 101.928 125.848C101.913 123.969 103.031 122.42 105.302 122.419C107 122.418 108.712 123.499 108.731 125.794Z" fill="#403320"/>
<path d="M152.83 126.401C152.845 128.28 151.335 129.815 149.456 129.83C147.577 129.845 146.042 128.334 146.027 126.456C146.012 124.577 147.131 123.028 149.402 123.027C151.1 123.026 152.812 124.106 152.83 126.401Z" fill="#403320"/>
<path d="M94.9467 214.965C87.9801 204.128 70.174 212.644 84.8819 238.965" stroke="#695946" stroke-linecap="round"/>
<path d="M101.549 238.967C100.311 240.825 96.4957 242.211 94.9473 242.469V214.192C100.522 219.147 104.646 231.999 104.646 240.516L101.549 238.967Z" fill="#F7EED2"/>
<ellipse cx="89.7878" cy="226.792" rx="9.82709" ry="16.8473" transform="rotate(-14.7299 89.7878 226.792)" fill="#FCF6E0"/>
<path d="M100.713 182.437C102.023 176.512 97.0253 160.956 97.0253 160.956L83.7242 148.032C74.7215 170.529 89.5783 187.046 94.25 187.521C95.8097 187.68 95.9646 186.982 96.8199 185.871C97.0599 185.559 97.4808 185.446 97.8246 185.642C99.2263 186.441 99.5506 187.693 100.713 182.437Z" fill="#FFFBE3"/>
<path d="M100.709 182.436L100.471 182.36L100.456 182.409L100.462 182.46L100.709 182.436ZM94.2464 187.521L94.2692 187.271V187.271L94.2464 187.521ZM97.8664 185.48L97.8673 185.731L97.8673 185.731L97.8664 185.48ZM96.8162 185.87L97.0137 186.025V186.025L96.8162 185.87ZM98.4979 169.5L98.2728 169.605C100.13 173.555 100.676 176.755 100.759 178.961C100.801 180.064 100.727 180.919 100.644 181.496C100.602 181.784 100.558 182.003 100.525 182.148C100.509 182.221 100.495 182.275 100.485 182.31C100.48 182.328 100.477 182.341 100.474 182.349C100.473 182.353 100.472 182.356 100.472 182.358C100.472 182.359 100.471 182.359 100.471 182.36C100.471 182.36 100.471 182.36 100.471 182.36C100.471 182.36 100.471 182.36 100.471 182.36C100.471 182.36 100.471 182.36 100.709 182.436C100.948 182.512 100.948 182.512 100.948 182.512C100.948 182.512 100.948 182.511 100.948 182.511C100.948 182.511 100.948 182.511 100.948 182.51C100.948 182.509 100.949 182.508 100.949 182.506C100.95 182.503 100.951 182.499 100.953 182.493C100.956 182.482 100.961 182.466 100.966 182.445C100.977 182.404 100.993 182.344 101.011 182.265C101.047 182.107 101.094 181.875 101.137 181.572C101.224 180.968 101.3 180.082 101.257 178.946C101.171 176.674 100.61 173.407 98.7229 169.394L98.4979 169.5ZM94.2464 187.521L94.2692 187.271C89.7653 186.813 84.7356 182.351 82.2426 170.45L81.9988 170.5L81.755 170.55C84.2627 182.521 89.3842 187.278 94.2235 187.77L94.2464 187.521ZM100.709 182.436L100.462 182.46C100.483 182.663 100.436 182.939 100.311 183.253C100.188 183.562 99.9961 183.889 99.7518 184.187C99.258 184.79 98.5834 185.233 97.8656 185.229L97.8664 185.48L97.8673 185.731C98.7912 185.736 99.5928 185.173 100.137 184.509C100.412 184.173 100.631 183.802 100.774 183.443C100.915 183.087 100.99 182.725 100.957 182.411L100.709 182.436ZM96.8162 185.87L96.6188 185.715C96.4027 185.996 96.224 186.26 96.0716 186.47C95.9143 186.686 95.7799 186.853 95.6324 186.98C95.3592 187.216 95.0062 187.346 94.2692 187.271L94.2464 187.521L94.2235 187.77C95.0462 187.854 95.5505 187.714 95.9585 187.363C96.1517 187.196 96.3138 186.99 96.4749 186.768C96.6408 186.54 96.8021 186.3 97.0137 186.025L96.8162 185.87ZM97.8664 185.48L97.8656 185.229C97.455 185.227 96.9331 185.307 96.6188 185.715L96.8162 185.87L97.0137 186.025C97.1794 185.81 97.4907 185.729 97.8673 185.731L97.8664 185.48Z" fill="#1C140A"/>
<path d="M154.661 181.46L169.025 165.421L186.825 161.74C182.412 185.466 161.434 191.324 157.323 189.207C155.954 188.502 156.19 187.834 156.07 186.446C156.036 186.051 155.726 185.754 155.394 185.537C154.046 184.654 154.03 182.264 154.661 181.46Z" fill="#FFFBE3"/>
<path d="M162.522 172.485C157.4 175.588 154.663 181.46 154.663 181.46C154.031 182.264 154.047 184.654 155.396 185.537C155.727 185.755 156.037 186.051 156.071 186.447C156.191 187.834 155.955 188.502 157.325 189.208C161.435 191.325 172.503 190.498 179.003 178" stroke="#1C140A" stroke-width="0.5"/>
<path d="M70.2626 86.5592C73.7381 90.9612 69.4885 93.4885 66.9293 94.2019C66.9223 95.2968 76.9967 100.025 74.1072 101.472C69.011 104.025 66.6975 102.047 63.6035 100.75C64.1282 104.221 59.368 107.844 55.3518 106.721C49.3404 105.04 49.2039 97.9217 51.0429 95.7435C50.499 95.1925 45.8109 91.9868 51.1056 85.8891C56.4003 79.7914 61.6955 85.2265 63.6806 88.7065C64.4268 86.1564 67.9752 83.6622 70.2626 86.5592Z" fill="white"/>
<path d="M252.272 108.652C249.17 112.469 252.523 114.314 254.587 114.76C254.532 115.661 245.988 120.114 248.283 121.145C252.33 122.964 254.342 121.207 256.957 119.967C256.333 122.854 260.045 125.573 263.408 124.425C268.443 122.707 268.951 116.838 267.56 115.147C268.038 114.663 272.07 111.763 268.056 107.036C264.042 102.309 259.388 107.078 257.563 110.054C257.091 107.996 254.313 106.139 252.272 108.652Z" fill="white"/>
<path d="M188.174 94.5696C188.057 94.5232 187.941 94.4768 187.825 94.4304C187.686 94.6661 187.567 94.9171 187.463 95.1724C187.054 96.1932 186.868 97.2908 186.876 98.3896C186.889 99.2748 186.98 100.172 187.288 101.054C187.559 101.89 188.317 102.993 189.501 102.942C190.75 102.989 191.727 101.854 191.987 100.858C192.306 99.8337 192.336 98.797 192.271 97.7846C192.253 97.516 192.225 97.2484 192.187 96.983C192.062 96.9943 191.938 97.0057 191.813 97.017C191.823 97.2753 191.823 97.5353 191.816 97.7944C191.77 99.6233 191.265 102.164 189.501 102.058C188.22 102.012 187.892 99.8987 187.876 98.3792C187.868 97.3694 187.91 96.3457 188.042 95.3291C188.077 95.0743 188.119 94.8191 188.174 94.5696Z" fill="#B8DCFF"/>
<path d="M101.176 93.5696C101.059 93.5232 100.943 93.4768 100.827 93.4304C100.701 93.6343 100.589 93.8478 100.492 94.07C100.107 94.9565 99.9485 95.9787 100.177 96.9855C100.384 98.2754 101.706 99.5898 103.126 99.4631C104.412 99.5131 105.398 98.3271 105.648 97.3114C105.959 96.2636 105.976 95.2094 105.894 94.1788C105.874 93.9456 105.847 93.7142 105.812 93.483C105.688 93.4943 105.563 93.5057 105.439 93.517C105.445 93.7423 105.445 93.9673 105.439 94.1925C105.391 96.0538 104.895 98.642 103.126 98.5369C102.097 98.5439 101.369 97.7887 101.151 96.7594C100.972 95.9725 100.963 95.1088 101.069 94.2324C101.096 94.0126 101.131 93.792 101.176 93.5696Z" fill="#B8DCFF"/>
<path d="M123.295 85.0779C123.408 85.026 123.522 84.974 123.636 84.9221C123.762 85.0982 123.871 85.288 123.966 85.484C124.342 86.2662 124.514 87.1308 124.498 87.9985C124.479 88.6902 124.39 89.3966 124.086 90.0882C123.825 90.7606 123.055 91.5071 122.18 91.4434C121.239 91.4776 120.315 90.7263 120.049 89.9114C119.738 89.101 119.713 88.2756 119.774 87.4797C119.792 87.2702 119.818 87.0618 119.853 86.8557C119.978 86.8686 120.102 86.8814 120.226 86.8943C120.22 87.0922 120.221 87.2916 120.23 87.4898C120.268 88.9458 120.836 90.7043 122.18 90.5566C123.128 90.5657 123.483 89.1446 123.498 87.9769C123.512 87.2156 123.488 86.4376 123.393 85.6602C123.368 85.4649 123.336 85.2699 123.295 85.0779Z" fill="#B8DCFF"/>
<path d="M136.837 78.0824C136.725 78.0275 136.612 77.9725 136.5 77.9176C136.345 78.1393 136.213 78.3772 136.099 78.6238C135.65 79.6107 135.457 80.6973 135.514 81.7879C135.563 82.5623 135.699 83.3546 136.099 84.1041C136.464 84.8525 137.369 85.5135 138.275 85.455C139.676 85.5152 140.578 84.0947 140.737 83.0401C140.965 81.9252 140.917 80.8264 140.796 79.7511C140.765 79.4921 140.729 79.2334 140.686 78.9793C140.562 78.9931 140.438 79.0069 140.314 79.0207C140.328 79.2727 140.337 79.5279 140.341 79.7819C140.366 81.7181 140.138 84.6208 138.275 84.545C137.081 84.5688 136.574 83.0589 136.512 81.7308C136.462 80.7704 136.504 79.783 136.671 78.8069C136.714 78.5624 136.767 78.3201 136.837 78.0824Z" fill="#B8DCFF"/>
<path d="M155.574 87.0713C155.459 87.0238 155.343 86.9762 155.228 86.9287C155.123 87.0736 155.032 87.23 154.953 87.3905C154.64 88.0318 154.494 88.737 154.501 89.4458C154.511 90.0164 154.572 90.5948 154.788 91.1785C154.971 91.727 155.539 92.4896 156.365 92.4426C157.211 92.4716 157.914 91.6939 158.075 91.0379C158.282 90.3629 158.284 89.6989 158.226 89.0538C158.209 88.883 158.187 88.7132 158.157 88.5451C158.032 88.5567 157.908 88.5683 157.784 88.5799C157.785 88.7408 157.78 88.9027 157.771 89.0637C157.718 90.2259 157.298 91.6886 156.365 91.5574C155.774 91.5783 155.497 90.3778 155.501 89.4335C155.495 88.8169 155.496 88.1881 155.531 87.551C155.541 87.3912 155.554 87.2303 155.574 87.0713Z" fill="#B8DCFF"/>
<path d="M173.709 82.0683C173.593 82.0228 173.477 81.9772 173.36 81.9317C173.235 82.1368 173.127 82.3558 173.034 82.5784C172.664 83.469 172.495 84.4287 172.5 85.3904C172.511 86.1666 172.588 86.9526 172.852 87.7327C173.084 88.4631 173.734 89.4837 174.82 89.4422C175.949 89.4798 176.792 88.4286 177.004 87.5591C177.27 86.6567 177.288 85.7532 177.225 84.8704C177.207 84.636 177.182 84.4024 177.147 84.1709C177.023 84.182 176.898 84.193 176.774 84.2041C176.78 84.4288 176.778 84.6549 176.77 84.8801C176.719 86.469 176.27 88.6643 174.82 88.5578C173.804 88.5297 173.507 86.7014 173.5 85.3815C173.495 84.5063 173.521 83.6187 173.614 82.7322C173.638 82.51 173.669 82.2869 173.709 82.0683Z" fill="#B8DCFF"/>
<path d="M180.574 117.071C180.459 117.024 180.343 116.976 180.228 116.929C180.123 117.074 180.032 117.23 179.953 117.39C179.64 118.032 179.494 118.737 179.501 119.446C179.511 120.016 179.572 120.595 179.788 121.179C179.971 121.727 180.539 122.49 181.365 122.443C182.211 122.472 182.914 121.694 183.075 121.038C183.282 120.363 183.284 119.699 183.226 119.054C183.209 118.883 183.187 118.713 183.157 118.545C183.032 118.557 182.908 118.568 182.784 118.58C182.785 118.741 182.78 118.903 182.771 119.064C182.718 120.226 182.298 121.689 181.365 121.557C180.774 121.578 180.497 120.378 180.501 119.433C180.495 118.817 180.496 118.188 180.531 117.551C180.541 117.391 180.554 117.23 180.574 117.071Z" fill="#B8DCFF"/>
<path d="M169.521 157.09C169.543 157.082 169.562 157.066 169.574 157.046C169.586 157.025 169.59 157.001 169.584 156.978C169.579 156.956 169.564 156.936 169.544 156.923C169.524 156.91 169.5 156.905 169.477 156.908C169.477 156.908 169.477 156.908 169.477 156.908C169.317 156.925 169.157 156.945 168.998 156.969C168.363 157.065 167.733 157.219 167.126 157.449C164.988 158.226 163.138 159.739 161.864 161.581C161.77 161.713 161.682 161.842 161.593 161.979C161.579 161.999 161.574 162.024 161.578 162.048C161.582 162.072 161.595 162.094 161.615 162.108C161.635 162.122 161.659 162.128 161.684 162.124C161.708 162.121 161.73 162.107 161.745 162.088C161.745 162.088 161.745 162.088 161.745 162.088C161.845 161.962 161.942 161.842 162.045 161.72C163.451 160.012 165.248 158.668 167.303 157.916C167.887 157.695 168.478 157.483 169.074 157.26C169.223 157.204 169.372 157.148 169.521 157.09Z" fill="#695946"/>
<path d="M103.084 160.678C103.07 160.659 103.061 160.636 103.062 160.612C103.062 160.588 103.072 160.566 103.088 160.549C103.104 160.533 103.127 160.523 103.151 160.523C103.174 160.522 103.198 160.53 103.216 160.544C103.216 160.544 103.216 160.544 103.216 160.544C103.344 160.642 103.47 160.742 103.594 160.844C104.089 161.255 104.549 161.712 104.95 162.222C106.38 163.992 107.182 166.242 107.322 168.478C107.334 168.64 107.342 168.796 107.349 168.958C107.35 168.983 107.342 169.007 107.326 169.025C107.31 169.044 107.287 169.056 107.263 169.058C107.239 169.06 107.214 169.052 107.196 169.036C107.177 169.021 107.165 168.998 107.162 168.974C107.162 168.974 107.162 168.974 107.162 168.974C107.142 168.814 107.12 168.661 107.096 168.503C106.773 166.314 105.929 164.235 104.557 162.531C104.171 162.04 103.774 161.553 103.38 161.054C103.281 160.929 103.182 160.804 103.084 160.678Z" fill="#695946"/>
<path d="M157.062 166.07C157.078 166.052 157.089 166.03 157.09 166.006C157.091 165.982 157.083 165.958 157.067 165.94C157.052 165.923 157.029 165.912 157.005 165.91C156.981 165.908 156.958 165.915 156.938 165.929V165.929C156.774 166.046 156.605 166.17 156.439 166.294C155.778 166.791 155.145 167.325 154.554 167.906C152.521 169.932 150.553 172.286 149.933 175.182C149.893 175.387 149.861 175.594 149.839 175.801C149.836 175.825 149.843 175.85 149.858 175.869C149.872 175.889 149.894 175.902 149.919 175.905C149.943 175.909 149.967 175.902 149.987 175.888C150.007 175.873 150.02 175.851 150.024 175.827C150.06 175.628 150.104 175.429 150.155 175.234C150.929 172.476 152.898 170.265 154.905 168.262C155.487 167.69 156.067 167.114 156.638 166.519C156.781 166.37 156.925 166.218 157.062 166.07Z" fill="#695946"/>
<path d="M109.115 174.801C109.11 174.778 109.113 174.753 109.125 174.732C109.136 174.711 109.155 174.695 109.178 174.688C109.2 174.681 109.225 174.683 109.247 174.693C109.268 174.704 109.285 174.723 109.294 174.745V174.745C109.374 174.93 109.455 175.123 109.533 175.315C109.842 176.082 110.109 176.866 110.315 177.668C111.009 180.454 111.478 183.486 110.514 186.286C110.443 186.482 110.363 186.676 110.275 186.865C110.265 186.887 110.247 186.904 110.224 186.913C110.201 186.922 110.175 186.922 110.153 186.913C110.13 186.903 110.113 186.885 110.103 186.862C110.094 186.839 110.094 186.814 110.103 186.791C110.176 186.602 110.24 186.409 110.297 186.215C111.058 183.455 110.515 180.545 109.83 177.793C109.627 177.002 109.428 176.209 109.246 175.405C109.201 175.204 109.156 174.999 109.115 174.801Z" fill="#695946"/>
<path d="M174.022 159.091C174.044 159.084 174.064 159.068 174.076 159.048C174.089 159.027 174.092 159.002 174.087 158.979C174.081 158.956 174.067 158.936 174.046 158.923C174.026 158.91 174.001 158.905 173.977 158.909C173.977 158.909 173.977 158.909 173.977 158.909C173.74 158.945 173.483 158.998 173.248 159.051C172.279 159.275 171.331 159.593 170.418 159.966C167.248 161.316 164.043 162.891 161.681 165.492C161.519 165.683 161.365 165.883 161.227 166.086C161.213 166.106 161.207 166.131 161.211 166.155C161.215 166.18 161.229 166.201 161.249 166.216C161.268 166.23 161.293 166.236 161.318 166.232C161.342 166.228 161.364 166.215 161.379 166.196C161.524 166.007 161.684 165.821 161.851 165.644C164.278 163.236 167.473 161.763 170.608 160.429C171.51 160.061 172.42 159.685 173.334 159.338C173.556 159.254 173.798 159.167 174.022 159.091Z" fill="#695946"/>
<path d="M98.1952 160.067C98.1797 160.048 98.1706 160.025 98.1708 160.001C98.1711 159.977 98.1805 159.954 98.1973 159.937C98.214 159.92 98.2369 159.91 98.2611 159.91C98.2853 159.909 98.3087 159.918 98.3271 159.933C98.3271 159.933 98.3271 159.933 98.3271 159.933C98.512 160.087 98.7045 160.264 98.8786 160.432C99.5923 161.123 100.239 161.886 100.829 162.677C102.847 165.47 104.777 168.474 105.457 171.921C105.497 172.168 105.526 172.419 105.539 172.664C105.54 172.689 105.532 172.713 105.516 172.732C105.5 172.751 105.478 172.762 105.453 172.764C105.429 172.766 105.405 172.758 105.386 172.743C105.367 172.727 105.355 172.704 105.352 172.68C105.326 172.443 105.284 172.201 105.233 171.963C104.398 168.648 102.423 165.736 100.428 162.975C99.8454 162.194 99.2603 161.402 98.6563 160.633C98.5095 160.446 98.3474 160.247 98.1952 160.067Z" fill="#695946"/>
<path d="M187.82 176.953C187.834 176.933 187.854 176.919 187.878 176.913C187.901 176.907 187.926 176.911 187.946 176.923C187.967 176.935 187.982 176.955 187.988 176.979C187.994 177.002 187.991 177.027 187.981 177.048C187.981 177.048 187.981 177.048 187.981 177.048C187.877 177.265 187.751 177.495 187.63 177.704C187.131 178.563 186.547 179.375 185.922 180.138C183.697 182.77 181.247 185.367 178.065 186.857C177.835 186.956 177.599 187.044 177.364 187.116C177.34 187.124 177.315 187.122 177.293 187.111C177.271 187.1 177.254 187.08 177.246 187.057C177.238 187.034 177.24 187.009 177.251 186.986C177.262 186.964 177.281 186.947 177.304 186.939C177.527 186.856 177.752 186.758 177.97 186.65C180.986 185.041 183.337 182.422 185.535 179.82C186.153 179.067 186.78 178.308 187.381 177.537C187.527 177.349 187.682 177.144 187.82 176.953Z" fill="#695946"/>
<path d="M73.2569 164.987C73.2519 164.964 73.239 164.943 73.2196 164.928C73.2003 164.914 73.1763 164.907 73.1527 164.91C73.129 164.913 73.1074 164.925 73.0923 164.944C73.0771 164.963 73.0699 164.987 73.0709 165.011C73.0709 165.011 73.0709 165.011 73.0709 165.011C73.0801 165.251 73.1036 165.512 73.1304 165.752C73.2444 166.739 73.4551 167.717 73.7234 168.666C74.7102 171.968 75.918 175.328 78.2385 177.966C78.4099 178.148 78.5912 178.324 78.7778 178.484C78.7964 178.5 78.8205 178.508 78.8451 178.507C78.8697 178.506 78.8928 178.495 78.9093 178.477C78.9257 178.459 78.9344 178.435 78.9333 178.41C78.9323 178.385 78.9215 178.362 78.9039 178.345C78.7321 178.18 78.5656 178 78.4083 177.814C76.287 175.134 75.1796 171.794 74.2044 168.529C73.9394 167.592 73.6678 166.646 73.4256 165.698C73.3667 165.468 73.3069 165.218 73.2569 164.987Z" fill="#695946"/>
<path d="M68.8392 164.994C68.8346 164.971 68.8229 164.95 68.8047 164.934C68.7865 164.919 68.7636 164.911 68.7404 164.912C68.7172 164.914 68.6954 164.924 68.6791 164.942C68.6629 164.959 68.6539 164.982 68.652 165.005C68.652 165.005 68.652 165.005 68.652 165.005C68.64 165.153 68.6359 165.313 68.6356 165.463C68.6369 166.074 68.708 166.682 68.8281 167.274C69.2808 169.332 69.8551 171.447 71.1988 173.148C71.3002 173.266 71.4076 173.379 71.5204 173.481C71.5385 173.497 71.5621 173.506 71.5866 173.506C71.6111 173.506 71.6344 173.496 71.6515 173.479C71.6686 173.462 71.6782 173.438 71.6783 173.414C71.6784 173.389 71.6689 173.366 71.6525 173.348C71.6525 173.348 71.6525 173.348 71.6525 173.348C71.5557 173.242 71.464 173.127 71.3777 173.007C70.2407 171.285 69.7617 169.196 69.3181 167.174C69.2003 166.593 69.0659 166.012 68.9338 165.43C68.9013 165.287 68.8685 165.135 68.8392 164.994Z" fill="#695946"/>
<path d="M157.562 170.572C157.578 170.554 157.588 170.531 157.589 170.507C157.59 170.484 157.582 170.46 157.566 170.443C157.551 170.425 157.529 170.414 157.505 170.412C157.481 170.41 157.457 170.417 157.438 170.431C157.438 170.431 157.438 170.431 157.438 170.431C157.286 170.537 157.134 170.647 156.984 170.76C156.384 171.209 155.819 171.701 155.299 172.243C153.492 174.125 151.942 176.429 151.504 179.049C151.473 179.235 151.448 179.42 151.428 179.608C151.425 179.632 151.432 179.656 151.447 179.676C151.462 179.696 151.484 179.708 151.508 179.712C151.532 179.715 151.557 179.709 151.576 179.694C151.596 179.68 151.609 179.658 151.614 179.634C151.646 179.452 151.684 179.273 151.727 179.094C152.333 176.58 153.889 174.438 155.66 172.589C156.169 172.058 156.678 171.528 157.184 170.983C157.312 170.846 157.438 170.708 157.562 170.572Z" fill="#695946"/>
<path d="M106.362 178.398C106.357 178.375 106.36 178.351 106.372 178.329C106.383 178.308 106.402 178.293 106.425 178.286C106.447 178.279 106.472 178.281 106.493 178.291C106.515 178.302 106.531 178.32 106.541 178.342C106.541 178.342 106.541 178.342 106.541 178.342C106.616 178.511 106.689 178.683 106.76 178.858C107.041 179.553 107.271 180.265 107.436 180.999C108.012 183.543 108.149 186.316 107.171 188.786C107.102 188.962 107.028 189.133 106.948 189.304C106.937 189.326 106.919 189.344 106.896 189.353C106.873 189.362 106.848 189.361 106.825 189.352C106.803 189.342 106.785 189.324 106.776 189.302C106.766 189.279 106.766 189.253 106.775 189.231C106.841 189.058 106.901 188.886 106.957 188.71C107.736 186.244 107.51 183.606 106.949 181.108C106.787 180.39 106.625 179.674 106.473 178.946C106.435 178.762 106.397 178.579 106.362 178.398Z" fill="#695946"/>
<path d="M168.315 245.891C169.333 245.989 170.33 245.562 170.962 244.758L199.824 208.024C201.798 205.513 200.176 201.815 196.991 201.565L98.7021 193.865C95.4783 193.613 92.3312 194.935 90.2549 197.414L65.8281 226.581C62.7283 230.282 65.0468 235.942 69.8525 236.405L168.315 245.891Z" fill="#EBF5FF" stroke="#319BFF" stroke-width="2"/>
<path d="M168.863 243.893C169.711 243.974 170.543 243.619 171.069 242.949L199.931 206.216C201.658 204.018 200.239 200.782 197.452 200.563L99.1631 192.864C96.1004 192.624 93.1111 193.88 91.1387 196.235L66.7109 225.401C63.8694 228.794 65.9951 233.984 70.4004 234.408L168.863 243.893Z" fill="#EBF5FF" stroke="#319BFF"/>
<path d="M95.9986 223.264C93.4442 226.352 95.3776 231.039 99.3657 231.428L165.663 237.893C166.346 237.96 167.016 237.671 167.437 237.129L186.592 212.45C188.055 210.565 186.838 207.809 184.459 207.62L118.255 202.37C115.332 202.138 112.479 203.345 110.609 205.605L95.9986 223.264Z" fill="#D5E7F8"/>
<path d="M173.5 223.5L117 218" stroke="#9DCFFF" stroke-width="2" stroke-linecap="round"/>
<path d="M177.5 216.5L121 211" stroke="#9DCFFF" stroke-width="2" stroke-linecap="round"/>
<path d="M156.487 235.652L172.85 216.062" stroke="#9DCFFF" stroke-width="2" stroke-linecap="round"/>
<path d="M57.248 177.455L154.215 183.57C158.709 183.854 162.459 187.105 163.376 191.514L173.6 240.664C174.422 244.618 171.182 248.238 167.162 247.859L73.9248 239.063C69.8804 238.682 66.4683 235.891 65.292 232.003L51.1279 185.181C49.9164 181.176 53.0723 177.192 57.248 177.455Z" fill="#EBF5FF" stroke="#319BFF" stroke-width="2"/>
<path d="M52.994 187.828C52.0233 184.504 54.6436 181.224 58.0998 181.436L152.493 187.229C156.525 187.476 159.899 190.38 160.743 194.331L170.581 240.361C171.285 243.656 168.595 246.69 165.239 246.385L73.6057 238.055C69.922 237.72 66.8183 235.166 65.7814 231.615L52.994 187.828Z" fill="#D5E7F8"/>
<path d="M100.846 206.385C99.3469 207.384 100.347 209.384 101.846 208.885C95.8491 213.885 100.282 221.182 106.347 222.386C108.858 222.885 114.885 223.621 116.847 218.386C118.347 214.385 115.681 210.72 113.847 209.386C114.847 209.219 116.012 207.885 114.347 206.886C112.881 206.007 112.181 207.553 112.347 208.385C107.547 205.985 104.014 207.385 102.847 208.385C103.347 207.385 102.788 205.092 100.846 206.385Z" fill="#9DCFFF"/>
<path d="M183.453 223.117C175.084 205.488 155.73 226.391 171.215 248.07" stroke="#695946" stroke-linecap="round"/>
<path d="M185.147 245.748C183.516 247.273 178.722 249.996 177.155 249.893L183.629 222.367C187.921 228.467 186.696 240.328 186.696 245.748L185.147 245.748Z" fill="#F7EED2"/>
<ellipse cx="175.724" cy="233.449" rx="9.82709" ry="16.8473" transform="rotate(-1.49503 175.724 233.449)" fill="#FCF6E0"/>
<rect x="33" y="9.86621" width="65.8958" height="49.5496" rx="5" transform="rotate(-8.61077 33 9.86621)" fill="#FDF8EA"/>
<path d="M61.5 19.0342L88.5 14.5342" stroke="#FFDACD" stroke-width="3" stroke-linecap="round"/>
<path d="M63.1033 29.4085L79.9773 26.5334" stroke="#FFDACD" stroke-width="3" stroke-linecap="round"/>
<circle cx="48.9034" cy="23.8971" r="7.8143" transform="rotate(-8.67343 48.9034 23.8971)" fill="#F36454"/>
<path d="M45.4746 21.376L52.3307 26.4171M46.3821 27.3246L51.4232 20.4685" stroke="#FEF8F2" stroke-width="2" stroke-linecap="round" stroke-linejoin="round"/>
<rect y="116.295" width="65.8958" height="49.5496" rx="5" transform="rotate(-7.2344 0 116.295)" fill="#FDF8EA"/>
<path d="M31.9993 122.495L59.0996 118.645" stroke="#C9E5FF" stroke-width="3" stroke-linecap="round"/>
<path d="M33.3541 132.905L50.2923 130.437" stroke="#C9E5FF" stroke-width="3" stroke-linecap="round"/>
<circle cx="15.1678" cy="131.165" r="10.3889" transform="rotate(-6.46154 15.1678 131.165)" fill="#F7F1E5"/>
<path d="M17.0488 133.093L13.3882 133.508L12.7615 136.078L11.6645 136.203L13.8633 127.572L15.2941 127.41L19.3554 135.332L18.2226 135.46L17.0488 133.093ZM16.595 132.178L14.7637 128.485L14.6206 128.501L13.6379 132.513L16.595 132.178Z" fill="#319BFF"/>
<rect x="209.357" y="16.998" width="65.8958" height="49.5496" rx="5" transform="rotate(7.37543 209.357 16.998)" fill="#FDF8EA"/>
<path d="M234.229 33.6619L261.425 36.7719" stroke="#E9E2BF" stroke-width="3" stroke-linecap="round"/>
<path d="M232.914 44.0774L249.928 45.9608" stroke="#E9E2BF" stroke-width="3" stroke-linecap="round"/>
<circle cx="221.052" cy="33.0516" r="9.18164" transform="rotate(5.73757 221.052 33.0516)" fill="#B8C367"/>
<path d="M225.392 31.6582L219.585 36.0999L217.182 33.3459" stroke="#FEF8F2" stroke-width="2" stroke-linecap="round" stroke-linejoin="round"/>
<path d="M106.5 33.5001C114.167 31.1668 130.8 30.7001 136 47.5001" stroke="#FFFBE3" stroke-width="2" stroke-linecap="round" stroke-dasharray="4 4"/>
<path d="M235.999 79.8502C237.152 85.6282 235.767 97.5823 220.999 99.1748" stroke="#FFFBE3" stroke-width="2" stroke-linecap="round" stroke-dasharray="4 4"/>
<path d="M42.8773 190.656C37.0024 190.208 25.8654 185.649 28.3168 170.999" stroke="#FFFBE3" stroke-width="2" stroke-linecap="round" stroke-dasharray="4 4"/>
</svg>
