<svg width="329" height="144" viewBox="0 0 329 144" fill="none" xmlns="http://www.w3.org/2000/svg">
  <rect width="329" height="144" rx="18" fill="#F3F5D1"/>
  <circle cx="286" cy="28" r="55" fill="#969855" fill-opacity="0.14"/>
  <circle cx="55" cy="120" r="48" fill="#969855" fill-opacity="0.12"/>
  <path d="M0 125C45 104 78 105 112 122C146 139 178 138 218 119C254 102 292 96 329 108V144H0V125Z" fill="#969855" fill-opacity="0.12"/>
  <rect x="25" y="22" width="61" height="28" rx="14" fill="#FDF9EE" fill-opacity="0.72"/>
  <text x="55.5" y="41" text-anchor="middle" fill="#969855" font-family="-apple-system, BlinkMacSystemFont, 'PingFang SC', 'Hiragino Sans GB', Arial, sans-serif" font-size="15" font-weight="700">体验</text>

      <path d="M38 111C72 64 107 48 145 68C179 86 206 68 243 37C262 21 289 19 313 36V144H38V111Z" fill="#DDE1AC" opacity="0.62"/>
      <path d="M159 89C168 70 190 59 210 66C231 73 239 92 230 108C221 124 197 125 186 112C178 121 158 119 151 104C149 99 151 94 159 89Z" fill="#FDF9EE" stroke="#969855" stroke-width="3"/>
      <circle cx="184" cy="91" r="6" fill="#969855"/><circle cx="214" cy="91" r="6" fill="#969855"/>
      <path d="M194 104H205M264 48L271 56L282 42M258 70H297" stroke="#969855" stroke-width="4" stroke-linecap="round"/>
      <g transform="translate(62 38) rotate(-8 24 17)"><rect width="48" height="34" rx="10" fill="#FDF9EE" stroke="#B8944D" stroke-width="2"/><path d="M14 18H32M14 34H18" stroke="#B8944D" stroke-width="4" stroke-linecap="round" opacity="0.45"/></g>
    <path d="M272 27L276 37L286 41L276 45L272 55L268 45L258 41L268 37L272 27Z" fill="#F3C96B" opacity="0.9"/>
    <path d="M53 92L56 100L64 103L56 106L53 114L50 106L42 103L50 100L53 92Z" fill="#F3C96B" opacity="0.75"/>
</svg>
