<svg width="329" height="144" viewBox="0 0 329 144" fill="none" xmlns="http://www.w3.org/2000/svg">
  <rect width="329" height="144" rx="18" fill="#EDF5FF"/>
  <circle cx="286" cy="28" r="55" fill="#5B86C7" fill-opacity="0.14"/>
  <circle cx="55" cy="120" r="48" fill="#5B86C7" fill-opacity="0.12"/>
  <path d="M0 125C45 104 78 105 112 122C146 139 178 138 218 119C254 102 292 96 329 108V144H0V125Z" fill="#5B86C7" fill-opacity="0.12"/>
  <rect x="25" y="22" width="61" height="28" rx="14" fill="#FDF9EE" fill-opacity="0.72"/>
  <text x="55.5" y="41" text-anchor="middle" fill="#5B86C7" font-family="-apple-system, BlinkMacSystemFont, 'PingFang SC', 'Hiragino Sans GB', Arial, sans-serif" font-size="15" font-weight="700">AI</text>

      <rect x="141" y="36" width="74" height="58" rx="16" fill="#FDF9EE" stroke="#5B86C7" stroke-width="3"/>
      <rect x="206" y="56" width="74" height="58" rx="16" fill="#FDF9EE" stroke="#5B86C7" stroke-width="3" opacity="0.95"/>
      <path d="M162 57H193M162 73H184M226 77H259M226 93H248" stroke="#5B86C7" stroke-width="5" stroke-linecap="round" opacity="0.45"/>
      <path d="M117 98C131 84 146 79 163 84M93 54C111 45 128 46 143 58" stroke="#5B86C7" stroke-width="5" stroke-linecap="round" opacity="0.34"/>
      <circle cx="105" cy="55" r="10" fill="#ADD3FF"/><circle cx="123" cy="98" r="8" fill="#ADD3FF"/>
</svg>
