<svg width="329" height="144" viewBox="0 0 329 144" fill="none" xmlns="http://www.w3.org/2000/svg">
  <rect width="329" height="144" rx="18" fill="#FFF2D4"/>
  <circle cx="286" cy="28" r="55" fill="#B8944D" fill-opacity="0.14"/>
  <circle cx="55" cy="120" r="48" fill="#B8944D" fill-opacity="0.12"/>
  <path d="M0 125C45 104 78 105 112 122C146 139 178 138 218 119C254 102 292 96 329 108V144H0V125Z" fill="#B8944D" fill-opacity="0.12"/>
  <rect x="25" y="22" width="61" height="28" rx="14" fill="#FDF9EE" fill-opacity="0.72"/>
  <text x="55.5" y="41" text-anchor="middle" fill="#B8944D" font-family="-apple-system, BlinkMacSystemFont, 'PingFang SC', 'Hiragino Sans GB', Arial, sans-serif" font-size="15" font-weight="700">通胀</text>

      <path d="M80 105C117 100 139 82 163 68C187 54 212 50 249 31" stroke="#B8944D" stroke-width="7" stroke-linecap="round" opacity="0.65"/>
      <path d="M236 30H253V47" stroke="#B8944D" stroke-width="7" stroke-linecap="round" stroke-linejoin="round" opacity="0.65"/>
      <circle cx="174" cy="93" r="24" fill="#FDF9EE" stroke="#B8944D" stroke-width="3"/><circle cx="225" cy="86" r="29" fill="#FDF9EE" stroke="#B8944D" stroke-width="3"/>
      <path d="M174 79V106M160 93H188M225 68V105M210 84H240" stroke="#B8944D" stroke-width="4" stroke-linecap="round" opacity="0.55"/>

    <path d="M272 27L276 37L286 41L276 45L272 55L268 45L258 41L268 37L272 27Z" fill="#F0B955" opacity="0.9"/>
    <path d="M53 92L56 100L64 103L56 106L53 114L50 106L42 103L50 100L53 92Z" fill="#F0B955" opacity="0.75"/>
</svg>
