<svg width="329" height="144" viewBox="0 0 329 144" fill="none" xmlns="http://www.w3.org/2000/svg">
  <rect width="329" height="144" rx="18" fill="#F4F6D2"/>
  <circle cx="286" cy="28" r="55" fill="#969855" fill-opacity="0.14"/>
  <circle cx="55" cy="120" r="48" fill="#969855" fill-opacity="0.12"/>
  <path d="M0 125C45 104 78 105 112 122C146 139 178 138 218 119C254 102 292 96 329 108V144H0V125Z" fill="#969855" fill-opacity="0.12"/>
  <rect x="25" y="22" width="61" height="28" rx="14" fill="#FDF9EE" fill-opacity="0.72"/>
  <text x="55.5" y="41" text-anchor="middle" fill="#969855" font-family="-apple-system, BlinkMacSystemFont, 'PingFang SC', 'Hiragino Sans GB', Arial, sans-serif" font-size="15" font-weight="700">学习</text>

      <g transform="translate(139 31) rotate(-9 21 16)"><rect width="42" height="32" rx="10" fill="#FDF9EE" stroke="#969855" stroke-width="2"/><path d="M14 18H26M14 34H12" stroke="#969855" stroke-width="4" stroke-linecap="round" opacity="0.45"/></g><g transform="translate(191 27) rotate(7 21 16)"><rect width="42" height="32" rx="10" fill="#FDF9EE" stroke="#969855" stroke-width="2"/><path d="M14 18H26M14 34H12" stroke="#969855" stroke-width="4" stroke-linecap="round" opacity="0.45"/></g><g transform="translate(242 46) rotate(11 21 16)"><rect width="42" height="32" rx="10" fill="#FDF9EE" stroke="#969855" stroke-width="2"/><path d="M14 18H26M14 34H12" stroke="#969855" stroke-width="4" stroke-linecap="round" opacity="0.45"/></g>
      <g transform="translate(142 82) rotate(8 21 16)"><rect width="42" height="32" rx="10" fill="#FDF9EE" stroke="#969855" stroke-width="2"/><path d="M14 18H26M14 34H12" stroke="#969855" stroke-width="4" stroke-linecap="round" opacity="0.45"/></g><g transform="translate(194 89) rotate(-5 21 16)"><rect width="42" height="32" rx="10" fill="#FDF9EE" stroke="#969855" stroke-width="2"/><path d="M14 18H26M14 34H12" stroke="#969855" stroke-width="4" stroke-linecap="round" opacity="0.45"/></g><g transform="translate(247 86) rotate(-10 21 16)"><rect width="42" height="32" rx="10" fill="#FDF9EE" stroke="#969855" stroke-width="2"/><path d="M14 18H26M14 34H12" stroke="#969855" stroke-width="4" stroke-linecap="round" opacity="0.45"/></g>
      <path d="M75 103C92 77 109 63 131 58" stroke="#969855" stroke-width="5" stroke-linecap="round" opacity="0.35"/>
      <circle cx="212" cy="72" r="33" fill="#DDE1AC" opacity="0.18"/>
</svg>
