<svg width="329" height="144" viewBox="0 0 329 144" fill="none" xmlns="http://www.w3.org/2000/svg">
  <rect width="329" height="144" rx="18" fill="#FDF9EE"/>
  <circle cx="286" cy="28" r="55" fill="#969855" fill-opacity="0.14"/>
  <circle cx="55" cy="120" r="48" fill="#969855" fill-opacity="0.12"/>
  <path d="M0 125C45 104 78 105 112 122C146 139 178 138 218 119C254 102 292 96 329 108V144H0V125Z" fill="#969855" fill-opacity="0.12"/>
  <rect x="25" y="22" width="61" height="28" rx="14" fill="#FDF9EE" fill-opacity="0.72"/>
  <text x="55.5" y="41" text-anchor="middle" fill="#969855" font-family="-apple-system, BlinkMacSystemFont, 'PingFang SC', 'Hiragino Sans GB', Arial, sans-serif" font-size="15" font-weight="700">UX</text>

      <rect x="142" y="28" width="126" height="88" rx="16" fill="#FFFFFF" fill-opacity="0.75" stroke="#969855" stroke-width="3"/>
      <rect x="160" y="49" width="35" height="22" rx="7" fill="#DDE1AC"/>
      <rect x="207" y="49" width="43" height="22" rx="7" fill="#FDF9EE" stroke="#969855" stroke-width="2"/>
      <rect x="160" y="83" width="90" height="14" rx="7" fill="#DDE1AC" opacity="0.55"/>
      <path d="M76 72L91 87L121 52" stroke="#969855" stroke-width="8" stroke-linecap="round" stroke-linejoin="round" opacity="0.75"/>

    <path d="M272 27L276 37L286 41L276 45L272 55L268 45L258 41L268 37L272 27Z" fill="#D4B052" opacity="0.9"/>
    <path d="M53 92L56 100L64 103L56 106L53 114L50 106L42 103L50 100L53 92Z" fill="#D4B052" opacity="0.75"/>
</svg>
