<svg width="329" height="144" viewBox="0 0 329 144" fill="none" xmlns="http://www.w3.org/2000/svg">
  <rect width="329" height="144" rx="18" fill="#F6F2DF"/>
  <circle cx="286" cy="28" r="55" fill="#969855" fill-opacity="0.14"/>
  <circle cx="55" cy="120" r="48" fill="#969855" fill-opacity="0.12"/>
  <path d="M0 125C45 104 78 105 112 122C146 139 178 138 218 119C254 102 292 96 329 108V144H0V125Z" fill="#969855" fill-opacity="0.12"/>
  <rect x="25" y="22" width="61" height="28" rx="14" fill="#FDF9EE" fill-opacity="0.72"/>
  <text x="55.5" y="41" text-anchor="middle" fill="#969855" font-family="-apple-system, BlinkMacSystemFont, 'PingFang SC', 'Hiragino Sans GB', Arial, sans-serif" font-size="15" font-weight="700">发现</text>

      <circle cx="205" cy="34" r="10" fill="#969855" opacity="0.75"/><circle cx="160" cy="82" r="10" fill="#969855" opacity="0.55"/><circle cx="244" cy="88" r="10" fill="#969855" opacity="0.55"/>
      <path d="M205 45V63M199 66L166 78M212 66L238 83" stroke="#969855" stroke-width="5" stroke-linecap="round" opacity="0.65"/>
      <g transform="translate(78 44) rotate(-6 24 18)"><rect width="48" height="36" rx="10" fill="#FDF9EE" stroke="#969855" stroke-width="2"/><path d="M14 18H32M14 34H18" stroke="#969855" stroke-width="4" stroke-linecap="round" opacity="0.45"/></g>
      <rect x="181" y="62" width="54" height="33" rx="13" fill="#FDF9EE" stroke="#969855" stroke-width="3"/>
      <path d="M191 78H224" stroke="#969855" stroke-width="5" stroke-linecap="round" opacity="0.42"/>
</svg>
