<svg width="329" height="144" viewBox="0 0 329 144" fill="none" xmlns="http://www.w3.org/2000/svg">
  <rect width="329" height="144" rx="18" fill="#F0F4CC"/>
  <circle cx="286" cy="28" r="55" fill="#969855" fill-opacity="0.14"/>
  <circle cx="55" cy="120" r="48" fill="#969855" fill-opacity="0.12"/>
  <path d="M0 125C45 104 78 105 112 122C146 139 178 138 218 119C254 102 292 96 329 108V144H0V125Z" fill="#969855" fill-opacity="0.12"/>
  <rect x="25" y="22" width="61" height="28" rx="14" fill="#FDF9EE" fill-opacity="0.72"/>
  <text x="55.5" y="41" text-anchor="middle" fill="#969855" font-family="-apple-system, BlinkMacSystemFont, 'PingFang SC', 'Hiragino Sans GB', Arial, sans-serif" font-size="15" font-weight="700">回忆</text>

      <rect x="159" y="37" width="92" height="66" rx="14" fill="#FDF9EE" stroke="#969855" stroke-width="3"/>
      <path d="M181 60H229M181 78H214" stroke="#969855" stroke-width="6" stroke-linecap="round" opacity="0.38"/>
      <path d="M135 94C118 70 128 42 154 32C174 24 194 29 207 43" stroke="#969855" stroke-width="5" stroke-linecap="round" opacity="0.55"/>
      <path d="M202 29L211 46L193 46" stroke="#969855" stroke-width="5" stroke-linecap="round" stroke-linejoin="round" opacity="0.55"/>
      <path d="M262 51C279 78 269 105 242 114C222 121 203 115 191 101" stroke="#969855" stroke-width="5" stroke-linecap="round" opacity="0.42"/>
      <path d="M195 115L188 98L206 100" stroke="#969855" stroke-width="5" stroke-linecap="round" stroke-linejoin="round" opacity="0.42"/>
</svg>
