<svg width="283" height="61" viewBox="0 0 283 61" fill="none" xmlns="http://www.w3.org/2000/svg">
<g filter="url(#filter0_d_395_1203)">
<path d="M246.57 9.03491C237.472 16.9379 219.014 33.1215 217.962 34.6325C217.251 35.6545 219.079 40.5277 221.758 41.5845C222.272 41.7871 222.711 42.2384 222.804 42.7827C223.271 45.4881 226.033 47.6021 233.033 47.0671C248.891 45.8552 269.697 33.5495 278.117 27.5482" stroke="#1C140A" stroke-width="3"/>
<path d="M217.962 34.6325C219.014 33.1215 237.472 16.9379 246.57 9.03491L278.427 26.858C270.006 32.8594 248.891 45.8552 233.033 47.0671C226.033 47.6021 223.271 45.4881 222.804 42.7827C222.711 42.2384 222.272 41.7871 221.758 41.5845C219.079 40.5277 217.251 35.6545 217.962 34.6325Z" fill="#FFFBE3"/>
</g>
<g filter="url(#filter1_d_395_1203)">
<path d="M37.2767 0.864258L58.7684 31.3687C59.5766 32.985 58.2466 37.1277 55.0162 37.6017C54.6414 37.6567 54.2891 37.8597 54.1367 38.2064C53.0795 40.6117 53.4003 41.8709 50.4491 42.4612C42.1297 44.125 16.9404 26.9779 5.38574 18.1963" stroke="#1C140A" stroke-width="3"/>
<path d="M58.7693 31.3687L37.2775 0.864258L4 16.8097C15.5547 25.5913 42.1305 44.125 50.4499 42.4612C53.4011 41.8709 53.0803 40.6117 54.1375 38.2064C54.2899 37.8597 54.6423 37.6567 55.017 37.6017C58.2474 37.1277 59.5774 32.985 58.7693 31.3687Z" fill="#FFFBE3"/>
</g>
<defs>
<filter id="filter0_d_395_1203" x="212.308" y="7.90234" width="70.6807" height="48.748" filterUnits="userSpaceOnUse" color-interpolation-filters="sRGB">
<feFlood flood-opacity="0" result="BackgroundImageFix"/>
<feColorMatrix in="SourceAlpha" type="matrix" values="0 0 0 0 0 0 0 0 0 0 0 0 0 0 0 0 0 0 127 0" result="hardAlpha"/>
<feOffset dy="4"/>
<feGaussianBlur stdDeviation="2"/>
<feComposite in2="hardAlpha" operator="out"/>
<feColorMatrix type="matrix" values="0 0 0 0 0.596078 0 0 0 0 0.639216 0 0 0 0 0.368627 0 0 0 0.2 0"/>
<feBlend mode="normal" in2="BackgroundImageFix" result="effect1_dropShadow_395_1203"/>
<feBlend mode="normal" in="SourceGraphic" in2="effect1_dropShadow_395_1203" result="shape"/>
</filter>
<filter id="filter1_d_395_1203" x="0" y="0" width="64.499" height="52.0742" filterUnits="userSpaceOnUse" color-interpolation-filters="sRGB">
<feFlood flood-opacity="0" result="BackgroundImageFix"/>
<feColorMatrix in="SourceAlpha" type="matrix" values="0 0 0 0 0 0 0 0 0 0 0 0 0 0 0 0 0 0 127 0" result="hardAlpha"/>
<feOffset dy="4"/>
<feGaussianBlur stdDeviation="2"/>
<feComposite in2="hardAlpha" operator="out"/>
<feColorMatrix type="matrix" values="0 0 0 0 0.596078 0 0 0 0 0.639216 0 0 0 0 0.368627 0 0 0 0.2 0"/>
<feBlend mode="normal" in2="BackgroundImageFix" result="effect1_dropShadow_395_1203"/>
<feBlend mode="normal" in="SourceGraphic" in2="effect1_dropShadow_395_1203" result="shape"/>
</filter>
</defs>
</svg>
