<svg width="32" height="32" viewBox="274 46 32 32" fill="none" xmlns="http://www.w3.org/2000/svg">
<path d="M285.43 69.1426C278.808 71.872 279.605 67.4368 280.831 64.878L291.081 53.6954C291.195 53.571 291.343 53.4752 291.504 53.4243C296.474 51.8531 296.75 55.0073 296.221 56.9905C296.184 57.1306 296.11 57.2576 296.013 57.3654L285.43 69.1426Z" fill="#98A84E"/>
<path d="M285.43 69.1426L296.013 57.3654C296.11 57.2576 296.184 57.1306 296.221 56.9905C296.75 55.0073 296.474 51.8531 291.504 53.4243C291.343 53.4752 291.195 53.571 291.081 53.6954L280.831 64.878C279.605 67.4368 278.808 71.872 285.43 69.1426ZM280.831 64.878L285.43 69.1426" stroke="#FEFBF5" stroke-width="1.5"/>
<path d="M288.803 69.9961H298" stroke="#98A84E" stroke-width="1.5" stroke-linecap="round"/>
</svg>
