<svg width="188" height="207" viewBox="0 0 188 207" fill="none" xmlns="http://www.w3.org/2000/svg">
<ellipse cx="102.695" cy="189.606" rx="83.6152" ry="12.3874" fill="#CACE89"/>
<path d="M36.2022 63.4098C30.7827 78.1199 33 107 47.004 112.185C41.5855 134.638 13.75 191.93 63.0754 194.576C65.1066 194.685 69.1008 195.193 74.3203 195.588C88.9913 196.698 113.246 198.014 129.891 197.438C134.093 197.293 137.81 197.027 140.766 196.607C141.191 196.546 141.597 196.466 141.992 196.416C202.938 188.605 189.461 150.122 173.976 100.572C177.847 87.4105 153.846 27.0217 129.89 16.1827C141.339 13.9338 141.949 4.88641 134.439 1.47304C125.923 -2.39768 122.052 6.11713 122.826 12.3113C113.535 6.11713 81.889 2.24686 61.7594 15.4116C69.4009 8.6059 55.6366 3.1734 50.9203 6.12104C44.7266 9.99212 44.1783 27.8003 55.5656 20.0569C41.7245 29.4688 36.2022 57.2161 36.2022 63.4098Z" fill="#FFFBE3" stroke="#CEAE71"/>
<path d="M112.612 81.7168C114.45 81.7957 116.114 82.5598 117.317 83.6426C118.528 84.7319 119.229 86.1022 119.229 87.3691C119.229 89.8493 116.45 92.2552 112.435 91.3711C110.171 90.8727 107.842 89.1169 107.842 85.873C107.842 84.5572 108.319 83.5363 109.124 82.8379C109.935 82.1351 111.124 81.7199 112.612 81.7168Z" fill="#FED1C1" stroke="#F7C2AD"/>
<path d="M44.4984 80.4499C42.8072 81.1733 41.5204 82.4764 40.7779 83.9145C40.0308 85.3613 39.8588 86.8912 40.3065 88.0764C41.1832 90.3965 44.6333 91.6647 48.0773 89.4181C50.0188 88.1517 51.5768 85.686 50.4301 82.6515C49.965 81.4206 49.1582 80.6342 48.1578 80.2656C47.1512 79.8947 45.8915 79.9268 44.4984 80.4499Z" fill="#FED1C1" stroke="#F7C2AD"/>
<path d="M73.293 71.9678L77.8386 74.3824L82.5832 71.8935M77.8551 76.4402L77.9319 86.0435M77.9319 86.0435L74.8461 87.4401M77.9319 86.0435L81.0396 87.3906" stroke="#1C140A" stroke-linecap="round"/>
<circle cx="56.1568" cy="72.1467" r="12.9999" transform="rotate(-0.0535117 56.1568 72.1467)" stroke="black" stroke-width="0.5"/>
<path d="M69.1779 70.5629C72.2904 68.8653 81.2741 66.4847 89.6141 70.5441" stroke="black" stroke-width="0.5"/>
<path d="M43.1266 71.9344L40.8809 71.9365" stroke="black" stroke-width="0.5" stroke-linecap="round"/>
<path d="M115.439 71.8682L117.91 71.8659" stroke="black" stroke-width="0.5" stroke-linecap="round"/>
<circle cx="102.194" cy="74.3478" r="12.9999" transform="rotate(-0.0535117 102.194 74.3478)" stroke="black" stroke-width="0.5"/>
<path d="M57.7909 16.9492C55.0772 17.1312 50.7145 13.2327 51.6456 11.9359C53.6412 9.15628 56.4077 13.425 57.7909 16.9492Z" fill="#F7E7D4"/>
<path d="M126.413 12.2833C125.319 10.7242 129.453 4.90174 131.829 6.81847C134.088 8.64008 127.923 12.6777 126.413 12.2833Z" fill="#F7E7D4"/>
<path d="M61.23 77.2948C61.245 79.1735 59.7342 80.7086 57.8556 80.7236C55.9769 80.7386 54.4418 79.2279 54.4268 77.3492C54.4117 75.4705 54.4063 74.7979 57.8012 73.9204C61.918 72.8563 61.2028 73.8932 61.23 77.2948Z" fill="#403320"/>
<path d="M97.0005 77.3909C97.0155 79.2696 98.5506 80.7804 100.429 80.7653C102.308 80.7503 103.819 79.2152 103.804 77.3365C103.789 75.4578 103.783 74.7852 100.375 73.9621C96.2415 72.964 96.9733 73.9893 97.0005 77.3909Z" fill="#403320"/>
<path d="M54.4062 74.7985C56.3905 74.7826 58.6582 74.7645 60.3454 73.05" stroke="#3E331D" stroke-linecap="round"/>
<path d="M52.5556 56.103C54.5398 56.0871 58.6744 55.5438 59.3384 53.4973" stroke="#3E331D" stroke-linecap="round"/>
<path d="M103.734 75.2535C101.75 75.2694 99.4755 74.4372 97.7679 73.6004" stroke="#3E331D" stroke-linecap="round"/>
<path d="M105.282 55.6811C103.298 55.697 99.1551 55.2198 98.4585 53.1843" stroke="#3E331D" stroke-linecap="round"/>
<path d="M38.0268 165.602C31.0601 154.765 13.2541 163.282 27.962 189.603" stroke="#695946" stroke-linecap="round"/>
<path d="M44.6293 189.605C43.3906 191.463 39.5758 192.849 38.0273 193.107V164.83C43.6017 169.785 47.7262 182.637 47.7262 191.153L44.6293 189.605Z" fill="#F7EED2"/>
<ellipse cx="32.8678" cy="177.43" rx="9.82709" ry="16.8473" transform="rotate(-14.7299 32.8678 177.43)" fill="#FCF6E0"/>
<path d="M121.129 174.717C112.76 157.088 93.4057 177.991 108.89 199.669" stroke="#695946" stroke-linecap="round"/>
<path d="M122.825 197.348C121.194 198.874 116.399 201.597 114.833 201.493L121.307 173.968C125.599 180.067 124.373 191.929 124.373 197.348L122.825 197.348Z" fill="#F7EED2"/>
<ellipse cx="113.4" cy="185.05" rx="9.82709" ry="16.8473" transform="rotate(-1.49503 113.4 185.05)" fill="#FCF6E0"/>
<path d="M101.061 126.652C103.502 127.116 105.106 129.471 104.642 131.913L103.488 137.985L100.55 136.233L100.112 134.809L99.8912 134.09L99.3136 134.571L96.3082 137.08L97.4983 133.453L97.6302 133.052L97.2571 132.855L94.7019 131.507L95.8325 130.428L96.4177 129.869L95.6565 129.596L94.0718 129.027L93.9352 128.977L93.7928 129.009L92.5374 129.292L93.3717 126.956L93.399 126.881L93.4005 126.8L93.4374 125.203L101.061 126.652Z" fill="#FEF5E3" stroke="#BFB175"/>
<path d="M63.0493 135.326L85.507 128.984L86.2225 130.508L86.6197 133.79L86.7285 134.693L87.4326 134.118L89.019 132.822L89.7436 132.736L89.2522 134.1L89.0167 134.754L89.712 134.769L92.8723 134.839L93.6203 139.924L93.8735 141.651L94.5728 140.052L96.5379 135.555L97.1822 136.231L97.3149 136.37L97.5065 136.384L101.473 136.68L111.544 172.345C112.219 174.737 110.827 177.223 108.436 177.899L77.5348 186.624C75.1431 187.3 72.6567 185.908 71.9812 183.517L59.9415 140.879C59.2661 138.487 60.6575 136.001 63.0493 135.326Z" fill="#FDF4E2" stroke="#BFB175"/>
<path d="M79.674 141.302C80.0168 139.801 81.8559 139.234 82.9844 140.282L91.3703 148.064C92.4988 149.112 92.0704 150.988 90.5991 151.442L79.6659 154.813C78.1946 155.266 76.784 153.957 77.1268 152.456L79.674 141.302Z" fill="#ED765C"/>
<rect x="80.9746" y="142.56" width="1.71982" height="5.73272" rx="0.859908" transform="rotate(-17.1358 80.9746 142.56)" fill="#FDFAF2"/>
<rect x="83" y="149.133" width="1.71982" height="1.71982" rx="0.859908" transform="rotate(-17.1358 83 149.133)" fill="#FDFAF2"/>
<path d="M76.8281 165.638L95.0489 160.595" stroke="#F8DFC3" stroke-width="2" stroke-linecap="round"/>
<path d="M78.8965 171.283L90.5774 167.975" stroke="#F8DFC3" stroke-width="2" stroke-linecap="round"/>
<path d="M66.9171 147.59C68.6362 140.057 62.4895 120.372 62.4895 120.372L45.8256 104.114C34.2111 132.76 52.8016 153.559 58.698 154.112C60.7289 154.302 60.8809 153.351 62.0686 151.853C62.3151 151.543 62.7382 151.426 63.0897 151.61C64.9756 152.597 65.3515 154.451 66.9171 147.59Z" fill="#FFFBE3"/>
<path d="M63.7179 126.59C68.3632 136.653 66.9146 147.59 66.9146 147.59C67.0449 148.932 65.2751 151.613 63.1266 151.479C62.7306 151.454 62.3125 151.543 62.0661 151.854C60.8783 153.352 60.7264 154.302 58.6954 154.112C52.7991 153.559 46.1818 147.59 44.6322 131.541" stroke="#CEAE71"/>
<path d="M123.318 143.948L134.147 120.282L153.375 109.648C156.79 138.62 134.674 152.907 129.169 151.937C127.286 151.605 127.371 150.712 126.68 149.074C126.526 148.708 126.146 148.512 125.758 148.425C123.794 147.984 122.867 145.129 123.318 143.948Z" fill="#FFFBE3"/>
<path d="M129.174 130.768C124.374 136.187 123.32 143.948 123.32 143.948C122.869 145.13 123.796 147.985 125.761 148.425C126.148 148.512 126.528 148.708 126.683 149.074C127.374 150.712 127.289 151.605 129.172 151.937C134.676 152.907 142.962 147.8 149.678 133.365" stroke="#CEAE71"/>
<path d="M26.2656 47.1854C25.6462 52.7598 20.8465 51.5727 18.5241 50.2823C17.7499 51.0565 20.0725 58.0246 22.3951 57.2503C16.8208 60.9666 12.8472 55.7024 11.5568 52.6055C9.49157 55.4443 3.55906 54.6778 1.49 51.0571C-1.60702 45.6376 3.29696 40.4762 6.13598 40.2181C6.13598 39.4439 5.05208 33.869 13.1039 33.2496C21.1557 32.6302 21.1054 40.2181 20.0731 44.0892C22.3958 42.7988 26.6732 43.5168 26.2656 47.1854Z" fill="#DBE09C"/>
<path d="M25.492 58.7988C25.234 58.0246 24.2529 56.6314 22.3951 57.2503M22.3951 57.2503C20.0725 58.0246 17.7499 51.0565 18.5241 50.2823C20.8465 51.5727 25.6462 52.7598 26.2656 47.1854C26.6732 43.5168 22.3958 42.7988 20.0731 44.0892C21.1054 40.2181 21.1557 32.6302 13.1039 33.2496C5.05208 33.869 6.13598 39.4439 6.13598 40.2181C3.29696 40.4762 -1.60702 45.6376 1.49 51.0571C3.55906 54.6778 9.49157 55.4443 11.5568 52.6055C12.8472 55.7024 16.8208 60.9666 22.3951 57.2503Z" stroke="#C9CC88"/>
</svg>
