<svg width="193" height="150" viewBox="0 0 193 150" fill="none" xmlns="http://www.w3.org/2000/svg">
<ellipse cx="105.153" cy="116.224" rx="98.0218" ry="29.4781" transform="rotate(-2.1414 105.153 116.224)" fill="#F2ECCF"/>
<path d="M85.5473 54.0395C86.7872 52.2271 89.546 52.5272 90.367 54.5638L98.0702 73.6791C98.8658 75.6537 97.2124 77.7443 95.1075 77.4254L76.2789 74.5725C74.2745 74.2686 73.2764 71.9742 74.421 70.3009L85.5473 54.0395Z" fill="#C6C387" stroke="#787936" stroke-width="0.5"/>
<path d="M84.2627 55.3689C85.0416 54.1901 86.8239 54.3729 87.3477 55.6851L95.6348 76.4492C95.849 76.9863 95.4012 77.5532 94.8293 77.4689L76.1768 74.7072C74.1863 74.4125 73.1764 72.1493 74.2856 70.4705L84.2627 55.3689Z" fill="#DFDCAB" stroke="#787936" stroke-width="0.5"/>
<path d="M103.514 62.0114C98.3158 60.1923 87.7431 56.4382 87.0411 55.9743C86.6293 55.7021 86.5393 53.8771 87.1485 52.8094C87.4223 52.3297 87.6456 51.7068 87.6791 51.1555C87.7445 50.0813 88.7205 48.9649 91.3404 48.1476C98.2792 45.9832 109.194 47.6939 113.784 48.8198" stroke="#CEAE71" stroke-width="2"/>
<path d="M87.0411 55.9743C87.7431 56.4382 98.3158 60.1923 103.514 62.0114L114.032 49.0606C109.442 47.9347 98.2792 45.9832 91.3404 48.1476C88.7204 48.9649 87.7445 50.0813 87.6791 51.1555C87.6456 51.7068 87.4223 52.3297 87.1485 52.8094C86.5393 53.8771 86.6293 55.7021 87.0411 55.9743Z" fill="#FFFBE3"/>
<path d="M101.062 38.8824C98.2745 45.8523 102.224 51.9508 104.547 54.1289L103.676 62.4049C104.831 88.5417 115.873 91.591 136.347 95.9472L151.594 98.5608C196.897 96.3828 182.522 59.3556 175.988 38.8824C170.761 22.5039 165.098 16.9563 162.92 16.2298L152.9 9.26003C141.4 2.29021 128.651 4.61392 123.714 6.647C122.407 -6.85749 104.112 5.34096 115.873 10.5681C104.722 18.9319 100.772 33.3647 101.062 38.8824Z" fill="#FFFBE3" stroke="#CEAE71" stroke-linecap="round"/>
<path d="M137.137 77.2067C133.242 79.4993 125.288 84.133 124.625 84.3269C124.259 84.434 123.182 83.6328 122.768 82.7479C122.534 82.2475 122.175 81.6671 121.822 81.2423C121.286 80.5976 121.183 79.4208 122 77.4858C124.322 71.992 131.178 66.0613 134.315 63.7826" stroke="#CEAE71" stroke-width="2"/>
<path d="M124.625 84.3269C125.288 84.133 133.242 79.4993 137.137 77.2067L134.598 63.7548C131.46 66.0334 124.322 71.992 122 77.4858C121.183 79.4208 121.286 80.5976 121.822 81.2423C122.175 81.6672 122.534 82.2475 122.768 82.7479C123.182 83.6328 124.259 84.434 124.625 84.3269Z" fill="#FFFBE3"/>
<path d="M117.165 39.9824L119.146 41.4384L121.497 40.4374M119.037 42.4748L118.529 47.3113M118.529 47.3113L117.013 47.8506M118.529 47.3113L119.901 48.1539" stroke="#1C140A" stroke-linecap="round"/>
<circle cx="107.009" cy="37.0665" r="8.68132" transform="rotate(4.27338 107.009 37.0665)" stroke="black"/>
<path d="M115.873 36.4907C117.508 35.6052 121.899 34.7643 125.164 38.2515" stroke="black"/>
<path d="M98.0206 36.238L96.4688 36.1221" stroke="black" stroke-linecap="round"/>
<path d="M142.883 39.3174L144.59 39.4449" stroke="black" stroke-linecap="round"/>
<circle cx="133.557" cy="40.4444" r="8.68132" transform="rotate(4.27338 133.557 40.4444)" stroke="black"/>
<path d="M152.465 11.92C154.643 -1.58388 174.246 8.43539 160.306 17.5827L152.465 11.92Z" fill="#FFFBE3"/>
<path d="M152.465 11.92C154.643 -1.58388 174.246 8.43539 160.306 17.5827" stroke="#CEAE71" stroke-linecap="round"/>
<path d="M109.338 36.332C110.183 36.332 111.016 37.1889 111.017 38.4453C111.017 39.7019 110.183 40.5596 109.338 40.5596C108.493 40.5593 107.66 39.7017 107.66 38.4453C107.66 37.1891 108.493 36.3323 109.338 36.332Z" fill="#4B2800" stroke="#311900"/>
<path d="M131.99 39.8174C132.835 39.8174 133.669 40.6743 133.669 41.9307C133.669 43.1872 132.836 44.0449 131.99 44.0449C131.145 44.0447 130.312 43.1871 130.312 41.9307C130.313 40.6745 131.145 39.8176 131.99 39.8174Z" fill="#4B2800" stroke="#311900"/>
<path d="M136.296 89.9772C133.683 99.1242 145.008 102.61 151.107 98.2539V90.8484C149.8 83.4424 138.909 80.8302 136.296 89.9772Z" fill="#FFFBE3"/>
<path d="M151.107 98.2539C145.008 102.61 133.683 99.1242 136.296 89.9772C138.909 80.8302 149.8 83.4424 151.107 90.8484" stroke="#CEAE71" stroke-linecap="round"/>
<path d="M120.138 8.82194C117.933 8.79864 115.431 6.39952 116.298 5.20604C118.156 2.64787 119.337 5.28949 120.138 8.82194Z" fill="#F7E7D4"/>
<path d="M156.182 15.736C155.417 13.7581 159.381 7.12232 161.177 9.64837C162.884 12.0491 157.399 16.3491 156.182 15.736Z" fill="#F7E7D4"/>
<path d="M2.61328 96.3844C2.61328 86.2782 12.4872 84.042 17.4241 84.1872L102.804 78.5246C106.144 77.7985 114.218 77.6533 119.793 82.8807C125.369 88.1081 129.958 98.708 131.555 103.355C133.994 116.597 121.826 120.198 115.437 120.343L28.7501 127.749C26.1364 127.749 18.2954 128.359 13.5036 126.442C4.79135 122.957 2.61328 109.017 2.61328 96.3844Z" fill="#F3E9CB" stroke="#7F7D41" stroke-linecap="round"/>
<path d="M3.78119 100.805C1.811 92.9474 7.42931 85.221 15.5117 84.6731L106.385 78.5132C112.971 78.0668 119.221 81.4737 122.414 87.2516L127.188 95.8906C131.064 102.904 126.38 111.576 118.389 112.18L24.6797 119.264C15.4544 119.962 7.06786 113.913 4.81782 104.939L3.78119 100.805Z" fill="#FDFAF0"/>
<path d="M5.96465 100.442C3.99255 92.5769 9.62343 84.8453 17.7144 84.3089L105.606 78.4826C112.57 78.0209 119.174 81.6275 122.55 87.7368L126.252 94.4342C130.131 101.454 125.435 110.132 117.436 110.725L26.4724 117.461C17.257 118.144 8.88698 112.097 6.63961 103.134L5.96465 100.442Z" fill="#FEF8E7"/>
<path d="M16.9883 102.465V98.5441L44.8676 97.6729V102.029C42.2539 113.791 18.2951 112.048 16.9883 102.465Z" fill="#C4C184" stroke="#9A9954" stroke-linecap="round"/>
<path d="M30.4181 90.0142C34.1545 89.7383 37.5865 90.4705 40.112 91.851C42.6428 93.2346 44.205 95.2299 44.3708 97.4734C44.5364 99.7169 43.2843 101.919 40.9843 103.66C38.6891 105.396 35.4022 106.626 31.6656 106.902C27.9288 107.178 24.4963 106.445 21.9707 105.064C19.4399 103.681 17.8778 101.686 17.712 99.4427C17.5462 97.1991 18.7983 94.996 21.0984 93.2555C23.3937 91.5188 26.6814 90.2903 30.4181 90.0142Z" fill="#DFDDA9" stroke="#9A9954"/>
<path d="M64.9404 88.5604C65.8083 86.9075 68.0362 86.5809 69.3416 87.9153L84.4522 103.363C85.4938 104.428 84.8135 106.224 83.3276 106.332L57.6529 108.19C56.2845 108.289 55.3401 106.846 55.978 105.632L64.9404 88.5604Z" fill="#E4D6B4" stroke="#B6A671" stroke-width="0.5"/>
<path d="M65.4098 91.2902C66.2776 89.6373 68.5055 89.3107 69.811 90.6451L83.8914 105.04C84.3379 105.496 84.0466 106.266 83.4098 106.312L57.8451 108.163C57.2587 108.205 56.8538 107.587 57.127 107.066L65.4098 91.2902Z" fill="#DDD1AB" stroke="#B6A671" stroke-width="0.5"/>
<path d="M65.5672 93.3022C66.5139 91.4991 68.9438 91.1432 70.3679 92.599L82.051 104.542C82.6463 105.151 82.2574 106.177 81.4083 106.239L59.6742 107.812C58.8921 107.869 58.3521 107.044 58.7166 106.35L65.5672 93.3022Z" fill="#EBDDBA"/>
<path d="M108.367 85.3017C110.73 85.0744 112.99 86.3225 114.056 88.444L119.411 99.1064C120.285 100.845 119.125 102.916 117.186 103.08L99.0324 104.619C97.3101 104.765 95.7112 103.715 95.1609 102.076L90.8193 89.1447C90.4613 88.0772 91.1903 86.954 92.3111 86.8461L108.367 85.3017Z" fill="#E3D6AF" stroke="#A8A063" stroke-width="0.5"/>
<path d="M108.563 87.8244C110.56 87.6358 112.461 88.7224 113.312 90.5397L118.543 101.717C118.76 102.181 118.458 102.722 117.949 102.781L99.519 104.895C97.7817 105.095 96.137 104.067 95.5549 102.418L91.736 91.5967C91.3572 90.523 92.0887 89.3791 93.2222 89.2721L108.563 87.8244Z" fill="#D4C797" stroke="#A8A063" stroke-width="0.5"/>
<path d="M92.746 93.5295C92.3232 92.2995 93.1685 90.9995 94.4642 90.8869L108.463 89.6704C110.558 89.4883 112.542 90.6363 113.429 92.5427L117.587 101.48C117.876 102.101 117.468 102.823 116.787 102.896L99.8775 104.708C98.0218 104.907 96.2752 103.796 95.6685 102.031L92.746 93.5295Z" fill="#E3D6AE"/>
<path d="M144.623 98.7004C146.366 96.958 149.415 97.0505 150.722 97.44L165.097 100.443C167.188 100.791 167.42 102.911 167.275 103.928V112.64C167.275 114.383 167.275 115.345 166.839 115.735L161.176 122.659C159.782 124.402 157.256 124.012 155.513 123.576L140.267 120.046C138.873 119.697 137.653 118.349 137.653 117.432V109.155C137.653 107.413 138.234 106.396 138.525 106.106L144.623 98.7004Z" fill="#EFC461" stroke="#DBAC3C" stroke-linecap="round"/>
<path d="M164.033 100.266C166.357 100.757 167.386 103.495 165.961 105.396L161.912 110.793C160.463 112.725 158.031 113.649 155.665 113.168L140.743 110.127C138.343 109.638 137.325 106.772 138.879 104.88L143.038 99.818C144.755 97.7276 147.493 96.7667 150.14 97.3266L164.033 100.266Z" fill="#FEE7A9" stroke="#DBAC3C" stroke-width="0.5"/>
<path d="M144.11 100.205C145.757 98.1024 148.457 97.1198 151.07 97.6727L162.896 100.174C165.013 100.622 165.974 103.095 164.715 104.855L161.291 109.641C159.914 111.566 157.533 112.502 155.213 112.03L142.408 109.421C140.223 108.976 139.27 106.387 140.644 104.632L144.11 100.205Z" fill="#FEDD84"/>
<path d="M159.869 123.343V112.889" stroke="#DBAC3C" stroke-width="0.5" stroke-linecap="round"/>
</svg>
